ISO-10303-21;
HEADER;
/* Generated by software containing ST-Developer
 * from STEP Tools, Inc. (www.steptools.com) 
 */
/* OPTION: using custom renumber hook */

FILE_DESCRIPTION(
/* description */ ('STEP AP242 Edition 2',
'CAx-IF Rec.Pracs.---Representation and Presentation of Product Manufa
cturing Information (PMI)---4.0---2014-10-13',
'CAx-IF Rec.Pracs.---3D Tessellated Geometry---0.4---2014-09-14','2;1',
'CAx-IF Rec.Pracs.---User Defined Attributes---1.5---2016-08-15'),
/* implementation_level */ '2;1');

FILE_NAME(
/* name */ '6a74f24810077e304cb0cf2f',
/* time_stamp */ '2026-08-06T20:44:57Z',
/* author */ (''),
/* organization */ (''),
/* preprocessor_version */ 'ST-DEVELOPER v20',
/* originating_system */ 'ONSHAPE BY PTC INC, 1.218',
/* authorisation */ '  ');

FILE_SCHEMA (('AP242_MANAGED_MODEL_BASED_3D_ENGINEERING_MIM_LF { 1 0 10303 442 3 1 4 }'));
ENDSEC;

DATA;
#10=CONTEXT_DEPENDENT_SHAPE_REPRESENTATION(#14,#751);
#11=CONTEXT_DEPENDENT_SHAPE_REPRESENTATION(#15,#752);
#12=NEXT_ASSEMBLY_USAGE_OCCURRENCE('NAUO1','Card','Card',#753,#754,'');
#13=NEXT_ASSEMBLY_USAGE_OCCURRENCE('NAUO2','Card','Card',#753,#754,'');
#14=(
REPRESENTATION_RELATIONSHIP(' ',' ',#438,#437)
REPRESENTATION_RELATIONSHIP_WITH_TRANSFORMATION(#16)
SHAPE_REPRESENTATION_RELATIONSHIP()
);
#15=(
REPRESENTATION_RELATIONSHIP(' ',' ',#438,#437)
REPRESENTATION_RELATIONSHIP_WITH_TRANSFORMATION(#17)
SHAPE_REPRESENTATION_RELATIONSHIP()
);
#16=ITEM_DEFINED_TRANSFORMATION(' ',' ',#439,#483);
#17=ITEM_DEFINED_TRANSFORMATION(' ',' ',#439,#484);
#18=SHAPE_REPRESENTATION_RELATIONSHIP('','',#438,#19);
#19=ADVANCED_BREP_SHAPE_REPRESENTATION('',(#434),#743);
#20=CIRCLE('',#452,0.00381);
#21=CIRCLE('',#455,0.0032639);
#22=CIRCLE('',#456,0.0032639);
#23=CIRCLE('',#457,0.0032639);
#24=CIRCLE('',#458,0.0032639);
#25=CIRCLE('',#459,0.0032639);
#26=CIRCLE('',#460,0.0032639);
#27=CIRCLE('',#462,0.0032639);
#28=CIRCLE('',#463,0.0032639);
#29=B_SPLINE_CURVE_WITH_KNOTS('',3,(#663,#664,#665,#666,#667),
 .UNSPECIFIED.,.F.,.F.,(4,1,4),(0.,0.0010037319765662,0.00200746395313239),
 .UNSPECIFIED.);
#30=B_SPLINE_CURVE_WITH_KNOTS('',3,(#671,#672,#673,#674,#675),
 .UNSPECIFIED.,.F.,.F.,(4,1,4),(0.,0.00100389954773996,0.00200779909547992),
 .UNSPECIFIED.);
#31=B_SPLINE_CURVE_WITH_KNOTS('',3,(#676,#677,#678,#679,#680),
 .UNSPECIFIED.,.F.,.F.,(4,1,4),(0.,0.000951068352922766,0.00190213670584553),
 .UNSPECIFIED.);
#32=B_SPLINE_CURVE_WITH_KNOTS('',3,(#684,#685,#686,#687,#688),
 .UNSPECIFIED.,.F.,.F.,(4,1,4),(0.,0.00095115665147925,0.0019023133029585),
 .UNSPECIFIED.);
#33=CYLINDRICAL_SURFACE('',#451,0.00381);
#34=CYLINDRICAL_SURFACE('',#464,0.0032639);
#35=CYLINDRICAL_SURFACE('',#466,0.0032639);
#36=CYLINDRICAL_SURFACE('',#468,0.0032639);
#37=CYLINDRICAL_SURFACE('',#470,0.0032639);
#38=CYLINDRICAL_SURFACE('',#472,0.0032639);
#39=CYLINDRICAL_SURFACE('',#474,0.0032639);
#40=CYLINDRICAL_SURFACE('',#477,0.00127);
#41=CYLINDRICAL_SURFACE('',#479,0.00127);
#42=CYLINDRICAL_SURFACE('',#480,0.00127);
#43=CYLINDRICAL_SURFACE('',#482,0.00127);
#44=ELLIPSE('',#442,0.00179605122421383,0.00127);
#45=ELLIPSE('',#443,0.00180280785400389,0.00127);
#46=ELLIPSE('',#448,0.00180280785400389,0.00127);
#47=ELLIPSE('',#449,0.00179605122421383,0.00127);
#48=ELLIPSE('',#453,0.00383861243499822,0.00381);
#49=ELLIPSE('',#465,0.00328841131931513,0.0032639);
#50=ELLIPSE('',#467,0.00328841131931513,0.0032639);
#51=ELLIPSE('',#469,0.00328841131931513,0.0032639);
#52=ELLIPSE('',#471,0.00328841131931513,0.0032639);
#53=ELLIPSE('',#473,0.00328841131931513,0.0032639);
#54=ELLIPSE('',#475,0.00328841131931513,0.0032639);
#55=ELLIPSE('',#478,0.0293378563433967,0.00127);
#56=ELLIPSE('',#481,0.0293378563433971,0.00127);
#57=ORIENTED_EDGE('',*,*,#167,.T.);
#58=ORIENTED_EDGE('',*,*,#168,.T.);
#59=ORIENTED_EDGE('',*,*,#169,.T.);
#60=ORIENTED_EDGE('',*,*,#170,.T.);
#61=ORIENTED_EDGE('',*,*,#171,.T.);
#62=ORIENTED_EDGE('',*,*,#172,.T.);
#63=ORIENTED_EDGE('',*,*,#173,.T.);
#64=ORIENTED_EDGE('',*,*,#174,.F.);
#65=ORIENTED_EDGE('',*,*,#174,.T.);
#66=ORIENTED_EDGE('',*,*,#175,.T.);
#67=ORIENTED_EDGE('',*,*,#176,.F.);
#68=ORIENTED_EDGE('',*,*,#177,.F.);
#69=ORIENTED_EDGE('',*,*,#178,.T.);
#70=ORIENTED_EDGE('',*,*,#179,.F.);
#71=ORIENTED_EDGE('',*,*,#180,.F.);
#72=ORIENTED_EDGE('',*,*,#181,.T.);
#73=ORIENTED_EDGE('',*,*,#177,.T.);
#74=ORIENTED_EDGE('',*,*,#182,.T.);
#75=ORIENTED_EDGE('',*,*,#183,.T.);
#76=ORIENTED_EDGE('',*,*,#184,.F.);
#77=ORIENTED_EDGE('',*,*,#185,.F.);
#78=ORIENTED_EDGE('',*,*,#180,.T.);
#79=ORIENTED_EDGE('',*,*,#186,.T.);
#80=ORIENTED_EDGE('',*,*,#187,.T.);
#81=ORIENTED_EDGE('',*,*,#188,.T.);
#82=ORIENTED_EDGE('',*,*,#184,.T.);
#83=ORIENTED_EDGE('',*,*,#189,.T.);
#84=ORIENTED_EDGE('',*,*,#190,.F.);
#85=ORIENTED_EDGE('',*,*,#191,.T.);
#86=ORIENTED_EDGE('',*,*,#192,.T.);
#87=ORIENTED_EDGE('',*,*,#169,.F.);
#88=ORIENTED_EDGE('',*,*,#193,.T.);
#89=ORIENTED_EDGE('',*,*,#194,.T.);
#90=ORIENTED_EDGE('',*,*,#195,.T.);
#91=ORIENTED_EDGE('',*,*,#190,.T.);
#92=ORIENTED_EDGE('',*,*,#196,.T.);
#93=ORIENTED_EDGE('',*,*,#197,.T.);
#94=ORIENTED_EDGE('',*,*,#198,.T.);
#95=ORIENTED_EDGE('',*,*,#199,.T.);
#96=ORIENTED_EDGE('',*,*,#200,.T.);
#97=ORIENTED_EDGE('',*,*,#201,.T.);
#98=ORIENTED_EDGE('',*,*,#202,.T.);
#99=ORIENTED_EDGE('',*,*,#203,.T.);
#100=ORIENTED_EDGE('',*,*,#204,.T.);
#101=ORIENTED_EDGE('',*,*,#194,.F.);
#102=ORIENTED_EDGE('',*,*,#205,.T.);
#103=ORIENTED_EDGE('',*,*,#170,.F.);
#104=ORIENTED_EDGE('',*,*,#178,.F.);
#105=ORIENTED_EDGE('',*,*,#181,.F.);
#106=ORIENTED_EDGE('',*,*,#185,.T.);
#107=ORIENTED_EDGE('',*,*,#188,.F.);
#108=ORIENTED_EDGE('',*,*,#206,.T.);
#109=ORIENTED_EDGE('',*,*,#207,.F.);
#110=ORIENTED_EDGE('',*,*,#208,.T.);
#111=ORIENTED_EDGE('',*,*,#182,.F.);
#112=ORIENTED_EDGE('',*,*,#179,.T.);
#113=ORIENTED_EDGE('',*,*,#176,.T.);
#114=ORIENTED_EDGE('',*,*,#209,.T.);
#115=ORIENTED_EDGE('',*,*,#210,.F.);
#116=ORIENTED_EDGE('',*,*,#211,.T.);
#117=ORIENTED_EDGE('',*,*,#210,.T.);
#118=ORIENTED_EDGE('',*,*,#212,.T.);
#119=ORIENTED_EDGE('',*,*,#204,.F.);
#120=ORIENTED_EDGE('',*,*,#213,.T.);
#121=ORIENTED_EDGE('',*,*,#203,.F.);
#122=ORIENTED_EDGE('',*,*,#207,.T.);
#123=ORIENTED_EDGE('',*,*,#214,.T.);
#124=ORIENTED_EDGE('',*,*,#202,.F.);
#125=ORIENTED_EDGE('',*,*,#215,.T.);
#126=ORIENTED_EDGE('',*,*,#201,.F.);
#127=ORIENTED_EDGE('',*,*,#216,.T.);
#128=ORIENTED_EDGE('',*,*,#200,.F.);
#129=ORIENTED_EDGE('',*,*,#217,.T.);
#130=ORIENTED_EDGE('',*,*,#199,.F.);
#131=ORIENTED_EDGE('',*,*,#197,.F.);
#132=ORIENTED_EDGE('',*,*,#218,.T.);
#133=ORIENTED_EDGE('',*,*,#189,.F.);
#134=ORIENTED_EDGE('',*,*,#183,.F.);
#135=ORIENTED_EDGE('',*,*,#208,.F.);
#136=ORIENTED_EDGE('',*,*,#214,.F.);
#137=ORIENTED_EDGE('',*,*,#211,.F.);
#138=ORIENTED_EDGE('',*,*,#212,.F.);
#139=ORIENTED_EDGE('',*,*,#209,.F.);
#140=ORIENTED_EDGE('',*,*,#175,.F.);
#141=ORIENTED_EDGE('',*,*,#173,.F.);
#142=ORIENTED_EDGE('',*,*,#219,.T.);
#143=ORIENTED_EDGE('',*,*,#213,.F.);
#144=ORIENTED_EDGE('',*,*,#215,.F.);
#145=ORIENTED_EDGE('',*,*,#216,.F.);
#146=ORIENTED_EDGE('',*,*,#217,.F.);
#147=ORIENTED_EDGE('',*,*,#219,.F.);
#148=ORIENTED_EDGE('',*,*,#172,.F.);
#149=ORIENTED_EDGE('',*,*,#220,.F.);
#150=ORIENTED_EDGE('',*,*,#167,.F.);
#151=ORIENTED_EDGE('',*,*,#198,.F.);
#152=ORIENTED_EDGE('',*,*,#171,.F.);
#153=ORIENTED_EDGE('',*,*,#205,.F.);
#154=ORIENTED_EDGE('',*,*,#193,.F.);
#155=ORIENTED_EDGE('',*,*,#168,.F.);
#156=ORIENTED_EDGE('',*,*,#220,.T.);
#157=ORIENTED_EDGE('',*,*,#196,.F.);
#158=ORIENTED_EDGE('',*,*,#192,.F.);
#159=ORIENTED_EDGE('',*,*,#221,.F.);
#160=ORIENTED_EDGE('',*,*,#186,.F.);
#161=ORIENTED_EDGE('',*,*,#218,.F.);
#162=ORIENTED_EDGE('',*,*,#195,.F.);
#163=ORIENTED_EDGE('',*,*,#206,.F.);
#164=ORIENTED_EDGE('',*,*,#187,.F.);
#165=ORIENTED_EDGE('',*,*,#221,.T.);
#166=ORIENTED_EDGE('',*,*,#191,.F.);
#167=EDGE_CURVE('',#222,#223,#262,.T.);
#168=EDGE_CURVE('',#223,#224,#263,.T.);
#169=EDGE_CURVE('',#224,#222,#264,.T.);
#170=EDGE_CURVE('',#225,#226,#265,.T.);
#171=EDGE_CURVE('',#226,#227,#44,.T.);
#172=EDGE_CURVE('',#227,#228,#45,.T.);
#173=EDGE_CURVE('',#228,#229,#266,.T.);
#174=EDGE_CURVE('',#225,#229,#267,.T.);
#175=EDGE_CURVE('',#229,#230,#268,.T.);
#176=EDGE_CURVE('',#231,#230,#269,.T.);
#177=EDGE_CURVE('',#232,#231,#270,.T.);
#178=EDGE_CURVE('',#232,#225,#271,.T.);
#179=EDGE_CURVE('',#233,#231,#272,.T.);
#180=EDGE_CURVE('',#234,#233,#273,.T.);
#181=EDGE_CURVE('',#234,#232,#274,.T.);
#182=EDGE_CURVE('',#233,#235,#275,.T.);
#183=EDGE_CURVE('',#235,#236,#276,.T.);
#184=EDGE_CURVE('',#237,#236,#277,.T.);
#185=EDGE_CURVE('',#234,#237,#278,.T.);
#186=EDGE_CURVE('',#238,#239,#46,.T.);
#187=EDGE_CURVE('',#239,#240,#47,.T.);
#188=EDGE_CURVE('',#240,#237,#279,.T.);
#189=EDGE_CURVE('',#236,#238,#280,.T.);
#190=EDGE_CURVE('',#241,#242,#281,.T.);
#191=EDGE_CURVE('',#241,#243,#282,.T.);
#192=EDGE_CURVE('',#243,#242,#283,.T.);
#193=EDGE_CURVE('',#224,#244,#29,.T.);
#194=EDGE_CURVE('',#244,#245,#20,.T.);
#195=EDGE_CURVE('',#245,#241,#30,.T.);
#196=EDGE_CURVE('',#242,#246,#31,.T.);
#197=EDGE_CURVE('',#246,#247,#48,.T.);
#198=EDGE_CURVE('',#247,#222,#32,.T.);
#199=EDGE_CURVE('',#248,#248,#21,.T.);
#200=EDGE_CURVE('',#249,#249,#22,.T.);
#201=EDGE_CURVE('',#250,#250,#23,.T.);
#202=EDGE_CURVE('',#251,#251,#24,.T.);
#203=EDGE_CURVE('',#252,#252,#25,.T.);
#204=EDGE_CURVE('',#253,#253,#26,.T.);
#205=EDGE_CURVE('',#244,#226,#284,.F.);
#206=EDGE_CURVE('',#240,#245,#285,.F.);
#207=EDGE_CURVE('',#254,#255,#27,.T.);
#208=EDGE_CURVE('',#254,#235,#286,.T.);
#209=EDGE_CURVE('',#230,#256,#287,.T.);
#210=EDGE_CURVE('',#257,#256,#28,.T.);
#211=EDGE_CURVE('',#257,#255,#288,.T.);
#212=EDGE_CURVE('',#256,#257,#49,.T.);
#213=EDGE_CURVE('',#258,#258,#50,.T.);
#214=EDGE_CURVE('',#255,#254,#51,.T.);
#215=EDGE_CURVE('',#259,#259,#52,.T.);
#216=EDGE_CURVE('',#260,#260,#53,.T.);
#217=EDGE_CURVE('',#261,#261,#54,.T.);
#218=EDGE_CURVE('',#246,#238,#289,.F.);
#219=EDGE_CURVE('',#228,#247,#290,.F.);
#220=EDGE_CURVE('',#223,#227,#55,.T.);
#221=EDGE_CURVE('',#239,#243,#56,.F.);
#222=VERTEX_POINT('',#609);
#223=VERTEX_POINT('',#610);
#224=VERTEX_POINT('',#612);
#225=VERTEX_POINT('',#616);
#226=VERTEX_POINT('',#617);
#227=VERTEX_POINT('',#619);
#228=VERTEX_POINT('',#621);
#229=VERTEX_POINT('',#623);
#230=VERTEX_POINT('',#627);
#231=VERTEX_POINT('',#629);
#232=VERTEX_POINT('',#631);
#233=VERTEX_POINT('',#635);
#234=VERTEX_POINT('',#637);
#235=VERTEX_POINT('',#641);
#236=VERTEX_POINT('',#643);
#237=VERTEX_POINT('',#645);
#238=VERTEX_POINT('',#649);
#239=VERTEX_POINT('',#650);
#240=VERTEX_POINT('',#652);
#241=VERTEX_POINT('',#657);
#242=VERTEX_POINT('',#658);
#243=VERTEX_POINT('',#660);
#244=VERTEX_POINT('',#668);
#245=VERTEX_POINT('',#670);
#246=VERTEX_POINT('',#681);
#247=VERTEX_POINT('',#683);
#248=VERTEX_POINT('',#691);
#249=VERTEX_POINT('',#693);
#250=VERTEX_POINT('',#695);
#251=VERTEX_POINT('',#697);
#252=VERTEX_POINT('',#699);
#253=VERTEX_POINT('',#701);
#254=VERTEX_POINT('',#706);
#255=VERTEX_POINT('',#707);
#256=VERTEX_POINT('',#710);
#257=VERTEX_POINT('',#712);
#258=VERTEX_POINT('',#718);
#259=VERTEX_POINT('',#723);
#260=VERTEX_POINT('',#726);
#261=VERTEX_POINT('',#729);
#262=LINE('',#608,#291);
#263=LINE('',#611,#292);
#264=LINE('',#613,#293);
#265=LINE('',#615,#294);
#266=LINE('',#622,#295);
#267=LINE('',#624,#296);
#268=LINE('',#626,#297);
#269=LINE('',#628,#298);
#270=LINE('',#630,#299);
#271=LINE('',#632,#300);
#272=LINE('',#634,#301);
#273=LINE('',#636,#302);
#274=LINE('',#638,#303);
#275=LINE('',#640,#304);
#276=LINE('',#642,#305);
#277=LINE('',#644,#306);
#278=LINE('',#646,#307);
#279=LINE('',#653,#308);
#280=LINE('',#654,#309);
#281=LINE('',#656,#310);
#282=LINE('',#659,#311);
#283=LINE('',#661,#312);
#284=LINE('',#702,#313);
#285=LINE('',#703,#314);
#286=LINE('',#708,#315);
#287=LINE('',#709,#316);
#288=LINE('',#713,#317);
#289=LINE('',#731,#318);
#290=LINE('',#732,#319);
#291=VECTOR('',#489,1.);
#292=VECTOR('',#490,1.);
#293=VECTOR('',#491,1.);
#294=VECTOR('',#494,1.);
#295=VECTOR('',#499,1.);
#296=VECTOR('',#500,1.);
#297=VECTOR('',#503,1.);
#298=VECTOR('',#504,1.);
#299=VECTOR('',#505,1.);
#300=VECTOR('',#506,1.);
#301=VECTOR('',#509,1.);
#302=VECTOR('',#510,1.);
#303=VECTOR('',#511,1.);
#304=VECTOR('',#514,1.);
#305=VECTOR('',#515,1.);
#306=VECTOR('',#516,1.);
#307=VECTOR('',#517,1.);
#308=VECTOR('',#524,1.);
#309=VECTOR('',#525,1.);
#310=VECTOR('',#528,1.);
#311=VECTOR('',#529,1.);
#312=VECTOR('',#530,1.);
#313=VECTOR('',#551,1.);
#314=VECTOR('',#552,1.);
#315=VECTOR('',#557,1.);
#316=VECTOR('',#558,1.);
#317=VECTOR('',#561,1.);
#318=VECTOR('',#588,1.);
#319=VECTOR('',#589,1.);
#320=EDGE_LOOP('',(#57,#58,#59));
#321=EDGE_LOOP('',(#60,#61,#62,#63,#64));
#322=EDGE_LOOP('',(#65,#66,#67,#68,#69));
#323=EDGE_LOOP('',(#70,#71,#72,#73));
#324=EDGE_LOOP('',(#74,#75,#76,#77,#78));
#325=EDGE_LOOP('',(#79,#80,#81,#82,#83));
#326=EDGE_LOOP('',(#84,#85,#86));
#327=EDGE_LOOP('',(#87,#88,#89,#90,#91,#92,#93,#94));
#328=EDGE_LOOP('',(#95));
#329=EDGE_LOOP('',(#96));
#330=EDGE_LOOP('',(#97));
#331=EDGE_LOOP('',(#98));
#332=EDGE_LOOP('',(#99));
#333=EDGE_LOOP('',(#100));
#334=EDGE_LOOP('',(#101,#102,#103,#104,#105,#106,#107,#108));
#335=EDGE_LOOP('',(#109,#110,#111,#112,#113,#114,#115,#116));
#336=EDGE_LOOP('',(#117,#118));
#337=EDGE_LOOP('',(#119));
#338=EDGE_LOOP('',(#120));
#339=EDGE_LOOP('',(#121));
#340=EDGE_LOOP('',(#122,#123));
#341=EDGE_LOOP('',(#124));
#342=EDGE_LOOP('',(#125));
#343=EDGE_LOOP('',(#126));
#344=EDGE_LOOP('',(#127));
#345=EDGE_LOOP('',(#128));
#346=EDGE_LOOP('',(#129));
#347=EDGE_LOOP('',(#130));
#348=EDGE_LOOP('',(#131,#132,#133,#134,#135,#136,#137,#138,#139,#140,#141,
#142));
#349=EDGE_LOOP('',(#143));
#350=EDGE_LOOP('',(#144));
#351=EDGE_LOOP('',(#145));
#352=EDGE_LOOP('',(#146));
#353=EDGE_LOOP('',(#147,#148,#149,#150,#151));
#354=EDGE_LOOP('',(#152,#153,#154,#155,#156));
#355=EDGE_LOOP('',(#157,#158,#159,#160,#161));
#356=EDGE_LOOP('',(#162,#163,#164,#165,#166));
#357=FACE_BOUND('',#320,.T.);
#358=FACE_BOUND('',#321,.T.);
#359=FACE_BOUND('',#322,.T.);
#360=FACE_BOUND('',#323,.T.);
#361=FACE_BOUND('',#324,.T.);
#362=FACE_BOUND('',#325,.T.);
#363=FACE_BOUND('',#326,.T.);
#364=FACE_BOUND('',#327,.T.);
#365=FACE_BOUND('',#328,.T.);
#366=FACE_BOUND('',#329,.T.);
#367=FACE_BOUND('',#330,.T.);
#368=FACE_BOUND('',#331,.T.);
#369=FACE_BOUND('',#332,.T.);
#370=FACE_BOUND('',#333,.T.);
#371=FACE_BOUND('',#334,.T.);
#372=FACE_BOUND('',#335,.T.);
#373=FACE_BOUND('',#336,.T.);
#374=FACE_BOUND('',#337,.T.);
#375=FACE_BOUND('',#338,.T.);
#376=FACE_BOUND('',#339,.T.);
#377=FACE_BOUND('',#340,.T.);
#378=FACE_BOUND('',#341,.T.);
#379=FACE_BOUND('',#342,.T.);
#380=FACE_BOUND('',#343,.T.);
#381=FACE_BOUND('',#344,.T.);
#382=FACE_BOUND('',#345,.T.);
#383=FACE_BOUND('',#346,.T.);
#384=FACE_BOUND('',#347,.T.);
#385=FACE_BOUND('',#348,.T.);
#386=FACE_BOUND('',#349,.T.);
#387=FACE_BOUND('',#350,.T.);
#388=FACE_BOUND('',#351,.T.);
#389=FACE_BOUND('',#352,.T.);
#390=FACE_BOUND('',#353,.T.);
#391=FACE_BOUND('',#354,.T.);
#392=FACE_BOUND('',#355,.T.);
#393=FACE_BOUND('',#356,.T.);
#394=PLANE('',#440);
#395=PLANE('',#441);
#396=PLANE('',#444);
#397=PLANE('',#445);
#398=PLANE('',#446);
#399=PLANE('',#447);
#400=PLANE('',#450);
#401=PLANE('',#454);
#402=PLANE('',#461);
#403=PLANE('',#476);
#404=ADVANCED_FACE('',(#357),#394,.T.);
#405=ADVANCED_FACE('',(#358),#395,.T.);
#406=ADVANCED_FACE('',(#359),#396,.T.);
#407=ADVANCED_FACE('',(#360),#397,.T.);
#408=ADVANCED_FACE('',(#361),#398,.F.);
#409=ADVANCED_FACE('',(#362),#399,.T.);
#410=ADVANCED_FACE('',(#363),#400,.T.);
#411=ADVANCED_FACE('',(#364),#33,.F.);
#412=ADVANCED_FACE('',(#365,#366,#367,#368,#369,#370,#371),#401,.T.);
#413=ADVANCED_FACE('',(#372),#402,.F.);
#414=ADVANCED_FACE('',(#373,#374),#34,.F.);
#415=ADVANCED_FACE('',(#375,#376),#35,.F.);
#416=ADVANCED_FACE('',(#377,#378),#36,.F.);
#417=ADVANCED_FACE('',(#379,#380),#37,.F.);
#418=ADVANCED_FACE('',(#381,#382),#38,.F.);
#419=ADVANCED_FACE('',(#383,#384),#39,.F.);
#420=ADVANCED_FACE('',(#385,#386,#387,#388,#389),#403,.T.);
#421=ADVANCED_FACE('',(#390),#40,.T.);
#422=ADVANCED_FACE('',(#391),#41,.T.);
#423=ADVANCED_FACE('',(#392),#42,.T.);
#424=ADVANCED_FACE('',(#393),#43,.T.);
#425=CLOSED_SHELL('',(#404,#405,#406,#407,#408,#409,#410,#411,#412,#413,
#414,#415,#416,#417,#418,#419,#420,#421,#422,#423,#424));
#426=STYLED_ITEM('',(#427),#434);
#427=PRESENTATION_STYLE_ASSIGNMENT((#428));
#428=SURFACE_STYLE_USAGE(.BOTH.,#429);
#429=SURFACE_SIDE_STYLE('',(#430));
#430=SURFACE_STYLE_FILL_AREA(#431);
#431=FILL_AREA_STYLE('',(#432));
#432=FILL_AREA_STYLE_COLOUR('',#433);
#433=COLOUR_RGB('',0.596078431372549,0.12156862745098,0.674509803921569);
#434=MANIFOLD_SOLID_BREP('Card',#425);
#435=SHAPE_DEFINITION_REPRESENTATION(#749,#437);
#436=SHAPE_DEFINITION_REPRESENTATION(#750,#438);
#437=SHAPE_REPRESENTATION('Assembly 1',(#439,#483,#484),#742);
#438=SHAPE_REPRESENTATION('Card',(#439),#743);
#439=AXIS2_PLACEMENT_3D('',#606,#485,#486);
#440=AXIS2_PLACEMENT_3D('',#607,#487,#488);
#441=AXIS2_PLACEMENT_3D('',#614,#492,#493);
#442=AXIS2_PLACEMENT_3D('',#618,#495,#496);
#443=AXIS2_PLACEMENT_3D('',#620,#497,#498);
#444=AXIS2_PLACEMENT_3D('',#625,#501,#502);
#445=AXIS2_PLACEMENT_3D('',#633,#507,#508);
#446=AXIS2_PLACEMENT_3D('',#639,#512,#513);
#447=AXIS2_PLACEMENT_3D('',#647,#518,#519);
#448=AXIS2_PLACEMENT_3D('',#648,#520,#521);
#449=AXIS2_PLACEMENT_3D('',#651,#522,#523);
#450=AXIS2_PLACEMENT_3D('',#655,#526,#527);
#451=AXIS2_PLACEMENT_3D('',#662,#531,#532);
#452=AXIS2_PLACEMENT_3D('',#669,#533,#534);
#453=AXIS2_PLACEMENT_3D('',#682,#535,#536);
#454=AXIS2_PLACEMENT_3D('',#689,#537,#538);
#455=AXIS2_PLACEMENT_3D('',#690,#539,#540);
#456=AXIS2_PLACEMENT_3D('',#692,#541,#542);
#457=AXIS2_PLACEMENT_3D('',#694,#543,#544);
#458=AXIS2_PLACEMENT_3D('',#696,#545,#546);
#459=AXIS2_PLACEMENT_3D('',#698,#547,#548);
#460=AXIS2_PLACEMENT_3D('',#700,#549,#550);
#461=AXIS2_PLACEMENT_3D('',#704,#553,#554);
#462=AXIS2_PLACEMENT_3D('',#705,#555,#556);
#463=AXIS2_PLACEMENT_3D('',#711,#559,#560);
#464=AXIS2_PLACEMENT_3D('',#714,#562,#563);
#465=AXIS2_PLACEMENT_3D('',#715,#564,#565);
#466=AXIS2_PLACEMENT_3D('',#716,#566,#567);
#467=AXIS2_PLACEMENT_3D('',#717,#568,#569);
#468=AXIS2_PLACEMENT_3D('',#719,#570,#571);
#469=AXIS2_PLACEMENT_3D('',#720,#572,#573);
#470=AXIS2_PLACEMENT_3D('',#721,#574,#575);
#471=AXIS2_PLACEMENT_3D('',#722,#576,#577);
#472=AXIS2_PLACEMENT_3D('',#724,#578,#579);
#473=AXIS2_PLACEMENT_3D('',#725,#580,#581);
#474=AXIS2_PLACEMENT_3D('',#727,#582,#583);
#475=AXIS2_PLACEMENT_3D('',#728,#584,#585);
#476=AXIS2_PLACEMENT_3D('',#730,#586,#587);
#477=AXIS2_PLACEMENT_3D('',#733,#590,#591);
#478=AXIS2_PLACEMENT_3D('',#734,#592,#593);
#479=AXIS2_PLACEMENT_3D('',#735,#594,#595);
#480=AXIS2_PLACEMENT_3D('',#736,#596,#597);
#481=AXIS2_PLACEMENT_3D('',#737,#598,#599);
#482=AXIS2_PLACEMENT_3D('',#738,#600,#601);
#483=AXIS2_PLACEMENT_3D('',#739,#602,#603);
#484=AXIS2_PLACEMENT_3D('',#740,#604,#605);
#485=DIRECTION('',(0.,0.,1.));
#486=DIRECTION('',(1.,0.,0.));
#487=DIRECTION('',(-0.707106781186547,0.,-0.707106781186548));
#488=DIRECTION('',(-0.707106781186548,0.,0.707106781186547));
#489=DIRECTION('',(0.704456660303224,-0.086496401710458,-0.704456660303224));
#490=DIRECTION('',(-0.707106781186548,0.,0.707106781186547));
#491=DIRECTION('',(0.,1.,0.));
#492=DIRECTION('',(-5.12221498812049E-17,0.,-1.));
#493=DIRECTION('',(-1.,0.,5.12221498812049E-17));
#494=DIRECTION('',(-1.,0.,5.12221498812049E-17));
#495=DIRECTION('',(-5.12221498812049E-17,0.,-1.));
#496=DIRECTION('',(-1.,0.,5.12221498812049E-17));
#497=DIRECTION('',(-5.12221498812049E-17,0.,-1.));
#498=DIRECTION('',(0.992546151641322,-0.121869343405147,-5.0840347743385E-17));
#499=DIRECTION('',(1.,0.,-5.12221498812049E-17));
#500=DIRECTION('',(0.,1.,0.));
#501=DIRECTION('',(1.,0.,-7.45049452817527E-16));
#502=DIRECTION('',(-7.45049452817527E-16,0.,-1.));
#503=DIRECTION('',(7.39495967176509E-16,0.121869343405148,0.992546151641322));
#504=DIRECTION('',(-7.45049452817527E-16,0.,-1.));
#505=DIRECTION('',(0.,1.,0.));
#506=DIRECTION('',(-7.45049452817527E-16,0.,-1.));
#507=DIRECTION('',(1.82123199577617E-16,0.,1.));
#508=DIRECTION('',(1.,0.,-1.82123199577617E-16));
#509=DIRECTION('',(1.,0.,-1.82123199577617E-16));
#510=DIRECTION('',(0.,1.,0.));
#511=DIRECTION('',(1.,0.,-1.82123199577617E-16));
#512=DIRECTION('',(1.,0.,-7.45049452817526E-16));
#513=DIRECTION('',(-7.45049452817526E-16,0.,-1.));
#514=DIRECTION('',(-7.45049452817526E-16,0.,-1.));
#515=DIRECTION('',(-7.39495967176508E-16,-0.121869343405148,-0.992546151641322));
#516=DIRECTION('',(0.,1.,0.));
#517=DIRECTION('',(-7.45049452817526E-16,0.,-1.));
#518=DIRECTION('',(-5.12221498812049E-17,0.,-1.));
#519=DIRECTION('',(-1.,0.,5.12221498812049E-17));
#520=DIRECTION('',(-5.12221498812049E-17,0.,-1.));
#521=DIRECTION('',(0.992546151641322,0.121869343405148,-5.0840347743385E-17));
#522=DIRECTION('',(-5.12221498812049E-17,0.,-1.));
#523=DIRECTION('',(-1.,0.,5.12221498812049E-17));
#524=DIRECTION('',(-1.,0.,5.12221498812049E-17));
#525=DIRECTION('',(1.,0.,-5.12221498812049E-17));
#526=DIRECTION('',(0.707106781186548,0.,-0.707106781186548));
#527=DIRECTION('',(-0.707106781186548,0.,-0.707106781186548));
#528=DIRECTION('',(0.,1.,0.));
#529=DIRECTION('',(-0.707106781186548,0.,-0.707106781186548));
#530=DIRECTION('',(0.704456660303224,0.086496401710458,0.704456660303224));
#531=DIRECTION('',(0.,1.,0.));
#532=DIRECTION('',(0.,0.,1.));
#533=DIRECTION('',(0.,-1.,0.));
#534=DIRECTION('',(0.,0.,-1.));
#535=DIRECTION('',(-6.2424097738225E-18,0.992546151641322,-0.121869343405148));
#536=DIRECTION('',(5.0840347743385E-17,0.121869343405148,0.992546151641322));
#537=DIRECTION('',(0.,-1.,0.));
#538=DIRECTION('',(1.,0.,0.));
#539=DIRECTION('',(0.,1.,0.));
#540=DIRECTION('',(0.,0.,1.));
#541=DIRECTION('',(0.,1.,0.));
#542=DIRECTION('',(0.,0.,1.));
#543=DIRECTION('',(0.,1.,0.));
#544=DIRECTION('',(0.,0.,1.));
#545=DIRECTION('',(0.,1.,0.));
#546=DIRECTION('',(0.,0.,1.));
#547=DIRECTION('',(0.,1.,0.));
#548=DIRECTION('',(0.,0.,1.));
#549=DIRECTION('',(0.,1.,0.));
#550=DIRECTION('',(0.,0.,1.));
#551=DIRECTION('',(-0.707106781186548,0.,0.707106781186547));
#552=DIRECTION('',(-0.707106781186548,0.,-0.707106781186548));
#553=DIRECTION('',(0.,-1.,0.));
#554=DIRECTION('',(1.,0.,0.));
#555=DIRECTION('',(0.,1.,0.));
#556=DIRECTION('',(0.,0.,1.));
#557=DIRECTION('',(-1.,0.,5.12221498812049E-17));
#558=DIRECTION('',(-1.,0.,5.12221498812049E-17));
#559=DIRECTION('',(0.,1.,0.));
#560=DIRECTION('',(0.,0.,1.));
#561=DIRECTION('',(-1.,0.,5.12221498812049E-17));
#562=DIRECTION('',(0.,1.,0.));
#563=DIRECTION('',(0.,0.,1.));
#564=DIRECTION('',(-6.2424097738225E-18,0.992546151641322,-0.121869343405148));
#565=DIRECTION('',(5.0840347743385E-17,0.121869343405148,0.992546151641322));
#566=DIRECTION('',(0.,1.,0.));
#567=DIRECTION('',(0.,0.,1.));
#568=DIRECTION('',(-6.2424097738225E-18,0.992546151641322,-0.121869343405148));
#569=DIRECTION('',(5.0840347743385E-17,0.121869343405148,0.992546151641322));
#570=DIRECTION('',(0.,1.,0.));
#571=DIRECTION('',(0.,0.,1.));
#572=DIRECTION('',(-6.2424097738225E-18,0.992546151641322,-0.121869343405148));
#573=DIRECTION('',(5.0840347743385E-17,0.121869343405148,0.992546151641322));
#574=DIRECTION('',(0.,1.,0.));
#575=DIRECTION('',(0.,0.,1.));
#576=DIRECTION('',(-6.2424097738225E-18,0.992546151641322,-0.121869343405148));
#577=DIRECTION('',(5.0840347743385E-17,0.121869343405148,0.992546151641322));
#578=DIRECTION('',(0.,1.,0.));
#579=DIRECTION('',(0.,0.,1.));
#580=DIRECTION('',(-6.2424097738225E-18,0.992546151641322,-0.121869343405148));
#581=DIRECTION('',(5.0840347743385E-17,0.121869343405148,0.992546151641322));
#582=DIRECTION('',(0.,1.,0.));
#583=DIRECTION('',(0.,0.,1.));
#584=DIRECTION('',(-6.2424097738225E-18,0.992546151641322,-0.121869343405148));
#585=DIRECTION('',(5.0840347743385E-17,0.121869343405148,0.992546151641322));
#586=DIRECTION('',(-6.2424097738225E-18,0.992546151641322,-0.121869343405148));
#587=DIRECTION('',(1.,0.,-5.12221498812049E-17));
#588=DIRECTION('',(0.704456660303224,0.086496401710458,0.704456660303224));
#589=DIRECTION('',(0.704456660303224,-0.086496401710458,-0.704456660303224));
#590=DIRECTION('',(0.704456660303224,-0.086496401710458,-0.704456660303223));
#591=DIRECTION('',(-0.707106781186547,0.,-0.707106781186548));
#592=DIRECTION('',(-0.0306097896722809,-0.999062601418168,0.0306097896722809));
#593=DIRECTION('',(-0.70644394029266,0.0432887796959252,0.706443940292659));
#594=DIRECTION('',(-0.707106781186548,0.,0.707106781186547));
#595=DIRECTION('',(0.707106781186547,0.,0.707106781186548));
#596=DIRECTION('',(0.704456660303224,0.086496401710458,0.704456660303224));
#597=DIRECTION('',(0.707106781186548,0.,-0.707106781186548));
#598=DIRECTION('',(-0.0306097896722796,0.999062601418168,-0.0306097896722796));
#599=DIRECTION('',(0.70644394029266,0.0432887796959252,0.70644394029266));
#600=DIRECTION('',(-0.707106781186548,0.,-0.707106781186548));
#601=DIRECTION('',(-0.707106781186548,0.,0.707106781186548));
#602=DIRECTION('',(-1.,-9.12739289346201E-32,8.3695626981892E-16));
#603=DIRECTION('',(8.3695626981892E-16,-1.09054597266316E-16,1.));
#604=DIRECTION('',(1.,8.60419096004341E-32,-8.38477786579724E-16));
#605=DIRECTION('',(8.38477786579724E-16,-9.66628376703643E-17,1.));
#606=CARTESIAN_POINT('',(0.,0.,0.));
#607=CARTESIAN_POINT('',(0.0203970384181603,-0.00635,0.0177029615818396));
#608=CARTESIAN_POINT('',(0.0204650957200351,-0.00524143551315794,0.0176349042799649));
#609=CARTESIAN_POINT('',(0.00269407683632074,-0.00305942876272384,0.0354059231636792));
#610=CARTESIAN_POINT('',(0.019150308975099,-0.00508,0.018949691024901));
#611=CARTESIAN_POINT('',(0.0203970384181603,-0.00508,0.0177029615818396));
#612=CARTESIAN_POINT('',(0.00269407683632074,-0.00508,0.0354059231636792));
#613=CARTESIAN_POINT('',(0.00269407683632074,-0.00635,0.0354059231636792));
#614=CARTESIAN_POINT('',(0.05715,-0.00635,-2.92734586571086E-18));
#615=CARTESIAN_POINT('',(0.05715,-0.00635,-2.92734586571086E-18));
#616=CARTESIAN_POINT('',(0.0762,-0.00635,-3.90312782094781E-18));
#617=CARTESIAN_POINT('',(0.0398960512242139,-0.00635,-2.04356151547491E-18));
#618=CARTESIAN_POINT('',(0.0398960512242139,-0.00508,0.));
#619=CARTESIAN_POINT('',(0.0392996463447347,-0.00627793597903515,3.05491401265624E-20));
#620=CARTESIAN_POINT('',(0.0398960512242139,-0.00751699317220029,0.));
#621=CARTESIAN_POINT('',(0.0397412771580893,-0.00623745569386755,-2.03563365506215E-18));
#622=CARTESIAN_POINT('',(0.0762,-0.00623745569386755,-3.90312782094781E-18));
#623=CARTESIAN_POINT('',(0.0762,-0.00623745569386755,-3.90312782094781E-18));
#624=CARTESIAN_POINT('',(0.0762,-0.00635,-3.90312782094781E-18));
#625=CARTESIAN_POINT('',(0.0762,-0.00635,0.02794));
#626=CARTESIAN_POINT('',(0.0762,-0.00285947833577791,0.0275114178301364));
#627=CARTESIAN_POINT('',(0.0762,0.,0.0508));
#628=CARTESIAN_POINT('',(0.0762,0.,0.02794));
#629=CARTESIAN_POINT('',(0.0762,0.,0.05588));
#630=CARTESIAN_POINT('',(0.0762,-0.00635,0.05588));
#631=CARTESIAN_POINT('',(0.0762,-0.00635,0.05588));
#632=CARTESIAN_POINT('',(0.0762,-0.00635,0.02794));
#633=CARTESIAN_POINT('',(4.16333634234433E-17,-0.00635,0.05588));
#634=CARTESIAN_POINT('',(4.16333634234433E-17,0.,0.05588));
#635=CARTESIAN_POINT('',(-0.0762,0.,0.05588));
#636=CARTESIAN_POINT('',(-0.0762,-0.00635,0.05588));
#637=CARTESIAN_POINT('',(-0.0762,-0.00635,0.05588));
#638=CARTESIAN_POINT('',(4.16333634234433E-17,-0.00635,0.05588));
#639=CARTESIAN_POINT('',(-0.0762,-0.00635,0.02794));
#640=CARTESIAN_POINT('',(-0.0762,0.,0.02794));
#641=CARTESIAN_POINT('',(-0.0762,0.,0.0508));
#642=CARTESIAN_POINT('',(-0.0762,6.39516182275059E-18,0.0508));
#643=CARTESIAN_POINT('',(-0.0762,-0.00623745569386755,-1.30104260698261E-17));
#644=CARTESIAN_POINT('',(-0.0762,-0.00635,-1.30104260698261E-17));
#645=CARTESIAN_POINT('',(-0.0762,-0.00635,-1.30104260698261E-17));
#646=CARTESIAN_POINT('',(-0.0762,-0.00635,0.02794));
#647=CARTESIAN_POINT('',(-0.05715,-0.00635,2.92734586571086E-18));
#648=CARTESIAN_POINT('',(-0.0398960512242139,-0.00751699317220029,0.));
#649=CARTESIAN_POINT('',(-0.0397412771580893,-0.00623745569386755,2.03563365506215E-18));
#650=CARTESIAN_POINT('',(-0.0392996463447348,-0.00627793597903513,-3.05491401265584E-20));
#651=CARTESIAN_POINT('',(-0.0398960512242139,-0.00508,0.));
#652=CARTESIAN_POINT('',(-0.0398960512242139,-0.00635,2.04356151547491E-18));
#653=CARTESIAN_POINT('',(-0.05715,-0.00635,2.92734586571086E-18));
#654=CARTESIAN_POINT('',(-0.0381,-0.00623745569386755,1.95156391047391E-18));
#655=CARTESIAN_POINT('',(-0.0203970384181604,-0.00635,0.0177029615818396));
#656=CARTESIAN_POINT('',(-0.00269407683632075,-0.00635,0.0354059231636792));
#657=CARTESIAN_POINT('',(-0.00269407683632075,-0.00508,0.0354059231636792));
#658=CARTESIAN_POINT('',(-0.00269407683632075,-0.00305942876272384,0.0354059231636792));
#659=CARTESIAN_POINT('',(-0.0203970384181604,-0.00508,0.0177029615818396));
#660=CARTESIAN_POINT('',(-0.019150308975099,-0.00508,0.018949691024901));
#661=CARTESIAN_POINT('',(-0.0204650957200351,-0.00524143551315794,0.0176349042799649));
#662=CARTESIAN_POINT('',(-1.04083408558608E-17,-0.00635,0.0381));
#663=CARTESIAN_POINT('',(0.00269407683632074,-0.00508,0.0354059231636792));
#664=CARTESIAN_POINT('',(0.00269407683632074,-0.00541938518866716,0.0354059231636792));
#665=CARTESIAN_POINT('',(0.00290536960083561,-0.00608667412514528,0.0355967643571053));
#666=CARTESIAN_POINT('',(0.00329179198806815,-0.00635,0.036151836338691));
#667=CARTESIAN_POINT('',(0.00343802561210691,-0.00635,0.0364580256121069));
#668=CARTESIAN_POINT('',(0.00343802561210691,-0.00635,0.0364580256121069));
#669=CARTESIAN_POINT('',(-1.04083408558608E-17,-0.00635,0.0381));
#670=CARTESIAN_POINT('',(-0.00343802561210692,-0.00635,0.0364580256121069));
#671=CARTESIAN_POINT('',(-0.00343802561210692,-0.00635,0.0364580256121069));
#672=CARTESIAN_POINT('',(-0.00329184121471445,-0.00634999999999999,0.036151939411231));
#673=CARTESIAN_POINT('',(-0.00290626259577753,-0.00608809997663839,0.0355978349153043));
#674=CARTESIAN_POINT('',(-0.00269407683632075,-0.00541936681538584,0.0354059231636792));
#675=CARTESIAN_POINT('',(-0.00269407683632075,-0.00508,0.0354059231636792));
#676=CARTESIAN_POINT('',(-0.00269407683632076,-0.00305942876272384,0.0354059231636793));
#677=CARTESIAN_POINT('',(-0.00269407683632076,-0.00273783893046499,0.0354059231636793));
#678=CARTESIAN_POINT('',(-0.00288054747042974,-0.00210638461806266,0.035576247430437));
#679=CARTESIAN_POINT('',(-0.00324026609335519,-0.00180855701219106,0.036070485157973));
#680=CARTESIAN_POINT('',(-0.00338668657598149,-0.00177367325243853,0.0363545905821078));
#681=CARTESIAN_POINT('',(-0.0033866865759815,-0.00177367325243857,0.0363545905821078));
#682=CARTESIAN_POINT('',(-1.04083408558608E-17,-0.00155936392346689,0.0381));
#683=CARTESIAN_POINT('',(0.00338668657598148,-0.00177367325243857,0.0363545905821078));
#684=CARTESIAN_POINT('',(0.00338668657598148,-0.00177367325243857,0.0363545905821078));
#685=CARTESIAN_POINT('',(0.00324028588358052,-0.00180855229729429,0.0360705235577259));
#686=CARTESIAN_POINT('',(0.00288120548856332,-0.00210527374356256,0.0355770277951777));
#687=CARTESIAN_POINT('',(0.00269407683632074,-0.00273781149542687,0.0354059231636792));
#688=CARTESIAN_POINT('',(0.00269407683632073,-0.00305942876272384,0.0354059231636792));
#689=CARTESIAN_POINT('',(2.77555756156289E-17,-0.00635,0.02794));
#690=CARTESIAN_POINT('',(0.05715,-0.00635,0.02032));
#691=CARTESIAN_POINT('',(0.05715,-0.00635,0.0235839));
#692=CARTESIAN_POINT('',(-0.05715,-0.00635,0.01016));
#693=CARTESIAN_POINT('',(-0.05715,-0.00635,0.0134239));
#694=CARTESIAN_POINT('',(0.05715,-0.00635,0.01016));
#695=CARTESIAN_POINT('',(0.05715,-0.00635,0.0134239));
#696=CARTESIAN_POINT('',(-0.00635,-0.00635,0.04953));
#697=CARTESIAN_POINT('',(-0.00635,-0.00635,0.0527939));
#698=CARTESIAN_POINT('',(-0.05715,-0.00635,0.02032));
#699=CARTESIAN_POINT('',(-0.05715,-0.00635,0.0235839));
#700=CARTESIAN_POINT('',(0.00635,-0.00635,0.04953));
#701=CARTESIAN_POINT('',(0.00635,-0.00635,0.0527939));
#702=CARTESIAN_POINT('',(0.00597802561210692,-0.00635,0.0339180256121069));
#703=CARTESIAN_POINT('',(-0.00597802561210691,-0.00635,0.0339180256121069));
#704=CARTESIAN_POINT('',(2.77555756156289E-17,0.,0.02794));
#705=CARTESIAN_POINT('',(-0.00635,0.,0.04953));
#706=CARTESIAN_POINT('',(-0.00935668309104902,0.,0.0508));
#707=CARTESIAN_POINT('',(-0.00334331690895098,0.,0.0508));
#708=CARTESIAN_POINT('',(-0.0762,0.,0.0508));
#709=CARTESIAN_POINT('',(0.0381,0.,0.0508));
#710=CARTESIAN_POINT('',(0.00935668309104903,0.,0.0508));
#711=CARTESIAN_POINT('',(0.00635,0.,0.04953));
#712=CARTESIAN_POINT('',(0.00334331690895099,0.,0.0508));
#713=CARTESIAN_POINT('',(0.0381,0.,0.0508));
#714=CARTESIAN_POINT('',(0.00635,-0.00635,0.04953));
#715=CARTESIAN_POINT('',(0.00635,-0.000155936392346684,0.04953));
#716=CARTESIAN_POINT('',(-0.05715,-0.00635,0.02032));
#717=CARTESIAN_POINT('',(-0.05715,-0.00374247341632053,0.02032));
#718=CARTESIAN_POINT('',(-0.05715,-0.00334171688798954,0.0235839));
#719=CARTESIAN_POINT('',(-0.00635,-0.00635,0.04953));
#720=CARTESIAN_POINT('',(-0.00635,-0.000155936392346684,0.04953));
#721=CARTESIAN_POINT('',(0.05715,-0.00635,0.01016));
#722=CARTESIAN_POINT('',(0.05715,-0.00498996455509404,0.01016));
#723=CARTESIAN_POINT('',(0.05715,-0.00458920802676305,0.0134239));
#724=CARTESIAN_POINT('',(-0.05715,-0.00635,0.01016));
#725=CARTESIAN_POINT('',(-0.05715,-0.00498996455509404,0.01016));
#726=CARTESIAN_POINT('',(-0.05715,-0.00458920802676305,0.0134239));
#727=CARTESIAN_POINT('',(0.05715,-0.00635,0.02032));
#728=CARTESIAN_POINT('',(0.05715,-0.00374247341632053,0.02032));
#729=CARTESIAN_POINT('',(0.05715,-0.00334171688798954,0.0235839));
#730=CARTESIAN_POINT('',(2.89265139619132E-17,0.,0.0508));
#731=CARTESIAN_POINT('',(0.00557073004346878,-0.00067384078599499,0.0453120072015581));
#732=CARTESIAN_POINT('',(-0.00557073004346876,-0.000673840785994996,0.045312007201558));
#733=CARTESIAN_POINT('',(0.021363121332142,-0.00524143551315794,0.0185329298920718));
#734=CARTESIAN_POINT('',(0.020048334587206,-0.00508,0.0198477166370079));
#735=CARTESIAN_POINT('',(0.0212950640302673,-0.00508,0.0186009871939466));
#736=CARTESIAN_POINT('',(-0.021363121332142,-0.00524143551315794,0.0185329298920718));
#737=CARTESIAN_POINT('',(-0.020048334587206,-0.00508,0.0198477166370079));
#738=CARTESIAN_POINT('',(-0.0212950640302673,-0.00508,0.0186009871939466));
#739=CARTESIAN_POINT('',(0.04191,0.00109155474642682,-2.16840434497101E-17));
#740=CARTESIAN_POINT('',(0.00127,-0.00639339208621425,-2.08166817117217E-17));
#741=MECHANICAL_DESIGN_GEOMETRIC_PRESENTATION_REPRESENTATION('',(#426),
#742);
#742=(
GEOMETRIC_REPRESENTATION_CONTEXT(3)
GLOBAL_UNCERTAINTY_ASSIGNED_CONTEXT((#744))
GLOBAL_UNIT_ASSIGNED_CONTEXT((#748,#747,#746))
REPRESENTATION_CONTEXT('Assembly 1','TOP_LEVEL_ASSEMBLY_PART')
);
#743=(
GEOMETRIC_REPRESENTATION_CONTEXT(3)
GLOBAL_UNCERTAINTY_ASSIGNED_CONTEXT((#745))
GLOBAL_UNIT_ASSIGNED_CONTEXT((#748,#747,#746))
REPRESENTATION_CONTEXT('Card','COMPONENT_PART')
);
#744=UNCERTAINTY_MEASURE_WITH_UNIT(LENGTH_MEASURE(1.E-8),#748,
'DISTANCE_ACCURACY_VALUE','Maximum Tolerance applied to model');
#745=UNCERTAINTY_MEASURE_WITH_UNIT(LENGTH_MEASURE(2.E-5),#748,
'DISTANCE_ACCURACY_VALUE','Maximum Tolerance applied to model');
#746=(
NAMED_UNIT(*)
SI_UNIT($,.STERADIAN.)
SOLID_ANGLE_UNIT()
);
#747=(
NAMED_UNIT(*)
PLANE_ANGLE_UNIT()
SI_UNIT($,.RADIAN.)
);
#748=(
LENGTH_UNIT()
NAMED_UNIT(*)
SI_UNIT($,.METRE.)
);
#749=PRODUCT_DEFINITION_SHAPE('','',#753);
#750=PRODUCT_DEFINITION_SHAPE('','',#754);
#751=PRODUCT_DEFINITION_SHAPE(' ','NAUO PRDDFN',#12);
#752=PRODUCT_DEFINITION_SHAPE(' ','NAUO PRDDFN',#13);
#753=PRODUCT_DEFINITION('','',#757,#755);
#754=PRODUCT_DEFINITION('','',#758,#756);
#755=PRODUCT_DEFINITION_CONTEXT('',#768,'design');
#756=PRODUCT_DEFINITION_CONTEXT('',#768,'design');
#757=PRODUCT_DEFINITION_FORMATION_WITH_SPECIFIED_SOURCE('','',#761,
 .NOT_KNOWN.);
#758=PRODUCT_DEFINITION_FORMATION_WITH_SPECIFIED_SOURCE('','',#762,
 .NOT_KNOWN.);
#759=PRODUCT_RELATED_PRODUCT_CATEGORY('','',(#761));
#760=PRODUCT_RELATED_PRODUCT_CATEGORY('','',(#762));
#761=PRODUCT('Assembly 1','Assembly 1','Assembly 1',(#765));
#762=PRODUCT('Card','Card','Card',(#766));
#763=PRODUCT_CATEGORY('','');
#764=PRODUCT_CATEGORY('','');
#765=PRODUCT_CONTEXT('',#768,'mechanical');
#766=PRODUCT_CONTEXT('',#768,'mechanical');
#767=APPLICATION_PROTOCOL_DEFINITION('international standard',
'ap242_managed_model_based_3d_engineering',2020,#768);
#768=APPLICATION_CONTEXT('managed model based 3d engineering');
ENDSEC;
END-ISO-10303-21;
