ISO-10303-21;
HEADER;
/* Generated by software containing ST-Developer
 * from STEP Tools, Inc. (www.steptools.com) 
 */
/* OPTION: using custom renumber hook */

FILE_DESCRIPTION(
/* description */ ('STEP AP242 Edition 2',
'CAx-IF Rec.Pracs.---Representation and Presentation of Product Manufa
cturing Information (PMI)---4.0---2014-10-13',
'CAx-IF Rec.Pracs.---3D Tessellated Geometry---0.4---2014-09-14','2;1',
'CAx-IF Rec.Pracs.---User Defined Attributes---1.5---2016-08-15'),
/* implementation_level */ '2;1');

FILE_NAME(
/* name */ 'Backplate',
/* time_stamp */ '2026-08-06T20:36:25Z',
/* author */ (''),
/* organization */ (''),
/* preprocessor_version */ 'ST-DEVELOPER v20',
/* originating_system */ 'ONSHAPE BY PTC INC, 1.218',
/* authorisation */ '  ');

FILE_SCHEMA (('AP242_MANAGED_MODEL_BASED_3D_ENGINEERING_MIM_LF { 1 0 10303 442 3 1 4 }'));
ENDSEC;

DATA;
#10=SHAPE_REPRESENTATION_RELATIONSHIP('','',#275,#11);
#11=ADVANCED_BREP_SHAPE_REPRESENTATION('',(#273),#449);
#12=CYLINDRICAL_SURFACE('',#299,0.0032639);
#13=CYLINDRICAL_SURFACE('',#300,0.0032639);
#14=CYLINDRICAL_SURFACE('',#301,0.0032639);
#15=CYLINDRICAL_SURFACE('',#302,0.0032639);
#16=CYLINDRICAL_SURFACE('',#303,0.0032639);
#17=CYLINDRICAL_SURFACE('',#304,0.0032639);
#18=CYLINDRICAL_SURFACE('',#305,0.0032639);
#19=CYLINDRICAL_SURFACE('',#306,0.0032639);
#20=CIRCLE('',#282,0.0032639);
#21=CIRCLE('',#283,0.0032639);
#22=CIRCLE('',#284,0.0032639);
#23=CIRCLE('',#285,0.0032639);
#24=CIRCLE('',#286,0.0032639);
#25=CIRCLE('',#287,0.0032639);
#26=CIRCLE('',#288,0.0032639);
#27=CIRCLE('',#289,0.0032639);
#28=CIRCLE('',#291,0.0032639);
#29=CIRCLE('',#292,0.0032639);
#30=CIRCLE('',#293,0.0032639);
#31=CIRCLE('',#294,0.0032639);
#32=CIRCLE('',#295,0.0032639);
#33=CIRCLE('',#296,0.0032639);
#34=CIRCLE('',#297,0.0032639);
#35=CIRCLE('',#298,0.0032639);
#36=ORIENTED_EDGE('',*,*,#92,.F.);
#37=ORIENTED_EDGE('',*,*,#93,.F.);
#38=ORIENTED_EDGE('',*,*,#94,.T.);
#39=ORIENTED_EDGE('',*,*,#95,.T.);
#40=ORIENTED_EDGE('',*,*,#96,.F.);
#41=ORIENTED_EDGE('',*,*,#97,.F.);
#42=ORIENTED_EDGE('',*,*,#98,.T.);
#43=ORIENTED_EDGE('',*,*,#93,.T.);
#44=ORIENTED_EDGE('',*,*,#99,.T.);
#45=ORIENTED_EDGE('',*,*,#100,.F.);
#46=ORIENTED_EDGE('',*,*,#101,.F.);
#47=ORIENTED_EDGE('',*,*,#97,.T.);
#48=ORIENTED_EDGE('',*,*,#102,.T.);
#49=ORIENTED_EDGE('',*,*,#95,.F.);
#50=ORIENTED_EDGE('',*,*,#103,.F.);
#51=ORIENTED_EDGE('',*,*,#100,.T.);
#52=ORIENTED_EDGE('',*,*,#104,.F.);
#53=ORIENTED_EDGE('',*,*,#105,.F.);
#54=ORIENTED_EDGE('',*,*,#106,.F.);
#55=ORIENTED_EDGE('',*,*,#107,.F.);
#56=ORIENTED_EDGE('',*,*,#108,.F.);
#57=ORIENTED_EDGE('',*,*,#109,.F.);
#58=ORIENTED_EDGE('',*,*,#110,.F.);
#59=ORIENTED_EDGE('',*,*,#111,.F.);
#60=ORIENTED_EDGE('',*,*,#94,.F.);
#61=ORIENTED_EDGE('',*,*,#98,.F.);
#62=ORIENTED_EDGE('',*,*,#101,.T.);
#63=ORIENTED_EDGE('',*,*,#103,.T.);
#64=ORIENTED_EDGE('',*,*,#112,.T.);
#65=ORIENTED_EDGE('',*,*,#113,.T.);
#66=ORIENTED_EDGE('',*,*,#114,.T.);
#67=ORIENTED_EDGE('',*,*,#115,.T.);
#68=ORIENTED_EDGE('',*,*,#116,.T.);
#69=ORIENTED_EDGE('',*,*,#117,.T.);
#70=ORIENTED_EDGE('',*,*,#118,.T.);
#71=ORIENTED_EDGE('',*,*,#119,.T.);
#72=ORIENTED_EDGE('',*,*,#92,.T.);
#73=ORIENTED_EDGE('',*,*,#102,.F.);
#74=ORIENTED_EDGE('',*,*,#99,.F.);
#75=ORIENTED_EDGE('',*,*,#96,.T.);
#76=ORIENTED_EDGE('',*,*,#111,.T.);
#77=ORIENTED_EDGE('',*,*,#119,.F.);
#78=ORIENTED_EDGE('',*,*,#110,.T.);
#79=ORIENTED_EDGE('',*,*,#118,.F.);
#80=ORIENTED_EDGE('',*,*,#109,.T.);
#81=ORIENTED_EDGE('',*,*,#117,.F.);
#82=ORIENTED_EDGE('',*,*,#108,.T.);
#83=ORIENTED_EDGE('',*,*,#116,.F.);
#84=ORIENTED_EDGE('',*,*,#107,.T.);
#85=ORIENTED_EDGE('',*,*,#115,.F.);
#86=ORIENTED_EDGE('',*,*,#106,.T.);
#87=ORIENTED_EDGE('',*,*,#114,.F.);
#88=ORIENTED_EDGE('',*,*,#105,.T.);
#89=ORIENTED_EDGE('',*,*,#113,.F.);
#90=ORIENTED_EDGE('',*,*,#104,.T.);
#91=ORIENTED_EDGE('',*,*,#112,.F.);
#92=EDGE_CURVE('',#120,#121,#144,.T.);
#93=EDGE_CURVE('',#122,#120,#145,.T.);
#94=EDGE_CURVE('',#122,#123,#146,.T.);
#95=EDGE_CURVE('',#123,#121,#147,.T.);
#96=EDGE_CURVE('',#124,#120,#148,.T.);
#97=EDGE_CURVE('',#125,#124,#149,.T.);
#98=EDGE_CURVE('',#125,#122,#150,.T.);
#99=EDGE_CURVE('',#124,#126,#151,.T.);
#100=EDGE_CURVE('',#127,#126,#152,.T.);
#101=EDGE_CURVE('',#125,#127,#153,.T.);
#102=EDGE_CURVE('',#126,#121,#154,.T.);
#103=EDGE_CURVE('',#127,#123,#155,.T.);
#104=EDGE_CURVE('',#128,#128,#20,.T.);
#105=EDGE_CURVE('',#129,#129,#21,.T.);
#106=EDGE_CURVE('',#130,#130,#22,.T.);
#107=EDGE_CURVE('',#131,#131,#23,.T.);
#108=EDGE_CURVE('',#132,#132,#24,.T.);
#109=EDGE_CURVE('',#133,#133,#25,.T.);
#110=EDGE_CURVE('',#134,#134,#26,.T.);
#111=EDGE_CURVE('',#135,#135,#27,.T.);
#112=EDGE_CURVE('',#136,#136,#28,.T.);
#113=EDGE_CURVE('',#137,#137,#29,.T.);
#114=EDGE_CURVE('',#138,#138,#30,.T.);
#115=EDGE_CURVE('',#139,#139,#31,.T.);
#116=EDGE_CURVE('',#140,#140,#32,.T.);
#117=EDGE_CURVE('',#141,#141,#33,.T.);
#118=EDGE_CURVE('',#142,#142,#34,.T.);
#119=EDGE_CURVE('',#143,#143,#35,.T.);
#120=VERTEX_POINT('',#384);
#121=VERTEX_POINT('',#385);
#122=VERTEX_POINT('',#387);
#123=VERTEX_POINT('',#389);
#124=VERTEX_POINT('',#393);
#125=VERTEX_POINT('',#395);
#126=VERTEX_POINT('',#399);
#127=VERTEX_POINT('',#401);
#128=VERTEX_POINT('',#408);
#129=VERTEX_POINT('',#410);
#130=VERTEX_POINT('',#412);
#131=VERTEX_POINT('',#414);
#132=VERTEX_POINT('',#416);
#133=VERTEX_POINT('',#418);
#134=VERTEX_POINT('',#420);
#135=VERTEX_POINT('',#422);
#136=VERTEX_POINT('',#425);
#137=VERTEX_POINT('',#427);
#138=VERTEX_POINT('',#429);
#139=VERTEX_POINT('',#431);
#140=VERTEX_POINT('',#433);
#141=VERTEX_POINT('',#435);
#142=VERTEX_POINT('',#437);
#143=VERTEX_POINT('',#439);
#144=LINE('',#383,#156);
#145=LINE('',#386,#157);
#146=LINE('',#388,#158);
#147=LINE('',#390,#159);
#148=LINE('',#392,#160);
#149=LINE('',#394,#161);
#150=LINE('',#396,#162);
#151=LINE('',#398,#163);
#152=LINE('',#400,#164);
#153=LINE('',#402,#165);
#154=LINE('',#404,#166);
#155=LINE('',#405,#167);
#156=VECTOR('',#311,1.);
#157=VECTOR('',#312,1.);
#158=VECTOR('',#313,1.);
#159=VECTOR('',#314,1.);
#160=VECTOR('',#317,1.);
#161=VECTOR('',#318,1.);
#162=VECTOR('',#319,1.);
#163=VECTOR('',#322,1.);
#164=VECTOR('',#323,1.);
#165=VECTOR('',#324,1.);
#166=VECTOR('',#327,1.);
#167=VECTOR('',#328,1.);
#168=EDGE_LOOP('',(#36,#37,#38,#39));
#169=EDGE_LOOP('',(#40,#41,#42,#43));
#170=EDGE_LOOP('',(#44,#45,#46,#47));
#171=EDGE_LOOP('',(#48,#49,#50,#51));
#172=EDGE_LOOP('',(#52));
#173=EDGE_LOOP('',(#53));
#174=EDGE_LOOP('',(#54));
#175=EDGE_LOOP('',(#55));
#176=EDGE_LOOP('',(#56));
#177=EDGE_LOOP('',(#57));
#178=EDGE_LOOP('',(#58));
#179=EDGE_LOOP('',(#59));
#180=EDGE_LOOP('',(#60,#61,#62,#63));
#181=EDGE_LOOP('',(#64));
#182=EDGE_LOOP('',(#65));
#183=EDGE_LOOP('',(#66));
#184=EDGE_LOOP('',(#67));
#185=EDGE_LOOP('',(#68));
#186=EDGE_LOOP('',(#69));
#187=EDGE_LOOP('',(#70));
#188=EDGE_LOOP('',(#71));
#189=EDGE_LOOP('',(#72,#73,#74,#75));
#190=EDGE_LOOP('',(#76));
#191=EDGE_LOOP('',(#77));
#192=EDGE_LOOP('',(#78));
#193=EDGE_LOOP('',(#79));
#194=EDGE_LOOP('',(#80));
#195=EDGE_LOOP('',(#81));
#196=EDGE_LOOP('',(#82));
#197=EDGE_LOOP('',(#83));
#198=EDGE_LOOP('',(#84));
#199=EDGE_LOOP('',(#85));
#200=EDGE_LOOP('',(#86));
#201=EDGE_LOOP('',(#87));
#202=EDGE_LOOP('',(#88));
#203=EDGE_LOOP('',(#89));
#204=EDGE_LOOP('',(#90));
#205=EDGE_LOOP('',(#91));
#206=FACE_BOUND('',#168,.T.);
#207=FACE_BOUND('',#169,.T.);
#208=FACE_BOUND('',#170,.T.);
#209=FACE_BOUND('',#171,.T.);
#210=FACE_BOUND('',#172,.T.);
#211=FACE_BOUND('',#173,.T.);
#212=FACE_BOUND('',#174,.T.);
#213=FACE_BOUND('',#175,.T.);
#214=FACE_BOUND('',#176,.T.);
#215=FACE_BOUND('',#177,.T.);
#216=FACE_BOUND('',#178,.T.);
#217=FACE_BOUND('',#179,.T.);
#218=FACE_BOUND('',#180,.T.);
#219=FACE_BOUND('',#181,.T.);
#220=FACE_BOUND('',#182,.T.);
#221=FACE_BOUND('',#183,.T.);
#222=FACE_BOUND('',#184,.T.);
#223=FACE_BOUND('',#185,.T.);
#224=FACE_BOUND('',#186,.T.);
#225=FACE_BOUND('',#187,.T.);
#226=FACE_BOUND('',#188,.T.);
#227=FACE_BOUND('',#189,.T.);
#228=FACE_BOUND('',#190,.T.);
#229=FACE_BOUND('',#191,.T.);
#230=FACE_BOUND('',#192,.T.);
#231=FACE_BOUND('',#193,.T.);
#232=FACE_BOUND('',#194,.T.);
#233=FACE_BOUND('',#195,.T.);
#234=FACE_BOUND('',#196,.T.);
#235=FACE_BOUND('',#197,.T.);
#236=FACE_BOUND('',#198,.T.);
#237=FACE_BOUND('',#199,.T.);
#238=FACE_BOUND('',#200,.T.);
#239=FACE_BOUND('',#201,.T.);
#240=FACE_BOUND('',#202,.T.);
#241=FACE_BOUND('',#203,.T.);
#242=FACE_BOUND('',#204,.T.);
#243=FACE_BOUND('',#205,.T.);
#244=PLANE('',#277);
#245=PLANE('',#278);
#246=PLANE('',#279);
#247=PLANE('',#280);
#248=PLANE('',#281);
#249=PLANE('',#290);
#250=ADVANCED_FACE('',(#206),#244,.T.);
#251=ADVANCED_FACE('',(#207),#245,.T.);
#252=ADVANCED_FACE('',(#208),#246,.F.);
#253=ADVANCED_FACE('',(#209),#247,.F.);
#254=ADVANCED_FACE('',(#210,#211,#212,#213,#214,#215,#216,#217,#218),#248,
 .T.);
#255=ADVANCED_FACE('',(#219,#220,#221,#222,#223,#224,#225,#226,#227),#249,
 .F.);
#256=ADVANCED_FACE('',(#228,#229),#12,.F.);
#257=ADVANCED_FACE('',(#230,#231),#13,.F.);
#258=ADVANCED_FACE('',(#232,#233),#14,.F.);
#259=ADVANCED_FACE('',(#234,#235),#15,.F.);
#260=ADVANCED_FACE('',(#236,#237),#16,.F.);
#261=ADVANCED_FACE('',(#238,#239),#17,.F.);
#262=ADVANCED_FACE('',(#240,#241),#18,.F.);
#263=ADVANCED_FACE('',(#242,#243),#19,.F.);
#264=CLOSED_SHELL('',(#250,#251,#252,#253,#254,#255,#256,#257,#258,#259,
#260,#261,#262,#263));
#265=STYLED_ITEM('',(#266),#273);
#266=PRESENTATION_STYLE_ASSIGNMENT((#267));
#267=SURFACE_STYLE_USAGE(.BOTH.,#268);
#268=SURFACE_SIDE_STYLE('',(#269));
#269=SURFACE_STYLE_FILL_AREA(#270);
#270=FILL_AREA_STYLE('',(#271));
#271=FILL_AREA_STYLE_COLOUR('',#272);
#272=COLOUR_RGB('',0.682352941176471,0.333333333333334,0.737254901960784);
#273=MANIFOLD_SOLID_BREP('Back',#264);
#274=SHAPE_DEFINITION_REPRESENTATION(#454,#275);
#275=SHAPE_REPRESENTATION('Back',(#276),#449);
#276=AXIS2_PLACEMENT_3D('',#381,#307,#308);
#277=AXIS2_PLACEMENT_3D('',#382,#309,#310);
#278=AXIS2_PLACEMENT_3D('',#391,#315,#316);
#279=AXIS2_PLACEMENT_3D('',#397,#320,#321);
#280=AXIS2_PLACEMENT_3D('',#403,#325,#326);
#281=AXIS2_PLACEMENT_3D('',#406,#329,#330);
#282=AXIS2_PLACEMENT_3D('',#407,#331,#332);
#283=AXIS2_PLACEMENT_3D('',#409,#333,#334);
#284=AXIS2_PLACEMENT_3D('',#411,#335,#336);
#285=AXIS2_PLACEMENT_3D('',#413,#337,#338);
#286=AXIS2_PLACEMENT_3D('',#415,#339,#340);
#287=AXIS2_PLACEMENT_3D('',#417,#341,#342);
#288=AXIS2_PLACEMENT_3D('',#419,#343,#344);
#289=AXIS2_PLACEMENT_3D('',#421,#345,#346);
#290=AXIS2_PLACEMENT_3D('',#423,#347,#348);
#291=AXIS2_PLACEMENT_3D('',#424,#349,#350);
#292=AXIS2_PLACEMENT_3D('',#426,#351,#352);
#293=AXIS2_PLACEMENT_3D('',#428,#353,#354);
#294=AXIS2_PLACEMENT_3D('',#430,#355,#356);
#295=AXIS2_PLACEMENT_3D('',#432,#357,#358);
#296=AXIS2_PLACEMENT_3D('',#434,#359,#360);
#297=AXIS2_PLACEMENT_3D('',#436,#361,#362);
#298=AXIS2_PLACEMENT_3D('',#438,#363,#364);
#299=AXIS2_PLACEMENT_3D('',#440,#365,#366);
#300=AXIS2_PLACEMENT_3D('',#441,#367,#368);
#301=AXIS2_PLACEMENT_3D('',#442,#369,#370);
#302=AXIS2_PLACEMENT_3D('',#443,#371,#372);
#303=AXIS2_PLACEMENT_3D('',#444,#373,#374);
#304=AXIS2_PLACEMENT_3D('',#445,#375,#376);
#305=AXIS2_PLACEMENT_3D('',#446,#377,#378);
#306=AXIS2_PLACEMENT_3D('',#447,#379,#380);
#307=DIRECTION('',(0.,0.,1.));
#308=DIRECTION('',(1.,0.,0.));
#309=DIRECTION('',(-5.12221498812049E-17,0.,-1.));
#310=DIRECTION('',(-1.,0.,5.12221498812049E-17));
#311=DIRECTION('',(-1.,0.,5.12221498812049E-17));
#312=DIRECTION('',(0.,1.,0.));
#313=DIRECTION('',(-1.,0.,5.12221498812049E-17));
#314=DIRECTION('',(0.,1.,0.));
#315=DIRECTION('',(1.,0.,-7.45049452817527E-16));
#316=DIRECTION('',(-7.45049452817527E-16,0.,-1.));
#317=DIRECTION('',(-7.45049452817527E-16,0.,-1.));
#318=DIRECTION('',(0.,1.,0.));
#319=DIRECTION('',(-7.45049452817527E-16,0.,-1.));
#320=DIRECTION('',(-3.64246399155235E-16,0.,-1.));
#321=DIRECTION('',(-1.,0.,3.64246399155235E-16));
#322=DIRECTION('',(-1.,0.,3.64246399155235E-16));
#323=DIRECTION('',(0.,1.,0.));
#324=DIRECTION('',(-1.,0.,3.64246399155235E-16));
#325=DIRECTION('',(1.,0.,-7.45049452817526E-16));
#326=DIRECTION('',(-7.45049452817526E-16,0.,-1.));
#327=DIRECTION('',(-7.45049452817526E-16,0.,-1.));
#328=DIRECTION('',(-7.45049452817526E-16,0.,-1.));
#329=DIRECTION('',(0.,-1.,0.));
#330=DIRECTION('',(1.,0.,0.));
#331=DIRECTION('',(0.,-1.,0.));
#332=DIRECTION('',(0.,0.,-1.));
#333=DIRECTION('',(0.,-1.,0.));
#334=DIRECTION('',(0.,0.,-1.));
#335=DIRECTION('',(0.,-1.,0.));
#336=DIRECTION('',(0.,0.,-1.));
#337=DIRECTION('',(0.,-1.,0.));
#338=DIRECTION('',(0.,0.,-1.));
#339=DIRECTION('',(0.,-1.,0.));
#340=DIRECTION('',(0.,0.,-1.));
#341=DIRECTION('',(0.,-1.,0.));
#342=DIRECTION('',(0.,0.,-1.));
#343=DIRECTION('',(0.,-1.,0.));
#344=DIRECTION('',(0.,0.,-1.));
#345=DIRECTION('',(0.,-1.,0.));
#346=DIRECTION('',(0.,0.,-1.));
#347=DIRECTION('',(0.,-1.,0.));
#348=DIRECTION('',(1.,0.,0.));
#349=DIRECTION('',(0.,-1.,0.));
#350=DIRECTION('',(0.,0.,-1.));
#351=DIRECTION('',(0.,-1.,0.));
#352=DIRECTION('',(0.,0.,-1.));
#353=DIRECTION('',(0.,-1.,0.));
#354=DIRECTION('',(0.,0.,-1.));
#355=DIRECTION('',(0.,-1.,0.));
#356=DIRECTION('',(0.,0.,-1.));
#357=DIRECTION('',(0.,-1.,0.));
#358=DIRECTION('',(0.,0.,-1.));
#359=DIRECTION('',(0.,-1.,0.));
#360=DIRECTION('',(0.,0.,-1.));
#361=DIRECTION('',(0.,-1.,0.));
#362=DIRECTION('',(0.,0.,-1.));
#363=DIRECTION('',(0.,-1.,0.));
#364=DIRECTION('',(0.,0.,-1.));
#365=DIRECTION('',(0.,-1.,0.));
#366=DIRECTION('',(0.,0.,-1.));
#367=DIRECTION('',(0.,-1.,0.));
#368=DIRECTION('',(0.,0.,-1.));
#369=DIRECTION('',(0.,-1.,0.));
#370=DIRECTION('',(0.,0.,-1.));
#371=DIRECTION('',(0.,-1.,0.));
#372=DIRECTION('',(0.,0.,-1.));
#373=DIRECTION('',(0.,-1.,0.));
#374=DIRECTION('',(0.,0.,-1.));
#375=DIRECTION('',(0.,-1.,0.));
#376=DIRECTION('',(0.,0.,-1.));
#377=DIRECTION('',(0.,-1.,0.));
#378=DIRECTION('',(0.,0.,-1.));
#379=DIRECTION('',(0.,-1.,0.));
#380=DIRECTION('',(0.,0.,-1.));
#381=CARTESIAN_POINT('',(0.,0.,0.));
#382=CARTESIAN_POINT('',(-0.05715,-0.00508,2.92734586571086E-18));
#383=CARTESIAN_POINT('',(-0.05715,0.,2.92734586571086E-18));
#384=CARTESIAN_POINT('',(0.0762,0.,1.99493199737333E-17));
#385=CARTESIAN_POINT('',(-0.0762,0.,-1.30104260698261E-17));
#386=CARTESIAN_POINT('',(0.0762,-0.00508,1.99493199737333E-17));
#387=CARTESIAN_POINT('',(0.0762,-0.00508,1.99493199737333E-17));
#388=CARTESIAN_POINT('',(-0.05715,-0.00508,2.92734586571086E-18));
#389=CARTESIAN_POINT('',(-0.0762,-0.00508,-1.30104260698261E-17));
#390=CARTESIAN_POINT('',(-0.0762,-0.00508,-1.30104260698261E-17));
#391=CARTESIAN_POINT('',(0.0762,-0.00508,0.02794));
#392=CARTESIAN_POINT('',(0.0762,0.,0.02794));
#393=CARTESIAN_POINT('',(0.0762,0.,0.11176));
#394=CARTESIAN_POINT('',(0.0762,-0.00508,0.11176));
#395=CARTESIAN_POINT('',(0.0762,-0.00508,0.11176));
#396=CARTESIAN_POINT('',(0.0762,-0.00508,0.02794));
#397=CARTESIAN_POINT('',(0.05715,-0.00508,0.11176));
#398=CARTESIAN_POINT('',(0.05715,0.,0.11176));
#399=CARTESIAN_POINT('',(-0.0762,0.,0.11176));
#400=CARTESIAN_POINT('',(-0.0762,-0.00508,0.11176));
#401=CARTESIAN_POINT('',(-0.0762,-0.00508,0.11176));
#402=CARTESIAN_POINT('',(0.05715,-0.00508,0.11176));
#403=CARTESIAN_POINT('',(-0.0762,-0.00508,0.02794));
#404=CARTESIAN_POINT('',(-0.0762,0.,0.02794));
#405=CARTESIAN_POINT('',(-0.0762,-0.00508,0.02794));
#406=CARTESIAN_POINT('',(2.77555756156289E-17,-0.00508,0.05588));
#407=CARTESIAN_POINT('',(0.05715,-0.00508,0.01016));
#408=CARTESIAN_POINT('',(0.05715,-0.00508,0.0068961));
#409=CARTESIAN_POINT('',(0.05715,-0.00508,0.02032));
#410=CARTESIAN_POINT('',(0.05715,-0.00508,0.0170561));
#411=CARTESIAN_POINT('',(-0.05715,-0.00508,0.1016));
#412=CARTESIAN_POINT('',(-0.05715,-0.00508,0.0983361));
#413=CARTESIAN_POINT('',(-0.05715,-0.00508,0.09144));
#414=CARTESIAN_POINT('',(-0.05715,-0.00508,0.0881761));
#415=CARTESIAN_POINT('',(0.05715,-0.00508,0.09144));
#416=CARTESIAN_POINT('',(0.05715,-0.00508,0.0881761));
#417=CARTESIAN_POINT('',(0.05715,-0.00508,0.1016));
#418=CARTESIAN_POINT('',(0.05715,-0.00508,0.0983361));
#419=CARTESIAN_POINT('',(-0.05715,-0.00508,0.01016));
#420=CARTESIAN_POINT('',(-0.05715,-0.00508,0.0068961));
#421=CARTESIAN_POINT('',(-0.05715,-0.00508,0.02032));
#422=CARTESIAN_POINT('',(-0.05715,-0.00508,0.0170561));
#423=CARTESIAN_POINT('',(2.77555756156289E-17,0.,0.05588));
#424=CARTESIAN_POINT('',(0.05715,0.,0.01016));
#425=CARTESIAN_POINT('',(0.05715,0.,0.0068961));
#426=CARTESIAN_POINT('',(0.05715,0.,0.02032));
#427=CARTESIAN_POINT('',(0.05715,0.,0.0170561));
#428=CARTESIAN_POINT('',(-0.05715,0.,0.1016));
#429=CARTESIAN_POINT('',(-0.05715,0.,0.0983361));
#430=CARTESIAN_POINT('',(-0.05715,0.,0.09144));
#431=CARTESIAN_POINT('',(-0.05715,0.,0.0881761));
#432=CARTESIAN_POINT('',(0.05715,0.,0.09144));
#433=CARTESIAN_POINT('',(0.05715,0.,0.0881761));
#434=CARTESIAN_POINT('',(0.05715,0.,0.1016));
#435=CARTESIAN_POINT('',(0.05715,0.,0.0983361));
#436=CARTESIAN_POINT('',(-0.05715,0.,0.01016));
#437=CARTESIAN_POINT('',(-0.05715,0.,0.0068961));
#438=CARTESIAN_POINT('',(-0.05715,0.,0.02032));
#439=CARTESIAN_POINT('',(-0.05715,0.,0.0170561));
#440=CARTESIAN_POINT('',(-0.05715,0.,0.02032));
#441=CARTESIAN_POINT('',(-0.05715,0.,0.01016));
#442=CARTESIAN_POINT('',(0.05715,0.,0.1016));
#443=CARTESIAN_POINT('',(0.05715,0.,0.09144));
#444=CARTESIAN_POINT('',(-0.05715,0.,0.09144));
#445=CARTESIAN_POINT('',(-0.05715,0.,0.1016));
#446=CARTESIAN_POINT('',(0.05715,0.,0.02032));
#447=CARTESIAN_POINT('',(0.05715,0.,0.01016));
#448=MECHANICAL_DESIGN_GEOMETRIC_PRESENTATION_REPRESENTATION('',(#265),
#449);
#449=(
GEOMETRIC_REPRESENTATION_CONTEXT(3)
GLOBAL_UNCERTAINTY_ASSIGNED_CONTEXT((#450))
GLOBAL_UNIT_ASSIGNED_CONTEXT((#453,#452,#451))
REPRESENTATION_CONTEXT('Back','TOP_LEVEL_ASSEMBLY_PART')
);
#450=UNCERTAINTY_MEASURE_WITH_UNIT(LENGTH_MEASURE(1.E-8),#453,
'DISTANCE_ACCURACY_VALUE','Maximum Tolerance applied to model');
#451=(
NAMED_UNIT(*)
SI_UNIT($,.STERADIAN.)
SOLID_ANGLE_UNIT()
);
#452=(
NAMED_UNIT(*)
PLANE_ANGLE_UNIT()
SI_UNIT($,.RADIAN.)
);
#453=(
LENGTH_UNIT()
NAMED_UNIT(*)
SI_UNIT($,.METRE.)
);
#454=PRODUCT_DEFINITION_SHAPE('','',#455);
#455=PRODUCT_DEFINITION('','',#457,#456);
#456=PRODUCT_DEFINITION_CONTEXT('',#463,'design');
#457=PRODUCT_DEFINITION_FORMATION_WITH_SPECIFIED_SOURCE('','',#459,
 .NOT_KNOWN.);
#458=PRODUCT_RELATED_PRODUCT_CATEGORY('','',(#459));
#459=PRODUCT('Back','Back','Back',(#461));
#460=PRODUCT_CATEGORY('','');
#461=PRODUCT_CONTEXT('',#463,'mechanical');
#462=APPLICATION_PROTOCOL_DEFINITION('international standard',
'ap242_managed_model_based_3d_engineering',2020,#463);
#463=APPLICATION_CONTEXT('managed model based 3d engineering');
ENDSEC;
END-ISO-10303-21;
