ISO-10303-21;
HEADER;
/* Generated by software containing ST-Developer
 * from STEP Tools, Inc. (www.steptools.com) 
 */
/* OPTION: using custom renumber hook */

FILE_DESCRIPTION(
/* description */ ('STEP AP242 Edition 2',
'CAx-IF Rec.Pracs.---Representation and Presentation of Product Manufa
cturing Information (PMI)---4.0---2014-10-13',
'CAx-IF Rec.Pracs.---3D Tessellated Geometry---0.4---2014-09-14','2;1',
'CAx-IF Rec.Pracs.---User Defined Attributes---1.5---2016-08-15'),
/* implementation_level */ '2;1');

FILE_NAME(
/* name */ 'Card Style',
/* time_stamp */ '2026-08-06T20:33:06Z',
/* author */ (''),
/* organization */ (''),
/* preprocessor_version */ 'ST-DEVELOPER v20',
/* originating_system */ 'ONSHAPE BY PTC INC, 1.218',
/* authorisation */ '  ');

FILE_SCHEMA (('AP242_MANAGED_MODEL_BASED_3D_ENGINEERING_MIM_LF { 1 0 10303 442 3 1 4 }'));
ENDSEC;

DATA;
#10=SHAPE_REPRESENTATION_RELATIONSHIP('','',#428,#11);
#11=ADVANCED_BREP_SHAPE_REPRESENTATION('',(#426),#724);
#12=CIRCLE('',#442,0.00381);
#13=CIRCLE('',#445,0.0032639);
#14=CIRCLE('',#446,0.0032639);
#15=CIRCLE('',#447,0.0032639);
#16=CIRCLE('',#448,0.0032639);
#17=CIRCLE('',#449,0.0032639);
#18=CIRCLE('',#450,0.0032639);
#19=CIRCLE('',#452,0.0032639);
#20=CIRCLE('',#453,0.0032639);
#21=B_SPLINE_CURVE_WITH_KNOTS('',3,(#647,#648,#649,#650,#651),
 .UNSPECIFIED.,.F.,.F.,(4,1,4),(0.,0.0010037319765662,0.00200746395313239),
 .UNSPECIFIED.);
#22=B_SPLINE_CURVE_WITH_KNOTS('',3,(#655,#656,#657,#658,#659),
 .UNSPECIFIED.,.F.,.F.,(4,1,4),(0.,0.00100389954773996,0.00200779909547992),
 .UNSPECIFIED.);
#23=B_SPLINE_CURVE_WITH_KNOTS('',3,(#660,#661,#662,#663,#664),
 .UNSPECIFIED.,.F.,.F.,(4,1,4),(0.,0.000951068352922766,0.00190213670584553),
 .UNSPECIFIED.);
#24=B_SPLINE_CURVE_WITH_KNOTS('',3,(#668,#669,#670,#671,#672),
 .UNSPECIFIED.,.F.,.F.,(4,1,4),(0.,0.00095115665147925,0.0019023133029585),
 .UNSPECIFIED.);
#25=CYLINDRICAL_SURFACE('',#441,0.00381);
#26=CYLINDRICAL_SURFACE('',#454,0.0032639);
#27=CYLINDRICAL_SURFACE('',#456,0.0032639);
#28=CYLINDRICAL_SURFACE('',#458,0.0032639);
#29=CYLINDRICAL_SURFACE('',#460,0.0032639);
#30=CYLINDRICAL_SURFACE('',#462,0.0032639);
#31=CYLINDRICAL_SURFACE('',#464,0.0032639);
#32=CYLINDRICAL_SURFACE('',#467,0.00127);
#33=CYLINDRICAL_SURFACE('',#469,0.00127);
#34=CYLINDRICAL_SURFACE('',#470,0.00127);
#35=CYLINDRICAL_SURFACE('',#472,0.00127);
#36=ELLIPSE('',#432,0.00179605122421383,0.00127);
#37=ELLIPSE('',#433,0.00180280785400389,0.00127);
#38=ELLIPSE('',#438,0.00180280785400389,0.00127);
#39=ELLIPSE('',#439,0.00179605122421383,0.00127);
#40=ELLIPSE('',#443,0.00383861243499822,0.00381);
#41=ELLIPSE('',#455,0.00328841131931513,0.0032639);
#42=ELLIPSE('',#457,0.00328841131931513,0.0032639);
#43=ELLIPSE('',#459,0.00328841131931513,0.0032639);
#44=ELLIPSE('',#461,0.00328841131931513,0.0032639);
#45=ELLIPSE('',#463,0.00328841131931513,0.0032639);
#46=ELLIPSE('',#465,0.00328841131931513,0.0032639);
#47=ELLIPSE('',#468,0.0293378563433967,0.00127);
#48=ELLIPSE('',#471,0.0293378563433971,0.00127);
#49=ORIENTED_EDGE('',*,*,#159,.T.);
#50=ORIENTED_EDGE('',*,*,#160,.T.);
#51=ORIENTED_EDGE('',*,*,#161,.T.);
#52=ORIENTED_EDGE('',*,*,#162,.T.);
#53=ORIENTED_EDGE('',*,*,#163,.T.);
#54=ORIENTED_EDGE('',*,*,#164,.T.);
#55=ORIENTED_EDGE('',*,*,#165,.T.);
#56=ORIENTED_EDGE('',*,*,#166,.F.);
#57=ORIENTED_EDGE('',*,*,#166,.T.);
#58=ORIENTED_EDGE('',*,*,#167,.T.);
#59=ORIENTED_EDGE('',*,*,#168,.F.);
#60=ORIENTED_EDGE('',*,*,#169,.F.);
#61=ORIENTED_EDGE('',*,*,#170,.T.);
#62=ORIENTED_EDGE('',*,*,#171,.F.);
#63=ORIENTED_EDGE('',*,*,#172,.F.);
#64=ORIENTED_EDGE('',*,*,#173,.T.);
#65=ORIENTED_EDGE('',*,*,#169,.T.);
#66=ORIENTED_EDGE('',*,*,#174,.T.);
#67=ORIENTED_EDGE('',*,*,#175,.T.);
#68=ORIENTED_EDGE('',*,*,#176,.F.);
#69=ORIENTED_EDGE('',*,*,#177,.F.);
#70=ORIENTED_EDGE('',*,*,#172,.T.);
#71=ORIENTED_EDGE('',*,*,#178,.T.);
#72=ORIENTED_EDGE('',*,*,#179,.T.);
#73=ORIENTED_EDGE('',*,*,#180,.T.);
#74=ORIENTED_EDGE('',*,*,#176,.T.);
#75=ORIENTED_EDGE('',*,*,#181,.T.);
#76=ORIENTED_EDGE('',*,*,#182,.F.);
#77=ORIENTED_EDGE('',*,*,#183,.T.);
#78=ORIENTED_EDGE('',*,*,#184,.T.);
#79=ORIENTED_EDGE('',*,*,#161,.F.);
#80=ORIENTED_EDGE('',*,*,#185,.T.);
#81=ORIENTED_EDGE('',*,*,#186,.T.);
#82=ORIENTED_EDGE('',*,*,#187,.T.);
#83=ORIENTED_EDGE('',*,*,#182,.T.);
#84=ORIENTED_EDGE('',*,*,#188,.T.);
#85=ORIENTED_EDGE('',*,*,#189,.T.);
#86=ORIENTED_EDGE('',*,*,#190,.T.);
#87=ORIENTED_EDGE('',*,*,#191,.T.);
#88=ORIENTED_EDGE('',*,*,#192,.T.);
#89=ORIENTED_EDGE('',*,*,#193,.T.);
#90=ORIENTED_EDGE('',*,*,#194,.T.);
#91=ORIENTED_EDGE('',*,*,#195,.T.);
#92=ORIENTED_EDGE('',*,*,#196,.T.);
#93=ORIENTED_EDGE('',*,*,#186,.F.);
#94=ORIENTED_EDGE('',*,*,#197,.T.);
#95=ORIENTED_EDGE('',*,*,#162,.F.);
#96=ORIENTED_EDGE('',*,*,#170,.F.);
#97=ORIENTED_EDGE('',*,*,#173,.F.);
#98=ORIENTED_EDGE('',*,*,#177,.T.);
#99=ORIENTED_EDGE('',*,*,#180,.F.);
#100=ORIENTED_EDGE('',*,*,#198,.T.);
#101=ORIENTED_EDGE('',*,*,#199,.F.);
#102=ORIENTED_EDGE('',*,*,#200,.T.);
#103=ORIENTED_EDGE('',*,*,#174,.F.);
#104=ORIENTED_EDGE('',*,*,#171,.T.);
#105=ORIENTED_EDGE('',*,*,#168,.T.);
#106=ORIENTED_EDGE('',*,*,#201,.T.);
#107=ORIENTED_EDGE('',*,*,#202,.F.);
#108=ORIENTED_EDGE('',*,*,#203,.T.);
#109=ORIENTED_EDGE('',*,*,#202,.T.);
#110=ORIENTED_EDGE('',*,*,#204,.T.);
#111=ORIENTED_EDGE('',*,*,#196,.F.);
#112=ORIENTED_EDGE('',*,*,#205,.T.);
#113=ORIENTED_EDGE('',*,*,#195,.F.);
#114=ORIENTED_EDGE('',*,*,#199,.T.);
#115=ORIENTED_EDGE('',*,*,#206,.T.);
#116=ORIENTED_EDGE('',*,*,#194,.F.);
#117=ORIENTED_EDGE('',*,*,#207,.T.);
#118=ORIENTED_EDGE('',*,*,#193,.F.);
#119=ORIENTED_EDGE('',*,*,#208,.T.);
#120=ORIENTED_EDGE('',*,*,#192,.F.);
#121=ORIENTED_EDGE('',*,*,#209,.T.);
#122=ORIENTED_EDGE('',*,*,#191,.F.);
#123=ORIENTED_EDGE('',*,*,#189,.F.);
#124=ORIENTED_EDGE('',*,*,#210,.T.);
#125=ORIENTED_EDGE('',*,*,#181,.F.);
#126=ORIENTED_EDGE('',*,*,#175,.F.);
#127=ORIENTED_EDGE('',*,*,#200,.F.);
#128=ORIENTED_EDGE('',*,*,#206,.F.);
#129=ORIENTED_EDGE('',*,*,#203,.F.);
#130=ORIENTED_EDGE('',*,*,#204,.F.);
#131=ORIENTED_EDGE('',*,*,#201,.F.);
#132=ORIENTED_EDGE('',*,*,#167,.F.);
#133=ORIENTED_EDGE('',*,*,#165,.F.);
#134=ORIENTED_EDGE('',*,*,#211,.T.);
#135=ORIENTED_EDGE('',*,*,#205,.F.);
#136=ORIENTED_EDGE('',*,*,#207,.F.);
#137=ORIENTED_EDGE('',*,*,#208,.F.);
#138=ORIENTED_EDGE('',*,*,#209,.F.);
#139=ORIENTED_EDGE('',*,*,#211,.F.);
#140=ORIENTED_EDGE('',*,*,#164,.F.);
#141=ORIENTED_EDGE('',*,*,#212,.F.);
#142=ORIENTED_EDGE('',*,*,#159,.F.);
#143=ORIENTED_EDGE('',*,*,#190,.F.);
#144=ORIENTED_EDGE('',*,*,#163,.F.);
#145=ORIENTED_EDGE('',*,*,#197,.F.);
#146=ORIENTED_EDGE('',*,*,#185,.F.);
#147=ORIENTED_EDGE('',*,*,#160,.F.);
#148=ORIENTED_EDGE('',*,*,#212,.T.);
#149=ORIENTED_EDGE('',*,*,#188,.F.);
#150=ORIENTED_EDGE('',*,*,#184,.F.);
#151=ORIENTED_EDGE('',*,*,#213,.F.);
#152=ORIENTED_EDGE('',*,*,#178,.F.);
#153=ORIENTED_EDGE('',*,*,#210,.F.);
#154=ORIENTED_EDGE('',*,*,#187,.F.);
#155=ORIENTED_EDGE('',*,*,#198,.F.);
#156=ORIENTED_EDGE('',*,*,#179,.F.);
#157=ORIENTED_EDGE('',*,*,#213,.T.);
#158=ORIENTED_EDGE('',*,*,#183,.F.);
#159=EDGE_CURVE('',#214,#215,#254,.T.);
#160=EDGE_CURVE('',#215,#216,#255,.T.);
#161=EDGE_CURVE('',#216,#214,#256,.T.);
#162=EDGE_CURVE('',#217,#218,#257,.T.);
#163=EDGE_CURVE('',#218,#219,#36,.T.);
#164=EDGE_CURVE('',#219,#220,#37,.T.);
#165=EDGE_CURVE('',#220,#221,#258,.T.);
#166=EDGE_CURVE('',#217,#221,#259,.T.);
#167=EDGE_CURVE('',#221,#222,#260,.T.);
#168=EDGE_CURVE('',#223,#222,#261,.T.);
#169=EDGE_CURVE('',#224,#223,#262,.T.);
#170=EDGE_CURVE('',#224,#217,#263,.T.);
#171=EDGE_CURVE('',#225,#223,#264,.T.);
#172=EDGE_CURVE('',#226,#225,#265,.T.);
#173=EDGE_CURVE('',#226,#224,#266,.T.);
#174=EDGE_CURVE('',#225,#227,#267,.T.);
#175=EDGE_CURVE('',#227,#228,#268,.T.);
#176=EDGE_CURVE('',#229,#228,#269,.T.);
#177=EDGE_CURVE('',#226,#229,#270,.T.);
#178=EDGE_CURVE('',#230,#231,#38,.T.);
#179=EDGE_CURVE('',#231,#232,#39,.T.);
#180=EDGE_CURVE('',#232,#229,#271,.T.);
#181=EDGE_CURVE('',#228,#230,#272,.T.);
#182=EDGE_CURVE('',#233,#234,#273,.T.);
#183=EDGE_CURVE('',#233,#235,#274,.T.);
#184=EDGE_CURVE('',#235,#234,#275,.T.);
#185=EDGE_CURVE('',#216,#236,#21,.T.);
#186=EDGE_CURVE('',#236,#237,#12,.T.);
#187=EDGE_CURVE('',#237,#233,#22,.T.);
#188=EDGE_CURVE('',#234,#238,#23,.T.);
#189=EDGE_CURVE('',#238,#239,#40,.T.);
#190=EDGE_CURVE('',#239,#214,#24,.T.);
#191=EDGE_CURVE('',#240,#240,#13,.T.);
#192=EDGE_CURVE('',#241,#241,#14,.T.);
#193=EDGE_CURVE('',#242,#242,#15,.T.);
#194=EDGE_CURVE('',#243,#243,#16,.T.);
#195=EDGE_CURVE('',#244,#244,#17,.T.);
#196=EDGE_CURVE('',#245,#245,#18,.T.);
#197=EDGE_CURVE('',#236,#218,#276,.F.);
#198=EDGE_CURVE('',#232,#237,#277,.F.);
#199=EDGE_CURVE('',#246,#247,#19,.T.);
#200=EDGE_CURVE('',#246,#227,#278,.T.);
#201=EDGE_CURVE('',#222,#248,#279,.T.);
#202=EDGE_CURVE('',#249,#248,#20,.T.);
#203=EDGE_CURVE('',#249,#247,#280,.T.);
#204=EDGE_CURVE('',#248,#249,#41,.T.);
#205=EDGE_CURVE('',#250,#250,#42,.T.);
#206=EDGE_CURVE('',#247,#246,#43,.T.);
#207=EDGE_CURVE('',#251,#251,#44,.T.);
#208=EDGE_CURVE('',#252,#252,#45,.T.);
#209=EDGE_CURVE('',#253,#253,#46,.T.);
#210=EDGE_CURVE('',#238,#230,#281,.F.);
#211=EDGE_CURVE('',#220,#239,#282,.F.);
#212=EDGE_CURVE('',#215,#219,#47,.T.);
#213=EDGE_CURVE('',#231,#235,#48,.F.);
#214=VERTEX_POINT('',#593);
#215=VERTEX_POINT('',#594);
#216=VERTEX_POINT('',#596);
#217=VERTEX_POINT('',#600);
#218=VERTEX_POINT('',#601);
#219=VERTEX_POINT('',#603);
#220=VERTEX_POINT('',#605);
#221=VERTEX_POINT('',#607);
#222=VERTEX_POINT('',#611);
#223=VERTEX_POINT('',#613);
#224=VERTEX_POINT('',#615);
#225=VERTEX_POINT('',#619);
#226=VERTEX_POINT('',#621);
#227=VERTEX_POINT('',#625);
#228=VERTEX_POINT('',#627);
#229=VERTEX_POINT('',#629);
#230=VERTEX_POINT('',#633);
#231=VERTEX_POINT('',#634);
#232=VERTEX_POINT('',#636);
#233=VERTEX_POINT('',#641);
#234=VERTEX_POINT('',#642);
#235=VERTEX_POINT('',#644);
#236=VERTEX_POINT('',#652);
#237=VERTEX_POINT('',#654);
#238=VERTEX_POINT('',#665);
#239=VERTEX_POINT('',#667);
#240=VERTEX_POINT('',#675);
#241=VERTEX_POINT('',#677);
#242=VERTEX_POINT('',#679);
#243=VERTEX_POINT('',#681);
#244=VERTEX_POINT('',#683);
#245=VERTEX_POINT('',#685);
#246=VERTEX_POINT('',#690);
#247=VERTEX_POINT('',#691);
#248=VERTEX_POINT('',#694);
#249=VERTEX_POINT('',#696);
#250=VERTEX_POINT('',#702);
#251=VERTEX_POINT('',#707);
#252=VERTEX_POINT('',#710);
#253=VERTEX_POINT('',#713);
#254=LINE('',#592,#283);
#255=LINE('',#595,#284);
#256=LINE('',#597,#285);
#257=LINE('',#599,#286);
#258=LINE('',#606,#287);
#259=LINE('',#608,#288);
#260=LINE('',#610,#289);
#261=LINE('',#612,#290);
#262=LINE('',#614,#291);
#263=LINE('',#616,#292);
#264=LINE('',#618,#293);
#265=LINE('',#620,#294);
#266=LINE('',#622,#295);
#267=LINE('',#624,#296);
#268=LINE('',#626,#297);
#269=LINE('',#628,#298);
#270=LINE('',#630,#299);
#271=LINE('',#637,#300);
#272=LINE('',#638,#301);
#273=LINE('',#640,#302);
#274=LINE('',#643,#303);
#275=LINE('',#645,#304);
#276=LINE('',#686,#305);
#277=LINE('',#687,#306);
#278=LINE('',#692,#307);
#279=LINE('',#693,#308);
#280=LINE('',#697,#309);
#281=LINE('',#715,#310);
#282=LINE('',#716,#311);
#283=VECTOR('',#477,1.);
#284=VECTOR('',#478,1.);
#285=VECTOR('',#479,1.);
#286=VECTOR('',#482,1.);
#287=VECTOR('',#487,1.);
#288=VECTOR('',#488,1.);
#289=VECTOR('',#491,1.);
#290=VECTOR('',#492,1.);
#291=VECTOR('',#493,1.);
#292=VECTOR('',#494,1.);
#293=VECTOR('',#497,1.);
#294=VECTOR('',#498,1.);
#295=VECTOR('',#499,1.);
#296=VECTOR('',#502,1.);
#297=VECTOR('',#503,1.);
#298=VECTOR('',#504,1.);
#299=VECTOR('',#505,1.);
#300=VECTOR('',#512,1.);
#301=VECTOR('',#513,1.);
#302=VECTOR('',#516,1.);
#303=VECTOR('',#517,1.);
#304=VECTOR('',#518,1.);
#305=VECTOR('',#539,1.);
#306=VECTOR('',#540,1.);
#307=VECTOR('',#545,1.);
#308=VECTOR('',#546,1.);
#309=VECTOR('',#549,1.);
#310=VECTOR('',#576,1.);
#311=VECTOR('',#577,1.);
#312=EDGE_LOOP('',(#49,#50,#51));
#313=EDGE_LOOP('',(#52,#53,#54,#55,#56));
#314=EDGE_LOOP('',(#57,#58,#59,#60,#61));
#315=EDGE_LOOP('',(#62,#63,#64,#65));
#316=EDGE_LOOP('',(#66,#67,#68,#69,#70));
#317=EDGE_LOOP('',(#71,#72,#73,#74,#75));
#318=EDGE_LOOP('',(#76,#77,#78));
#319=EDGE_LOOP('',(#79,#80,#81,#82,#83,#84,#85,#86));
#320=EDGE_LOOP('',(#87));
#321=EDGE_LOOP('',(#88));
#322=EDGE_LOOP('',(#89));
#323=EDGE_LOOP('',(#90));
#324=EDGE_LOOP('',(#91));
#325=EDGE_LOOP('',(#92));
#326=EDGE_LOOP('',(#93,#94,#95,#96,#97,#98,#99,#100));
#327=EDGE_LOOP('',(#101,#102,#103,#104,#105,#106,#107,#108));
#328=EDGE_LOOP('',(#109,#110));
#329=EDGE_LOOP('',(#111));
#330=EDGE_LOOP('',(#112));
#331=EDGE_LOOP('',(#113));
#332=EDGE_LOOP('',(#114,#115));
#333=EDGE_LOOP('',(#116));
#334=EDGE_LOOP('',(#117));
#335=EDGE_LOOP('',(#118));
#336=EDGE_LOOP('',(#119));
#337=EDGE_LOOP('',(#120));
#338=EDGE_LOOP('',(#121));
#339=EDGE_LOOP('',(#122));
#340=EDGE_LOOP('',(#123,#124,#125,#126,#127,#128,#129,#130,#131,#132,#133,
#134));
#341=EDGE_LOOP('',(#135));
#342=EDGE_LOOP('',(#136));
#343=EDGE_LOOP('',(#137));
#344=EDGE_LOOP('',(#138));
#345=EDGE_LOOP('',(#139,#140,#141,#142,#143));
#346=EDGE_LOOP('',(#144,#145,#146,#147,#148));
#347=EDGE_LOOP('',(#149,#150,#151,#152,#153));
#348=EDGE_LOOP('',(#154,#155,#156,#157,#158));
#349=FACE_BOUND('',#312,.T.);
#350=FACE_BOUND('',#313,.T.);
#351=FACE_BOUND('',#314,.T.);
#352=FACE_BOUND('',#315,.T.);
#353=FACE_BOUND('',#316,.T.);
#354=FACE_BOUND('',#317,.T.);
#355=FACE_BOUND('',#318,.T.);
#356=FACE_BOUND('',#319,.T.);
#357=FACE_BOUND('',#320,.T.);
#358=FACE_BOUND('',#321,.T.);
#359=FACE_BOUND('',#322,.T.);
#360=FACE_BOUND('',#323,.T.);
#361=FACE_BOUND('',#324,.T.);
#362=FACE_BOUND('',#325,.T.);
#363=FACE_BOUND('',#326,.T.);
#364=FACE_BOUND('',#327,.T.);
#365=FACE_BOUND('',#328,.T.);
#366=FACE_BOUND('',#329,.T.);
#367=FACE_BOUND('',#330,.T.);
#368=FACE_BOUND('',#331,.T.);
#369=FACE_BOUND('',#332,.T.);
#370=FACE_BOUND('',#333,.T.);
#371=FACE_BOUND('',#334,.T.);
#372=FACE_BOUND('',#335,.T.);
#373=FACE_BOUND('',#336,.T.);
#374=FACE_BOUND('',#337,.T.);
#375=FACE_BOUND('',#338,.T.);
#376=FACE_BOUND('',#339,.T.);
#377=FACE_BOUND('',#340,.T.);
#378=FACE_BOUND('',#341,.T.);
#379=FACE_BOUND('',#342,.T.);
#380=FACE_BOUND('',#343,.T.);
#381=FACE_BOUND('',#344,.T.);
#382=FACE_BOUND('',#345,.T.);
#383=FACE_BOUND('',#346,.T.);
#384=FACE_BOUND('',#347,.T.);
#385=FACE_BOUND('',#348,.T.);
#386=PLANE('',#430);
#387=PLANE('',#431);
#388=PLANE('',#434);
#389=PLANE('',#435);
#390=PLANE('',#436);
#391=PLANE('',#437);
#392=PLANE('',#440);
#393=PLANE('',#444);
#394=PLANE('',#451);
#395=PLANE('',#466);
#396=ADVANCED_FACE('',(#349),#386,.T.);
#397=ADVANCED_FACE('',(#350),#387,.T.);
#398=ADVANCED_FACE('',(#351),#388,.T.);
#399=ADVANCED_FACE('',(#352),#389,.T.);
#400=ADVANCED_FACE('',(#353),#390,.F.);
#401=ADVANCED_FACE('',(#354),#391,.T.);
#402=ADVANCED_FACE('',(#355),#392,.T.);
#403=ADVANCED_FACE('',(#356),#25,.F.);
#404=ADVANCED_FACE('',(#357,#358,#359,#360,#361,#362,#363),#393,.T.);
#405=ADVANCED_FACE('',(#364),#394,.F.);
#406=ADVANCED_FACE('',(#365,#366),#26,.F.);
#407=ADVANCED_FACE('',(#367,#368),#27,.F.);
#408=ADVANCED_FACE('',(#369,#370),#28,.F.);
#409=ADVANCED_FACE('',(#371,#372),#29,.F.);
#410=ADVANCED_FACE('',(#373,#374),#30,.F.);
#411=ADVANCED_FACE('',(#375,#376),#31,.F.);
#412=ADVANCED_FACE('',(#377,#378,#379,#380,#381),#395,.T.);
#413=ADVANCED_FACE('',(#382),#32,.T.);
#414=ADVANCED_FACE('',(#383),#33,.T.);
#415=ADVANCED_FACE('',(#384),#34,.T.);
#416=ADVANCED_FACE('',(#385),#35,.T.);
#417=CLOSED_SHELL('',(#396,#397,#398,#399,#400,#401,#402,#403,#404,#405,
#406,#407,#408,#409,#410,#411,#412,#413,#414,#415,#416));
#418=STYLED_ITEM('',(#419),#426);
#419=PRESENTATION_STYLE_ASSIGNMENT((#420));
#420=SURFACE_STYLE_USAGE(.BOTH.,#421);
#421=SURFACE_SIDE_STYLE('',(#422));
#422=SURFACE_STYLE_FILL_AREA(#423);
#423=FILL_AREA_STYLE('',(#424));
#424=FILL_AREA_STYLE_COLOUR('',#425);
#425=COLOUR_RGB('',0.596078431372549,0.12156862745098,0.674509803921569);
#426=MANIFOLD_SOLID_BREP('Card',#417);
#427=SHAPE_DEFINITION_REPRESENTATION(#729,#428);
#428=SHAPE_REPRESENTATION('Card',(#429),#724);
#429=AXIS2_PLACEMENT_3D('',#590,#473,#474);
#430=AXIS2_PLACEMENT_3D('',#591,#475,#476);
#431=AXIS2_PLACEMENT_3D('',#598,#480,#481);
#432=AXIS2_PLACEMENT_3D('',#602,#483,#484);
#433=AXIS2_PLACEMENT_3D('',#604,#485,#486);
#434=AXIS2_PLACEMENT_3D('',#609,#489,#490);
#435=AXIS2_PLACEMENT_3D('',#617,#495,#496);
#436=AXIS2_PLACEMENT_3D('',#623,#500,#501);
#437=AXIS2_PLACEMENT_3D('',#631,#506,#507);
#438=AXIS2_PLACEMENT_3D('',#632,#508,#509);
#439=AXIS2_PLACEMENT_3D('',#635,#510,#511);
#440=AXIS2_PLACEMENT_3D('',#639,#514,#515);
#441=AXIS2_PLACEMENT_3D('',#646,#519,#520);
#442=AXIS2_PLACEMENT_3D('',#653,#521,#522);
#443=AXIS2_PLACEMENT_3D('',#666,#523,#524);
#444=AXIS2_PLACEMENT_3D('',#673,#525,#526);
#445=AXIS2_PLACEMENT_3D('',#674,#527,#528);
#446=AXIS2_PLACEMENT_3D('',#676,#529,#530);
#447=AXIS2_PLACEMENT_3D('',#678,#531,#532);
#448=AXIS2_PLACEMENT_3D('',#680,#533,#534);
#449=AXIS2_PLACEMENT_3D('',#682,#535,#536);
#450=AXIS2_PLACEMENT_3D('',#684,#537,#538);
#451=AXIS2_PLACEMENT_3D('',#688,#541,#542);
#452=AXIS2_PLACEMENT_3D('',#689,#543,#544);
#453=AXIS2_PLACEMENT_3D('',#695,#547,#548);
#454=AXIS2_PLACEMENT_3D('',#698,#550,#551);
#455=AXIS2_PLACEMENT_3D('',#699,#552,#553);
#456=AXIS2_PLACEMENT_3D('',#700,#554,#555);
#457=AXIS2_PLACEMENT_3D('',#701,#556,#557);
#458=AXIS2_PLACEMENT_3D('',#703,#558,#559);
#459=AXIS2_PLACEMENT_3D('',#704,#560,#561);
#460=AXIS2_PLACEMENT_3D('',#705,#562,#563);
#461=AXIS2_PLACEMENT_3D('',#706,#564,#565);
#462=AXIS2_PLACEMENT_3D('',#708,#566,#567);
#463=AXIS2_PLACEMENT_3D('',#709,#568,#569);
#464=AXIS2_PLACEMENT_3D('',#711,#570,#571);
#465=AXIS2_PLACEMENT_3D('',#712,#572,#573);
#466=AXIS2_PLACEMENT_3D('',#714,#574,#575);
#467=AXIS2_PLACEMENT_3D('',#717,#578,#579);
#468=AXIS2_PLACEMENT_3D('',#718,#580,#581);
#469=AXIS2_PLACEMENT_3D('',#719,#582,#583);
#470=AXIS2_PLACEMENT_3D('',#720,#584,#585);
#471=AXIS2_PLACEMENT_3D('',#721,#586,#587);
#472=AXIS2_PLACEMENT_3D('',#722,#588,#589);
#473=DIRECTION('',(0.,0.,1.));
#474=DIRECTION('',(1.,0.,0.));
#475=DIRECTION('',(-0.707106781186547,0.,-0.707106781186548));
#476=DIRECTION('',(-0.707106781186548,0.,0.707106781186547));
#477=DIRECTION('',(0.704456660303224,-0.086496401710458,-0.704456660303224));
#478=DIRECTION('',(-0.707106781186548,0.,0.707106781186547));
#479=DIRECTION('',(0.,1.,0.));
#480=DIRECTION('',(-5.12221498812049E-17,0.,-1.));
#481=DIRECTION('',(-1.,0.,5.12221498812049E-17));
#482=DIRECTION('',(-1.,0.,5.12221498812049E-17));
#483=DIRECTION('',(-5.12221498812049E-17,0.,-1.));
#484=DIRECTION('',(-1.,0.,5.12221498812049E-17));
#485=DIRECTION('',(-5.12221498812049E-17,0.,-1.));
#486=DIRECTION('',(0.992546151641322,-0.121869343405147,-5.0840347743385E-17));
#487=DIRECTION('',(1.,0.,-5.12221498812049E-17));
#488=DIRECTION('',(0.,1.,0.));
#489=DIRECTION('',(1.,0.,-7.45049452817527E-16));
#490=DIRECTION('',(-7.45049452817527E-16,0.,-1.));
#491=DIRECTION('',(7.39495967176509E-16,0.121869343405148,0.992546151641322));
#492=DIRECTION('',(-7.45049452817527E-16,0.,-1.));
#493=DIRECTION('',(0.,1.,0.));
#494=DIRECTION('',(-7.45049452817527E-16,0.,-1.));
#495=DIRECTION('',(1.82123199577617E-16,0.,1.));
#496=DIRECTION('',(1.,0.,-1.82123199577617E-16));
#497=DIRECTION('',(1.,0.,-1.82123199577617E-16));
#498=DIRECTION('',(0.,1.,0.));
#499=DIRECTION('',(1.,0.,-1.82123199577617E-16));
#500=DIRECTION('',(1.,0.,-7.45049452817526E-16));
#501=DIRECTION('',(-7.45049452817526E-16,0.,-1.));
#502=DIRECTION('',(-7.45049452817526E-16,0.,-1.));
#503=DIRECTION('',(-7.39495967176508E-16,-0.121869343405148,-0.992546151641322));
#504=DIRECTION('',(0.,1.,0.));
#505=DIRECTION('',(-7.45049452817526E-16,0.,-1.));
#506=DIRECTION('',(-5.12221498812049E-17,0.,-1.));
#507=DIRECTION('',(-1.,0.,5.12221498812049E-17));
#508=DIRECTION('',(-5.12221498812049E-17,0.,-1.));
#509=DIRECTION('',(0.992546151641322,0.121869343405148,-5.0840347743385E-17));
#510=DIRECTION('',(-5.12221498812049E-17,0.,-1.));
#511=DIRECTION('',(-1.,0.,5.12221498812049E-17));
#512=DIRECTION('',(-1.,0.,5.12221498812049E-17));
#513=DIRECTION('',(1.,0.,-5.12221498812049E-17));
#514=DIRECTION('',(0.707106781186548,0.,-0.707106781186548));
#515=DIRECTION('',(-0.707106781186548,0.,-0.707106781186548));
#516=DIRECTION('',(0.,1.,0.));
#517=DIRECTION('',(-0.707106781186548,0.,-0.707106781186548));
#518=DIRECTION('',(0.704456660303224,0.086496401710458,0.704456660303224));
#519=DIRECTION('',(0.,1.,0.));
#520=DIRECTION('',(0.,0.,1.));
#521=DIRECTION('',(0.,-1.,0.));
#522=DIRECTION('',(0.,0.,-1.));
#523=DIRECTION('',(-6.2424097738225E-18,0.992546151641322,-0.121869343405148));
#524=DIRECTION('',(5.0840347743385E-17,0.121869343405148,0.992546151641322));
#525=DIRECTION('',(0.,-1.,0.));
#526=DIRECTION('',(1.,0.,0.));
#527=DIRECTION('',(0.,1.,0.));
#528=DIRECTION('',(0.,0.,1.));
#529=DIRECTION('',(0.,1.,0.));
#530=DIRECTION('',(0.,0.,1.));
#531=DIRECTION('',(0.,1.,0.));
#532=DIRECTION('',(0.,0.,1.));
#533=DIRECTION('',(0.,1.,0.));
#534=DIRECTION('',(0.,0.,1.));
#535=DIRECTION('',(0.,1.,0.));
#536=DIRECTION('',(0.,0.,1.));
#537=DIRECTION('',(0.,1.,0.));
#538=DIRECTION('',(0.,0.,1.));
#539=DIRECTION('',(-0.707106781186548,0.,0.707106781186547));
#540=DIRECTION('',(-0.707106781186548,0.,-0.707106781186548));
#541=DIRECTION('',(0.,-1.,0.));
#542=DIRECTION('',(1.,0.,0.));
#543=DIRECTION('',(0.,1.,0.));
#544=DIRECTION('',(0.,0.,1.));
#545=DIRECTION('',(-1.,0.,5.12221498812049E-17));
#546=DIRECTION('',(-1.,0.,5.12221498812049E-17));
#547=DIRECTION('',(0.,1.,0.));
#548=DIRECTION('',(0.,0.,1.));
#549=DIRECTION('',(-1.,0.,5.12221498812049E-17));
#550=DIRECTION('',(0.,1.,0.));
#551=DIRECTION('',(0.,0.,1.));
#552=DIRECTION('',(-6.2424097738225E-18,0.992546151641322,-0.121869343405148));
#553=DIRECTION('',(5.0840347743385E-17,0.121869343405148,0.992546151641322));
#554=DIRECTION('',(0.,1.,0.));
#555=DIRECTION('',(0.,0.,1.));
#556=DIRECTION('',(-6.2424097738225E-18,0.992546151641322,-0.121869343405148));
#557=DIRECTION('',(5.0840347743385E-17,0.121869343405148,0.992546151641322));
#558=DIRECTION('',(0.,1.,0.));
#559=DIRECTION('',(0.,0.,1.));
#560=DIRECTION('',(-6.2424097738225E-18,0.992546151641322,-0.121869343405148));
#561=DIRECTION('',(5.0840347743385E-17,0.121869343405148,0.992546151641322));
#562=DIRECTION('',(0.,1.,0.));
#563=DIRECTION('',(0.,0.,1.));
#564=DIRECTION('',(-6.2424097738225E-18,0.992546151641322,-0.121869343405148));
#565=DIRECTION('',(5.0840347743385E-17,0.121869343405148,0.992546151641322));
#566=DIRECTION('',(0.,1.,0.));
#567=DIRECTION('',(0.,0.,1.));
#568=DIRECTION('',(-6.2424097738225E-18,0.992546151641322,-0.121869343405148));
#569=DIRECTION('',(5.0840347743385E-17,0.121869343405148,0.992546151641322));
#570=DIRECTION('',(0.,1.,0.));
#571=DIRECTION('',(0.,0.,1.));
#572=DIRECTION('',(-6.2424097738225E-18,0.992546151641322,-0.121869343405148));
#573=DIRECTION('',(5.0840347743385E-17,0.121869343405148,0.992546151641322));
#574=DIRECTION('',(-6.2424097738225E-18,0.992546151641322,-0.121869343405148));
#575=DIRECTION('',(1.,0.,-5.12221498812049E-17));
#576=DIRECTION('',(0.704456660303224,0.086496401710458,0.704456660303224));
#577=DIRECTION('',(0.704456660303224,-0.086496401710458,-0.704456660303224));
#578=DIRECTION('',(0.704456660303224,-0.086496401710458,-0.704456660303223));
#579=DIRECTION('',(-0.707106781186547,0.,-0.707106781186548));
#580=DIRECTION('',(-0.0306097896722809,-0.999062601418168,0.0306097896722809));
#581=DIRECTION('',(-0.70644394029266,0.0432887796959252,0.706443940292659));
#582=DIRECTION('',(-0.707106781186548,0.,0.707106781186547));
#583=DIRECTION('',(0.707106781186547,0.,0.707106781186548));
#584=DIRECTION('',(0.704456660303224,0.086496401710458,0.704456660303224));
#585=DIRECTION('',(0.707106781186548,0.,-0.707106781186548));
#586=DIRECTION('',(-0.0306097896722796,0.999062601418168,-0.0306097896722796));
#587=DIRECTION('',(0.70644394029266,0.0432887796959252,0.70644394029266));
#588=DIRECTION('',(-0.707106781186548,0.,-0.707106781186548));
#589=DIRECTION('',(-0.707106781186548,0.,0.707106781186548));
#590=CARTESIAN_POINT('',(0.,0.,0.));
#591=CARTESIAN_POINT('',(0.0203970384181603,-0.00635,0.0177029615818396));
#592=CARTESIAN_POINT('',(0.0204650957200351,-0.00524143551315794,0.0176349042799649));
#593=CARTESIAN_POINT('',(0.00269407683632074,-0.00305942876272384,0.0354059231636792));
#594=CARTESIAN_POINT('',(0.019150308975099,-0.00508,0.018949691024901));
#595=CARTESIAN_POINT('',(0.0203970384181603,-0.00508,0.0177029615818396));
#596=CARTESIAN_POINT('',(0.00269407683632074,-0.00508,0.0354059231636792));
#597=CARTESIAN_POINT('',(0.00269407683632074,-0.00635,0.0354059231636792));
#598=CARTESIAN_POINT('',(0.05715,-0.00635,-2.92734586571086E-18));
#599=CARTESIAN_POINT('',(0.05715,-0.00635,-2.92734586571086E-18));
#600=CARTESIAN_POINT('',(0.0762,-0.00635,-3.90312782094781E-18));
#601=CARTESIAN_POINT('',(0.0398960512242139,-0.00635,-2.04356151547491E-18));
#602=CARTESIAN_POINT('',(0.0398960512242139,-0.00508,0.));
#603=CARTESIAN_POINT('',(0.0392996463447347,-0.00627793597903515,3.05491401265624E-20));
#604=CARTESIAN_POINT('',(0.0398960512242139,-0.00751699317220029,0.));
#605=CARTESIAN_POINT('',(0.0397412771580893,-0.00623745569386755,-2.03563365506215E-18));
#606=CARTESIAN_POINT('',(0.0762,-0.00623745569386755,-3.90312782094781E-18));
#607=CARTESIAN_POINT('',(0.0762,-0.00623745569386755,-3.90312782094781E-18));
#608=CARTESIAN_POINT('',(0.0762,-0.00635,-3.90312782094781E-18));
#609=CARTESIAN_POINT('',(0.0762,-0.00635,0.02794));
#610=CARTESIAN_POINT('',(0.0762,-0.00285947833577791,0.0275114178301364));
#611=CARTESIAN_POINT('',(0.0762,0.,0.0508));
#612=CARTESIAN_POINT('',(0.0762,0.,0.02794));
#613=CARTESIAN_POINT('',(0.0762,0.,0.05588));
#614=CARTESIAN_POINT('',(0.0762,-0.00635,0.05588));
#615=CARTESIAN_POINT('',(0.0762,-0.00635,0.05588));
#616=CARTESIAN_POINT('',(0.0762,-0.00635,0.02794));
#617=CARTESIAN_POINT('',(4.16333634234433E-17,-0.00635,0.05588));
#618=CARTESIAN_POINT('',(4.16333634234433E-17,0.,0.05588));
#619=CARTESIAN_POINT('',(-0.0762,0.,0.05588));
#620=CARTESIAN_POINT('',(-0.0762,-0.00635,0.05588));
#621=CARTESIAN_POINT('',(-0.0762,-0.00635,0.05588));
#622=CARTESIAN_POINT('',(4.16333634234433E-17,-0.00635,0.05588));
#623=CARTESIAN_POINT('',(-0.0762,-0.00635,0.02794));
#624=CARTESIAN_POINT('',(-0.0762,0.,0.02794));
#625=CARTESIAN_POINT('',(-0.0762,0.,0.0508));
#626=CARTESIAN_POINT('',(-0.0762,6.39516182275059E-18,0.0508));
#627=CARTESIAN_POINT('',(-0.0762,-0.00623745569386755,-1.30104260698261E-17));
#628=CARTESIAN_POINT('',(-0.0762,-0.00635,-1.30104260698261E-17));
#629=CARTESIAN_POINT('',(-0.0762,-0.00635,-1.30104260698261E-17));
#630=CARTESIAN_POINT('',(-0.0762,-0.00635,0.02794));
#631=CARTESIAN_POINT('',(-0.05715,-0.00635,2.92734586571086E-18));
#632=CARTESIAN_POINT('',(-0.0398960512242139,-0.00751699317220029,0.));
#633=CARTESIAN_POINT('',(-0.0397412771580893,-0.00623745569386755,2.03563365506215E-18));
#634=CARTESIAN_POINT('',(-0.0392996463447348,-0.00627793597903513,-3.05491401265584E-20));
#635=CARTESIAN_POINT('',(-0.0398960512242139,-0.00508,0.));
#636=CARTESIAN_POINT('',(-0.0398960512242139,-0.00635,2.04356151547491E-18));
#637=CARTESIAN_POINT('',(-0.05715,-0.00635,2.92734586571086E-18));
#638=CARTESIAN_POINT('',(-0.0381,-0.00623745569386755,1.95156391047391E-18));
#639=CARTESIAN_POINT('',(-0.0203970384181604,-0.00635,0.0177029615818396));
#640=CARTESIAN_POINT('',(-0.00269407683632075,-0.00635,0.0354059231636792));
#641=CARTESIAN_POINT('',(-0.00269407683632075,-0.00508,0.0354059231636792));
#642=CARTESIAN_POINT('',(-0.00269407683632075,-0.00305942876272384,0.0354059231636792));
#643=CARTESIAN_POINT('',(-0.0203970384181604,-0.00508,0.0177029615818396));
#644=CARTESIAN_POINT('',(-0.019150308975099,-0.00508,0.018949691024901));
#645=CARTESIAN_POINT('',(-0.0204650957200351,-0.00524143551315794,0.0176349042799649));
#646=CARTESIAN_POINT('',(-1.04083408558608E-17,-0.00635,0.0381));
#647=CARTESIAN_POINT('',(0.00269407683632074,-0.00508,0.0354059231636792));
#648=CARTESIAN_POINT('',(0.00269407683632074,-0.00541938518866716,0.0354059231636792));
#649=CARTESIAN_POINT('',(0.00290536960083561,-0.00608667412514528,0.0355967643571053));
#650=CARTESIAN_POINT('',(0.00329179198806815,-0.00635,0.036151836338691));
#651=CARTESIAN_POINT('',(0.00343802561210691,-0.00635,0.0364580256121069));
#652=CARTESIAN_POINT('',(0.00343802561210691,-0.00635,0.0364580256121069));
#653=CARTESIAN_POINT('',(-1.04083408558608E-17,-0.00635,0.0381));
#654=CARTESIAN_POINT('',(-0.00343802561210692,-0.00635,0.0364580256121069));
#655=CARTESIAN_POINT('',(-0.00343802561210692,-0.00635,0.0364580256121069));
#656=CARTESIAN_POINT('',(-0.00329184121471445,-0.00634999999999999,0.036151939411231));
#657=CARTESIAN_POINT('',(-0.00290626259577753,-0.00608809997663839,0.0355978349153043));
#658=CARTESIAN_POINT('',(-0.00269407683632075,-0.00541936681538584,0.0354059231636792));
#659=CARTESIAN_POINT('',(-0.00269407683632075,-0.00508,0.0354059231636792));
#660=CARTESIAN_POINT('',(-0.00269407683632076,-0.00305942876272384,0.0354059231636793));
#661=CARTESIAN_POINT('',(-0.00269407683632076,-0.00273783893046499,0.0354059231636793));
#662=CARTESIAN_POINT('',(-0.00288054747042974,-0.00210638461806266,0.035576247430437));
#663=CARTESIAN_POINT('',(-0.00324026609335519,-0.00180855701219106,0.036070485157973));
#664=CARTESIAN_POINT('',(-0.00338668657598149,-0.00177367325243853,0.0363545905821078));
#665=CARTESIAN_POINT('',(-0.0033866865759815,-0.00177367325243857,0.0363545905821078));
#666=CARTESIAN_POINT('',(-1.04083408558608E-17,-0.00155936392346689,0.0381));
#667=CARTESIAN_POINT('',(0.00338668657598148,-0.00177367325243857,0.0363545905821078));
#668=CARTESIAN_POINT('',(0.00338668657598148,-0.00177367325243857,0.0363545905821078));
#669=CARTESIAN_POINT('',(0.00324028588358052,-0.00180855229729429,0.0360705235577259));
#670=CARTESIAN_POINT('',(0.00288120548856332,-0.00210527374356256,0.0355770277951777));
#671=CARTESIAN_POINT('',(0.00269407683632074,-0.00273781149542687,0.0354059231636792));
#672=CARTESIAN_POINT('',(0.00269407683632073,-0.00305942876272384,0.0354059231636792));
#673=CARTESIAN_POINT('',(2.77555756156289E-17,-0.00635,0.02794));
#674=CARTESIAN_POINT('',(0.05715,-0.00635,0.02032));
#675=CARTESIAN_POINT('',(0.05715,-0.00635,0.0235839));
#676=CARTESIAN_POINT('',(-0.05715,-0.00635,0.01016));
#677=CARTESIAN_POINT('',(-0.05715,-0.00635,0.0134239));
#678=CARTESIAN_POINT('',(0.05715,-0.00635,0.01016));
#679=CARTESIAN_POINT('',(0.05715,-0.00635,0.0134239));
#680=CARTESIAN_POINT('',(-0.00635,-0.00635,0.04953));
#681=CARTESIAN_POINT('',(-0.00635,-0.00635,0.0527939));
#682=CARTESIAN_POINT('',(-0.05715,-0.00635,0.02032));
#683=CARTESIAN_POINT('',(-0.05715,-0.00635,0.0235839));
#684=CARTESIAN_POINT('',(0.00635,-0.00635,0.04953));
#685=CARTESIAN_POINT('',(0.00635,-0.00635,0.0527939));
#686=CARTESIAN_POINT('',(0.00597802561210692,-0.00635,0.0339180256121069));
#687=CARTESIAN_POINT('',(-0.00597802561210691,-0.00635,0.0339180256121069));
#688=CARTESIAN_POINT('',(2.77555756156289E-17,0.,0.02794));
#689=CARTESIAN_POINT('',(-0.00635,0.,0.04953));
#690=CARTESIAN_POINT('',(-0.00935668309104902,0.,0.0508));
#691=CARTESIAN_POINT('',(-0.00334331690895098,0.,0.0508));
#692=CARTESIAN_POINT('',(-0.0762,0.,0.0508));
#693=CARTESIAN_POINT('',(0.0381,0.,0.0508));
#694=CARTESIAN_POINT('',(0.00935668309104903,0.,0.0508));
#695=CARTESIAN_POINT('',(0.00635,0.,0.04953));
#696=CARTESIAN_POINT('',(0.00334331690895099,0.,0.0508));
#697=CARTESIAN_POINT('',(0.0381,0.,0.0508));
#698=CARTESIAN_POINT('',(0.00635,-0.00635,0.04953));
#699=CARTESIAN_POINT('',(0.00635,-0.000155936392346684,0.04953));
#700=CARTESIAN_POINT('',(-0.05715,-0.00635,0.02032));
#701=CARTESIAN_POINT('',(-0.05715,-0.00374247341632053,0.02032));
#702=CARTESIAN_POINT('',(-0.05715,-0.00334171688798954,0.0235839));
#703=CARTESIAN_POINT('',(-0.00635,-0.00635,0.04953));
#704=CARTESIAN_POINT('',(-0.00635,-0.000155936392346684,0.04953));
#705=CARTESIAN_POINT('',(0.05715,-0.00635,0.01016));
#706=CARTESIAN_POINT('',(0.05715,-0.00498996455509404,0.01016));
#707=CARTESIAN_POINT('',(0.05715,-0.00458920802676305,0.0134239));
#708=CARTESIAN_POINT('',(-0.05715,-0.00635,0.01016));
#709=CARTESIAN_POINT('',(-0.05715,-0.00498996455509404,0.01016));
#710=CARTESIAN_POINT('',(-0.05715,-0.00458920802676305,0.0134239));
#711=CARTESIAN_POINT('',(0.05715,-0.00635,0.02032));
#712=CARTESIAN_POINT('',(0.05715,-0.00374247341632053,0.02032));
#713=CARTESIAN_POINT('',(0.05715,-0.00334171688798954,0.0235839));
#714=CARTESIAN_POINT('',(2.89265139619132E-17,0.,0.0508));
#715=CARTESIAN_POINT('',(0.00557073004346878,-0.00067384078599499,0.0453120072015581));
#716=CARTESIAN_POINT('',(-0.00557073004346876,-0.000673840785994996,0.045312007201558));
#717=CARTESIAN_POINT('',(0.021363121332142,-0.00524143551315794,0.0185329298920718));
#718=CARTESIAN_POINT('',(0.020048334587206,-0.00508,0.0198477166370079));
#719=CARTESIAN_POINT('',(0.0212950640302673,-0.00508,0.0186009871939466));
#720=CARTESIAN_POINT('',(-0.021363121332142,-0.00524143551315794,0.0185329298920718));
#721=CARTESIAN_POINT('',(-0.020048334587206,-0.00508,0.0198477166370079));
#722=CARTESIAN_POINT('',(-0.0212950640302673,-0.00508,0.0186009871939466));
#723=MECHANICAL_DESIGN_GEOMETRIC_PRESENTATION_REPRESENTATION('',(#418),
#724);
#724=(
GEOMETRIC_REPRESENTATION_CONTEXT(3)
GLOBAL_UNCERTAINTY_ASSIGNED_CONTEXT((#725))
GLOBAL_UNIT_ASSIGNED_CONTEXT((#728,#727,#726))
REPRESENTATION_CONTEXT('Card','TOP_LEVEL_ASSEMBLY_PART')
);
#725=UNCERTAINTY_MEASURE_WITH_UNIT(LENGTH_MEASURE(2.E-5),#728,
'DISTANCE_ACCURACY_VALUE','Maximum Tolerance applied to model');
#726=(
NAMED_UNIT(*)
SI_UNIT($,.STERADIAN.)
SOLID_ANGLE_UNIT()
);
#727=(
NAMED_UNIT(*)
PLANE_ANGLE_UNIT()
SI_UNIT($,.RADIAN.)
);
#728=(
LENGTH_UNIT()
NAMED_UNIT(*)
SI_UNIT($,.METRE.)
);
#729=PRODUCT_DEFINITION_SHAPE('','',#730);
#730=PRODUCT_DEFINITION('','',#732,#731);
#731=PRODUCT_DEFINITION_CONTEXT('',#738,'design');
#732=PRODUCT_DEFINITION_FORMATION_WITH_SPECIFIED_SOURCE('','',#734,
 .NOT_KNOWN.);
#733=PRODUCT_RELATED_PRODUCT_CATEGORY('','',(#734));
#734=PRODUCT('Card','Card','Card',(#736));
#735=PRODUCT_CATEGORY('','');
#736=PRODUCT_CONTEXT('',#738,'mechanical');
#737=APPLICATION_PROTOCOL_DEFINITION('international standard',
'ap242_managed_model_based_3d_engineering',2020,#738);
#738=APPLICATION_CONTEXT('managed model based 3d engineering');
ENDSEC;
END-ISO-10303-21;
