ISO-10303-21;
HEADER;
/* Generated by software containing ST-Developer
 * from STEP Tools, Inc. (www.steptools.com) 
 */
/* OPTION: using custom renumber hook */

FILE_DESCRIPTION(
/* description */ ('STEP AP242 Edition 2',
'CAx-IF Rec.Pracs.---Representation and Presentation of Product Manufa
cturing Information (PMI)---4.0---2014-10-13',
'CAx-IF Rec.Pracs.---3D Tessellated Geometry---0.4---2014-09-14','2;1',
'CAx-IF Rec.Pracs.---User Defined Attributes---1.5---2016-08-15'),
/* implementation_level */ '2;1');

FILE_NAME(
/* name */ 'Cover',
/* time_stamp */ '2026-08-06T17:53:04Z',
/* author */ (''),
/* organization */ (''),
/* preprocessor_version */ 'ST-DEVELOPER v20',
/* originating_system */ 'ONSHAPE BY PTC INC, 1.218',
/* authorisation */ '  ');

FILE_SCHEMA (('AP242_MANAGED_MODEL_BASED_3D_ENGINEERING_MIM_LF { 1 0 10303 442 3 1 4 }'));
ENDSEC;

DATA;
#10=SHAPE_REPRESENTATION_RELATIONSHIP('','',#430,#11);
#11=ADVANCED_BREP_SHAPE_REPRESENTATION('',(#428),#672);
#12=ORIENTED_EDGE('',*,*,#126,.F.);
#13=ORIENTED_EDGE('',*,*,#127,.F.);
#14=ORIENTED_EDGE('',*,*,#128,.F.);
#15=ORIENTED_EDGE('',*,*,#129,.F.);
#16=ORIENTED_EDGE('',*,*,#130,.T.);
#17=ORIENTED_EDGE('',*,*,#131,.T.);
#18=ORIENTED_EDGE('',*,*,#132,.T.);
#19=ORIENTED_EDGE('',*,*,#133,.F.);
#20=ORIENTED_EDGE('',*,*,#134,.T.);
#21=ORIENTED_EDGE('',*,*,#135,.F.);
#22=ORIENTED_EDGE('',*,*,#136,.T.);
#23=ORIENTED_EDGE('',*,*,#137,.F.);
#24=ORIENTED_EDGE('',*,*,#138,.F.);
#25=ORIENTED_EDGE('',*,*,#139,.T.);
#26=ORIENTED_EDGE('',*,*,#140,.F.);
#27=ORIENTED_EDGE('',*,*,#141,.F.);
#28=ORIENTED_EDGE('',*,*,#133,.T.);
#29=ORIENTED_EDGE('',*,*,#142,.T.);
#30=ORIENTED_EDGE('',*,*,#143,.T.);
#31=ORIENTED_EDGE('',*,*,#144,.T.);
#32=ORIENTED_EDGE('',*,*,#131,.F.);
#33=ORIENTED_EDGE('',*,*,#145,.T.);
#34=ORIENTED_EDGE('',*,*,#146,.T.);
#35=ORIENTED_EDGE('',*,*,#145,.F.);
#36=ORIENTED_EDGE('',*,*,#130,.F.);
#37=ORIENTED_EDGE('',*,*,#147,.T.);
#38=ORIENTED_EDGE('',*,*,#148,.F.);
#39=ORIENTED_EDGE('',*,*,#147,.F.);
#40=ORIENTED_EDGE('',*,*,#129,.T.);
#41=ORIENTED_EDGE('',*,*,#149,.T.);
#42=ORIENTED_EDGE('',*,*,#150,.F.);
#43=ORIENTED_EDGE('',*,*,#149,.F.);
#44=ORIENTED_EDGE('',*,*,#128,.T.);
#45=ORIENTED_EDGE('',*,*,#151,.T.);
#46=ORIENTED_EDGE('',*,*,#152,.F.);
#47=ORIENTED_EDGE('',*,*,#153,.T.);
#48=ORIENTED_EDGE('',*,*,#154,.F.);
#49=ORIENTED_EDGE('',*,*,#151,.F.);
#50=ORIENTED_EDGE('',*,*,#127,.T.);
#51=ORIENTED_EDGE('',*,*,#155,.F.);
#52=ORIENTED_EDGE('',*,*,#156,.T.);
#53=ORIENTED_EDGE('',*,*,#157,.T.);
#54=ORIENTED_EDGE('',*,*,#137,.T.);
#55=ORIENTED_EDGE('',*,*,#158,.T.);
#56=ORIENTED_EDGE('',*,*,#159,.T.);
#57=ORIENTED_EDGE('',*,*,#160,.T.);
#58=ORIENTED_EDGE('',*,*,#161,.T.);
#59=ORIENTED_EDGE('',*,*,#158,.F.);
#60=ORIENTED_EDGE('',*,*,#136,.F.);
#61=ORIENTED_EDGE('',*,*,#162,.F.);
#62=ORIENTED_EDGE('',*,*,#163,.F.);
#63=ORIENTED_EDGE('',*,*,#164,.T.);
#64=ORIENTED_EDGE('',*,*,#165,.T.);
#65=ORIENTED_EDGE('',*,*,#166,.T.);
#66=ORIENTED_EDGE('',*,*,#167,.T.);
#67=ORIENTED_EDGE('',*,*,#168,.T.);
#68=ORIENTED_EDGE('',*,*,#169,.T.);
#69=ORIENTED_EDGE('',*,*,#170,.T.);
#70=ORIENTED_EDGE('',*,*,#171,.F.);
#71=ORIENTED_EDGE('',*,*,#172,.F.);
#72=ORIENTED_EDGE('',*,*,#134,.F.);
#73=ORIENTED_EDGE('',*,*,#141,.T.);
#74=ORIENTED_EDGE('',*,*,#161,.F.);
#75=ORIENTED_EDGE('',*,*,#173,.T.);
#76=ORIENTED_EDGE('',*,*,#166,.F.);
#77=ORIENTED_EDGE('',*,*,#140,.T.);
#78=ORIENTED_EDGE('',*,*,#174,.T.);
#79=ORIENTED_EDGE('',*,*,#142,.F.);
#80=ORIENTED_EDGE('',*,*,#146,.F.);
#81=ORIENTED_EDGE('',*,*,#148,.T.);
#82=ORIENTED_EDGE('',*,*,#150,.T.);
#83=ORIENTED_EDGE('',*,*,#154,.T.);
#84=ORIENTED_EDGE('',*,*,#175,.F.);
#85=ORIENTED_EDGE('',*,*,#155,.T.);
#86=ORIENTED_EDGE('',*,*,#162,.T.);
#87=ORIENTED_EDGE('',*,*,#135,.T.);
#88=ORIENTED_EDGE('',*,*,#172,.T.);
#89=ORIENTED_EDGE('',*,*,#176,.F.);
#90=ORIENTED_EDGE('',*,*,#168,.F.);
#91=ORIENTED_EDGE('',*,*,#177,.T.);
#92=ORIENTED_EDGE('',*,*,#159,.F.);
#93=ORIENTED_EDGE('',*,*,#178,.T.);
#94=ORIENTED_EDGE('',*,*,#179,.F.);
#95=ORIENTED_EDGE('',*,*,#163,.T.);
#96=ORIENTED_EDGE('',*,*,#176,.T.);
#97=ORIENTED_EDGE('',*,*,#171,.T.);
#98=ORIENTED_EDGE('',*,*,#164,.F.);
#99=ORIENTED_EDGE('',*,*,#179,.T.);
#100=ORIENTED_EDGE('',*,*,#170,.F.);
#101=ORIENTED_EDGE('',*,*,#180,.F.);
#102=ORIENTED_EDGE('',*,*,#165,.F.);
#103=ORIENTED_EDGE('',*,*,#180,.T.);
#104=ORIENTED_EDGE('',*,*,#169,.F.);
#105=ORIENTED_EDGE('',*,*,#178,.F.);
#106=ORIENTED_EDGE('',*,*,#132,.F.);
#107=ORIENTED_EDGE('',*,*,#144,.F.);
#108=ORIENTED_EDGE('',*,*,#181,.T.);
#109=ORIENTED_EDGE('',*,*,#138,.T.);
#110=ORIENTED_EDGE('',*,*,#126,.T.);
#111=ORIENTED_EDGE('',*,*,#157,.F.);
#112=ORIENTED_EDGE('',*,*,#182,.F.);
#113=ORIENTED_EDGE('',*,*,#152,.T.);
#114=ORIENTED_EDGE('',*,*,#160,.F.);
#115=ORIENTED_EDGE('',*,*,#177,.F.);
#116=ORIENTED_EDGE('',*,*,#167,.F.);
#117=ORIENTED_EDGE('',*,*,#173,.F.);
#118=ORIENTED_EDGE('',*,*,#156,.F.);
#119=ORIENTED_EDGE('',*,*,#175,.T.);
#120=ORIENTED_EDGE('',*,*,#153,.F.);
#121=ORIENTED_EDGE('',*,*,#182,.T.);
#122=ORIENTED_EDGE('',*,*,#139,.F.);
#123=ORIENTED_EDGE('',*,*,#181,.F.);
#124=ORIENTED_EDGE('',*,*,#143,.F.);
#125=ORIENTED_EDGE('',*,*,#174,.F.);
#126=EDGE_CURVE('',#183,#184,#221,.T.);
#127=EDGE_CURVE('',#185,#183,#222,.T.);
#128=EDGE_CURVE('',#186,#185,#223,.T.);
#129=EDGE_CURVE('',#187,#186,#224,.T.);
#130=EDGE_CURVE('',#187,#188,#225,.T.);
#131=EDGE_CURVE('',#188,#189,#226,.T.);
#132=EDGE_CURVE('',#189,#190,#227,.T.);
#133=EDGE_CURVE('',#191,#190,#228,.T.);
#134=EDGE_CURVE('',#191,#192,#229,.T.);
#135=EDGE_CURVE('',#193,#192,#230,.T.);
#136=EDGE_CURVE('',#193,#194,#231,.T.);
#137=EDGE_CURVE('',#184,#194,#232,.T.);
#138=EDGE_CURVE('',#195,#190,#233,.T.);
#139=EDGE_CURVE('',#195,#196,#234,.F.);
#140=EDGE_CURVE('',#197,#196,#235,.T.);
#141=EDGE_CURVE('',#191,#197,#236,.T.);
#142=EDGE_CURVE('',#198,#199,#237,.T.);
#143=EDGE_CURVE('',#199,#200,#238,.F.);
#144=EDGE_CURVE('',#200,#189,#239,.T.);
#145=EDGE_CURVE('',#188,#198,#240,.T.);
#146=EDGE_CURVE('',#201,#198,#241,.T.);
#147=EDGE_CURVE('',#187,#201,#242,.T.);
#148=EDGE_CURVE('',#201,#202,#243,.T.);
#149=EDGE_CURVE('',#186,#202,#244,.T.);
#150=EDGE_CURVE('',#202,#203,#245,.T.);
#151=EDGE_CURVE('',#185,#203,#246,.T.);
#152=EDGE_CURVE('',#204,#183,#247,.T.);
#153=EDGE_CURVE('',#204,#205,#248,.T.);
#154=EDGE_CURVE('',#203,#205,#249,.T.);
#155=EDGE_CURVE('',#206,#207,#250,.T.);
#156=EDGE_CURVE('',#206,#208,#251,.T.);
#157=EDGE_CURVE('',#208,#184,#252,.T.);
#158=EDGE_CURVE('',#194,#207,#253,.T.);
#159=EDGE_CURVE('',#209,#210,#254,.T.);
#160=EDGE_CURVE('',#210,#211,#255,.F.);
#161=EDGE_CURVE('',#211,#207,#256,.T.);
#162=EDGE_CURVE('',#212,#193,#257,.T.);
#163=EDGE_CURVE('',#213,#212,#258,.T.);
#164=EDGE_CURVE('',#213,#214,#259,.T.);
#165=EDGE_CURVE('',#214,#209,#260,.T.);
#166=EDGE_CURVE('',#197,#215,#261,.T.);
#167=EDGE_CURVE('',#215,#216,#262,.F.);
#168=EDGE_CURVE('',#216,#217,#263,.T.);
#169=EDGE_CURVE('',#217,#218,#264,.T.);
#170=EDGE_CURVE('',#218,#219,#265,.T.);
#171=EDGE_CURVE('',#220,#219,#266,.T.);
#172=EDGE_CURVE('',#192,#220,#267,.T.);
#173=EDGE_CURVE('',#211,#215,#268,.T.);
#174=EDGE_CURVE('',#196,#199,#269,.T.);
#175=EDGE_CURVE('',#206,#205,#270,.T.);
#176=EDGE_CURVE('',#212,#220,#271,.T.);
#177=EDGE_CURVE('',#216,#210,#272,.T.);
#178=EDGE_CURVE('',#209,#217,#273,.T.);
#179=EDGE_CURVE('',#213,#219,#274,.T.);
#180=EDGE_CURVE('',#214,#218,#275,.T.);
#181=EDGE_CURVE('',#200,#195,#276,.T.);
#182=EDGE_CURVE('',#204,#208,#277,.T.);
#183=VERTEX_POINT('',#557);
#184=VERTEX_POINT('',#558);
#185=VERTEX_POINT('',#560);
#186=VERTEX_POINT('',#562);
#187=VERTEX_POINT('',#564);
#188=VERTEX_POINT('',#566);
#189=VERTEX_POINT('',#568);
#190=VERTEX_POINT('',#570);
#191=VERTEX_POINT('',#572);
#192=VERTEX_POINT('',#574);
#193=VERTEX_POINT('',#576);
#194=VERTEX_POINT('',#578);
#195=VERTEX_POINT('',#582);
#196=VERTEX_POINT('',#584);
#197=VERTEX_POINT('',#586);
#198=VERTEX_POINT('',#590);
#199=VERTEX_POINT('',#591);
#200=VERTEX_POINT('',#593);
#201=VERTEX_POINT('',#598);
#202=VERTEX_POINT('',#602);
#203=VERTEX_POINT('',#606);
#204=VERTEX_POINT('',#610);
#205=VERTEX_POINT('',#612);
#206=VERTEX_POINT('',#616);
#207=VERTEX_POINT('',#617);
#208=VERTEX_POINT('',#619);
#209=VERTEX_POINT('',#624);
#210=VERTEX_POINT('',#625);
#211=VERTEX_POINT('',#627);
#212=VERTEX_POINT('',#630);
#213=VERTEX_POINT('',#632);
#214=VERTEX_POINT('',#634);
#215=VERTEX_POINT('',#638);
#216=VERTEX_POINT('',#640);
#217=VERTEX_POINT('',#642);
#218=VERTEX_POINT('',#644);
#219=VERTEX_POINT('',#646);
#220=VERTEX_POINT('',#648);
#221=LINE('',#556,#278);
#222=LINE('',#559,#279);
#223=LINE('',#561,#280);
#224=LINE('',#563,#281);
#225=LINE('',#565,#282);
#226=LINE('',#567,#283);
#227=LINE('',#569,#284);
#228=LINE('',#571,#285);
#229=LINE('',#573,#286);
#230=LINE('',#575,#287);
#231=LINE('',#577,#288);
#232=LINE('',#579,#289);
#233=LINE('',#581,#290);
#234=LINE('',#583,#291);
#235=LINE('',#585,#292);
#236=LINE('',#587,#293);
#237=LINE('',#589,#294);
#238=LINE('',#592,#295);
#239=LINE('',#594,#296);
#240=LINE('',#595,#297);
#241=LINE('',#597,#298);
#242=LINE('',#599,#299);
#243=LINE('',#601,#300);
#244=LINE('',#603,#301);
#245=LINE('',#605,#302);
#246=LINE('',#607,#303);
#247=LINE('',#609,#304);
#248=LINE('',#611,#305);
#249=LINE('',#613,#306);
#250=LINE('',#615,#307);
#251=LINE('',#618,#308);
#252=LINE('',#620,#309);
#253=LINE('',#621,#310);
#254=LINE('',#623,#311);
#255=LINE('',#626,#312);
#256=LINE('',#628,#313);
#257=LINE('',#629,#314);
#258=LINE('',#631,#315);
#259=LINE('',#633,#316);
#260=LINE('',#635,#317);
#261=LINE('',#637,#318);
#262=LINE('',#639,#319);
#263=LINE('',#641,#320);
#264=LINE('',#643,#321);
#265=LINE('',#645,#322);
#266=LINE('',#647,#323);
#267=LINE('',#649,#324);
#268=LINE('',#651,#325);
#269=LINE('',#652,#326);
#270=LINE('',#653,#327);
#271=LINE('',#655,#328);
#272=LINE('',#657,#329);
#273=LINE('',#658,#330);
#274=LINE('',#660,#331);
#275=LINE('',#662,#332);
#276=LINE('',#665,#333);
#277=LINE('',#667,#334);
#278=VECTOR('',#457,1.);
#279=VECTOR('',#458,1.);
#280=VECTOR('',#459,1.);
#281=VECTOR('',#460,1.);
#282=VECTOR('',#461,1.);
#283=VECTOR('',#462,1.);
#284=VECTOR('',#463,1.);
#285=VECTOR('',#464,1.);
#286=VECTOR('',#465,1.);
#287=VECTOR('',#466,1.);
#288=VECTOR('',#467,1.);
#289=VECTOR('',#468,1.);
#290=VECTOR('',#471,1.);
#291=VECTOR('',#472,1.);
#292=VECTOR('',#473,1.);
#293=VECTOR('',#474,1.);
#294=VECTOR('',#477,1.);
#295=VECTOR('',#478,1.);
#296=VECTOR('',#479,1.);
#297=VECTOR('',#480,1.);
#298=VECTOR('',#483,1.);
#299=VECTOR('',#484,1.);
#300=VECTOR('',#487,1.);
#301=VECTOR('',#488,1.);
#302=VECTOR('',#491,1.);
#303=VECTOR('',#492,1.);
#304=VECTOR('',#495,1.);
#305=VECTOR('',#496,1.);
#306=VECTOR('',#497,1.);
#307=VECTOR('',#500,1.);
#308=VECTOR('',#501,1.);
#309=VECTOR('',#502,1.);
#310=VECTOR('',#503,1.);
#311=VECTOR('',#506,1.);
#312=VECTOR('',#507,1.);
#313=VECTOR('',#508,1.);
#314=VECTOR('',#509,1.);
#315=VECTOR('',#510,1.);
#316=VECTOR('',#511,1.);
#317=VECTOR('',#512,1.);
#318=VECTOR('',#515,1.);
#319=VECTOR('',#516,1.);
#320=VECTOR('',#517,1.);
#321=VECTOR('',#518,1.);
#322=VECTOR('',#519,1.);
#323=VECTOR('',#520,1.);
#324=VECTOR('',#521,1.);
#325=VECTOR('',#524,1.);
#326=VECTOR('',#525,1.);
#327=VECTOR('',#526,1.);
#328=VECTOR('',#529,1.);
#329=VECTOR('',#532,1.);
#330=VECTOR('',#533,1.);
#331=VECTOR('',#536,1.);
#332=VECTOR('',#539,1.);
#333=VECTOR('',#544,1.);
#334=VECTOR('',#547,1.);
#335=EDGE_LOOP('',(#12,#13,#14,#15,#16,#17,#18,#19,#20,#21,#22,#23));
#336=EDGE_LOOP('',(#24,#25,#26,#27,#28));
#337=EDGE_LOOP('',(#29,#30,#31,#32,#33));
#338=EDGE_LOOP('',(#34,#35,#36,#37));
#339=EDGE_LOOP('',(#38,#39,#40,#41));
#340=EDGE_LOOP('',(#42,#43,#44,#45));
#341=EDGE_LOOP('',(#46,#47,#48,#49,#50));
#342=EDGE_LOOP('',(#51,#52,#53,#54,#55));
#343=EDGE_LOOP('',(#56,#57,#58,#59,#60,#61,#62,#63,#64));
#344=EDGE_LOOP('',(#65,#66,#67,#68,#69,#70,#71,#72,#73));
#345=EDGE_LOOP('',(#74,#75,#76,#77,#78,#79,#80,#81,#82,#83,#84,#85));
#346=EDGE_LOOP('',(#86,#87,#88,#89));
#347=EDGE_LOOP('',(#90,#91,#92,#93));
#348=EDGE_LOOP('',(#94,#95,#96,#97));
#349=EDGE_LOOP('',(#98,#99,#100,#101));
#350=EDGE_LOOP('',(#102,#103,#104,#105));
#351=EDGE_LOOP('',(#106,#107,#108,#109));
#352=EDGE_LOOP('',(#110,#111,#112,#113));
#353=EDGE_LOOP('',(#114,#115,#116,#117));
#354=EDGE_LOOP('',(#118,#119,#120,#121));
#355=EDGE_LOOP('',(#122,#123,#124,#125));
#356=FACE_BOUND('',#335,.T.);
#357=FACE_BOUND('',#336,.T.);
#358=FACE_BOUND('',#337,.T.);
#359=FACE_BOUND('',#338,.T.);
#360=FACE_BOUND('',#339,.T.);
#361=FACE_BOUND('',#340,.T.);
#362=FACE_BOUND('',#341,.T.);
#363=FACE_BOUND('',#342,.T.);
#364=FACE_BOUND('',#343,.T.);
#365=FACE_BOUND('',#344,.T.);
#366=FACE_BOUND('',#345,.T.);
#367=FACE_BOUND('',#346,.T.);
#368=FACE_BOUND('',#347,.T.);
#369=FACE_BOUND('',#348,.T.);
#370=FACE_BOUND('',#349,.T.);
#371=FACE_BOUND('',#350,.T.);
#372=FACE_BOUND('',#351,.T.);
#373=FACE_BOUND('',#352,.T.);
#374=FACE_BOUND('',#353,.T.);
#375=FACE_BOUND('',#354,.T.);
#376=FACE_BOUND('',#355,.T.);
#377=PLANE('',#432);
#378=PLANE('',#433);
#379=PLANE('',#434);
#380=PLANE('',#435);
#381=PLANE('',#436);
#382=PLANE('',#437);
#383=PLANE('',#438);
#384=PLANE('',#439);
#385=PLANE('',#440);
#386=PLANE('',#441);
#387=PLANE('',#442);
#388=PLANE('',#443);
#389=PLANE('',#444);
#390=PLANE('',#445);
#391=PLANE('',#446);
#392=PLANE('',#447);
#393=PLANE('',#448);
#394=PLANE('',#449);
#395=PLANE('',#450);
#396=PLANE('',#451);
#397=PLANE('',#452);
#398=ADVANCED_FACE('',(#356),#377,.F.);
#399=ADVANCED_FACE('',(#357),#378,.T.);
#400=ADVANCED_FACE('',(#358),#379,.F.);
#401=ADVANCED_FACE('',(#359),#380,.F.);
#402=ADVANCED_FACE('',(#360),#381,.T.);
#403=ADVANCED_FACE('',(#361),#382,.T.);
#404=ADVANCED_FACE('',(#362),#383,.T.);
#405=ADVANCED_FACE('',(#363),#384,.T.);
#406=ADVANCED_FACE('',(#364),#385,.F.);
#407=ADVANCED_FACE('',(#365),#386,.F.);
#408=ADVANCED_FACE('',(#366),#387,.T.);
#409=ADVANCED_FACE('',(#367),#388,.F.);
#410=ADVANCED_FACE('',(#368),#389,.T.);
#411=ADVANCED_FACE('',(#369),#390,.F.);
#412=ADVANCED_FACE('',(#370),#391,.T.);
#413=ADVANCED_FACE('',(#371),#392,.T.);
#414=ADVANCED_FACE('',(#372),#393,.T.);
#415=ADVANCED_FACE('',(#373),#394,.F.);
#416=ADVANCED_FACE('',(#374),#395,.F.);
#417=ADVANCED_FACE('',(#375),#396,.T.);
#418=ADVANCED_FACE('',(#376),#397,.F.);
#419=CLOSED_SHELL('',(#398,#399,#400,#401,#402,#403,#404,#405,#406,#407,
#408,#409,#410,#411,#412,#413,#414,#415,#416,#417,#418));
#420=STYLED_ITEM('',(#421),#428);
#421=PRESENTATION_STYLE_ASSIGNMENT((#422));
#422=SURFACE_STYLE_USAGE(.BOTH.,#423);
#423=SURFACE_SIDE_STYLE('',(#424));
#424=SURFACE_STYLE_FILL_AREA(#425);
#425=FILL_AREA_STYLE('',(#426));
#426=FILL_AREA_STYLE_COLOUR('',#427);
#427=COLOUR_RGB('',0.615686274509804,0.811764705882353,0.929411764705882);
#428=MANIFOLD_SOLID_BREP('Cover',#419);
#429=SHAPE_DEFINITION_REPRESENTATION(#677,#430);
#430=SHAPE_REPRESENTATION('Cover',(#431),#672);
#431=AXIS2_PLACEMENT_3D('',#554,#453,#454);
#432=AXIS2_PLACEMENT_3D('',#555,#455,#456);
#433=AXIS2_PLACEMENT_3D('',#580,#469,#470);
#434=AXIS2_PLACEMENT_3D('',#588,#475,#476);
#435=AXIS2_PLACEMENT_3D('',#596,#481,#482);
#436=AXIS2_PLACEMENT_3D('',#600,#485,#486);
#437=AXIS2_PLACEMENT_3D('',#604,#489,#490);
#438=AXIS2_PLACEMENT_3D('',#608,#493,#494);
#439=AXIS2_PLACEMENT_3D('',#614,#498,#499);
#440=AXIS2_PLACEMENT_3D('',#622,#504,#505);
#441=AXIS2_PLACEMENT_3D('',#636,#513,#514);
#442=AXIS2_PLACEMENT_3D('',#650,#522,#523);
#443=AXIS2_PLACEMENT_3D('',#654,#527,#528);
#444=AXIS2_PLACEMENT_3D('',#656,#530,#531);
#445=AXIS2_PLACEMENT_3D('',#659,#534,#535);
#446=AXIS2_PLACEMENT_3D('',#661,#537,#538);
#447=AXIS2_PLACEMENT_3D('',#663,#540,#541);
#448=AXIS2_PLACEMENT_3D('',#664,#542,#543);
#449=AXIS2_PLACEMENT_3D('',#666,#545,#546);
#450=AXIS2_PLACEMENT_3D('',#668,#548,#549);
#451=AXIS2_PLACEMENT_3D('',#669,#550,#551);
#452=AXIS2_PLACEMENT_3D('',#670,#552,#553);
#453=DIRECTION('',(0.,0.,1.));
#454=DIRECTION('',(1.,0.,0.));
#455=DIRECTION('',(2.18547839493141E-16,-1.61909010668203E-32,1.));
#456=DIRECTION('',(1.,3.53848644760076E-48,-2.18547839493141E-16));
#457=DIRECTION('',(-1.,-3.53848644760076E-48,2.18547839493141E-16));
#458=DIRECTION('',(3.53848644760076E-48,1.,1.61909010668203E-32));
#459=DIRECTION('',(-1.,2.89512527530971E-48,2.18547839493141E-16));
#460=DIRECTION('',(3.53848644760076E-48,1.,1.61909010668203E-32));
#461=DIRECTION('',(-1.,2.89512527530971E-48,2.18547839493141E-16));
#462=DIRECTION('',(-3.53848644760076E-48,-1.,-1.61909010668203E-32));
#463=DIRECTION('',(-1.,-3.53848644760076E-48,2.18547839493141E-16));
#464=DIRECTION('',(-7.40840133875054E-17,-1.,6.84227765783602E-49));
#465=DIRECTION('',(-1.,7.40840133875054E-17,2.18547839493141E-16));
#466=DIRECTION('',(-7.40840133875054E-17,-1.,2.4479676742159E-48));
#467=DIRECTION('',(1.,-2.89512527530971E-48,-2.18547839493141E-16));
#468=DIRECTION('',(-3.53848644760076E-48,-1.,-1.61909010668203E-32));
#469=DIRECTION('',(-1.,7.40840133875054E-17,2.18547839493141E-16));
#470=DIRECTION('',(2.18547839493141E-16,0.,1.));
#471=DIRECTION('',(2.18547839493141E-16,-1.61909010668203E-32,1.));
#472=DIRECTION('',(-1.46063748667601E-16,0.52999894000318,-0.847998304005089));
#473=DIRECTION('',(-7.40840133875054E-17,-1.,6.84227765783602E-49));
#474=DIRECTION('',(2.18547839493141E-16,-1.61909010668203E-32,1.));
#475=DIRECTION('',(-1.,-6.23068749721772E-64,2.18547839493141E-16));
#476=DIRECTION('',(2.18547839493141E-16,0.,1.));
#477=DIRECTION('',(-3.53848644760076E-48,-1.,-1.61909010668203E-32));
#478=DIRECTION('',(1.8532819723416E-16,-0.52999894000318,0.847998304005088));
#479=DIRECTION('',(2.18547839493141E-16,-1.61909010668203E-32,1.));
#480=DIRECTION('',(2.18547839493141E-16,-1.61909010668203E-32,1.));
#481=DIRECTION('',(6.43361172291047E-48,1.,1.61909010668203E-32));
#482=DIRECTION('',(0.,-1.61909010668203E-32,1.));
#483=DIRECTION('',(-1.,2.89512527530971E-48,2.18547839493141E-16));
#484=DIRECTION('',(2.18547839493141E-16,-1.61909010668203E-32,1.));
#485=DIRECTION('',(1.,6.23068749721772E-64,-2.18547839493141E-16));
#486=DIRECTION('',(-2.18547839493141E-16,0.,-1.));
#487=DIRECTION('',(3.53848644760076E-48,1.,1.61909010668203E-32));
#488=DIRECTION('',(2.18547839493141E-16,-1.61909010668203E-32,1.));
#489=DIRECTION('',(6.43361172291047E-48,1.,1.61909010668203E-32));
#490=DIRECTION('',(0.,-1.61909010668203E-32,1.));
#491=DIRECTION('',(-1.,2.89512527530971E-48,2.18547839493141E-16));
#492=DIRECTION('',(2.18547839493141E-16,-1.61909010668203E-32,1.));
#493=DIRECTION('',(1.,6.23068749721772E-64,-2.18547839493141E-16));
#494=DIRECTION('',(-2.18547839493141E-16,0.,-1.));
#495=DIRECTION('',(2.18547839493141E-16,-1.61909010668203E-32,1.));
#496=DIRECTION('',(1.8532819723416E-16,0.52999894000318,0.847998304005088));
#497=DIRECTION('',(3.53848644760076E-48,1.,1.61909010668203E-32));
#498=DIRECTION('',(-1.,-6.23068749721772E-64,2.18547839493141E-16));
#499=DIRECTION('',(2.18547839493141E-16,0.,1.));
#500=DIRECTION('',(-3.53848644760076E-48,-1.,-1.61909010668203E-32));
#501=DIRECTION('',(-1.8532819723416E-16,-0.52999894000318,-0.847998304005088));
#502=DIRECTION('',(2.18547839493141E-16,-1.61909010668203E-32,1.));
#503=DIRECTION('',(2.18547839493141E-16,-1.61909010668203E-32,1.));
#504=DIRECTION('',(-6.43361172291046E-48,-1.,-1.61909010668203E-32));
#505=DIRECTION('',(0.,1.61909010668203E-32,-1.));
#506=DIRECTION('',(-1.19948693139009E-48,-1.61909010668203E-32,1.));
#507=DIRECTION('',(-0.707106781186548,1.14486959378691E-32,-0.707106781186548));
#508=DIRECTION('',(1.,-2.89512527530971E-48,-2.18547839493141E-16));
#509=DIRECTION('',(0.447213595499958,-1.44815821609536E-32,0.894427190999916));
#510=DIRECTION('',(1.,-8.41642523958975E-48,1.22464679914735E-16));
#511=DIRECTION('',(0.447213595499958,-1.44815821609536E-32,0.894427190999916));
#512=DIRECTION('',(-1.,6.43361172291046E-48,-4.40205577508622E-96));
#513=DIRECTION('',(7.40840133875054E-17,1.,-2.80605218907317E-48));
#514=DIRECTION('',(-1.,7.40840133875054E-17,0.));
#515=DIRECTION('',(-1.,7.40840133875054E-17,2.18547839493141E-16));
#516=DIRECTION('',(0.707106781186548,-5.23853082438201E-17,0.707106781186548));
#517=DIRECTION('',(-5.06903389604153E-65,-6.84227765783602E-49,-1.));
#518=DIRECTION('',(1.,-7.40840133875054E-17,5.06903389604153E-65));
#519=DIRECTION('',(-0.447213595499958,3.31313779960933E-17,-0.894427190999916));
#520=DIRECTION('',(-1.,7.40840133875054E-17,-1.22464679914735E-16));
#521=DIRECTION('',(-0.447213595499958,3.31313779960933E-17,-0.894427190999916));
#522=DIRECTION('',(2.18547839493141E-16,-1.61909010668203E-32,1.));
#523=DIRECTION('',(1.,3.53848644760076E-48,-2.18547839493141E-16));
#524=DIRECTION('',(-7.40840133875054E-17,-1.,-2.73691106313441E-48));
#525=DIRECTION('',(1.,3.53848644760076E-48,-2.18547839493141E-16));
#526=DIRECTION('',(1.,3.53848644760076E-48,-2.18547839493141E-16));
#527=DIRECTION('',(-0.894427190999916,6.62627559921866E-17,0.447213595499958));
#528=DIRECTION('',(0.447213595499958,0.,0.894427190999916));
#529=DIRECTION('',(-7.40840133875054E-17,-1.,6.84227765783602E-49));
#530=DIRECTION('',(-1.,7.40840133875054E-17,0.));
#531=DIRECTION('',(-7.40840133875054E-17,-1.,0.));
#532=DIRECTION('',(7.40840133875054E-17,1.,2.73691106313441E-48));
#533=DIRECTION('',(-7.40840133875054E-17,-1.,6.84227765783602E-49));
#534=DIRECTION('',(-1.22464679914735E-16,9.07267498629981E-33,1.));
#535=DIRECTION('',(1.,0.,1.22464679914735E-16));
#536=DIRECTION('',(-7.40840133875054E-17,-1.,6.84227765783602E-49));
#537=DIRECTION('',(-0.894427190999916,6.62627559921866E-17,0.447213595499958));
#538=DIRECTION('',(0.447213595499958,0.,0.894427190999916));
#539=DIRECTION('',(-7.40840133875054E-17,-1.,6.84227765783602E-49));
#540=DIRECTION('',(0.,-6.84227765783602E-49,-1.));
#541=DIRECTION('',(0.,1.,-6.84227765783602E-49));
#542=DIRECTION('',(0.,1.,1.61909010668203E-32));
#543=DIRECTION('',(0.,-1.61909010668203E-32,1.));
#544=DIRECTION('',(-1.,-3.53848644760076E-48,2.18547839493141E-16));
#545=DIRECTION('',(0.,1.,1.61909010668203E-32));
#546=DIRECTION('',(0.,-1.61909010668203E-32,1.));
#547=DIRECTION('',(-1.,-3.53848644760076E-48,2.18547839493141E-16));
#548=DIRECTION('',(0.707106781186547,-5.238530824382E-17,-0.707106781186548));
#549=DIRECTION('',(-7.40840133875054E-17,-1.,-2.73691106313441E-48));
#550=DIRECTION('',(-1.1583012327135E-16,0.847998304005088,-0.52999894000318));
#551=DIRECTION('',(-1.,-3.53848644760076E-48,2.18547839493141E-16));
#552=DIRECTION('',(1.1583012327135E-16,0.847998304005088,0.52999894000318));
#553=DIRECTION('',(1.,3.53848644760076E-48,-2.18547839493141E-16));
#554=CARTESIAN_POINT('',(0.,0.,0.));
#555=CARTESIAN_POINT('',(-0.127,-5.55111512312578E-17,0.04064));
#556=CARTESIAN_POINT('',(-0.127,0.19685,0.04064));
#557=CARTESIAN_POINT('',(-0.123825,0.19685,0.04064));
#558=CARTESIAN_POINT('',(-0.130175,0.19685,0.04064));
#559=CARTESIAN_POINT('',(-0.123825,0.193675,0.04064));
#560=CARTESIAN_POINT('',(-0.123825,0.1905,0.04064));
#561=CARTESIAN_POINT('',(-0.1063625,0.1905,0.04064));
#562=CARTESIAN_POINT('',(-0.0889,0.1905,0.04064));
#563=CARTESIAN_POINT('',(-0.0889,-6.93889390390723E-17,0.04064));
#564=CARTESIAN_POINT('',(-0.0889,-0.1905,0.04064));
#565=CARTESIAN_POINT('',(-0.1063625,-0.1905,0.04064));
#566=CARTESIAN_POINT('',(-0.123825,-0.1905,0.04064));
#567=CARTESIAN_POINT('',(-0.123825,-0.193675,0.04064));
#568=CARTESIAN_POINT('',(-0.123825,-0.19685,0.04064));
#569=CARTESIAN_POINT('',(-0.127,-0.19685,0.04064));
#570=CARTESIAN_POINT('',(-0.130175,-0.19685,0.04064));
#571=CARTESIAN_POINT('',(-0.130175,-0.1905,0.04064));
#572=CARTESIAN_POINT('',(-0.130175,-0.1905,0.04064));
#573=CARTESIAN_POINT('',(-0.1476375,-0.1905,0.04064));
#574=CARTESIAN_POINT('',(-0.163195,-0.1905,0.04064));
#575=CARTESIAN_POINT('',(-0.163195,-5.28296803666971E-17,0.04064));
#576=CARTESIAN_POINT('',(-0.163195,0.1905,0.04064));
#577=CARTESIAN_POINT('',(-0.1476375,0.1905,0.04064));
#578=CARTESIAN_POINT('',(-0.130175,0.1905,0.04064));
#579=CARTESIAN_POINT('',(-0.130175,0.193675,0.04064));
#580=CARTESIAN_POINT('',(-0.130175,-0.1905,0.04064));
#581=CARTESIAN_POINT('',(-0.130175,-0.19685,0.03429));
#582=CARTESIAN_POINT('',(-0.130175,-0.19685,0.03429));
#583=CARTESIAN_POINT('',(-0.130175,-0.197920224719101,0.0360023595505619));
#584=CARTESIAN_POINT('',(-0.130175,-0.2032,0.04445));
#585=CARTESIAN_POINT('',(-0.130175,-0.1905,0.04445));
#586=CARTESIAN_POINT('',(-0.130175,-0.1905,0.04445));
#587=CARTESIAN_POINT('',(-0.130175,-0.1905,0.04064));
#588=CARTESIAN_POINT('',(-0.123825,-0.193675,0.04064));
#589=CARTESIAN_POINT('',(-0.123825,-0.193675,0.04445));
#590=CARTESIAN_POINT('',(-0.123825,-0.1905,0.04445));
#591=CARTESIAN_POINT('',(-0.123825,-0.2032,0.04445));
#592=CARTESIAN_POINT('',(-0.123825,-0.2032,0.04445));
#593=CARTESIAN_POINT('',(-0.123825,-0.19685,0.03429));
#594=CARTESIAN_POINT('',(-0.123825,-0.19685,0.03429));
#595=CARTESIAN_POINT('',(-0.123825,-0.1905,0.04064));
#596=CARTESIAN_POINT('',(-0.1063625,-0.1905,0.04064));
#597=CARTESIAN_POINT('',(-0.1063625,-0.1905,0.04445));
#598=CARTESIAN_POINT('',(-0.0889,-0.1905,0.04445));
#599=CARTESIAN_POINT('',(-0.0889,-0.1905,0.04064));
#600=CARTESIAN_POINT('',(-0.0889,-6.93889390390723E-17,0.04064));
#601=CARTESIAN_POINT('',(-0.0889,-6.93889390390723E-17,0.04445));
#602=CARTESIAN_POINT('',(-0.0889,0.1905,0.04445));
#603=CARTESIAN_POINT('',(-0.0889,0.1905,0.04064));
#604=CARTESIAN_POINT('',(-0.1063625,0.1905,0.04064));
#605=CARTESIAN_POINT('',(-0.1063625,0.1905,0.04445));
#606=CARTESIAN_POINT('',(-0.123825,0.1905,0.04445));
#607=CARTESIAN_POINT('',(-0.123825,0.1905,0.04064));
#608=CARTESIAN_POINT('',(-0.123825,0.193675,0.04064));
#609=CARTESIAN_POINT('',(-0.123825,0.19685,0.03429));
#610=CARTESIAN_POINT('',(-0.123825,0.19685,0.03429));
#611=CARTESIAN_POINT('',(-0.123825,0.198812078651685,0.0374293258426967));
#612=CARTESIAN_POINT('',(-0.123825,0.2032,0.04445));
#613=CARTESIAN_POINT('',(-0.123825,0.193675,0.04445));
#614=CARTESIAN_POINT('',(-0.130175,0.193675,0.04064));
#615=CARTESIAN_POINT('',(-0.130175,0.193675,0.04445));
#616=CARTESIAN_POINT('',(-0.130175,0.2032,0.04445));
#617=CARTESIAN_POINT('',(-0.130175,0.1905,0.04445));
#618=CARTESIAN_POINT('',(-0.130175,0.198812078651685,0.0374293258426967));
#619=CARTESIAN_POINT('',(-0.130175,0.19685,0.03429));
#620=CARTESIAN_POINT('',(-0.130175,0.19685,0.03429));
#621=CARTESIAN_POINT('',(-0.130175,0.1905,0.04064));
#622=CARTESIAN_POINT('',(-0.1476375,0.1905,0.04064));
#623=CARTESIAN_POINT('',(-0.16891,0.1905,0.04318));
#624=CARTESIAN_POINT('',(-0.16891,0.1905,0.04191));
#625=CARTESIAN_POINT('',(-0.16891,0.1905,0.04318));
#626=CARTESIAN_POINT('',(-0.16764,0.1905,0.04445));
#627=CARTESIAN_POINT('',(-0.16764,0.1905,0.04445));
#628=CARTESIAN_POINT('',(-0.1476375,0.1905,0.04445));
#629=CARTESIAN_POINT('',(-0.1724025,0.1905,0.022225));
#630=CARTESIAN_POINT('',(-0.183515,0.1905,2.25815285979403E-32));
#631=CARTESIAN_POINT('',(-0.18542,0.1905,-2.33295215237548E-19));
#632=CARTESIAN_POINT('',(-0.187325,0.1905,-2.33295215237559E-19));
#633=CARTESIAN_POINT('',(-0.1778,0.1905,0.01905));
#634=CARTESIAN_POINT('',(-0.16637,0.1905,0.04191));
#635=CARTESIAN_POINT('',(-0.16764,0.1905,0.04191));
#636=CARTESIAN_POINT('',(-0.1476375,-0.1905,0.04064));
#637=CARTESIAN_POINT('',(-0.1476375,-0.1905,0.04445));
#638=CARTESIAN_POINT('',(-0.16764,-0.1905,0.04445));
#639=CARTESIAN_POINT('',(-0.16764,-0.1905,0.04445));
#640=CARTESIAN_POINT('',(-0.16891,-0.1905,0.04318));
#641=CARTESIAN_POINT('',(-0.16891,-0.1905,0.04318));
#642=CARTESIAN_POINT('',(-0.16891,-0.1905,0.04191));
#643=CARTESIAN_POINT('',(-0.16764,-0.1905,0.04191));
#644=CARTESIAN_POINT('',(-0.16637,-0.1905,0.04191));
#645=CARTESIAN_POINT('',(-0.1778,-0.1905,0.01905));
#646=CARTESIAN_POINT('',(-0.187325,-0.1905,-2.33295215237559E-19));
#647=CARTESIAN_POINT('',(-0.18542,-0.1905,-2.33295215237548E-19));
#648=CARTESIAN_POINT('',(-0.183515,-0.1905,2.25815285979403E-32));
#649=CARTESIAN_POINT('',(-0.1724025,-0.1905,0.022225));
#650=CARTESIAN_POINT('',(-0.127,-5.55111512312578E-17,0.04445));
#651=CARTESIAN_POINT('',(-0.16764,-5.25003769271896E-17,0.04445));
#652=CARTESIAN_POINT('',(-0.127,-0.2032,0.04445));
#653=CARTESIAN_POINT('',(-0.127,0.2032,0.04445));
#654=CARTESIAN_POINT('',(-0.1724025,0.190502,0.022225));
#655=CARTESIAN_POINT('',(-0.183515,0.190502,2.25815285979403E-32));
#656=CARTESIAN_POINT('',(-0.16891,0.190502,0.04318));
#657=CARTESIAN_POINT('',(-0.16891,0.190502,0.04318));
#658=CARTESIAN_POINT('',(-0.16891,0.190502,0.04191));
#659=CARTESIAN_POINT('',(-0.18542,0.190502,-2.33295215237548E-19));
#660=CARTESIAN_POINT('',(-0.187325,0.190502,-2.33295215237559E-19));
#661=CARTESIAN_POINT('',(-0.1778,0.190502,0.01905));
#662=CARTESIAN_POINT('',(-0.16637,0.190502,0.04191));
#663=CARTESIAN_POINT('',(-0.16764,0.190502,0.04191));
#664=CARTESIAN_POINT('',(-0.127,-0.19685,0.03429));
#665=CARTESIAN_POINT('',(-0.127,-0.19685,0.03429));
#666=CARTESIAN_POINT('',(-0.127,0.19685,0.03429));
#667=CARTESIAN_POINT('',(-0.127,0.19685,0.03429));
#668=CARTESIAN_POINT('',(-0.16764,-5.25003769271896E-17,0.04445));
#669=CARTESIAN_POINT('',(-0.1260475,0.19685,0.03429));
#670=CARTESIAN_POINT('',(-0.127,-0.2032,0.04445));
#671=MECHANICAL_DESIGN_GEOMETRIC_PRESENTATION_REPRESENTATION('',(#420),
#672);
#672=(
GEOMETRIC_REPRESENTATION_CONTEXT(3)
GLOBAL_UNCERTAINTY_ASSIGNED_CONTEXT((#673))
GLOBAL_UNIT_ASSIGNED_CONTEXT((#676,#675,#674))
REPRESENTATION_CONTEXT('Cover','TOP_LEVEL_ASSEMBLY_PART')
);
#673=UNCERTAINTY_MEASURE_WITH_UNIT(LENGTH_MEASURE(1.E-8),#676,
'DISTANCE_ACCURACY_VALUE','Maximum Tolerance applied to model');
#674=(
NAMED_UNIT(*)
SI_UNIT($,.STERADIAN.)
SOLID_ANGLE_UNIT()
);
#675=(
NAMED_UNIT(*)
PLANE_ANGLE_UNIT()
SI_UNIT($,.RADIAN.)
);
#676=(
LENGTH_UNIT()
NAMED_UNIT(*)
SI_UNIT($,.METRE.)
);
#677=PRODUCT_DEFINITION_SHAPE('','',#678);
#678=PRODUCT_DEFINITION('','',#680,#679);
#679=PRODUCT_DEFINITION_CONTEXT('',#686,'design');
#680=PRODUCT_DEFINITION_FORMATION_WITH_SPECIFIED_SOURCE('','',#682,
 .NOT_KNOWN.);
#681=PRODUCT_RELATED_PRODUCT_CATEGORY('','',(#682));
#682=PRODUCT('Cover','Cover','Cover',(#684));
#683=PRODUCT_CATEGORY('','');
#684=PRODUCT_CONTEXT('',#686,'mechanical');
#685=APPLICATION_PROTOCOL_DEFINITION('international standard',
'ap242_managed_model_based_3d_engineering',2020,#686);
#686=APPLICATION_CONTEXT('managed model based 3d engineering');
ENDSEC;
END-ISO-10303-21;
