ISO-10303-21;
HEADER;
/* Generated by software containing ST-Developer
 * from STEP Tools, Inc. (www.steptools.com) 
 */
/* OPTION: using custom renumber hook */

FILE_DESCRIPTION(
/* description */ ('STEP AP242 Edition 2',
'CAx-IF Rec.Pracs.---Representation and Presentation of Product Manufa
cturing Information (PMI)---4.0---2014-10-13',
'CAx-IF Rec.Pracs.---3D Tessellated Geometry---0.4---2014-09-14','2;1',
'CAx-IF Rec.Pracs.---User Defined Attributes---1.5---2016-08-15'),
/* implementation_level */ '2;1');

FILE_NAME(
/* name */ 'Extender',
/* time_stamp */ '2026-08-06T20:23:47Z',
/* author */ (''),
/* organization */ (''),
/* preprocessor_version */ 'ST-DEVELOPER v20',
/* originating_system */ 'ONSHAPE BY PTC INC, 1.218',
/* authorisation */ '  ');

FILE_SCHEMA (('AP242_MANAGED_MODEL_BASED_3D_ENGINEERING_MIM_LF { 1 0 10303 442 3 1 4 }'));
ENDSEC;

DATA;
#10=SHAPE_REPRESENTATION_RELATIONSHIP('','',#951,#11);
#11=ADVANCED_BREP_SHAPE_REPRESENTATION('',(#949),#1609);
#12=PLANE('',#956);
#13=PLANE('',#960);
#14=PLANE('',#964);
#15=PLANE('',#968);
#16=PLANE('',#969);
#17=PLANE('',#1008);
#18=LINE('',#1372,#34);
#19=LINE('',#1376,#35);
#20=LINE('',#1378,#36);
#21=LINE('',#1380,#37);
#22=LINE('',#1382,#38);
#23=LINE('',#1386,#39);
#24=LINE('',#1390,#40);
#25=LINE('',#1392,#41);
#26=LINE('',#1394,#42);
#27=LINE('',#1398,#43);
#28=LINE('',#1402,#44);
#29=LINE('',#1404,#45);
#30=LINE('',#1406,#46);
#31=LINE('',#1410,#47);
#32=LINE('',#1414,#48);
#33=LINE('',#1415,#49);
#34=VECTOR('',#1091,1.);
#35=VECTOR('',#1094,1.);
#36=VECTOR('',#1097,1.);
#37=VECTOR('',#1098,1.);
#38=VECTOR('',#1099,1.);
#39=VECTOR('',#1104,1.);
#40=VECTOR('',#1109,1.);
#41=VECTOR('',#1110,1.);
#42=VECTOR('',#1111,1.);
#43=VECTOR('',#1116,1.);
#44=VECTOR('',#1121,1.);
#45=VECTOR('',#1122,1.);
#46=VECTOR('',#1123,1.);
#47=VECTOR('',#1128,1.);
#48=VECTOR('',#1133,1.);
#49=VECTOR('',#1134,1.);
#50=ORIENTED_EDGE('',*,*,#250,.T.);
#51=ORIENTED_EDGE('',*,*,#251,.F.);
#52=ORIENTED_EDGE('',*,*,#252,.F.);
#53=ORIENTED_EDGE('',*,*,#253,.T.);
#54=ORIENTED_EDGE('',*,*,#254,.T.);
#55=ORIENTED_EDGE('',*,*,#255,.F.);
#56=ORIENTED_EDGE('',*,*,#256,.F.);
#57=ORIENTED_EDGE('',*,*,#251,.T.);
#58=ORIENTED_EDGE('',*,*,#257,.T.);
#59=ORIENTED_EDGE('',*,*,#258,.F.);
#60=ORIENTED_EDGE('',*,*,#259,.F.);
#61=ORIENTED_EDGE('',*,*,#255,.T.);
#62=ORIENTED_EDGE('',*,*,#260,.T.);
#63=ORIENTED_EDGE('',*,*,#261,.F.);
#64=ORIENTED_EDGE('',*,*,#262,.F.);
#65=ORIENTED_EDGE('',*,*,#258,.T.);
#66=ORIENTED_EDGE('',*,*,#263,.T.);
#67=ORIENTED_EDGE('',*,*,#264,.F.);
#68=ORIENTED_EDGE('',*,*,#265,.F.);
#69=ORIENTED_EDGE('',*,*,#261,.T.);
#70=ORIENTED_EDGE('',*,*,#266,.F.);
#71=ORIENTED_EDGE('',*,*,#267,.F.);
#72=ORIENTED_EDGE('',*,*,#268,.T.);
#73=ORIENTED_EDGE('',*,*,#264,.T.);
#74=ORIENTED_EDGE('',*,*,#269,.T.);
#75=ORIENTED_EDGE('',*,*,#270,.F.);
#76=ORIENTED_EDGE('',*,*,#271,.F.);
#77=ORIENTED_EDGE('',*,*,#267,.T.);
#78=ORIENTED_EDGE('',*,*,#272,.F.);
#79=ORIENTED_EDGE('',*,*,#253,.F.);
#80=ORIENTED_EDGE('',*,*,#273,.T.);
#81=ORIENTED_EDGE('',*,*,#270,.T.);
#82=ORIENTED_EDGE('',*,*,#274,.F.);
#83=ORIENTED_EDGE('',*,*,#275,.F.);
#84=ORIENTED_EDGE('',*,*,#276,.F.);
#85=ORIENTED_EDGE('',*,*,#277,.F.);
#86=ORIENTED_EDGE('',*,*,#278,.F.);
#87=ORIENTED_EDGE('',*,*,#279,.F.);
#88=ORIENTED_EDGE('',*,*,#280,.F.);
#89=ORIENTED_EDGE('',*,*,#281,.F.);
#90=ORIENTED_EDGE('',*,*,#282,.F.);
#91=ORIENTED_EDGE('',*,*,#283,.F.);
#92=ORIENTED_EDGE('',*,*,#284,.F.);
#93=ORIENTED_EDGE('',*,*,#285,.F.);
#94=ORIENTED_EDGE('',*,*,#286,.F.);
#95=ORIENTED_EDGE('',*,*,#287,.F.);
#96=ORIENTED_EDGE('',*,*,#288,.F.);
#97=ORIENTED_EDGE('',*,*,#289,.F.);
#98=ORIENTED_EDGE('',*,*,#290,.F.);
#99=ORIENTED_EDGE('',*,*,#291,.F.);
#100=ORIENTED_EDGE('',*,*,#292,.F.);
#101=ORIENTED_EDGE('',*,*,#293,.F.);
#102=ORIENTED_EDGE('',*,*,#294,.F.);
#103=ORIENTED_EDGE('',*,*,#295,.F.);
#104=ORIENTED_EDGE('',*,*,#296,.F.);
#105=ORIENTED_EDGE('',*,*,#297,.F.);
#106=ORIENTED_EDGE('',*,*,#298,.F.);
#107=ORIENTED_EDGE('',*,*,#299,.F.);
#108=ORIENTED_EDGE('',*,*,#300,.F.);
#109=ORIENTED_EDGE('',*,*,#301,.F.);
#110=ORIENTED_EDGE('',*,*,#302,.F.);
#111=ORIENTED_EDGE('',*,*,#303,.F.);
#112=ORIENTED_EDGE('',*,*,#304,.F.);
#113=ORIENTED_EDGE('',*,*,#305,.F.);
#114=ORIENTED_EDGE('',*,*,#306,.F.);
#115=ORIENTED_EDGE('',*,*,#307,.F.);
#116=ORIENTED_EDGE('',*,*,#308,.F.);
#117=ORIENTED_EDGE('',*,*,#309,.F.);
#118=ORIENTED_EDGE('',*,*,#310,.F.);
#119=ORIENTED_EDGE('',*,*,#311,.F.);
#120=ORIENTED_EDGE('',*,*,#252,.T.);
#121=ORIENTED_EDGE('',*,*,#256,.T.);
#122=ORIENTED_EDGE('',*,*,#259,.T.);
#123=ORIENTED_EDGE('',*,*,#262,.T.);
#124=ORIENTED_EDGE('',*,*,#265,.T.);
#125=ORIENTED_EDGE('',*,*,#268,.F.);
#126=ORIENTED_EDGE('',*,*,#271,.T.);
#127=ORIENTED_EDGE('',*,*,#273,.F.);
#128=ORIENTED_EDGE('',*,*,#312,.T.);
#129=ORIENTED_EDGE('',*,*,#313,.T.);
#130=ORIENTED_EDGE('',*,*,#314,.T.);
#131=ORIENTED_EDGE('',*,*,#315,.T.);
#132=ORIENTED_EDGE('',*,*,#316,.T.);
#133=ORIENTED_EDGE('',*,*,#317,.T.);
#134=ORIENTED_EDGE('',*,*,#318,.T.);
#135=ORIENTED_EDGE('',*,*,#319,.T.);
#136=ORIENTED_EDGE('',*,*,#320,.T.);
#137=ORIENTED_EDGE('',*,*,#321,.T.);
#138=ORIENTED_EDGE('',*,*,#322,.T.);
#139=ORIENTED_EDGE('',*,*,#323,.T.);
#140=ORIENTED_EDGE('',*,*,#324,.T.);
#141=ORIENTED_EDGE('',*,*,#325,.T.);
#142=ORIENTED_EDGE('',*,*,#326,.T.);
#143=ORIENTED_EDGE('',*,*,#327,.T.);
#144=ORIENTED_EDGE('',*,*,#328,.T.);
#145=ORIENTED_EDGE('',*,*,#329,.T.);
#146=ORIENTED_EDGE('',*,*,#330,.T.);
#147=ORIENTED_EDGE('',*,*,#331,.T.);
#148=ORIENTED_EDGE('',*,*,#332,.T.);
#149=ORIENTED_EDGE('',*,*,#333,.T.);
#150=ORIENTED_EDGE('',*,*,#334,.T.);
#151=ORIENTED_EDGE('',*,*,#335,.T.);
#152=ORIENTED_EDGE('',*,*,#336,.T.);
#153=ORIENTED_EDGE('',*,*,#337,.T.);
#154=ORIENTED_EDGE('',*,*,#338,.T.);
#155=ORIENTED_EDGE('',*,*,#339,.T.);
#156=ORIENTED_EDGE('',*,*,#340,.T.);
#157=ORIENTED_EDGE('',*,*,#341,.T.);
#158=ORIENTED_EDGE('',*,*,#342,.T.);
#159=ORIENTED_EDGE('',*,*,#343,.T.);
#160=ORIENTED_EDGE('',*,*,#344,.T.);
#161=ORIENTED_EDGE('',*,*,#345,.T.);
#162=ORIENTED_EDGE('',*,*,#346,.T.);
#163=ORIENTED_EDGE('',*,*,#347,.T.);
#164=ORIENTED_EDGE('',*,*,#348,.T.);
#165=ORIENTED_EDGE('',*,*,#349,.T.);
#166=ORIENTED_EDGE('',*,*,#250,.F.);
#167=ORIENTED_EDGE('',*,*,#272,.T.);
#168=ORIENTED_EDGE('',*,*,#269,.F.);
#169=ORIENTED_EDGE('',*,*,#266,.T.);
#170=ORIENTED_EDGE('',*,*,#263,.F.);
#171=ORIENTED_EDGE('',*,*,#260,.F.);
#172=ORIENTED_EDGE('',*,*,#257,.F.);
#173=ORIENTED_EDGE('',*,*,#254,.F.);
#174=ORIENTED_EDGE('',*,*,#311,.T.);
#175=ORIENTED_EDGE('',*,*,#349,.F.);
#176=ORIENTED_EDGE('',*,*,#310,.T.);
#177=ORIENTED_EDGE('',*,*,#348,.F.);
#178=ORIENTED_EDGE('',*,*,#309,.T.);
#179=ORIENTED_EDGE('',*,*,#347,.F.);
#180=ORIENTED_EDGE('',*,*,#308,.T.);
#181=ORIENTED_EDGE('',*,*,#346,.F.);
#182=ORIENTED_EDGE('',*,*,#307,.T.);
#183=ORIENTED_EDGE('',*,*,#345,.F.);
#184=ORIENTED_EDGE('',*,*,#306,.T.);
#185=ORIENTED_EDGE('',*,*,#344,.F.);
#186=ORIENTED_EDGE('',*,*,#305,.T.);
#187=ORIENTED_EDGE('',*,*,#343,.F.);
#188=ORIENTED_EDGE('',*,*,#304,.T.);
#189=ORIENTED_EDGE('',*,*,#342,.F.);
#190=ORIENTED_EDGE('',*,*,#303,.T.);
#191=ORIENTED_EDGE('',*,*,#341,.F.);
#192=ORIENTED_EDGE('',*,*,#302,.T.);
#193=ORIENTED_EDGE('',*,*,#340,.F.);
#194=ORIENTED_EDGE('',*,*,#301,.T.);
#195=ORIENTED_EDGE('',*,*,#339,.F.);
#196=ORIENTED_EDGE('',*,*,#300,.T.);
#197=ORIENTED_EDGE('',*,*,#338,.F.);
#198=ORIENTED_EDGE('',*,*,#299,.T.);
#199=ORIENTED_EDGE('',*,*,#337,.F.);
#200=ORIENTED_EDGE('',*,*,#298,.T.);
#201=ORIENTED_EDGE('',*,*,#336,.F.);
#202=ORIENTED_EDGE('',*,*,#297,.T.);
#203=ORIENTED_EDGE('',*,*,#335,.F.);
#204=ORIENTED_EDGE('',*,*,#296,.T.);
#205=ORIENTED_EDGE('',*,*,#334,.F.);
#206=ORIENTED_EDGE('',*,*,#295,.T.);
#207=ORIENTED_EDGE('',*,*,#333,.F.);
#208=ORIENTED_EDGE('',*,*,#294,.T.);
#209=ORIENTED_EDGE('',*,*,#332,.F.);
#210=ORIENTED_EDGE('',*,*,#293,.T.);
#211=ORIENTED_EDGE('',*,*,#331,.F.);
#212=ORIENTED_EDGE('',*,*,#292,.T.);
#213=ORIENTED_EDGE('',*,*,#330,.F.);
#214=ORIENTED_EDGE('',*,*,#291,.T.);
#215=ORIENTED_EDGE('',*,*,#329,.F.);
#216=ORIENTED_EDGE('',*,*,#290,.T.);
#217=ORIENTED_EDGE('',*,*,#328,.F.);
#218=ORIENTED_EDGE('',*,*,#289,.T.);
#219=ORIENTED_EDGE('',*,*,#327,.F.);
#220=ORIENTED_EDGE('',*,*,#288,.T.);
#221=ORIENTED_EDGE('',*,*,#326,.F.);
#222=ORIENTED_EDGE('',*,*,#287,.T.);
#223=ORIENTED_EDGE('',*,*,#325,.F.);
#224=ORIENTED_EDGE('',*,*,#286,.T.);
#225=ORIENTED_EDGE('',*,*,#324,.F.);
#226=ORIENTED_EDGE('',*,*,#285,.T.);
#227=ORIENTED_EDGE('',*,*,#323,.F.);
#228=ORIENTED_EDGE('',*,*,#284,.T.);
#229=ORIENTED_EDGE('',*,*,#322,.F.);
#230=ORIENTED_EDGE('',*,*,#283,.T.);
#231=ORIENTED_EDGE('',*,*,#321,.F.);
#232=ORIENTED_EDGE('',*,*,#282,.T.);
#233=ORIENTED_EDGE('',*,*,#320,.F.);
#234=ORIENTED_EDGE('',*,*,#281,.T.);
#235=ORIENTED_EDGE('',*,*,#319,.F.);
#236=ORIENTED_EDGE('',*,*,#280,.T.);
#237=ORIENTED_EDGE('',*,*,#318,.F.);
#238=ORIENTED_EDGE('',*,*,#279,.T.);
#239=ORIENTED_EDGE('',*,*,#317,.F.);
#240=ORIENTED_EDGE('',*,*,#278,.T.);
#241=ORIENTED_EDGE('',*,*,#316,.F.);
#242=ORIENTED_EDGE('',*,*,#277,.T.);
#243=ORIENTED_EDGE('',*,*,#315,.F.);
#244=ORIENTED_EDGE('',*,*,#276,.T.);
#245=ORIENTED_EDGE('',*,*,#314,.F.);
#246=ORIENTED_EDGE('',*,*,#275,.T.);
#247=ORIENTED_EDGE('',*,*,#313,.F.);
#248=ORIENTED_EDGE('',*,*,#274,.T.);
#249=ORIENTED_EDGE('',*,*,#312,.F.);
#250=EDGE_CURVE('',#350,#351,#442,.T.);
#251=EDGE_CURVE('',#352,#351,#18,.T.);
#252=EDGE_CURVE('',#353,#352,#443,.T.);
#253=EDGE_CURVE('',#353,#350,#19,.T.);
#254=EDGE_CURVE('',#351,#354,#20,.T.);
#255=EDGE_CURVE('',#355,#354,#21,.T.);
#256=EDGE_CURVE('',#352,#355,#22,.T.);
#257=EDGE_CURVE('',#354,#356,#444,.T.);
#258=EDGE_CURVE('',#357,#356,#23,.T.);
#259=EDGE_CURVE('',#355,#357,#445,.T.);
#260=EDGE_CURVE('',#356,#358,#24,.T.);
#261=EDGE_CURVE('',#359,#358,#25,.T.);
#262=EDGE_CURVE('',#357,#359,#26,.T.);
#263=EDGE_CURVE('',#358,#360,#446,.T.);
#264=EDGE_CURVE('',#361,#360,#27,.T.);
#265=EDGE_CURVE('',#359,#361,#447,.T.);
#266=EDGE_CURVE('',#362,#360,#28,.T.);
#267=EDGE_CURVE('',#363,#362,#29,.T.);
#268=EDGE_CURVE('',#363,#361,#30,.T.);
#269=EDGE_CURVE('',#362,#364,#448,.T.);
#270=EDGE_CURVE('',#365,#364,#31,.T.);
#271=EDGE_CURVE('',#363,#365,#449,.T.);
#272=EDGE_CURVE('',#350,#364,#32,.T.);
#273=EDGE_CURVE('',#353,#365,#33,.T.);
#274=EDGE_CURVE('',#366,#366,#450,.T.);
#275=EDGE_CURVE('',#367,#367,#451,.T.);
#276=EDGE_CURVE('',#368,#368,#452,.T.);
#277=EDGE_CURVE('',#369,#369,#453,.T.);
#278=EDGE_CURVE('',#370,#370,#454,.T.);
#279=EDGE_CURVE('',#371,#371,#455,.T.);
#280=EDGE_CURVE('',#372,#372,#456,.T.);
#281=EDGE_CURVE('',#373,#373,#457,.T.);
#282=EDGE_CURVE('',#374,#374,#458,.T.);
#283=EDGE_CURVE('',#375,#375,#459,.T.);
#284=EDGE_CURVE('',#376,#376,#460,.T.);
#285=EDGE_CURVE('',#377,#377,#461,.T.);
#286=EDGE_CURVE('',#378,#378,#462,.T.);
#287=EDGE_CURVE('',#379,#379,#463,.T.);
#288=EDGE_CURVE('',#380,#380,#464,.T.);
#289=EDGE_CURVE('',#381,#381,#465,.T.);
#290=EDGE_CURVE('',#382,#382,#466,.T.);
#291=EDGE_CURVE('',#383,#383,#467,.T.);
#292=EDGE_CURVE('',#384,#384,#468,.T.);
#293=EDGE_CURVE('',#385,#385,#469,.T.);
#294=EDGE_CURVE('',#386,#386,#470,.T.);
#295=EDGE_CURVE('',#387,#387,#471,.T.);
#296=EDGE_CURVE('',#388,#388,#472,.T.);
#297=EDGE_CURVE('',#389,#389,#473,.T.);
#298=EDGE_CURVE('',#390,#390,#474,.T.);
#299=EDGE_CURVE('',#391,#391,#475,.T.);
#300=EDGE_CURVE('',#392,#392,#476,.T.);
#301=EDGE_CURVE('',#393,#393,#477,.T.);
#302=EDGE_CURVE('',#394,#394,#478,.T.);
#303=EDGE_CURVE('',#395,#395,#479,.T.);
#304=EDGE_CURVE('',#396,#396,#480,.T.);
#305=EDGE_CURVE('',#397,#397,#481,.T.);
#306=EDGE_CURVE('',#398,#398,#482,.T.);
#307=EDGE_CURVE('',#399,#399,#483,.T.);
#308=EDGE_CURVE('',#400,#400,#484,.T.);
#309=EDGE_CURVE('',#401,#401,#485,.T.);
#310=EDGE_CURVE('',#402,#402,#486,.T.);
#311=EDGE_CURVE('',#403,#403,#487,.T.);
#312=EDGE_CURVE('',#404,#404,#488,.T.);
#313=EDGE_CURVE('',#405,#405,#489,.T.);
#314=EDGE_CURVE('',#406,#406,#490,.T.);
#315=EDGE_CURVE('',#407,#407,#491,.T.);
#316=EDGE_CURVE('',#408,#408,#492,.T.);
#317=EDGE_CURVE('',#409,#409,#493,.T.);
#318=EDGE_CURVE('',#410,#410,#494,.T.);
#319=EDGE_CURVE('',#411,#411,#495,.T.);
#320=EDGE_CURVE('',#412,#412,#496,.T.);
#321=EDGE_CURVE('',#413,#413,#497,.T.);
#322=EDGE_CURVE('',#414,#414,#498,.T.);
#323=EDGE_CURVE('',#415,#415,#499,.T.);
#324=EDGE_CURVE('',#416,#416,#500,.T.);
#325=EDGE_CURVE('',#417,#417,#501,.T.);
#326=EDGE_CURVE('',#418,#418,#502,.T.);
#327=EDGE_CURVE('',#419,#419,#503,.T.);
#328=EDGE_CURVE('',#420,#420,#504,.T.);
#329=EDGE_CURVE('',#421,#421,#505,.T.);
#330=EDGE_CURVE('',#422,#422,#506,.T.);
#331=EDGE_CURVE('',#423,#423,#507,.T.);
#332=EDGE_CURVE('',#424,#424,#508,.T.);
#333=EDGE_CURVE('',#425,#425,#509,.T.);
#334=EDGE_CURVE('',#426,#426,#510,.T.);
#335=EDGE_CURVE('',#427,#427,#511,.T.);
#336=EDGE_CURVE('',#428,#428,#512,.T.);
#337=EDGE_CURVE('',#429,#429,#513,.T.);
#338=EDGE_CURVE('',#430,#430,#514,.T.);
#339=EDGE_CURVE('',#431,#431,#515,.T.);
#340=EDGE_CURVE('',#432,#432,#516,.T.);
#341=EDGE_CURVE('',#433,#433,#517,.T.);
#342=EDGE_CURVE('',#434,#434,#518,.T.);
#343=EDGE_CURVE('',#435,#435,#519,.T.);
#344=EDGE_CURVE('',#436,#436,#520,.T.);
#345=EDGE_CURVE('',#437,#437,#521,.T.);
#346=EDGE_CURVE('',#438,#438,#522,.T.);
#347=EDGE_CURVE('',#439,#439,#523,.T.);
#348=EDGE_CURVE('',#440,#440,#524,.T.);
#349=EDGE_CURVE('',#441,#441,#525,.T.);
#350=VERTEX_POINT('',#1370);
#351=VERTEX_POINT('',#1371);
#352=VERTEX_POINT('',#1373);
#353=VERTEX_POINT('',#1375);
#354=VERTEX_POINT('',#1379);
#355=VERTEX_POINT('',#1381);
#356=VERTEX_POINT('',#1385);
#357=VERTEX_POINT('',#1387);
#358=VERTEX_POINT('',#1391);
#359=VERTEX_POINT('',#1393);
#360=VERTEX_POINT('',#1397);
#361=VERTEX_POINT('',#1399);
#362=VERTEX_POINT('',#1403);
#363=VERTEX_POINT('',#1405);
#364=VERTEX_POINT('',#1409);
#365=VERTEX_POINT('',#1411);
#366=VERTEX_POINT('',#1418);
#367=VERTEX_POINT('',#1420);
#368=VERTEX_POINT('',#1422);
#369=VERTEX_POINT('',#1424);
#370=VERTEX_POINT('',#1426);
#371=VERTEX_POINT('',#1428);
#372=VERTEX_POINT('',#1430);
#373=VERTEX_POINT('',#1432);
#374=VERTEX_POINT('',#1434);
#375=VERTEX_POINT('',#1436);
#376=VERTEX_POINT('',#1438);
#377=VERTEX_POINT('',#1440);
#378=VERTEX_POINT('',#1442);
#379=VERTEX_POINT('',#1444);
#380=VERTEX_POINT('',#1446);
#381=VERTEX_POINT('',#1448);
#382=VERTEX_POINT('',#1450);
#383=VERTEX_POINT('',#1452);
#384=VERTEX_POINT('',#1454);
#385=VERTEX_POINT('',#1456);
#386=VERTEX_POINT('',#1458);
#387=VERTEX_POINT('',#1460);
#388=VERTEX_POINT('',#1462);
#389=VERTEX_POINT('',#1464);
#390=VERTEX_POINT('',#1466);
#391=VERTEX_POINT('',#1468);
#392=VERTEX_POINT('',#1470);
#393=VERTEX_POINT('',#1472);
#394=VERTEX_POINT('',#1474);
#395=VERTEX_POINT('',#1476);
#396=VERTEX_POINT('',#1478);
#397=VERTEX_POINT('',#1480);
#398=VERTEX_POINT('',#1482);
#399=VERTEX_POINT('',#1484);
#400=VERTEX_POINT('',#1486);
#401=VERTEX_POINT('',#1488);
#402=VERTEX_POINT('',#1490);
#403=VERTEX_POINT('',#1492);
#404=VERTEX_POINT('',#1495);
#405=VERTEX_POINT('',#1497);
#406=VERTEX_POINT('',#1499);
#407=VERTEX_POINT('',#1501);
#408=VERTEX_POINT('',#1503);
#409=VERTEX_POINT('',#1505);
#410=VERTEX_POINT('',#1507);
#411=VERTEX_POINT('',#1509);
#412=VERTEX_POINT('',#1511);
#413=VERTEX_POINT('',#1513);
#414=VERTEX_POINT('',#1515);
#415=VERTEX_POINT('',#1517);
#416=VERTEX_POINT('',#1519);
#417=VERTEX_POINT('',#1521);
#418=VERTEX_POINT('',#1523);
#419=VERTEX_POINT('',#1525);
#420=VERTEX_POINT('',#1527);
#421=VERTEX_POINT('',#1529);
#422=VERTEX_POINT('',#1531);
#423=VERTEX_POINT('',#1533);
#424=VERTEX_POINT('',#1535);
#425=VERTEX_POINT('',#1537);
#426=VERTEX_POINT('',#1539);
#427=VERTEX_POINT('',#1541);
#428=VERTEX_POINT('',#1543);
#429=VERTEX_POINT('',#1545);
#430=VERTEX_POINT('',#1547);
#431=VERTEX_POINT('',#1549);
#432=VERTEX_POINT('',#1551);
#433=VERTEX_POINT('',#1553);
#434=VERTEX_POINT('',#1555);
#435=VERTEX_POINT('',#1557);
#436=VERTEX_POINT('',#1559);
#437=VERTEX_POINT('',#1561);
#438=VERTEX_POINT('',#1563);
#439=VERTEX_POINT('',#1565);
#440=VERTEX_POINT('',#1567);
#441=VERTEX_POINT('',#1569);
#442=CIRCLE('',#954,0.00635);
#443=CIRCLE('',#955,0.00635);
#444=CIRCLE('',#958,0.00635);
#445=CIRCLE('',#959,0.00635);
#446=CIRCLE('',#962,0.00635);
#447=CIRCLE('',#963,0.00635);
#448=CIRCLE('',#966,0.00635);
#449=CIRCLE('',#967,0.00635);
#450=CIRCLE('',#970,0.0032639);
#451=CIRCLE('',#971,0.0032639);
#452=CIRCLE('',#972,0.0032639);
#453=CIRCLE('',#973,0.0032639);
#454=CIRCLE('',#974,0.0032639);
#455=CIRCLE('',#975,0.0032639);
#456=CIRCLE('',#976,0.0032639);
#457=CIRCLE('',#977,0.0032639);
#458=CIRCLE('',#978,0.0032639);
#459=CIRCLE('',#979,0.0032639);
#460=CIRCLE('',#980,0.0032639);
#461=CIRCLE('',#981,0.0032639);
#462=CIRCLE('',#982,0.0032639);
#463=CIRCLE('',#983,0.0032639);
#464=CIRCLE('',#984,0.0032639);
#465=CIRCLE('',#985,0.0032639);
#466=CIRCLE('',#986,0.0032639);
#467=CIRCLE('',#987,0.0032639);
#468=CIRCLE('',#988,0.0032639);
#469=CIRCLE('',#989,0.0032639);
#470=CIRCLE('',#990,0.0032639);
#471=CIRCLE('',#991,0.0032639);
#472=CIRCLE('',#992,0.0032639);
#473=CIRCLE('',#993,0.0032639);
#474=CIRCLE('',#994,0.0032639);
#475=CIRCLE('',#995,0.0032639);
#476=CIRCLE('',#996,0.0032639);
#477=CIRCLE('',#997,0.0032639);
#478=CIRCLE('',#998,0.0032639);
#479=CIRCLE('',#999,0.0032639);
#480=CIRCLE('',#1000,0.0032639);
#481=CIRCLE('',#1001,0.0032639);
#482=CIRCLE('',#1002,0.0032639);
#483=CIRCLE('',#1003,0.0032639);
#484=CIRCLE('',#1004,0.0032639);
#485=CIRCLE('',#1005,0.0032639);
#486=CIRCLE('',#1006,0.0032639);
#487=CIRCLE('',#1007,0.0032639);
#488=CIRCLE('',#1009,0.0032639);
#489=CIRCLE('',#1010,0.0032639);
#490=CIRCLE('',#1011,0.0032639);
#491=CIRCLE('',#1012,0.0032639);
#492=CIRCLE('',#1013,0.0032639);
#493=CIRCLE('',#1014,0.0032639);
#494=CIRCLE('',#1015,0.0032639);
#495=CIRCLE('',#1016,0.0032639);
#496=CIRCLE('',#1017,0.0032639);
#497=CIRCLE('',#1018,0.0032639);
#498=CIRCLE('',#1019,0.0032639);
#499=CIRCLE('',#1020,0.0032639);
#500=CIRCLE('',#1021,0.0032639);
#501=CIRCLE('',#1022,0.0032639);
#502=CIRCLE('',#1023,0.0032639);
#503=CIRCLE('',#1024,0.0032639);
#504=CIRCLE('',#1025,0.0032639);
#505=CIRCLE('',#1026,0.0032639);
#506=CIRCLE('',#1027,0.0032639);
#507=CIRCLE('',#1028,0.0032639);
#508=CIRCLE('',#1029,0.0032639);
#509=CIRCLE('',#1030,0.0032639);
#510=CIRCLE('',#1031,0.0032639);
#511=CIRCLE('',#1032,0.0032639);
#512=CIRCLE('',#1033,0.0032639);
#513=CIRCLE('',#1034,0.0032639);
#514=CIRCLE('',#1035,0.0032639);
#515=CIRCLE('',#1036,0.0032639);
#516=CIRCLE('',#1037,0.0032639);
#517=CIRCLE('',#1038,0.0032639);
#518=CIRCLE('',#1039,0.0032639);
#519=CIRCLE('',#1040,0.0032639);
#520=CIRCLE('',#1041,0.0032639);
#521=CIRCLE('',#1042,0.0032639);
#522=CIRCLE('',#1043,0.0032639);
#523=CIRCLE('',#1044,0.0032639);
#524=CIRCLE('',#1045,0.0032639);
#525=CIRCLE('',#1046,0.0032639);
#526=EDGE_LOOP('',(#50,#51,#52,#53));
#527=EDGE_LOOP('',(#54,#55,#56,#57));
#528=EDGE_LOOP('',(#58,#59,#60,#61));
#529=EDGE_LOOP('',(#62,#63,#64,#65));
#530=EDGE_LOOP('',(#66,#67,#68,#69));
#531=EDGE_LOOP('',(#70,#71,#72,#73));
#532=EDGE_LOOP('',(#74,#75,#76,#77));
#533=EDGE_LOOP('',(#78,#79,#80,#81));
#534=EDGE_LOOP('',(#82));
#535=EDGE_LOOP('',(#83));
#536=EDGE_LOOP('',(#84));
#537=EDGE_LOOP('',(#85));
#538=EDGE_LOOP('',(#86));
#539=EDGE_LOOP('',(#87));
#540=EDGE_LOOP('',(#88));
#541=EDGE_LOOP('',(#89));
#542=EDGE_LOOP('',(#90));
#543=EDGE_LOOP('',(#91));
#544=EDGE_LOOP('',(#92));
#545=EDGE_LOOP('',(#93));
#546=EDGE_LOOP('',(#94));
#547=EDGE_LOOP('',(#95));
#548=EDGE_LOOP('',(#96));
#549=EDGE_LOOP('',(#97));
#550=EDGE_LOOP('',(#98));
#551=EDGE_LOOP('',(#99));
#552=EDGE_LOOP('',(#100));
#553=EDGE_LOOP('',(#101));
#554=EDGE_LOOP('',(#102));
#555=EDGE_LOOP('',(#103));
#556=EDGE_LOOP('',(#104));
#557=EDGE_LOOP('',(#105));
#558=EDGE_LOOP('',(#106));
#559=EDGE_LOOP('',(#107));
#560=EDGE_LOOP('',(#108));
#561=EDGE_LOOP('',(#109));
#562=EDGE_LOOP('',(#110));
#563=EDGE_LOOP('',(#111));
#564=EDGE_LOOP('',(#112));
#565=EDGE_LOOP('',(#113));
#566=EDGE_LOOP('',(#114));
#567=EDGE_LOOP('',(#115));
#568=EDGE_LOOP('',(#116));
#569=EDGE_LOOP('',(#117));
#570=EDGE_LOOP('',(#118));
#571=EDGE_LOOP('',(#119));
#572=EDGE_LOOP('',(#120,#121,#122,#123,#124,#125,#126,#127));
#573=EDGE_LOOP('',(#128));
#574=EDGE_LOOP('',(#129));
#575=EDGE_LOOP('',(#130));
#576=EDGE_LOOP('',(#131));
#577=EDGE_LOOP('',(#132));
#578=EDGE_LOOP('',(#133));
#579=EDGE_LOOP('',(#134));
#580=EDGE_LOOP('',(#135));
#581=EDGE_LOOP('',(#136));
#582=EDGE_LOOP('',(#137));
#583=EDGE_LOOP('',(#138));
#584=EDGE_LOOP('',(#139));
#585=EDGE_LOOP('',(#140));
#586=EDGE_LOOP('',(#141));
#587=EDGE_LOOP('',(#142));
#588=EDGE_LOOP('',(#143));
#589=EDGE_LOOP('',(#144));
#590=EDGE_LOOP('',(#145));
#591=EDGE_LOOP('',(#146));
#592=EDGE_LOOP('',(#147));
#593=EDGE_LOOP('',(#148));
#594=EDGE_LOOP('',(#149));
#595=EDGE_LOOP('',(#150));
#596=EDGE_LOOP('',(#151));
#597=EDGE_LOOP('',(#152));
#598=EDGE_LOOP('',(#153));
#599=EDGE_LOOP('',(#154));
#600=EDGE_LOOP('',(#155));
#601=EDGE_LOOP('',(#156));
#602=EDGE_LOOP('',(#157));
#603=EDGE_LOOP('',(#158));
#604=EDGE_LOOP('',(#159));
#605=EDGE_LOOP('',(#160));
#606=EDGE_LOOP('',(#161));
#607=EDGE_LOOP('',(#162));
#608=EDGE_LOOP('',(#163));
#609=EDGE_LOOP('',(#164));
#610=EDGE_LOOP('',(#165));
#611=EDGE_LOOP('',(#166,#167,#168,#169,#170,#171,#172,#173));
#612=EDGE_LOOP('',(#174));
#613=EDGE_LOOP('',(#175));
#614=EDGE_LOOP('',(#176));
#615=EDGE_LOOP('',(#177));
#616=EDGE_LOOP('',(#178));
#617=EDGE_LOOP('',(#179));
#618=EDGE_LOOP('',(#180));
#619=EDGE_LOOP('',(#181));
#620=EDGE_LOOP('',(#182));
#621=EDGE_LOOP('',(#183));
#622=EDGE_LOOP('',(#184));
#623=EDGE_LOOP('',(#185));
#624=EDGE_LOOP('',(#186));
#625=EDGE_LOOP('',(#187));
#626=EDGE_LOOP('',(#188));
#627=EDGE_LOOP('',(#189));
#628=EDGE_LOOP('',(#190));
#629=EDGE_LOOP('',(#191));
#630=EDGE_LOOP('',(#192));
#631=EDGE_LOOP('',(#193));
#632=EDGE_LOOP('',(#194));
#633=EDGE_LOOP('',(#195));
#634=EDGE_LOOP('',(#196));
#635=EDGE_LOOP('',(#197));
#636=EDGE_LOOP('',(#198));
#637=EDGE_LOOP('',(#199));
#638=EDGE_LOOP('',(#200));
#639=EDGE_LOOP('',(#201));
#640=EDGE_LOOP('',(#202));
#641=EDGE_LOOP('',(#203));
#642=EDGE_LOOP('',(#204));
#643=EDGE_LOOP('',(#205));
#644=EDGE_LOOP('',(#206));
#645=EDGE_LOOP('',(#207));
#646=EDGE_LOOP('',(#208));
#647=EDGE_LOOP('',(#209));
#648=EDGE_LOOP('',(#210));
#649=EDGE_LOOP('',(#211));
#650=EDGE_LOOP('',(#212));
#651=EDGE_LOOP('',(#213));
#652=EDGE_LOOP('',(#214));
#653=EDGE_LOOP('',(#215));
#654=EDGE_LOOP('',(#216));
#655=EDGE_LOOP('',(#217));
#656=EDGE_LOOP('',(#218));
#657=EDGE_LOOP('',(#219));
#658=EDGE_LOOP('',(#220));
#659=EDGE_LOOP('',(#221));
#660=EDGE_LOOP('',(#222));
#661=EDGE_LOOP('',(#223));
#662=EDGE_LOOP('',(#224));
#663=EDGE_LOOP('',(#225));
#664=EDGE_LOOP('',(#226));
#665=EDGE_LOOP('',(#227));
#666=EDGE_LOOP('',(#228));
#667=EDGE_LOOP('',(#229));
#668=EDGE_LOOP('',(#230));
#669=EDGE_LOOP('',(#231));
#670=EDGE_LOOP('',(#232));
#671=EDGE_LOOP('',(#233));
#672=EDGE_LOOP('',(#234));
#673=EDGE_LOOP('',(#235));
#674=EDGE_LOOP('',(#236));
#675=EDGE_LOOP('',(#237));
#676=EDGE_LOOP('',(#238));
#677=EDGE_LOOP('',(#239));
#678=EDGE_LOOP('',(#240));
#679=EDGE_LOOP('',(#241));
#680=EDGE_LOOP('',(#242));
#681=EDGE_LOOP('',(#243));
#682=EDGE_LOOP('',(#244));
#683=EDGE_LOOP('',(#245));
#684=EDGE_LOOP('',(#246));
#685=EDGE_LOOP('',(#247));
#686=EDGE_LOOP('',(#248));
#687=EDGE_LOOP('',(#249));
#688=FACE_BOUND('',#526,.T.);
#689=FACE_BOUND('',#527,.T.);
#690=FACE_BOUND('',#528,.T.);
#691=FACE_BOUND('',#529,.T.);
#692=FACE_BOUND('',#530,.T.);
#693=FACE_BOUND('',#531,.T.);
#694=FACE_BOUND('',#532,.T.);
#695=FACE_BOUND('',#533,.T.);
#696=FACE_BOUND('',#534,.T.);
#697=FACE_BOUND('',#535,.T.);
#698=FACE_BOUND('',#536,.T.);
#699=FACE_BOUND('',#537,.T.);
#700=FACE_BOUND('',#538,.T.);
#701=FACE_BOUND('',#539,.T.);
#702=FACE_BOUND('',#540,.T.);
#703=FACE_BOUND('',#541,.T.);
#704=FACE_BOUND('',#542,.T.);
#705=FACE_BOUND('',#543,.T.);
#706=FACE_BOUND('',#544,.T.);
#707=FACE_BOUND('',#545,.T.);
#708=FACE_BOUND('',#546,.T.);
#709=FACE_BOUND('',#547,.T.);
#710=FACE_BOUND('',#548,.T.);
#711=FACE_BOUND('',#549,.T.);
#712=FACE_BOUND('',#550,.T.);
#713=FACE_BOUND('',#551,.T.);
#714=FACE_BOUND('',#552,.T.);
#715=FACE_BOUND('',#553,.T.);
#716=FACE_BOUND('',#554,.T.);
#717=FACE_BOUND('',#555,.T.);
#718=FACE_BOUND('',#556,.T.);
#719=FACE_BOUND('',#557,.T.);
#720=FACE_BOUND('',#558,.T.);
#721=FACE_BOUND('',#559,.T.);
#722=FACE_BOUND('',#560,.T.);
#723=FACE_BOUND('',#561,.T.);
#724=FACE_BOUND('',#562,.T.);
#725=FACE_BOUND('',#563,.T.);
#726=FACE_BOUND('',#564,.T.);
#727=FACE_BOUND('',#565,.T.);
#728=FACE_BOUND('',#566,.T.);
#729=FACE_BOUND('',#567,.T.);
#730=FACE_BOUND('',#568,.T.);
#731=FACE_BOUND('',#569,.T.);
#732=FACE_BOUND('',#570,.T.);
#733=FACE_BOUND('',#571,.T.);
#734=FACE_BOUND('',#572,.T.);
#735=FACE_BOUND('',#573,.T.);
#736=FACE_BOUND('',#574,.T.);
#737=FACE_BOUND('',#575,.T.);
#738=FACE_BOUND('',#576,.T.);
#739=FACE_BOUND('',#577,.T.);
#740=FACE_BOUND('',#578,.T.);
#741=FACE_BOUND('',#579,.T.);
#742=FACE_BOUND('',#580,.T.);
#743=FACE_BOUND('',#581,.T.);
#744=FACE_BOUND('',#582,.T.);
#745=FACE_BOUND('',#583,.T.);
#746=FACE_BOUND('',#584,.T.);
#747=FACE_BOUND('',#585,.T.);
#748=FACE_BOUND('',#586,.T.);
#749=FACE_BOUND('',#587,.T.);
#750=FACE_BOUND('',#588,.T.);
#751=FACE_BOUND('',#589,.T.);
#752=FACE_BOUND('',#590,.T.);
#753=FACE_BOUND('',#591,.T.);
#754=FACE_BOUND('',#592,.T.);
#755=FACE_BOUND('',#593,.T.);
#756=FACE_BOUND('',#594,.T.);
#757=FACE_BOUND('',#595,.T.);
#758=FACE_BOUND('',#596,.T.);
#759=FACE_BOUND('',#597,.T.);
#760=FACE_BOUND('',#598,.T.);
#761=FACE_BOUND('',#599,.T.);
#762=FACE_BOUND('',#600,.T.);
#763=FACE_BOUND('',#601,.T.);
#764=FACE_BOUND('',#602,.T.);
#765=FACE_BOUND('',#603,.T.);
#766=FACE_BOUND('',#604,.T.);
#767=FACE_BOUND('',#605,.T.);
#768=FACE_BOUND('',#606,.T.);
#769=FACE_BOUND('',#607,.T.);
#770=FACE_BOUND('',#608,.T.);
#771=FACE_BOUND('',#609,.T.);
#772=FACE_BOUND('',#610,.T.);
#773=FACE_BOUND('',#611,.T.);
#774=FACE_BOUND('',#612,.T.);
#775=FACE_BOUND('',#613,.T.);
#776=FACE_BOUND('',#614,.T.);
#777=FACE_BOUND('',#615,.T.);
#778=FACE_BOUND('',#616,.T.);
#779=FACE_BOUND('',#617,.T.);
#780=FACE_BOUND('',#618,.T.);
#781=FACE_BOUND('',#619,.T.);
#782=FACE_BOUND('',#620,.T.);
#783=FACE_BOUND('',#621,.T.);
#784=FACE_BOUND('',#622,.T.);
#785=FACE_BOUND('',#623,.T.);
#786=FACE_BOUND('',#624,.T.);
#787=FACE_BOUND('',#625,.T.);
#788=FACE_BOUND('',#626,.T.);
#789=FACE_BOUND('',#627,.T.);
#790=FACE_BOUND('',#628,.T.);
#791=FACE_BOUND('',#629,.T.);
#792=FACE_BOUND('',#630,.T.);
#793=FACE_BOUND('',#631,.T.);
#794=FACE_BOUND('',#632,.T.);
#795=FACE_BOUND('',#633,.T.);
#796=FACE_BOUND('',#634,.T.);
#797=FACE_BOUND('',#635,.T.);
#798=FACE_BOUND('',#636,.T.);
#799=FACE_BOUND('',#637,.T.);
#800=FACE_BOUND('',#638,.T.);
#801=FACE_BOUND('',#639,.T.);
#802=FACE_BOUND('',#640,.T.);
#803=FACE_BOUND('',#641,.T.);
#804=FACE_BOUND('',#642,.T.);
#805=FACE_BOUND('',#643,.T.);
#806=FACE_BOUND('',#644,.T.);
#807=FACE_BOUND('',#645,.T.);
#808=FACE_BOUND('',#646,.T.);
#809=FACE_BOUND('',#647,.T.);
#810=FACE_BOUND('',#648,.T.);
#811=FACE_BOUND('',#649,.T.);
#812=FACE_BOUND('',#650,.T.);
#813=FACE_BOUND('',#651,.T.);
#814=FACE_BOUND('',#652,.T.);
#815=FACE_BOUND('',#653,.T.);
#816=FACE_BOUND('',#654,.T.);
#817=FACE_BOUND('',#655,.T.);
#818=FACE_BOUND('',#656,.T.);
#819=FACE_BOUND('',#657,.T.);
#820=FACE_BOUND('',#658,.T.);
#821=FACE_BOUND('',#659,.T.);
#822=FACE_BOUND('',#660,.T.);
#823=FACE_BOUND('',#661,.T.);
#824=FACE_BOUND('',#662,.T.);
#825=FACE_BOUND('',#663,.T.);
#826=FACE_BOUND('',#664,.T.);
#827=FACE_BOUND('',#665,.T.);
#828=FACE_BOUND('',#666,.T.);
#829=FACE_BOUND('',#667,.T.);
#830=FACE_BOUND('',#668,.T.);
#831=FACE_BOUND('',#669,.T.);
#832=FACE_BOUND('',#670,.T.);
#833=FACE_BOUND('',#671,.T.);
#834=FACE_BOUND('',#672,.T.);
#835=FACE_BOUND('',#673,.T.);
#836=FACE_BOUND('',#674,.T.);
#837=FACE_BOUND('',#675,.T.);
#838=FACE_BOUND('',#676,.T.);
#839=FACE_BOUND('',#677,.T.);
#840=FACE_BOUND('',#678,.T.);
#841=FACE_BOUND('',#679,.T.);
#842=FACE_BOUND('',#680,.T.);
#843=FACE_BOUND('',#681,.T.);
#844=FACE_BOUND('',#682,.T.);
#845=FACE_BOUND('',#683,.T.);
#846=FACE_BOUND('',#684,.T.);
#847=FACE_BOUND('',#685,.T.);
#848=FACE_BOUND('',#686,.T.);
#849=FACE_BOUND('',#687,.T.);
#850=CYLINDRICAL_SURFACE('',#953,0.00635);
#851=CYLINDRICAL_SURFACE('',#957,0.00635);
#852=CYLINDRICAL_SURFACE('',#961,0.00635);
#853=CYLINDRICAL_SURFACE('',#965,0.00635);
#854=CYLINDRICAL_SURFACE('',#1047,0.0032639);
#855=CYLINDRICAL_SURFACE('',#1048,0.0032639);
#856=CYLINDRICAL_SURFACE('',#1049,0.0032639);
#857=CYLINDRICAL_SURFACE('',#1050,0.0032639);
#858=CYLINDRICAL_SURFACE('',#1051,0.0032639);
#859=CYLINDRICAL_SURFACE('',#1052,0.0032639);
#860=CYLINDRICAL_SURFACE('',#1053,0.0032639);
#861=CYLINDRICAL_SURFACE('',#1054,0.0032639);
#862=CYLINDRICAL_SURFACE('',#1055,0.0032639);
#863=CYLINDRICAL_SURFACE('',#1056,0.0032639);
#864=CYLINDRICAL_SURFACE('',#1057,0.0032639);
#865=CYLINDRICAL_SURFACE('',#1058,0.0032639);
#866=CYLINDRICAL_SURFACE('',#1059,0.0032639);
#867=CYLINDRICAL_SURFACE('',#1060,0.0032639);
#868=CYLINDRICAL_SURFACE('',#1061,0.0032639);
#869=CYLINDRICAL_SURFACE('',#1062,0.0032639);
#870=CYLINDRICAL_SURFACE('',#1063,0.0032639);
#871=CYLINDRICAL_SURFACE('',#1064,0.0032639);
#872=CYLINDRICAL_SURFACE('',#1065,0.0032639);
#873=CYLINDRICAL_SURFACE('',#1066,0.0032639);
#874=CYLINDRICAL_SURFACE('',#1067,0.0032639);
#875=CYLINDRICAL_SURFACE('',#1068,0.0032639);
#876=CYLINDRICAL_SURFACE('',#1069,0.0032639);
#877=CYLINDRICAL_SURFACE('',#1070,0.0032639);
#878=CYLINDRICAL_SURFACE('',#1071,0.0032639);
#879=CYLINDRICAL_SURFACE('',#1072,0.0032639);
#880=CYLINDRICAL_SURFACE('',#1073,0.0032639);
#881=CYLINDRICAL_SURFACE('',#1074,0.0032639);
#882=CYLINDRICAL_SURFACE('',#1075,0.0032639);
#883=CYLINDRICAL_SURFACE('',#1076,0.0032639);
#884=CYLINDRICAL_SURFACE('',#1077,0.0032639);
#885=CYLINDRICAL_SURFACE('',#1078,0.0032639);
#886=CYLINDRICAL_SURFACE('',#1079,0.0032639);
#887=CYLINDRICAL_SURFACE('',#1080,0.0032639);
#888=CYLINDRICAL_SURFACE('',#1081,0.0032639);
#889=CYLINDRICAL_SURFACE('',#1082,0.0032639);
#890=CYLINDRICAL_SURFACE('',#1083,0.0032639);
#891=CYLINDRICAL_SURFACE('',#1084,0.0032639);
#892=ADVANCED_FACE('',(#688),#850,.T.);
#893=ADVANCED_FACE('',(#689),#12,.F.);
#894=ADVANCED_FACE('',(#690),#851,.T.);
#895=ADVANCED_FACE('',(#691),#13,.F.);
#896=ADVANCED_FACE('',(#692),#852,.T.);
#897=ADVANCED_FACE('',(#693),#14,.T.);
#898=ADVANCED_FACE('',(#694),#853,.T.);
#899=ADVANCED_FACE('',(#695),#15,.T.);
#900=ADVANCED_FACE('',(#696,#697,#698,#699,#700,#701,#702,#703,#704,#705,
#706,#707,#708,#709,#710,#711,#712,#713,#714,#715,#716,#717,#718,#719,#720,
#721,#722,#723,#724,#725,#726,#727,#728,#729,#730,#731,#732,#733,#734),
#16,.T.);
#901=ADVANCED_FACE('',(#735,#736,#737,#738,#739,#740,#741,#742,#743,#744,
#745,#746,#747,#748,#749,#750,#751,#752,#753,#754,#755,#756,#757,#758,#759,
#760,#761,#762,#763,#764,#765,#766,#767,#768,#769,#770,#771,#772,#773),
#17,.F.);
#902=ADVANCED_FACE('',(#774,#775),#854,.F.);
#903=ADVANCED_FACE('',(#776,#777),#855,.F.);
#904=ADVANCED_FACE('',(#778,#779),#856,.F.);
#905=ADVANCED_FACE('',(#780,#781),#857,.F.);
#906=ADVANCED_FACE('',(#782,#783),#858,.F.);
#907=ADVANCED_FACE('',(#784,#785),#859,.F.);
#908=ADVANCED_FACE('',(#786,#787),#860,.F.);
#909=ADVANCED_FACE('',(#788,#789),#861,.F.);
#910=ADVANCED_FACE('',(#790,#791),#862,.F.);
#911=ADVANCED_FACE('',(#792,#793),#863,.F.);
#912=ADVANCED_FACE('',(#794,#795),#864,.F.);
#913=ADVANCED_FACE('',(#796,#797),#865,.F.);
#914=ADVANCED_FACE('',(#798,#799),#866,.F.);
#915=ADVANCED_FACE('',(#800,#801),#867,.F.);
#916=ADVANCED_FACE('',(#802,#803),#868,.F.);
#917=ADVANCED_FACE('',(#804,#805),#869,.F.);
#918=ADVANCED_FACE('',(#806,#807),#870,.F.);
#919=ADVANCED_FACE('',(#808,#809),#871,.F.);
#920=ADVANCED_FACE('',(#810,#811),#872,.F.);
#921=ADVANCED_FACE('',(#812,#813),#873,.F.);
#922=ADVANCED_FACE('',(#814,#815),#874,.F.);
#923=ADVANCED_FACE('',(#816,#817),#875,.F.);
#924=ADVANCED_FACE('',(#818,#819),#876,.F.);
#925=ADVANCED_FACE('',(#820,#821),#877,.F.);
#926=ADVANCED_FACE('',(#822,#823),#878,.F.);
#927=ADVANCED_FACE('',(#824,#825),#879,.F.);
#928=ADVANCED_FACE('',(#826,#827),#880,.F.);
#929=ADVANCED_FACE('',(#828,#829),#881,.F.);
#930=ADVANCED_FACE('',(#830,#831),#882,.F.);
#931=ADVANCED_FACE('',(#832,#833),#883,.F.);
#932=ADVANCED_FACE('',(#834,#835),#884,.F.);
#933=ADVANCED_FACE('',(#836,#837),#885,.F.);
#934=ADVANCED_FACE('',(#838,#839),#886,.F.);
#935=ADVANCED_FACE('',(#840,#841),#887,.F.);
#936=ADVANCED_FACE('',(#842,#843),#888,.F.);
#937=ADVANCED_FACE('',(#844,#845),#889,.F.);
#938=ADVANCED_FACE('',(#846,#847),#890,.F.);
#939=ADVANCED_FACE('',(#848,#849),#891,.F.);
#940=CLOSED_SHELL('',(#892,#893,#894,#895,#896,#897,#898,#899,#900,#901,
#902,#903,#904,#905,#906,#907,#908,#909,#910,#911,#912,#913,#914,#915,#916,
#917,#918,#919,#920,#921,#922,#923,#924,#925,#926,#927,#928,#929,#930,#931,
#932,#933,#934,#935,#936,#937,#938,#939));
#941=STYLED_ITEM('',(#942),#949);
#942=PRESENTATION_STYLE_ASSIGNMENT((#943));
#943=SURFACE_STYLE_USAGE(.BOTH.,#944);
#944=SURFACE_SIDE_STYLE('',(#945));
#945=SURFACE_STYLE_FILL_AREA(#946);
#946=FILL_AREA_STYLE('',(#947));
#947=FILL_AREA_STYLE_COLOUR('',#948);
#948=COLOUR_RGB('',0.682352941176471,0.333333333333334,0.737254901960784);
#949=MANIFOLD_SOLID_BREP('Part 1',#940);
#950=SHAPE_DEFINITION_REPRESENTATION(#1614,#951);
#951=SHAPE_REPRESENTATION('Part 1',(#952),#1609);
#952=AXIS2_PLACEMENT_3D('',#1367,#1085,#1086);
#953=AXIS2_PLACEMENT_3D('',#1368,#1087,#1088);
#954=AXIS2_PLACEMENT_3D('',#1369,#1089,#1090);
#955=AXIS2_PLACEMENT_3D('',#1374,#1092,#1093);
#956=AXIS2_PLACEMENT_3D('',#1377,#1095,#1096);
#957=AXIS2_PLACEMENT_3D('',#1383,#1100,#1101);
#958=AXIS2_PLACEMENT_3D('',#1384,#1102,#1103);
#959=AXIS2_PLACEMENT_3D('',#1388,#1105,#1106);
#960=AXIS2_PLACEMENT_3D('',#1389,#1107,#1108);
#961=AXIS2_PLACEMENT_3D('',#1395,#1112,#1113);
#962=AXIS2_PLACEMENT_3D('',#1396,#1114,#1115);
#963=AXIS2_PLACEMENT_3D('',#1400,#1117,#1118);
#964=AXIS2_PLACEMENT_3D('',#1401,#1119,#1120);
#965=AXIS2_PLACEMENT_3D('',#1407,#1124,#1125);
#966=AXIS2_PLACEMENT_3D('',#1408,#1126,#1127);
#967=AXIS2_PLACEMENT_3D('',#1412,#1129,#1130);
#968=AXIS2_PLACEMENT_3D('',#1413,#1131,#1132);
#969=AXIS2_PLACEMENT_3D('',#1416,#1135,#1136);
#970=AXIS2_PLACEMENT_3D('',#1417,#1137,#1138);
#971=AXIS2_PLACEMENT_3D('',#1419,#1139,#1140);
#972=AXIS2_PLACEMENT_3D('',#1421,#1141,#1142);
#973=AXIS2_PLACEMENT_3D('',#1423,#1143,#1144);
#974=AXIS2_PLACEMENT_3D('',#1425,#1145,#1146);
#975=AXIS2_PLACEMENT_3D('',#1427,#1147,#1148);
#976=AXIS2_PLACEMENT_3D('',#1429,#1149,#1150);
#977=AXIS2_PLACEMENT_3D('',#1431,#1151,#1152);
#978=AXIS2_PLACEMENT_3D('',#1433,#1153,#1154);
#979=AXIS2_PLACEMENT_3D('',#1435,#1155,#1156);
#980=AXIS2_PLACEMENT_3D('',#1437,#1157,#1158);
#981=AXIS2_PLACEMENT_3D('',#1439,#1159,#1160);
#982=AXIS2_PLACEMENT_3D('',#1441,#1161,#1162);
#983=AXIS2_PLACEMENT_3D('',#1443,#1163,#1164);
#984=AXIS2_PLACEMENT_3D('',#1445,#1165,#1166);
#985=AXIS2_PLACEMENT_3D('',#1447,#1167,#1168);
#986=AXIS2_PLACEMENT_3D('',#1449,#1169,#1170);
#987=AXIS2_PLACEMENT_3D('',#1451,#1171,#1172);
#988=AXIS2_PLACEMENT_3D('',#1453,#1173,#1174);
#989=AXIS2_PLACEMENT_3D('',#1455,#1175,#1176);
#990=AXIS2_PLACEMENT_3D('',#1457,#1177,#1178);
#991=AXIS2_PLACEMENT_3D('',#1459,#1179,#1180);
#992=AXIS2_PLACEMENT_3D('',#1461,#1181,#1182);
#993=AXIS2_PLACEMENT_3D('',#1463,#1183,#1184);
#994=AXIS2_PLACEMENT_3D('',#1465,#1185,#1186);
#995=AXIS2_PLACEMENT_3D('',#1467,#1187,#1188);
#996=AXIS2_PLACEMENT_3D('',#1469,#1189,#1190);
#997=AXIS2_PLACEMENT_3D('',#1471,#1191,#1192);
#998=AXIS2_PLACEMENT_3D('',#1473,#1193,#1194);
#999=AXIS2_PLACEMENT_3D('',#1475,#1195,#1196);
#1000=AXIS2_PLACEMENT_3D('',#1477,#1197,#1198);
#1001=AXIS2_PLACEMENT_3D('',#1479,#1199,#1200);
#1002=AXIS2_PLACEMENT_3D('',#1481,#1201,#1202);
#1003=AXIS2_PLACEMENT_3D('',#1483,#1203,#1204);
#1004=AXIS2_PLACEMENT_3D('',#1485,#1205,#1206);
#1005=AXIS2_PLACEMENT_3D('',#1487,#1207,#1208);
#1006=AXIS2_PLACEMENT_3D('',#1489,#1209,#1210);
#1007=AXIS2_PLACEMENT_3D('',#1491,#1211,#1212);
#1008=AXIS2_PLACEMENT_3D('',#1493,#1213,#1214);
#1009=AXIS2_PLACEMENT_3D('',#1494,#1215,#1216);
#1010=AXIS2_PLACEMENT_3D('',#1496,#1217,#1218);
#1011=AXIS2_PLACEMENT_3D('',#1498,#1219,#1220);
#1012=AXIS2_PLACEMENT_3D('',#1500,#1221,#1222);
#1013=AXIS2_PLACEMENT_3D('',#1502,#1223,#1224);
#1014=AXIS2_PLACEMENT_3D('',#1504,#1225,#1226);
#1015=AXIS2_PLACEMENT_3D('',#1506,#1227,#1228);
#1016=AXIS2_PLACEMENT_3D('',#1508,#1229,#1230);
#1017=AXIS2_PLACEMENT_3D('',#1510,#1231,#1232);
#1018=AXIS2_PLACEMENT_3D('',#1512,#1233,#1234);
#1019=AXIS2_PLACEMENT_3D('',#1514,#1235,#1236);
#1020=AXIS2_PLACEMENT_3D('',#1516,#1237,#1238);
#1021=AXIS2_PLACEMENT_3D('',#1518,#1239,#1240);
#1022=AXIS2_PLACEMENT_3D('',#1520,#1241,#1242);
#1023=AXIS2_PLACEMENT_3D('',#1522,#1243,#1244);
#1024=AXIS2_PLACEMENT_3D('',#1524,#1245,#1246);
#1025=AXIS2_PLACEMENT_3D('',#1526,#1247,#1248);
#1026=AXIS2_PLACEMENT_3D('',#1528,#1249,#1250);
#1027=AXIS2_PLACEMENT_3D('',#1530,#1251,#1252);
#1028=AXIS2_PLACEMENT_3D('',#1532,#1253,#1254);
#1029=AXIS2_PLACEMENT_3D('',#1534,#1255,#1256);
#1030=AXIS2_PLACEMENT_3D('',#1536,#1257,#1258);
#1031=AXIS2_PLACEMENT_3D('',#1538,#1259,#1260);
#1032=AXIS2_PLACEMENT_3D('',#1540,#1261,#1262);
#1033=AXIS2_PLACEMENT_3D('',#1542,#1263,#1264);
#1034=AXIS2_PLACEMENT_3D('',#1544,#1265,#1266);
#1035=AXIS2_PLACEMENT_3D('',#1546,#1267,#1268);
#1036=AXIS2_PLACEMENT_3D('',#1548,#1269,#1270);
#1037=AXIS2_PLACEMENT_3D('',#1550,#1271,#1272);
#1038=AXIS2_PLACEMENT_3D('',#1552,#1273,#1274);
#1039=AXIS2_PLACEMENT_3D('',#1554,#1275,#1276);
#1040=AXIS2_PLACEMENT_3D('',#1556,#1277,#1278);
#1041=AXIS2_PLACEMENT_3D('',#1558,#1279,#1280);
#1042=AXIS2_PLACEMENT_3D('',#1560,#1281,#1282);
#1043=AXIS2_PLACEMENT_3D('',#1562,#1283,#1284);
#1044=AXIS2_PLACEMENT_3D('',#1564,#1285,#1286);
#1045=AXIS2_PLACEMENT_3D('',#1566,#1287,#1288);
#1046=AXIS2_PLACEMENT_3D('',#1568,#1289,#1290);
#1047=AXIS2_PLACEMENT_3D('',#1570,#1291,#1292);
#1048=AXIS2_PLACEMENT_3D('',#1571,#1293,#1294);
#1049=AXIS2_PLACEMENT_3D('',#1572,#1295,#1296);
#1050=AXIS2_PLACEMENT_3D('',#1573,#1297,#1298);
#1051=AXIS2_PLACEMENT_3D('',#1574,#1299,#1300);
#1052=AXIS2_PLACEMENT_3D('',#1575,#1301,#1302);
#1053=AXIS2_PLACEMENT_3D('',#1576,#1303,#1304);
#1054=AXIS2_PLACEMENT_3D('',#1577,#1305,#1306);
#1055=AXIS2_PLACEMENT_3D('',#1578,#1307,#1308);
#1056=AXIS2_PLACEMENT_3D('',#1579,#1309,#1310);
#1057=AXIS2_PLACEMENT_3D('',#1580,#1311,#1312);
#1058=AXIS2_PLACEMENT_3D('',#1581,#1313,#1314);
#1059=AXIS2_PLACEMENT_3D('',#1582,#1315,#1316);
#1060=AXIS2_PLACEMENT_3D('',#1583,#1317,#1318);
#1061=AXIS2_PLACEMENT_3D('',#1584,#1319,#1320);
#1062=AXIS2_PLACEMENT_3D('',#1585,#1321,#1322);
#1063=AXIS2_PLACEMENT_3D('',#1586,#1323,#1324);
#1064=AXIS2_PLACEMENT_3D('',#1587,#1325,#1326);
#1065=AXIS2_PLACEMENT_3D('',#1588,#1327,#1328);
#1066=AXIS2_PLACEMENT_3D('',#1589,#1329,#1330);
#1067=AXIS2_PLACEMENT_3D('',#1590,#1331,#1332);
#1068=AXIS2_PLACEMENT_3D('',#1591,#1333,#1334);
#1069=AXIS2_PLACEMENT_3D('',#1592,#1335,#1336);
#1070=AXIS2_PLACEMENT_3D('',#1593,#1337,#1338);
#1071=AXIS2_PLACEMENT_3D('',#1594,#1339,#1340);
#1072=AXIS2_PLACEMENT_3D('',#1595,#1341,#1342);
#1073=AXIS2_PLACEMENT_3D('',#1596,#1343,#1344);
#1074=AXIS2_PLACEMENT_3D('',#1597,#1345,#1346);
#1075=AXIS2_PLACEMENT_3D('',#1598,#1347,#1348);
#1076=AXIS2_PLACEMENT_3D('',#1599,#1349,#1350);
#1077=AXIS2_PLACEMENT_3D('',#1600,#1351,#1352);
#1078=AXIS2_PLACEMENT_3D('',#1601,#1353,#1354);
#1079=AXIS2_PLACEMENT_3D('',#1602,#1355,#1356);
#1080=AXIS2_PLACEMENT_3D('',#1603,#1357,#1358);
#1081=AXIS2_PLACEMENT_3D('',#1604,#1359,#1360);
#1082=AXIS2_PLACEMENT_3D('',#1605,#1361,#1362);
#1083=AXIS2_PLACEMENT_3D('',#1606,#1363,#1364);
#1084=AXIS2_PLACEMENT_3D('',#1607,#1365,#1366);
#1085=DIRECTION('',(0.,0.,1.));
#1086=DIRECTION('',(1.,0.,0.));
#1087=DIRECTION('',(0.,1.,0.));
#1088=DIRECTION('',(0.,0.,1.));
#1089=DIRECTION('',(0.,-1.,0.));
#1090=DIRECTION('',(0.,0.,-1.));
#1091=DIRECTION('',(0.,1.,0.));
#1092=DIRECTION('',(0.,-1.,0.));
#1093=DIRECTION('',(0.,0.,-1.));
#1094=DIRECTION('',(0.,1.,0.));
#1095=DIRECTION('',(1.,0.,0.));
#1096=DIRECTION('',(0.,0.,-1.));
#1097=DIRECTION('',(0.,0.,-1.));
#1098=DIRECTION('',(0.,1.,0.));
#1099=DIRECTION('',(0.,0.,-1.));
#1100=DIRECTION('',(0.,1.,0.));
#1101=DIRECTION('',(0.,0.,1.));
#1102=DIRECTION('',(0.,-1.,0.));
#1103=DIRECTION('',(0.,0.,-1.));
#1104=DIRECTION('',(0.,1.,0.));
#1105=DIRECTION('',(0.,-1.,0.));
#1106=DIRECTION('',(0.,0.,-1.));
#1107=DIRECTION('',(0.,0.,1.));
#1108=DIRECTION('',(1.,0.,0.));
#1109=DIRECTION('',(1.,0.,0.));
#1110=DIRECTION('',(0.,1.,0.));
#1111=DIRECTION('',(1.,0.,0.));
#1112=DIRECTION('',(0.,1.,0.));
#1113=DIRECTION('',(0.,0.,1.));
#1114=DIRECTION('',(0.,-1.,0.));
#1115=DIRECTION('',(0.,0.,-1.));
#1116=DIRECTION('',(0.,1.,0.));
#1117=DIRECTION('',(0.,-1.,0.));
#1118=DIRECTION('',(0.,0.,-1.));
#1119=DIRECTION('',(1.,0.,0.));
#1120=DIRECTION('',(0.,0.,-1.));
#1121=DIRECTION('',(0.,0.,-1.));
#1122=DIRECTION('',(0.,1.,0.));
#1123=DIRECTION('',(0.,0.,-1.));
#1124=DIRECTION('',(0.,1.,0.));
#1125=DIRECTION('',(0.,0.,1.));
#1126=DIRECTION('',(0.,-1.,0.));
#1127=DIRECTION('',(0.,0.,-1.));
#1128=DIRECTION('',(0.,1.,0.));
#1129=DIRECTION('',(0.,-1.,0.));
#1130=DIRECTION('',(0.,0.,-1.));
#1131=DIRECTION('',(0.,0.,1.));
#1132=DIRECTION('',(1.,0.,0.));
#1133=DIRECTION('',(1.,0.,0.));
#1134=DIRECTION('',(1.,0.,0.));
#1135=DIRECTION('',(0.,-1.,0.));
#1136=DIRECTION('',(1.,0.,0.));
#1137=DIRECTION('',(0.,-1.,0.));
#1138=DIRECTION('',(0.,0.,-1.));
#1139=DIRECTION('',(0.,-1.,0.));
#1140=DIRECTION('',(0.,0.,-1.));
#1141=DIRECTION('',(0.,-1.,0.));
#1142=DIRECTION('',(0.,0.,-1.));
#1143=DIRECTION('',(0.,-1.,0.));
#1144=DIRECTION('',(0.,0.,-1.));
#1145=DIRECTION('',(0.,-1.,0.));
#1146=DIRECTION('',(0.,0.,-1.));
#1147=DIRECTION('',(0.,-1.,0.));
#1148=DIRECTION('',(0.,0.,-1.));
#1149=DIRECTION('',(0.,-1.,0.));
#1150=DIRECTION('',(0.,0.,-1.));
#1151=DIRECTION('',(0.,-1.,0.));
#1152=DIRECTION('',(0.,0.,-1.));
#1153=DIRECTION('',(0.,-1.,0.));
#1154=DIRECTION('',(0.,0.,-1.));
#1155=DIRECTION('',(0.,-1.,0.));
#1156=DIRECTION('',(0.,0.,-1.));
#1157=DIRECTION('',(0.,-1.,0.));
#1158=DIRECTION('',(0.,0.,-1.));
#1159=DIRECTION('',(0.,-1.,0.));
#1160=DIRECTION('',(0.,0.,-1.));
#1161=DIRECTION('',(0.,-1.,0.));
#1162=DIRECTION('',(0.,0.,-1.));
#1163=DIRECTION('',(0.,-1.,0.));
#1164=DIRECTION('',(0.,0.,-1.));
#1165=DIRECTION('',(0.,-1.,0.));
#1166=DIRECTION('',(0.,0.,-1.));
#1167=DIRECTION('',(0.,-1.,0.));
#1168=DIRECTION('',(0.,0.,-1.));
#1169=DIRECTION('',(0.,-1.,0.));
#1170=DIRECTION('',(0.,0.,-1.));
#1171=DIRECTION('',(0.,-1.,0.));
#1172=DIRECTION('',(0.,0.,-1.));
#1173=DIRECTION('',(0.,-1.,0.));
#1174=DIRECTION('',(0.,0.,-1.));
#1175=DIRECTION('',(0.,-1.,0.));
#1176=DIRECTION('',(0.,0.,-1.));
#1177=DIRECTION('',(0.,-1.,0.));
#1178=DIRECTION('',(0.,0.,-1.));
#1179=DIRECTION('',(0.,-1.,0.));
#1180=DIRECTION('',(0.,0.,-1.));
#1181=DIRECTION('',(0.,-1.,0.));
#1182=DIRECTION('',(0.,0.,-1.));
#1183=DIRECTION('',(0.,-1.,0.));
#1184=DIRECTION('',(0.,0.,-1.));
#1185=DIRECTION('',(0.,-1.,0.));
#1186=DIRECTION('',(0.,0.,-1.));
#1187=DIRECTION('',(0.,-1.,0.));
#1188=DIRECTION('',(0.,0.,-1.));
#1189=DIRECTION('',(0.,-1.,0.));
#1190=DIRECTION('',(0.,0.,-1.));
#1191=DIRECTION('',(0.,-1.,0.));
#1192=DIRECTION('',(0.,0.,-1.));
#1193=DIRECTION('',(0.,-1.,0.));
#1194=DIRECTION('',(0.,0.,-1.));
#1195=DIRECTION('',(0.,-1.,0.));
#1196=DIRECTION('',(0.,0.,-1.));
#1197=DIRECTION('',(0.,-1.,0.));
#1198=DIRECTION('',(0.,0.,-1.));
#1199=DIRECTION('',(0.,-1.,0.));
#1200=DIRECTION('',(0.,0.,-1.));
#1201=DIRECTION('',(0.,-1.,0.));
#1202=DIRECTION('',(0.,0.,-1.));
#1203=DIRECTION('',(0.,-1.,0.));
#1204=DIRECTION('',(0.,0.,-1.));
#1205=DIRECTION('',(0.,-1.,0.));
#1206=DIRECTION('',(0.,0.,-1.));
#1207=DIRECTION('',(0.,-1.,0.));
#1208=DIRECTION('',(0.,0.,-1.));
#1209=DIRECTION('',(0.,-1.,0.));
#1210=DIRECTION('',(0.,0.,-1.));
#1211=DIRECTION('',(0.,-1.,0.));
#1212=DIRECTION('',(0.,0.,-1.));
#1213=DIRECTION('',(0.,-1.,0.));
#1214=DIRECTION('',(1.,0.,0.));
#1215=DIRECTION('',(0.,-1.,0.));
#1216=DIRECTION('',(0.,0.,-1.));
#1217=DIRECTION('',(0.,-1.,0.));
#1218=DIRECTION('',(0.,0.,-1.));
#1219=DIRECTION('',(0.,-1.,0.));
#1220=DIRECTION('',(0.,0.,-1.));
#1221=DIRECTION('',(0.,-1.,0.));
#1222=DIRECTION('',(0.,0.,-1.));
#1223=DIRECTION('',(0.,-1.,0.));
#1224=DIRECTION('',(0.,0.,-1.));
#1225=DIRECTION('',(0.,-1.,0.));
#1226=DIRECTION('',(0.,0.,-1.));
#1227=DIRECTION('',(0.,-1.,0.));
#1228=DIRECTION('',(0.,0.,-1.));
#1229=DIRECTION('',(0.,-1.,0.));
#1230=DIRECTION('',(0.,0.,-1.));
#1231=DIRECTION('',(0.,-1.,0.));
#1232=DIRECTION('',(0.,0.,-1.));
#1233=DIRECTION('',(0.,-1.,0.));
#1234=DIRECTION('',(0.,0.,-1.));
#1235=DIRECTION('',(0.,-1.,0.));
#1236=DIRECTION('',(0.,0.,-1.));
#1237=DIRECTION('',(0.,-1.,0.));
#1238=DIRECTION('',(0.,0.,-1.));
#1239=DIRECTION('',(0.,-1.,0.));
#1240=DIRECTION('',(0.,0.,-1.));
#1241=DIRECTION('',(0.,-1.,0.));
#1242=DIRECTION('',(0.,0.,-1.));
#1243=DIRECTION('',(0.,-1.,0.));
#1244=DIRECTION('',(0.,0.,-1.));
#1245=DIRECTION('',(0.,-1.,0.));
#1246=DIRECTION('',(0.,0.,-1.));
#1247=DIRECTION('',(0.,-1.,0.));
#1248=DIRECTION('',(0.,0.,-1.));
#1249=DIRECTION('',(0.,-1.,0.));
#1250=DIRECTION('',(0.,0.,-1.));
#1251=DIRECTION('',(0.,-1.,0.));
#1252=DIRECTION('',(0.,0.,-1.));
#1253=DIRECTION('',(0.,-1.,0.));
#1254=DIRECTION('',(0.,0.,-1.));
#1255=DIRECTION('',(0.,-1.,0.));
#1256=DIRECTION('',(0.,0.,-1.));
#1257=DIRECTION('',(0.,-1.,0.));
#1258=DIRECTION('',(0.,0.,-1.));
#1259=DIRECTION('',(0.,-1.,0.));
#1260=DIRECTION('',(0.,0.,-1.));
#1261=DIRECTION('',(0.,-1.,0.));
#1262=DIRECTION('',(0.,0.,-1.));
#1263=DIRECTION('',(0.,-1.,0.));
#1264=DIRECTION('',(0.,0.,-1.));
#1265=DIRECTION('',(0.,-1.,0.));
#1266=DIRECTION('',(0.,0.,-1.));
#1267=DIRECTION('',(0.,-1.,0.));
#1268=DIRECTION('',(0.,0.,-1.));
#1269=DIRECTION('',(0.,-1.,0.));
#1270=DIRECTION('',(0.,0.,-1.));
#1271=DIRECTION('',(0.,-1.,0.));
#1272=DIRECTION('',(0.,0.,-1.));
#1273=DIRECTION('',(0.,-1.,0.));
#1274=DIRECTION('',(0.,0.,-1.));
#1275=DIRECTION('',(0.,-1.,0.));
#1276=DIRECTION('',(0.,0.,-1.));
#1277=DIRECTION('',(0.,-1.,0.));
#1278=DIRECTION('',(0.,0.,-1.));
#1279=DIRECTION('',(0.,-1.,0.));
#1280=DIRECTION('',(0.,0.,-1.));
#1281=DIRECTION('',(0.,-1.,0.));
#1282=DIRECTION('',(0.,0.,-1.));
#1283=DIRECTION('',(0.,-1.,0.));
#1284=DIRECTION('',(0.,0.,-1.));
#1285=DIRECTION('',(0.,-1.,0.));
#1286=DIRECTION('',(0.,0.,-1.));
#1287=DIRECTION('',(0.,-1.,0.));
#1288=DIRECTION('',(0.,0.,-1.));
#1289=DIRECTION('',(0.,-1.,0.));
#1290=DIRECTION('',(0.,0.,-1.));
#1291=DIRECTION('',(0.,-1.,0.));
#1292=DIRECTION('',(0.,0.,-1.));
#1293=DIRECTION('',(0.,-1.,0.));
#1294=DIRECTION('',(0.,0.,-1.));
#1295=DIRECTION('',(0.,-1.,0.));
#1296=DIRECTION('',(0.,0.,-1.));
#1297=DIRECTION('',(0.,-1.,0.));
#1298=DIRECTION('',(0.,0.,-1.));
#1299=DIRECTION('',(0.,-1.,0.));
#1300=DIRECTION('',(0.,0.,-1.));
#1301=DIRECTION('',(0.,-1.,0.));
#1302=DIRECTION('',(0.,0.,-1.));
#1303=DIRECTION('',(0.,-1.,0.));
#1304=DIRECTION('',(0.,0.,-1.));
#1305=DIRECTION('',(0.,-1.,0.));
#1306=DIRECTION('',(0.,0.,-1.));
#1307=DIRECTION('',(0.,-1.,0.));
#1308=DIRECTION('',(0.,0.,-1.));
#1309=DIRECTION('',(0.,-1.,0.));
#1310=DIRECTION('',(0.,0.,-1.));
#1311=DIRECTION('',(0.,-1.,0.));
#1312=DIRECTION('',(0.,0.,-1.));
#1313=DIRECTION('',(0.,-1.,0.));
#1314=DIRECTION('',(0.,0.,-1.));
#1315=DIRECTION('',(0.,-1.,0.));
#1316=DIRECTION('',(0.,0.,-1.));
#1317=DIRECTION('',(0.,-1.,0.));
#1318=DIRECTION('',(0.,0.,-1.));
#1319=DIRECTION('',(0.,-1.,0.));
#1320=DIRECTION('',(0.,0.,-1.));
#1321=DIRECTION('',(0.,-1.,0.));
#1322=DIRECTION('',(0.,0.,-1.));
#1323=DIRECTION('',(0.,-1.,0.));
#1324=DIRECTION('',(0.,0.,-1.));
#1325=DIRECTION('',(0.,-1.,0.));
#1326=DIRECTION('',(0.,0.,-1.));
#1327=DIRECTION('',(0.,-1.,0.));
#1328=DIRECTION('',(0.,0.,-1.));
#1329=DIRECTION('',(0.,-1.,0.));
#1330=DIRECTION('',(0.,0.,-1.));
#1331=DIRECTION('',(0.,-1.,0.));
#1332=DIRECTION('',(0.,0.,-1.));
#1333=DIRECTION('',(0.,-1.,0.));
#1334=DIRECTION('',(0.,0.,-1.));
#1335=DIRECTION('',(0.,-1.,0.));
#1336=DIRECTION('',(0.,0.,-1.));
#1337=DIRECTION('',(0.,-1.,0.));
#1338=DIRECTION('',(0.,0.,-1.));
#1339=DIRECTION('',(0.,-1.,0.));
#1340=DIRECTION('',(0.,0.,-1.));
#1341=DIRECTION('',(0.,-1.,0.));
#1342=DIRECTION('',(0.,0.,-1.));
#1343=DIRECTION('',(0.,-1.,0.));
#1344=DIRECTION('',(0.,0.,-1.));
#1345=DIRECTION('',(0.,-1.,0.));
#1346=DIRECTION('',(0.,0.,-1.));
#1347=DIRECTION('',(0.,-1.,0.));
#1348=DIRECTION('',(0.,0.,-1.));
#1349=DIRECTION('',(0.,-1.,0.));
#1350=DIRECTION('',(0.,0.,-1.));
#1351=DIRECTION('',(0.,-1.,0.));
#1352=DIRECTION('',(0.,0.,-1.));
#1353=DIRECTION('',(0.,-1.,0.));
#1354=DIRECTION('',(0.,0.,-1.));
#1355=DIRECTION('',(0.,-1.,0.));
#1356=DIRECTION('',(0.,0.,-1.));
#1357=DIRECTION('',(0.,-1.,0.));
#1358=DIRECTION('',(0.,0.,-1.));
#1359=DIRECTION('',(0.,-1.,0.));
#1360=DIRECTION('',(0.,0.,-1.));
#1361=DIRECTION('',(0.,-1.,0.));
#1362=DIRECTION('',(0.,0.,-1.));
#1363=DIRECTION('',(0.,-1.,0.));
#1364=DIRECTION('',(0.,0.,-1.));
#1365=DIRECTION('',(0.,-1.,0.));
#1366=DIRECTION('',(0.,0.,-1.));
#1367=CARTESIAN_POINT('',(0.,0.,0.));
#1368=CARTESIAN_POINT('',(-0.0508,-0.00635,0.00635));
#1369=CARTESIAN_POINT('',(-0.0508,0.,0.00635));
#1370=CARTESIAN_POINT('',(-0.0508,0.,0.0127));
#1371=CARTESIAN_POINT('',(-0.05715,0.,0.00635));
#1372=CARTESIAN_POINT('',(-0.05715,-0.00635,0.00635));
#1373=CARTESIAN_POINT('',(-0.05715,-0.00635,0.00635));
#1374=CARTESIAN_POINT('',(-0.0508,-0.00635,0.00635));
#1375=CARTESIAN_POINT('',(-0.0508,-0.00635,0.0127));
#1376=CARTESIAN_POINT('',(-0.0508,-0.00635,0.0127));
#1377=CARTESIAN_POINT('',(-0.05715,-0.00635,3.46944695195361E-18));
#1378=CARTESIAN_POINT('',(-0.05715,0.,3.46944695195361E-18));
#1379=CARTESIAN_POINT('',(-0.05715,0.,-0.00635));
#1380=CARTESIAN_POINT('',(-0.05715,-0.00635,-0.00635));
#1381=CARTESIAN_POINT('',(-0.05715,-0.00635,-0.00635));
#1382=CARTESIAN_POINT('',(-0.05715,-0.00635,3.46944695195361E-18));
#1383=CARTESIAN_POINT('',(-0.0508,-0.00635,-0.00635));
#1384=CARTESIAN_POINT('',(-0.0508,0.,-0.00635));
#1385=CARTESIAN_POINT('',(-0.0508,0.,-0.0127));
#1386=CARTESIAN_POINT('',(-0.0508,-0.00635,-0.0127));
#1387=CARTESIAN_POINT('',(-0.0508,-0.00635,-0.0127));
#1388=CARTESIAN_POINT('',(-0.0508,-0.00635,-0.00635));
#1389=CARTESIAN_POINT('',(0.04064,-0.00635,-0.0127));
#1390=CARTESIAN_POINT('',(0.04064,0.,-0.0127));
#1391=CARTESIAN_POINT('',(0.13208,0.,-0.0127));
#1392=CARTESIAN_POINT('',(0.13208,-0.00635,-0.0127));
#1393=CARTESIAN_POINT('',(0.13208,-0.00635,-0.0127));
#1394=CARTESIAN_POINT('',(0.04064,-0.00635,-0.0127));
#1395=CARTESIAN_POINT('',(0.13208,-0.00635,-0.00635));
#1396=CARTESIAN_POINT('',(0.13208,0.,-0.00635));
#1397=CARTESIAN_POINT('',(0.13843,0.,-0.00635));
#1398=CARTESIAN_POINT('',(0.13843,-0.00635,-0.00635));
#1399=CARTESIAN_POINT('',(0.13843,-0.00635,-0.00635));
#1400=CARTESIAN_POINT('',(0.13208,-0.00635,-0.00635));
#1401=CARTESIAN_POINT('',(0.13843,-0.00635,0.));
#1402=CARTESIAN_POINT('',(0.13843,0.,0.));
#1403=CARTESIAN_POINT('',(0.13843,0.,0.00635));
#1404=CARTESIAN_POINT('',(0.13843,-0.00635,0.00635));
#1405=CARTESIAN_POINT('',(0.13843,-0.00635,0.00635));
#1406=CARTESIAN_POINT('',(0.13843,-0.00635,0.));
#1407=CARTESIAN_POINT('',(0.13208,-0.00635,0.00635));
#1408=CARTESIAN_POINT('',(0.13208,0.,0.00635));
#1409=CARTESIAN_POINT('',(0.13208,0.,0.0127));
#1410=CARTESIAN_POINT('',(0.13208,-0.00635,0.0127));
#1411=CARTESIAN_POINT('',(0.13208,-0.00635,0.0127));
#1412=CARTESIAN_POINT('',(0.13208,-0.00635,0.00635));
#1413=CARTESIAN_POINT('',(0.04064,-0.00635,0.0127));
#1414=CARTESIAN_POINT('',(0.04064,0.,0.0127));
#1415=CARTESIAN_POINT('',(0.04064,-0.00635,0.0127));
#1416=CARTESIAN_POINT('',(0.04064,-0.00635,0.));
#1417=CARTESIAN_POINT('',(0.07112,-0.00635,-0.00635));
#1418=CARTESIAN_POINT('',(0.07112,-0.00635,-0.0096139));
#1419=CARTESIAN_POINT('',(0.06096,-0.00635,-0.00635));
#1420=CARTESIAN_POINT('',(0.06096,-0.00635,-0.0096139));
#1421=CARTESIAN_POINT('',(0.06096,-0.00635,0.00635));
#1422=CARTESIAN_POINT('',(0.06096,-0.00635,0.0030861));
#1423=CARTESIAN_POINT('',(0.0508,-0.00635,0.00635));
#1424=CARTESIAN_POINT('',(0.0508,-0.00635,0.0030861));
#1425=CARTESIAN_POINT('',(-0.02032,-0.00635,-0.00635));
#1426=CARTESIAN_POINT('',(-0.02032,-0.00635,-0.0096139));
#1427=CARTESIAN_POINT('',(0.04064,-0.00635,0.00635));
#1428=CARTESIAN_POINT('',(0.04064,-0.00635,0.0030861));
#1429=CARTESIAN_POINT('',(0.04064,-0.00635,-0.00635));
#1430=CARTESIAN_POINT('',(0.04064,-0.00635,-0.0096139));
#1431=CARTESIAN_POINT('',(0.0508,-0.00635,-0.00635));
#1432=CARTESIAN_POINT('',(0.0508,-0.00635,-0.0096139));
#1433=CARTESIAN_POINT('',(0.12192,-0.00635,-0.00635));
#1434=CARTESIAN_POINT('',(0.12192,-0.00635,-0.0096139));
#1435=CARTESIAN_POINT('',(0.12192,-0.00635,0.00635));
#1436=CARTESIAN_POINT('',(0.12192,-0.00635,0.0030861));
#1437=CARTESIAN_POINT('',(0.1016,-0.00635,-0.00635));
#1438=CARTESIAN_POINT('',(0.1016,-0.00635,-0.0096139));
#1439=CARTESIAN_POINT('',(0.11176,-0.00635,0.00635));
#1440=CARTESIAN_POINT('',(0.11176,-0.00635,0.0030861));
#1441=CARTESIAN_POINT('',(0.07112,-0.00635,0.00635));
#1442=CARTESIAN_POINT('',(0.07112,-0.00635,0.0030861));
#1443=CARTESIAN_POINT('',(0.13208,-0.00635,0.00635));
#1444=CARTESIAN_POINT('',(0.13208,-0.00635,0.0030861));
#1445=CARTESIAN_POINT('',(0.13208,-0.00635,-0.00635));
#1446=CARTESIAN_POINT('',(0.13208,-0.00635,-0.0096139));
#1447=CARTESIAN_POINT('',(0.09144,-0.00635,0.00635));
#1448=CARTESIAN_POINT('',(0.09144,-0.00635,0.0030861));
#1449=CARTESIAN_POINT('',(-0.03048,-0.00635,-0.00635));
#1450=CARTESIAN_POINT('',(-0.03048,-0.00635,-0.0096139));
#1451=CARTESIAN_POINT('',(-0.04064,-0.00635,0.00635));
#1452=CARTESIAN_POINT('',(-0.04064,-0.00635,0.0030861));
#1453=CARTESIAN_POINT('',(-0.04064,-0.00635,-0.00635));
#1454=CARTESIAN_POINT('',(-0.04064,-0.00635,-0.0096139));
#1455=CARTESIAN_POINT('',(-0.0508,-0.00635,-0.00635));
#1456=CARTESIAN_POINT('',(-0.0508,-0.00635,-0.0096139));
#1457=CARTESIAN_POINT('',(-0.02032,-0.00635,0.00635));
#1458=CARTESIAN_POINT('',(-0.02032,-0.00635,0.0030861));
#1459=CARTESIAN_POINT('',(-0.01016,-0.00635,0.00635));
#1460=CARTESIAN_POINT('',(-0.01016,-0.00635,0.0030861));
#1461=CARTESIAN_POINT('',(-0.01016,-0.00635,-0.00635));
#1462=CARTESIAN_POINT('',(-0.01016,-0.00635,-0.0096139));
#1463=CARTESIAN_POINT('',(0.,-0.00635,-0.00635));
#1464=CARTESIAN_POINT('',(0.,-0.00635,-0.0096139));
#1465=CARTESIAN_POINT('',(-0.03048,-0.00635,0.00635));
#1466=CARTESIAN_POINT('',(-0.03048,-0.00635,0.0030861));
#1467=CARTESIAN_POINT('',(0.01016,-0.00635,-0.00635));
#1468=CARTESIAN_POINT('',(0.01016,-0.00635,-0.0096139));
#1469=CARTESIAN_POINT('',(0.02032,-0.00635,-0.00635));
#1470=CARTESIAN_POINT('',(0.02032,-0.00635,-0.0096139));
#1471=CARTESIAN_POINT('',(0.02032,-0.00635,0.00635));
#1472=CARTESIAN_POINT('',(0.02032,-0.00635,0.0030861));
#1473=CARTESIAN_POINT('',(0.03048,-0.00635,-0.00635));
#1474=CARTESIAN_POINT('',(0.03048,-0.00635,-0.0096139));
#1475=CARTESIAN_POINT('',(0.03048,-0.00635,0.00635));
#1476=CARTESIAN_POINT('',(0.03048,-0.00635,0.0030861));
#1477=CARTESIAN_POINT('',(0.01016,-0.00635,0.00635));
#1478=CARTESIAN_POINT('',(0.01016,-0.00635,0.0030861));
#1479=CARTESIAN_POINT('',(0.,-0.00635,0.00635));
#1480=CARTESIAN_POINT('',(0.,-0.00635,0.0030861));
#1481=CARTESIAN_POINT('',(0.08128,-0.00635,0.00635));
#1482=CARTESIAN_POINT('',(0.08128,-0.00635,0.0030861));
#1483=CARTESIAN_POINT('',(0.09144,-0.00635,-0.00635));
#1484=CARTESIAN_POINT('',(0.09144,-0.00635,-0.0096139));
#1485=CARTESIAN_POINT('',(0.1016,-0.00635,0.00635));
#1486=CARTESIAN_POINT('',(0.1016,-0.00635,0.0030861));
#1487=CARTESIAN_POINT('',(0.11176,-0.00635,-0.00635));
#1488=CARTESIAN_POINT('',(0.11176,-0.00635,-0.0096139));
#1489=CARTESIAN_POINT('',(0.08128,-0.00635,-0.00635));
#1490=CARTESIAN_POINT('',(0.08128,-0.00635,-0.0096139));
#1491=CARTESIAN_POINT('',(-0.0508,-0.00635,0.00635));
#1492=CARTESIAN_POINT('',(-0.0508,-0.00635,0.0030861));
#1493=CARTESIAN_POINT('',(0.04064,0.,0.));
#1494=CARTESIAN_POINT('',(0.07112,0.,-0.00635));
#1495=CARTESIAN_POINT('',(0.07112,0.,-0.0096139));
#1496=CARTESIAN_POINT('',(0.06096,0.,-0.00635));
#1497=CARTESIAN_POINT('',(0.06096,0.,-0.0096139));
#1498=CARTESIAN_POINT('',(0.06096,0.,0.00635));
#1499=CARTESIAN_POINT('',(0.06096,0.,0.0030861));
#1500=CARTESIAN_POINT('',(0.0508,0.,0.00635));
#1501=CARTESIAN_POINT('',(0.0508,0.,0.0030861));
#1502=CARTESIAN_POINT('',(-0.02032,0.,-0.00635));
#1503=CARTESIAN_POINT('',(-0.02032,0.,-0.0096139));
#1504=CARTESIAN_POINT('',(0.04064,0.,0.00635));
#1505=CARTESIAN_POINT('',(0.04064,0.,0.0030861));
#1506=CARTESIAN_POINT('',(0.04064,0.,-0.00635));
#1507=CARTESIAN_POINT('',(0.04064,0.,-0.0096139));
#1508=CARTESIAN_POINT('',(0.0508,0.,-0.00635));
#1509=CARTESIAN_POINT('',(0.0508,0.,-0.0096139));
#1510=CARTESIAN_POINT('',(0.12192,0.,-0.00635));
#1511=CARTESIAN_POINT('',(0.12192,0.,-0.0096139));
#1512=CARTESIAN_POINT('',(0.12192,0.,0.00635));
#1513=CARTESIAN_POINT('',(0.12192,0.,0.0030861));
#1514=CARTESIAN_POINT('',(0.1016,0.,-0.00635));
#1515=CARTESIAN_POINT('',(0.1016,0.,-0.0096139));
#1516=CARTESIAN_POINT('',(0.11176,0.,0.00635));
#1517=CARTESIAN_POINT('',(0.11176,0.,0.0030861));
#1518=CARTESIAN_POINT('',(0.07112,0.,0.00635));
#1519=CARTESIAN_POINT('',(0.07112,0.,0.0030861));
#1520=CARTESIAN_POINT('',(0.13208,0.,0.00635));
#1521=CARTESIAN_POINT('',(0.13208,0.,0.0030861));
#1522=CARTESIAN_POINT('',(0.13208,0.,-0.00635));
#1523=CARTESIAN_POINT('',(0.13208,0.,-0.0096139));
#1524=CARTESIAN_POINT('',(0.09144,0.,0.00635));
#1525=CARTESIAN_POINT('',(0.09144,0.,0.0030861));
#1526=CARTESIAN_POINT('',(-0.03048,0.,-0.00635));
#1527=CARTESIAN_POINT('',(-0.03048,0.,-0.0096139));
#1528=CARTESIAN_POINT('',(-0.04064,0.,0.00635));
#1529=CARTESIAN_POINT('',(-0.04064,0.,0.0030861));
#1530=CARTESIAN_POINT('',(-0.04064,0.,-0.00635));
#1531=CARTESIAN_POINT('',(-0.04064,0.,-0.0096139));
#1532=CARTESIAN_POINT('',(-0.0508,0.,-0.00635));
#1533=CARTESIAN_POINT('',(-0.0508,0.,-0.0096139));
#1534=CARTESIAN_POINT('',(-0.02032,0.,0.00635));
#1535=CARTESIAN_POINT('',(-0.02032,0.,0.0030861));
#1536=CARTESIAN_POINT('',(-0.01016,0.,0.00635));
#1537=CARTESIAN_POINT('',(-0.01016,0.,0.0030861));
#1538=CARTESIAN_POINT('',(-0.01016,0.,-0.00635));
#1539=CARTESIAN_POINT('',(-0.01016,0.,-0.0096139));
#1540=CARTESIAN_POINT('',(0.,0.,-0.00635));
#1541=CARTESIAN_POINT('',(0.,0.,-0.0096139));
#1542=CARTESIAN_POINT('',(-0.03048,0.,0.00635));
#1543=CARTESIAN_POINT('',(-0.03048,0.,0.0030861));
#1544=CARTESIAN_POINT('',(0.01016,0.,-0.00635));
#1545=CARTESIAN_POINT('',(0.01016,0.,-0.0096139));
#1546=CARTESIAN_POINT('',(0.02032,0.,-0.00635));
#1547=CARTESIAN_POINT('',(0.02032,0.,-0.0096139));
#1548=CARTESIAN_POINT('',(0.02032,0.,0.00635));
#1549=CARTESIAN_POINT('',(0.02032,0.,0.0030861));
#1550=CARTESIAN_POINT('',(0.03048,0.,-0.00635));
#1551=CARTESIAN_POINT('',(0.03048,0.,-0.0096139));
#1552=CARTESIAN_POINT('',(0.03048,0.,0.00635));
#1553=CARTESIAN_POINT('',(0.03048,0.,0.0030861));
#1554=CARTESIAN_POINT('',(0.01016,0.,0.00635));
#1555=CARTESIAN_POINT('',(0.01016,0.,0.0030861));
#1556=CARTESIAN_POINT('',(0.,0.,0.00635));
#1557=CARTESIAN_POINT('',(0.,0.,0.0030861));
#1558=CARTESIAN_POINT('',(0.08128,0.,0.00635));
#1559=CARTESIAN_POINT('',(0.08128,0.,0.0030861));
#1560=CARTESIAN_POINT('',(0.09144,0.,-0.00635));
#1561=CARTESIAN_POINT('',(0.09144,0.,-0.0096139));
#1562=CARTESIAN_POINT('',(0.1016,0.,0.00635));
#1563=CARTESIAN_POINT('',(0.1016,0.,0.0030861));
#1564=CARTESIAN_POINT('',(0.11176,0.,-0.00635));
#1565=CARTESIAN_POINT('',(0.11176,0.,-0.0096139));
#1566=CARTESIAN_POINT('',(0.08128,0.,-0.00635));
#1567=CARTESIAN_POINT('',(0.08128,0.,-0.0096139));
#1568=CARTESIAN_POINT('',(-0.0508,0.,0.00635));
#1569=CARTESIAN_POINT('',(-0.0508,0.,0.0030861));
#1570=CARTESIAN_POINT('',(-0.0508,0.,0.00635));
#1571=CARTESIAN_POINT('',(0.08128,0.,-0.00635));
#1572=CARTESIAN_POINT('',(0.11176,0.,-0.00635));
#1573=CARTESIAN_POINT('',(0.1016,0.,0.00635));
#1574=CARTESIAN_POINT('',(0.09144,0.,-0.00635));
#1575=CARTESIAN_POINT('',(0.08128,0.,0.00635));
#1576=CARTESIAN_POINT('',(0.,0.,0.00635));
#1577=CARTESIAN_POINT('',(0.01016,0.,0.00635));
#1578=CARTESIAN_POINT('',(0.03048,0.,0.00635));
#1579=CARTESIAN_POINT('',(0.03048,0.,-0.00635));
#1580=CARTESIAN_POINT('',(0.02032,0.,0.00635));
#1581=CARTESIAN_POINT('',(0.02032,0.,-0.00635));
#1582=CARTESIAN_POINT('',(0.01016,0.,-0.00635));
#1583=CARTESIAN_POINT('',(-0.03048,0.,0.00635));
#1584=CARTESIAN_POINT('',(0.,0.,-0.00635));
#1585=CARTESIAN_POINT('',(-0.01016,0.,-0.00635));
#1586=CARTESIAN_POINT('',(-0.01016,0.,0.00635));
#1587=CARTESIAN_POINT('',(-0.02032,0.,0.00635));
#1588=CARTESIAN_POINT('',(-0.0508,0.,-0.00635));
#1589=CARTESIAN_POINT('',(-0.04064,0.,-0.00635));
#1590=CARTESIAN_POINT('',(-0.04064,0.,0.00635));
#1591=CARTESIAN_POINT('',(-0.03048,0.,-0.00635));
#1592=CARTESIAN_POINT('',(0.09144,0.,0.00635));
#1593=CARTESIAN_POINT('',(0.13208,0.,-0.00635));
#1594=CARTESIAN_POINT('',(0.13208,0.,0.00635));
#1595=CARTESIAN_POINT('',(0.07112,0.,0.00635));
#1596=CARTESIAN_POINT('',(0.11176,0.,0.00635));
#1597=CARTESIAN_POINT('',(0.1016,0.,-0.00635));
#1598=CARTESIAN_POINT('',(0.12192,0.,0.00635));
#1599=CARTESIAN_POINT('',(0.12192,0.,-0.00635));
#1600=CARTESIAN_POINT('',(0.0508,0.,-0.00635));
#1601=CARTESIAN_POINT('',(0.04064,0.,-0.00635));
#1602=CARTESIAN_POINT('',(0.04064,0.,0.00635));
#1603=CARTESIAN_POINT('',(-0.02032,0.,-0.00635));
#1604=CARTESIAN_POINT('',(0.0508,0.,0.00635));
#1605=CARTESIAN_POINT('',(0.06096,0.,0.00635));
#1606=CARTESIAN_POINT('',(0.06096,0.,-0.00635));
#1607=CARTESIAN_POINT('',(0.07112,0.,-0.00635));
#1608=MECHANICAL_DESIGN_GEOMETRIC_PRESENTATION_REPRESENTATION('',(#941),
#1609);
#1609=(
GEOMETRIC_REPRESENTATION_CONTEXT(3)
GLOBAL_UNCERTAINTY_ASSIGNED_CONTEXT((#1610))
GLOBAL_UNIT_ASSIGNED_CONTEXT((#1613,#1612,#1611))
REPRESENTATION_CONTEXT('Part 1','TOP_LEVEL_ASSEMBLY_PART')
);
#1610=UNCERTAINTY_MEASURE_WITH_UNIT(LENGTH_MEASURE(1.E-8),#1613,
'DISTANCE_ACCURACY_VALUE','Maximum Tolerance applied to model');
#1611=(
NAMED_UNIT(*)
SI_UNIT($,.STERADIAN.)
SOLID_ANGLE_UNIT()
);
#1612=(
NAMED_UNIT(*)
PLANE_ANGLE_UNIT()
SI_UNIT($,.RADIAN.)
);
#1613=(
LENGTH_UNIT()
NAMED_UNIT(*)
SI_UNIT($,.METRE.)
);
#1614=PRODUCT_DEFINITION_SHAPE('','',#1615);
#1615=PRODUCT_DEFINITION('','',#1617,#1616);
#1616=PRODUCT_DEFINITION_CONTEXT('',#1623,'design');
#1617=PRODUCT_DEFINITION_FORMATION_WITH_SPECIFIED_SOURCE('','',#1619,
 .NOT_KNOWN.);
#1618=PRODUCT_RELATED_PRODUCT_CATEGORY('','',(#1619));
#1619=PRODUCT('Part 1','Part 1','Part 1',(#1621));
#1620=PRODUCT_CATEGORY('','');
#1621=PRODUCT_CONTEXT('',#1623,'mechanical');
#1622=APPLICATION_PROTOCOL_DEFINITION('international standard',
'ap242_managed_model_based_3d_engineering',2020,#1623);
#1623=APPLICATION_CONTEXT('managed model based 3d engineering');
ENDSEC;
END-ISO-10303-21;
