ISO-10303-21;
HEADER;
/* Generated by software containing ST-Developer
 * from STEP Tools, Inc. (www.steptools.com) 
 */
/* OPTION: using custom renumber hook */

FILE_DESCRIPTION(
/* description */ ('STEP AP242 Edition 2',
'CAx-IF Rec.Pracs.---Representation and Presentation of Product Manufa
cturing Information (PMI)---4.0---2014-10-13',
'CAx-IF Rec.Pracs.---3D Tessellated Geometry---0.4---2014-09-14','2;1',
'CAx-IF Rec.Pracs.---User Defined Attributes---1.5---2016-08-15'),
/* implementation_level */ '2;1');

FILE_NAME(
/* name */ 'FemaleBase',
/* time_stamp */ '2026-08-06T17:45:56Z',
/* author */ (''),
/* organization */ (''),
/* preprocessor_version */ 'ST-DEVELOPER v20',
/* originating_system */ 'ONSHAPE BY PTC INC, 1.218',
/* authorisation */ '  ');

FILE_SCHEMA (('AP242_MANAGED_MODEL_BASED_3D_ENGINEERING_MIM_LF { 1 0 10303 442 3 1 4 }'));
ENDSEC;

DATA;
#10=SHAPE_REPRESENTATION_RELATIONSHIP('','',#371,#11);
#11=ADVANCED_BREP_SHAPE_REPRESENTATION('',(#369),#649);
#12=ELLIPSE('',#395,0.00898025612106916,0.00635);
#13=ELLIPSE('',#397,0.00898025612106915,0.00635);
#14=CYLINDRICAL_SURFACE('',#376,0.00381);
#15=CYLINDRICAL_SURFACE('',#379,0.00381);
#16=CYLINDRICAL_SURFACE('',#394,0.00635);
#17=CYLINDRICAL_SURFACE('',#396,0.00635);
#18=CYLINDRICAL_SURFACE('',#398,0.00635);
#19=CYLINDRICAL_SURFACE('',#399,0.00381);
#20=CYLINDRICAL_SURFACE('',#402,0.00381);
#21=CYLINDRICAL_SURFACE('',#405,0.00381);
#22=CYLINDRICAL_SURFACE('',#408,0.00381);
#23=CYLINDRICAL_SURFACE('',#411,0.00381);
#24=CYLINDRICAL_SURFACE('',#414,0.00381);
#25=CYLINDRICAL_SURFACE('',#417,0.00381);
#26=CYLINDRICAL_SURFACE('',#420,0.00381);
#27=CYLINDRICAL_SURFACE('',#423,0.00381);
#28=CYLINDRICAL_SURFACE('',#426,0.00381);
#29=CIRCLE('',#374,0.00635);
#30=CIRCLE('',#375,0.00635);
#31=CIRCLE('',#377,0.00381);
#32=CIRCLE('',#378,0.00381);
#33=CIRCLE('',#380,0.00381);
#34=CIRCLE('',#381,0.00381);
#35=CIRCLE('',#383,0.00381);
#36=CIRCLE('',#384,0.00381);
#37=CIRCLE('',#385,0.00381);
#38=CIRCLE('',#386,0.00381);
#39=CIRCLE('',#387,0.00381);
#40=CIRCLE('',#388,0.00381);
#41=CIRCLE('',#389,0.00381);
#42=CIRCLE('',#390,0.00381);
#43=CIRCLE('',#391,0.00381);
#44=CIRCLE('',#392,0.00381);
#45=CIRCLE('',#400,0.00381);
#46=CIRCLE('',#403,0.00381);
#47=CIRCLE('',#406,0.00381);
#48=CIRCLE('',#409,0.00381);
#49=CIRCLE('',#412,0.00381);
#50=CIRCLE('',#415,0.00381);
#51=CIRCLE('',#418,0.00381);
#52=CIRCLE('',#421,0.00381);
#53=CIRCLE('',#424,0.00381);
#54=CIRCLE('',#427,0.00381);
#55=ORIENTED_EDGE('',*,*,#127,.T.);
#56=ORIENTED_EDGE('',*,*,#128,.T.);
#57=ORIENTED_EDGE('',*,*,#129,.F.);
#58=ORIENTED_EDGE('',*,*,#130,.T.);
#59=ORIENTED_EDGE('',*,*,#131,.F.);
#60=ORIENTED_EDGE('',*,*,#132,.T.);
#61=ORIENTED_EDGE('',*,*,#133,.T.);
#62=ORIENTED_EDGE('',*,*,#134,.F.);
#63=ORIENTED_EDGE('',*,*,#135,.F.);
#64=ORIENTED_EDGE('',*,*,#136,.F.);
#65=ORIENTED_EDGE('',*,*,#137,.F.);
#66=ORIENTED_EDGE('',*,*,#138,.F.);
#67=ORIENTED_EDGE('',*,*,#139,.F.);
#68=ORIENTED_EDGE('',*,*,#140,.F.);
#69=ORIENTED_EDGE('',*,*,#141,.F.);
#70=ORIENTED_EDGE('',*,*,#142,.F.);
#71=ORIENTED_EDGE('',*,*,#143,.F.);
#72=ORIENTED_EDGE('',*,*,#144,.F.);
#73=ORIENTED_EDGE('',*,*,#145,.T.);
#74=ORIENTED_EDGE('',*,*,#146,.T.);
#75=ORIENTED_EDGE('',*,*,#127,.F.);
#76=ORIENTED_EDGE('',*,*,#147,.T.);
#77=ORIENTED_EDGE('',*,*,#133,.F.);
#78=ORIENTED_EDGE('',*,*,#131,.T.);
#79=ORIENTED_EDGE('',*,*,#129,.T.);
#80=ORIENTED_EDGE('',*,*,#148,.T.);
#81=ORIENTED_EDGE('',*,*,#149,.F.);
#82=ORIENTED_EDGE('',*,*,#150,.F.);
#83=ORIENTED_EDGE('',*,*,#134,.T.);
#84=ORIENTED_EDGE('',*,*,#132,.F.);
#85=ORIENTED_EDGE('',*,*,#130,.F.);
#86=ORIENTED_EDGE('',*,*,#150,.T.);
#87=ORIENTED_EDGE('',*,*,#151,.F.);
#88=ORIENTED_EDGE('',*,*,#147,.F.);
#89=ORIENTED_EDGE('',*,*,#151,.T.);
#90=ORIENTED_EDGE('',*,*,#149,.T.);
#91=ORIENTED_EDGE('',*,*,#152,.F.);
#92=ORIENTED_EDGE('',*,*,#145,.F.);
#93=ORIENTED_EDGE('',*,*,#128,.F.);
#94=ORIENTED_EDGE('',*,*,#146,.F.);
#95=ORIENTED_EDGE('',*,*,#152,.T.);
#96=ORIENTED_EDGE('',*,*,#148,.F.);
#97=ORIENTED_EDGE('',*,*,#153,.F.);
#98=ORIENTED_EDGE('',*,*,#144,.T.);
#99=ORIENTED_EDGE('',*,*,#153,.T.);
#100=ORIENTED_EDGE('',*,*,#154,.F.);
#101=ORIENTED_EDGE('',*,*,#143,.T.);
#102=ORIENTED_EDGE('',*,*,#154,.T.);
#103=ORIENTED_EDGE('',*,*,#155,.F.);
#104=ORIENTED_EDGE('',*,*,#142,.T.);
#105=ORIENTED_EDGE('',*,*,#155,.T.);
#106=ORIENTED_EDGE('',*,*,#156,.F.);
#107=ORIENTED_EDGE('',*,*,#141,.T.);
#108=ORIENTED_EDGE('',*,*,#156,.T.);
#109=ORIENTED_EDGE('',*,*,#157,.F.);
#110=ORIENTED_EDGE('',*,*,#140,.T.);
#111=ORIENTED_EDGE('',*,*,#157,.T.);
#112=ORIENTED_EDGE('',*,*,#158,.F.);
#113=ORIENTED_EDGE('',*,*,#139,.T.);
#114=ORIENTED_EDGE('',*,*,#158,.T.);
#115=ORIENTED_EDGE('',*,*,#159,.F.);
#116=ORIENTED_EDGE('',*,*,#138,.T.);
#117=ORIENTED_EDGE('',*,*,#159,.T.);
#118=ORIENTED_EDGE('',*,*,#160,.F.);
#119=ORIENTED_EDGE('',*,*,#137,.T.);
#120=ORIENTED_EDGE('',*,*,#160,.T.);
#121=ORIENTED_EDGE('',*,*,#161,.F.);
#122=ORIENTED_EDGE('',*,*,#136,.T.);
#123=ORIENTED_EDGE('',*,*,#161,.T.);
#124=ORIENTED_EDGE('',*,*,#162,.F.);
#125=ORIENTED_EDGE('',*,*,#135,.T.);
#126=ORIENTED_EDGE('',*,*,#162,.T.);
#127=EDGE_CURVE('',#163,#164,#195,.T.);
#128=EDGE_CURVE('',#164,#165,#29,.T.);
#129=EDGE_CURVE('',#166,#165,#196,.T.);
#130=EDGE_CURVE('',#166,#163,#30,.T.);
#131=EDGE_CURVE('',#167,#167,#31,.T.);
#132=EDGE_CURVE('',#168,#168,#32,.T.);
#133=EDGE_CURVE('',#169,#169,#33,.T.);
#134=EDGE_CURVE('',#170,#170,#34,.T.);
#135=EDGE_CURVE('',#171,#171,#35,.T.);
#136=EDGE_CURVE('',#172,#172,#36,.T.);
#137=EDGE_CURVE('',#173,#173,#37,.T.);
#138=EDGE_CURVE('',#174,#174,#38,.T.);
#139=EDGE_CURVE('',#175,#175,#39,.T.);
#140=EDGE_CURVE('',#176,#176,#40,.T.);
#141=EDGE_CURVE('',#177,#177,#41,.T.);
#142=EDGE_CURVE('',#178,#178,#42,.T.);
#143=EDGE_CURVE('',#179,#179,#43,.T.);
#144=EDGE_CURVE('',#180,#180,#44,.T.);
#145=EDGE_CURVE('',#181,#182,#197,.T.);
#146=EDGE_CURVE('',#182,#164,#198,.F.);
#147=EDGE_CURVE('',#163,#181,#199,.T.);
#148=EDGE_CURVE('',#165,#183,#200,.T.);
#149=EDGE_CURVE('',#184,#183,#201,.T.);
#150=EDGE_CURVE('',#166,#184,#202,.T.);
#151=EDGE_CURVE('',#181,#184,#12,.F.);
#152=EDGE_CURVE('',#182,#183,#13,.F.);
#153=EDGE_CURVE('',#185,#185,#45,.T.);
#154=EDGE_CURVE('',#186,#186,#46,.T.);
#155=EDGE_CURVE('',#187,#187,#47,.T.);
#156=EDGE_CURVE('',#188,#188,#48,.T.);
#157=EDGE_CURVE('',#189,#189,#49,.T.);
#158=EDGE_CURVE('',#190,#190,#50,.T.);
#159=EDGE_CURVE('',#191,#191,#51,.T.);
#160=EDGE_CURVE('',#192,#192,#52,.T.);
#161=EDGE_CURVE('',#193,#193,#53,.T.);
#162=EDGE_CURVE('',#194,#194,#54,.T.);
#163=VERTEX_POINT('',#554);
#164=VERTEX_POINT('',#555);
#165=VERTEX_POINT('',#557);
#166=VERTEX_POINT('',#559);
#167=VERTEX_POINT('',#563);
#168=VERTEX_POINT('',#565);
#169=VERTEX_POINT('',#568);
#170=VERTEX_POINT('',#570);
#171=VERTEX_POINT('',#573);
#172=VERTEX_POINT('',#575);
#173=VERTEX_POINT('',#577);
#174=VERTEX_POINT('',#579);
#175=VERTEX_POINT('',#581);
#176=VERTEX_POINT('',#583);
#177=VERTEX_POINT('',#585);
#178=VERTEX_POINT('',#587);
#179=VERTEX_POINT('',#589);
#180=VERTEX_POINT('',#591);
#181=VERTEX_POINT('',#593);
#182=VERTEX_POINT('',#594);
#183=VERTEX_POINT('',#599);
#184=VERTEX_POINT('',#601);
#185=VERTEX_POINT('',#610);
#186=VERTEX_POINT('',#614);
#187=VERTEX_POINT('',#618);
#188=VERTEX_POINT('',#622);
#189=VERTEX_POINT('',#626);
#190=VERTEX_POINT('',#630);
#191=VERTEX_POINT('',#634);
#192=VERTEX_POINT('',#638);
#193=VERTEX_POINT('',#642);
#194=VERTEX_POINT('',#646);
#195=LINE('',#553,#203);
#196=LINE('',#558,#204);
#197=LINE('',#592,#205);
#198=LINE('',#595,#206);
#199=LINE('',#596,#207);
#200=LINE('',#598,#208);
#201=LINE('',#600,#209);
#202=LINE('',#602,#210);
#203=VECTOR('',#433,1.);
#204=VECTOR('',#436,1.);
#205=VECTOR('',#473,1.);
#206=VECTOR('',#474,1.);
#207=VECTOR('',#475,1.);
#208=VECTOR('',#478,1.);
#209=VECTOR('',#479,1.);
#210=VECTOR('',#480,1.);
#211=EDGE_LOOP('',(#55,#56,#57,#58));
#212=EDGE_LOOP('',(#59));
#213=EDGE_LOOP('',(#60));
#214=EDGE_LOOP('',(#61));
#215=EDGE_LOOP('',(#62));
#216=EDGE_LOOP('',(#63));
#217=EDGE_LOOP('',(#64));
#218=EDGE_LOOP('',(#65));
#219=EDGE_LOOP('',(#66));
#220=EDGE_LOOP('',(#67));
#221=EDGE_LOOP('',(#68));
#222=EDGE_LOOP('',(#69));
#223=EDGE_LOOP('',(#70));
#224=EDGE_LOOP('',(#71));
#225=EDGE_LOOP('',(#72));
#226=EDGE_LOOP('',(#73,#74,#75,#76));
#227=EDGE_LOOP('',(#77));
#228=EDGE_LOOP('',(#78));
#229=EDGE_LOOP('',(#79,#80,#81,#82));
#230=EDGE_LOOP('',(#83));
#231=EDGE_LOOP('',(#84));
#232=EDGE_LOOP('',(#85,#86,#87,#88));
#233=EDGE_LOOP('',(#89,#90,#91,#92));
#234=EDGE_LOOP('',(#93,#94,#95,#96));
#235=EDGE_LOOP('',(#97));
#236=EDGE_LOOP('',(#98));
#237=EDGE_LOOP('',(#99));
#238=EDGE_LOOP('',(#100));
#239=EDGE_LOOP('',(#101));
#240=EDGE_LOOP('',(#102));
#241=EDGE_LOOP('',(#103));
#242=EDGE_LOOP('',(#104));
#243=EDGE_LOOP('',(#105));
#244=EDGE_LOOP('',(#106));
#245=EDGE_LOOP('',(#107));
#246=EDGE_LOOP('',(#108));
#247=EDGE_LOOP('',(#109));
#248=EDGE_LOOP('',(#110));
#249=EDGE_LOOP('',(#111));
#250=EDGE_LOOP('',(#112));
#251=EDGE_LOOP('',(#113));
#252=EDGE_LOOP('',(#114));
#253=EDGE_LOOP('',(#115));
#254=EDGE_LOOP('',(#116));
#255=EDGE_LOOP('',(#117));
#256=EDGE_LOOP('',(#118));
#257=EDGE_LOOP('',(#119));
#258=EDGE_LOOP('',(#120));
#259=EDGE_LOOP('',(#121));
#260=EDGE_LOOP('',(#122));
#261=EDGE_LOOP('',(#123));
#262=EDGE_LOOP('',(#124));
#263=EDGE_LOOP('',(#125));
#264=EDGE_LOOP('',(#126));
#265=FACE_BOUND('',#211,.T.);
#266=FACE_BOUND('',#212,.T.);
#267=FACE_BOUND('',#213,.T.);
#268=FACE_BOUND('',#214,.T.);
#269=FACE_BOUND('',#215,.T.);
#270=FACE_BOUND('',#216,.T.);
#271=FACE_BOUND('',#217,.T.);
#272=FACE_BOUND('',#218,.T.);
#273=FACE_BOUND('',#219,.T.);
#274=FACE_BOUND('',#220,.T.);
#275=FACE_BOUND('',#221,.T.);
#276=FACE_BOUND('',#222,.T.);
#277=FACE_BOUND('',#223,.T.);
#278=FACE_BOUND('',#224,.T.);
#279=FACE_BOUND('',#225,.T.);
#280=FACE_BOUND('',#226,.T.);
#281=FACE_BOUND('',#227,.T.);
#282=FACE_BOUND('',#228,.T.);
#283=FACE_BOUND('',#229,.T.);
#284=FACE_BOUND('',#230,.T.);
#285=FACE_BOUND('',#231,.T.);
#286=FACE_BOUND('',#232,.T.);
#287=FACE_BOUND('',#233,.T.);
#288=FACE_BOUND('',#234,.T.);
#289=FACE_BOUND('',#235,.T.);
#290=FACE_BOUND('',#236,.T.);
#291=FACE_BOUND('',#237,.T.);
#292=FACE_BOUND('',#238,.T.);
#293=FACE_BOUND('',#239,.T.);
#294=FACE_BOUND('',#240,.T.);
#295=FACE_BOUND('',#241,.T.);
#296=FACE_BOUND('',#242,.T.);
#297=FACE_BOUND('',#243,.T.);
#298=FACE_BOUND('',#244,.T.);
#299=FACE_BOUND('',#245,.T.);
#300=FACE_BOUND('',#246,.T.);
#301=FACE_BOUND('',#247,.T.);
#302=FACE_BOUND('',#248,.T.);
#303=FACE_BOUND('',#249,.T.);
#304=FACE_BOUND('',#250,.T.);
#305=FACE_BOUND('',#251,.T.);
#306=FACE_BOUND('',#252,.T.);
#307=FACE_BOUND('',#253,.T.);
#308=FACE_BOUND('',#254,.T.);
#309=FACE_BOUND('',#255,.T.);
#310=FACE_BOUND('',#256,.T.);
#311=FACE_BOUND('',#257,.T.);
#312=FACE_BOUND('',#258,.T.);
#313=FACE_BOUND('',#259,.T.);
#314=FACE_BOUND('',#260,.T.);
#315=FACE_BOUND('',#261,.T.);
#316=FACE_BOUND('',#262,.T.);
#317=FACE_BOUND('',#263,.T.);
#318=FACE_BOUND('',#264,.T.);
#319=PLANE('',#373);
#320=PLANE('',#382);
#321=PLANE('',#393);
#322=PLANE('',#401);
#323=PLANE('',#404);
#324=PLANE('',#407);
#325=PLANE('',#410);
#326=PLANE('',#413);
#327=PLANE('',#416);
#328=PLANE('',#419);
#329=PLANE('',#422);
#330=PLANE('',#425);
#331=PLANE('',#428);
#332=ADVANCED_FACE('',(#265),#319,.T.);
#333=ADVANCED_FACE('',(#266,#267),#14,.F.);
#334=ADVANCED_FACE('',(#268,#269),#15,.F.);
#335=ADVANCED_FACE('',(#270,#271,#272,#273,#274,#275,#276,#277,#278,#279,
#280,#281,#282),#320,.T.);
#336=ADVANCED_FACE('',(#283,#284,#285),#321,.F.);
#337=ADVANCED_FACE('',(#286),#16,.T.);
#338=ADVANCED_FACE('',(#287),#17,.T.);
#339=ADVANCED_FACE('',(#288),#18,.T.);
#340=ADVANCED_FACE('',(#289,#290),#19,.F.);
#341=ADVANCED_FACE('',(#291),#322,.T.);
#342=ADVANCED_FACE('',(#292,#293),#20,.F.);
#343=ADVANCED_FACE('',(#294),#323,.T.);
#344=ADVANCED_FACE('',(#295,#296),#21,.F.);
#345=ADVANCED_FACE('',(#297),#324,.T.);
#346=ADVANCED_FACE('',(#298,#299),#22,.F.);
#347=ADVANCED_FACE('',(#300),#325,.T.);
#348=ADVANCED_FACE('',(#301,#302),#23,.F.);
#349=ADVANCED_FACE('',(#303),#326,.T.);
#350=ADVANCED_FACE('',(#304,#305),#24,.F.);
#351=ADVANCED_FACE('',(#306),#327,.T.);
#352=ADVANCED_FACE('',(#307,#308),#25,.F.);
#353=ADVANCED_FACE('',(#309),#328,.T.);
#354=ADVANCED_FACE('',(#310,#311),#26,.F.);
#355=ADVANCED_FACE('',(#312),#329,.T.);
#356=ADVANCED_FACE('',(#313,#314),#27,.F.);
#357=ADVANCED_FACE('',(#315),#330,.T.);
#358=ADVANCED_FACE('',(#316,#317),#28,.F.);
#359=ADVANCED_FACE('',(#318),#331,.T.);
#360=CLOSED_SHELL('',(#332,#333,#334,#335,#336,#337,#338,#339,#340,#341,
#342,#343,#344,#345,#346,#347,#348,#349,#350,#351,#352,#353,#354,#355,#356,
#357,#358,#359));
#361=STYLED_ITEM('',(#362),#369);
#362=PRESENTATION_STYLE_ASSIGNMENT((#363));
#363=SURFACE_STYLE_USAGE(.BOTH.,#364);
#364=SURFACE_SIDE_STYLE('',(#365));
#365=SURFACE_STYLE_FILL_AREA(#366);
#366=FILL_AREA_STYLE('',(#367));
#367=FILL_AREA_STYLE_COLOUR('',#368);
#368=COLOUR_RGB('',0.231372549019608,0.380392156862745,0.705882352941177);
#369=MANIFOLD_SOLID_BREP('Wood Spring Piece',#360);
#370=SHAPE_DEFINITION_REPRESENTATION(#654,#371);
#371=SHAPE_REPRESENTATION('Wood Spring Piece',(#372),#649);
#372=AXIS2_PLACEMENT_3D('',#551,#429,#430);
#373=AXIS2_PLACEMENT_3D('',#552,#431,#432);
#374=AXIS2_PLACEMENT_3D('',#556,#434,#435);
#375=AXIS2_PLACEMENT_3D('',#560,#437,#438);
#376=AXIS2_PLACEMENT_3D('',#561,#439,#440);
#377=AXIS2_PLACEMENT_3D('',#562,#441,#442);
#378=AXIS2_PLACEMENT_3D('',#564,#443,#444);
#379=AXIS2_PLACEMENT_3D('',#566,#445,#446);
#380=AXIS2_PLACEMENT_3D('',#567,#447,#448);
#381=AXIS2_PLACEMENT_3D('',#569,#449,#450);
#382=AXIS2_PLACEMENT_3D('',#571,#451,#452);
#383=AXIS2_PLACEMENT_3D('',#572,#453,#454);
#384=AXIS2_PLACEMENT_3D('',#574,#455,#456);
#385=AXIS2_PLACEMENT_3D('',#576,#457,#458);
#386=AXIS2_PLACEMENT_3D('',#578,#459,#460);
#387=AXIS2_PLACEMENT_3D('',#580,#461,#462);
#388=AXIS2_PLACEMENT_3D('',#582,#463,#464);
#389=AXIS2_PLACEMENT_3D('',#584,#465,#466);
#390=AXIS2_PLACEMENT_3D('',#586,#467,#468);
#391=AXIS2_PLACEMENT_3D('',#588,#469,#470);
#392=AXIS2_PLACEMENT_3D('',#590,#471,#472);
#393=AXIS2_PLACEMENT_3D('',#597,#476,#477);
#394=AXIS2_PLACEMENT_3D('',#603,#481,#482);
#395=AXIS2_PLACEMENT_3D('',#604,#483,#484);
#396=AXIS2_PLACEMENT_3D('',#605,#485,#486);
#397=AXIS2_PLACEMENT_3D('',#606,#487,#488);
#398=AXIS2_PLACEMENT_3D('',#607,#489,#490);
#399=AXIS2_PLACEMENT_3D('',#608,#491,#492);
#400=AXIS2_PLACEMENT_3D('',#609,#493,#494);
#401=AXIS2_PLACEMENT_3D('',#611,#495,#496);
#402=AXIS2_PLACEMENT_3D('',#612,#497,#498);
#403=AXIS2_PLACEMENT_3D('',#613,#499,#500);
#404=AXIS2_PLACEMENT_3D('',#615,#501,#502);
#405=AXIS2_PLACEMENT_3D('',#616,#503,#504);
#406=AXIS2_PLACEMENT_3D('',#617,#505,#506);
#407=AXIS2_PLACEMENT_3D('',#619,#507,#508);
#408=AXIS2_PLACEMENT_3D('',#620,#509,#510);
#409=AXIS2_PLACEMENT_3D('',#621,#511,#512);
#410=AXIS2_PLACEMENT_3D('',#623,#513,#514);
#411=AXIS2_PLACEMENT_3D('',#624,#515,#516);
#412=AXIS2_PLACEMENT_3D('',#625,#517,#518);
#413=AXIS2_PLACEMENT_3D('',#627,#519,#520);
#414=AXIS2_PLACEMENT_3D('',#628,#521,#522);
#415=AXIS2_PLACEMENT_3D('',#629,#523,#524);
#416=AXIS2_PLACEMENT_3D('',#631,#525,#526);
#417=AXIS2_PLACEMENT_3D('',#632,#527,#528);
#418=AXIS2_PLACEMENT_3D('',#633,#529,#530);
#419=AXIS2_PLACEMENT_3D('',#635,#531,#532);
#420=AXIS2_PLACEMENT_3D('',#636,#533,#534);
#421=AXIS2_PLACEMENT_3D('',#637,#535,#536);
#422=AXIS2_PLACEMENT_3D('',#639,#537,#538);
#423=AXIS2_PLACEMENT_3D('',#640,#539,#540);
#424=AXIS2_PLACEMENT_3D('',#641,#541,#542);
#425=AXIS2_PLACEMENT_3D('',#643,#543,#544);
#426=AXIS2_PLACEMENT_3D('',#644,#545,#546);
#427=AXIS2_PLACEMENT_3D('',#645,#547,#548);
#428=AXIS2_PLACEMENT_3D('',#647,#549,#550);
#429=DIRECTION('',(0.,0.,1.));
#430=DIRECTION('',(1.,0.,0.));
#431=DIRECTION('',(1.,0.,0.));
#432=DIRECTION('',(0.,0.,-1.));
#433=DIRECTION('',(0.,1.,0.));
#434=DIRECTION('',(1.,0.,0.));
#435=DIRECTION('',(0.,0.,-1.));
#436=DIRECTION('',(0.,1.,0.));
#437=DIRECTION('',(1.,0.,0.));
#438=DIRECTION('',(0.,0.,-1.));
#439=DIRECTION('',(0.,0.,1.));
#440=DIRECTION('',(1.,0.,0.));
#441=DIRECTION('',(0.,0.,1.));
#442=DIRECTION('',(-1.,0.,0.));
#443=DIRECTION('',(0.,0.,1.));
#444=DIRECTION('',(-1.,0.,0.));
#445=DIRECTION('',(0.,0.,1.));
#446=DIRECTION('',(1.,0.,0.));
#447=DIRECTION('',(0.,0.,-1.));
#448=DIRECTION('',(-1.,0.,0.));
#449=DIRECTION('',(0.,0.,-1.));
#450=DIRECTION('',(-1.,0.,0.));
#451=DIRECTION('',(0.,0.,-1.));
#452=DIRECTION('',(1.,0.,0.));
#453=DIRECTION('',(0.,0.,-1.));
#454=DIRECTION('',(-1.,0.,0.));
#455=DIRECTION('',(0.,0.,-1.));
#456=DIRECTION('',(-1.,0.,0.));
#457=DIRECTION('',(0.,0.,-1.));
#458=DIRECTION('',(-1.,0.,0.));
#459=DIRECTION('',(0.,0.,-1.));
#460=DIRECTION('',(-1.,0.,0.));
#461=DIRECTION('',(0.,0.,-1.));
#462=DIRECTION('',(-1.,0.,0.));
#463=DIRECTION('',(0.,0.,-1.));
#464=DIRECTION('',(-1.,0.,0.));
#465=DIRECTION('',(0.,0.,-1.));
#466=DIRECTION('',(-1.,0.,0.));
#467=DIRECTION('',(0.,0.,-1.));
#468=DIRECTION('',(-1.,0.,0.));
#469=DIRECTION('',(0.,0.,-1.));
#470=DIRECTION('',(-1.,0.,0.));
#471=DIRECTION('',(0.,0.,-1.));
#472=DIRECTION('',(-1.,0.,0.));
#473=DIRECTION('',(0.,1.,0.));
#474=DIRECTION('',(-1.,-1.31338845849243E-16,0.));
#475=DIRECTION('',(-1.,-1.31338845849243E-16,0.));
#476=DIRECTION('',(0.,0.,-1.));
#477=DIRECTION('',(1.,0.,0.));
#478=DIRECTION('',(-1.,-1.31338845849243E-16,0.));
#479=DIRECTION('',(0.,1.,0.));
#480=DIRECTION('',(-1.,-1.31338845849243E-16,0.));
#481=DIRECTION('',(1.,1.31338845849243E-16,0.));
#482=DIRECTION('',(-1.31338845849243E-16,1.,0.));
#483=DIRECTION('',(0.707106781186548,-0.707106781186548,0.));
#484=DIRECTION('',(0.707106781186548,0.707106781186548,0.));
#485=DIRECTION('',(0.,-1.,0.));
#486=DIRECTION('',(0.,0.,-1.));
#487=DIRECTION('',(-0.707106781186548,-0.707106781186548,0.));
#488=DIRECTION('',(0.707106781186548,-0.707106781186548,0.));
#489=DIRECTION('',(-1.,-1.31338845849243E-16,0.));
#490=DIRECTION('',(1.31338845849243E-16,-1.,0.));
#491=DIRECTION('',(0.,0.,-1.));
#492=DIRECTION('',(-1.,0.,0.));
#493=DIRECTION('',(0.,0.,-1.));
#494=DIRECTION('',(-1.,0.,0.));
#495=DIRECTION('',(0.,0.,-1.));
#496=DIRECTION('',(1.,0.,0.));
#497=DIRECTION('',(0.,0.,-1.));
#498=DIRECTION('',(-1.,0.,0.));
#499=DIRECTION('',(0.,0.,-1.));
#500=DIRECTION('',(-1.,0.,0.));
#501=DIRECTION('',(0.,0.,-1.));
#502=DIRECTION('',(1.,0.,0.));
#503=DIRECTION('',(0.,0.,-1.));
#504=DIRECTION('',(-1.,0.,0.));
#505=DIRECTION('',(0.,0.,-1.));
#506=DIRECTION('',(-1.,0.,0.));
#507=DIRECTION('',(0.,0.,-1.));
#508=DIRECTION('',(1.,0.,0.));
#509=DIRECTION('',(0.,0.,-1.));
#510=DIRECTION('',(-1.,0.,0.));
#511=DIRECTION('',(0.,0.,-1.));
#512=DIRECTION('',(-1.,0.,0.));
#513=DIRECTION('',(0.,0.,-1.));
#514=DIRECTION('',(1.,0.,0.));
#515=DIRECTION('',(0.,0.,-1.));
#516=DIRECTION('',(-1.,0.,0.));
#517=DIRECTION('',(0.,0.,-1.));
#518=DIRECTION('',(-1.,0.,0.));
#519=DIRECTION('',(0.,0.,-1.));
#520=DIRECTION('',(1.,0.,0.));
#521=DIRECTION('',(0.,0.,-1.));
#522=DIRECTION('',(-1.,0.,0.));
#523=DIRECTION('',(0.,0.,-1.));
#524=DIRECTION('',(-1.,0.,0.));
#525=DIRECTION('',(0.,0.,-1.));
#526=DIRECTION('',(1.,0.,0.));
#527=DIRECTION('',(0.,0.,-1.));
#528=DIRECTION('',(-1.,0.,0.));
#529=DIRECTION('',(0.,0.,-1.));
#530=DIRECTION('',(-1.,0.,0.));
#531=DIRECTION('',(0.,0.,-1.));
#532=DIRECTION('',(1.,0.,0.));
#533=DIRECTION('',(0.,0.,-1.));
#534=DIRECTION('',(-1.,0.,0.));
#535=DIRECTION('',(0.,0.,-1.));
#536=DIRECTION('',(-1.,0.,0.));
#537=DIRECTION('',(0.,0.,-1.));
#538=DIRECTION('',(1.,0.,0.));
#539=DIRECTION('',(0.,0.,-1.));
#540=DIRECTION('',(-1.,0.,0.));
#541=DIRECTION('',(0.,0.,-1.));
#542=DIRECTION('',(-1.,0.,0.));
#543=DIRECTION('',(0.,0.,-1.));
#544=DIRECTION('',(1.,0.,0.));
#545=DIRECTION('',(0.,0.,-1.));
#546=DIRECTION('',(-1.,0.,0.));
#547=DIRECTION('',(0.,0.,-1.));
#548=DIRECTION('',(-1.,0.,0.));
#549=DIRECTION('',(0.,0.,-1.));
#550=DIRECTION('',(1.,0.,0.));
#551=CARTESIAN_POINT('',(0.,0.,0.));
#552=CARTESIAN_POINT('',(0.06604,0.,-0.18415));
#553=CARTESIAN_POINT('',(0.06604,0.,-0.18415));
#554=CARTESIAN_POINT('',(0.06604,-0.01397,-0.18415));
#555=CARTESIAN_POINT('',(0.06604,0.01397,-0.18415));
#556=CARTESIAN_POINT('',(0.06604,0.01397,-0.1778));
#557=CARTESIAN_POINT('',(0.06604,0.02032,-0.1778));
#558=CARTESIAN_POINT('',(0.06604,0.,-0.1778));
#559=CARTESIAN_POINT('',(0.06604,-0.02032,-0.1778));
#560=CARTESIAN_POINT('',(0.06604,-0.01397,-0.1778));
#561=CARTESIAN_POINT('',(-0.050165,-2.15409248736023E-17,-0.18415));
#562=CARTESIAN_POINT('',(-0.050165,-2.15409248736023E-17,-0.18415));
#563=CARTESIAN_POINT('',(-0.053975,-2.15409248736023E-17,-0.18415));
#564=CARTESIAN_POINT('',(-0.050165,-2.15409248736023E-17,-0.1778));
#565=CARTESIAN_POINT('',(-0.053975,-2.15409248736023E-17,-0.1778));
#566=CARTESIAN_POINT('',(0.050165,-3.11060286983428E-18,-0.18415));
#567=CARTESIAN_POINT('',(0.050165,-3.11060286983428E-18,-0.18415));
#568=CARTESIAN_POINT('',(0.046355,-3.11060286983428E-18,-0.18415));
#569=CARTESIAN_POINT('',(0.050165,-3.11060286983428E-18,-0.1778));
#570=CARTESIAN_POINT('',(0.046355,-3.11060286983428E-18,-0.1778));
#571=CARTESIAN_POINT('',(0.,-6.93889390390723E-18,-0.18415));
#572=CARTESIAN_POINT('',(0.010795,0.00635,-0.18415));
#573=CARTESIAN_POINT('',(0.006985,0.00635,-0.18415));
#574=CARTESIAN_POINT('',(0.034925,-0.00635,-0.18415));
#575=CARTESIAN_POINT('',(0.031115,-0.00635,-0.18415));
#576=CARTESIAN_POINT('',(0.034925,0.00635,-0.18415));
#577=CARTESIAN_POINT('',(0.031115,0.00635,-0.18415));
#578=CARTESIAN_POINT('',(0.059055,-0.00635,-0.18415));
#579=CARTESIAN_POINT('',(0.055245,-0.00635,-0.18415));
#580=CARTESIAN_POINT('',(-0.037465,0.00635,-0.18415));
#581=CARTESIAN_POINT('',(-0.041275,0.00635,-0.18415));
#582=CARTESIAN_POINT('',(-0.013335,-0.00635,-0.18415));
#583=CARTESIAN_POINT('',(-0.017145,-0.00635,-0.18415));
#584=CARTESIAN_POINT('',(-0.013335,0.00635,-0.18415));
#585=CARTESIAN_POINT('',(-0.017145,0.00635,-0.18415));
#586=CARTESIAN_POINT('',(0.010795,-0.00635,-0.18415));
#587=CARTESIAN_POINT('',(0.006985,-0.00635,-0.18415));
#588=CARTESIAN_POINT('',(0.059055,0.00635,-0.18415));
#589=CARTESIAN_POINT('',(0.055245,0.00635,-0.18415));
#590=CARTESIAN_POINT('',(-0.037465,-0.00635,-0.18415));
#591=CARTESIAN_POINT('',(-0.041275,-0.00635,-0.18415));
#592=CARTESIAN_POINT('',(-0.05969,0.02032,-0.18415));
#593=CARTESIAN_POINT('',(-0.05969,-0.01397,-0.18415));
#594=CARTESIAN_POINT('',(-0.05969,0.01397,-0.18415));
#595=CARTESIAN_POINT('',(-1.83480367651393E-18,0.01397,-0.18415));
#596=CARTESIAN_POINT('',(-0.06604,-0.01397,-0.18415));
#597=CARTESIAN_POINT('',(0.,-6.93889390390723E-18,-0.1778));
#598=CARTESIAN_POINT('',(-6.93889390390723E-18,0.02032,-0.1778));
#599=CARTESIAN_POINT('',(-0.06604,0.02032,-0.1778));
#600=CARTESIAN_POINT('',(-0.06604,0.,-0.1778));
#601=CARTESIAN_POINT('',(-0.06604,-0.02032,-0.1778));
#602=CARTESIAN_POINT('',(0.,-0.02032,-0.1778));
#603=CARTESIAN_POINT('',(1.83480367651393E-18,-0.01397,-0.1778));
#604=CARTESIAN_POINT('',(-0.05969,-0.01397,-0.1778));
#605=CARTESIAN_POINT('',(-0.05969,-6.93889390390723E-18,-0.1778));
#606=CARTESIAN_POINT('',(-0.05969,0.01397,-0.1778));
#607=CARTESIAN_POINT('',(-6.10489223276453E-18,0.01397,-0.1778));
#608=CARTESIAN_POINT('',(-0.037465,-0.00635,-0.17907));
#609=CARTESIAN_POINT('',(-0.037465,-0.00635,-0.17907));
#610=CARTESIAN_POINT('',(-0.041275,-0.00635,-0.17907));
#611=CARTESIAN_POINT('',(0.003175,-6.93889390390723E-18,-0.17907));
#612=CARTESIAN_POINT('',(0.059055,0.00635,-0.17907));
#613=CARTESIAN_POINT('',(0.059055,0.00635,-0.17907));
#614=CARTESIAN_POINT('',(0.055245,0.00635,-0.17907));
#615=CARTESIAN_POINT('',(0.003175,-6.93889390390723E-18,-0.17907));
#616=CARTESIAN_POINT('',(0.010795,-0.00635,-0.17907));
#617=CARTESIAN_POINT('',(0.010795,-0.00635,-0.17907));
#618=CARTESIAN_POINT('',(0.006985,-0.00635,-0.17907));
#619=CARTESIAN_POINT('',(0.003175,-6.93889390390723E-18,-0.17907));
#620=CARTESIAN_POINT('',(-0.013335,0.00635,-0.17907));
#621=CARTESIAN_POINT('',(-0.013335,0.00635,-0.17907));
#622=CARTESIAN_POINT('',(-0.017145,0.00635,-0.17907));
#623=CARTESIAN_POINT('',(0.003175,-6.93889390390723E-18,-0.17907));
#624=CARTESIAN_POINT('',(-0.013335,-0.00635,-0.17907));
#625=CARTESIAN_POINT('',(-0.013335,-0.00635,-0.17907));
#626=CARTESIAN_POINT('',(-0.017145,-0.00635,-0.17907));
#627=CARTESIAN_POINT('',(0.003175,-6.93889390390723E-18,-0.17907));
#628=CARTESIAN_POINT('',(-0.037465,0.00635,-0.17907));
#629=CARTESIAN_POINT('',(-0.037465,0.00635,-0.17907));
#630=CARTESIAN_POINT('',(-0.041275,0.00635,-0.17907));
#631=CARTESIAN_POINT('',(0.003175,-6.93889390390723E-18,-0.17907));
#632=CARTESIAN_POINT('',(0.059055,-0.00635,-0.17907));
#633=CARTESIAN_POINT('',(0.059055,-0.00635,-0.17907));
#634=CARTESIAN_POINT('',(0.055245,-0.00635,-0.17907));
#635=CARTESIAN_POINT('',(0.003175,-6.93889390390723E-18,-0.17907));
#636=CARTESIAN_POINT('',(0.034925,0.00635,-0.17907));
#637=CARTESIAN_POINT('',(0.034925,0.00635,-0.17907));
#638=CARTESIAN_POINT('',(0.031115,0.00635,-0.17907));
#639=CARTESIAN_POINT('',(0.003175,-6.93889390390723E-18,-0.17907));
#640=CARTESIAN_POINT('',(0.034925,-0.00635,-0.17907));
#641=CARTESIAN_POINT('',(0.034925,-0.00635,-0.17907));
#642=CARTESIAN_POINT('',(0.031115,-0.00635,-0.17907));
#643=CARTESIAN_POINT('',(0.003175,-6.93889390390723E-18,-0.17907));
#644=CARTESIAN_POINT('',(0.010795,0.00635,-0.17907));
#645=CARTESIAN_POINT('',(0.010795,0.00635,-0.17907));
#646=CARTESIAN_POINT('',(0.006985,0.00635,-0.17907));
#647=CARTESIAN_POINT('',(0.003175,-6.93889390390723E-18,-0.17907));
#648=MECHANICAL_DESIGN_GEOMETRIC_PRESENTATION_REPRESENTATION('',(#361),
#649);
#649=(
GEOMETRIC_REPRESENTATION_CONTEXT(3)
GLOBAL_UNCERTAINTY_ASSIGNED_CONTEXT((#650))
GLOBAL_UNIT_ASSIGNED_CONTEXT((#653,#652,#651))
REPRESENTATION_CONTEXT('Wood Spring Piece','TOP_LEVEL_ASSEMBLY_PART')
);
#650=UNCERTAINTY_MEASURE_WITH_UNIT(LENGTH_MEASURE(1.E-8),#653,
'DISTANCE_ACCURACY_VALUE','Maximum Tolerance applied to model');
#651=(
NAMED_UNIT(*)
SI_UNIT($,.STERADIAN.)
SOLID_ANGLE_UNIT()
);
#652=(
NAMED_UNIT(*)
PLANE_ANGLE_UNIT()
SI_UNIT($,.RADIAN.)
);
#653=(
LENGTH_UNIT()
NAMED_UNIT(*)
SI_UNIT($,.METRE.)
);
#654=PRODUCT_DEFINITION_SHAPE('','',#655);
#655=PRODUCT_DEFINITION('','',#657,#656);
#656=PRODUCT_DEFINITION_CONTEXT('',#663,'design');
#657=PRODUCT_DEFINITION_FORMATION_WITH_SPECIFIED_SOURCE('','',#659,
 .NOT_KNOWN.);
#658=PRODUCT_RELATED_PRODUCT_CATEGORY('','',(#659));
#659=PRODUCT('Wood Spring Piece','Wood Spring Piece',
'Wood Spring Piece',(#661));
#660=PRODUCT_CATEGORY('','');
#661=PRODUCT_CONTEXT('',#663,'mechanical');
#662=APPLICATION_PROTOCOL_DEFINITION('international standard',
'ap242_managed_model_based_3d_engineering',2020,#663);
#663=APPLICATION_CONTEXT('managed model based 3d engineering');
ENDSEC;
END-ISO-10303-21;
