ISO-10303-21;
HEADER;
/* Generated by software containing ST-Developer
 * from STEP Tools, Inc. (www.steptools.com) 
 */
/* OPTION: using custom renumber hook */

FILE_DESCRIPTION(
/* description */ ('STEP AP242 Edition 2',
'CAx-IF Rec.Pracs.---Representation and Presentation of Product Manufa
cturing Information (PMI)---4.0---2014-10-13',
'CAx-IF Rec.Pracs.---3D Tessellated Geometry---0.4---2014-09-14','2;1',
'CAx-IF Rec.Pracs.---User Defined Attributes---1.5---2016-08-15'),
/* implementation_level */ '2;1');

FILE_NAME(
/* name */ 'Idea 1',
/* time_stamp */ '2026-08-06T17:32:28Z',
/* author */ (''),
/* organization */ (''),
/* preprocessor_version */ 'ST-DEVELOPER v20',
/* originating_system */ 'ONSHAPE BY PTC INC, 1.218',
/* authorisation */ '  ');

FILE_SCHEMA (('AP242_MANAGED_MODEL_BASED_3D_ENGINEERING_MIM_LF { 1 0 10303 442 3 1 4 }'));
ENDSEC;

DATA;
#10=SHAPE_REPRESENTATION_RELATIONSHIP('','',#1342,#13);
#11=SHAPE_REPRESENTATION_RELATIONSHIP('','',#1343,#14);
#12=SHAPE_REPRESENTATION_RELATIONSHIP('','',#1344,#15);
#13=ADVANCED_BREP_SHAPE_REPRESENTATION('',(#1336),#2141);
#14=ADVANCED_BREP_SHAPE_REPRESENTATION('',(#1337),#2142);
#15=ADVANCED_BREP_SHAPE_REPRESENTATION('',(#1338),#2143);
#16=CYLINDRICAL_SURFACE('',#1376,0.00351519330313567);
#17=CYLINDRICAL_SURFACE('',#1381,0.00351519330313566);
#18=CYLINDRICAL_SURFACE('',#1402,0.0032639);
#19=CYLINDRICAL_SURFACE('',#1403,0.0032639);
#20=CYLINDRICAL_SURFACE('',#1404,0.0032639);
#21=CYLINDRICAL_SURFACE('',#1405,0.0032639);
#22=CYLINDRICAL_SURFACE('',#1413,0.0032639);
#23=CYLINDRICAL_SURFACE('',#1414,0.0032639);
#24=CYLINDRICAL_SURFACE('',#1425,0.002286);
#25=CIRCLE('',#1348,0.00351519330313566);
#26=CIRCLE('',#1350,0.00351519330313566);
#27=CIRCLE('',#1351,0.00351519330313567);
#28=CIRCLE('',#1353,0.00351519330313567);
#29=CIRCLE('',#1385,0.0032639);
#30=CIRCLE('',#1386,0.0032639);
#31=CIRCLE('',#1387,0.0032639);
#32=CIRCLE('',#1388,0.0032639);
#33=CIRCLE('',#1389,0.0032639);
#34=CIRCLE('',#1390,0.0032639);
#35=CIRCLE('',#1396,0.0032639);
#36=CIRCLE('',#1397,0.0032639);
#37=CIRCLE('',#1398,0.0032639);
#38=CIRCLE('',#1399,0.0032639);
#39=CIRCLE('',#1400,0.0032639);
#40=CIRCLE('',#1401,0.0032639);
#41=CIRCLE('',#1418,0.002286);
#42=CIRCLE('',#1421,0.002286);
#43=ORIENTED_EDGE('',*,*,#395,.F.);
#44=ORIENTED_EDGE('',*,*,#396,.T.);
#45=ORIENTED_EDGE('',*,*,#397,.T.);
#46=ORIENTED_EDGE('',*,*,#398,.T.);
#47=ORIENTED_EDGE('',*,*,#399,.F.);
#48=ORIENTED_EDGE('',*,*,#400,.T.);
#49=ORIENTED_EDGE('',*,*,#401,.T.);
#50=ORIENTED_EDGE('',*,*,#402,.F.);
#51=ORIENTED_EDGE('',*,*,#403,.F.);
#52=ORIENTED_EDGE('',*,*,#404,.F.);
#53=ORIENTED_EDGE('',*,*,#405,.T.);
#54=ORIENTED_EDGE('',*,*,#406,.T.);
#55=ORIENTED_EDGE('',*,*,#407,.F.);
#56=ORIENTED_EDGE('',*,*,#408,.F.);
#57=ORIENTED_EDGE('',*,*,#409,.T.);
#58=ORIENTED_EDGE('',*,*,#410,.F.);
#59=ORIENTED_EDGE('',*,*,#411,.T.);
#60=ORIENTED_EDGE('',*,*,#412,.F.);
#61=ORIENTED_EDGE('',*,*,#413,.T.);
#62=ORIENTED_EDGE('',*,*,#414,.T.);
#63=ORIENTED_EDGE('',*,*,#415,.F.);
#64=ORIENTED_EDGE('',*,*,#416,.F.);
#65=ORIENTED_EDGE('',*,*,#417,.T.);
#66=ORIENTED_EDGE('',*,*,#397,.F.);
#67=ORIENTED_EDGE('',*,*,#418,.F.);
#68=ORIENTED_EDGE('',*,*,#419,.T.);
#69=ORIENTED_EDGE('',*,*,#420,.F.);
#70=ORIENTED_EDGE('',*,*,#421,.T.);
#71=ORIENTED_EDGE('',*,*,#422,.T.);
#72=ORIENTED_EDGE('',*,*,#423,.F.);
#73=ORIENTED_EDGE('',*,*,#424,.F.);
#74=ORIENTED_EDGE('',*,*,#425,.F.);
#75=ORIENTED_EDGE('',*,*,#426,.F.);
#76=ORIENTED_EDGE('',*,*,#427,.F.);
#77=ORIENTED_EDGE('',*,*,#428,.T.);
#78=ORIENTED_EDGE('',*,*,#429,.T.);
#79=ORIENTED_EDGE('',*,*,#430,.F.);
#80=ORIENTED_EDGE('',*,*,#431,.F.);
#81=ORIENTED_EDGE('',*,*,#432,.T.);
#82=ORIENTED_EDGE('',*,*,#433,.F.);
#83=ORIENTED_EDGE('',*,*,#434,.T.);
#84=ORIENTED_EDGE('',*,*,#395,.T.);
#85=ORIENTED_EDGE('',*,*,#435,.F.);
#86=ORIENTED_EDGE('',*,*,#436,.T.);
#87=ORIENTED_EDGE('',*,*,#437,.F.);
#88=ORIENTED_EDGE('',*,*,#438,.T.);
#89=ORIENTED_EDGE('',*,*,#439,.T.);
#90=ORIENTED_EDGE('',*,*,#440,.T.);
#91=ORIENTED_EDGE('',*,*,#441,.T.);
#92=ORIENTED_EDGE('',*,*,#442,.T.);
#93=ORIENTED_EDGE('',*,*,#443,.F.);
#94=ORIENTED_EDGE('',*,*,#444,.F.);
#95=ORIENTED_EDGE('',*,*,#445,.T.);
#96=ORIENTED_EDGE('',*,*,#446,.T.);
#97=ORIENTED_EDGE('',*,*,#447,.F.);
#98=ORIENTED_EDGE('',*,*,#448,.F.);
#99=ORIENTED_EDGE('',*,*,#424,.T.);
#100=ORIENTED_EDGE('',*,*,#449,.T.);
#101=ORIENTED_EDGE('',*,*,#441,.F.);
#102=ORIENTED_EDGE('',*,*,#450,.F.);
#103=ORIENTED_EDGE('',*,*,#415,.T.);
#104=ORIENTED_EDGE('',*,*,#451,.T.);
#105=ORIENTED_EDGE('',*,*,#406,.F.);
#106=ORIENTED_EDGE('',*,*,#452,.T.);
#107=ORIENTED_EDGE('',*,*,#400,.F.);
#108=ORIENTED_EDGE('',*,*,#453,.F.);
#109=ORIENTED_EDGE('',*,*,#410,.T.);
#110=ORIENTED_EDGE('',*,*,#454,.T.);
#111=ORIENTED_EDGE('',*,*,#429,.F.);
#112=ORIENTED_EDGE('',*,*,#455,.F.);
#113=ORIENTED_EDGE('',*,*,#402,.T.);
#114=ORIENTED_EDGE('',*,*,#456,.F.);
#115=ORIENTED_EDGE('',*,*,#407,.T.);
#116=ORIENTED_EDGE('',*,*,#451,.F.);
#117=ORIENTED_EDGE('',*,*,#414,.F.);
#118=ORIENTED_EDGE('',*,*,#430,.T.);
#119=ORIENTED_EDGE('',*,*,#454,.F.);
#120=ORIENTED_EDGE('',*,*,#401,.F.);
#121=ORIENTED_EDGE('',*,*,#452,.F.);
#122=ORIENTED_EDGE('',*,*,#428,.F.);
#123=ORIENTED_EDGE('',*,*,#457,.T.);
#124=ORIENTED_EDGE('',*,*,#437,.T.);
#125=ORIENTED_EDGE('',*,*,#458,.F.);
#126=ORIENTED_EDGE('',*,*,#459,.T.);
#127=ORIENTED_EDGE('',*,*,#460,.T.);
#128=ORIENTED_EDGE('',*,*,#447,.T.);
#129=ORIENTED_EDGE('',*,*,#461,.F.);
#130=ORIENTED_EDGE('',*,*,#462,.T.);
#131=ORIENTED_EDGE('',*,*,#463,.T.);
#132=ORIENTED_EDGE('',*,*,#403,.T.);
#133=ORIENTED_EDGE('',*,*,#455,.T.);
#134=ORIENTED_EDGE('',*,*,#464,.F.);
#135=ORIENTED_EDGE('',*,*,#421,.F.);
#136=ORIENTED_EDGE('',*,*,#465,.T.);
#137=ORIENTED_EDGE('',*,*,#431,.T.);
#138=ORIENTED_EDGE('',*,*,#449,.F.);
#139=ORIENTED_EDGE('',*,*,#423,.T.);
#140=ORIENTED_EDGE('',*,*,#466,.F.);
#141=ORIENTED_EDGE('',*,*,#442,.F.);
#142=ORIENTED_EDGE('',*,*,#443,.T.);
#143=ORIENTED_EDGE('',*,*,#466,.T.);
#144=ORIENTED_EDGE('',*,*,#422,.F.);
#145=ORIENTED_EDGE('',*,*,#464,.T.);
#146=ORIENTED_EDGE('',*,*,#467,.F.);
#147=ORIENTED_EDGE('',*,*,#435,.T.);
#148=ORIENTED_EDGE('',*,*,#398,.F.);
#149=ORIENTED_EDGE('',*,*,#417,.F.);
#150=ORIENTED_EDGE('',*,*,#445,.F.);
#151=ORIENTED_EDGE('',*,*,#468,.F.);
#152=ORIENTED_EDGE('',*,*,#469,.F.);
#153=ORIENTED_EDGE('',*,*,#470,.T.);
#154=ORIENTED_EDGE('',*,*,#467,.T.);
#155=ORIENTED_EDGE('',*,*,#416,.T.);
#156=ORIENTED_EDGE('',*,*,#450,.T.);
#157=ORIENTED_EDGE('',*,*,#405,.F.);
#158=ORIENTED_EDGE('',*,*,#471,.F.);
#159=ORIENTED_EDGE('',*,*,#472,.F.);
#160=ORIENTED_EDGE('',*,*,#473,.T.);
#161=ORIENTED_EDGE('',*,*,#427,.T.);
#162=ORIENTED_EDGE('',*,*,#474,.T.);
#163=ORIENTED_EDGE('',*,*,#438,.F.);
#164=ORIENTED_EDGE('',*,*,#457,.F.);
#165=ORIENTED_EDGE('',*,*,#448,.T.);
#166=ORIENTED_EDGE('',*,*,#440,.F.);
#167=ORIENTED_EDGE('',*,*,#475,.F.);
#168=ORIENTED_EDGE('',*,*,#425,.T.);
#169=ORIENTED_EDGE('',*,*,#426,.T.);
#170=ORIENTED_EDGE('',*,*,#475,.T.);
#171=ORIENTED_EDGE('',*,*,#439,.F.);
#172=ORIENTED_EDGE('',*,*,#474,.F.);
#173=ORIENTED_EDGE('',*,*,#446,.F.);
#174=ORIENTED_EDGE('',*,*,#473,.F.);
#175=ORIENTED_EDGE('',*,*,#476,.T.);
#176=ORIENTED_EDGE('',*,*,#461,.T.);
#177=ORIENTED_EDGE('',*,*,#404,.T.);
#178=ORIENTED_EDGE('',*,*,#463,.F.);
#179=ORIENTED_EDGE('',*,*,#477,.F.);
#180=ORIENTED_EDGE('',*,*,#471,.T.);
#181=ORIENTED_EDGE('',*,*,#476,.F.);
#182=ORIENTED_EDGE('',*,*,#472,.T.);
#183=ORIENTED_EDGE('',*,*,#477,.T.);
#184=ORIENTED_EDGE('',*,*,#462,.F.);
#185=ORIENTED_EDGE('',*,*,#436,.F.);
#186=ORIENTED_EDGE('',*,*,#470,.F.);
#187=ORIENTED_EDGE('',*,*,#478,.T.);
#188=ORIENTED_EDGE('',*,*,#458,.T.);
#189=ORIENTED_EDGE('',*,*,#444,.T.);
#190=ORIENTED_EDGE('',*,*,#460,.F.);
#191=ORIENTED_EDGE('',*,*,#479,.F.);
#192=ORIENTED_EDGE('',*,*,#468,.T.);
#193=ORIENTED_EDGE('',*,*,#478,.F.);
#194=ORIENTED_EDGE('',*,*,#469,.T.);
#195=ORIENTED_EDGE('',*,*,#479,.T.);
#196=ORIENTED_EDGE('',*,*,#459,.F.);
#197=ORIENTED_EDGE('',*,*,#419,.F.);
#198=ORIENTED_EDGE('',*,*,#480,.F.);
#199=ORIENTED_EDGE('',*,*,#433,.T.);
#200=ORIENTED_EDGE('',*,*,#481,.T.);
#201=ORIENTED_EDGE('',*,*,#418,.T.);
#202=ORIENTED_EDGE('',*,*,#396,.F.);
#203=ORIENTED_EDGE('',*,*,#434,.F.);
#204=ORIENTED_EDGE('',*,*,#480,.T.);
#205=ORIENTED_EDGE('',*,*,#420,.T.);
#206=ORIENTED_EDGE('',*,*,#481,.F.);
#207=ORIENTED_EDGE('',*,*,#432,.F.);
#208=ORIENTED_EDGE('',*,*,#465,.F.);
#209=ORIENTED_EDGE('',*,*,#411,.F.);
#210=ORIENTED_EDGE('',*,*,#453,.T.);
#211=ORIENTED_EDGE('',*,*,#399,.T.);
#212=ORIENTED_EDGE('',*,*,#482,.T.);
#213=ORIENTED_EDGE('',*,*,#413,.F.);
#214=ORIENTED_EDGE('',*,*,#483,.F.);
#215=ORIENTED_EDGE('',*,*,#408,.T.);
#216=ORIENTED_EDGE('',*,*,#456,.T.);
#217=ORIENTED_EDGE('',*,*,#412,.T.);
#218=ORIENTED_EDGE('',*,*,#482,.F.);
#219=ORIENTED_EDGE('',*,*,#409,.F.);
#220=ORIENTED_EDGE('',*,*,#483,.T.);
#221=ORIENTED_EDGE('',*,*,#484,.F.);
#222=ORIENTED_EDGE('',*,*,#485,.T.);
#223=ORIENTED_EDGE('',*,*,#486,.T.);
#224=ORIENTED_EDGE('',*,*,#487,.F.);
#225=ORIENTED_EDGE('',*,*,#488,.T.);
#226=ORIENTED_EDGE('',*,*,#489,.T.);
#227=ORIENTED_EDGE('',*,*,#490,.F.);
#228=ORIENTED_EDGE('',*,*,#491,.F.);
#229=ORIENTED_EDGE('',*,*,#492,.F.);
#230=ORIENTED_EDGE('',*,*,#493,.F.);
#231=ORIENTED_EDGE('',*,*,#494,.T.);
#232=ORIENTED_EDGE('',*,*,#495,.F.);
#233=ORIENTED_EDGE('',*,*,#496,.F.);
#234=ORIENTED_EDGE('',*,*,#497,.F.);
#235=ORIENTED_EDGE('',*,*,#498,.T.);
#236=ORIENTED_EDGE('',*,*,#489,.F.);
#237=ORIENTED_EDGE('',*,*,#499,.T.);
#238=ORIENTED_EDGE('',*,*,#500,.T.);
#239=ORIENTED_EDGE('',*,*,#501,.F.);
#240=ORIENTED_EDGE('',*,*,#502,.F.);
#241=ORIENTED_EDGE('',*,*,#503,.F.);
#242=ORIENTED_EDGE('',*,*,#504,.F.);
#243=ORIENTED_EDGE('',*,*,#505,.F.);
#244=ORIENTED_EDGE('',*,*,#506,.F.);
#245=ORIENTED_EDGE('',*,*,#507,.T.);
#246=ORIENTED_EDGE('',*,*,#508,.T.);
#247=ORIENTED_EDGE('',*,*,#509,.T.);
#248=ORIENTED_EDGE('',*,*,#510,.F.);
#249=ORIENTED_EDGE('',*,*,#511,.F.);
#250=ORIENTED_EDGE('',*,*,#506,.T.);
#251=ORIENTED_EDGE('',*,*,#512,.F.);
#252=ORIENTED_EDGE('',*,*,#513,.F.);
#253=ORIENTED_EDGE('',*,*,#514,.T.);
#254=ORIENTED_EDGE('',*,*,#515,.T.);
#255=ORIENTED_EDGE('',*,*,#516,.F.);
#256=ORIENTED_EDGE('',*,*,#517,.T.);
#257=ORIENTED_EDGE('',*,*,#495,.T.);
#258=ORIENTED_EDGE('',*,*,#518,.F.);
#259=ORIENTED_EDGE('',*,*,#519,.T.);
#260=ORIENTED_EDGE('',*,*,#520,.F.);
#261=ORIENTED_EDGE('',*,*,#521,.T.);
#262=ORIENTED_EDGE('',*,*,#510,.T.);
#263=ORIENTED_EDGE('',*,*,#522,.F.);
#264=ORIENTED_EDGE('',*,*,#508,.F.);
#265=ORIENTED_EDGE('',*,*,#523,.T.);
#266=ORIENTED_EDGE('',*,*,#513,.T.);
#267=ORIENTED_EDGE('',*,*,#524,.F.);
#268=ORIENTED_EDGE('',*,*,#525,.F.);
#269=ORIENTED_EDGE('',*,*,#526,.T.);
#270=ORIENTED_EDGE('',*,*,#527,.T.);
#271=ORIENTED_EDGE('',*,*,#528,.T.);
#272=ORIENTED_EDGE('',*,*,#529,.T.);
#273=ORIENTED_EDGE('',*,*,#505,.T.);
#274=ORIENTED_EDGE('',*,*,#522,.T.);
#275=ORIENTED_EDGE('',*,*,#512,.T.);
#276=ORIENTED_EDGE('',*,*,#509,.F.);
#277=ORIENTED_EDGE('',*,*,#504,.T.);
#278=ORIENTED_EDGE('',*,*,#529,.F.);
#279=ORIENTED_EDGE('',*,*,#503,.T.);
#280=ORIENTED_EDGE('',*,*,#528,.F.);
#281=ORIENTED_EDGE('',*,*,#502,.T.);
#282=ORIENTED_EDGE('',*,*,#527,.F.);
#283=ORIENTED_EDGE('',*,*,#501,.T.);
#284=ORIENTED_EDGE('',*,*,#526,.F.);
#285=ORIENTED_EDGE('',*,*,#530,.T.);
#286=ORIENTED_EDGE('',*,*,#531,.T.);
#287=ORIENTED_EDGE('',*,*,#496,.T.);
#288=ORIENTED_EDGE('',*,*,#517,.F.);
#289=ORIENTED_EDGE('',*,*,#532,.F.);
#290=ORIENTED_EDGE('',*,*,#533,.F.);
#291=ORIENTED_EDGE('',*,*,#518,.T.);
#292=ORIENTED_EDGE('',*,*,#494,.F.);
#293=ORIENTED_EDGE('',*,*,#534,.T.);
#294=ORIENTED_EDGE('',*,*,#491,.T.);
#295=ORIENTED_EDGE('',*,*,#535,.F.);
#296=ORIENTED_EDGE('',*,*,#514,.F.);
#297=ORIENTED_EDGE('',*,*,#523,.F.);
#298=ORIENTED_EDGE('',*,*,#507,.F.);
#299=ORIENTED_EDGE('',*,*,#511,.T.);
#300=ORIENTED_EDGE('',*,*,#521,.F.);
#301=ORIENTED_EDGE('',*,*,#533,.T.);
#302=ORIENTED_EDGE('',*,*,#536,.T.);
#303=ORIENTED_EDGE('',*,*,#537,.F.);
#304=ORIENTED_EDGE('',*,*,#519,.F.);
#305=ORIENTED_EDGE('',*,*,#534,.F.);
#306=ORIENTED_EDGE('',*,*,#520,.T.);
#307=ORIENTED_EDGE('',*,*,#537,.T.);
#308=ORIENTED_EDGE('',*,*,#538,.T.);
#309=ORIENTED_EDGE('',*,*,#492,.T.);
#310=ORIENTED_EDGE('',*,*,#488,.F.);
#311=ORIENTED_EDGE('',*,*,#539,.F.);
#312=ORIENTED_EDGE('',*,*,#530,.F.);
#313=ORIENTED_EDGE('',*,*,#516,.T.);
#314=ORIENTED_EDGE('',*,*,#540,.T.);
#315=ORIENTED_EDGE('',*,*,#515,.F.);
#316=ORIENTED_EDGE('',*,*,#535,.T.);
#317=ORIENTED_EDGE('',*,*,#490,.T.);
#318=ORIENTED_EDGE('',*,*,#498,.F.);
#319=ORIENTED_EDGE('',*,*,#541,.F.);
#320=ORIENTED_EDGE('',*,*,#540,.F.);
#321=ORIENTED_EDGE('',*,*,#525,.T.);
#322=ORIENTED_EDGE('',*,*,#500,.F.);
#323=ORIENTED_EDGE('',*,*,#524,.T.);
#324=ORIENTED_EDGE('',*,*,#499,.F.);
#325=ORIENTED_EDGE('',*,*,#539,.T.);
#326=ORIENTED_EDGE('',*,*,#541,.T.);
#327=ORIENTED_EDGE('',*,*,#497,.T.);
#328=ORIENTED_EDGE('',*,*,#531,.F.);
#329=ORIENTED_EDGE('',*,*,#538,.F.);
#330=ORIENTED_EDGE('',*,*,#536,.F.);
#331=ORIENTED_EDGE('',*,*,#532,.T.);
#332=ORIENTED_EDGE('',*,*,#493,.T.);
#333=ORIENTED_EDGE('',*,*,#542,.F.);
#334=ORIENTED_EDGE('',*,*,#543,.T.);
#335=ORIENTED_EDGE('',*,*,#544,.T.);
#336=ORIENTED_EDGE('',*,*,#485,.F.);
#337=ORIENTED_EDGE('',*,*,#545,.F.);
#338=ORIENTED_EDGE('',*,*,#546,.F.);
#339=ORIENTED_EDGE('',*,*,#547,.F.);
#340=ORIENTED_EDGE('',*,*,#548,.F.);
#341=ORIENTED_EDGE('',*,*,#549,.T.);
#342=ORIENTED_EDGE('',*,*,#545,.T.);
#343=ORIENTED_EDGE('',*,*,#484,.T.);
#344=ORIENTED_EDGE('',*,*,#550,.F.);
#345=ORIENTED_EDGE('',*,*,#551,.T.);
#346=ORIENTED_EDGE('',*,*,#552,.T.);
#347=ORIENTED_EDGE('',*,*,#553,.T.);
#348=ORIENTED_EDGE('',*,*,#548,.T.);
#349=ORIENTED_EDGE('',*,*,#487,.T.);
#350=ORIENTED_EDGE('',*,*,#554,.F.);
#351=ORIENTED_EDGE('',*,*,#486,.F.);
#352=ORIENTED_EDGE('',*,*,#544,.F.);
#353=ORIENTED_EDGE('',*,*,#555,.T.);
#354=ORIENTED_EDGE('',*,*,#554,.T.);
#355=ORIENTED_EDGE('',*,*,#543,.F.);
#356=ORIENTED_EDGE('',*,*,#556,.T.);
#357=ORIENTED_EDGE('',*,*,#550,.T.);
#358=ORIENTED_EDGE('',*,*,#555,.F.);
#359=ORIENTED_EDGE('',*,*,#556,.F.);
#360=ORIENTED_EDGE('',*,*,#542,.T.);
#361=ORIENTED_EDGE('',*,*,#557,.F.);
#362=ORIENTED_EDGE('',*,*,#551,.F.);
#363=ORIENTED_EDGE('',*,*,#557,.T.);
#364=ORIENTED_EDGE('',*,*,#547,.T.);
#365=ORIENTED_EDGE('',*,*,#558,.F.);
#366=ORIENTED_EDGE('',*,*,#552,.F.);
#367=ORIENTED_EDGE('',*,*,#558,.T.);
#368=ORIENTED_EDGE('',*,*,#546,.T.);
#369=ORIENTED_EDGE('',*,*,#549,.F.);
#370=ORIENTED_EDGE('',*,*,#553,.F.);
#371=ORIENTED_EDGE('',*,*,#559,.F.);
#372=ORIENTED_EDGE('',*,*,#560,.F.);
#373=ORIENTED_EDGE('',*,*,#561,.T.);
#374=ORIENTED_EDGE('',*,*,#562,.T.);
#375=ORIENTED_EDGE('',*,*,#563,.T.);
#376=ORIENTED_EDGE('',*,*,#564,.F.);
#377=ORIENTED_EDGE('',*,*,#565,.F.);
#378=ORIENTED_EDGE('',*,*,#560,.T.);
#379=ORIENTED_EDGE('',*,*,#566,.T.);
#380=ORIENTED_EDGE('',*,*,#567,.F.);
#381=ORIENTED_EDGE('',*,*,#568,.F.);
#382=ORIENTED_EDGE('',*,*,#564,.T.);
#383=ORIENTED_EDGE('',*,*,#569,.F.);
#384=ORIENTED_EDGE('',*,*,#562,.F.);
#385=ORIENTED_EDGE('',*,*,#570,.T.);
#386=ORIENTED_EDGE('',*,*,#567,.T.);
#387=ORIENTED_EDGE('',*,*,#561,.F.);
#388=ORIENTED_EDGE('',*,*,#565,.T.);
#389=ORIENTED_EDGE('',*,*,#568,.T.);
#390=ORIENTED_EDGE('',*,*,#570,.F.);
#391=ORIENTED_EDGE('',*,*,#559,.T.);
#392=ORIENTED_EDGE('',*,*,#569,.T.);
#393=ORIENTED_EDGE('',*,*,#566,.F.);
#394=ORIENTED_EDGE('',*,*,#563,.F.);
#395=EDGE_CURVE('',#571,#572,#692,.T.);
#396=EDGE_CURVE('',#571,#573,#693,.T.);
#397=EDGE_CURVE('',#573,#574,#694,.T.);
#398=EDGE_CURVE('',#574,#572,#695,.T.);
#399=EDGE_CURVE('',#575,#576,#696,.T.);
#400=EDGE_CURVE('',#575,#577,#697,.T.);
#401=EDGE_CURVE('',#577,#578,#698,.T.);
#402=EDGE_CURVE('',#579,#578,#699,.T.);
#403=EDGE_CURVE('',#580,#579,#700,.T.);
#404=EDGE_CURVE('',#581,#580,#701,.T.);
#405=EDGE_CURVE('',#581,#582,#702,.T.);
#406=EDGE_CURVE('',#582,#583,#703,.T.);
#407=EDGE_CURVE('',#584,#583,#704,.T.);
#408=EDGE_CURVE('',#585,#584,#705,.T.);
#409=EDGE_CURVE('',#585,#576,#25,.T.);
#410=EDGE_CURVE('',#586,#587,#706,.T.);
#411=EDGE_CURVE('',#586,#588,#707,.T.);
#412=EDGE_CURVE('',#589,#588,#26,.T.);
#413=EDGE_CURVE('',#589,#590,#708,.T.);
#414=EDGE_CURVE('',#590,#591,#709,.T.);
#415=EDGE_CURVE('',#592,#591,#710,.T.);
#416=EDGE_CURVE('',#593,#592,#711,.T.);
#417=EDGE_CURVE('',#593,#574,#712,.T.);
#418=EDGE_CURVE('',#594,#573,#713,.T.);
#419=EDGE_CURVE('',#594,#595,#27,.T.);
#420=EDGE_CURVE('',#596,#595,#714,.T.);
#421=EDGE_CURVE('',#596,#597,#715,.T.);
#422=EDGE_CURVE('',#597,#598,#716,.T.);
#423=EDGE_CURVE('',#599,#598,#717,.T.);
#424=EDGE_CURVE('',#600,#599,#718,.T.);
#425=EDGE_CURVE('',#601,#600,#719,.T.);
#426=EDGE_CURVE('',#602,#601,#720,.T.);
#427=EDGE_CURVE('',#603,#602,#721,.T.);
#428=EDGE_CURVE('',#603,#604,#722,.T.);
#429=EDGE_CURVE('',#604,#605,#723,.T.);
#430=EDGE_CURVE('',#587,#605,#724,.T.);
#431=EDGE_CURVE('',#606,#607,#725,.T.);
#432=EDGE_CURVE('',#606,#608,#726,.T.);
#433=EDGE_CURVE('',#609,#608,#28,.T.);
#434=EDGE_CURVE('',#609,#571,#727,.T.);
#435=EDGE_CURVE('',#610,#572,#728,.T.);
#436=EDGE_CURVE('',#610,#611,#729,.T.);
#437=EDGE_CURVE('',#612,#611,#730,.T.);
#438=EDGE_CURVE('',#612,#613,#731,.T.);
#439=EDGE_CURVE('',#613,#614,#732,.T.);
#440=EDGE_CURVE('',#614,#615,#733,.T.);
#441=EDGE_CURVE('',#615,#616,#734,.T.);
#442=EDGE_CURVE('',#616,#617,#735,.T.);
#443=EDGE_CURVE('',#607,#617,#736,.T.);
#444=EDGE_CURVE('',#618,#619,#737,.T.);
#445=EDGE_CURVE('',#618,#620,#738,.T.);
#446=EDGE_CURVE('',#620,#621,#739,.T.);
#447=EDGE_CURVE('',#619,#621,#740,.T.);
#448=EDGE_CURVE('',#600,#615,#741,.T.);
#449=EDGE_CURVE('',#599,#616,#742,.T.);
#450=EDGE_CURVE('',#592,#582,#743,.T.);
#451=EDGE_CURVE('',#591,#583,#744,.T.);
#452=EDGE_CURVE('',#587,#577,#745,.T.);
#453=EDGE_CURVE('',#586,#575,#746,.T.);
#454=EDGE_CURVE('',#578,#605,#747,.T.);
#455=EDGE_CURVE('',#579,#604,#748,.T.);
#456=EDGE_CURVE('',#584,#590,#749,.T.);
#457=EDGE_CURVE('',#603,#612,#750,.T.);
#458=EDGE_CURVE('',#622,#611,#751,.T.);
#459=EDGE_CURVE('',#622,#623,#752,.T.);
#460=EDGE_CURVE('',#623,#619,#753,.T.);
#461=EDGE_CURVE('',#624,#621,#754,.T.);
#462=EDGE_CURVE('',#624,#625,#755,.T.);
#463=EDGE_CURVE('',#625,#580,#756,.T.);
#464=EDGE_CURVE('',#597,#607,#757,.T.);
#465=EDGE_CURVE('',#596,#606,#758,.T.);
#466=EDGE_CURVE('',#617,#598,#759,.T.);
#467=EDGE_CURVE('',#610,#593,#760,.T.);
#468=EDGE_CURVE('',#626,#618,#761,.T.);
#469=EDGE_CURVE('',#627,#626,#762,.T.);
#470=EDGE_CURVE('',#627,#610,#763,.T.);
#471=EDGE_CURVE('',#628,#581,#764,.T.);
#472=EDGE_CURVE('',#629,#628,#765,.T.);
#473=EDGE_CURVE('',#629,#620,#766,.T.);
#474=EDGE_CURVE('',#602,#613,#767,.T.);
#475=EDGE_CURVE('',#601,#614,#768,.T.);
#476=EDGE_CURVE('',#629,#624,#769,.T.);
#477=EDGE_CURVE('',#628,#625,#770,.T.);
#478=EDGE_CURVE('',#627,#622,#771,.T.);
#479=EDGE_CURVE('',#626,#623,#772,.T.);
#480=EDGE_CURVE('',#609,#594,#773,.T.);
#481=EDGE_CURVE('',#608,#595,#774,.T.);
#482=EDGE_CURVE('',#576,#588,#775,.T.);
#483=EDGE_CURVE('',#585,#589,#776,.T.);
#484=EDGE_CURVE('',#630,#631,#777,.T.);
#485=EDGE_CURVE('',#630,#632,#778,.T.);
#486=EDGE_CURVE('',#632,#633,#779,.T.);
#487=EDGE_CURVE('',#631,#633,#780,.T.);
#488=EDGE_CURVE('',#634,#635,#781,.T.);
#489=EDGE_CURVE('',#635,#636,#782,.T.);
#490=EDGE_CURVE('',#637,#636,#783,.T.);
#491=EDGE_CURVE('',#634,#637,#784,.T.);
#492=EDGE_CURVE('',#638,#635,#785,.T.);
#493=EDGE_CURVE('',#639,#638,#786,.T.);
#494=EDGE_CURVE('',#639,#640,#787,.T.);
#495=EDGE_CURVE('',#641,#640,#788,.T.);
#496=EDGE_CURVE('',#642,#641,#789,.T.);
#497=EDGE_CURVE('',#643,#642,#790,.T.);
#498=EDGE_CURVE('',#643,#636,#791,.T.);
#499=EDGE_CURVE('',#644,#644,#29,.T.);
#500=EDGE_CURVE('',#645,#645,#30,.T.);
#501=EDGE_CURVE('',#646,#646,#31,.T.);
#502=EDGE_CURVE('',#647,#647,#32,.T.);
#503=EDGE_CURVE('',#648,#648,#33,.T.);
#504=EDGE_CURVE('',#649,#649,#34,.T.);
#505=EDGE_CURVE('',#650,#651,#792,.T.);
#506=EDGE_CURVE('',#652,#650,#793,.T.);
#507=EDGE_CURVE('',#652,#653,#794,.T.);
#508=EDGE_CURVE('',#653,#651,#795,.T.);
#509=EDGE_CURVE('',#650,#654,#796,.T.);
#510=EDGE_CURVE('',#655,#654,#797,.T.);
#511=EDGE_CURVE('',#652,#655,#798,.T.);
#512=EDGE_CURVE('',#656,#654,#799,.T.);
#513=EDGE_CURVE('',#657,#656,#800,.T.);
#514=EDGE_CURVE('',#657,#658,#801,.T.);
#515=EDGE_CURVE('',#658,#659,#802,.T.);
#516=EDGE_CURVE('',#660,#659,#803,.T.);
#517=EDGE_CURVE('',#660,#641,#804,.T.);
#518=EDGE_CURVE('',#661,#640,#805,.T.);
#519=EDGE_CURVE('',#661,#662,#806,.T.);
#520=EDGE_CURVE('',#663,#662,#807,.T.);
#521=EDGE_CURVE('',#663,#655,#808,.T.);
#522=EDGE_CURVE('',#651,#656,#809,.T.);
#523=EDGE_CURVE('',#653,#657,#810,.T.);
#524=EDGE_CURVE('',#664,#664,#35,.T.);
#525=EDGE_CURVE('',#665,#665,#36,.T.);
#526=EDGE_CURVE('',#666,#666,#37,.T.);
#527=EDGE_CURVE('',#667,#667,#38,.T.);
#528=EDGE_CURVE('',#668,#668,#39,.T.);
#529=EDGE_CURVE('',#669,#669,#40,.T.);
#530=EDGE_CURVE('',#660,#670,#811,.T.);
#531=EDGE_CURVE('',#670,#642,#812,.T.);
#532=EDGE_CURVE('',#671,#639,#813,.T.);
#533=EDGE_CURVE('',#661,#671,#814,.T.);
#534=EDGE_CURVE('',#663,#634,#815,.T.);
#535=EDGE_CURVE('',#658,#637,#816,.T.);
#536=EDGE_CURVE('',#671,#672,#817,.T.);
#537=EDGE_CURVE('',#662,#672,#818,.T.);
#538=EDGE_CURVE('',#672,#638,#819,.T.);
#539=EDGE_CURVE('',#670,#673,#820,.T.);
#540=EDGE_CURVE('',#659,#673,#821,.T.);
#541=EDGE_CURVE('',#673,#643,#822,.T.);
#542=EDGE_CURVE('',#674,#675,#823,.T.);
#543=EDGE_CURVE('',#674,#676,#824,.T.);
#544=EDGE_CURVE('',#676,#632,#825,.T.);
#545=EDGE_CURVE('',#677,#630,#826,.T.);
#546=EDGE_CURVE('',#678,#677,#827,.T.);
#547=EDGE_CURVE('',#675,#678,#41,.T.);
#548=EDGE_CURVE('',#679,#631,#828,.T.);
#549=EDGE_CURVE('',#679,#677,#829,.T.);
#550=EDGE_CURVE('',#680,#681,#830,.T.);
#551=EDGE_CURVE('',#680,#682,#831,.T.);
#552=EDGE_CURVE('',#682,#683,#42,.T.);
#553=EDGE_CURVE('',#683,#679,#832,.T.);
#554=EDGE_CURVE('',#681,#633,#833,.T.);
#555=EDGE_CURVE('',#676,#681,#834,.T.);
#556=EDGE_CURVE('',#674,#680,#835,.T.);
#557=EDGE_CURVE('',#682,#675,#836,.T.);
#558=EDGE_CURVE('',#683,#678,#837,.T.);
#559=EDGE_CURVE('',#684,#685,#838,.T.);
#560=EDGE_CURVE('',#686,#684,#839,.T.);
#561=EDGE_CURVE('',#686,#687,#840,.T.);
#562=EDGE_CURVE('',#687,#685,#841,.T.);
#563=EDGE_CURVE('',#684,#688,#842,.T.);
#564=EDGE_CURVE('',#689,#688,#843,.T.);
#565=EDGE_CURVE('',#686,#689,#844,.T.);
#566=EDGE_CURVE('',#688,#690,#845,.T.);
#567=EDGE_CURVE('',#691,#690,#846,.T.);
#568=EDGE_CURVE('',#689,#691,#847,.T.);
#569=EDGE_CURVE('',#685,#690,#848,.T.);
#570=EDGE_CURVE('',#687,#691,#849,.T.);
#571=VERTEX_POINT('',#1773);
#572=VERTEX_POINT('',#1774);
#573=VERTEX_POINT('',#1776);
#574=VERTEX_POINT('',#1778);
#575=VERTEX_POINT('',#1782);
#576=VERTEX_POINT('',#1783);
#577=VERTEX_POINT('',#1785);
#578=VERTEX_POINT('',#1787);
#579=VERTEX_POINT('',#1789);
#580=VERTEX_POINT('',#1791);
#581=VERTEX_POINT('',#1793);
#582=VERTEX_POINT('',#1795);
#583=VERTEX_POINT('',#1797);
#584=VERTEX_POINT('',#1799);
#585=VERTEX_POINT('',#1801);
#586=VERTEX_POINT('',#1805);
#587=VERTEX_POINT('',#1806);
#588=VERTEX_POINT('',#1808);
#589=VERTEX_POINT('',#1810);
#590=VERTEX_POINT('',#1812);
#591=VERTEX_POINT('',#1814);
#592=VERTEX_POINT('',#1816);
#593=VERTEX_POINT('',#1818);
#594=VERTEX_POINT('',#1821);
#595=VERTEX_POINT('',#1823);
#596=VERTEX_POINT('',#1825);
#597=VERTEX_POINT('',#1827);
#598=VERTEX_POINT('',#1829);
#599=VERTEX_POINT('',#1831);
#600=VERTEX_POINT('',#1833);
#601=VERTEX_POINT('',#1835);
#602=VERTEX_POINT('',#1837);
#603=VERTEX_POINT('',#1839);
#604=VERTEX_POINT('',#1841);
#605=VERTEX_POINT('',#1843);
#606=VERTEX_POINT('',#1847);
#607=VERTEX_POINT('',#1848);
#608=VERTEX_POINT('',#1850);
#609=VERTEX_POINT('',#1852);
#610=VERTEX_POINT('',#1855);
#611=VERTEX_POINT('',#1857);
#612=VERTEX_POINT('',#1859);
#613=VERTEX_POINT('',#1861);
#614=VERTEX_POINT('',#1863);
#615=VERTEX_POINT('',#1865);
#616=VERTEX_POINT('',#1867);
#617=VERTEX_POINT('',#1869);
#618=VERTEX_POINT('',#1873);
#619=VERTEX_POINT('',#1874);
#620=VERTEX_POINT('',#1876);
#621=VERTEX_POINT('',#1878);
#622=VERTEX_POINT('',#1898);
#623=VERTEX_POINT('',#1900);
#624=VERTEX_POINT('',#1903);
#625=VERTEX_POINT('',#1905);
#626=VERTEX_POINT('',#1917);
#627=VERTEX_POINT('',#1919);
#628=VERTEX_POINT('',#1922);
#629=VERTEX_POINT('',#1924);
#630=VERTEX_POINT('',#1954);
#631=VERTEX_POINT('',#1955);
#632=VERTEX_POINT('',#1957);
#633=VERTEX_POINT('',#1959);
#634=VERTEX_POINT('',#1962);
#635=VERTEX_POINT('',#1963);
#636=VERTEX_POINT('',#1965);
#637=VERTEX_POINT('',#1967);
#638=VERTEX_POINT('',#1971);
#639=VERTEX_POINT('',#1973);
#640=VERTEX_POINT('',#1975);
#641=VERTEX_POINT('',#1977);
#642=VERTEX_POINT('',#1979);
#643=VERTEX_POINT('',#1981);
#644=VERTEX_POINT('',#1984);
#645=VERTEX_POINT('',#1986);
#646=VERTEX_POINT('',#1988);
#647=VERTEX_POINT('',#1990);
#648=VERTEX_POINT('',#1992);
#649=VERTEX_POINT('',#1994);
#650=VERTEX_POINT('',#1997);
#651=VERTEX_POINT('',#1998);
#652=VERTEX_POINT('',#2000);
#653=VERTEX_POINT('',#2002);
#654=VERTEX_POINT('',#2006);
#655=VERTEX_POINT('',#2008);
#656=VERTEX_POINT('',#2012);
#657=VERTEX_POINT('',#2014);
#658=VERTEX_POINT('',#2016);
#659=VERTEX_POINT('',#2018);
#660=VERTEX_POINT('',#2020);
#661=VERTEX_POINT('',#2023);
#662=VERTEX_POINT('',#2025);
#663=VERTEX_POINT('',#2027);
#664=VERTEX_POINT('',#2034);
#665=VERTEX_POINT('',#2036);
#666=VERTEX_POINT('',#2038);
#667=VERTEX_POINT('',#2040);
#668=VERTEX_POINT('',#2042);
#669=VERTEX_POINT('',#2044);
#670=VERTEX_POINT('',#2051);
#671=VERTEX_POINT('',#2055);
#672=VERTEX_POINT('',#2062);
#673=VERTEX_POINT('',#2068);
#674=VERTEX_POINT('',#2078);
#675=VERTEX_POINT('',#2079);
#676=VERTEX_POINT('',#2081);
#677=VERTEX_POINT('',#2084);
#678=VERTEX_POINT('',#2086);
#679=VERTEX_POINT('',#2090);
#680=VERTEX_POINT('',#2094);
#681=VERTEX_POINT('',#2095);
#682=VERTEX_POINT('',#2097);
#683=VERTEX_POINT('',#2099);
#684=VERTEX_POINT('',#2114);
#685=VERTEX_POINT('',#2115);
#686=VERTEX_POINT('',#2117);
#687=VERTEX_POINT('',#2119);
#688=VERTEX_POINT('',#2123);
#689=VERTEX_POINT('',#2125);
#690=VERTEX_POINT('',#2129);
#691=VERTEX_POINT('',#2131);
#692=LINE('',#1772,#850);
#693=LINE('',#1775,#851);
#694=LINE('',#1777,#852);
#695=LINE('',#1779,#853);
#696=LINE('',#1781,#854);
#697=LINE('',#1784,#855);
#698=LINE('',#1786,#856);
#699=LINE('',#1788,#857);
#700=LINE('',#1790,#858);
#701=LINE('',#1792,#859);
#702=LINE('',#1794,#860);
#703=LINE('',#1796,#861);
#704=LINE('',#1798,#862);
#705=LINE('',#1800,#863);
#706=LINE('',#1804,#864);
#707=LINE('',#1807,#865);
#708=LINE('',#1811,#866);
#709=LINE('',#1813,#867);
#710=LINE('',#1815,#868);
#711=LINE('',#1817,#869);
#712=LINE('',#1819,#870);
#713=LINE('',#1820,#871);
#714=LINE('',#1824,#872);
#715=LINE('',#1826,#873);
#716=LINE('',#1828,#874);
#717=LINE('',#1830,#875);
#718=LINE('',#1832,#876);
#719=LINE('',#1834,#877);
#720=LINE('',#1836,#878);
#721=LINE('',#1838,#879);
#722=LINE('',#1840,#880);
#723=LINE('',#1842,#881);
#724=LINE('',#1844,#882);
#725=LINE('',#1846,#883);
#726=LINE('',#1849,#884);
#727=LINE('',#1853,#885);
#728=LINE('',#1854,#886);
#729=LINE('',#1856,#887);
#730=LINE('',#1858,#888);
#731=LINE('',#1860,#889);
#732=LINE('',#1862,#890);
#733=LINE('',#1864,#891);
#734=LINE('',#1866,#892);
#735=LINE('',#1868,#893);
#736=LINE('',#1870,#894);
#737=LINE('',#1872,#895);
#738=LINE('',#1875,#896);
#739=LINE('',#1877,#897);
#740=LINE('',#1879,#898);
#741=LINE('',#1881,#899);
#742=LINE('',#1882,#900);
#743=LINE('',#1884,#901);
#744=LINE('',#1885,#902);
#745=LINE('',#1887,#903);
#746=LINE('',#1888,#904);
#747=LINE('',#1890,#905);
#748=LINE('',#1891,#906);
#749=LINE('',#1893,#907);
#750=LINE('',#1896,#908);
#751=LINE('',#1897,#909);
#752=LINE('',#1899,#910);
#753=LINE('',#1901,#911);
#754=LINE('',#1902,#912);
#755=LINE('',#1904,#913);
#756=LINE('',#1906,#914);
#757=LINE('',#1908,#915);
#758=LINE('',#1909,#916);
#759=LINE('',#1911,#917);
#760=LINE('',#1914,#918);
#761=LINE('',#1916,#919);
#762=LINE('',#1918,#920);
#763=LINE('',#1920,#921);
#764=LINE('',#1921,#922);
#765=LINE('',#1923,#923);
#766=LINE('',#1925,#924);
#767=LINE('',#1927,#925);
#768=LINE('',#1929,#926);
#769=LINE('',#1932,#927);
#770=LINE('',#1934,#928);
#771=LINE('',#1937,#929);
#772=LINE('',#1939,#930);
#773=LINE('',#1942,#931);
#774=LINE('',#1943,#932);
#775=LINE('',#1947,#933);
#776=LINE('',#1949,#934);
#777=LINE('',#1953,#935);
#778=LINE('',#1956,#936);
#779=LINE('',#1958,#937);
#780=LINE('',#1960,#938);
#781=LINE('',#1961,#939);
#782=LINE('',#1964,#940);
#783=LINE('',#1966,#941);
#784=LINE('',#1968,#942);
#785=LINE('',#1970,#943);
#786=LINE('',#1972,#944);
#787=LINE('',#1974,#945);
#788=LINE('',#1976,#946);
#789=LINE('',#1978,#947);
#790=LINE('',#1980,#948);
#791=LINE('',#1982,#949);
#792=LINE('',#1996,#950);
#793=LINE('',#1999,#951);
#794=LINE('',#2001,#952);
#795=LINE('',#2003,#953);
#796=LINE('',#2005,#954);
#797=LINE('',#2007,#955);
#798=LINE('',#2009,#956);
#799=LINE('',#2011,#957);
#800=LINE('',#2013,#958);
#801=LINE('',#2015,#959);
#802=LINE('',#2017,#960);
#803=LINE('',#2019,#961);
#804=LINE('',#2021,#962);
#805=LINE('',#2022,#963);
#806=LINE('',#2024,#964);
#807=LINE('',#2026,#965);
#808=LINE('',#2028,#966);
#809=LINE('',#2030,#967);
#810=LINE('',#2031,#968);
#811=LINE('',#2050,#969);
#812=LINE('',#2052,#970);
#813=LINE('',#2054,#971);
#814=LINE('',#2056,#972);
#815=LINE('',#2058,#973);
#816=LINE('',#2059,#974);
#817=LINE('',#2061,#975);
#818=LINE('',#2063,#976);
#819=LINE('',#2065,#977);
#820=LINE('',#2067,#978);
#821=LINE('',#2069,#979);
#822=LINE('',#2071,#980);
#823=LINE('',#2077,#981);
#824=LINE('',#2080,#982);
#825=LINE('',#2082,#983);
#826=LINE('',#2083,#984);
#827=LINE('',#2085,#985);
#828=LINE('',#2089,#986);
#829=LINE('',#2091,#987);
#830=LINE('',#2093,#988);
#831=LINE('',#2096,#989);
#832=LINE('',#2100,#990);
#833=LINE('',#2101,#991);
#834=LINE('',#2103,#992);
#835=LINE('',#2105,#993);
#836=LINE('',#2107,#994);
#837=LINE('',#2109,#995);
#838=LINE('',#2113,#996);
#839=LINE('',#2116,#997);
#840=LINE('',#2118,#998);
#841=LINE('',#2120,#999);
#842=LINE('',#2122,#1000);
#843=LINE('',#2124,#1001);
#844=LINE('',#2126,#1002);
#845=LINE('',#2128,#1003);
#846=LINE('',#2130,#1004);
#847=LINE('',#2132,#1005);
#848=LINE('',#2134,#1006);
#849=LINE('',#2135,#1007);
#850=VECTOR('',#1438,1.);
#851=VECTOR('',#1439,1.);
#852=VECTOR('',#1440,1.);
#853=VECTOR('',#1441,1.);
#854=VECTOR('',#1444,1.);
#855=VECTOR('',#1445,1.);
#856=VECTOR('',#1446,1.);
#857=VECTOR('',#1447,1.);
#858=VECTOR('',#1448,1.);
#859=VECTOR('',#1449,1.);
#860=VECTOR('',#1450,1.);
#861=VECTOR('',#1451,1.);
#862=VECTOR('',#1452,1.);
#863=VECTOR('',#1453,1.);
#864=VECTOR('',#1458,1.);
#865=VECTOR('',#1459,1.);
#866=VECTOR('',#1462,1.);
#867=VECTOR('',#1463,1.);
#868=VECTOR('',#1464,1.);
#869=VECTOR('',#1465,1.);
#870=VECTOR('',#1466,1.);
#871=VECTOR('',#1467,1.);
#872=VECTOR('',#1470,1.);
#873=VECTOR('',#1471,1.);
#874=VECTOR('',#1472,1.);
#875=VECTOR('',#1473,1.);
#876=VECTOR('',#1474,1.);
#877=VECTOR('',#1475,1.);
#878=VECTOR('',#1476,1.);
#879=VECTOR('',#1477,1.);
#880=VECTOR('',#1478,1.);
#881=VECTOR('',#1479,1.);
#882=VECTOR('',#1480,1.);
#883=VECTOR('',#1483,1.);
#884=VECTOR('',#1484,1.);
#885=VECTOR('',#1487,1.);
#886=VECTOR('',#1488,1.);
#887=VECTOR('',#1489,1.);
#888=VECTOR('',#1490,1.);
#889=VECTOR('',#1491,1.);
#890=VECTOR('',#1492,1.);
#891=VECTOR('',#1493,1.);
#892=VECTOR('',#1494,1.);
#893=VECTOR('',#1495,1.);
#894=VECTOR('',#1496,1.);
#895=VECTOR('',#1499,1.);
#896=VECTOR('',#1500,1.);
#897=VECTOR('',#1501,1.);
#898=VECTOR('',#1502,1.);
#899=VECTOR('',#1505,1.);
#900=VECTOR('',#1506,1.);
#901=VECTOR('',#1509,1.);
#902=VECTOR('',#1510,1.);
#903=VECTOR('',#1513,1.);
#904=VECTOR('',#1514,1.);
#905=VECTOR('',#1517,1.);
#906=VECTOR('',#1518,1.);
#907=VECTOR('',#1521,1.);
#908=VECTOR('',#1526,1.);
#909=VECTOR('',#1527,1.);
#910=VECTOR('',#1528,1.);
#911=VECTOR('',#1529,1.);
#912=VECTOR('',#1530,1.);
#913=VECTOR('',#1531,1.);
#914=VECTOR('',#1532,1.);
#915=VECTOR('',#1535,1.);
#916=VECTOR('',#1536,1.);
#917=VECTOR('',#1539,1.);
#918=VECTOR('',#1544,1.);
#919=VECTOR('',#1547,1.);
#920=VECTOR('',#1548,1.);
#921=VECTOR('',#1549,1.);
#922=VECTOR('',#1550,1.);
#923=VECTOR('',#1551,1.);
#924=VECTOR('',#1552,1.);
#925=VECTOR('',#1555,1.);
#926=VECTOR('',#1558,1.);
#927=VECTOR('',#1563,1.);
#928=VECTOR('',#1566,1.);
#929=VECTOR('',#1571,1.);
#930=VECTOR('',#1574,1.);
#931=VECTOR('',#1579,1.);
#932=VECTOR('',#1580,1.);
#933=VECTOR('',#1587,1.);
#934=VECTOR('',#1590,1.);
#935=VECTOR('',#1597,1.);
#936=VECTOR('',#1598,1.);
#937=VECTOR('',#1599,1.);
#938=VECTOR('',#1600,1.);
#939=VECTOR('',#1601,1.);
#940=VECTOR('',#1602,1.);
#941=VECTOR('',#1603,1.);
#942=VECTOR('',#1604,1.);
#943=VECTOR('',#1607,1.);
#944=VECTOR('',#1608,1.);
#945=VECTOR('',#1609,1.);
#946=VECTOR('',#1610,1.);
#947=VECTOR('',#1611,1.);
#948=VECTOR('',#1612,1.);
#949=VECTOR('',#1613,1.);
#950=VECTOR('',#1628,1.);
#951=VECTOR('',#1629,1.);
#952=VECTOR('',#1630,1.);
#953=VECTOR('',#1631,1.);
#954=VECTOR('',#1634,1.);
#955=VECTOR('',#1635,1.);
#956=VECTOR('',#1636,1.);
#957=VECTOR('',#1639,1.);
#958=VECTOR('',#1640,1.);
#959=VECTOR('',#1641,1.);
#960=VECTOR('',#1642,1.);
#961=VECTOR('',#1643,1.);
#962=VECTOR('',#1644,1.);
#963=VECTOR('',#1645,1.);
#964=VECTOR('',#1646,1.);
#965=VECTOR('',#1647,1.);
#966=VECTOR('',#1648,1.);
#967=VECTOR('',#1651,1.);
#968=VECTOR('',#1652,1.);
#969=VECTOR('',#1677,1.);
#970=VECTOR('',#1678,1.);
#971=VECTOR('',#1681,1.);
#972=VECTOR('',#1682,1.);
#973=VECTOR('',#1685,1.);
#974=VECTOR('',#1686,1.);
#975=VECTOR('',#1689,1.);
#976=VECTOR('',#1690,1.);
#977=VECTOR('',#1693,1.);
#978=VECTOR('',#1696,1.);
#979=VECTOR('',#1697,1.);
#980=VECTOR('',#1700,1.);
#981=VECTOR('',#1711,1.);
#982=VECTOR('',#1712,1.);
#983=VECTOR('',#1713,1.);
#984=VECTOR('',#1714,1.);
#985=VECTOR('',#1715,1.);
#986=VECTOR('',#1720,1.);
#987=VECTOR('',#1721,1.);
#988=VECTOR('',#1724,1.);
#989=VECTOR('',#1725,1.);
#990=VECTOR('',#1728,1.);
#991=VECTOR('',#1729,1.);
#992=VECTOR('',#1732,1.);
#993=VECTOR('',#1735,1.);
#994=VECTOR('',#1738,1.);
#995=VECTOR('',#1741,1.);
#996=VECTOR('',#1748,1.);
#997=VECTOR('',#1749,1.);
#998=VECTOR('',#1750,1.);
#999=VECTOR('',#1751,1.);
#1000=VECTOR('',#1754,1.);
#1001=VECTOR('',#1755,1.);
#1002=VECTOR('',#1756,1.);
#1003=VECTOR('',#1759,1.);
#1004=VECTOR('',#1760,1.);
#1005=VECTOR('',#1761,1.);
#1006=VECTOR('',#1764,1.);
#1007=VECTOR('',#1765,1.);
#1008=EDGE_LOOP('',(#43,#44,#45,#46));
#1009=EDGE_LOOP('',(#47,#48,#49,#50,#51,#52,#53,#54,#55,#56,#57));
#1010=EDGE_LOOP('',(#58,#59,#60,#61,#62,#63,#64,#65,#66,#67,#68,#69,#70,
#71,#72,#73,#74,#75,#76,#77,#78,#79));
#1011=EDGE_LOOP('',(#80,#81,#82,#83,#84,#85,#86,#87,#88,#89,#90,#91,#92,
#93));
#1012=EDGE_LOOP('',(#94,#95,#96,#97));
#1013=EDGE_LOOP('',(#98,#99,#100,#101));
#1014=EDGE_LOOP('',(#102,#103,#104,#105));
#1015=EDGE_LOOP('',(#106,#107,#108,#109));
#1016=EDGE_LOOP('',(#110,#111,#112,#113));
#1017=EDGE_LOOP('',(#114,#115,#116,#117));
#1018=EDGE_LOOP('',(#118,#119,#120,#121));
#1019=EDGE_LOOP('',(#122,#123,#124,#125,#126,#127,#128,#129,#130,#131,#132,
#133));
#1020=EDGE_LOOP('',(#134,#135,#136,#137));
#1021=EDGE_LOOP('',(#138,#139,#140,#141));
#1022=EDGE_LOOP('',(#142,#143,#144,#145));
#1023=EDGE_LOOP('',(#146,#147,#148,#149));
#1024=EDGE_LOOP('',(#150,#151,#152,#153,#154,#155,#156,#157,#158,#159,#160));
#1025=EDGE_LOOP('',(#161,#162,#163,#164));
#1026=EDGE_LOOP('',(#165,#166,#167,#168));
#1027=EDGE_LOOP('',(#169,#170,#171,#172));
#1028=EDGE_LOOP('',(#173,#174,#175,#176));
#1029=EDGE_LOOP('',(#177,#178,#179,#180));
#1030=EDGE_LOOP('',(#181,#182,#183,#184));
#1031=EDGE_LOOP('',(#185,#186,#187,#188));
#1032=EDGE_LOOP('',(#189,#190,#191,#192));
#1033=EDGE_LOOP('',(#193,#194,#195,#196));
#1034=EDGE_LOOP('',(#197,#198,#199,#200));
#1035=EDGE_LOOP('',(#201,#202,#203,#204));
#1036=EDGE_LOOP('',(#205,#206,#207,#208));
#1037=EDGE_LOOP('',(#209,#210,#211,#212));
#1038=EDGE_LOOP('',(#213,#214,#215,#216));
#1039=EDGE_LOOP('',(#217,#218,#219,#220));
#1040=EDGE_LOOP('',(#221,#222,#223,#224));
#1041=EDGE_LOOP('',(#225,#226,#227,#228));
#1042=EDGE_LOOP('',(#229,#230,#231,#232,#233,#234,#235,#236));
#1043=EDGE_LOOP('',(#237));
#1044=EDGE_LOOP('',(#238));
#1045=EDGE_LOOP('',(#239));
#1046=EDGE_LOOP('',(#240));
#1047=EDGE_LOOP('',(#241));
#1048=EDGE_LOOP('',(#242));
#1049=EDGE_LOOP('',(#243,#244,#245,#246));
#1050=EDGE_LOOP('',(#247,#248,#249,#250));
#1051=EDGE_LOOP('',(#251,#252,#253,#254,#255,#256,#257,#258,#259,#260,#261,
#262));
#1052=EDGE_LOOP('',(#263,#264,#265,#266));
#1053=EDGE_LOOP('',(#267));
#1054=EDGE_LOOP('',(#268));
#1055=EDGE_LOOP('',(#269));
#1056=EDGE_LOOP('',(#270));
#1057=EDGE_LOOP('',(#271));
#1058=EDGE_LOOP('',(#272));
#1059=EDGE_LOOP('',(#273,#274,#275,#276));
#1060=EDGE_LOOP('',(#277));
#1061=EDGE_LOOP('',(#278));
#1062=EDGE_LOOP('',(#279));
#1063=EDGE_LOOP('',(#280));
#1064=EDGE_LOOP('',(#281));
#1065=EDGE_LOOP('',(#282));
#1066=EDGE_LOOP('',(#283));
#1067=EDGE_LOOP('',(#284));
#1068=EDGE_LOOP('',(#285,#286,#287,#288));
#1069=EDGE_LOOP('',(#289,#290,#291,#292));
#1070=EDGE_LOOP('',(#293,#294,#295,#296,#297,#298,#299,#300));
#1071=EDGE_LOOP('',(#301,#302,#303,#304));
#1072=EDGE_LOOP('',(#305,#306,#307,#308,#309,#310));
#1073=EDGE_LOOP('',(#311,#312,#313,#314));
#1074=EDGE_LOOP('',(#315,#316,#317,#318,#319,#320));
#1075=EDGE_LOOP('',(#321));
#1076=EDGE_LOOP('',(#322));
#1077=EDGE_LOOP('',(#323));
#1078=EDGE_LOOP('',(#324));
#1079=EDGE_LOOP('',(#325,#326,#327,#328));
#1080=EDGE_LOOP('',(#329,#330,#331,#332));
#1081=EDGE_LOOP('',(#333,#334,#335,#336,#337,#338,#339));
#1082=EDGE_LOOP('',(#340,#341,#342,#343));
#1083=EDGE_LOOP('',(#344,#345,#346,#347,#348,#349,#350));
#1084=EDGE_LOOP('',(#351,#352,#353,#354));
#1085=EDGE_LOOP('',(#355,#356,#357,#358));
#1086=EDGE_LOOP('',(#359,#360,#361,#362));
#1087=EDGE_LOOP('',(#363,#364,#365,#366));
#1088=EDGE_LOOP('',(#367,#368,#369,#370));
#1089=EDGE_LOOP('',(#371,#372,#373,#374));
#1090=EDGE_LOOP('',(#375,#376,#377,#378));
#1091=EDGE_LOOP('',(#379,#380,#381,#382));
#1092=EDGE_LOOP('',(#383,#384,#385,#386));
#1093=EDGE_LOOP('',(#387,#388,#389,#390));
#1094=EDGE_LOOP('',(#391,#392,#393,#394));
#1095=FACE_BOUND('',#1008,.T.);
#1096=FACE_BOUND('',#1009,.T.);
#1097=FACE_BOUND('',#1010,.T.);
#1098=FACE_BOUND('',#1011,.T.);
#1099=FACE_BOUND('',#1012,.T.);
#1100=FACE_BOUND('',#1013,.T.);
#1101=FACE_BOUND('',#1014,.T.);
#1102=FACE_BOUND('',#1015,.T.);
#1103=FACE_BOUND('',#1016,.T.);
#1104=FACE_BOUND('',#1017,.T.);
#1105=FACE_BOUND('',#1018,.T.);
#1106=FACE_BOUND('',#1019,.T.);
#1107=FACE_BOUND('',#1020,.T.);
#1108=FACE_BOUND('',#1021,.T.);
#1109=FACE_BOUND('',#1022,.T.);
#1110=FACE_BOUND('',#1023,.T.);
#1111=FACE_BOUND('',#1024,.T.);
#1112=FACE_BOUND('',#1025,.T.);
#1113=FACE_BOUND('',#1026,.T.);
#1114=FACE_BOUND('',#1027,.T.);
#1115=FACE_BOUND('',#1028,.T.);
#1116=FACE_BOUND('',#1029,.T.);
#1117=FACE_BOUND('',#1030,.T.);
#1118=FACE_BOUND('',#1031,.T.);
#1119=FACE_BOUND('',#1032,.T.);
#1120=FACE_BOUND('',#1033,.T.);
#1121=FACE_BOUND('',#1034,.T.);
#1122=FACE_BOUND('',#1035,.T.);
#1123=FACE_BOUND('',#1036,.T.);
#1124=FACE_BOUND('',#1037,.T.);
#1125=FACE_BOUND('',#1038,.T.);
#1126=FACE_BOUND('',#1039,.T.);
#1127=FACE_BOUND('',#1040,.T.);
#1128=FACE_BOUND('',#1041,.T.);
#1129=FACE_BOUND('',#1042,.T.);
#1130=FACE_BOUND('',#1043,.T.);
#1131=FACE_BOUND('',#1044,.T.);
#1132=FACE_BOUND('',#1045,.T.);
#1133=FACE_BOUND('',#1046,.T.);
#1134=FACE_BOUND('',#1047,.T.);
#1135=FACE_BOUND('',#1048,.T.);
#1136=FACE_BOUND('',#1049,.T.);
#1137=FACE_BOUND('',#1050,.T.);
#1138=FACE_BOUND('',#1051,.T.);
#1139=FACE_BOUND('',#1052,.T.);
#1140=FACE_BOUND('',#1053,.T.);
#1141=FACE_BOUND('',#1054,.T.);
#1142=FACE_BOUND('',#1055,.T.);
#1143=FACE_BOUND('',#1056,.T.);
#1144=FACE_BOUND('',#1057,.T.);
#1145=FACE_BOUND('',#1058,.T.);
#1146=FACE_BOUND('',#1059,.T.);
#1147=FACE_BOUND('',#1060,.T.);
#1148=FACE_BOUND('',#1061,.T.);
#1149=FACE_BOUND('',#1062,.T.);
#1150=FACE_BOUND('',#1063,.T.);
#1151=FACE_BOUND('',#1064,.T.);
#1152=FACE_BOUND('',#1065,.T.);
#1153=FACE_BOUND('',#1066,.T.);
#1154=FACE_BOUND('',#1067,.T.);
#1155=FACE_BOUND('',#1068,.T.);
#1156=FACE_BOUND('',#1069,.T.);
#1157=FACE_BOUND('',#1070,.T.);
#1158=FACE_BOUND('',#1071,.T.);
#1159=FACE_BOUND('',#1072,.T.);
#1160=FACE_BOUND('',#1073,.T.);
#1161=FACE_BOUND('',#1074,.T.);
#1162=FACE_BOUND('',#1075,.T.);
#1163=FACE_BOUND('',#1076,.T.);
#1164=FACE_BOUND('',#1077,.T.);
#1165=FACE_BOUND('',#1078,.T.);
#1166=FACE_BOUND('',#1079,.T.);
#1167=FACE_BOUND('',#1080,.T.);
#1168=FACE_BOUND('',#1081,.T.);
#1169=FACE_BOUND('',#1082,.T.);
#1170=FACE_BOUND('',#1083,.T.);
#1171=FACE_BOUND('',#1084,.T.);
#1172=FACE_BOUND('',#1085,.T.);
#1173=FACE_BOUND('',#1086,.T.);
#1174=FACE_BOUND('',#1087,.T.);
#1175=FACE_BOUND('',#1088,.T.);
#1176=FACE_BOUND('',#1089,.T.);
#1177=FACE_BOUND('',#1090,.T.);
#1178=FACE_BOUND('',#1091,.T.);
#1179=FACE_BOUND('',#1092,.T.);
#1180=FACE_BOUND('',#1093,.T.);
#1181=FACE_BOUND('',#1094,.T.);
#1182=PLANE('',#1346);
#1183=PLANE('',#1347);
#1184=PLANE('',#1349);
#1185=PLANE('',#1352);
#1186=PLANE('',#1354);
#1187=PLANE('',#1355);
#1188=PLANE('',#1356);
#1189=PLANE('',#1357);
#1190=PLANE('',#1358);
#1191=PLANE('',#1359);
#1192=PLANE('',#1360);
#1193=PLANE('',#1361);
#1194=PLANE('',#1362);
#1195=PLANE('',#1363);
#1196=PLANE('',#1364);
#1197=PLANE('',#1365);
#1198=PLANE('',#1366);
#1199=PLANE('',#1367);
#1200=PLANE('',#1368);
#1201=PLANE('',#1369);
#1202=PLANE('',#1370);
#1203=PLANE('',#1371);
#1204=PLANE('',#1372);
#1205=PLANE('',#1373);
#1206=PLANE('',#1374);
#1207=PLANE('',#1375);
#1208=PLANE('',#1377);
#1209=PLANE('',#1378);
#1210=PLANE('',#1379);
#1211=PLANE('',#1380);
#1212=PLANE('',#1383);
#1213=PLANE('',#1384);
#1214=PLANE('',#1391);
#1215=PLANE('',#1392);
#1216=PLANE('',#1393);
#1217=PLANE('',#1394);
#1218=PLANE('',#1395);
#1219=PLANE('',#1406);
#1220=PLANE('',#1407);
#1221=PLANE('',#1408);
#1222=PLANE('',#1409);
#1223=PLANE('',#1410);
#1224=PLANE('',#1411);
#1225=PLANE('',#1412);
#1226=PLANE('',#1415);
#1227=PLANE('',#1416);
#1228=PLANE('',#1417);
#1229=PLANE('',#1419);
#1230=PLANE('',#1420);
#1231=PLANE('',#1422);
#1232=PLANE('',#1423);
#1233=PLANE('',#1424);
#1234=PLANE('',#1426);
#1235=PLANE('',#1428);
#1236=PLANE('',#1429);
#1237=PLANE('',#1430);
#1238=PLANE('',#1431);
#1239=PLANE('',#1432);
#1240=PLANE('',#1433);
#1241=ADVANCED_FACE('',(#1095),#1182,.T.);
#1242=ADVANCED_FACE('',(#1096),#1183,.F.);
#1243=ADVANCED_FACE('',(#1097),#1184,.T.);
#1244=ADVANCED_FACE('',(#1098),#1185,.F.);
#1245=ADVANCED_FACE('',(#1099),#1186,.F.);
#1246=ADVANCED_FACE('',(#1100),#1187,.F.);
#1247=ADVANCED_FACE('',(#1101),#1188,.F.);
#1248=ADVANCED_FACE('',(#1102),#1189,.F.);
#1249=ADVANCED_FACE('',(#1103),#1190,.F.);
#1250=ADVANCED_FACE('',(#1104),#1191,.T.);
#1251=ADVANCED_FACE('',(#1105),#1192,.F.);
#1252=ADVANCED_FACE('',(#1106),#1193,.T.);
#1253=ADVANCED_FACE('',(#1107),#1194,.T.);
#1254=ADVANCED_FACE('',(#1108),#1195,.T.);
#1255=ADVANCED_FACE('',(#1109),#1196,.F.);
#1256=ADVANCED_FACE('',(#1110),#1197,.T.);
#1257=ADVANCED_FACE('',(#1111),#1198,.F.);
#1258=ADVANCED_FACE('',(#1112),#1199,.T.);
#1259=ADVANCED_FACE('',(#1113),#1200,.F.);
#1260=ADVANCED_FACE('',(#1114),#1201,.T.);
#1261=ADVANCED_FACE('',(#1115),#1202,.T.);
#1262=ADVANCED_FACE('',(#1116),#1203,.F.);
#1263=ADVANCED_FACE('',(#1117),#1204,.T.);
#1264=ADVANCED_FACE('',(#1118),#1205,.T.);
#1265=ADVANCED_FACE('',(#1119),#1206,.F.);
#1266=ADVANCED_FACE('',(#1120),#1207,.T.);
#1267=ADVANCED_FACE('',(#1121),#16,.F.);
#1268=ADVANCED_FACE('',(#1122),#1208,.F.);
#1269=ADVANCED_FACE('',(#1123),#1209,.F.);
#1270=ADVANCED_FACE('',(#1124),#1210,.T.);
#1271=ADVANCED_FACE('',(#1125),#1211,.T.);
#1272=ADVANCED_FACE('',(#1126),#17,.F.);
#1273=ADVANCED_FACE('',(#1127,#1128),#1212,.F.);
#1274=ADVANCED_FACE('',(#1129,#1130,#1131,#1132,#1133,#1134,#1135),#1213,
 .T.);
#1275=ADVANCED_FACE('',(#1136),#1214,.T.);
#1276=ADVANCED_FACE('',(#1137),#1215,.F.);
#1277=ADVANCED_FACE('',(#1138),#1216,.T.);
#1278=ADVANCED_FACE('',(#1139),#1217,.T.);
#1279=ADVANCED_FACE('',(#1140,#1141,#1142,#1143,#1144,#1145,#1146),#1218,
 .F.);
#1280=ADVANCED_FACE('',(#1147,#1148),#18,.F.);
#1281=ADVANCED_FACE('',(#1149,#1150),#19,.F.);
#1282=ADVANCED_FACE('',(#1151,#1152),#20,.F.);
#1283=ADVANCED_FACE('',(#1153,#1154),#21,.F.);
#1284=ADVANCED_FACE('',(#1155),#1219,.F.);
#1285=ADVANCED_FACE('',(#1156),#1220,.T.);
#1286=ADVANCED_FACE('',(#1157),#1221,.T.);
#1287=ADVANCED_FACE('',(#1158),#1222,.F.);
#1288=ADVANCED_FACE('',(#1159),#1223,.T.);
#1289=ADVANCED_FACE('',(#1160),#1224,.T.);
#1290=ADVANCED_FACE('',(#1161),#1225,.F.);
#1291=ADVANCED_FACE('',(#1162,#1163),#22,.F.);
#1292=ADVANCED_FACE('',(#1164,#1165),#23,.F.);
#1293=ADVANCED_FACE('',(#1166),#1226,.T.);
#1294=ADVANCED_FACE('',(#1167),#1227,.T.);
#1295=ADVANCED_FACE('',(#1168),#1228,.T.);
#1296=ADVANCED_FACE('',(#1169),#1229,.F.);
#1297=ADVANCED_FACE('',(#1170),#1230,.F.);
#1298=ADVANCED_FACE('',(#1171),#1231,.T.);
#1299=ADVANCED_FACE('',(#1172),#1232,.T.);
#1300=ADVANCED_FACE('',(#1173),#1233,.F.);
#1301=ADVANCED_FACE('',(#1174),#24,.F.);
#1302=ADVANCED_FACE('',(#1175),#1234,.F.);
#1303=ADVANCED_FACE('',(#1176),#1235,.T.);
#1304=ADVANCED_FACE('',(#1177),#1236,.F.);
#1305=ADVANCED_FACE('',(#1178),#1237,.F.);
#1306=ADVANCED_FACE('',(#1179),#1238,.T.);
#1307=ADVANCED_FACE('',(#1180),#1239,.T.);
#1308=ADVANCED_FACE('',(#1181),#1240,.F.);
#1309=CLOSED_SHELL('',(#1241,#1242,#1243,#1244,#1245,#1246,#1247,#1248,
#1249,#1250,#1251,#1252,#1253,#1254,#1255,#1256,#1257,#1258,#1259,#1260,
#1261,#1262,#1263,#1264,#1265,#1266,#1267,#1268,#1269,#1270,#1271,#1272));
#1310=CLOSED_SHELL('',(#1273,#1274,#1275,#1276,#1277,#1278,#1279,#1280,
#1281,#1282,#1283,#1284,#1285,#1286,#1287,#1288,#1289,#1290,#1291,#1292,
#1293,#1294,#1295,#1296,#1297,#1298,#1299,#1300,#1301,#1302));
#1311=CLOSED_SHELL('',(#1303,#1304,#1305,#1306,#1307,#1308));
#1312=STYLED_ITEM('',(#1315),#1336);
#1313=STYLED_ITEM('',(#1316),#1337);
#1314=STYLED_ITEM('',(#1317),#1338);
#1315=PRESENTATION_STYLE_ASSIGNMENT((#1318));
#1316=PRESENTATION_STYLE_ASSIGNMENT((#1319));
#1317=PRESENTATION_STYLE_ASSIGNMENT((#1320));
#1318=SURFACE_STYLE_USAGE(.BOTH.,#1321);
#1319=SURFACE_STYLE_USAGE(.BOTH.,#1322);
#1320=SURFACE_STYLE_USAGE(.BOTH.,#1323);
#1321=SURFACE_SIDE_STYLE('',(#1324));
#1322=SURFACE_SIDE_STYLE('',(#1325));
#1323=SURFACE_SIDE_STYLE('',(#1326));
#1324=SURFACE_STYLE_FILL_AREA(#1327);
#1325=SURFACE_STYLE_FILL_AREA(#1328);
#1326=SURFACE_STYLE_FILL_AREA(#1329);
#1327=FILL_AREA_STYLE('',(#1330));
#1328=FILL_AREA_STYLE('',(#1331));
#1329=FILL_AREA_STYLE('',(#1332));
#1330=FILL_AREA_STYLE_COLOUR('',#1333);
#1331=FILL_AREA_STYLE_COLOUR('',#1334);
#1332=FILL_AREA_STYLE_COLOUR('',#1335);
#1333=COLOUR_RGB('',0.231372549019608,0.380392156862745,0.705882352941177);
#1334=COLOUR_RGB('',0.647058823529412,0.647058823529412,0.647058823529412);
#1335=COLOUR_RGB('',0.756862745098039,0.462745098039216,0.109803921568627);
#1336=MANIFOLD_SOLID_BREP('Chair Clamp',#1309);
#1337=MANIFOLD_SOLID_BREP('SnapDragon',#1310);
#1338=MANIFOLD_SOLID_BREP('Board',#1311);
#1339=SHAPE_DEFINITION_REPRESENTATION(#2156,#1342);
#1340=SHAPE_DEFINITION_REPRESENTATION(#2157,#1343);
#1341=SHAPE_DEFINITION_REPRESENTATION(#2158,#1344);
#1342=SHAPE_REPRESENTATION('Chair Clamp',(#1345),#2141);
#1343=SHAPE_REPRESENTATION('SnapDragon',(#1382),#2142);
#1344=SHAPE_REPRESENTATION('Board',(#1427),#2143);
#1345=AXIS2_PLACEMENT_3D('',#1770,#1434,#1435);
#1346=AXIS2_PLACEMENT_3D('',#1771,#1436,#1437);
#1347=AXIS2_PLACEMENT_3D('',#1780,#1442,#1443);
#1348=AXIS2_PLACEMENT_3D('',#1802,#1454,#1455);
#1349=AXIS2_PLACEMENT_3D('',#1803,#1456,#1457);
#1350=AXIS2_PLACEMENT_3D('',#1809,#1460,#1461);
#1351=AXIS2_PLACEMENT_3D('',#1822,#1468,#1469);
#1352=AXIS2_PLACEMENT_3D('',#1845,#1481,#1482);
#1353=AXIS2_PLACEMENT_3D('',#1851,#1485,#1486);
#1354=AXIS2_PLACEMENT_3D('',#1871,#1497,#1498);
#1355=AXIS2_PLACEMENT_3D('',#1880,#1503,#1504);
#1356=AXIS2_PLACEMENT_3D('',#1883,#1507,#1508);
#1357=AXIS2_PLACEMENT_3D('',#1886,#1511,#1512);
#1358=AXIS2_PLACEMENT_3D('',#1889,#1515,#1516);
#1359=AXIS2_PLACEMENT_3D('',#1892,#1519,#1520);
#1360=AXIS2_PLACEMENT_3D('',#1894,#1522,#1523);
#1361=AXIS2_PLACEMENT_3D('',#1895,#1524,#1525);
#1362=AXIS2_PLACEMENT_3D('',#1907,#1533,#1534);
#1363=AXIS2_PLACEMENT_3D('',#1910,#1537,#1538);
#1364=AXIS2_PLACEMENT_3D('',#1912,#1540,#1541);
#1365=AXIS2_PLACEMENT_3D('',#1913,#1542,#1543);
#1366=AXIS2_PLACEMENT_3D('',#1915,#1545,#1546);
#1367=AXIS2_PLACEMENT_3D('',#1926,#1553,#1554);
#1368=AXIS2_PLACEMENT_3D('',#1928,#1556,#1557);
#1369=AXIS2_PLACEMENT_3D('',#1930,#1559,#1560);
#1370=AXIS2_PLACEMENT_3D('',#1931,#1561,#1562);
#1371=AXIS2_PLACEMENT_3D('',#1933,#1564,#1565);
#1372=AXIS2_PLACEMENT_3D('',#1935,#1567,#1568);
#1373=AXIS2_PLACEMENT_3D('',#1936,#1569,#1570);
#1374=AXIS2_PLACEMENT_3D('',#1938,#1572,#1573);
#1375=AXIS2_PLACEMENT_3D('',#1940,#1575,#1576);
#1376=AXIS2_PLACEMENT_3D('',#1941,#1577,#1578);
#1377=AXIS2_PLACEMENT_3D('',#1944,#1581,#1582);
#1378=AXIS2_PLACEMENT_3D('',#1945,#1583,#1584);
#1379=AXIS2_PLACEMENT_3D('',#1946,#1585,#1586);
#1380=AXIS2_PLACEMENT_3D('',#1948,#1588,#1589);
#1381=AXIS2_PLACEMENT_3D('',#1950,#1591,#1592);
#1382=AXIS2_PLACEMENT_3D('',#1951,#1593,#1594);
#1383=AXIS2_PLACEMENT_3D('',#1952,#1595,#1596);
#1384=AXIS2_PLACEMENT_3D('',#1969,#1605,#1606);
#1385=AXIS2_PLACEMENT_3D('',#1983,#1614,#1615);
#1386=AXIS2_PLACEMENT_3D('',#1985,#1616,#1617);
#1387=AXIS2_PLACEMENT_3D('',#1987,#1618,#1619);
#1388=AXIS2_PLACEMENT_3D('',#1989,#1620,#1621);
#1389=AXIS2_PLACEMENT_3D('',#1991,#1622,#1623);
#1390=AXIS2_PLACEMENT_3D('',#1993,#1624,#1625);
#1391=AXIS2_PLACEMENT_3D('',#1995,#1626,#1627);
#1392=AXIS2_PLACEMENT_3D('',#2004,#1632,#1633);
#1393=AXIS2_PLACEMENT_3D('',#2010,#1637,#1638);
#1394=AXIS2_PLACEMENT_3D('',#2029,#1649,#1650);
#1395=AXIS2_PLACEMENT_3D('',#2032,#1653,#1654);
#1396=AXIS2_PLACEMENT_3D('',#2033,#1655,#1656);
#1397=AXIS2_PLACEMENT_3D('',#2035,#1657,#1658);
#1398=AXIS2_PLACEMENT_3D('',#2037,#1659,#1660);
#1399=AXIS2_PLACEMENT_3D('',#2039,#1661,#1662);
#1400=AXIS2_PLACEMENT_3D('',#2041,#1663,#1664);
#1401=AXIS2_PLACEMENT_3D('',#2043,#1665,#1666);
#1402=AXIS2_PLACEMENT_3D('',#2045,#1667,#1668);
#1403=AXIS2_PLACEMENT_3D('',#2046,#1669,#1670);
#1404=AXIS2_PLACEMENT_3D('',#2047,#1671,#1672);
#1405=AXIS2_PLACEMENT_3D('',#2048,#1673,#1674);
#1406=AXIS2_PLACEMENT_3D('',#2049,#1675,#1676);
#1407=AXIS2_PLACEMENT_3D('',#2053,#1679,#1680);
#1408=AXIS2_PLACEMENT_3D('',#2057,#1683,#1684);
#1409=AXIS2_PLACEMENT_3D('',#2060,#1687,#1688);
#1410=AXIS2_PLACEMENT_3D('',#2064,#1691,#1692);
#1411=AXIS2_PLACEMENT_3D('',#2066,#1694,#1695);
#1412=AXIS2_PLACEMENT_3D('',#2070,#1698,#1699);
#1413=AXIS2_PLACEMENT_3D('',#2072,#1701,#1702);
#1414=AXIS2_PLACEMENT_3D('',#2073,#1703,#1704);
#1415=AXIS2_PLACEMENT_3D('',#2074,#1705,#1706);
#1416=AXIS2_PLACEMENT_3D('',#2075,#1707,#1708);
#1417=AXIS2_PLACEMENT_3D('',#2076,#1709,#1710);
#1418=AXIS2_PLACEMENT_3D('',#2087,#1716,#1717);
#1419=AXIS2_PLACEMENT_3D('',#2088,#1718,#1719);
#1420=AXIS2_PLACEMENT_3D('',#2092,#1722,#1723);
#1421=AXIS2_PLACEMENT_3D('',#2098,#1726,#1727);
#1422=AXIS2_PLACEMENT_3D('',#2102,#1730,#1731);
#1423=AXIS2_PLACEMENT_3D('',#2104,#1733,#1734);
#1424=AXIS2_PLACEMENT_3D('',#2106,#1736,#1737);
#1425=AXIS2_PLACEMENT_3D('',#2108,#1739,#1740);
#1426=AXIS2_PLACEMENT_3D('',#2110,#1742,#1743);
#1427=AXIS2_PLACEMENT_3D('',#2111,#1744,#1745);
#1428=AXIS2_PLACEMENT_3D('',#2112,#1746,#1747);
#1429=AXIS2_PLACEMENT_3D('',#2121,#1752,#1753);
#1430=AXIS2_PLACEMENT_3D('',#2127,#1757,#1758);
#1431=AXIS2_PLACEMENT_3D('',#2133,#1762,#1763);
#1432=AXIS2_PLACEMENT_3D('',#2136,#1766,#1767);
#1433=AXIS2_PLACEMENT_3D('',#2137,#1768,#1769);
#1434=DIRECTION('',(0.,0.,1.));
#1435=DIRECTION('',(1.,0.,0.));
#1436=DIRECTION('',(-1.,-2.18547839493141E-16,0.));
#1437=DIRECTION('',(2.18547839493141E-16,-1.,0.));
#1438=DIRECTION('',(-2.18547839493141E-16,1.,0.));
#1439=DIRECTION('',(0.,0.,1.));
#1440=DIRECTION('',(-2.18547839493141E-16,1.,0.));
#1441=DIRECTION('',(0.,0.,-1.));
#1442=DIRECTION('',(0.,0.,1.));
#1443=DIRECTION('',(1.,0.,0.));
#1444=DIRECTION('',(0.714880614579409,-0.699246527984635,0.));
#1445=DIRECTION('',(1.,2.18547839493141E-16,0.));
#1446=DIRECTION('',(2.18547839493141E-16,-1.,0.));
#1447=DIRECTION('',(1.,2.18547839493141E-16,0.));
#1448=DIRECTION('',(2.18547839493141E-16,-1.,0.));
#1449=DIRECTION('',(-1.,0.,0.));
#1450=DIRECTION('',(2.18547839493141E-16,-1.,0.));
#1451=DIRECTION('',(1.,2.18547839493141E-16,0.));
#1452=DIRECTION('',(2.18547839493141E-16,-1.,0.));
#1453=DIRECTION('',(-0.97061613365284,-0.240633167067243,0.));
#1454=DIRECTION('',(0.,0.,1.));
#1455=DIRECTION('',(1.,0.,0.));
#1456=DIRECTION('',(0.,0.,1.));
#1457=DIRECTION('',(1.,0.,0.));
#1458=DIRECTION('',(1.,2.18547839493141E-16,0.));
#1459=DIRECTION('',(0.714880614579409,-0.699246527984635,0.));
#1460=DIRECTION('',(0.,0.,1.));
#1461=DIRECTION('',(1.,0.,0.));
#1462=DIRECTION('',(-0.97061613365284,-0.240633167067243,0.));
#1463=DIRECTION('',(2.18547839493141E-16,-1.,0.));
#1464=DIRECTION('',(1.,2.18547839493141E-16,0.));
#1465=DIRECTION('',(2.18547839493141E-16,-1.,0.));
#1466=DIRECTION('',(1.,2.18547839493141E-16,0.));
#1467=DIRECTION('',(-0.970616133652841,0.240633167067241,0.));
#1468=DIRECTION('',(0.,0.,-1.));
#1469=DIRECTION('',(1.,0.,0.));
#1470=DIRECTION('',(0.714880614579409,0.699246527984635,0.));
#1471=DIRECTION('',(1.,2.18547839493141E-16,0.));
#1472=DIRECTION('',(-2.18547839493141E-16,1.,0.));
#1473=DIRECTION('',(1.,2.18547839493141E-16,0.));
#1474=DIRECTION('',(2.18547839493141E-16,-1.,0.));
#1475=DIRECTION('',(-1.,-2.18547839493141E-16,0.));
#1476=DIRECTION('',(2.18547839493141E-16,-1.,0.));
#1477=DIRECTION('',(1.,2.18547839493141E-16,0.));
#1478=DIRECTION('',(2.18547839493141E-16,-1.,0.));
#1479=DIRECTION('',(1.,2.18547839493141E-16,0.));
#1480=DIRECTION('',(2.18547839493141E-16,-1.,0.));
#1481=DIRECTION('',(0.,0.,1.));
#1482=DIRECTION('',(1.,0.,0.));
#1483=DIRECTION('',(1.,2.18547839493141E-16,0.));
#1484=DIRECTION('',(0.714880614579409,0.699246527984635,0.));
#1485=DIRECTION('',(0.,0.,-1.));
#1486=DIRECTION('',(1.,0.,0.));
#1487=DIRECTION('',(-0.970616133652841,0.240633167067241,0.));
#1488=DIRECTION('',(1.,2.18547839493141E-16,0.));
#1489=DIRECTION('',(-1.,0.,0.));
#1490=DIRECTION('',(2.18547839493141E-16,-1.,0.));
#1491=DIRECTION('',(1.,2.18547839493141E-16,0.));
#1492=DIRECTION('',(2.18547839493141E-16,-1.,0.));
#1493=DIRECTION('',(-1.,-2.18547839493141E-16,0.));
#1494=DIRECTION('',(2.18547839493141E-16,-1.,0.));
#1495=DIRECTION('',(1.,2.18547839493141E-16,0.));
#1496=DIRECTION('',(-2.18547839493141E-16,1.,0.));
#1497=DIRECTION('',(0.,0.,1.));
#1498=DIRECTION('',(1.,0.,0.));
#1499=DIRECTION('',(-1.,0.,0.));
#1500=DIRECTION('',(2.18547839493141E-16,-1.,0.));
#1501=DIRECTION('',(-1.,0.,0.));
#1502=DIRECTION('',(2.18547839493141E-16,-1.,0.));
#1503=DIRECTION('',(-1.,-2.18547839493141E-16,0.));
#1504=DIRECTION('',(2.18547839493141E-16,-1.,0.));
#1505=DIRECTION('',(-7.46299346048745E-32,3.41480999208033E-16,-1.));
#1506=DIRECTION('',(0.,0.,-1.));
#1507=DIRECTION('',(2.18547839493141E-16,-1.,0.));
#1508=DIRECTION('',(1.,2.18547839493141E-16,0.));
#1509=DIRECTION('',(0.,0.,-1.));
#1510=DIRECTION('',(0.,0.,-1.));
#1511=DIRECTION('',(2.18547839493141E-16,-1.,0.));
#1512=DIRECTION('',(1.,2.18547839493141E-16,0.));
#1513=DIRECTION('',(0.,0.,-1.));
#1514=DIRECTION('',(0.,0.,-1.));
#1515=DIRECTION('',(-2.18547839493141E-16,1.,0.));
#1516=DIRECTION('',(-1.,-2.18547839493141E-16,0.));
#1517=DIRECTION('',(0.,0.,1.));
#1518=DIRECTION('',(0.,0.,1.));
#1519=DIRECTION('',(-1.,-2.18547839493141E-16,0.));
#1520=DIRECTION('',(2.18547839493141E-16,-1.,0.));
#1521=DIRECTION('',(0.,0.,1.));
#1522=DIRECTION('',(-1.,-2.18547839493141E-16,0.));
#1523=DIRECTION('',(2.18547839493141E-16,-1.,0.));
#1524=DIRECTION('',(-1.,-2.18547839493141E-16,0.));
#1525=DIRECTION('',(2.18547839493141E-16,-1.,0.));
#1526=DIRECTION('',(0.,0.,-1.));
#1527=DIRECTION('',(0.,0.,1.));
#1528=DIRECTION('',(2.18547839493141E-16,-1.,0.));
#1529=DIRECTION('',(0.,0.,1.));
#1530=DIRECTION('',(0.,0.,1.));
#1531=DIRECTION('',(2.18547839493141E-16,-1.,0.));
#1532=DIRECTION('',(0.,0.,1.));
#1533=DIRECTION('',(2.18547839493141E-16,-1.,0.));
#1534=DIRECTION('',(1.,2.18547839493141E-16,0.));
#1535=DIRECTION('',(0.,0.,-1.));
#1536=DIRECTION('',(0.,0.,-1.));
#1537=DIRECTION('',(-2.18547839493141E-16,1.,0.));
#1538=DIRECTION('',(-1.,-2.18547839493141E-16,0.));
#1539=DIRECTION('',(0.,0.,1.));
#1540=DIRECTION('',(-1.,-2.18547839493141E-16,0.));
#1541=DIRECTION('',(2.18547839493141E-16,-1.,0.));
#1542=DIRECTION('',(2.18547839493141E-16,-1.,0.));
#1543=DIRECTION('',(1.,2.18547839493141E-16,0.));
#1544=DIRECTION('',(0.,0.,1.));
#1545=DIRECTION('',(-1.,-2.18547839493141E-16,0.));
#1546=DIRECTION('',(2.18547839493141E-16,-1.,0.));
#1547=DIRECTION('',(0.,0.,1.));
#1548=DIRECTION('',(2.18547839493141E-16,-1.,0.));
#1549=DIRECTION('',(0.,0.,1.));
#1550=DIRECTION('',(0.,0.,1.));
#1551=DIRECTION('',(2.18547839493141E-16,-1.,0.));
#1552=DIRECTION('',(0.,0.,1.));
#1553=DIRECTION('',(-2.18547839493141E-16,1.,0.));
#1554=DIRECTION('',(-1.,-2.18547839493141E-16,0.));
#1555=DIRECTION('',(0.,0.,-1.));
#1556=DIRECTION('',(-2.18547839493141E-16,1.,3.41480999208033E-16));
#1557=DIRECTION('',(0.,-3.41480999208033E-16,1.));
#1558=DIRECTION('',(-7.46299346048745E-32,3.41480999208033E-16,-1.));
#1559=DIRECTION('',(1.,2.18547839493141E-16,0.));
#1560=DIRECTION('',(-2.18547839493141E-16,1.,0.));
#1561=DIRECTION('',(0.,1.,0.));
#1562=DIRECTION('',(0.,0.,1.));
#1563=DIRECTION('',(-1.,0.,0.));
#1564=DIRECTION('',(0.,1.,0.));
#1565=DIRECTION('',(0.,0.,1.));
#1566=DIRECTION('',(-1.,0.,0.));
#1567=DIRECTION('',(0.,0.,-1.));
#1568=DIRECTION('',(1.,0.,0.));
#1569=DIRECTION('',(0.,1.,0.));
#1570=DIRECTION('',(0.,0.,1.));
#1571=DIRECTION('',(-1.,0.,0.));
#1572=DIRECTION('',(0.,1.,0.));
#1573=DIRECTION('',(0.,0.,1.));
#1574=DIRECTION('',(-1.,0.,0.));
#1575=DIRECTION('',(0.,0.,-1.));
#1576=DIRECTION('',(1.,0.,0.));
#1577=DIRECTION('',(0.,0.,1.));
#1578=DIRECTION('',(1.,0.,0.));
#1579=DIRECTION('',(0.,0.,1.));
#1580=DIRECTION('',(0.,0.,1.));
#1581=DIRECTION('',(0.240633167067241,0.970616133652841,0.));
#1582=DIRECTION('',(-0.970616133652841,0.240633167067241,0.));
#1583=DIRECTION('',(0.699246527984635,-0.714880614579409,0.));
#1584=DIRECTION('',(0.714880614579409,0.699246527984635,0.));
#1585=DIRECTION('',(-0.699246527984635,-0.714880614579409,0.));
#1586=DIRECTION('',(0.714880614579409,-0.699246527984635,0.));
#1587=DIRECTION('',(0.,0.,1.));
#1588=DIRECTION('',(-0.240633167067243,0.97061613365284,0.));
#1589=DIRECTION('',(-0.97061613365284,-0.240633167067243,0.));
#1590=DIRECTION('',(0.,0.,1.));
#1591=DIRECTION('',(0.,0.,1.));
#1592=DIRECTION('',(1.,0.,0.));
#1593=DIRECTION('',(0.,0.,1.));
#1594=DIRECTION('',(1.,0.,0.));
#1595=DIRECTION('',(1.,2.18547839493141E-16,0.));
#1596=DIRECTION('',(-2.18547839493141E-16,1.,0.));
#1597=DIRECTION('',(-2.18547839493141E-16,1.,0.));
#1598=DIRECTION('',(0.,0.,-1.));
#1599=DIRECTION('',(-2.18547839493141E-16,1.,0.));
#1600=DIRECTION('',(0.,0.,-1.));
#1601=DIRECTION('',(0.,0.,-1.));
#1602=DIRECTION('',(2.18547839493141E-16,-1.,0.));
#1603=DIRECTION('',(0.,0.,-1.));
#1604=DIRECTION('',(2.18547839493141E-16,-1.,0.));
#1605=DIRECTION('',(0.,0.,1.));
#1606=DIRECTION('',(1.,0.,0.));
#1607=DIRECTION('',(1.,2.18547839493141E-16,0.));
#1608=DIRECTION('',(2.18547839493141E-16,-1.,0.));
#1609=DIRECTION('',(-1.,0.,0.));
#1610=DIRECTION('',(0.,1.,0.));
#1611=DIRECTION('',(-1.,0.,0.));
#1612=DIRECTION('',(2.18547839493141E-16,-1.,0.));
#1613=DIRECTION('',(1.,2.18547839493141E-16,0.));
#1614=DIRECTION('',(0.,0.,-1.));
#1615=DIRECTION('',(-1.,0.,0.));
#1616=DIRECTION('',(0.,0.,-1.));
#1617=DIRECTION('',(-1.,0.,0.));
#1618=DIRECTION('',(0.,0.,1.));
#1619=DIRECTION('',(1.,0.,0.));
#1620=DIRECTION('',(0.,0.,1.));
#1621=DIRECTION('',(1.,0.,0.));
#1622=DIRECTION('',(0.,0.,1.));
#1623=DIRECTION('',(1.,0.,0.));
#1624=DIRECTION('',(0.,0.,1.));
#1625=DIRECTION('',(1.,0.,0.));
#1626=DIRECTION('',(1.,1.82123199577617E-16,0.));
#1627=DIRECTION('',(-1.82123199577617E-16,1.,0.));
#1628=DIRECTION('',(1.82123199577617E-16,-1.,0.));
#1629=DIRECTION('',(0.,0.,-1.));
#1630=DIRECTION('',(1.82123199577617E-16,-1.,0.));
#1631=DIRECTION('',(0.,0.,-1.));
#1632=DIRECTION('',(0.,-1.,0.));
#1633=DIRECTION('',(0.,0.,-1.));
#1634=DIRECTION('',(-1.,0.,0.));
#1635=DIRECTION('',(0.,0.,-1.));
#1636=DIRECTION('',(-1.,0.,0.));
#1637=DIRECTION('',(-1.,0.,0.));
#1638=DIRECTION('',(0.,0.,1.));
#1639=DIRECTION('',(0.,1.,0.));
#1640=DIRECTION('',(0.,0.,-1.));
#1641=DIRECTION('',(0.,1.,0.));
#1642=DIRECTION('',(0.,0.,-1.));
#1643=DIRECTION('',(0.,1.,0.));
#1644=DIRECTION('',(0.,0.,-1.));
#1645=DIRECTION('',(0.,0.,-1.));
#1646=DIRECTION('',(0.,-1.,0.));
#1647=DIRECTION('',(0.,0.,-1.));
#1648=DIRECTION('',(0.,1.,0.));
#1649=DIRECTION('',(2.73184799366426E-16,-1.,0.));
#1650=DIRECTION('',(1.,2.73184799366426E-16,0.));
#1651=DIRECTION('',(-1.,-2.73184799366426E-16,0.));
#1652=DIRECTION('',(-1.,-2.73184799366426E-16,0.));
#1653=DIRECTION('',(0.,0.,1.));
#1654=DIRECTION('',(1.,0.,0.));
#1655=DIRECTION('',(0.,0.,-1.));
#1656=DIRECTION('',(-1.,0.,0.));
#1657=DIRECTION('',(0.,0.,-1.));
#1658=DIRECTION('',(-1.,0.,0.));
#1659=DIRECTION('',(0.,0.,1.));
#1660=DIRECTION('',(1.,0.,0.));
#1661=DIRECTION('',(0.,0.,1.));
#1662=DIRECTION('',(1.,0.,0.));
#1663=DIRECTION('',(0.,0.,1.));
#1664=DIRECTION('',(1.,0.,0.));
#1665=DIRECTION('',(0.,0.,1.));
#1666=DIRECTION('',(1.,0.,0.));
#1667=DIRECTION('',(0.,0.,1.));
#1668=DIRECTION('',(1.,0.,0.));
#1669=DIRECTION('',(0.,0.,1.));
#1670=DIRECTION('',(1.,0.,0.));
#1671=DIRECTION('',(0.,0.,1.));
#1672=DIRECTION('',(1.,0.,0.));
#1673=DIRECTION('',(0.,0.,1.));
#1674=DIRECTION('',(1.,0.,0.));
#1675=DIRECTION('',(0.,-1.,0.));
#1676=DIRECTION('',(0.,0.,-1.));
#1677=DIRECTION('',(1.,2.18547839493141E-16,0.));
#1678=DIRECTION('',(0.,0.,-1.));
#1679=DIRECTION('',(0.,-1.,0.));
#1680=DIRECTION('',(0.,0.,-1.));
#1681=DIRECTION('',(0.,0.,-1.));
#1682=DIRECTION('',(1.,2.18547839493141E-16,0.));
#1683=DIRECTION('',(0.,0.,1.));
#1684=DIRECTION('',(1.,0.,0.));
#1685=DIRECTION('',(1.,2.18547839493141E-16,0.));
#1686=DIRECTION('',(1.,2.18547839493141E-16,0.));
#1687=DIRECTION('',(0.,0.,1.));
#1688=DIRECTION('',(1.,0.,0.));
#1689=DIRECTION('',(2.18547839493141E-16,-1.,0.));
#1690=DIRECTION('',(1.,2.18547839493141E-16,0.));
#1691=DIRECTION('',(2.18547839493141E-16,-1.,0.));
#1692=DIRECTION('',(1.,2.18547839493141E-16,0.));
#1693=DIRECTION('',(0.,0.,-1.));
#1694=DIRECTION('',(0.,0.,-1.));
#1695=DIRECTION('',(-1.,0.,0.));
#1696=DIRECTION('',(-2.18547839493141E-16,1.,0.));
#1697=DIRECTION('',(1.,2.18547839493141E-16,0.));
#1698=DIRECTION('',(2.18547839493141E-16,-1.,0.));
#1699=DIRECTION('',(1.,2.18547839493141E-16,0.));
#1700=DIRECTION('',(0.,0.,-1.));
#1701=DIRECTION('',(0.,0.,-1.));
#1702=DIRECTION('',(-1.,0.,0.));
#1703=DIRECTION('',(0.,0.,-1.));
#1704=DIRECTION('',(-1.,0.,0.));
#1705=DIRECTION('',(-1.,-2.18547839493141E-16,0.));
#1706=DIRECTION('',(2.18547839493141E-16,-1.,0.));
#1707=DIRECTION('',(-1.,-2.18547839493141E-16,0.));
#1708=DIRECTION('',(2.18547839493141E-16,-1.,0.));
#1709=DIRECTION('',(2.18547839493141E-16,-1.,0.));
#1710=DIRECTION('',(1.,2.18547839493141E-16,0.));
#1711=DIRECTION('',(0.640184399664479,1.39910917423885E-16,-0.768221279597377));
#1712=DIRECTION('',(0.,0.,-1.));
#1713=DIRECTION('',(1.,2.18547839493141E-16,0.));
#1714=DIRECTION('',(1.,2.18547839493141E-16,0.));
#1715=DIRECTION('',(0.762089724206285,1.66553062725207E-16,0.647471429685658));
#1716=DIRECTION('',(2.18547839493141E-16,-1.,0.));
#1717=DIRECTION('',(1.,2.18547839493141E-16,0.));
#1718=DIRECTION('',(0.,0.,-1.));
#1719=DIRECTION('',(-1.,0.,0.));
#1720=DIRECTION('',(1.,2.18547839493141E-16,0.));
#1721=DIRECTION('',(2.18547839493141E-16,-1.,0.));
#1722=DIRECTION('',(2.18547839493141E-16,-1.,0.));
#1723=DIRECTION('',(1.,2.18547839493141E-16,0.));
#1724=DIRECTION('',(0.,0.,-1.));
#1725=DIRECTION('',(0.640184399664479,1.39910917423885E-16,-0.768221279597377));
#1726=DIRECTION('',(2.18547839493141E-16,-1.,0.));
#1727=DIRECTION('',(1.,2.18547839493141E-16,0.));
#1728=DIRECTION('',(0.762089724206285,1.66553062725207E-16,0.647471429685658));
#1729=DIRECTION('',(1.,2.18547839493141E-16,0.));
#1730=DIRECTION('',(0.,0.,-1.));
#1731=DIRECTION('',(-1.,0.,0.));
#1732=DIRECTION('',(-2.18547839493141E-16,1.,0.));
#1733=DIRECTION('',(-1.,-2.18547839493141E-16,0.));
#1734=DIRECTION('',(2.18547839493141E-16,-1.,0.));
#1735=DIRECTION('',(-2.18547839493141E-16,1.,0.));
#1736=DIRECTION('',(-0.768221279597377,-1.67893100908663E-16,-0.640184399664479));
#1737=DIRECTION('',(-0.640184399664479,0.,0.768221279597377));
#1738=DIRECTION('',(2.18547839493141E-16,-1.,0.));
#1739=DIRECTION('',(2.18547839493141E-16,-1.,0.));
#1740=DIRECTION('',(1.,2.18547839493141E-16,0.));
#1741=DIRECTION('',(2.18547839493141E-16,-1.,0.));
#1742=DIRECTION('',(0.647471429685658,1.41503482091336E-16,-0.762089724206284));
#1743=DIRECTION('',(-0.762089724206284,0.,-0.647471429685658));
#1744=DIRECTION('',(0.,0.,1.));
#1745=DIRECTION('',(1.,0.,0.));
#1746=DIRECTION('',(1.,0.,0.));
#1747=DIRECTION('',(0.,0.,-1.));
#1748=DIRECTION('',(0.,0.,-1.));
#1749=DIRECTION('',(0.,1.,0.));
#1750=DIRECTION('',(0.,0.,-1.));
#1751=DIRECTION('',(0.,1.,0.));
#1752=DIRECTION('',(0.,0.,-1.));
#1753=DIRECTION('',(-1.,0.,0.));
#1754=DIRECTION('',(-1.,0.,0.));
#1755=DIRECTION('',(0.,1.,0.));
#1756=DIRECTION('',(-1.,0.,0.));
#1757=DIRECTION('',(1.,0.,0.));
#1758=DIRECTION('',(0.,0.,-1.));
#1759=DIRECTION('',(0.,0.,-1.));
#1760=DIRECTION('',(0.,1.,0.));
#1761=DIRECTION('',(0.,0.,-1.));
#1762=DIRECTION('',(0.,0.,-1.));
#1763=DIRECTION('',(-1.,0.,0.));
#1764=DIRECTION('',(-1.,0.,0.));
#1765=DIRECTION('',(-1.,0.,0.));
#1766=DIRECTION('',(0.,-1.,0.));
#1767=DIRECTION('',(1.,0.,0.));
#1768=DIRECTION('',(0.,-1.,0.));
#1769=DIRECTION('',(1.,0.,0.));
#1770=CARTESIAN_POINT('',(0.,0.,0.));
#1771=CARTESIAN_POINT('',(-0.1778,-0.1016,0.0381));
#1772=CARTESIAN_POINT('',(-0.1778,-0.05969,0.02794));
#1773=CARTESIAN_POINT('',(-0.1778,-0.0709545923543135,0.02794));
#1774=CARTESIAN_POINT('',(-0.1778,-0.05334,0.02794));
#1775=CARTESIAN_POINT('',(-0.1778,-0.0709545923543135,0.02794));
#1776=CARTESIAN_POINT('',(-0.1778,-0.0709545923543135,0.03556));
#1777=CARTESIAN_POINT('',(-0.1778,-0.05969,0.03556));
#1778=CARTESIAN_POINT('',(-0.1778,-0.05334,0.03556));
#1779=CARTESIAN_POINT('',(-0.1778,-0.05334,0.03175));
#1780=CARTESIAN_POINT('',(-0.1778,-0.14351,0.02794));
#1781=CARTESIAN_POINT('',(-0.175881471774456,-0.126336570959113,0.02794));
#1782=CARTESIAN_POINT('',(-0.1778,-0.12446,0.02794));
#1783=CARTESIAN_POINT('',(-0.173962943548911,-0.128213141918226,0.02794));
#1784=CARTESIAN_POINT('',(-0.1778,-0.12446,0.02794));
#1785=CARTESIAN_POINT('',(-0.1651,-0.12446,0.02794));
#1786=CARTESIAN_POINT('',(-0.1651,-0.14351,0.02794));
#1787=CARTESIAN_POINT('',(-0.1651,-0.16256,0.02794));
#1788=CARTESIAN_POINT('',(-0.1778,-0.16256,0.02794));
#1789=CARTESIAN_POINT('',(-0.2794,-0.16256,0.02794));
#1790=CARTESIAN_POINT('',(-0.2794,-0.14351,0.02794));
#1791=CARTESIAN_POINT('',(-0.2794,-0.11684,0.02794));
#1792=CARTESIAN_POINT('',(-0.27305,-0.11684,0.02794));
#1793=CARTESIAN_POINT('',(-0.2667,-0.11684,0.02794));
#1794=CARTESIAN_POINT('',(-0.2667,-0.040638,0.02794));
#1795=CARTESIAN_POINT('',(-0.2667,-0.14986,0.02794));
#1796=CARTESIAN_POINT('',(-0.2794,-0.14986,0.02794));
#1797=CARTESIAN_POINT('',(-0.1778,-0.14986,0.02794));
#1798=CARTESIAN_POINT('',(-0.1778,-0.14351,0.02794));
#1799=CARTESIAN_POINT('',(-0.1778,-0.132245407645687,0.02794));
#1800=CARTESIAN_POINT('',(-0.176330951666466,-0.131881204186856,0.02794));
#1801=CARTESIAN_POINT('',(-0.174861903332932,-0.131517000728025,0.02794));
#1802=CARTESIAN_POINT('',(-0.17145,-0.130671128630638,0.02794));
#1803=CARTESIAN_POINT('',(-0.1778,-0.14351,0.03556));
#1804=CARTESIAN_POINT('',(-0.1778,-0.12446,0.03556));
#1805=CARTESIAN_POINT('',(-0.1778,-0.12446,0.03556));
#1806=CARTESIAN_POINT('',(-0.1651,-0.12446,0.03556));
#1807=CARTESIAN_POINT('',(-0.175881471774456,-0.126336570959113,0.03556));
#1808=CARTESIAN_POINT('',(-0.173962943548911,-0.128213141918226,0.03556));
#1809=CARTESIAN_POINT('',(-0.17145,-0.130671128630638,0.03556));
#1810=CARTESIAN_POINT('',(-0.174861903332932,-0.131517000728025,0.03556));
#1811=CARTESIAN_POINT('',(-0.176330951666466,-0.131881204186856,0.03556));
#1812=CARTESIAN_POINT('',(-0.1778,-0.132245407645687,0.03556));
#1813=CARTESIAN_POINT('',(-0.1778,-0.14351,0.03556));
#1814=CARTESIAN_POINT('',(-0.1778,-0.14986,0.03556));
#1815=CARTESIAN_POINT('',(-0.2794,-0.14986,0.03556));
#1816=CARTESIAN_POINT('',(-0.2667,-0.14986,0.03556));
#1817=CARTESIAN_POINT('',(-0.2667,-0.040638,0.03556));
#1818=CARTESIAN_POINT('',(-0.2667,-0.05334,0.03556));
#1819=CARTESIAN_POINT('',(-0.2794,-0.05334,0.03556));
#1820=CARTESIAN_POINT('',(-0.176330951666466,-0.0713187958131441,0.03556));
#1821=CARTESIAN_POINT('',(-0.174861903332932,-0.0716829992719747,0.03556));
#1822=CARTESIAN_POINT('',(-0.17145,-0.0725288713693618,0.03556));
#1823=CARTESIAN_POINT('',(-0.173962943548911,-0.0749868580817742,0.03556));
#1824=CARTESIAN_POINT('',(-0.175881471774456,-0.0768634290408871,0.03556));
#1825=CARTESIAN_POINT('',(-0.1778,-0.07874,0.03556));
#1826=CARTESIAN_POINT('',(-0.1778,-0.07874,0.03556));
#1827=CARTESIAN_POINT('',(-0.1651,-0.07874,0.03556));
#1828=CARTESIAN_POINT('',(-0.1651,-0.05969,0.03556));
#1829=CARTESIAN_POINT('',(-0.1651,-0.04064,0.03556));
#1830=CARTESIAN_POINT('',(-0.1778,-0.04064,0.03556));
#1831=CARTESIAN_POINT('',(-0.2667,-0.04064,0.03556));
#1832=CARTESIAN_POINT('',(-0.2667,0.01016,0.03556));
#1833=CARTESIAN_POINT('',(-0.2667,-0.00254000000000006,0.03556));
#1834=CARTESIAN_POINT('',(-0.2159,-0.00254,0.03556));
#1835=CARTESIAN_POINT('',(-0.2159,-0.00254,0.03556));
#1836=CARTESIAN_POINT('',(-0.2159,0.01016,0.03556));
#1837=CARTESIAN_POINT('',(-0.2159,0.01016,0.03556));
#1838=CARTESIAN_POINT('',(-0.1778,0.01016,0.03556));
#1839=CARTESIAN_POINT('',(-0.2794,0.01016,0.03556));
#1840=CARTESIAN_POINT('',(-0.2794,-0.14351,0.03556));
#1841=CARTESIAN_POINT('',(-0.2794,-0.16256,0.03556));
#1842=CARTESIAN_POINT('',(-0.1778,-0.16256,0.03556));
#1843=CARTESIAN_POINT('',(-0.1651,-0.16256,0.03556));
#1844=CARTESIAN_POINT('',(-0.1651,-0.14351,0.03556));
#1845=CARTESIAN_POINT('',(-0.1778,-0.14351,0.02794));
#1846=CARTESIAN_POINT('',(-0.1778,-0.07874,0.02794));
#1847=CARTESIAN_POINT('',(-0.1778,-0.07874,0.02794));
#1848=CARTESIAN_POINT('',(-0.1651,-0.07874,0.02794));
#1849=CARTESIAN_POINT('',(-0.175881471774456,-0.0768634290408871,0.02794));
#1850=CARTESIAN_POINT('',(-0.173962943548911,-0.0749868580817742,0.02794));
#1851=CARTESIAN_POINT('',(-0.17145,-0.0725288713693618,0.02794));
#1852=CARTESIAN_POINT('',(-0.174861903332932,-0.0716829992719747,0.02794));
#1853=CARTESIAN_POINT('',(-0.176330951666466,-0.0713187958131441,0.02794));
#1854=CARTESIAN_POINT('',(-0.2794,-0.05334,0.02794));
#1855=CARTESIAN_POINT('',(-0.2667,-0.05334,0.02794));
#1856=CARTESIAN_POINT('',(-0.27305,-0.05334,0.02794));
#1857=CARTESIAN_POINT('',(-0.2794,-0.05334,0.02794));
#1858=CARTESIAN_POINT('',(-0.2794,-0.14351,0.02794));
#1859=CARTESIAN_POINT('',(-0.2794,0.01016,0.02794));
#1860=CARTESIAN_POINT('',(-0.1778,0.01016,0.02794));
#1861=CARTESIAN_POINT('',(-0.2159,0.01016,0.02794));
#1862=CARTESIAN_POINT('',(-0.2159,0.01016,0.02794));
#1863=CARTESIAN_POINT('',(-0.2159,-0.00254,0.02794));
#1864=CARTESIAN_POINT('',(-0.2159,-0.00254,0.02794));
#1865=CARTESIAN_POINT('',(-0.2667,-0.00254,0.02794));
#1866=CARTESIAN_POINT('',(-0.2667,0.01016,0.02794));
#1867=CARTESIAN_POINT('',(-0.2667,-0.04064,0.02794));
#1868=CARTESIAN_POINT('',(-0.1778,-0.04064,0.02794));
#1869=CARTESIAN_POINT('',(-0.1651,-0.04064,0.02794));
#1870=CARTESIAN_POINT('',(-0.1651,-0.05969,0.02794));
#1871=CARTESIAN_POINT('',(-0.1778,-0.14351,0.02794));
#1872=CARTESIAN_POINT('',(-0.27305,-0.06604,0.02794));
#1873=CARTESIAN_POINT('',(-0.2667,-0.06604,0.02794));
#1874=CARTESIAN_POINT('',(-0.2794,-0.06604,0.02794));
#1875=CARTESIAN_POINT('',(-0.2667,-0.040638,0.02794));
#1876=CARTESIAN_POINT('',(-0.2667,-0.10414,0.02794));
#1877=CARTESIAN_POINT('',(-0.27305,-0.10414,0.02794));
#1878=CARTESIAN_POINT('',(-0.2794,-0.10414,0.02794));
#1879=CARTESIAN_POINT('',(-0.2794,-0.14351,0.02794));
#1880=CARTESIAN_POINT('',(-0.2667,0.01016,0.03175));
#1881=CARTESIAN_POINT('',(-0.2667,-0.00254000000000004,0.03175));
#1882=CARTESIAN_POINT('',(-0.2667,-0.04064,0.03175));
#1883=CARTESIAN_POINT('',(-0.2794,-0.14986,0.03175));
#1884=CARTESIAN_POINT('',(-0.2667,-0.14986,0.03175));
#1885=CARTESIAN_POINT('',(-0.1778,-0.14986,0.03175));
#1886=CARTESIAN_POINT('',(-0.1778,-0.12446,0.03175));
#1887=CARTESIAN_POINT('',(-0.1651,-0.12446,0.03175));
#1888=CARTESIAN_POINT('',(-0.1778,-0.12446,0.03175));
#1889=CARTESIAN_POINT('',(-0.1778,-0.16256,0.03175));
#1890=CARTESIAN_POINT('',(-0.1651,-0.16256,0.03175));
#1891=CARTESIAN_POINT('',(-0.2794,-0.16256,0.03175));
#1892=CARTESIAN_POINT('',(-0.1778,-0.1016,0.0381));
#1893=CARTESIAN_POINT('',(-0.1778,-0.132245407645687,0.02794));
#1894=CARTESIAN_POINT('',(-0.1651,-0.1016,0.0381));
#1895=CARTESIAN_POINT('',(-0.2794,-0.1016,0.03937));
#1896=CARTESIAN_POINT('',(-0.2794,0.01016,0.03175));
#1897=CARTESIAN_POINT('',(-0.2794,-0.05334,0.00254));
#1898=CARTESIAN_POINT('',(-0.2794,-0.05334,0.00254));
#1899=CARTESIAN_POINT('',(-0.2794,-0.14351,0.00254));
#1900=CARTESIAN_POINT('',(-0.2794,-0.06604,0.00254));
#1901=CARTESIAN_POINT('',(-0.2794,-0.06604,0.00254));
#1902=CARTESIAN_POINT('',(-0.2794,-0.10414,0.00254));
#1903=CARTESIAN_POINT('',(-0.2794,-0.10414,0.00254));
#1904=CARTESIAN_POINT('',(-0.2794,-0.14351,0.00254));
#1905=CARTESIAN_POINT('',(-0.2794,-0.11684,0.00254));
#1906=CARTESIAN_POINT('',(-0.2794,-0.11684,0.00254));
#1907=CARTESIAN_POINT('',(-0.1778,-0.07874,0.03175));
#1908=CARTESIAN_POINT('',(-0.1651,-0.07874,0.03175));
#1909=CARTESIAN_POINT('',(-0.1778,-0.07874,0.03175));
#1910=CARTESIAN_POINT('',(-0.1778,-0.04064,0.03175));
#1911=CARTESIAN_POINT('',(-0.1651,-0.04064,0.03175));
#1912=CARTESIAN_POINT('',(-0.1651,-0.1016,0.0381));
#1913=CARTESIAN_POINT('',(-0.2794,-0.05334,0.03175));
#1914=CARTESIAN_POINT('',(-0.2667,-0.05334,0.03175));
#1915=CARTESIAN_POINT('',(-0.2667,-0.040638,0.03175));
#1916=CARTESIAN_POINT('',(-0.2667,-0.06604,0.00254));
#1917=CARTESIAN_POINT('',(-0.2667,-0.06604,0.00254));
#1918=CARTESIAN_POINT('',(-0.2667,-0.040638,0.00254));
#1919=CARTESIAN_POINT('',(-0.2667,-0.05334,0.00254));
#1920=CARTESIAN_POINT('',(-0.2667,-0.05334,0.00254));
#1921=CARTESIAN_POINT('',(-0.2667,-0.11684,0.00254));
#1922=CARTESIAN_POINT('',(-0.2667,-0.11684,0.00254));
#1923=CARTESIAN_POINT('',(-0.2667,-0.040638,0.00254));
#1924=CARTESIAN_POINT('',(-0.2667,-0.10414,0.00254));
#1925=CARTESIAN_POINT('',(-0.2667,-0.10414,0.00254));
#1926=CARTESIAN_POINT('',(-0.22225,0.01016,0.03175));
#1927=CARTESIAN_POINT('',(-0.2159,0.01016,0.03175));
#1928=CARTESIAN_POINT('',(-0.2159,-0.00254,0.03175));
#1929=CARTESIAN_POINT('',(-0.2159,-0.00254,0.03175));
#1930=CARTESIAN_POINT('',(-0.2159,-0.01524,0.03175));
#1931=CARTESIAN_POINT('',(-0.27305,-0.10414,0.00254));
#1932=CARTESIAN_POINT('',(-0.27305,-0.10414,0.00254));
#1933=CARTESIAN_POINT('',(-0.27305,-0.11684,0.00254));
#1934=CARTESIAN_POINT('',(-0.27305,-0.11684,0.00254));
#1935=CARTESIAN_POINT('',(-0.22225,-0.0762,0.00254));
#1936=CARTESIAN_POINT('',(-0.27305,-0.05334,0.00254));
#1937=CARTESIAN_POINT('',(-0.27305,-0.05334,0.00254));
#1938=CARTESIAN_POINT('',(-0.27305,-0.06604,0.00254));
#1939=CARTESIAN_POINT('',(-0.27305,-0.06604,0.00254));
#1940=CARTESIAN_POINT('',(-0.22225,-0.0762,0.00254));
#1941=CARTESIAN_POINT('',(-0.17145,-0.0725288713693618,0.02794));
#1942=CARTESIAN_POINT('',(-0.174861903332932,-0.0716829992719747,0.02794));
#1943=CARTESIAN_POINT('',(-0.173962943548911,-0.0749868580817742,0.02794));
#1944=CARTESIAN_POINT('',(-0.176330951666466,-0.0713187958131441,0.02794));
#1945=CARTESIAN_POINT('',(-0.175881471774456,-0.0768634290408871,0.02794));
#1946=CARTESIAN_POINT('',(-0.175881471774456,-0.126336570959113,0.02794));
#1947=CARTESIAN_POINT('',(-0.173962943548911,-0.128213141918226,0.02794));
#1948=CARTESIAN_POINT('',(-0.176330951666466,-0.131881204186856,0.02794));
#1949=CARTESIAN_POINT('',(-0.174861903332932,-0.131517000728025,0.02794));
#1950=CARTESIAN_POINT('',(-0.17145,-0.130671128630638,0.02794));
#1951=CARTESIAN_POINT('',(0.,0.,0.));
#1952=CARTESIAN_POINT('',(-0.1397,-0.1016,0.0508));
#1953=CARTESIAN_POINT('',(-0.1397,-0.1016,0.04064));
#1954=CARTESIAN_POINT('',(-0.1397,-0.10541,0.04064));
#1955=CARTESIAN_POINT('',(-0.1397,-0.09779,0.04064));
#1956=CARTESIAN_POINT('',(-0.1397,-0.10541,0.03683));
#1957=CARTESIAN_POINT('',(-0.1397,-0.10541,0.03302));
#1958=CARTESIAN_POINT('',(-0.1397,-0.1016,0.03302));
#1959=CARTESIAN_POINT('',(-0.1397,-0.09779,0.03302));
#1960=CARTESIAN_POINT('',(-0.1397,-0.09779,0.03683));
#1961=CARTESIAN_POINT('',(-0.1397,-0.0635,0.04445));
#1962=CARTESIAN_POINT('',(-0.1397,-0.0635,0.0508));
#1963=CARTESIAN_POINT('',(-0.1397,-0.0635,0.0254));
#1964=CARTESIAN_POINT('',(-0.1397,-0.1016,0.0254));
#1965=CARTESIAN_POINT('',(-0.1397,-0.1397,0.0254));
#1966=CARTESIAN_POINT('',(-0.1397,-0.1397,0.04445));
#1967=CARTESIAN_POINT('',(-0.1397,-0.1397,0.0508));
#1968=CARTESIAN_POINT('',(-0.1397,-0.1016,0.0508));
#1969=CARTESIAN_POINT('',(-0.0127,-0.1524,0.0254));
#1970=CARTESIAN_POINT('',(-0.1524,-0.0635,0.0254));
#1971=CARTESIAN_POINT('',(-0.1524,-0.0635,0.0254));
#1972=CARTESIAN_POINT('',(-0.1524,-0.1016,0.0254));
#1973=CARTESIAN_POINT('',(-0.1524,-0.0381,0.0254));
#1974=CARTESIAN_POINT('',(-0.18415,-0.0381,0.0254));
#1975=CARTESIAN_POINT('',(-0.2286,-0.0381,0.0254));
#1976=CARTESIAN_POINT('',(-0.2286,-0.3048,0.0254));
#1977=CARTESIAN_POINT('',(-0.2286,-0.1651,0.0254));
#1978=CARTESIAN_POINT('',(-0.18415,-0.1651,0.0254));
#1979=CARTESIAN_POINT('',(-0.1524,-0.1651,0.0254));
#1980=CARTESIAN_POINT('',(-0.1524,-0.1016,0.0254));
#1981=CARTESIAN_POINT('',(-0.1524,-0.1397,0.0254));
#1982=CARTESIAN_POINT('',(-0.1524,-0.1397,0.0254));
#1983=CARTESIAN_POINT('',(-0.2159,-0.07239,0.0254));
#1984=CARTESIAN_POINT('',(-0.2191639,-0.07239,0.0254));
#1985=CARTESIAN_POINT('',(-0.2159,-0.13081,0.0254));
#1986=CARTESIAN_POINT('',(-0.2191639,-0.13081,0.0254));
#1987=CARTESIAN_POINT('',(-0.21336,-0.1016,0.0254));
#1988=CARTESIAN_POINT('',(-0.2100961,-0.1016,0.0254));
#1989=CARTESIAN_POINT('',(-0.19812,-0.1016,0.0254));
#1990=CARTESIAN_POINT('',(-0.1948561,-0.1016,0.0254));
#1991=CARTESIAN_POINT('',(-0.18288,-0.1016,0.0254));
#1992=CARTESIAN_POINT('',(-0.1796161,-0.1016,0.0254));
#1993=CARTESIAN_POINT('',(-0.16764,-0.1016,0.0254));
#1994=CARTESIAN_POINT('',(-0.1643761,-0.1016,0.0254));
#1995=CARTESIAN_POINT('',(-0.127,-0.1016,0.0254));
#1996=CARTESIAN_POINT('',(-0.127,-0.1016,0.0127));
#1997=CARTESIAN_POINT('',(-0.127,-0.0254,0.0127));
#1998=CARTESIAN_POINT('',(-0.127,-0.1778,0.0127));
#1999=CARTESIAN_POINT('',(-0.127,-0.0254,0.0254));
#2000=CARTESIAN_POINT('',(-0.127,-0.0254,0.0508));
#2001=CARTESIAN_POINT('',(-0.127,-0.1016,0.0508));
#2002=CARTESIAN_POINT('',(-0.127,-0.1778,0.0508));
#2003=CARTESIAN_POINT('',(-0.127,-0.1778,0.0254));
#2004=CARTESIAN_POINT('',(-0.1778,-0.0254,0.0254));
#2005=CARTESIAN_POINT('',(-0.1778,-0.0254,0.0127));
#2006=CARTESIAN_POINT('',(-0.2286,-0.0254,0.0127));
#2007=CARTESIAN_POINT('',(-0.2286,-0.0254,0.0254));
#2008=CARTESIAN_POINT('',(-0.2286,-0.0254,0.0508));
#2009=CARTESIAN_POINT('',(-0.1778,-0.0254,0.0508));
#2010=CARTESIAN_POINT('',(-0.2286,-0.3048,0.0254));
#2011=CARTESIAN_POINT('',(-0.2286,-0.3048,0.0127));
#2012=CARTESIAN_POINT('',(-0.2286,-0.1778,0.0127));
#2013=CARTESIAN_POINT('',(-0.2286,-0.1778,0.0254));
#2014=CARTESIAN_POINT('',(-0.2286,-0.1778,0.0508));
#2015=CARTESIAN_POINT('',(-0.2286,-0.3048,0.0508));
#2016=CARTESIAN_POINT('',(-0.2286,-0.1397,0.0508));
#2017=CARTESIAN_POINT('',(-0.2286,-0.1397,0.04445));
#2018=CARTESIAN_POINT('',(-0.2286,-0.1397,0.0381));
#2019=CARTESIAN_POINT('',(-0.2286,-0.1524,0.0381));
#2020=CARTESIAN_POINT('',(-0.2286,-0.1651,0.0381));
#2021=CARTESIAN_POINT('',(-0.2286,-0.1651,0.0508));
#2022=CARTESIAN_POINT('',(-0.2286,-0.0381,0.0508));
#2023=CARTESIAN_POINT('',(-0.2286,-0.0381,0.0381));
#2024=CARTESIAN_POINT('',(-0.2286,-0.0508,0.0381));
#2025=CARTESIAN_POINT('',(-0.2286,-0.0635,0.0381));
#2026=CARTESIAN_POINT('',(-0.2286,-0.0635,0.04445));
#2027=CARTESIAN_POINT('',(-0.2286,-0.0635,0.0508));
#2028=CARTESIAN_POINT('',(-0.2286,-0.3048,0.0508));
#2029=CARTESIAN_POINT('',(-0.1778,-0.1778,0.0254));
#2030=CARTESIAN_POINT('',(-0.1778,-0.1778,0.0127));
#2031=CARTESIAN_POINT('',(-0.1778,-0.1778,0.0508));
#2032=CARTESIAN_POINT('',(-0.0127,-0.1524,0.0127));
#2033=CARTESIAN_POINT('',(-0.2159,-0.07239,0.0127));
#2034=CARTESIAN_POINT('',(-0.2191639,-0.07239,0.0127));
#2035=CARTESIAN_POINT('',(-0.2159,-0.13081,0.0127));
#2036=CARTESIAN_POINT('',(-0.2191639,-0.13081,0.0127));
#2037=CARTESIAN_POINT('',(-0.21336,-0.1016,0.0127));
#2038=CARTESIAN_POINT('',(-0.2100961,-0.1016,0.0127));
#2039=CARTESIAN_POINT('',(-0.19812,-0.1016,0.0127));
#2040=CARTESIAN_POINT('',(-0.1948561,-0.1016,0.0127));
#2041=CARTESIAN_POINT('',(-0.18288,-0.1016,0.0127));
#2042=CARTESIAN_POINT('',(-0.1796161,-0.1016,0.0127));
#2043=CARTESIAN_POINT('',(-0.16764,-0.1016,0.0127));
#2044=CARTESIAN_POINT('',(-0.1643761,-0.1016,0.0127));
#2045=CARTESIAN_POINT('',(-0.16764,-0.1016,0.0127));
#2046=CARTESIAN_POINT('',(-0.18288,-0.1016,0.0127));
#2047=CARTESIAN_POINT('',(-0.19812,-0.1016,0.0127));
#2048=CARTESIAN_POINT('',(-0.21336,-0.1016,0.0127));
#2049=CARTESIAN_POINT('',(-0.18415,-0.1651,0.0508));
#2050=CARTESIAN_POINT('',(-0.228602,-0.1651,0.0381));
#2051=CARTESIAN_POINT('',(-0.1524,-0.1651,0.0381));
#2052=CARTESIAN_POINT('',(-0.1524,-0.1651,0.0508));
#2053=CARTESIAN_POINT('',(-0.18415,-0.0381,0.0508));
#2054=CARTESIAN_POINT('',(-0.1524,-0.0381,0.0508));
#2055=CARTESIAN_POINT('',(-0.1524,-0.0381,0.0381));
#2056=CARTESIAN_POINT('',(-0.228602,-0.0381,0.0381));
#2057=CARTESIAN_POINT('',(-0.1778,-0.1016,0.0508));
#2058=CARTESIAN_POINT('',(-0.228602,-0.0635,0.0508));
#2059=CARTESIAN_POINT('',(-0.228602,-0.1397,0.0508));
#2060=CARTESIAN_POINT('',(-0.228602,-0.0508,0.0381));
#2061=CARTESIAN_POINT('',(-0.1524,-0.0508,0.0381));
#2062=CARTESIAN_POINT('',(-0.1524,-0.0635,0.0381));
#2063=CARTESIAN_POINT('',(-0.228602,-0.0635,0.0381));
#2064=CARTESIAN_POINT('',(-0.228602,-0.0635,0.04445));
#2065=CARTESIAN_POINT('',(-0.1524,-0.0635,0.03175));
#2066=CARTESIAN_POINT('',(-0.228602,-0.1524,0.0381));
#2067=CARTESIAN_POINT('',(-0.1524,-0.1524,0.0381));
#2068=CARTESIAN_POINT('',(-0.1524,-0.1397,0.0381));
#2069=CARTESIAN_POINT('',(-0.228602,-0.1397,0.0381));
#2070=CARTESIAN_POINT('',(-0.228602,-0.1397,0.04445));
#2071=CARTESIAN_POINT('',(-0.1524,-0.1397,0.03175));
#2072=CARTESIAN_POINT('',(-0.2159,-0.13081,0.0254));
#2073=CARTESIAN_POINT('',(-0.2159,-0.07239,0.0254));
#2074=CARTESIAN_POINT('',(-0.1524,-0.1016,0.0381));
#2075=CARTESIAN_POINT('',(-0.1524,-0.1016,0.0381));
#2076=CARTESIAN_POINT('',(-0.1524,-0.10541,0.03683));
#2077=CARTESIAN_POINT('',(-0.151257960277013,-0.10541,0.0392695523324159));
#2078=CARTESIAN_POINT('',(-0.1524,-0.10541,0.04064));
#2079=CARTESIAN_POINT('',(-0.150115920554027,-0.10541,0.0378991046648317));
#2080=CARTESIAN_POINT('',(-0.1524,-0.10541,0.03683));
#2081=CARTESIAN_POINT('',(-0.1524,-0.10541,0.03302));
#2082=CARTESIAN_POINT('',(-0.1524,-0.10541,0.03302));
#2083=CARTESIAN_POINT('',(-0.1524,-0.10541,0.04064));
#2084=CARTESIAN_POINT('',(-0.14605,-0.10541,0.04064));
#2085=CARTESIAN_POINT('',(-0.147351229508197,-0.10541,0.0395344754098361));
#2086=CARTESIAN_POINT('',(-0.148652459016393,-0.10541,0.0384289508196722));
#2087=CARTESIAN_POINT('',(-0.148652459016393,-0.10541,0.0361429508196721));
#2088=CARTESIAN_POINT('',(-0.1524,-0.1016,0.04064));
#2089=CARTESIAN_POINT('',(-0.1524,-0.09779,0.04064));
#2090=CARTESIAN_POINT('',(-0.14605,-0.09779,0.04064));
#2091=CARTESIAN_POINT('',(-0.14605,-0.08001,0.04064));
#2092=CARTESIAN_POINT('',(-0.1524,-0.09779,0.03683));
#2093=CARTESIAN_POINT('',(-0.1524,-0.09779,0.03683));
#2094=CARTESIAN_POINT('',(-0.1524,-0.09779,0.04064));
#2095=CARTESIAN_POINT('',(-0.1524,-0.09779,0.03302));
#2096=CARTESIAN_POINT('',(-0.150526229508196,-0.09779,0.038391475409836));
#2097=CARTESIAN_POINT('',(-0.150115920554027,-0.09779,0.0378991046648317));
#2098=CARTESIAN_POINT('',(-0.148652459016393,-0.09779,0.0361429508196721));
#2099=CARTESIAN_POINT('',(-0.148652459016393,-0.09779,0.0384289508196722));
#2100=CARTESIAN_POINT('',(-0.151617931089853,-0.09779,0.0359094857460608));
#2101=CARTESIAN_POINT('',(-0.1524,-0.09779,0.03302));
#2102=CARTESIAN_POINT('',(-0.1524,-0.1016,0.03302));
#2103=CARTESIAN_POINT('',(-0.1524,-0.1016,0.03302));
#2104=CARTESIAN_POINT('',(-0.1524,-0.1016,0.0381));
#2105=CARTESIAN_POINT('',(-0.1524,-0.1016,0.04064));
#2106=CARTESIAN_POINT('',(-0.151257960277013,-0.08001,0.0392695523324159));
#2107=CARTESIAN_POINT('',(-0.150115920554027,-0.08001,0.0378991046648317));
#2108=CARTESIAN_POINT('',(-0.148652459016393,-0.08001,0.0361429508196721));
#2109=CARTESIAN_POINT('',(-0.148652459016393,-0.08001,0.0384289508196722));
#2110=CARTESIAN_POINT('',(-0.147351229508197,-0.08001,0.0395344754098361));
#2111=CARTESIAN_POINT('',(0.,0.,0.));
#2112=CARTESIAN_POINT('',(0.2286,-0.3048,1.7347234759768E-18));
#2113=CARTESIAN_POINT('',(0.2286,0.,1.7347234759768E-18));
#2114=CARTESIAN_POINT('',(0.2286,0.,0.0127));
#2115=CARTESIAN_POINT('',(0.2286,0.,-0.0127));
#2116=CARTESIAN_POINT('',(0.2286,-0.3048,0.0127));
#2117=CARTESIAN_POINT('',(0.2286,-0.3048,0.0127));
#2118=CARTESIAN_POINT('',(0.2286,-0.3048,1.7347234759768E-18));
#2119=CARTESIAN_POINT('',(0.2286,-0.3048,-0.0127));
#2120=CARTESIAN_POINT('',(0.2286,-0.3048,-0.0127));
#2121=CARTESIAN_POINT('',(0.,-0.3048,0.0127));
#2122=CARTESIAN_POINT('',(0.,0.,0.0127));
#2123=CARTESIAN_POINT('',(-0.2286,0.,0.0127));
#2124=CARTESIAN_POINT('',(-0.2286,-0.3048,0.0127));
#2125=CARTESIAN_POINT('',(-0.2286,-0.3048,0.0127));
#2126=CARTESIAN_POINT('',(0.,-0.3048,0.0127));
#2127=CARTESIAN_POINT('',(-0.2286,-0.3048,1.7347234759768E-18));
#2128=CARTESIAN_POINT('',(-0.2286,0.,1.7347234759768E-18));
#2129=CARTESIAN_POINT('',(-0.2286,0.,-0.0127));
#2130=CARTESIAN_POINT('',(-0.2286,-0.3048,-0.0127));
#2131=CARTESIAN_POINT('',(-0.2286,-0.3048,-0.0127));
#2132=CARTESIAN_POINT('',(-0.2286,-0.3048,1.7347234759768E-18));
#2133=CARTESIAN_POINT('',(0.,-0.3048,-0.0127));
#2134=CARTESIAN_POINT('',(0.,0.,-0.0127));
#2135=CARTESIAN_POINT('',(0.,-0.3048,-0.0127));
#2136=CARTESIAN_POINT('',(0.,-0.3048,0.));
#2137=CARTESIAN_POINT('',(0.,0.,0.));
#2138=MECHANICAL_DESIGN_GEOMETRIC_PRESENTATION_REPRESENTATION('',(#1312),
#2141);
#2139=MECHANICAL_DESIGN_GEOMETRIC_PRESENTATION_REPRESENTATION('',(#1313),
#2142);
#2140=MECHANICAL_DESIGN_GEOMETRIC_PRESENTATION_REPRESENTATION('',(#1314),
#2143);
#2141=(
GEOMETRIC_REPRESENTATION_CONTEXT(3)
GLOBAL_UNCERTAINTY_ASSIGNED_CONTEXT((#2144))
GLOBAL_UNIT_ASSIGNED_CONTEXT((#2153,#2150,#2147))
REPRESENTATION_CONTEXT('Chair Clamp','TOP_LEVEL_ASSEMBLY_PART')
);
#2142=(
GEOMETRIC_REPRESENTATION_CONTEXT(3)
GLOBAL_UNCERTAINTY_ASSIGNED_CONTEXT((#2145))
GLOBAL_UNIT_ASSIGNED_CONTEXT((#2154,#2151,#2148))
REPRESENTATION_CONTEXT('SnapDragon','TOP_LEVEL_ASSEMBLY_PART')
);
#2143=(
GEOMETRIC_REPRESENTATION_CONTEXT(3)
GLOBAL_UNCERTAINTY_ASSIGNED_CONTEXT((#2146))
GLOBAL_UNIT_ASSIGNED_CONTEXT((#2155,#2152,#2149))
REPRESENTATION_CONTEXT('Board','TOP_LEVEL_ASSEMBLY_PART')
);
#2144=UNCERTAINTY_MEASURE_WITH_UNIT(LENGTH_MEASURE(1.E-8),#2153,
'DISTANCE_ACCURACY_VALUE','Maximum Tolerance applied to model');
#2145=UNCERTAINTY_MEASURE_WITH_UNIT(LENGTH_MEASURE(1.E-8),#2154,
'DISTANCE_ACCURACY_VALUE','Maximum Tolerance applied to model');
#2146=UNCERTAINTY_MEASURE_WITH_UNIT(LENGTH_MEASURE(1.E-8),#2155,
'DISTANCE_ACCURACY_VALUE','Maximum Tolerance applied to model');
#2147=(
NAMED_UNIT(*)
SI_UNIT($,.STERADIAN.)
SOLID_ANGLE_UNIT()
);
#2148=(
NAMED_UNIT(*)
SI_UNIT($,.STERADIAN.)
SOLID_ANGLE_UNIT()
);
#2149=(
NAMED_UNIT(*)
SI_UNIT($,.STERADIAN.)
SOLID_ANGLE_UNIT()
);
#2150=(
NAMED_UNIT(*)
PLANE_ANGLE_UNIT()
SI_UNIT($,.RADIAN.)
);
#2151=(
NAMED_UNIT(*)
PLANE_ANGLE_UNIT()
SI_UNIT($,.RADIAN.)
);
#2152=(
NAMED_UNIT(*)
PLANE_ANGLE_UNIT()
SI_UNIT($,.RADIAN.)
);
#2153=(
LENGTH_UNIT()
NAMED_UNIT(*)
SI_UNIT($,.METRE.)
);
#2154=(
LENGTH_UNIT()
NAMED_UNIT(*)
SI_UNIT($,.METRE.)
);
#2155=(
LENGTH_UNIT()
NAMED_UNIT(*)
SI_UNIT($,.METRE.)
);
#2156=PRODUCT_DEFINITION_SHAPE('','',#2159);
#2157=PRODUCT_DEFINITION_SHAPE('','',#2160);
#2158=PRODUCT_DEFINITION_SHAPE('','',#2161);
#2159=PRODUCT_DEFINITION('','',#2165,#2162);
#2160=PRODUCT_DEFINITION('','',#2166,#2163);
#2161=PRODUCT_DEFINITION('','',#2167,#2164);
#2162=PRODUCT_DEFINITION_CONTEXT('',#2183,'design');
#2163=PRODUCT_DEFINITION_CONTEXT('',#2184,'design');
#2164=PRODUCT_DEFINITION_CONTEXT('',#2185,'design');
#2165=PRODUCT_DEFINITION_FORMATION_WITH_SPECIFIED_SOURCE('','',#2171,
 .NOT_KNOWN.);
#2166=PRODUCT_DEFINITION_FORMATION_WITH_SPECIFIED_SOURCE('','',#2172,
 .NOT_KNOWN.);
#2167=PRODUCT_DEFINITION_FORMATION_WITH_SPECIFIED_SOURCE('','',#2173,
 .NOT_KNOWN.);
#2168=PRODUCT_RELATED_PRODUCT_CATEGORY('','',(#2171));
#2169=PRODUCT_RELATED_PRODUCT_CATEGORY('','',(#2172));
#2170=PRODUCT_RELATED_PRODUCT_CATEGORY('','',(#2173));
#2171=PRODUCT('Chair Clamp','Chair Clamp','Chair Clamp',(#2177));
#2172=PRODUCT('SnapDragon','SnapDragon','SnapDragon',(#2178));
#2173=PRODUCT('Board','Board','Board',(#2179));
#2174=PRODUCT_CATEGORY('','');
#2175=PRODUCT_CATEGORY('','');
#2176=PRODUCT_CATEGORY('','');
#2177=PRODUCT_CONTEXT('',#2183,'mechanical');
#2178=PRODUCT_CONTEXT('',#2184,'mechanical');
#2179=PRODUCT_CONTEXT('',#2185,'mechanical');
#2180=APPLICATION_PROTOCOL_DEFINITION('international standard',
'ap242_managed_model_based_3d_engineering',2020,#2183);
#2181=APPLICATION_PROTOCOL_DEFINITION('international standard',
'ap242_managed_model_based_3d_engineering',2020,#2184);
#2182=APPLICATION_PROTOCOL_DEFINITION('international standard',
'ap242_managed_model_based_3d_engineering',2020,#2185);
#2183=APPLICATION_CONTEXT('managed model based 3d engineering');
#2184=APPLICATION_CONTEXT('managed model based 3d engineering');
#2185=APPLICATION_CONTEXT('managed model based 3d engineering');
ENDSEC;
END-ISO-10303-21;
