ISO-10303-21;
HEADER;
/* Generated by software containing ST-Developer
 * from STEP Tools, Inc. (www.steptools.com) 
 */
/* OPTION: using custom renumber hook */

FILE_DESCRIPTION(
/* description */ ('STEP AP242 Edition 2',
'CAx-IF Rec.Pracs.---Representation and Presentation of Product Manufa
cturing Information (PMI)---4.0---2014-10-13',
'CAx-IF Rec.Pracs.---3D Tessellated Geometry---0.4---2014-09-14','2;1',
'CAx-IF Rec.Pracs.---User Defined Attributes---1.5---2016-08-15'),
/* implementation_level */ '2;1');

FILE_NAME(
/* name */ 'Nut',
/* time_stamp */ '2026-08-06T20:58:05Z',
/* author */ (''),
/* organization */ (''),
/* preprocessor_version */ 'ST-DEVELOPER v20',
/* originating_system */ 'ONSHAPE BY PTC INC, 1.218',
/* authorisation */ '  ');

FILE_SCHEMA (('AP242_MANAGED_MODEL_BASED_3D_ENGINEERING_MIM_LF { 1 0 10303 442 3 1 4 }'));
ENDSEC;

DATA;
#10=SHAPE_REPRESENTATION_RELATIONSHIP('','',#190,#11);
#11=ADVANCED_BREP_SHAPE_REPRESENTATION('',(#188),#303);
#12=CONICAL_SURFACE('',#205,0.000889,0.785398163397448);
#13=CYLINDRICAL_SURFACE('',#201,0.002159);
#14=CIRCLE('',#199,0.002159);
#15=CIRCLE('',#202,0.002159);
#16=CIRCLE('',#204,0.000889);
#17=ORIENTED_EDGE('',*,*,#59,.T.);
#18=ORIENTED_EDGE('',*,*,#60,.F.);
#19=ORIENTED_EDGE('',*,*,#61,.F.);
#20=ORIENTED_EDGE('',*,*,#62,.T.);
#21=ORIENTED_EDGE('',*,*,#63,.T.);
#22=ORIENTED_EDGE('',*,*,#64,.F.);
#23=ORIENTED_EDGE('',*,*,#65,.F.);
#24=ORIENTED_EDGE('',*,*,#60,.T.);
#25=ORIENTED_EDGE('',*,*,#66,.T.);
#26=ORIENTED_EDGE('',*,*,#67,.F.);
#27=ORIENTED_EDGE('',*,*,#68,.F.);
#28=ORIENTED_EDGE('',*,*,#64,.T.);
#29=ORIENTED_EDGE('',*,*,#69,.T.);
#30=ORIENTED_EDGE('',*,*,#70,.F.);
#31=ORIENTED_EDGE('',*,*,#71,.F.);
#32=ORIENTED_EDGE('',*,*,#67,.T.);
#33=ORIENTED_EDGE('',*,*,#72,.T.);
#34=ORIENTED_EDGE('',*,*,#73,.F.);
#35=ORIENTED_EDGE('',*,*,#74,.F.);
#36=ORIENTED_EDGE('',*,*,#70,.T.);
#37=ORIENTED_EDGE('',*,*,#75,.T.);
#38=ORIENTED_EDGE('',*,*,#62,.F.);
#39=ORIENTED_EDGE('',*,*,#76,.F.);
#40=ORIENTED_EDGE('',*,*,#73,.T.);
#41=ORIENTED_EDGE('',*,*,#77,.F.);
#42=ORIENTED_EDGE('',*,*,#61,.T.);
#43=ORIENTED_EDGE('',*,*,#65,.T.);
#44=ORIENTED_EDGE('',*,*,#68,.T.);
#45=ORIENTED_EDGE('',*,*,#71,.T.);
#46=ORIENTED_EDGE('',*,*,#74,.T.);
#47=ORIENTED_EDGE('',*,*,#76,.T.);
#48=ORIENTED_EDGE('',*,*,#59,.F.);
#49=ORIENTED_EDGE('',*,*,#75,.F.);
#50=ORIENTED_EDGE('',*,*,#72,.F.);
#51=ORIENTED_EDGE('',*,*,#69,.F.);
#52=ORIENTED_EDGE('',*,*,#66,.F.);
#53=ORIENTED_EDGE('',*,*,#63,.F.);
#54=ORIENTED_EDGE('',*,*,#78,.T.);
#55=ORIENTED_EDGE('',*,*,#77,.T.);
#56=ORIENTED_EDGE('',*,*,#79,.T.);
#57=ORIENTED_EDGE('',*,*,#78,.F.);
#58=ORIENTED_EDGE('',*,*,#79,.F.);
#59=EDGE_CURVE('',#80,#81,#95,.T.);
#60=EDGE_CURVE('',#82,#81,#96,.T.);
#61=EDGE_CURVE('',#83,#82,#97,.T.);
#62=EDGE_CURVE('',#83,#80,#98,.T.);
#63=EDGE_CURVE('',#81,#84,#99,.T.);
#64=EDGE_CURVE('',#85,#84,#100,.T.);
#65=EDGE_CURVE('',#82,#85,#101,.T.);
#66=EDGE_CURVE('',#84,#86,#102,.T.);
#67=EDGE_CURVE('',#87,#86,#103,.T.);
#68=EDGE_CURVE('',#85,#87,#104,.T.);
#69=EDGE_CURVE('',#86,#88,#105,.T.);
#70=EDGE_CURVE('',#89,#88,#106,.T.);
#71=EDGE_CURVE('',#87,#89,#107,.T.);
#72=EDGE_CURVE('',#88,#90,#108,.T.);
#73=EDGE_CURVE('',#91,#90,#109,.T.);
#74=EDGE_CURVE('',#89,#91,#110,.T.);
#75=EDGE_CURVE('',#90,#80,#111,.T.);
#76=EDGE_CURVE('',#91,#83,#112,.T.);
#77=EDGE_CURVE('',#92,#92,#14,.T.);
#78=EDGE_CURVE('',#93,#93,#15,.F.);
#79=EDGE_CURVE('',#94,#94,#16,.T.);
#80=VERTEX_POINT('',#257);
#81=VERTEX_POINT('',#258);
#82=VERTEX_POINT('',#260);
#83=VERTEX_POINT('',#262);
#84=VERTEX_POINT('',#266);
#85=VERTEX_POINT('',#268);
#86=VERTEX_POINT('',#272);
#87=VERTEX_POINT('',#274);
#88=VERTEX_POINT('',#278);
#89=VERTEX_POINT('',#280);
#90=VERTEX_POINT('',#284);
#91=VERTEX_POINT('',#286);
#92=VERTEX_POINT('',#293);
#93=VERTEX_POINT('',#297);
#94=VERTEX_POINT('',#300);
#95=LINE('',#256,#113);
#96=LINE('',#259,#114);
#97=LINE('',#261,#115);
#98=LINE('',#263,#116);
#99=LINE('',#265,#117);
#100=LINE('',#267,#118);
#101=LINE('',#269,#119);
#102=LINE('',#271,#120);
#103=LINE('',#273,#121);
#104=LINE('',#275,#122);
#105=LINE('',#277,#123);
#106=LINE('',#279,#124);
#107=LINE('',#281,#125);
#108=LINE('',#283,#126);
#109=LINE('',#285,#127);
#110=LINE('',#287,#128);
#111=LINE('',#289,#129);
#112=LINE('',#290,#130);
#113=VECTOR('',#210,1.);
#114=VECTOR('',#211,1.);
#115=VECTOR('',#212,1.);
#116=VECTOR('',#213,1.);
#117=VECTOR('',#216,1.);
#118=VECTOR('',#217,1.);
#119=VECTOR('',#218,1.);
#120=VECTOR('',#221,1.);
#121=VECTOR('',#222,1.);
#122=VECTOR('',#223,1.);
#123=VECTOR('',#226,1.);
#124=VECTOR('',#227,1.);
#125=VECTOR('',#228,1.);
#126=VECTOR('',#231,1.);
#127=VECTOR('',#232,1.);
#128=VECTOR('',#233,1.);
#129=VECTOR('',#236,1.);
#130=VECTOR('',#237,1.);
#131=EDGE_LOOP('',(#17,#18,#19,#20));
#132=EDGE_LOOP('',(#21,#22,#23,#24));
#133=EDGE_LOOP('',(#25,#26,#27,#28));
#134=EDGE_LOOP('',(#29,#30,#31,#32));
#135=EDGE_LOOP('',(#33,#34,#35,#36));
#136=EDGE_LOOP('',(#37,#38,#39,#40));
#137=EDGE_LOOP('',(#41));
#138=EDGE_LOOP('',(#42,#43,#44,#45,#46,#47));
#139=EDGE_LOOP('',(#48,#49,#50,#51,#52,#53));
#140=EDGE_LOOP('',(#54));
#141=EDGE_LOOP('',(#55));
#142=EDGE_LOOP('',(#56));
#143=EDGE_LOOP('',(#57));
#144=EDGE_LOOP('',(#58));
#145=FACE_BOUND('',#131,.T.);
#146=FACE_BOUND('',#132,.T.);
#147=FACE_BOUND('',#133,.T.);
#148=FACE_BOUND('',#134,.T.);
#149=FACE_BOUND('',#135,.T.);
#150=FACE_BOUND('',#136,.T.);
#151=FACE_BOUND('',#137,.T.);
#152=FACE_BOUND('',#138,.T.);
#153=FACE_BOUND('',#139,.T.);
#154=FACE_BOUND('',#140,.T.);
#155=FACE_BOUND('',#141,.T.);
#156=FACE_BOUND('',#142,.T.);
#157=FACE_BOUND('',#143,.T.);
#158=FACE_BOUND('',#144,.T.);
#159=PLANE('',#192);
#160=PLANE('',#193);
#161=PLANE('',#194);
#162=PLANE('',#195);
#163=PLANE('',#196);
#164=PLANE('',#197);
#165=PLANE('',#198);
#166=PLANE('',#200);
#167=PLANE('',#203);
#168=ADVANCED_FACE('',(#145),#159,.F.);
#169=ADVANCED_FACE('',(#146),#160,.F.);
#170=ADVANCED_FACE('',(#147),#161,.F.);
#171=ADVANCED_FACE('',(#148),#162,.F.);
#172=ADVANCED_FACE('',(#149),#163,.F.);
#173=ADVANCED_FACE('',(#150),#164,.F.);
#174=ADVANCED_FACE('',(#151,#152),#165,.T.);
#175=ADVANCED_FACE('',(#153),#166,.F.);
#176=ADVANCED_FACE('',(#154,#155),#13,.T.);
#177=ADVANCED_FACE('',(#156),#167,.T.);
#178=ADVANCED_FACE('',(#157,#158),#12,.T.);
#179=CLOSED_SHELL('',(#168,#169,#170,#171,#172,#173,#174,#175,#176,#177,
#178));
#180=STYLED_ITEM('',(#181),#188);
#181=PRESENTATION_STYLE_ASSIGNMENT((#182));
#182=SURFACE_STYLE_USAGE(.BOTH.,#183);
#183=SURFACE_SIDE_STYLE('',(#184));
#184=SURFACE_STYLE_FILL_AREA(#185);
#185=FILL_AREA_STYLE('',(#186));
#186=FILL_AREA_STYLE_COLOUR('',#187);
#187=COLOUR_RGB('',0.615686274509804,0.811764705882353,0.929411764705882);
#188=MANIFOLD_SOLID_BREP('Nut',#179);
#189=SHAPE_DEFINITION_REPRESENTATION(#308,#190);
#190=SHAPE_REPRESENTATION('Nut',(#191),#303);
#191=AXIS2_PLACEMENT_3D('',#254,#206,#207);
#192=AXIS2_PLACEMENT_3D('',#255,#208,#209);
#193=AXIS2_PLACEMENT_3D('',#264,#214,#215);
#194=AXIS2_PLACEMENT_3D('',#270,#219,#220);
#195=AXIS2_PLACEMENT_3D('',#276,#224,#225);
#196=AXIS2_PLACEMENT_3D('',#282,#229,#230);
#197=AXIS2_PLACEMENT_3D('',#288,#234,#235);
#198=AXIS2_PLACEMENT_3D('',#291,#238,#239);
#199=AXIS2_PLACEMENT_3D('',#292,#240,#241);
#200=AXIS2_PLACEMENT_3D('',#294,#242,#243);
#201=AXIS2_PLACEMENT_3D('',#295,#244,#245);
#202=AXIS2_PLACEMENT_3D('',#296,#246,#247);
#203=AXIS2_PLACEMENT_3D('',#298,#248,#249);
#204=AXIS2_PLACEMENT_3D('',#299,#250,#251);
#205=AXIS2_PLACEMENT_3D('',#301,#252,#253);
#206=DIRECTION('',(0.,0.,1.));
#207=DIRECTION('',(1.,0.,0.));
#208=DIRECTION('',(-0.600108250499055,-0.799918800681022,0.));
#209=DIRECTION('',(0.799918800681022,-0.600108250499055,0.));
#210=DIRECTION('',(-0.799918800681022,0.600108250499055,0.));
#211=DIRECTION('',(0.,0.,-1.));
#212=DIRECTION('',(-0.799918800681022,0.600108250499055,0.));
#213=DIRECTION('',(0.,0.,-1.));
#214=DIRECTION('',(0.392695877105018,-0.919668390293327,0.));
#215=DIRECTION('',(0.919668390293328,0.392695877105019,0.));
#216=DIRECTION('',(-0.919668390293328,-0.392695877105018,0.));
#217=DIRECTION('',(0.,0.,-1.));
#218=DIRECTION('',(-0.919668390293328,-0.392695877105018,0.));
#219=DIRECTION('',(0.992804127604073,-0.119749589612306,0.));
#220=DIRECTION('',(0.119749589612306,0.992804127604073,0.));
#221=DIRECTION('',(-0.119749589612306,-0.992804127604073,0.));
#222=DIRECTION('',(0.,0.,-1.));
#223=DIRECTION('',(-0.119749589612306,-0.992804127604073,0.));
#224=DIRECTION('',(0.600108250499055,0.799918800681021,0.));
#225=DIRECTION('',(-0.799918800681021,0.600108250499055,0.));
#226=DIRECTION('',(0.799918800681021,-0.600108250499055,0.));
#227=DIRECTION('',(0.,0.,-1.));
#228=DIRECTION('',(0.799918800681021,-0.600108250499055,0.));
#229=DIRECTION('',(-0.392695877105019,0.919668390293328,0.));
#230=DIRECTION('',(-0.919668390293328,-0.392695877105019,0.));
#231=DIRECTION('',(0.919668390293328,0.392695877105019,0.));
#232=DIRECTION('',(0.,0.,-1.));
#233=DIRECTION('',(0.919668390293328,0.392695877105019,0.));
#234=DIRECTION('',(-0.992804127604073,0.119749589612307,0.));
#235=DIRECTION('',(-0.119749589612307,-0.992804127604073,0.));
#236=DIRECTION('',(0.119749589612307,0.992804127604073,0.));
#237=DIRECTION('',(0.119749589612307,0.992804127604073,0.));
#238=DIRECTION('',(0.,0.,1.));
#239=DIRECTION('',(1.,0.,0.));
#240=DIRECTION('',(0.,0.,1.));
#241=DIRECTION('',(1.,0.,0.));
#242=DIRECTION('',(0.,0.,1.));
#243=DIRECTION('',(1.,0.,0.));
#244=DIRECTION('',(0.,0.,-1.));
#245=DIRECTION('',(-1.,0.,0.));
#246=DIRECTION('',(0.,0.,1.));
#247=DIRECTION('',(1.,0.,0.));
#248=DIRECTION('',(0.,0.,1.));
#249=DIRECTION('',(1.,0.,0.));
#250=DIRECTION('',(0.,0.,1.));
#251=DIRECTION('',(1.,0.,0.));
#252=DIRECTION('',(0.,0.,-1.));
#253=DIRECTION('',(-1.,0.,0.));
#254=CARTESIAN_POINT('',(0.,0.,0.));
#255=CARTESIAN_POINT('',(0.003810687390669,0.00507948438432449,0.00635));
#256=CARTESIAN_POINT('',(0.003810687390669,0.00507948438432449,0.));
#257=CARTESIAN_POINT('',(0.00674332906730324,0.00287938299352423,0.));
#258=CARTESIAN_POINT('',(0.000878045714034754,0.00727958577512475,0.));
#259=CARTESIAN_POINT('',(0.000878045714034754,0.00727958577512475,0.00635));
#260=CARTESIAN_POINT('',(0.000878045714034754,0.00727958577512475,0.00635));
#261=CARTESIAN_POINT('',(0.003810687390669,0.00507948438432449,0.00635));
#262=CARTESIAN_POINT('',(0.00674332906730324,0.00287938299352423,0.00635));
#263=CARTESIAN_POINT('',(0.00674332906730324,0.00287938299352423,0.00635));
#264=CARTESIAN_POINT('',(-0.00249361881961687,0.00583989427836263,0.00635));
#265=CARTESIAN_POINT('',(-0.00249361881961687,0.00583989427836263,0.));
#266=CARTESIAN_POINT('',(-0.00586528335326849,0.00440020278160051,0.));
#267=CARTESIAN_POINT('',(-0.00586528335326849,0.00440020278160051,0.00635));
#268=CARTESIAN_POINT('',(-0.00586528335326849,0.00440020278160051,0.00635));
#269=CARTESIAN_POINT('',(-0.00249361881961687,0.00583989427836263,0.00635));
#270=CARTESIAN_POINT('',(-0.00630430621028587,0.000760409894038137,0.00635));
#271=CARTESIAN_POINT('',(-0.00630430621028587,0.000760409894038137,0.));
#272=CARTESIAN_POINT('',(-0.00674332906730324,-0.00287938299352423,0.));
#273=CARTESIAN_POINT('',(-0.00674332906730324,-0.00287938299352423,0.00635));
#274=CARTESIAN_POINT('',(-0.00674332906730324,-0.00287938299352423,0.00635));
#275=CARTESIAN_POINT('',(-0.00630430621028587,0.000760409894038137,0.00635));
#276=CARTESIAN_POINT('',(-0.003810687390669,-0.00507948438432449,0.00635));
#277=CARTESIAN_POINT('',(-0.003810687390669,-0.00507948438432449,0.));
#278=CARTESIAN_POINT('',(-0.000878045714034755,-0.00727958577512475,0.));
#279=CARTESIAN_POINT('',(-0.000878045714034755,-0.00727958577512475,0.00635));
#280=CARTESIAN_POINT('',(-0.000878045714034755,-0.00727958577512475,0.00635));
#281=CARTESIAN_POINT('',(-0.003810687390669,-0.00507948438432449,0.00635));
#282=CARTESIAN_POINT('',(0.00249361881961687,-0.00583989427836263,0.00635));
#283=CARTESIAN_POINT('',(0.00249361881961687,-0.00583989427836263,0.));
#284=CARTESIAN_POINT('',(0.00586528335326849,-0.00440020278160051,0.));
#285=CARTESIAN_POINT('',(0.00586528335326849,-0.00440020278160051,0.00635));
#286=CARTESIAN_POINT('',(0.00586528335326849,-0.00440020278160051,0.00635));
#287=CARTESIAN_POINT('',(0.00249361881961687,-0.00583989427836263,0.00635));
#288=CARTESIAN_POINT('',(0.00630430621028587,-0.000760409894038143,0.00635));
#289=CARTESIAN_POINT('',(0.00630430621028587,-0.000760409894038143,0.));
#290=CARTESIAN_POINT('',(0.00630430621028587,-0.000760409894038143,0.00635));
#291=CARTESIAN_POINT('',(3.46944695195361E-18,-1.7347234759768E-18,0.00635));
#292=CARTESIAN_POINT('',(0.,1.32200621967957E-19,0.00635));
#293=CARTESIAN_POINT('',(0.002159,1.32200621967957E-19,0.00635));
#294=CARTESIAN_POINT('',(3.46944695195361E-18,-1.7347234759768E-18,0.));
#295=CARTESIAN_POINT('',(0.,1.32200621967957E-19,0.02921));
#296=CARTESIAN_POINT('',(0.,1.32200621967957E-19,0.02794));
#297=CARTESIAN_POINT('',(0.002159,1.32200621967957E-19,0.02794));
#298=CARTESIAN_POINT('',(0.,0.,0.02921));
#299=CARTESIAN_POINT('',(0.,1.32200621967957E-19,0.02921));
#300=CARTESIAN_POINT('',(0.000889,1.32200621967957E-19,0.02921));
#301=CARTESIAN_POINT('',(0.,1.32200621967957E-19,0.02921));
#302=MECHANICAL_DESIGN_GEOMETRIC_PRESENTATION_REPRESENTATION('',(#180),
#303);
#303=(
GEOMETRIC_REPRESENTATION_CONTEXT(3)
GLOBAL_UNCERTAINTY_ASSIGNED_CONTEXT((#304))
GLOBAL_UNIT_ASSIGNED_CONTEXT((#307,#306,#305))
REPRESENTATION_CONTEXT('Nut','TOP_LEVEL_ASSEMBLY_PART')
);
#304=UNCERTAINTY_MEASURE_WITH_UNIT(LENGTH_MEASURE(1.E-8),#307,
'DISTANCE_ACCURACY_VALUE','Maximum Tolerance applied to model');
#305=(
NAMED_UNIT(*)
SI_UNIT($,.STERADIAN.)
SOLID_ANGLE_UNIT()
);
#306=(
NAMED_UNIT(*)
PLANE_ANGLE_UNIT()
SI_UNIT($,.RADIAN.)
);
#307=(
LENGTH_UNIT()
NAMED_UNIT(*)
SI_UNIT($,.METRE.)
);
#308=PRODUCT_DEFINITION_SHAPE('','',#309);
#309=PRODUCT_DEFINITION('','',#311,#310);
#310=PRODUCT_DEFINITION_CONTEXT('',#317,'design');
#311=PRODUCT_DEFINITION_FORMATION_WITH_SPECIFIED_SOURCE('','',#313,
 .NOT_KNOWN.);
#312=PRODUCT_RELATED_PRODUCT_CATEGORY('','',(#313));
#313=PRODUCT('Nut','Nut','Nut',(#315));
#314=PRODUCT_CATEGORY('','');
#315=PRODUCT_CONTEXT('',#317,'mechanical');
#316=APPLICATION_PROTOCOL_DEFINITION('international standard',
'ap242_managed_model_based_3d_engineering',2020,#317);
#317=APPLICATION_CONTEXT('managed model based 3d engineering');
ENDSEC;
END-ISO-10303-21;
