ISO-10303-21;
HEADER;
/* Generated by software containing ST-Developer
 * from STEP Tools, Inc. (www.steptools.com) 
 */
/* OPTION: using custom renumber hook */

FILE_DESCRIPTION(
/* description */ ('STEP AP242 Edition 2',
'CAx-IF Rec.Pracs.---Representation and Presentation of Product Manufa
cturing Information (PMI)---4.0---2014-10-13',
'CAx-IF Rec.Pracs.---3D Tessellated Geometry---0.4---2014-09-14','2;1',
'CAx-IF Rec.Pracs.---User Defined Attributes---1.5---2016-08-15'),
/* implementation_level */ '2;1');

FILE_NAME(
/* name */ 'Rachet Wheel Mount',
/* time_stamp */ '2026-08-06T20:14:40Z',
/* author */ (''),
/* organization */ (''),
/* preprocessor_version */ 'ST-DEVELOPER v20',
/* originating_system */ 'ONSHAPE BY PTC INC, 1.218',
/* authorisation */ '  ');

FILE_SCHEMA (('AP242_MANAGED_MODEL_BASED_3D_ENGINEERING_MIM_LF { 1 0 10303 442 3 1 4 }'));
ENDSEC;

DATA;
#10=SHAPE_REPRESENTATION_RELATIONSHIP('','',#216,#11);
#11=ADVANCED_BREP_SHAPE_REPRESENTATION('',(#214),#359);
#12=CYLINDRICAL_SURFACE('',#228,0.003175);
#13=LINE('',#309,#31);
#14=LINE('',#313,#32);
#15=LINE('',#317,#33);
#16=LINE('',#321,#34);
#17=LINE('',#325,#35);
#18=LINE('',#332,#36);
#19=LINE('',#334,#37);
#20=LINE('',#336,#38);
#21=LINE('',#338,#39);
#22=LINE('',#340,#40);
#23=LINE('',#342,#41);
#24=LINE('',#344,#42);
#25=LINE('',#346,#43);
#26=LINE('',#348,#44);
#27=LINE('',#350,#45);
#28=LINE('',#352,#46);
#29=LINE('',#354,#47);
#30=LINE('',#356,#48);
#31=VECTOR('',#246,1.);
#32=VECTOR('',#251,1.);
#33=VECTOR('',#256,1.);
#34=VECTOR('',#261,1.);
#35=VECTOR('',#266,1.);
#36=VECTOR('',#277,1.);
#37=VECTOR('',#280,1.);
#38=VECTOR('',#281,1.);
#39=VECTOR('',#282,1.);
#40=VECTOR('',#285,1.);
#41=VECTOR('',#286,1.);
#42=VECTOR('',#289,1.);
#43=VECTOR('',#290,1.);
#44=VECTOR('',#293,1.);
#45=VECTOR('',#294,1.);
#46=VECTOR('',#297,1.);
#47=VECTOR('',#298,1.);
#48=VECTOR('',#301,1.);
#49=ORIENTED_EDGE('',*,*,#99,.F.);
#50=ORIENTED_EDGE('',*,*,#100,.T.);
#51=ORIENTED_EDGE('',*,*,#101,.F.);
#52=ORIENTED_EDGE('',*,*,#102,.T.);
#53=ORIENTED_EDGE('',*,*,#103,.F.);
#54=ORIENTED_EDGE('',*,*,#104,.T.);
#55=ORIENTED_EDGE('',*,*,#105,.F.);
#56=ORIENTED_EDGE('',*,*,#106,.T.);
#57=ORIENTED_EDGE('',*,*,#107,.F.);
#58=ORIENTED_EDGE('',*,*,#108,.T.);
#59=ORIENTED_EDGE('',*,*,#109,.F.);
#60=ORIENTED_EDGE('',*,*,#107,.T.);
#61=ORIENTED_EDGE('',*,*,#110,.T.);
#62=ORIENTED_EDGE('',*,*,#99,.T.);
#63=ORIENTED_EDGE('',*,*,#101,.T.);
#64=ORIENTED_EDGE('',*,*,#103,.T.);
#65=ORIENTED_EDGE('',*,*,#105,.T.);
#66=ORIENTED_EDGE('',*,*,#109,.T.);
#67=ORIENTED_EDGE('',*,*,#110,.F.);
#68=ORIENTED_EDGE('',*,*,#111,.T.);
#69=ORIENTED_EDGE('',*,*,#100,.F.);
#70=ORIENTED_EDGE('',*,*,#112,.F.);
#71=ORIENTED_EDGE('',*,*,#113,.T.);
#72=ORIENTED_EDGE('',*,*,#114,.T.);
#73=ORIENTED_EDGE('',*,*,#102,.F.);
#74=ORIENTED_EDGE('',*,*,#114,.F.);
#75=ORIENTED_EDGE('',*,*,#115,.T.);
#76=ORIENTED_EDGE('',*,*,#116,.T.);
#77=ORIENTED_EDGE('',*,*,#104,.F.);
#78=ORIENTED_EDGE('',*,*,#116,.F.);
#79=ORIENTED_EDGE('',*,*,#117,.T.);
#80=ORIENTED_EDGE('',*,*,#118,.T.);
#81=ORIENTED_EDGE('',*,*,#106,.F.);
#82=ORIENTED_EDGE('',*,*,#118,.F.);
#83=ORIENTED_EDGE('',*,*,#119,.T.);
#84=ORIENTED_EDGE('',*,*,#120,.T.);
#85=ORIENTED_EDGE('',*,*,#108,.F.);
#86=ORIENTED_EDGE('',*,*,#120,.F.);
#87=ORIENTED_EDGE('',*,*,#121,.T.);
#88=ORIENTED_EDGE('',*,*,#122,.T.);
#89=ORIENTED_EDGE('',*,*,#111,.F.);
#90=ORIENTED_EDGE('',*,*,#122,.F.);
#91=ORIENTED_EDGE('',*,*,#123,.T.);
#92=ORIENTED_EDGE('',*,*,#112,.T.);
#93=ORIENTED_EDGE('',*,*,#113,.F.);
#94=ORIENTED_EDGE('',*,*,#123,.F.);
#95=ORIENTED_EDGE('',*,*,#121,.F.);
#96=ORIENTED_EDGE('',*,*,#119,.F.);
#97=ORIENTED_EDGE('',*,*,#117,.F.);
#98=ORIENTED_EDGE('',*,*,#115,.F.);
#99=EDGE_CURVE('',#124,#125,#137,.T.);
#100=EDGE_CURVE('',#124,#125,#13,.T.);
#101=EDGE_CURVE('',#125,#126,#138,.T.);
#102=EDGE_CURVE('',#125,#126,#14,.T.);
#103=EDGE_CURVE('',#126,#127,#139,.T.);
#104=EDGE_CURVE('',#126,#127,#15,.T.);
#105=EDGE_CURVE('',#127,#128,#140,.T.);
#106=EDGE_CURVE('',#127,#128,#16,.T.);
#107=EDGE_CURVE('',#128,#129,#141,.T.);
#108=EDGE_CURVE('',#128,#129,#17,.T.);
#109=EDGE_CURVE('',#130,#130,#142,.T.);
#110=EDGE_CURVE('',#129,#124,#143,.T.);
#111=EDGE_CURVE('',#129,#124,#18,.T.);
#112=EDGE_CURVE('',#131,#124,#19,.T.);
#113=EDGE_CURVE('',#131,#132,#20,.T.);
#114=EDGE_CURVE('',#132,#125,#21,.T.);
#115=EDGE_CURVE('',#132,#133,#22,.T.);
#116=EDGE_CURVE('',#133,#126,#23,.T.);
#117=EDGE_CURVE('',#133,#134,#24,.T.);
#118=EDGE_CURVE('',#134,#127,#25,.T.);
#119=EDGE_CURVE('',#134,#135,#26,.T.);
#120=EDGE_CURVE('',#135,#128,#27,.T.);
#121=EDGE_CURVE('',#135,#136,#28,.T.);
#122=EDGE_CURVE('',#136,#129,#29,.T.);
#123=EDGE_CURVE('',#136,#131,#30,.T.);
#124=VERTEX_POINT('',#307);
#125=VERTEX_POINT('',#308);
#126=VERTEX_POINT('',#312);
#127=VERTEX_POINT('',#316);
#128=VERTEX_POINT('',#320);
#129=VERTEX_POINT('',#324);
#130=VERTEX_POINT('',#328);
#131=VERTEX_POINT('',#335);
#132=VERTEX_POINT('',#337);
#133=VERTEX_POINT('',#341);
#134=VERTEX_POINT('',#345);
#135=VERTEX_POINT('',#349);
#136=VERTEX_POINT('',#353);
#137=CIRCLE('',#219,0.003175);
#138=CIRCLE('',#221,0.003175);
#139=CIRCLE('',#223,0.003175);
#140=CIRCLE('',#225,0.003175);
#141=CIRCLE('',#227,0.003175);
#142=CIRCLE('',#229,0.003175);
#143=CIRCLE('',#230,0.003175);
#144=EDGE_LOOP('',(#49,#50));
#145=EDGE_LOOP('',(#51,#52));
#146=EDGE_LOOP('',(#53,#54));
#147=EDGE_LOOP('',(#55,#56));
#148=EDGE_LOOP('',(#57,#58));
#149=EDGE_LOOP('',(#59));
#150=EDGE_LOOP('',(#60,#61,#62,#63,#64,#65));
#151=EDGE_LOOP('',(#66));
#152=EDGE_LOOP('',(#67,#68));
#153=EDGE_LOOP('',(#69,#70,#71,#72));
#154=EDGE_LOOP('',(#73,#74,#75,#76));
#155=EDGE_LOOP('',(#77,#78,#79,#80));
#156=EDGE_LOOP('',(#81,#82,#83,#84));
#157=EDGE_LOOP('',(#85,#86,#87,#88));
#158=EDGE_LOOP('',(#89,#90,#91,#92));
#159=EDGE_LOOP('',(#93,#94,#95,#96,#97,#98));
#160=FACE_BOUND('',#144,.T.);
#161=FACE_BOUND('',#145,.T.);
#162=FACE_BOUND('',#146,.T.);
#163=FACE_BOUND('',#147,.T.);
#164=FACE_BOUND('',#148,.T.);
#165=FACE_BOUND('',#149,.T.);
#166=FACE_BOUND('',#150,.T.);
#167=FACE_BOUND('',#151,.T.);
#168=FACE_BOUND('',#152,.T.);
#169=FACE_BOUND('',#153,.T.);
#170=FACE_BOUND('',#154,.T.);
#171=FACE_BOUND('',#155,.T.);
#172=FACE_BOUND('',#156,.T.);
#173=FACE_BOUND('',#157,.T.);
#174=FACE_BOUND('',#158,.T.);
#175=FACE_BOUND('',#159,.T.);
#176=PLANE('',#218);
#177=PLANE('',#220);
#178=PLANE('',#222);
#179=PLANE('',#224);
#180=PLANE('',#226);
#181=PLANE('',#231);
#182=PLANE('',#232);
#183=PLANE('',#233);
#184=PLANE('',#234);
#185=PLANE('',#235);
#186=PLANE('',#236);
#187=PLANE('',#237);
#188=PLANE('',#238);
#189=PLANE('',#239);
#190=ADVANCED_FACE('',(#160),#176,.F.);
#191=ADVANCED_FACE('',(#161),#177,.F.);
#192=ADVANCED_FACE('',(#162),#178,.F.);
#193=ADVANCED_FACE('',(#163),#179,.F.);
#194=ADVANCED_FACE('',(#164),#180,.F.);
#195=ADVANCED_FACE('',(#165,#166),#12,.T.);
#196=ADVANCED_FACE('',(#167),#181,.T.);
#197=ADVANCED_FACE('',(#168),#182,.F.);
#198=ADVANCED_FACE('',(#169),#183,.T.);
#199=ADVANCED_FACE('',(#170),#184,.T.);
#200=ADVANCED_FACE('',(#171),#185,.T.);
#201=ADVANCED_FACE('',(#172),#186,.T.);
#202=ADVANCED_FACE('',(#173),#187,.T.);
#203=ADVANCED_FACE('',(#174),#188,.T.);
#204=ADVANCED_FACE('',(#175),#189,.F.);
#205=CLOSED_SHELL('',(#190,#191,#192,#193,#194,#195,#196,#197,#198,#199,
#200,#201,#202,#203,#204));
#206=STYLED_ITEM('',(#207),#214);
#207=PRESENTATION_STYLE_ASSIGNMENT((#208));
#208=SURFACE_STYLE_USAGE(.BOTH.,#209);
#209=SURFACE_SIDE_STYLE('',(#210));
#210=SURFACE_STYLE_FILL_AREA(#211);
#211=FILL_AREA_STYLE('',(#212));
#212=FILL_AREA_STYLE_COLOUR('',#213);
#213=COLOUR_RGB('',0.615686274509804,0.811764705882353,0.929411764705882);
#214=MANIFOLD_SOLID_BREP('Part 1',#205);
#215=SHAPE_DEFINITION_REPRESENTATION(#364,#216);
#216=SHAPE_REPRESENTATION('Part 1',(#217),#359);
#217=AXIS2_PLACEMENT_3D('',#304,#240,#241);
#218=AXIS2_PLACEMENT_3D('',#305,#242,#243);
#219=AXIS2_PLACEMENT_3D('',#306,#244,#245);
#220=AXIS2_PLACEMENT_3D('',#310,#247,#248);
#221=AXIS2_PLACEMENT_3D('',#311,#249,#250);
#222=AXIS2_PLACEMENT_3D('',#314,#252,#253);
#223=AXIS2_PLACEMENT_3D('',#315,#254,#255);
#224=AXIS2_PLACEMENT_3D('',#318,#257,#258);
#225=AXIS2_PLACEMENT_3D('',#319,#259,#260);
#226=AXIS2_PLACEMENT_3D('',#322,#262,#263);
#227=AXIS2_PLACEMENT_3D('',#323,#264,#265);
#228=AXIS2_PLACEMENT_3D('',#326,#267,#268);
#229=AXIS2_PLACEMENT_3D('',#327,#269,#270);
#230=AXIS2_PLACEMENT_3D('',#329,#271,#272);
#231=AXIS2_PLACEMENT_3D('',#330,#273,#274);
#232=AXIS2_PLACEMENT_3D('',#331,#275,#276);
#233=AXIS2_PLACEMENT_3D('',#333,#278,#279);
#234=AXIS2_PLACEMENT_3D('',#339,#283,#284);
#235=AXIS2_PLACEMENT_3D('',#343,#287,#288);
#236=AXIS2_PLACEMENT_3D('',#347,#291,#292);
#237=AXIS2_PLACEMENT_3D('',#351,#295,#296);
#238=AXIS2_PLACEMENT_3D('',#355,#299,#300);
#239=AXIS2_PLACEMENT_3D('',#357,#302,#303);
#240=DIRECTION('',(0.,0.,1.));
#241=DIRECTION('',(1.,0.,0.));
#242=DIRECTION('',(0.,0.,1.));
#243=DIRECTION('',(1.,0.,0.));
#244=DIRECTION('',(0.,0.,1.));
#245=DIRECTION('',(1.,0.,0.));
#246=DIRECTION('',(0.,-1.,0.));
#247=DIRECTION('',(0.,0.,1.));
#248=DIRECTION('',(1.,0.,0.));
#249=DIRECTION('',(0.,0.,1.));
#250=DIRECTION('',(1.,0.,0.));
#251=DIRECTION('',(0.866025403784439,-0.5,0.));
#252=DIRECTION('',(0.,0.,1.));
#253=DIRECTION('',(1.,0.,0.));
#254=DIRECTION('',(0.,0.,1.));
#255=DIRECTION('',(1.,0.,0.));
#256=DIRECTION('',(0.866025403784439,0.5,0.));
#257=DIRECTION('',(0.,0.,1.));
#258=DIRECTION('',(1.,0.,0.));
#259=DIRECTION('',(0.,0.,1.));
#260=DIRECTION('',(1.,0.,0.));
#261=DIRECTION('',(0.,1.,0.));
#262=DIRECTION('',(0.,0.,1.));
#263=DIRECTION('',(1.,0.,0.));
#264=DIRECTION('',(0.,0.,1.));
#265=DIRECTION('',(1.,0.,0.));
#266=DIRECTION('',(-0.866025403784438,0.5,0.));
#267=DIRECTION('',(0.,0.,-1.));
#268=DIRECTION('',(-1.,0.,0.));
#269=DIRECTION('',(0.,0.,1.));
#270=DIRECTION('',(1.,0.,0.));
#271=DIRECTION('',(0.,0.,1.));
#272=DIRECTION('',(1.,0.,0.));
#273=DIRECTION('',(0.,0.,1.));
#274=DIRECTION('',(1.,0.,0.));
#275=DIRECTION('',(0.,0.,1.));
#276=DIRECTION('',(1.,0.,0.));
#277=DIRECTION('',(-0.866025403784439,-0.5,0.));
#278=DIRECTION('',(-1.,0.,0.));
#279=DIRECTION('',(0.,0.,1.));
#280=DIRECTION('',(0.,0.,1.));
#281=DIRECTION('',(0.,-1.,0.));
#282=DIRECTION('',(0.,0.,1.));
#283=DIRECTION('',(-0.5,-0.866025403784438,0.));
#284=DIRECTION('',(0.866025403784439,-0.5,0.));
#285=DIRECTION('',(0.866025403784439,-0.5,0.));
#286=DIRECTION('',(0.,0.,1.));
#287=DIRECTION('',(0.5,-0.866025403784439,0.));
#288=DIRECTION('',(0.866025403784439,0.5,0.));
#289=DIRECTION('',(0.866025403784439,0.5,0.));
#290=DIRECTION('',(0.,0.,1.));
#291=DIRECTION('',(1.,0.,0.));
#292=DIRECTION('',(0.,0.,-1.));
#293=DIRECTION('',(0.,1.,0.));
#294=DIRECTION('',(0.,0.,1.));
#295=DIRECTION('',(0.5,0.866025403784438,0.));
#296=DIRECTION('',(-0.866025403784438,0.5,0.));
#297=DIRECTION('',(-0.866025403784438,0.5,0.));
#298=DIRECTION('',(0.,0.,1.));
#299=DIRECTION('',(-0.5,0.866025403784438,0.));
#300=DIRECTION('',(-0.866025403784439,-0.5,0.));
#301=DIRECTION('',(-0.866025403784439,-0.5,0.));
#302=DIRECTION('',(0.,0.,1.));
#303=DIRECTION('',(1.,0.,0.));
#304=CARTESIAN_POINT('',(0.,0.,0.));
#305=CARTESIAN_POINT('',(0.,0.,0.));
#306=CARTESIAN_POINT('',(1.7347234759768E-18,-1.3010426069826E-18,0.));
#307=CARTESIAN_POINT('',(-0.00274963065701559,0.0015875,0.));
#308=CARTESIAN_POINT('',(-0.0027496306570156,-0.0015875,0.));
#309=CARTESIAN_POINT('',(-0.0027496306570156,0.,0.));
#310=CARTESIAN_POINT('',(0.,0.,0.));
#311=CARTESIAN_POINT('',(1.7347234759768E-18,-1.3010426069826E-18,0.));
#312=CARTESIAN_POINT('',(-5.83238038093927E-19,-0.003175,0.));
#313=CARTESIAN_POINT('',(-0.0013748153285078,-0.00238125,0.));
#314=CARTESIAN_POINT('',(0.,0.,0.));
#315=CARTESIAN_POINT('',(1.7347234759768E-18,-1.3010426069826E-18,0.));
#316=CARTESIAN_POINT('',(0.0027496306570156,-0.0015875,0.));
#317=CARTESIAN_POINT('',(0.00137481532850779,-0.00238125,0.));
#318=CARTESIAN_POINT('',(0.,0.,0.));
#319=CARTESIAN_POINT('',(1.7347234759768E-18,-1.3010426069826E-18,0.));
#320=CARTESIAN_POINT('',(0.0027496306570156,0.0015875,0.));
#321=CARTESIAN_POINT('',(0.0027496306570156,-4.33680868994202E-19,0.));
#322=CARTESIAN_POINT('',(0.,0.,0.));
#323=CARTESIAN_POINT('',(1.7347234759768E-18,-1.3010426069826E-18,0.));
#324=CARTESIAN_POINT('',(1.94412679364643E-19,0.003175,0.));
#325=CARTESIAN_POINT('',(0.0013748153285078,0.00238125,0.));
#326=CARTESIAN_POINT('',(1.7347234759768E-18,-1.3010426069826E-18,0.0254));
#327=CARTESIAN_POINT('',(1.7347234759768E-18,-1.3010426069826E-18,0.0254));
#328=CARTESIAN_POINT('',(0.003175,-1.3010426069826E-18,0.0254));
#329=CARTESIAN_POINT('',(1.7347234759768E-18,-1.3010426069826E-18,0.));
#330=CARTESIAN_POINT('',(0.,0.,0.0254));
#331=CARTESIAN_POINT('',(0.,0.,0.));
#332=CARTESIAN_POINT('',(-0.0013748153285078,0.00238125,0.));
#333=CARTESIAN_POINT('',(-0.0027496306570156,0.,-0.0127));
#334=CARTESIAN_POINT('',(-0.0027496306570156,0.0015875,-0.0127));
#335=CARTESIAN_POINT('',(-0.0027496306570156,0.0015875,-0.0127));
#336=CARTESIAN_POINT('',(-0.0027496306570156,0.,-0.0127));
#337=CARTESIAN_POINT('',(-0.0027496306570156,-0.0015875,-0.0127));
#338=CARTESIAN_POINT('',(-0.0027496306570156,-0.0015875,-0.0127));
#339=CARTESIAN_POINT('',(-0.0013748153285078,-0.00238125,-0.0127));
#340=CARTESIAN_POINT('',(-0.0013748153285078,-0.00238125,-0.0127));
#341=CARTESIAN_POINT('',(-5.83238038093927E-19,-0.003175,-0.0127));
#342=CARTESIAN_POINT('',(-5.83238038093927E-19,-0.003175,-0.0127));
#343=CARTESIAN_POINT('',(0.00137481532850779,-0.00238125,-0.0127));
#344=CARTESIAN_POINT('',(0.00137481532850779,-0.00238125,-0.0127));
#345=CARTESIAN_POINT('',(0.0027496306570156,-0.0015875,-0.0127));
#346=CARTESIAN_POINT('',(0.0027496306570156,-0.0015875,-0.0127));
#347=CARTESIAN_POINT('',(0.0027496306570156,-4.33680868994202E-19,-0.0127));
#348=CARTESIAN_POINT('',(0.0027496306570156,-4.33680868994202E-19,-0.0127));
#349=CARTESIAN_POINT('',(0.0027496306570156,0.0015875,-0.0127));
#350=CARTESIAN_POINT('',(0.0027496306570156,0.0015875,-0.0127));
#351=CARTESIAN_POINT('',(0.0013748153285078,0.00238125,-0.0127));
#352=CARTESIAN_POINT('',(0.0013748153285078,0.00238125,-0.0127));
#353=CARTESIAN_POINT('',(1.94412679364643E-19,0.003175,-0.0127));
#354=CARTESIAN_POINT('',(1.94412679364643E-19,0.003175,-0.0127));
#355=CARTESIAN_POINT('',(-0.0013748153285078,0.00238125,-0.0127));
#356=CARTESIAN_POINT('',(-0.0013748153285078,0.00238125,-0.0127));
#357=CARTESIAN_POINT('',(0.,0.,-0.0127));
#358=MECHANICAL_DESIGN_GEOMETRIC_PRESENTATION_REPRESENTATION('',(#206),
#359);
#359=(
GEOMETRIC_REPRESENTATION_CONTEXT(3)
GLOBAL_UNCERTAINTY_ASSIGNED_CONTEXT((#360))
GLOBAL_UNIT_ASSIGNED_CONTEXT((#363,#362,#361))
REPRESENTATION_CONTEXT('Part 1','TOP_LEVEL_ASSEMBLY_PART')
);
#360=UNCERTAINTY_MEASURE_WITH_UNIT(LENGTH_MEASURE(1.E-8),#363,
'DISTANCE_ACCURACY_VALUE','Maximum Tolerance applied to model');
#361=(
NAMED_UNIT(*)
SI_UNIT($,.STERADIAN.)
SOLID_ANGLE_UNIT()
);
#362=(
NAMED_UNIT(*)
PLANE_ANGLE_UNIT()
SI_UNIT($,.RADIAN.)
);
#363=(
LENGTH_UNIT()
NAMED_UNIT(*)
SI_UNIT($,.METRE.)
);
#364=PRODUCT_DEFINITION_SHAPE('','',#365);
#365=PRODUCT_DEFINITION('','',#367,#366);
#366=PRODUCT_DEFINITION_CONTEXT('',#373,'design');
#367=PRODUCT_DEFINITION_FORMATION_WITH_SPECIFIED_SOURCE('','',#369,
 .NOT_KNOWN.);
#368=PRODUCT_RELATED_PRODUCT_CATEGORY('','',(#369));
#369=PRODUCT('Part 1','Part 1','Part 1',(#371));
#370=PRODUCT_CATEGORY('','');
#371=PRODUCT_CONTEXT('',#373,'mechanical');
#372=APPLICATION_PROTOCOL_DEFINITION('international standard',
'ap242_managed_model_based_3d_engineering',2020,#373);
#373=APPLICATION_CONTEXT('managed model based 3d engineering');
ENDSEC;
END-ISO-10303-21;
