ISO-10303-21;
HEADER;
/* Generated by software containing ST-Developer
 * from STEP Tools, Inc. (www.steptools.com) 
 */
/* OPTION: using custom renumber hook */

FILE_DESCRIPTION(
/* description */ ('STEP AP242 Edition 2',
'CAx-IF Rec.Pracs.---Representation and Presentation of Product Manufa
cturing Information (PMI)---4.0---2014-10-13',
'CAx-IF Rec.Pracs.---3D Tessellated Geometry---0.4---2014-09-14','2;1',
'CAx-IF Rec.Pracs.---User Defined Attributes---1.5---2016-08-15'),
/* implementation_level */ '2;1');

FILE_NAME(
/* name */ 'Screw Long',
/* time_stamp */ '2026-08-06T20:56:04Z',
/* author */ (''),
/* organization */ (''),
/* preprocessor_version */ 'ST-DEVELOPER v20',
/* originating_system */ 'ONSHAPE BY PTC INC, 1.218',
/* authorisation */ '  ');

FILE_SCHEMA (('AP242_MANAGED_MODEL_BASED_3D_ENGINEERING_MIM_LF { 1 0 10303 442 3 1 4 }'));
ENDSEC;

DATA;
#10=SHAPE_REPRESENTATION_RELATIONSHIP('','',#225,#11);
#11=ADVANCED_BREP_SHAPE_REPRESENTATION('',(#223),#360);
#12=VERTEX_LOOP('',#158);
#13=CONICAL_SURFACE('',#241,0.0024892,1.02974425867665);
#14=LINE('',#311,#35);
#15=LINE('',#314,#36);
#16=LINE('',#316,#37);
#17=LINE('',#318,#38);
#18=LINE('',#320,#39);
#19=LINE('',#322,#40);
#20=LINE('',#324,#41);
#21=LINE('',#326,#42);
#22=LINE('',#328,#43);
#23=LINE('',#330,#44);
#24=LINE('',#332,#45);
#25=LINE('',#334,#46);
#26=LINE('',#336,#47);
#27=LINE('',#338,#48);
#28=LINE('',#340,#49);
#29=LINE('',#342,#50);
#30=LINE('',#344,#51);
#31=LINE('',#346,#52);
#32=LINE('',#348,#53);
#33=LINE('',#350,#54);
#34=LINE('',#351,#55);
#35=VECTOR('',#258,1.);
#36=VECTOR('',#259,1.);
#37=VECTOR('',#260,1.);
#38=VECTOR('',#261,1.);
#39=VECTOR('',#264,1.);
#40=VECTOR('',#265,1.);
#41=VECTOR('',#266,1.);
#42=VECTOR('',#269,1.);
#43=VECTOR('',#270,1.);
#44=VECTOR('',#271,1.);
#45=VECTOR('',#274,1.);
#46=VECTOR('',#275,1.);
#47=VECTOR('',#276,1.);
#48=VECTOR('',#279,1.);
#49=VECTOR('',#280,1.);
#50=VECTOR('',#281,1.);
#51=VECTOR('',#284,1.);
#52=VECTOR('',#285,1.);
#53=VECTOR('',#286,1.);
#54=VECTOR('',#289,1.);
#55=VECTOR('',#290,1.);
#56=PLANE('',#230);
#57=PLANE('',#232);
#58=PLANE('',#233);
#59=PLANE('',#234);
#60=PLANE('',#235);
#61=PLANE('',#236);
#62=PLANE('',#237);
#63=PLANE('',#238);
#64=PLANE('',#239);
#65=PLANE('',#240);
#66=ORIENTED_EDGE('',*,*,#116,.T.);
#67=ORIENTED_EDGE('',*,*,#117,.F.);
#68=ORIENTED_EDGE('',*,*,#118,.T.);
#69=ORIENTED_EDGE('',*,*,#117,.T.);
#70=ORIENTED_EDGE('',*,*,#119,.T.);
#71=ORIENTED_EDGE('',*,*,#120,.F.);
#72=ORIENTED_EDGE('',*,*,#121,.F.);
#73=ORIENTED_EDGE('',*,*,#122,.T.);
#74=ORIENTED_EDGE('',*,*,#123,.T.);
#75=ORIENTED_EDGE('',*,*,#124,.F.);
#76=ORIENTED_EDGE('',*,*,#125,.F.);
#77=ORIENTED_EDGE('',*,*,#120,.T.);
#78=ORIENTED_EDGE('',*,*,#126,.T.);
#79=ORIENTED_EDGE('',*,*,#127,.F.);
#80=ORIENTED_EDGE('',*,*,#128,.F.);
#81=ORIENTED_EDGE('',*,*,#124,.T.);
#82=ORIENTED_EDGE('',*,*,#129,.T.);
#83=ORIENTED_EDGE('',*,*,#130,.F.);
#84=ORIENTED_EDGE('',*,*,#131,.F.);
#85=ORIENTED_EDGE('',*,*,#127,.T.);
#86=ORIENTED_EDGE('',*,*,#132,.T.);
#87=ORIENTED_EDGE('',*,*,#133,.F.);
#88=ORIENTED_EDGE('',*,*,#134,.F.);
#89=ORIENTED_EDGE('',*,*,#130,.T.);
#90=ORIENTED_EDGE('',*,*,#135,.T.);
#91=ORIENTED_EDGE('',*,*,#136,.F.);
#92=ORIENTED_EDGE('',*,*,#137,.F.);
#93=ORIENTED_EDGE('',*,*,#133,.T.);
#94=ORIENTED_EDGE('',*,*,#138,.T.);
#95=ORIENTED_EDGE('',*,*,#122,.F.);
#96=ORIENTED_EDGE('',*,*,#139,.F.);
#97=ORIENTED_EDGE('',*,*,#136,.T.);
#98=ORIENTED_EDGE('',*,*,#116,.F.);
#99=ORIENTED_EDGE('',*,*,#121,.T.);
#100=ORIENTED_EDGE('',*,*,#125,.T.);
#101=ORIENTED_EDGE('',*,*,#128,.T.);
#102=ORIENTED_EDGE('',*,*,#131,.T.);
#103=ORIENTED_EDGE('',*,*,#134,.T.);
#104=ORIENTED_EDGE('',*,*,#137,.T.);
#105=ORIENTED_EDGE('',*,*,#139,.T.);
#106=ORIENTED_EDGE('',*,*,#119,.F.);
#107=ORIENTED_EDGE('',*,*,#138,.F.);
#108=ORIENTED_EDGE('',*,*,#135,.F.);
#109=ORIENTED_EDGE('',*,*,#132,.F.);
#110=ORIENTED_EDGE('',*,*,#129,.F.);
#111=ORIENTED_EDGE('',*,*,#126,.F.);
#112=ORIENTED_EDGE('',*,*,#123,.F.);
#113=ORIENTED_EDGE('',*,*,#140,.F.);
#114=ORIENTED_EDGE('',*,*,#140,.T.);
#115=ORIENTED_EDGE('',*,*,#118,.F.);
#116=EDGE_CURVE('',#141,#141,#160,.T.);
#117=EDGE_CURVE('',#142,#142,#161,.T.);
#118=EDGE_CURVE('',#143,#143,#162,.T.);
#119=EDGE_CURVE('',#144,#145,#14,.T.);
#120=EDGE_CURVE('',#146,#145,#15,.T.);
#121=EDGE_CURVE('',#147,#146,#16,.T.);
#122=EDGE_CURVE('',#147,#144,#17,.T.);
#123=EDGE_CURVE('',#145,#148,#18,.T.);
#124=EDGE_CURVE('',#149,#148,#19,.T.);
#125=EDGE_CURVE('',#146,#149,#20,.T.);
#126=EDGE_CURVE('',#148,#150,#21,.T.);
#127=EDGE_CURVE('',#151,#150,#22,.T.);
#128=EDGE_CURVE('',#149,#151,#23,.T.);
#129=EDGE_CURVE('',#150,#152,#24,.T.);
#130=EDGE_CURVE('',#153,#152,#25,.T.);
#131=EDGE_CURVE('',#151,#153,#26,.T.);
#132=EDGE_CURVE('',#152,#154,#27,.T.);
#133=EDGE_CURVE('',#155,#154,#28,.T.);
#134=EDGE_CURVE('',#153,#155,#29,.T.);
#135=EDGE_CURVE('',#154,#156,#30,.T.);
#136=EDGE_CURVE('',#157,#156,#31,.T.);
#137=EDGE_CURVE('',#155,#157,#32,.T.);
#138=EDGE_CURVE('',#156,#144,#33,.T.);
#139=EDGE_CURVE('',#157,#147,#34,.T.);
#140=EDGE_CURVE('',#159,#159,#163,.T.);
#141=VERTEX_POINT('',#304);
#142=VERTEX_POINT('',#306);
#143=VERTEX_POINT('',#309);
#144=VERTEX_POINT('',#312);
#145=VERTEX_POINT('',#313);
#146=VERTEX_POINT('',#315);
#147=VERTEX_POINT('',#317);
#148=VERTEX_POINT('',#321);
#149=VERTEX_POINT('',#323);
#150=VERTEX_POINT('',#327);
#151=VERTEX_POINT('',#329);
#152=VERTEX_POINT('',#333);
#153=VERTEX_POINT('',#335);
#154=VERTEX_POINT('',#339);
#155=VERTEX_POINT('',#341);
#156=VERTEX_POINT('',#345);
#157=VERTEX_POINT('',#347);
#158=VERTEX_POINT('',#355);
#159=VERTEX_POINT('',#357);
#160=CIRCLE('',#228,0.003048);
#161=CIRCLE('',#229,0.003048);
#162=CIRCLE('',#231,0.0024892);
#163=CIRCLE('',#242,0.0024892);
#164=EDGE_LOOP('',(#66));
#165=EDGE_LOOP('',(#67));
#166=EDGE_LOOP('',(#68));
#167=EDGE_LOOP('',(#69));
#168=EDGE_LOOP('',(#70,#71,#72,#73));
#169=EDGE_LOOP('',(#74,#75,#76,#77));
#170=EDGE_LOOP('',(#78,#79,#80,#81));
#171=EDGE_LOOP('',(#82,#83,#84,#85));
#172=EDGE_LOOP('',(#86,#87,#88,#89));
#173=EDGE_LOOP('',(#90,#91,#92,#93));
#174=EDGE_LOOP('',(#94,#95,#96,#97));
#175=EDGE_LOOP('',(#98));
#176=EDGE_LOOP('',(#99,#100,#101,#102,#103,#104,#105));
#177=EDGE_LOOP('',(#106,#107,#108,#109,#110,#111,#112));
#178=EDGE_LOOP('',(#113));
#179=EDGE_LOOP('',(#114));
#180=EDGE_LOOP('',(#115));
#181=FACE_BOUND('',#164,.T.);
#182=FACE_BOUND('',#165,.T.);
#183=FACE_BOUND('',#166,.T.);
#184=FACE_BOUND('',#167,.T.);
#185=FACE_BOUND('',#168,.T.);
#186=FACE_BOUND('',#169,.T.);
#187=FACE_BOUND('',#170,.T.);
#188=FACE_BOUND('',#171,.T.);
#189=FACE_BOUND('',#172,.T.);
#190=FACE_BOUND('',#173,.T.);
#191=FACE_BOUND('',#174,.T.);
#192=FACE_BOUND('',#175,.T.);
#193=FACE_BOUND('',#176,.T.);
#194=FACE_BOUND('',#177,.T.);
#195=FACE_BOUND('',#12,.T.);
#196=FACE_BOUND('',#178,.T.);
#197=FACE_BOUND('',#179,.T.);
#198=FACE_BOUND('',#180,.T.);
#199=CYLINDRICAL_SURFACE('',#227,0.003048);
#200=CYLINDRICAL_SURFACE('',#243,0.0024892);
#201=ADVANCED_FACE('',(#181,#182),#199,.T.);
#202=ADVANCED_FACE('',(#183,#184),#56,.T.);
#203=ADVANCED_FACE('',(#185),#57,.F.);
#204=ADVANCED_FACE('',(#186),#58,.F.);
#205=ADVANCED_FACE('',(#187),#59,.F.);
#206=ADVANCED_FACE('',(#188),#60,.F.);
#207=ADVANCED_FACE('',(#189),#61,.F.);
#208=ADVANCED_FACE('',(#190),#62,.F.);
#209=ADVANCED_FACE('',(#191),#63,.F.);
#210=ADVANCED_FACE('',(#192,#193),#64,.T.);
#211=ADVANCED_FACE('',(#194),#65,.F.);
#212=ADVANCED_FACE('',(#195,#196),#13,.F.);
#213=ADVANCED_FACE('',(#197,#198),#200,.F.);
#214=CLOSED_SHELL('',(#201,#202,#203,#204,#205,#206,#207,#208,#209,#210,
#211,#212,#213));
#215=STYLED_ITEM('',(#216),#223);
#216=PRESENTATION_STYLE_ASSIGNMENT((#217));
#217=SURFACE_STYLE_USAGE(.BOTH.,#218);
#218=SURFACE_SIDE_STYLE('',(#219));
#219=SURFACE_STYLE_FILL_AREA(#220);
#220=FILL_AREA_STYLE('',(#221));
#221=FILL_AREA_STYLE_COLOUR('',#222);
#222=COLOUR_RGB('',0.615686274509804,0.811764705882353,0.929411764705882);
#223=MANIFOLD_SOLID_BREP('Long Screw',#214);
#224=SHAPE_DEFINITION_REPRESENTATION(#365,#225);
#225=SHAPE_REPRESENTATION('Long Screw',(#226),#360);
#226=AXIS2_PLACEMENT_3D('',#301,#244,#245);
#227=AXIS2_PLACEMENT_3D('',#302,#246,#247);
#228=AXIS2_PLACEMENT_3D('',#303,#248,#249);
#229=AXIS2_PLACEMENT_3D('',#305,#250,#251);
#230=AXIS2_PLACEMENT_3D('',#307,#252,#253);
#231=AXIS2_PLACEMENT_3D('',#308,#254,#255);
#232=AXIS2_PLACEMENT_3D('',#310,#256,#257);
#233=AXIS2_PLACEMENT_3D('',#319,#262,#263);
#234=AXIS2_PLACEMENT_3D('',#325,#267,#268);
#235=AXIS2_PLACEMENT_3D('',#331,#272,#273);
#236=AXIS2_PLACEMENT_3D('',#337,#277,#278);
#237=AXIS2_PLACEMENT_3D('',#343,#282,#283);
#238=AXIS2_PLACEMENT_3D('',#349,#287,#288);
#239=AXIS2_PLACEMENT_3D('',#352,#291,#292);
#240=AXIS2_PLACEMENT_3D('',#353,#293,#294);
#241=AXIS2_PLACEMENT_3D('',#354,#295,#296);
#242=AXIS2_PLACEMENT_3D('',#356,#297,#298);
#243=AXIS2_PLACEMENT_3D('',#358,#299,#300);
#244=DIRECTION('',(0.,0.,1.));
#245=DIRECTION('',(1.,0.,0.));
#246=DIRECTION('',(0.,0.,-1.));
#247=DIRECTION('',(-1.,0.,0.));
#248=DIRECTION('',(0.,0.,1.));
#249=DIRECTION('',(1.,0.,0.));
#250=DIRECTION('',(0.,0.,1.));
#251=DIRECTION('',(1.,0.,0.));
#252=DIRECTION('',(0.,0.,1.));
#253=DIRECTION('',(1.,0.,0.));
#254=DIRECTION('',(0.,0.,-1.));
#255=DIRECTION('',(-1.,0.,0.));
#256=DIRECTION('',(-0.184273801259742,-0.982874949405714,0.));
#257=DIRECTION('',(0.982874949405714,-0.184273801259742,0.));
#258=DIRECTION('',(-0.982874949405714,0.184273801259742,0.));
#259=DIRECTION('',(0.,0.,-1.));
#260=DIRECTION('',(-0.982874949405714,0.184273801259742,0.));
#261=DIRECTION('',(0.,0.,-1.));
#262=DIRECTION('',(0.653549742939366,-0.756883566675805,0.));
#263=DIRECTION('',(0.756883566675805,0.653549742939366,0.));
#264=DIRECTION('',(-0.756883566675805,-0.653549742939366,0.));
#265=DIRECTION('',(0.,0.,-1.));
#266=DIRECTION('',(-0.756883566675805,-0.653549742939366,0.));
#267=DIRECTION('',(0.999237000719926,0.0390565793720555,0.));
#268=DIRECTION('',(-0.0390565793720555,0.999237000719926,0.));
#269=DIRECTION('',(0.0390565793720555,-0.999237000719927,0.));
#270=DIRECTION('',(0.,0.,-1.));
#271=DIRECTION('',(0.0390565793720555,-0.999237000719927,0.));
#272=DIRECTION('',(0.592478416238198,0.805586324543731,0.));
#273=DIRECTION('',(-0.805586324543731,0.592478416238198,0.));
#274=DIRECTION('',(0.805586324543731,-0.592478416238198,0.));
#275=DIRECTION('',(0.,0.,-1.));
#276=DIRECTION('',(0.805586324543731,-0.592478416238198,0.));
#277=DIRECTION('',(-0.260428500028066,0.965493136367697,0.));
#278=DIRECTION('',(-0.965493136367697,-0.260428500028066,0.));
#279=DIRECTION('',(0.965493136367697,0.260428500028066,0.));
#280=DIRECTION('',(0.,0.,-1.));
#281=DIRECTION('',(0.965493136367697,0.260428500028066,0.));
#282=DIRECTION('',(-0.91722744399993,0.398363924035994,0.));
#283=DIRECTION('',(-0.398363924035994,-0.91722744399993,0.));
#284=DIRECTION('',(0.398363924035994,0.91722744399993,0.));
#285=DIRECTION('',(0.,0.,-1.));
#286=DIRECTION('',(0.398363924035994,0.91722744399993,0.));
#287=DIRECTION('',(-0.883335414609752,-0.468741448237957,0.));
#288=DIRECTION('',(0.468741448237958,-0.883335414609752,0.));
#289=DIRECTION('',(-0.468741448237958,0.883335414609752,0.));
#290=DIRECTION('',(-0.468741448237958,0.883335414609752,0.));
#291=DIRECTION('',(0.,0.,1.));
#292=DIRECTION('',(1.,0.,0.));
#293=DIRECTION('',(0.,0.,1.));
#294=DIRECTION('',(1.,0.,0.));
#295=DIRECTION('',(0.,0.,1.));
#296=DIRECTION('',(1.,0.,0.));
#297=DIRECTION('',(0.,0.,-1.));
#298=DIRECTION('',(-1.,0.,0.));
#299=DIRECTION('',(0.,0.,-1.));
#300=DIRECTION('',(-1.,0.,0.));
#301=CARTESIAN_POINT('',(0.,0.,0.));
#302=CARTESIAN_POINT('',(0.,1.86636172190057E-19,0.06604));
#303=CARTESIAN_POINT('',(0.,1.86636172190057E-19,0.00254));
#304=CARTESIAN_POINT('',(0.003048,1.86636172190057E-19,0.00254));
#305=CARTESIAN_POINT('',(0.,1.86636172190057E-19,0.06604));
#306=CARTESIAN_POINT('',(0.003048,1.86636172190057E-19,0.06604));
#307=CARTESIAN_POINT('',(0.00028900037710758,-6.12532334487732E-5,0.06604));
#308=CARTESIAN_POINT('',(0.,1.86636172190057E-19,0.06604));
#309=CARTESIAN_POINT('',(-0.0024892,1.86636172190057E-19,0.06604));
#310=CARTESIAN_POINT('',(0.00117013863799937,0.00624125592872628,0.00254));
#311=CARTESIAN_POINT('',(0.00117013863799937,0.00624125592872628,0.));
#312=CARTESIAN_POINT('',(0.00417576908275596,0.00567774686017978,0.));
#313=CARTESIAN_POINT('',(-0.00183549180675723,0.00680476499727279,0.));
#314=CARTESIAN_POINT('',(-0.00183549180675723,0.00680476499727279,0.00254));
#315=CARTESIAN_POINT('',(-0.00183549180675723,0.00680476499727279,0.00254));
#316=CARTESIAN_POINT('',(0.00117013863799937,0.00624125592872628,0.00254));
#317=CARTESIAN_POINT('',(0.00417576908275596,0.00567774686017978,0.00254));
#318=CARTESIAN_POINT('',(0.00417576908275596,0.00567774686017978,0.00254));
#319=CARTESIAN_POINT('',(-0.00415004086766498,0.00480621064839136,0.00254));
#320=CARTESIAN_POINT('',(-0.00415004086766498,0.00480621064839136,0.));
#321=CARTESIAN_POINT('',(-0.00646458992857273,0.00280765629950991,0.));
#322=CARTESIAN_POINT('',(-0.00646458992857273,0.00280765629950991,0.00254));
#323=CARTESIAN_POINT('',(-0.00646458992857273,0.00280765629950991,0.00254));
#324=CARTESIAN_POINT('',(-0.00415004086766498,0.00480621064839136,0.00254));
#325=CARTESIAN_POINT('',(-0.00634515495457153,-0.000248009279012564,0.00254));
#326=CARTESIAN_POINT('',(-0.00634515495457153,-0.000248009279012564,0.));
#327=CARTESIAN_POINT('',(-0.00622571998057031,-0.00330367485753505,0.));
#328=CARTESIAN_POINT('',(-0.00622571998057031,-0.00330367485753505,0.00254));
#329=CARTESIAN_POINT('',(-0.00622571998057031,-0.00330367485753505,0.00254));
#330=CARTESIAN_POINT('',(-0.00634515495457153,-0.000248009279012564,0.00254));
#331=CARTESIAN_POINT('',(-0.00376223794311254,-0.00511547316085269,0.00254));
#332=CARTESIAN_POINT('',(-0.00376223794311254,-0.00511547316085269,0.));
#333=CARTESIAN_POINT('',(-0.00129875590565475,-0.00692727146417032,0.));
#334=CARTESIAN_POINT('',(-0.00129875590565475,-0.00692727146417032,0.00254));
#335=CARTESIAN_POINT('',(-0.00129875590565475,-0.00692727146417032,0.00254));
#336=CARTESIAN_POINT('',(-0.00376223794311254,-0.00511547316085269,0.00254));
#337=CARTESIAN_POINT('',(0.00165372097517825,-0.00613088141593486,0.00254));
#338=CARTESIAN_POINT('',(0.00165372097517825,-0.00613088141593486,0.));
#339=CARTESIAN_POINT('',(0.00460619785601121,-0.00533449136769941,0.));
#340=CARTESIAN_POINT('',(0.00460619785601121,-0.00533449136769941,0.00254));
#341=CARTESIAN_POINT('',(0.00460619785601121,-0.00533449136769941,0.00254));
#342=CARTESIAN_POINT('',(0.00165372097517825,-0.00613088141593486,0.00254));
#343=CARTESIAN_POINT('',(0.00582439426939955,-0.00252961091762856,0.00254));
#344=CARTESIAN_POINT('',(0.00582439426939955,-0.00252961091762856,0.));
#345=CARTESIAN_POINT('',(0.00704259068278789,0.000275269532442278,0.));
#346=CARTESIAN_POINT('',(0.00704259068278789,0.000275269532442278,0.00254));
#347=CARTESIAN_POINT('',(0.00704259068278789,0.000275269532442278,0.00254));
#348=CARTESIAN_POINT('',(0.00582439426939955,-0.00252961091762856,0.00254));
#349=CARTESIAN_POINT('',(0.00560917988277192,0.00297650819631103,0.00254));
#350=CARTESIAN_POINT('',(0.00560917988277192,0.00297650819631103,0.));
#351=CARTESIAN_POINT('',(0.00560917988277192,0.00297650819631103,0.00254));
#352=CARTESIAN_POINT('',(0.00028900037710758,-6.12532334487732E-5,0.00254));
#353=CARTESIAN_POINT('',(0.00028900037710758,-6.12532334487732E-5,0.));
#354=CARTESIAN_POINT('',(0.,1.86636172190057E-19,0.04064));
#355=CARTESIAN_POINT('',(0.,1.86636172190057E-19,0.0391443377471166));
#356=CARTESIAN_POINT('',(0.,1.86636172190057E-19,0.04064));
#357=CARTESIAN_POINT('',(-0.0024892,1.86636172190057E-19,0.04064));
#358=CARTESIAN_POINT('',(0.,1.86636172190057E-19,0.06604));
#359=MECHANICAL_DESIGN_GEOMETRIC_PRESENTATION_REPRESENTATION('',(#215),
#360);
#360=(
GEOMETRIC_REPRESENTATION_CONTEXT(3)
GLOBAL_UNCERTAINTY_ASSIGNED_CONTEXT((#361))
GLOBAL_UNIT_ASSIGNED_CONTEXT((#364,#363,#362))
REPRESENTATION_CONTEXT('Long Screw','TOP_LEVEL_ASSEMBLY_PART')
);
#361=UNCERTAINTY_MEASURE_WITH_UNIT(LENGTH_MEASURE(1.E-8),#364,
'DISTANCE_ACCURACY_VALUE','Maximum Tolerance applied to model');
#362=(
NAMED_UNIT(*)
SI_UNIT($,.STERADIAN.)
SOLID_ANGLE_UNIT()
);
#363=(
NAMED_UNIT(*)
PLANE_ANGLE_UNIT()
SI_UNIT($,.RADIAN.)
);
#364=(
LENGTH_UNIT()
NAMED_UNIT(*)
SI_UNIT($,.METRE.)
);
#365=PRODUCT_DEFINITION_SHAPE('','',#366);
#366=PRODUCT_DEFINITION('','',#368,#367);
#367=PRODUCT_DEFINITION_CONTEXT('',#374,'design');
#368=PRODUCT_DEFINITION_FORMATION_WITH_SPECIFIED_SOURCE('','',#370,
 .NOT_KNOWN.);
#369=PRODUCT_RELATED_PRODUCT_CATEGORY('','',(#370));
#370=PRODUCT('Long Screw','Long Screw','Long Screw',(#372));
#371=PRODUCT_CATEGORY('','');
#372=PRODUCT_CONTEXT('',#374,'mechanical');
#373=APPLICATION_PROTOCOL_DEFINITION('international standard',
'ap242_managed_model_based_3d_engineering',2020,#374);
#374=APPLICATION_CONTEXT('managed model based 3d engineering');
ENDSEC;
END-ISO-10303-21;
