ISO-10303-21;
HEADER;
/* Generated by software containing ST-Developer
 * from STEP Tools, Inc. (www.steptools.com) 
 */
/* OPTION: using custom renumber hook */

FILE_DESCRIPTION(
/* description */ ('STEP AP242 Edition 2',
'CAx-IF Rec.Pracs.---Representation and Presentation of Product Manufa
cturing Information (PMI)---4.0---2014-10-13',
'CAx-IF Rec.Pracs.---3D Tessellated Geometry---0.4---2014-09-14','2;1',
'CAx-IF Rec.Pracs.---User Defined Attributes---1.5---2016-08-15'),
/* implementation_level */ '2;1');

FILE_NAME(
/* name */ 'Screw Short',
/* time_stamp */ '2026-08-06T17:50:26Z',
/* author */ (''),
/* organization */ (''),
/* preprocessor_version */ 'ST-DEVELOPER v20',
/* originating_system */ 'ONSHAPE BY PTC INC, 1.218',
/* authorisation */ '  ');

FILE_SCHEMA (('AP242_MANAGED_MODEL_BASED_3D_ENGINEERING_MIM_LF { 1 0 10303 442 3 1 4 }'));
ENDSEC;

DATA;
#10=SHAPE_REPRESENTATION_RELATIONSHIP('','',#222,#11);
#11=ADVANCED_BREP_SHAPE_REPRESENTATION('',(#220),#356);
#12=LINE('',#308,#33);
#13=LINE('',#311,#34);
#14=LINE('',#313,#35);
#15=LINE('',#315,#36);
#16=LINE('',#317,#37);
#17=LINE('',#319,#38);
#18=LINE('',#321,#39);
#19=LINE('',#323,#40);
#20=LINE('',#325,#41);
#21=LINE('',#327,#42);
#22=LINE('',#329,#43);
#23=LINE('',#331,#44);
#24=LINE('',#333,#45);
#25=LINE('',#335,#46);
#26=LINE('',#337,#47);
#27=LINE('',#339,#48);
#28=LINE('',#341,#49);
#29=LINE('',#343,#50);
#30=LINE('',#345,#51);
#31=LINE('',#347,#52);
#32=LINE('',#348,#53);
#33=VECTOR('',#255,1.);
#34=VECTOR('',#256,1.);
#35=VECTOR('',#257,1.);
#36=VECTOR('',#258,1.);
#37=VECTOR('',#261,1.);
#38=VECTOR('',#262,1.);
#39=VECTOR('',#263,1.);
#40=VECTOR('',#266,1.);
#41=VECTOR('',#267,1.);
#42=VECTOR('',#268,1.);
#43=VECTOR('',#271,1.);
#44=VECTOR('',#272,1.);
#45=VECTOR('',#273,1.);
#46=VECTOR('',#276,1.);
#47=VECTOR('',#277,1.);
#48=VECTOR('',#278,1.);
#49=VECTOR('',#281,1.);
#50=VECTOR('',#282,1.);
#51=VECTOR('',#283,1.);
#52=VECTOR('',#286,1.);
#53=VECTOR('',#287,1.);
#54=PLANE('',#227);
#55=PLANE('',#229);
#56=PLANE('',#230);
#57=PLANE('',#231);
#58=PLANE('',#232);
#59=PLANE('',#233);
#60=PLANE('',#234);
#61=PLANE('',#235);
#62=PLANE('',#236);
#63=PLANE('',#237);
#64=PLANE('',#240);
#65=ORIENTED_EDGE('',*,*,#115,.F.);
#66=ORIENTED_EDGE('',*,*,#116,.T.);
#67=ORIENTED_EDGE('',*,*,#117,.T.);
#68=ORIENTED_EDGE('',*,*,#115,.T.);
#69=ORIENTED_EDGE('',*,*,#118,.T.);
#70=ORIENTED_EDGE('',*,*,#119,.F.);
#71=ORIENTED_EDGE('',*,*,#120,.F.);
#72=ORIENTED_EDGE('',*,*,#121,.T.);
#73=ORIENTED_EDGE('',*,*,#122,.T.);
#74=ORIENTED_EDGE('',*,*,#123,.F.);
#75=ORIENTED_EDGE('',*,*,#124,.F.);
#76=ORIENTED_EDGE('',*,*,#119,.T.);
#77=ORIENTED_EDGE('',*,*,#125,.T.);
#78=ORIENTED_EDGE('',*,*,#126,.F.);
#79=ORIENTED_EDGE('',*,*,#127,.F.);
#80=ORIENTED_EDGE('',*,*,#123,.T.);
#81=ORIENTED_EDGE('',*,*,#128,.T.);
#82=ORIENTED_EDGE('',*,*,#129,.F.);
#83=ORIENTED_EDGE('',*,*,#130,.F.);
#84=ORIENTED_EDGE('',*,*,#126,.T.);
#85=ORIENTED_EDGE('',*,*,#131,.T.);
#86=ORIENTED_EDGE('',*,*,#132,.F.);
#87=ORIENTED_EDGE('',*,*,#133,.F.);
#88=ORIENTED_EDGE('',*,*,#129,.T.);
#89=ORIENTED_EDGE('',*,*,#134,.T.);
#90=ORIENTED_EDGE('',*,*,#135,.F.);
#91=ORIENTED_EDGE('',*,*,#136,.F.);
#92=ORIENTED_EDGE('',*,*,#132,.T.);
#93=ORIENTED_EDGE('',*,*,#137,.T.);
#94=ORIENTED_EDGE('',*,*,#121,.F.);
#95=ORIENTED_EDGE('',*,*,#138,.F.);
#96=ORIENTED_EDGE('',*,*,#135,.T.);
#97=ORIENTED_EDGE('',*,*,#116,.F.);
#98=ORIENTED_EDGE('',*,*,#120,.T.);
#99=ORIENTED_EDGE('',*,*,#124,.T.);
#100=ORIENTED_EDGE('',*,*,#127,.T.);
#101=ORIENTED_EDGE('',*,*,#130,.T.);
#102=ORIENTED_EDGE('',*,*,#133,.T.);
#103=ORIENTED_EDGE('',*,*,#136,.T.);
#104=ORIENTED_EDGE('',*,*,#138,.T.);
#105=ORIENTED_EDGE('',*,*,#118,.F.);
#106=ORIENTED_EDGE('',*,*,#137,.F.);
#107=ORIENTED_EDGE('',*,*,#134,.F.);
#108=ORIENTED_EDGE('',*,*,#131,.F.);
#109=ORIENTED_EDGE('',*,*,#128,.F.);
#110=ORIENTED_EDGE('',*,*,#125,.F.);
#111=ORIENTED_EDGE('',*,*,#122,.F.);
#112=ORIENTED_EDGE('',*,*,#139,.F.);
#113=ORIENTED_EDGE('',*,*,#117,.F.);
#114=ORIENTED_EDGE('',*,*,#139,.T.);
#115=EDGE_CURVE('',#140,#140,#158,.T.);
#116=EDGE_CURVE('',#141,#141,#159,.T.);
#117=EDGE_CURVE('',#142,#142,#160,.T.);
#118=EDGE_CURVE('',#143,#144,#12,.T.);
#119=EDGE_CURVE('',#145,#144,#13,.T.);
#120=EDGE_CURVE('',#146,#145,#14,.T.);
#121=EDGE_CURVE('',#146,#143,#15,.T.);
#122=EDGE_CURVE('',#144,#147,#16,.T.);
#123=EDGE_CURVE('',#148,#147,#17,.T.);
#124=EDGE_CURVE('',#145,#148,#18,.T.);
#125=EDGE_CURVE('',#147,#149,#19,.T.);
#126=EDGE_CURVE('',#150,#149,#20,.T.);
#127=EDGE_CURVE('',#148,#150,#21,.T.);
#128=EDGE_CURVE('',#149,#151,#22,.T.);
#129=EDGE_CURVE('',#152,#151,#23,.T.);
#130=EDGE_CURVE('',#150,#152,#24,.T.);
#131=EDGE_CURVE('',#151,#153,#25,.T.);
#132=EDGE_CURVE('',#154,#153,#26,.T.);
#133=EDGE_CURVE('',#152,#154,#27,.T.);
#134=EDGE_CURVE('',#153,#155,#28,.T.);
#135=EDGE_CURVE('',#156,#155,#29,.T.);
#136=EDGE_CURVE('',#154,#156,#30,.T.);
#137=EDGE_CURVE('',#155,#143,#31,.T.);
#138=EDGE_CURVE('',#156,#146,#32,.T.);
#139=EDGE_CURVE('',#157,#157,#161,.T.);
#140=VERTEX_POINT('',#301);
#141=VERTEX_POINT('',#303);
#142=VERTEX_POINT('',#306);
#143=VERTEX_POINT('',#309);
#144=VERTEX_POINT('',#310);
#145=VERTEX_POINT('',#312);
#146=VERTEX_POINT('',#314);
#147=VERTEX_POINT('',#318);
#148=VERTEX_POINT('',#320);
#149=VERTEX_POINT('',#324);
#150=VERTEX_POINT('',#326);
#151=VERTEX_POINT('',#330);
#152=VERTEX_POINT('',#332);
#153=VERTEX_POINT('',#336);
#154=VERTEX_POINT('',#338);
#155=VERTEX_POINT('',#342);
#156=VERTEX_POINT('',#344);
#157=VERTEX_POINT('',#353);
#158=CIRCLE('',#225,0.003048);
#159=CIRCLE('',#226,0.003048);
#160=CIRCLE('',#228,0.0024892);
#161=CIRCLE('',#239,0.0024892);
#162=EDGE_LOOP('',(#65));
#163=EDGE_LOOP('',(#66));
#164=EDGE_LOOP('',(#67));
#165=EDGE_LOOP('',(#68));
#166=EDGE_LOOP('',(#69,#70,#71,#72));
#167=EDGE_LOOP('',(#73,#74,#75,#76));
#168=EDGE_LOOP('',(#77,#78,#79,#80));
#169=EDGE_LOOP('',(#81,#82,#83,#84));
#170=EDGE_LOOP('',(#85,#86,#87,#88));
#171=EDGE_LOOP('',(#89,#90,#91,#92));
#172=EDGE_LOOP('',(#93,#94,#95,#96));
#173=EDGE_LOOP('',(#97));
#174=EDGE_LOOP('',(#98,#99,#100,#101,#102,#103,#104));
#175=EDGE_LOOP('',(#105,#106,#107,#108,#109,#110,#111));
#176=EDGE_LOOP('',(#112));
#177=EDGE_LOOP('',(#113));
#178=EDGE_LOOP('',(#114));
#179=FACE_BOUND('',#162,.T.);
#180=FACE_BOUND('',#163,.T.);
#181=FACE_BOUND('',#164,.T.);
#182=FACE_BOUND('',#165,.T.);
#183=FACE_BOUND('',#166,.T.);
#184=FACE_BOUND('',#167,.T.);
#185=FACE_BOUND('',#168,.T.);
#186=FACE_BOUND('',#169,.T.);
#187=FACE_BOUND('',#170,.T.);
#188=FACE_BOUND('',#171,.T.);
#189=FACE_BOUND('',#172,.T.);
#190=FACE_BOUND('',#173,.T.);
#191=FACE_BOUND('',#174,.T.);
#192=FACE_BOUND('',#175,.T.);
#193=FACE_BOUND('',#176,.T.);
#194=FACE_BOUND('',#177,.T.);
#195=FACE_BOUND('',#178,.T.);
#196=CYLINDRICAL_SURFACE('',#224,0.003048);
#197=CYLINDRICAL_SURFACE('',#238,0.0024892);
#198=ADVANCED_FACE('',(#179,#180),#196,.T.);
#199=ADVANCED_FACE('',(#181,#182),#54,.T.);
#200=ADVANCED_FACE('',(#183),#55,.F.);
#201=ADVANCED_FACE('',(#184),#56,.F.);
#202=ADVANCED_FACE('',(#185),#57,.F.);
#203=ADVANCED_FACE('',(#186),#58,.F.);
#204=ADVANCED_FACE('',(#187),#59,.F.);
#205=ADVANCED_FACE('',(#188),#60,.F.);
#206=ADVANCED_FACE('',(#189),#61,.F.);
#207=ADVANCED_FACE('',(#190,#191),#62,.T.);
#208=ADVANCED_FACE('',(#192),#63,.F.);
#209=ADVANCED_FACE('',(#193,#194),#197,.F.);
#210=ADVANCED_FACE('',(#195),#64,.T.);
#211=CLOSED_SHELL('',(#198,#199,#200,#201,#202,#203,#204,#205,#206,#207,
#208,#209,#210));
#212=STYLED_ITEM('',(#213),#220);
#213=PRESENTATION_STYLE_ASSIGNMENT((#214));
#214=SURFACE_STYLE_USAGE(.BOTH.,#215);
#215=SURFACE_SIDE_STYLE('',(#216));
#216=SURFACE_STYLE_FILL_AREA(#217);
#217=FILL_AREA_STYLE('',(#218));
#218=FILL_AREA_STYLE_COLOUR('',#219);
#219=COLOUR_RGB('',0.615686274509804,0.811764705882353,0.929411764705882);
#220=MANIFOLD_SOLID_BREP('Short',#211);
#221=SHAPE_DEFINITION_REPRESENTATION(#361,#222);
#222=SHAPE_REPRESENTATION('Short',(#223),#356);
#223=AXIS2_PLACEMENT_3D('',#298,#241,#242);
#224=AXIS2_PLACEMENT_3D('',#299,#243,#244);
#225=AXIS2_PLACEMENT_3D('',#300,#245,#246);
#226=AXIS2_PLACEMENT_3D('',#302,#247,#248);
#227=AXIS2_PLACEMENT_3D('',#304,#249,#250);
#228=AXIS2_PLACEMENT_3D('',#305,#251,#252);
#229=AXIS2_PLACEMENT_3D('',#307,#253,#254);
#230=AXIS2_PLACEMENT_3D('',#316,#259,#260);
#231=AXIS2_PLACEMENT_3D('',#322,#264,#265);
#232=AXIS2_PLACEMENT_3D('',#328,#269,#270);
#233=AXIS2_PLACEMENT_3D('',#334,#274,#275);
#234=AXIS2_PLACEMENT_3D('',#340,#279,#280);
#235=AXIS2_PLACEMENT_3D('',#346,#284,#285);
#236=AXIS2_PLACEMENT_3D('',#349,#288,#289);
#237=AXIS2_PLACEMENT_3D('',#350,#290,#291);
#238=AXIS2_PLACEMENT_3D('',#351,#292,#293);
#239=AXIS2_PLACEMENT_3D('',#352,#294,#295);
#240=AXIS2_PLACEMENT_3D('',#354,#296,#297);
#241=DIRECTION('',(0.,0.,1.));
#242=DIRECTION('',(1.,0.,0.));
#243=DIRECTION('',(0.,0.,-1.));
#244=DIRECTION('',(-1.,0.,0.));
#245=DIRECTION('',(0.,0.,1.));
#246=DIRECTION('',(1.,0.,0.));
#247=DIRECTION('',(0.,0.,1.));
#248=DIRECTION('',(1.,0.,0.));
#249=DIRECTION('',(0.,0.,1.));
#250=DIRECTION('',(1.,0.,0.));
#251=DIRECTION('',(0.,0.,-1.));
#252=DIRECTION('',(-1.,0.,0.));
#253=DIRECTION('',(-0.184273801259742,-0.982874949405714,0.));
#254=DIRECTION('',(0.982874949405714,-0.184273801259742,0.));
#255=DIRECTION('',(-0.982874949405714,0.184273801259742,0.));
#256=DIRECTION('',(0.,0.,-1.));
#257=DIRECTION('',(-0.982874949405714,0.184273801259742,0.));
#258=DIRECTION('',(0.,0.,-1.));
#259=DIRECTION('',(0.653549742939366,-0.756883566675805,0.));
#260=DIRECTION('',(0.756883566675805,0.653549742939366,0.));
#261=DIRECTION('',(-0.756883566675805,-0.653549742939366,0.));
#262=DIRECTION('',(0.,0.,-1.));
#263=DIRECTION('',(-0.756883566675805,-0.653549742939366,0.));
#264=DIRECTION('',(0.999237000719926,0.0390565793720555,0.));
#265=DIRECTION('',(-0.0390565793720555,0.999237000719926,0.));
#266=DIRECTION('',(0.0390565793720555,-0.999237000719927,0.));
#267=DIRECTION('',(0.,0.,-1.));
#268=DIRECTION('',(0.0390565793720555,-0.999237000719927,0.));
#269=DIRECTION('',(0.592478416238198,0.805586324543731,0.));
#270=DIRECTION('',(-0.805586324543731,0.592478416238198,0.));
#271=DIRECTION('',(0.805586324543731,-0.592478416238198,0.));
#272=DIRECTION('',(0.,0.,-1.));
#273=DIRECTION('',(0.805586324543731,-0.592478416238198,0.));
#274=DIRECTION('',(-0.260428500028066,0.965493136367697,0.));
#275=DIRECTION('',(-0.965493136367697,-0.260428500028066,0.));
#276=DIRECTION('',(0.965493136367697,0.260428500028066,0.));
#277=DIRECTION('',(0.,0.,-1.));
#278=DIRECTION('',(0.965493136367697,0.260428500028066,0.));
#279=DIRECTION('',(-0.91722744399993,0.398363924035994,0.));
#280=DIRECTION('',(-0.398363924035994,-0.91722744399993,0.));
#281=DIRECTION('',(0.398363924035994,0.91722744399993,0.));
#282=DIRECTION('',(0.,0.,-1.));
#283=DIRECTION('',(0.398363924035994,0.91722744399993,0.));
#284=DIRECTION('',(-0.883335414609752,-0.468741448237957,0.));
#285=DIRECTION('',(0.468741448237958,-0.883335414609752,0.));
#286=DIRECTION('',(-0.468741448237958,0.883335414609752,0.));
#287=DIRECTION('',(-0.468741448237958,0.883335414609752,0.));
#288=DIRECTION('',(0.,0.,1.));
#289=DIRECTION('',(1.,0.,0.));
#290=DIRECTION('',(0.,0.,1.));
#291=DIRECTION('',(1.,0.,0.));
#292=DIRECTION('',(0.,0.,-1.));
#293=DIRECTION('',(-1.,0.,0.));
#294=DIRECTION('',(0.,0.,1.));
#295=DIRECTION('',(1.,0.,0.));
#296=DIRECTION('',(0.,0.,1.));
#297=DIRECTION('',(1.,0.,0.));
#298=CARTESIAN_POINT('',(0.,0.,0.));
#299=CARTESIAN_POINT('',(0.,1.86636172190057E-19,0.0254));
#300=CARTESIAN_POINT('',(0.,1.86636172190057E-19,0.0254));
#301=CARTESIAN_POINT('',(0.003048,1.86636172190057E-19,0.0254));
#302=CARTESIAN_POINT('',(0.,1.86636172190057E-19,0.00254));
#303=CARTESIAN_POINT('',(0.003048,1.86636172190057E-19,0.00254));
#304=CARTESIAN_POINT('',(0.00028900037710758,-6.12532334487732E-5,0.0254));
#305=CARTESIAN_POINT('',(0.,1.86636172190057E-19,0.0254));
#306=CARTESIAN_POINT('',(-0.0024892,1.86636172190057E-19,0.0254));
#307=CARTESIAN_POINT('',(0.00117013863799937,0.00624125592872628,0.00254));
#308=CARTESIAN_POINT('',(0.00117013863799937,0.00624125592872628,0.));
#309=CARTESIAN_POINT('',(0.00417576908275596,0.00567774686017978,0.));
#310=CARTESIAN_POINT('',(-0.00183549180675723,0.00680476499727279,0.));
#311=CARTESIAN_POINT('',(-0.00183549180675723,0.00680476499727279,0.00254));
#312=CARTESIAN_POINT('',(-0.00183549180675723,0.00680476499727279,0.00254));
#313=CARTESIAN_POINT('',(0.00117013863799937,0.00624125592872628,0.00254));
#314=CARTESIAN_POINT('',(0.00417576908275596,0.00567774686017978,0.00254));
#315=CARTESIAN_POINT('',(0.00417576908275596,0.00567774686017978,0.00254));
#316=CARTESIAN_POINT('',(-0.00415004086766498,0.00480621064839136,0.00254));
#317=CARTESIAN_POINT('',(-0.00415004086766498,0.00480621064839136,0.));
#318=CARTESIAN_POINT('',(-0.00646458992857273,0.00280765629950991,0.));
#319=CARTESIAN_POINT('',(-0.00646458992857273,0.00280765629950991,0.00254));
#320=CARTESIAN_POINT('',(-0.00646458992857273,0.00280765629950991,0.00254));
#321=CARTESIAN_POINT('',(-0.00415004086766498,0.00480621064839136,0.00254));
#322=CARTESIAN_POINT('',(-0.00634515495457153,-0.000248009279012564,0.00254));
#323=CARTESIAN_POINT('',(-0.00634515495457153,-0.000248009279012564,0.));
#324=CARTESIAN_POINT('',(-0.00622571998057031,-0.00330367485753505,0.));
#325=CARTESIAN_POINT('',(-0.00622571998057031,-0.00330367485753505,0.00254));
#326=CARTESIAN_POINT('',(-0.00622571998057031,-0.00330367485753505,0.00254));
#327=CARTESIAN_POINT('',(-0.00634515495457153,-0.000248009279012564,0.00254));
#328=CARTESIAN_POINT('',(-0.00376223794311254,-0.00511547316085269,0.00254));
#329=CARTESIAN_POINT('',(-0.00376223794311254,-0.00511547316085269,0.));
#330=CARTESIAN_POINT('',(-0.00129875590565475,-0.00692727146417032,0.));
#331=CARTESIAN_POINT('',(-0.00129875590565475,-0.00692727146417032,0.00254));
#332=CARTESIAN_POINT('',(-0.00129875590565475,-0.00692727146417032,0.00254));
#333=CARTESIAN_POINT('',(-0.00376223794311254,-0.00511547316085269,0.00254));
#334=CARTESIAN_POINT('',(0.00165372097517825,-0.00613088141593486,0.00254));
#335=CARTESIAN_POINT('',(0.00165372097517825,-0.00613088141593486,0.));
#336=CARTESIAN_POINT('',(0.00460619785601121,-0.00533449136769941,0.));
#337=CARTESIAN_POINT('',(0.00460619785601121,-0.00533449136769941,0.00254));
#338=CARTESIAN_POINT('',(0.00460619785601121,-0.00533449136769941,0.00254));
#339=CARTESIAN_POINT('',(0.00165372097517825,-0.00613088141593486,0.00254));
#340=CARTESIAN_POINT('',(0.00582439426939955,-0.00252961091762856,0.00254));
#341=CARTESIAN_POINT('',(0.00582439426939955,-0.00252961091762856,0.));
#342=CARTESIAN_POINT('',(0.00704259068278789,0.000275269532442278,0.));
#343=CARTESIAN_POINT('',(0.00704259068278789,0.000275269532442278,0.00254));
#344=CARTESIAN_POINT('',(0.00704259068278789,0.000275269532442278,0.00254));
#345=CARTESIAN_POINT('',(0.00582439426939955,-0.00252961091762856,0.00254));
#346=CARTESIAN_POINT('',(0.00560917988277192,0.00297650819631103,0.00254));
#347=CARTESIAN_POINT('',(0.00560917988277192,0.00297650819631103,0.));
#348=CARTESIAN_POINT('',(0.00560917988277192,0.00297650819631103,0.00254));
#349=CARTESIAN_POINT('',(0.00028900037710758,-6.12532334487732E-5,0.00254));
#350=CARTESIAN_POINT('',(0.00028900037710758,-6.12532334487732E-5,0.));
#351=CARTESIAN_POINT('',(0.,1.86636172190057E-19,0.0254));
#352=CARTESIAN_POINT('',(0.,1.86636172190057E-19,0.00508));
#353=CARTESIAN_POINT('',(0.0024892,1.86636172190057E-19,0.00508));
#354=CARTESIAN_POINT('',(0.00028900037710758,-6.12532334487732E-5,0.00508));
#355=MECHANICAL_DESIGN_GEOMETRIC_PRESENTATION_REPRESENTATION('',(#212),
#356);
#356=(
GEOMETRIC_REPRESENTATION_CONTEXT(3)
GLOBAL_UNCERTAINTY_ASSIGNED_CONTEXT((#357))
GLOBAL_UNIT_ASSIGNED_CONTEXT((#360,#359,#358))
REPRESENTATION_CONTEXT('Short','TOP_LEVEL_ASSEMBLY_PART')
);
#357=UNCERTAINTY_MEASURE_WITH_UNIT(LENGTH_MEASURE(1.E-8),#360,
'DISTANCE_ACCURACY_VALUE','Maximum Tolerance applied to model');
#358=(
NAMED_UNIT(*)
SI_UNIT($,.STERADIAN.)
SOLID_ANGLE_UNIT()
);
#359=(
NAMED_UNIT(*)
PLANE_ANGLE_UNIT()
SI_UNIT($,.RADIAN.)
);
#360=(
LENGTH_UNIT()
NAMED_UNIT(*)
SI_UNIT($,.METRE.)
);
#361=PRODUCT_DEFINITION_SHAPE('','',#362);
#362=PRODUCT_DEFINITION('','',#364,#363);
#363=PRODUCT_DEFINITION_CONTEXT('',#370,'design');
#364=PRODUCT_DEFINITION_FORMATION_WITH_SPECIFIED_SOURCE('','',#366,
 .NOT_KNOWN.);
#365=PRODUCT_RELATED_PRODUCT_CATEGORY('','',(#366));
#366=PRODUCT('Short','Short','Short',(#368));
#367=PRODUCT_CATEGORY('','');
#368=PRODUCT_CONTEXT('',#370,'mechanical');
#369=APPLICATION_PROTOCOL_DEFINITION('international standard',
'ap242_managed_model_based_3d_engineering',2020,#370);
#370=APPLICATION_CONTEXT('managed model based 3d engineering');
ENDSEC;
END-ISO-10303-21;
