ISO-10303-21;
HEADER;
/* Generated by software containing ST-Developer
 * from STEP Tools, Inc. (www.steptools.com) 
 */
/* OPTION: using custom renumber hook */

FILE_DESCRIPTION(
/* description */ ('STEP AP242 Edition 2',
'CAx-IF Rec.Pracs.---Representation and Presentation of Product Manufa
cturing Information (PMI)---4.0---2014-10-13',
'CAx-IF Rec.Pracs.---3D Tessellated Geometry---0.4---2014-09-14','2;1',
'CAx-IF Rec.Pracs.---User Defined Attributes---1.5---2016-08-15'),
/* implementation_level */ '2;1');

FILE_NAME(
/* name */ 'Side Panel',
/* time_stamp */ '2026-08-06T17:34:11Z',
/* author */ (''),
/* organization */ (''),
/* preprocessor_version */ 'ST-DEVELOPER v20',
/* originating_system */ 'ONSHAPE BY PTC INC, 1.218',
/* authorisation */ '  ');

FILE_SCHEMA (('AP242_MANAGED_MODEL_BASED_3D_ENGINEERING_MIM_LF { 1 0 10303 442 3 1 4 }'));
ENDSEC;

DATA;
#10=SHAPE_REPRESENTATION_RELATIONSHIP('','',#421,#11);
#11=ADVANCED_BREP_SHAPE_REPRESENTATION('',(#419),#681);
#12=CIRCLE('',#434,0.00635);
#13=CIRCLE('',#435,0.00635);
#14=CIRCLE('',#438,0.00635);
#15=CIRCLE('',#439,0.00635);
#16=CIRCLE('',#441,0.00635);
#17=CIRCLE('',#442,0.00635);
#18=CIRCLE('',#444,0.00127);
#19=CIRCLE('',#445,0.00127);
#20=CIRCLE('',#446,0.00127);
#21=CIRCLE('',#447,0.00127);
#22=CIRCLE('',#448,0.00127);
#23=CIRCLE('',#450,0.00127);
#24=CIRCLE('',#451,0.00127);
#25=CIRCLE('',#452,0.00127);
#26=CIRCLE('',#453,0.00127);
#27=CIRCLE('',#454,0.00127);
#28=CYLINDRICAL_SURFACE('',#433,0.00635);
#29=CYLINDRICAL_SURFACE('',#437,0.00635);
#30=CYLINDRICAL_SURFACE('',#440,0.00635);
#31=CYLINDRICAL_SURFACE('',#455,0.00127);
#32=CYLINDRICAL_SURFACE('',#456,0.00127);
#33=CYLINDRICAL_SURFACE('',#457,0.00127);
#34=CYLINDRICAL_SURFACE('',#458,0.00127);
#35=CYLINDRICAL_SURFACE('',#459,0.00127);
#36=ORIENTED_EDGE('',*,*,#136,.F.);
#37=ORIENTED_EDGE('',*,*,#137,.F.);
#38=ORIENTED_EDGE('',*,*,#138,.T.);
#39=ORIENTED_EDGE('',*,*,#139,.T.);
#40=ORIENTED_EDGE('',*,*,#140,.F.);
#41=ORIENTED_EDGE('',*,*,#141,.F.);
#42=ORIENTED_EDGE('',*,*,#142,.T.);
#43=ORIENTED_EDGE('',*,*,#137,.T.);
#44=ORIENTED_EDGE('',*,*,#143,.F.);
#45=ORIENTED_EDGE('',*,*,#144,.F.);
#46=ORIENTED_EDGE('',*,*,#145,.T.);
#47=ORIENTED_EDGE('',*,*,#141,.T.);
#48=ORIENTED_EDGE('',*,*,#146,.T.);
#49=ORIENTED_EDGE('',*,*,#147,.F.);
#50=ORIENTED_EDGE('',*,*,#148,.F.);
#51=ORIENTED_EDGE('',*,*,#144,.T.);
#52=ORIENTED_EDGE('',*,*,#149,.T.);
#53=ORIENTED_EDGE('',*,*,#150,.F.);
#54=ORIENTED_EDGE('',*,*,#151,.F.);
#55=ORIENTED_EDGE('',*,*,#147,.T.);
#56=ORIENTED_EDGE('',*,*,#152,.F.);
#57=ORIENTED_EDGE('',*,*,#153,.F.);
#58=ORIENTED_EDGE('',*,*,#154,.T.);
#59=ORIENTED_EDGE('',*,*,#150,.T.);
#60=ORIENTED_EDGE('',*,*,#155,.F.);
#61=ORIENTED_EDGE('',*,*,#156,.F.);
#62=ORIENTED_EDGE('',*,*,#157,.T.);
#63=ORIENTED_EDGE('',*,*,#153,.T.);
#64=ORIENTED_EDGE('',*,*,#158,.F.);
#65=ORIENTED_EDGE('',*,*,#159,.F.);
#66=ORIENTED_EDGE('',*,*,#160,.T.);
#67=ORIENTED_EDGE('',*,*,#156,.T.);
#68=ORIENTED_EDGE('',*,*,#161,.T.);
#69=ORIENTED_EDGE('',*,*,#162,.F.);
#70=ORIENTED_EDGE('',*,*,#163,.F.);
#71=ORIENTED_EDGE('',*,*,#159,.T.);
#72=ORIENTED_EDGE('',*,*,#164,.T.);
#73=ORIENTED_EDGE('',*,*,#165,.F.);
#74=ORIENTED_EDGE('',*,*,#166,.F.);
#75=ORIENTED_EDGE('',*,*,#162,.T.);
#76=ORIENTED_EDGE('',*,*,#167,.T.);
#77=ORIENTED_EDGE('',*,*,#168,.F.);
#78=ORIENTED_EDGE('',*,*,#169,.F.);
#79=ORIENTED_EDGE('',*,*,#165,.T.);
#80=ORIENTED_EDGE('',*,*,#170,.T.);
#81=ORIENTED_EDGE('',*,*,#139,.F.);
#82=ORIENTED_EDGE('',*,*,#171,.F.);
#83=ORIENTED_EDGE('',*,*,#168,.T.);
#84=ORIENTED_EDGE('',*,*,#172,.T.);
#85=ORIENTED_EDGE('',*,*,#173,.F.);
#86=ORIENTED_EDGE('',*,*,#174,.T.);
#87=ORIENTED_EDGE('',*,*,#175,.F.);
#88=ORIENTED_EDGE('',*,*,#176,.F.);
#89=ORIENTED_EDGE('',*,*,#177,.F.);
#90=ORIENTED_EDGE('',*,*,#178,.F.);
#91=ORIENTED_EDGE('',*,*,#179,.F.);
#92=ORIENTED_EDGE('',*,*,#180,.T.);
#93=ORIENTED_EDGE('',*,*,#172,.F.);
#94=ORIENTED_EDGE('',*,*,#138,.F.);
#95=ORIENTED_EDGE('',*,*,#142,.F.);
#96=ORIENTED_EDGE('',*,*,#145,.F.);
#97=ORIENTED_EDGE('',*,*,#148,.T.);
#98=ORIENTED_EDGE('',*,*,#151,.T.);
#99=ORIENTED_EDGE('',*,*,#154,.F.);
#100=ORIENTED_EDGE('',*,*,#157,.F.);
#101=ORIENTED_EDGE('',*,*,#160,.F.);
#102=ORIENTED_EDGE('',*,*,#163,.T.);
#103=ORIENTED_EDGE('',*,*,#166,.T.);
#104=ORIENTED_EDGE('',*,*,#169,.T.);
#105=ORIENTED_EDGE('',*,*,#171,.T.);
#106=ORIENTED_EDGE('',*,*,#174,.F.);
#107=ORIENTED_EDGE('',*,*,#181,.F.);
#108=ORIENTED_EDGE('',*,*,#182,.F.);
#109=ORIENTED_EDGE('',*,*,#183,.F.);
#110=ORIENTED_EDGE('',*,*,#184,.F.);
#111=ORIENTED_EDGE('',*,*,#185,.F.);
#112=ORIENTED_EDGE('',*,*,#173,.T.);
#113=ORIENTED_EDGE('',*,*,#136,.T.);
#114=ORIENTED_EDGE('',*,*,#170,.F.);
#115=ORIENTED_EDGE('',*,*,#167,.F.);
#116=ORIENTED_EDGE('',*,*,#164,.F.);
#117=ORIENTED_EDGE('',*,*,#161,.F.);
#118=ORIENTED_EDGE('',*,*,#158,.T.);
#119=ORIENTED_EDGE('',*,*,#155,.T.);
#120=ORIENTED_EDGE('',*,*,#152,.T.);
#121=ORIENTED_EDGE('',*,*,#149,.F.);
#122=ORIENTED_EDGE('',*,*,#146,.F.);
#123=ORIENTED_EDGE('',*,*,#143,.T.);
#124=ORIENTED_EDGE('',*,*,#140,.T.);
#125=ORIENTED_EDGE('',*,*,#175,.T.);
#126=ORIENTED_EDGE('',*,*,#185,.T.);
#127=ORIENTED_EDGE('',*,*,#180,.F.);
#128=ORIENTED_EDGE('',*,*,#179,.T.);
#129=ORIENTED_EDGE('',*,*,#184,.T.);
#130=ORIENTED_EDGE('',*,*,#178,.T.);
#131=ORIENTED_EDGE('',*,*,#183,.T.);
#132=ORIENTED_EDGE('',*,*,#177,.T.);
#133=ORIENTED_EDGE('',*,*,#182,.T.);
#134=ORIENTED_EDGE('',*,*,#176,.T.);
#135=ORIENTED_EDGE('',*,*,#181,.T.);
#136=EDGE_CURVE('',#186,#187,#224,.T.);
#137=EDGE_CURVE('',#188,#186,#225,.T.);
#138=EDGE_CURVE('',#188,#189,#226,.T.);
#139=EDGE_CURVE('',#189,#187,#227,.T.);
#140=EDGE_CURVE('',#190,#186,#228,.T.);
#141=EDGE_CURVE('',#191,#190,#229,.T.);
#142=EDGE_CURVE('',#191,#188,#230,.T.);
#143=EDGE_CURVE('',#192,#190,#231,.T.);
#144=EDGE_CURVE('',#193,#192,#232,.T.);
#145=EDGE_CURVE('',#193,#191,#233,.T.);
#146=EDGE_CURVE('',#192,#194,#234,.T.);
#147=EDGE_CURVE('',#195,#194,#235,.T.);
#148=EDGE_CURVE('',#193,#195,#236,.T.);
#149=EDGE_CURVE('',#194,#196,#237,.T.);
#150=EDGE_CURVE('',#197,#196,#238,.T.);
#151=EDGE_CURVE('',#195,#197,#239,.T.);
#152=EDGE_CURVE('',#198,#196,#240,.T.);
#153=EDGE_CURVE('',#199,#198,#241,.T.);
#154=EDGE_CURVE('',#199,#197,#242,.T.);
#155=EDGE_CURVE('',#200,#198,#243,.T.);
#156=EDGE_CURVE('',#201,#200,#244,.T.);
#157=EDGE_CURVE('',#201,#199,#245,.T.);
#158=EDGE_CURVE('',#202,#200,#246,.T.);
#159=EDGE_CURVE('',#203,#202,#247,.T.);
#160=EDGE_CURVE('',#203,#201,#248,.T.);
#161=EDGE_CURVE('',#202,#204,#249,.T.);
#162=EDGE_CURVE('',#205,#204,#250,.T.);
#163=EDGE_CURVE('',#203,#205,#251,.T.);
#164=EDGE_CURVE('',#204,#206,#252,.T.);
#165=EDGE_CURVE('',#207,#206,#253,.T.);
#166=EDGE_CURVE('',#205,#207,#254,.T.);
#167=EDGE_CURVE('',#206,#208,#12,.T.);
#168=EDGE_CURVE('',#209,#208,#255,.T.);
#169=EDGE_CURVE('',#207,#209,#13,.T.);
#170=EDGE_CURVE('',#208,#187,#256,.T.);
#171=EDGE_CURVE('',#209,#189,#257,.T.);
#172=EDGE_CURVE('',#210,#210,#14,.T.);
#173=EDGE_CURVE('',#211,#211,#15,.T.);
#174=EDGE_CURVE('',#212,#212,#16,.T.);
#175=EDGE_CURVE('',#213,#213,#17,.T.);
#176=EDGE_CURVE('',#214,#214,#18,.F.);
#177=EDGE_CURVE('',#215,#215,#19,.F.);
#178=EDGE_CURVE('',#216,#216,#20,.F.);
#179=EDGE_CURVE('',#217,#217,#21,.F.);
#180=EDGE_CURVE('',#218,#218,#22,.F.);
#181=EDGE_CURVE('',#219,#219,#23,.T.);
#182=EDGE_CURVE('',#220,#220,#24,.T.);
#183=EDGE_CURVE('',#221,#221,#25,.T.);
#184=EDGE_CURVE('',#222,#222,#26,.T.);
#185=EDGE_CURVE('',#223,#223,#27,.T.);
#186=VERTEX_POINT('',#573);
#187=VERTEX_POINT('',#574);
#188=VERTEX_POINT('',#576);
#189=VERTEX_POINT('',#578);
#190=VERTEX_POINT('',#582);
#191=VERTEX_POINT('',#584);
#192=VERTEX_POINT('',#588);
#193=VERTEX_POINT('',#590);
#194=VERTEX_POINT('',#594);
#195=VERTEX_POINT('',#596);
#196=VERTEX_POINT('',#600);
#197=VERTEX_POINT('',#602);
#198=VERTEX_POINT('',#606);
#199=VERTEX_POINT('',#608);
#200=VERTEX_POINT('',#612);
#201=VERTEX_POINT('',#614);
#202=VERTEX_POINT('',#618);
#203=VERTEX_POINT('',#620);
#204=VERTEX_POINT('',#624);
#205=VERTEX_POINT('',#626);
#206=VERTEX_POINT('',#630);
#207=VERTEX_POINT('',#632);
#208=VERTEX_POINT('',#636);
#209=VERTEX_POINT('',#638);
#210=VERTEX_POINT('',#645);
#211=VERTEX_POINT('',#647);
#212=VERTEX_POINT('',#650);
#213=VERTEX_POINT('',#652);
#214=VERTEX_POINT('',#655);
#215=VERTEX_POINT('',#657);
#216=VERTEX_POINT('',#659);
#217=VERTEX_POINT('',#661);
#218=VERTEX_POINT('',#663);
#219=VERTEX_POINT('',#666);
#220=VERTEX_POINT('',#668);
#221=VERTEX_POINT('',#670);
#222=VERTEX_POINT('',#672);
#223=VERTEX_POINT('',#674);
#224=LINE('',#572,#258);
#225=LINE('',#575,#259);
#226=LINE('',#577,#260);
#227=LINE('',#579,#261);
#228=LINE('',#581,#262);
#229=LINE('',#583,#263);
#230=LINE('',#585,#264);
#231=LINE('',#587,#265);
#232=LINE('',#589,#266);
#233=LINE('',#591,#267);
#234=LINE('',#593,#268);
#235=LINE('',#595,#269);
#236=LINE('',#597,#270);
#237=LINE('',#599,#271);
#238=LINE('',#601,#272);
#239=LINE('',#603,#273);
#240=LINE('',#605,#274);
#241=LINE('',#607,#275);
#242=LINE('',#609,#276);
#243=LINE('',#611,#277);
#244=LINE('',#613,#278);
#245=LINE('',#615,#279);
#246=LINE('',#617,#280);
#247=LINE('',#619,#281);
#248=LINE('',#621,#282);
#249=LINE('',#623,#283);
#250=LINE('',#625,#284);
#251=LINE('',#627,#285);
#252=LINE('',#629,#286);
#253=LINE('',#631,#287);
#254=LINE('',#633,#288);
#255=LINE('',#637,#289);
#256=LINE('',#641,#290);
#257=LINE('',#642,#291);
#258=VECTOR('',#464,1.);
#259=VECTOR('',#465,1.);
#260=VECTOR('',#466,1.);
#261=VECTOR('',#467,1.);
#262=VECTOR('',#470,1.);
#263=VECTOR('',#471,1.);
#264=VECTOR('',#472,1.);
#265=VECTOR('',#475,1.);
#266=VECTOR('',#476,1.);
#267=VECTOR('',#477,1.);
#268=VECTOR('',#480,1.);
#269=VECTOR('',#481,1.);
#270=VECTOR('',#482,1.);
#271=VECTOR('',#485,1.);
#272=VECTOR('',#486,1.);
#273=VECTOR('',#487,1.);
#274=VECTOR('',#490,1.);
#275=VECTOR('',#491,1.);
#276=VECTOR('',#492,1.);
#277=VECTOR('',#495,1.);
#278=VECTOR('',#496,1.);
#279=VECTOR('',#497,1.);
#280=VECTOR('',#500,1.);
#281=VECTOR('',#501,1.);
#282=VECTOR('',#502,1.);
#283=VECTOR('',#505,1.);
#284=VECTOR('',#506,1.);
#285=VECTOR('',#507,1.);
#286=VECTOR('',#510,1.);
#287=VECTOR('',#511,1.);
#288=VECTOR('',#512,1.);
#289=VECTOR('',#517,1.);
#290=VECTOR('',#522,1.);
#291=VECTOR('',#523,1.);
#292=EDGE_LOOP('',(#36,#37,#38,#39));
#293=EDGE_LOOP('',(#40,#41,#42,#43));
#294=EDGE_LOOP('',(#44,#45,#46,#47));
#295=EDGE_LOOP('',(#48,#49,#50,#51));
#296=EDGE_LOOP('',(#52,#53,#54,#55));
#297=EDGE_LOOP('',(#56,#57,#58,#59));
#298=EDGE_LOOP('',(#60,#61,#62,#63));
#299=EDGE_LOOP('',(#64,#65,#66,#67));
#300=EDGE_LOOP('',(#68,#69,#70,#71));
#301=EDGE_LOOP('',(#72,#73,#74,#75));
#302=EDGE_LOOP('',(#76,#77,#78,#79));
#303=EDGE_LOOP('',(#80,#81,#82,#83));
#304=EDGE_LOOP('',(#84));
#305=EDGE_LOOP('',(#85));
#306=EDGE_LOOP('',(#86));
#307=EDGE_LOOP('',(#87));
#308=EDGE_LOOP('',(#88));
#309=EDGE_LOOP('',(#89));
#310=EDGE_LOOP('',(#90));
#311=EDGE_LOOP('',(#91));
#312=EDGE_LOOP('',(#92));
#313=EDGE_LOOP('',(#93));
#314=EDGE_LOOP('',(#94,#95,#96,#97,#98,#99,#100,#101,#102,#103,#104,#105));
#315=EDGE_LOOP('',(#106));
#316=EDGE_LOOP('',(#107));
#317=EDGE_LOOP('',(#108));
#318=EDGE_LOOP('',(#109));
#319=EDGE_LOOP('',(#110));
#320=EDGE_LOOP('',(#111));
#321=EDGE_LOOP('',(#112));
#322=EDGE_LOOP('',(#113,#114,#115,#116,#117,#118,#119,#120,#121,#122,#123,
#124));
#323=EDGE_LOOP('',(#125));
#324=EDGE_LOOP('',(#126));
#325=EDGE_LOOP('',(#127));
#326=EDGE_LOOP('',(#128));
#327=EDGE_LOOP('',(#129));
#328=EDGE_LOOP('',(#130));
#329=EDGE_LOOP('',(#131));
#330=EDGE_LOOP('',(#132));
#331=EDGE_LOOP('',(#133));
#332=EDGE_LOOP('',(#134));
#333=EDGE_LOOP('',(#135));
#334=FACE_BOUND('',#292,.T.);
#335=FACE_BOUND('',#293,.T.);
#336=FACE_BOUND('',#294,.T.);
#337=FACE_BOUND('',#295,.T.);
#338=FACE_BOUND('',#296,.T.);
#339=FACE_BOUND('',#297,.T.);
#340=FACE_BOUND('',#298,.T.);
#341=FACE_BOUND('',#299,.T.);
#342=FACE_BOUND('',#300,.T.);
#343=FACE_BOUND('',#301,.T.);
#344=FACE_BOUND('',#302,.T.);
#345=FACE_BOUND('',#303,.T.);
#346=FACE_BOUND('',#304,.T.);
#347=FACE_BOUND('',#305,.T.);
#348=FACE_BOUND('',#306,.T.);
#349=FACE_BOUND('',#307,.T.);
#350=FACE_BOUND('',#308,.T.);
#351=FACE_BOUND('',#309,.T.);
#352=FACE_BOUND('',#310,.T.);
#353=FACE_BOUND('',#311,.T.);
#354=FACE_BOUND('',#312,.T.);
#355=FACE_BOUND('',#313,.T.);
#356=FACE_BOUND('',#314,.T.);
#357=FACE_BOUND('',#315,.T.);
#358=FACE_BOUND('',#316,.T.);
#359=FACE_BOUND('',#317,.T.);
#360=FACE_BOUND('',#318,.T.);
#361=FACE_BOUND('',#319,.T.);
#362=FACE_BOUND('',#320,.T.);
#363=FACE_BOUND('',#321,.T.);
#364=FACE_BOUND('',#322,.T.);
#365=FACE_BOUND('',#323,.T.);
#366=FACE_BOUND('',#324,.T.);
#367=FACE_BOUND('',#325,.T.);
#368=FACE_BOUND('',#326,.T.);
#369=FACE_BOUND('',#327,.T.);
#370=FACE_BOUND('',#328,.T.);
#371=FACE_BOUND('',#329,.T.);
#372=FACE_BOUND('',#330,.T.);
#373=FACE_BOUND('',#331,.T.);
#374=FACE_BOUND('',#332,.T.);
#375=FACE_BOUND('',#333,.T.);
#376=PLANE('',#423);
#377=PLANE('',#424);
#378=PLANE('',#425);
#379=PLANE('',#426);
#380=PLANE('',#427);
#381=PLANE('',#428);
#382=PLANE('',#429);
#383=PLANE('',#430);
#384=PLANE('',#431);
#385=PLANE('',#432);
#386=PLANE('',#436);
#387=PLANE('',#443);
#388=PLANE('',#449);
#389=ADVANCED_FACE('',(#334),#376,.T.);
#390=ADVANCED_FACE('',(#335),#377,.T.);
#391=ADVANCED_FACE('',(#336),#378,.T.);
#392=ADVANCED_FACE('',(#337),#379,.F.);
#393=ADVANCED_FACE('',(#338),#380,.F.);
#394=ADVANCED_FACE('',(#339),#381,.T.);
#395=ADVANCED_FACE('',(#340),#382,.T.);
#396=ADVANCED_FACE('',(#341),#383,.T.);
#397=ADVANCED_FACE('',(#342),#384,.F.);
#398=ADVANCED_FACE('',(#343),#385,.F.);
#399=ADVANCED_FACE('',(#344),#28,.T.);
#400=ADVANCED_FACE('',(#345),#386,.F.);
#401=ADVANCED_FACE('',(#346,#347),#29,.F.);
#402=ADVANCED_FACE('',(#348,#349),#30,.F.);
#403=ADVANCED_FACE('',(#350,#351,#352,#353,#354,#355,#356,#357),#387,.T.);
#404=ADVANCED_FACE('',(#358,#359,#360,#361,#362,#363,#364,#365),#388,.F.);
#405=ADVANCED_FACE('',(#366,#367),#31,.F.);
#406=ADVANCED_FACE('',(#368,#369),#32,.F.);
#407=ADVANCED_FACE('',(#370,#371),#33,.F.);
#408=ADVANCED_FACE('',(#372,#373),#34,.F.);
#409=ADVANCED_FACE('',(#374,#375),#35,.F.);
#410=CLOSED_SHELL('',(#389,#390,#391,#392,#393,#394,#395,#396,#397,#398,
#399,#400,#401,#402,#403,#404,#405,#406,#407,#408,#409));
#411=STYLED_ITEM('',(#412),#419);
#412=PRESENTATION_STYLE_ASSIGNMENT((#413));
#413=SURFACE_STYLE_USAGE(.BOTH.,#414);
#414=SURFACE_SIDE_STYLE('',(#415));
#415=SURFACE_STYLE_FILL_AREA(#416);
#416=FILL_AREA_STYLE('',(#417));
#417=FILL_AREA_STYLE_COLOUR('',#418);
#418=COLOUR_RGB('',0.913725490196078,0.647058823529412,0.329411764705883);
#419=MANIFOLD_SOLID_BREP('Side Panel',#410);
#420=SHAPE_DEFINITION_REPRESENTATION(#686,#421);
#421=SHAPE_REPRESENTATION('Side Panel',(#422),#681);
#422=AXIS2_PLACEMENT_3D('',#570,#460,#461);
#423=AXIS2_PLACEMENT_3D('',#571,#462,#463);
#424=AXIS2_PLACEMENT_3D('',#580,#468,#469);
#425=AXIS2_PLACEMENT_3D('',#586,#473,#474);
#426=AXIS2_PLACEMENT_3D('',#592,#478,#479);
#427=AXIS2_PLACEMENT_3D('',#598,#483,#484);
#428=AXIS2_PLACEMENT_3D('',#604,#488,#489);
#429=AXIS2_PLACEMENT_3D('',#610,#493,#494);
#430=AXIS2_PLACEMENT_3D('',#616,#498,#499);
#431=AXIS2_PLACEMENT_3D('',#622,#503,#504);
#432=AXIS2_PLACEMENT_3D('',#628,#508,#509);
#433=AXIS2_PLACEMENT_3D('',#634,#513,#514);
#434=AXIS2_PLACEMENT_3D('',#635,#515,#516);
#435=AXIS2_PLACEMENT_3D('',#639,#518,#519);
#436=AXIS2_PLACEMENT_3D('',#640,#520,#521);
#437=AXIS2_PLACEMENT_3D('',#643,#524,#525);
#438=AXIS2_PLACEMENT_3D('',#644,#526,#527);
#439=AXIS2_PLACEMENT_3D('',#646,#528,#529);
#440=AXIS2_PLACEMENT_3D('',#648,#530,#531);
#441=AXIS2_PLACEMENT_3D('',#649,#532,#533);
#442=AXIS2_PLACEMENT_3D('',#651,#534,#535);
#443=AXIS2_PLACEMENT_3D('',#653,#536,#537);
#444=AXIS2_PLACEMENT_3D('',#654,#538,#539);
#445=AXIS2_PLACEMENT_3D('',#656,#540,#541);
#446=AXIS2_PLACEMENT_3D('',#658,#542,#543);
#447=AXIS2_PLACEMENT_3D('',#660,#544,#545);
#448=AXIS2_PLACEMENT_3D('',#662,#546,#547);
#449=AXIS2_PLACEMENT_3D('',#664,#548,#549);
#450=AXIS2_PLACEMENT_3D('',#665,#550,#551);
#451=AXIS2_PLACEMENT_3D('',#667,#552,#553);
#452=AXIS2_PLACEMENT_3D('',#669,#554,#555);
#453=AXIS2_PLACEMENT_3D('',#671,#556,#557);
#454=AXIS2_PLACEMENT_3D('',#673,#558,#559);
#455=AXIS2_PLACEMENT_3D('',#675,#560,#561);
#456=AXIS2_PLACEMENT_3D('',#676,#562,#563);
#457=AXIS2_PLACEMENT_3D('',#677,#564,#565);
#458=AXIS2_PLACEMENT_3D('',#678,#566,#567);
#459=AXIS2_PLACEMENT_3D('',#679,#568,#569);
#460=DIRECTION('',(0.,0.,1.));
#461=DIRECTION('',(1.,0.,0.));
#462=DIRECTION('',(0.,-1.,0.));
#463=DIRECTION('',(0.,0.,-1.));
#464=DIRECTION('',(-1.,0.,0.));
#465=DIRECTION('',(0.,0.,-1.));
#466=DIRECTION('',(-1.,0.,0.));
#467=DIRECTION('',(0.,0.,-1.));
#468=DIRECTION('',(0.894427190999916,0.447213595499958,0.));
#469=DIRECTION('',(-0.447213595499958,0.894427190999916,0.));
#470=DIRECTION('',(0.447213595499958,-0.894427190999916,0.));
#471=DIRECTION('',(0.,0.,-1.));
#472=DIRECTION('',(0.447213595499958,-0.894427190999916,0.));
#473=DIRECTION('',(0.,1.,0.));
#474=DIRECTION('',(0.,0.,1.));
#475=DIRECTION('',(1.,0.,0.));
#476=DIRECTION('',(0.,0.,-1.));
#477=DIRECTION('',(1.,0.,0.));
#478=DIRECTION('',(1.,0.,0.));
#479=DIRECTION('',(0.,0.,-1.));
#480=DIRECTION('',(0.,-1.,0.));
#481=DIRECTION('',(0.,0.,-1.));
#482=DIRECTION('',(0.,-1.,0.));
#483=DIRECTION('',(0.,-1.,0.));
#484=DIRECTION('',(0.,0.,-1.));
#485=DIRECTION('',(-1.,0.,0.));
#486=DIRECTION('',(0.,0.,-1.));
#487=DIRECTION('',(-1.,0.,0.));
#488=DIRECTION('',(1.,0.,0.));
#489=DIRECTION('',(0.,0.,-1.));
#490=DIRECTION('',(0.,-1.,0.));
#491=DIRECTION('',(0.,0.,-1.));
#492=DIRECTION('',(0.,-1.,0.));
#493=DIRECTION('',(0.,1.,0.));
#494=DIRECTION('',(0.,0.,1.));
#495=DIRECTION('',(1.,0.,0.));
#496=DIRECTION('',(0.,0.,-1.));
#497=DIRECTION('',(1.,0.,0.));
#498=DIRECTION('',(-1.,0.,0.));
#499=DIRECTION('',(0.,0.,1.));
#500=DIRECTION('',(0.,1.,0.));
#501=DIRECTION('',(0.,0.,-1.));
#502=DIRECTION('',(0.,1.,0.));
#503=DIRECTION('',(2.04888599524819E-16,-1.,0.));
#504=DIRECTION('',(1.,2.04888599524819E-16,0.));
#505=DIRECTION('',(-1.,-2.04888599524819E-16,0.));
#506=DIRECTION('',(0.,0.,-1.));
#507=DIRECTION('',(-1.,-2.04888599524819E-16,0.));
#508=DIRECTION('',(-1.,0.,0.));
#509=DIRECTION('',(0.,0.,1.));
#510=DIRECTION('',(0.,1.,0.));
#511=DIRECTION('',(0.,0.,-1.));
#512=DIRECTION('',(0.,1.,0.));
#513=DIRECTION('',(0.,0.,-1.));
#514=DIRECTION('',(-1.,0.,0.));
#515=DIRECTION('',(0.,0.,1.));
#516=DIRECTION('',(1.,0.,0.));
#517=DIRECTION('',(0.,0.,-1.));
#518=DIRECTION('',(0.,0.,1.));
#519=DIRECTION('',(1.,0.,0.));
#520=DIRECTION('',(0.759256602365297,-0.650791373455969,0.));
#521=DIRECTION('',(0.650791373455969,0.759256602365297,0.));
#522=DIRECTION('',(-0.650791373455969,-0.759256602365297,0.));
#523=DIRECTION('',(-0.650791373455969,-0.759256602365297,0.));
#524=DIRECTION('',(0.,0.,-1.));
#525=DIRECTION('',(-1.,0.,0.));
#526=DIRECTION('',(0.,0.,1.));
#527=DIRECTION('',(1.,0.,0.));
#528=DIRECTION('',(0.,0.,1.));
#529=DIRECTION('',(1.,0.,0.));
#530=DIRECTION('',(0.,0.,-1.));
#531=DIRECTION('',(-1.,0.,0.));
#532=DIRECTION('',(0.,0.,1.));
#533=DIRECTION('',(1.,0.,0.));
#534=DIRECTION('',(0.,0.,1.));
#535=DIRECTION('',(1.,0.,0.));
#536=DIRECTION('',(0.,0.,1.));
#537=DIRECTION('',(1.,0.,0.));
#538=DIRECTION('',(-7.40840133875054E-17,1.61909010668203E-32,-1.));
#539=DIRECTION('',(-1.,0.,7.40840133875054E-17));
#540=DIRECTION('',(-7.40840133875054E-17,1.61909010668203E-32,-1.));
#541=DIRECTION('',(-1.,0.,7.40840133875054E-17));
#542=DIRECTION('',(-7.40840133875054E-17,1.61909010668203E-32,-1.));
#543=DIRECTION('',(-1.,0.,7.40840133875054E-17));
#544=DIRECTION('',(-7.40840133875054E-17,1.61909010668203E-32,-1.));
#545=DIRECTION('',(-1.,0.,7.40840133875054E-17));
#546=DIRECTION('',(0.,0.,1.));
#547=DIRECTION('',(1.,0.,0.));
#548=DIRECTION('',(0.,0.,1.));
#549=DIRECTION('',(1.,0.,0.));
#550=DIRECTION('',(0.,0.,-1.));
#551=DIRECTION('',(-1.,0.,0.));
#552=DIRECTION('',(0.,0.,-1.));
#553=DIRECTION('',(-1.,0.,0.));
#554=DIRECTION('',(0.,0.,-1.));
#555=DIRECTION('',(-1.,0.,0.));
#556=DIRECTION('',(0.,0.,-1.));
#557=DIRECTION('',(-1.,0.,0.));
#558=DIRECTION('',(0.,0.,-1.));
#559=DIRECTION('',(-1.,0.,0.));
#560=DIRECTION('',(0.,0.,-1.));
#561=DIRECTION('',(-1.,0.,0.));
#562=DIRECTION('',(0.,0.,-1.));
#563=DIRECTION('',(-1.,0.,0.));
#564=DIRECTION('',(0.,0.,-1.));
#565=DIRECTION('',(-1.,0.,0.));
#566=DIRECTION('',(0.,0.,-1.));
#567=DIRECTION('',(-1.,0.,0.));
#568=DIRECTION('',(0.,0.,-1.));
#569=DIRECTION('',(-1.,0.,0.));
#570=CARTESIAN_POINT('',(0.,0.,0.));
#571=CARTESIAN_POINT('',(-0.0508,0.,0.00635));
#572=CARTESIAN_POINT('',(-0.0508,0.,0.));
#573=CARTESIAN_POINT('',(0.1905,-2.08166817117217E-17,0.));
#574=CARTESIAN_POINT('',(-0.1905,8.32667268468867E-17,0.));
#575=CARTESIAN_POINT('',(0.1905,-2.08166817117217E-17,0.00635));
#576=CARTESIAN_POINT('',(0.1905,-2.08166817117217E-17,0.00635));
#577=CARTESIAN_POINT('',(-0.0508,0.,0.00635));
#578=CARTESIAN_POINT('',(-0.1905,8.32667268468867E-17,0.00635));
#579=CARTESIAN_POINT('',(-0.1905,8.32667268468867E-17,0.00635));
#580=CARTESIAN_POINT('',(0.1778,0.0254,0.00635));
#581=CARTESIAN_POINT('',(0.1778,0.0254,0.));
#582=CARTESIAN_POINT('',(0.1651,0.0508,0.));
#583=CARTESIAN_POINT('',(0.1651,0.0508,0.00635));
#584=CARTESIAN_POINT('',(0.1651,0.0508,0.00635));
#585=CARTESIAN_POINT('',(0.1778,0.0254,0.00635));
#586=CARTESIAN_POINT('',(0.1476375,0.0508,0.00635));
#587=CARTESIAN_POINT('',(0.1476375,0.0508,0.));
#588=CARTESIAN_POINT('',(0.130175,0.0508,0.));
#589=CARTESIAN_POINT('',(0.130175,0.0508,0.00635));
#590=CARTESIAN_POINT('',(0.130175,0.0508,0.00635));
#591=CARTESIAN_POINT('',(0.1476375,0.0508,0.00635));
#592=CARTESIAN_POINT('',(0.130175,0.0492125,0.00635));
#593=CARTESIAN_POINT('',(0.130175,0.0492125,0.));
#594=CARTESIAN_POINT('',(0.130175,0.047625,0.));
#595=CARTESIAN_POINT('',(0.130175,0.047625,0.00635));
#596=CARTESIAN_POINT('',(0.130175,0.047625,0.00635));
#597=CARTESIAN_POINT('',(0.130175,0.0492125,0.00635));
#598=CARTESIAN_POINT('',(0.127,0.047625,0.00635));
#599=CARTESIAN_POINT('',(0.127,0.047625,0.));
#600=CARTESIAN_POINT('',(0.123825,0.047625,0.));
#601=CARTESIAN_POINT('',(0.123825,0.047625,0.00635));
#602=CARTESIAN_POINT('',(0.123825,0.047625,0.00635));
#603=CARTESIAN_POINT('',(0.127,0.047625,0.00635));
#604=CARTESIAN_POINT('',(0.123825,0.0492125,0.00635));
#605=CARTESIAN_POINT('',(0.123825,0.0492125,0.));
#606=CARTESIAN_POINT('',(0.123825,0.0508,0.));
#607=CARTESIAN_POINT('',(0.123825,0.0508,0.00635));
#608=CARTESIAN_POINT('',(0.123825,0.0508,0.00635));
#609=CARTESIAN_POINT('',(0.123825,0.0492125,0.00635));
#610=CARTESIAN_POINT('',(0.1063625,0.0508,0.00635));
#611=CARTESIAN_POINT('',(0.1063625,0.0508,0.));
#612=CARTESIAN_POINT('',(0.0889,0.0508,0.));
#613=CARTESIAN_POINT('',(0.0889,0.0508,0.00635));
#614=CARTESIAN_POINT('',(0.0889,0.0508,0.00635));
#615=CARTESIAN_POINT('',(0.1063625,0.0508,0.00635));
#616=CARTESIAN_POINT('',(0.0889,0.03175,0.00635));
#617=CARTESIAN_POINT('',(0.0889,0.03175,0.));
#618=CARTESIAN_POINT('',(0.0889,0.0127,0.));
#619=CARTESIAN_POINT('',(0.0889,0.0127,0.00635));
#620=CARTESIAN_POINT('',(0.0889,0.0127,0.00635));
#621=CARTESIAN_POINT('',(0.0889,0.03175,0.00635));
#622=CARTESIAN_POINT('',(0.0635,0.0127,0.00635));
#623=CARTESIAN_POINT('',(0.0635,0.0127,0.));
#624=CARTESIAN_POINT('',(0.0381,0.0127,0.));
#625=CARTESIAN_POINT('',(0.0381,0.0127,0.00635));
#626=CARTESIAN_POINT('',(0.0381,0.0127,0.00635));
#627=CARTESIAN_POINT('',(0.0635,0.0127,0.00635));
#628=CARTESIAN_POINT('',(0.0381,0.131117157724682,0.00635));
#629=CARTESIAN_POINT('',(0.0381,0.131117157724682,0.));
#630=CARTESIAN_POINT('',(0.0381,0.249534315449365,0.));
#631=CARTESIAN_POINT('',(0.0381,0.249534315449365,0.00635));
#632=CARTESIAN_POINT('',(0.0381,0.249534315449365,0.00635));
#633=CARTESIAN_POINT('',(0.0381,0.131117157724682,0.00635));
#634=CARTESIAN_POINT('',(0.03175,0.249534315449365,0.00635));
#635=CARTESIAN_POINT('',(0.03175,0.249534315449365,0.));
#636=CARTESIAN_POINT('',(0.0269287205749804,0.253666840670811,0.));
#637=CARTESIAN_POINT('',(0.0269287205749804,0.253666840670811,0.00635));
#638=CARTESIAN_POINT('',(0.0269287205749804,0.253666840670811,0.00635));
#639=CARTESIAN_POINT('',(0.03175,0.249534315449365,0.00635));
#640=CARTESIAN_POINT('',(-0.0817856397125098,0.126833420335405,0.00635));
#641=CARTESIAN_POINT('',(-0.0817856397125098,0.126833420335405,0.));
#642=CARTESIAN_POINT('',(-0.0817856397125098,0.126833420335405,0.00635));
#643=CARTESIAN_POINT('',(-0.1143,0.0254,0.00635));
#644=CARTESIAN_POINT('',(-0.1143,0.0254,0.00635));
#645=CARTESIAN_POINT('',(-0.10795,0.0254,0.00635));
#646=CARTESIAN_POINT('',(-0.1143,0.0254,0.));
#647=CARTESIAN_POINT('',(-0.10795,0.0254,0.));
#648=CARTESIAN_POINT('',(0.1397,0.0254,0.00635));
#649=CARTESIAN_POINT('',(0.1397,0.0254,0.00635));
#650=CARTESIAN_POINT('',(0.14605,0.0254,0.00635));
#651=CARTESIAN_POINT('',(0.1397,0.0254,0.));
#652=CARTESIAN_POINT('',(0.14605,0.0254,0.));
#653=CARTESIAN_POINT('',(0.,0.127942157724682,0.00635));
#654=CARTESIAN_POINT('',(0.1016,0.003175,0.00635));
#655=CARTESIAN_POINT('',(0.10033,0.003175,0.00635));
#656=CARTESIAN_POINT('',(0.0508,0.003175,0.00635));
#657=CARTESIAN_POINT('',(0.04953,0.003175,0.00635));
#658=CARTESIAN_POINT('',(5.55111512312578E-17,0.003175,0.00635));
#659=CARTESIAN_POINT('',(-0.00126999999999994,0.003175,0.00635));
#660=CARTESIAN_POINT('',(-0.0508,0.003175,0.00635));
#661=CARTESIAN_POINT('',(-0.05207,0.003175,0.00635));
#662=CARTESIAN_POINT('',(-0.1016,0.003175,0.00635));
#663=CARTESIAN_POINT('',(-0.10033,0.003175,0.00635));
#664=CARTESIAN_POINT('',(0.,0.127942157724682,0.));
#665=CARTESIAN_POINT('',(0.1016,0.003175,0.));
#666=CARTESIAN_POINT('',(0.10033,0.003175,0.));
#667=CARTESIAN_POINT('',(0.0508,0.003175,0.));
#668=CARTESIAN_POINT('',(0.04953,0.003175,0.));
#669=CARTESIAN_POINT('',(5.55111512312578E-17,0.003175,0.));
#670=CARTESIAN_POINT('',(-0.00126999999999994,0.003175,0.));
#671=CARTESIAN_POINT('',(-0.0508,0.003175,0.));
#672=CARTESIAN_POINT('',(-0.05207,0.003175,0.));
#673=CARTESIAN_POINT('',(-0.1016,0.003175,0.));
#674=CARTESIAN_POINT('',(-0.10287,0.003175,0.));
#675=CARTESIAN_POINT('',(-0.1016,0.003175,0.006352));
#676=CARTESIAN_POINT('',(-0.0508,0.003175,0.006352));
#677=CARTESIAN_POINT('',(5.55111512312578E-17,0.003175,0.006352));
#678=CARTESIAN_POINT('',(0.0508,0.003175,0.006352));
#679=CARTESIAN_POINT('',(0.1016,0.003175,0.006352));
#680=MECHANICAL_DESIGN_GEOMETRIC_PRESENTATION_REPRESENTATION('',(#411),
#681);
#681=(
GEOMETRIC_REPRESENTATION_CONTEXT(3)
GLOBAL_UNCERTAINTY_ASSIGNED_CONTEXT((#682))
GLOBAL_UNIT_ASSIGNED_CONTEXT((#685,#684,#683))
REPRESENTATION_CONTEXT('Side Panel','TOP_LEVEL_ASSEMBLY_PART')
);
#682=UNCERTAINTY_MEASURE_WITH_UNIT(LENGTH_MEASURE(1.E-8),#685,
'DISTANCE_ACCURACY_VALUE','Maximum Tolerance applied to model');
#683=(
NAMED_UNIT(*)
SI_UNIT($,.STERADIAN.)
SOLID_ANGLE_UNIT()
);
#684=(
NAMED_UNIT(*)
PLANE_ANGLE_UNIT()
SI_UNIT($,.RADIAN.)
);
#685=(
LENGTH_UNIT()
NAMED_UNIT(*)
SI_UNIT($,.METRE.)
);
#686=PRODUCT_DEFINITION_SHAPE('','',#687);
#687=PRODUCT_DEFINITION('','',#689,#688);
#688=PRODUCT_DEFINITION_CONTEXT('',#695,'design');
#689=PRODUCT_DEFINITION_FORMATION_WITH_SPECIFIED_SOURCE('','',#691,
 .NOT_KNOWN.);
#690=PRODUCT_RELATED_PRODUCT_CATEGORY('','',(#691));
#691=PRODUCT('Side Panel','Side Panel','Side Panel',(#693));
#692=PRODUCT_CATEGORY('','');
#693=PRODUCT_CONTEXT('',#695,'mechanical');
#694=APPLICATION_PROTOCOL_DEFINITION('international standard',
'ap242_managed_model_based_3d_engineering',2020,#695);
#695=APPLICATION_CONTEXT('managed model based 3d engineering');
ENDSEC;
END-ISO-10303-21;
