ISO-10303-21;
HEADER;
/* Generated by software containing ST-Developer
 * from STEP Tools, Inc. (www.steptools.com) 
 */
/* OPTION: using custom renumber hook */

FILE_DESCRIPTION(
/* description */ ('STEP AP242 Edition 2',
'CAx-IF Rec.Pracs.---Representation and Presentation of Product Manufa
cturing Information (PMI)---4.0---2014-10-13',
'CAx-IF Rec.Pracs.---3D Tessellated Geometry---0.4---2014-09-14','2;1',
'CAx-IF Rec.Pracs.---User Defined Attributes---1.5---2016-08-15'),
/* implementation_level */ '2;1');

FILE_NAME(
/* name */ 'Simulation Poles',
/* time_stamp */ '2026-08-06T21:01:07Z',
/* author */ (''),
/* organization */ (''),
/* preprocessor_version */ 'ST-DEVELOPER v20',
/* originating_system */ 'ONSHAPE BY PTC INC, 1.218',
/* authorisation */ '  ');

FILE_SCHEMA (('AP242_MANAGED_MODEL_BASED_3D_ENGINEERING_MIM_LF { 1 0 10303 442 3 1 4 }'));
ENDSEC;

DATA;
#10=SHAPE_REPRESENTATION_RELATIONSHIP('','',#121,#11);
#11=ADVANCED_BREP_SHAPE_REPRESENTATION('',(#119),#211);
#12=PLANE('',#127);
#13=PLANE('',#128);
#14=PLANE('',#133);
#15=PLANE('',#139);
#16=ELLIPSE('',#125,0.0179605122421383,0.0127);
#17=ELLIPSE('',#126,0.0179605122421383,0.0127);
#18=ELLIPSE('',#132,0.0179605122421383,0.0127);
#19=ELLIPSE('',#136,0.0179605122421383,0.0127);
#20=ORIENTED_EDGE('',*,*,#40,.F.);
#21=ORIENTED_EDGE('',*,*,#41,.F.);
#22=ORIENTED_EDGE('',*,*,#42,.F.);
#23=ORIENTED_EDGE('',*,*,#40,.T.);
#24=ORIENTED_EDGE('',*,*,#43,.F.);
#25=ORIENTED_EDGE('',*,*,#44,.F.);
#26=ORIENTED_EDGE('',*,*,#44,.T.);
#27=ORIENTED_EDGE('',*,*,#45,.T.);
#28=ORIENTED_EDGE('',*,*,#41,.T.);
#29=ORIENTED_EDGE('',*,*,#46,.F.);
#30=ORIENTED_EDGE('',*,*,#46,.T.);
#31=ORIENTED_EDGE('',*,*,#47,.F.);
#32=ORIENTED_EDGE('',*,*,#45,.F.);
#33=ORIENTED_EDGE('',*,*,#48,.F.);
#34=ORIENTED_EDGE('',*,*,#42,.T.);
#35=ORIENTED_EDGE('',*,*,#47,.T.);
#36=ORIENTED_EDGE('',*,*,#49,.T.);
#37=ORIENTED_EDGE('',*,*,#48,.T.);
#38=ORIENTED_EDGE('',*,*,#43,.T.);
#39=ORIENTED_EDGE('',*,*,#49,.F.);
#40=EDGE_CURVE('',#50,#50,#58,.T.);
#41=EDGE_CURVE('',#51,#52,#16,.T.);
#42=EDGE_CURVE('',#52,#51,#17,.T.);
#43=EDGE_CURVE('',#53,#53,#59,.T.);
#44=EDGE_CURVE('',#54,#54,#60,.T.);
#45=EDGE_CURVE('',#52,#51,#18,.F.);
#46=EDGE_CURVE('',#55,#55,#61,.T.);
#47=EDGE_CURVE('',#51,#52,#19,.F.);
#48=EDGE_CURVE('',#56,#56,#62,.T.);
#49=EDGE_CURVE('',#57,#57,#63,.T.);
#50=VERTEX_POINT('',#185);
#51=VERTEX_POINT('',#187);
#52=VERTEX_POINT('',#188);
#53=VERTEX_POINT('',#193);
#54=VERTEX_POINT('',#195);
#55=VERTEX_POINT('',#200);
#56=VERTEX_POINT('',#205);
#57=VERTEX_POINT('',#208);
#58=CIRCLE('',#124,0.0127);
#59=CIRCLE('',#129,0.0032639);
#60=CIRCLE('',#130,0.0127);
#61=CIRCLE('',#134,0.0127);
#62=CIRCLE('',#138,0.0127);
#63=CIRCLE('',#140,0.0032639);
#64=EDGE_LOOP('',(#20));
#65=EDGE_LOOP('',(#21,#22));
#66=EDGE_LOOP('',(#23));
#67=EDGE_LOOP('',(#24));
#68=EDGE_LOOP('',(#25));
#69=EDGE_LOOP('',(#26));
#70=EDGE_LOOP('',(#27,#28));
#71=EDGE_LOOP('',(#29));
#72=EDGE_LOOP('',(#30));
#73=EDGE_LOOP('',(#31,#32));
#74=EDGE_LOOP('',(#33));
#75=EDGE_LOOP('',(#34,#35));
#76=EDGE_LOOP('',(#36));
#77=EDGE_LOOP('',(#37));
#78=EDGE_LOOP('',(#38));
#79=EDGE_LOOP('',(#39));
#80=FACE_BOUND('',#64,.T.);
#81=FACE_BOUND('',#65,.T.);
#82=FACE_BOUND('',#66,.T.);
#83=FACE_BOUND('',#67,.T.);
#84=FACE_BOUND('',#68,.T.);
#85=FACE_BOUND('',#69,.T.);
#86=FACE_BOUND('',#70,.T.);
#87=FACE_BOUND('',#71,.T.);
#88=FACE_BOUND('',#72,.T.);
#89=FACE_BOUND('',#73,.T.);
#90=FACE_BOUND('',#74,.T.);
#91=FACE_BOUND('',#75,.T.);
#92=FACE_BOUND('',#76,.T.);
#93=FACE_BOUND('',#77,.T.);
#94=FACE_BOUND('',#78,.T.);
#95=FACE_BOUND('',#79,.T.);
#96=CYLINDRICAL_SURFACE('',#123,0.0127);
#97=CYLINDRICAL_SURFACE('',#131,0.0127);
#98=CYLINDRICAL_SURFACE('',#135,0.0127);
#99=CYLINDRICAL_SURFACE('',#137,0.0127);
#100=CYLINDRICAL_SURFACE('',#141,0.0032639);
#101=ADVANCED_FACE('',(#80,#81),#96,.T.);
#102=ADVANCED_FACE('',(#82),#12,.T.);
#103=ADVANCED_FACE('',(#83,#84),#13,.F.);
#104=ADVANCED_FACE('',(#85,#86),#97,.T.);
#105=ADVANCED_FACE('',(#87),#14,.F.);
#106=ADVANCED_FACE('',(#88,#89),#98,.T.);
#107=ADVANCED_FACE('',(#90,#91),#99,.T.);
#108=ADVANCED_FACE('',(#92,#93),#15,.T.);
#109=ADVANCED_FACE('',(#94,#95),#100,.F.);
#110=CLOSED_SHELL('',(#101,#102,#103,#104,#105,#106,#107,#108,#109));
#111=STYLED_ITEM('',(#112),#119);
#112=PRESENTATION_STYLE_ASSIGNMENT((#113));
#113=SURFACE_STYLE_USAGE(.BOTH.,#114);
#114=SURFACE_SIDE_STYLE('',(#115));
#115=SURFACE_STYLE_FILL_AREA(#116);
#116=FILL_AREA_STYLE('',(#117));
#117=FILL_AREA_STYLE_COLOUR('',#118);
#118=COLOUR_RGB('',0.701960784313725,0.701960784313725,0.701960784313725);
#119=MANIFOLD_SOLID_BREP('Simulation Pole',#110);
#120=SHAPE_DEFINITION_REPRESENTATION(#216,#121);
#121=SHAPE_REPRESENTATION('Simulation Pole',(#122),#211);
#122=AXIS2_PLACEMENT_3D('',#182,#142,#143);
#123=AXIS2_PLACEMENT_3D('',#183,#144,#145);
#124=AXIS2_PLACEMENT_3D('',#184,#146,#147);
#125=AXIS2_PLACEMENT_3D('',#186,#148,#149);
#126=AXIS2_PLACEMENT_3D('',#189,#150,#151);
#127=AXIS2_PLACEMENT_3D('',#190,#152,#153);
#128=AXIS2_PLACEMENT_3D('',#191,#154,#155);
#129=AXIS2_PLACEMENT_3D('',#192,#156,#157);
#130=AXIS2_PLACEMENT_3D('',#194,#158,#159);
#131=AXIS2_PLACEMENT_3D('',#196,#160,#161);
#132=AXIS2_PLACEMENT_3D('',#197,#162,#163);
#133=AXIS2_PLACEMENT_3D('',#198,#164,#165);
#134=AXIS2_PLACEMENT_3D('',#199,#166,#167);
#135=AXIS2_PLACEMENT_3D('',#201,#168,#169);
#136=AXIS2_PLACEMENT_3D('',#202,#170,#171);
#137=AXIS2_PLACEMENT_3D('',#203,#172,#173);
#138=AXIS2_PLACEMENT_3D('',#204,#174,#175);
#139=AXIS2_PLACEMENT_3D('',#206,#176,#177);
#140=AXIS2_PLACEMENT_3D('',#207,#178,#179);
#141=AXIS2_PLACEMENT_3D('',#209,#180,#181);
#142=DIRECTION('',(0.,0.,1.));
#143=DIRECTION('',(1.,0.,0.));
#144=DIRECTION('',(0.,1.,0.));
#145=DIRECTION('',(0.,0.,1.));
#146=DIRECTION('',(0.,-1.,0.));
#147=DIRECTION('',(0.,0.,-1.));
#148=DIRECTION('',(-0.707106781186548,0.707106781186548,0.));
#149=DIRECTION('',(0.707106781186548,0.707106781186548,0.));
#150=DIRECTION('',(0.707106781186548,0.707106781186548,0.));
#151=DIRECTION('',(-0.707106781186548,0.707106781186548,0.));
#152=DIRECTION('',(0.,-1.,0.));
#153=DIRECTION('',(1.,0.,0.));
#154=DIRECTION('',(1.,0.,0.));
#155=DIRECTION('',(0.,1.,0.));
#156=DIRECTION('',(-1.,0.,0.));
#157=DIRECTION('',(0.,0.,1.));
#158=DIRECTION('',(1.,0.,0.));
#159=DIRECTION('',(0.,0.,-1.));
#160=DIRECTION('',(-1.,0.,0.));
#161=DIRECTION('',(0.,0.,1.));
#162=DIRECTION('',(0.707106781186548,0.707106781186548,0.));
#163=DIRECTION('',(-0.707106781186548,0.707106781186548,0.));
#164=DIRECTION('',(0.,-1.,0.));
#165=DIRECTION('',(1.,0.,0.));
#166=DIRECTION('',(0.,-1.,0.));
#167=DIRECTION('',(0.,0.,-1.));
#168=DIRECTION('',(0.,1.,0.));
#169=DIRECTION('',(0.,0.,1.));
#170=DIRECTION('',(-0.707106781186548,0.707106781186548,0.));
#171=DIRECTION('',(0.707106781186548,0.707106781186548,0.));
#172=DIRECTION('',(-1.,0.,0.));
#173=DIRECTION('',(0.,0.,1.));
#174=DIRECTION('',(1.,0.,0.));
#175=DIRECTION('',(0.,0.,-1.));
#176=DIRECTION('',(1.,0.,0.));
#177=DIRECTION('',(0.,1.,0.));
#178=DIRECTION('',(-1.,0.,0.));
#179=DIRECTION('',(0.,0.,1.));
#180=DIRECTION('',(-1.,0.,0.));
#181=DIRECTION('',(0.,0.,1.));
#182=CARTESIAN_POINT('',(0.,0.,0.));
#183=CARTESIAN_POINT('',(0.,-0.1524,7.77650717458569E-19));
#184=CARTESIAN_POINT('',(0.,-0.1524,7.77650717458569E-19));
#185=CARTESIAN_POINT('',(0.,-0.1524,-0.0127));
#186=CARTESIAN_POINT('',(1.7347234759768E-18,0.,7.77650717458569E-19));
#187=CARTESIAN_POINT('',(1.7347234759768E-18,0.,-0.0127));
#188=CARTESIAN_POINT('',(1.7347234759768E-18,0.,0.0127));
#189=CARTESIAN_POINT('',(1.7347234759768E-18,0.,7.77650717458569E-19));
#190=CARTESIAN_POINT('',(0.,-0.1524,0.));
#191=CARTESIAN_POINT('',(-0.01397,0.,0.));
#192=CARTESIAN_POINT('',(-0.01397,0.,7.77650717458569E-19));
#193=CARTESIAN_POINT('',(-0.01397,0.,0.0032639));
#194=CARTESIAN_POINT('',(-0.01397,0.,7.77650717458569E-19));
#195=CARTESIAN_POINT('',(-0.01397,0.,-0.0127));
#196=CARTESIAN_POINT('',(0.01397,0.,7.77650717458569E-19));
#197=CARTESIAN_POINT('',(1.7347234759768E-18,0.,7.77650717458569E-19));
#198=CARTESIAN_POINT('',(0.,0.1524,0.));
#199=CARTESIAN_POINT('',(0.,0.1524,7.77650717458569E-19));
#200=CARTESIAN_POINT('',(0.,0.1524,-0.0127));
#201=CARTESIAN_POINT('',(0.,-0.1524,7.77650717458569E-19));
#202=CARTESIAN_POINT('',(1.7347234759768E-18,0.,7.77650717458569E-19));
#203=CARTESIAN_POINT('',(0.01397,0.,7.77650717458569E-19));
#204=CARTESIAN_POINT('',(0.01397,0.,7.77650717458569E-19));
#205=CARTESIAN_POINT('',(0.01397,0.,-0.0127));
#206=CARTESIAN_POINT('',(0.01397,0.,0.));
#207=CARTESIAN_POINT('',(0.01397,0.,7.77650717458569E-19));
#208=CARTESIAN_POINT('',(0.01397,0.,0.0032639));
#209=CARTESIAN_POINT('',(0.01397,0.,7.77650717458569E-19));
#210=MECHANICAL_DESIGN_GEOMETRIC_PRESENTATION_REPRESENTATION('',(#111),
#211);
#211=(
GEOMETRIC_REPRESENTATION_CONTEXT(3)
GLOBAL_UNCERTAINTY_ASSIGNED_CONTEXT((#212))
GLOBAL_UNIT_ASSIGNED_CONTEXT((#215,#214,#213))
REPRESENTATION_CONTEXT('Simulation Pole','TOP_LEVEL_ASSEMBLY_PART')
);
#212=UNCERTAINTY_MEASURE_WITH_UNIT(LENGTH_MEASURE(1.E-8),#215,
'DISTANCE_ACCURACY_VALUE','Maximum Tolerance applied to model');
#213=(
NAMED_UNIT(*)
SI_UNIT($,.STERADIAN.)
SOLID_ANGLE_UNIT()
);
#214=(
NAMED_UNIT(*)
PLANE_ANGLE_UNIT()
SI_UNIT($,.RADIAN.)
);
#215=(
LENGTH_UNIT()
NAMED_UNIT(*)
SI_UNIT($,.METRE.)
);
#216=PRODUCT_DEFINITION_SHAPE('','',#217);
#217=PRODUCT_DEFINITION('','',#219,#218);
#218=PRODUCT_DEFINITION_CONTEXT('',#225,'design');
#219=PRODUCT_DEFINITION_FORMATION_WITH_SPECIFIED_SOURCE('','',#221,
 .NOT_KNOWN.);
#220=PRODUCT_RELATED_PRODUCT_CATEGORY('','',(#221));
#221=PRODUCT('Simulation Pole','Simulation Pole','Simulation Pole',(#223));
#222=PRODUCT_CATEGORY('','');
#223=PRODUCT_CONTEXT('',#225,'mechanical');
#224=APPLICATION_PROTOCOL_DEFINITION('international standard',
'ap242_managed_model_based_3d_engineering',2020,#225);
#225=APPLICATION_CONTEXT('managed model based 3d engineering');
ENDSEC;
END-ISO-10303-21;
