ISO-10303-21;
HEADER;
/* Generated by software containing ST-Developer
 * from STEP Tools, Inc. (www.steptools.com) 
 */
/* OPTION: using custom renumber hook */

FILE_DESCRIPTION(
/* description */ ('STEP AP242 Edition 2',
'CAx-IF Rec.Pracs.---Representation and Presentation of Product Manufa
cturing Information (PMI)---4.0---2014-10-13',
'CAx-IF Rec.Pracs.---3D Tessellated Geometry---0.4---2014-09-14','2;1',
'CAx-IF Rec.Pracs.---User Defined Attributes---1.5---2016-08-15'),
/* implementation_level */ '2;1');

FILE_NAME(
/* name */ 'Slot Piece Inner',
/* time_stamp */ '2026-08-06T20:20:43Z',
/* author */ (''),
/* organization */ (''),
/* preprocessor_version */ 'ST-DEVELOPER v20',
/* originating_system */ 'ONSHAPE BY PTC INC, 1.218',
/* authorisation */ '  ');

FILE_SCHEMA (('AP242_MANAGED_MODEL_BASED_3D_ENGINEERING_MIM_LF { 1 0 10303 442 3 1 4 }'));
ENDSEC;

DATA;
#10=SHAPE_REPRESENTATION_RELATIONSHIP('','',#199,#11);
#11=ADVANCED_BREP_SHAPE_REPRESENTATION('',(#197),#309);
#12=ORIENTED_EDGE('',*,*,#60,.F.);
#13=ORIENTED_EDGE('',*,*,#61,.F.);
#14=ORIENTED_EDGE('',*,*,#62,.T.);
#15=ORIENTED_EDGE('',*,*,#63,.T.);
#16=ORIENTED_EDGE('',*,*,#64,.T.);
#17=ORIENTED_EDGE('',*,*,#65,.T.);
#18=ORIENTED_EDGE('',*,*,#66,.F.);
#19=ORIENTED_EDGE('',*,*,#67,.F.);
#20=ORIENTED_EDGE('',*,*,#68,.F.);
#21=ORIENTED_EDGE('',*,*,#69,.F.);
#22=ORIENTED_EDGE('',*,*,#70,.T.);
#23=ORIENTED_EDGE('',*,*,#71,.T.);
#24=ORIENTED_EDGE('',*,*,#72,.F.);
#25=ORIENTED_EDGE('',*,*,#73,.T.);
#26=ORIENTED_EDGE('',*,*,#74,.T.);
#27=ORIENTED_EDGE('',*,*,#75,.F.);
#28=ORIENTED_EDGE('',*,*,#74,.F.);
#29=ORIENTED_EDGE('',*,*,#76,.T.);
#30=ORIENTED_EDGE('',*,*,#63,.F.);
#31=ORIENTED_EDGE('',*,*,#77,.T.);
#32=ORIENTED_EDGE('',*,*,#66,.T.);
#33=ORIENTED_EDGE('',*,*,#78,.T.);
#34=ORIENTED_EDGE('',*,*,#71,.F.);
#35=ORIENTED_EDGE('',*,*,#79,.T.);
#36=ORIENTED_EDGE('',*,*,#61,.T.);
#37=ORIENTED_EDGE('',*,*,#80,.T.);
#38=ORIENTED_EDGE('',*,*,#72,.T.);
#39=ORIENTED_EDGE('',*,*,#81,.F.);
#40=ORIENTED_EDGE('',*,*,#69,.T.);
#41=ORIENTED_EDGE('',*,*,#82,.T.);
#42=ORIENTED_EDGE('',*,*,#64,.F.);
#43=ORIENTED_EDGE('',*,*,#83,.F.);
#44=ORIENTED_EDGE('',*,*,#77,.F.);
#45=ORIENTED_EDGE('',*,*,#62,.F.);
#46=ORIENTED_EDGE('',*,*,#83,.T.);
#47=ORIENTED_EDGE('',*,*,#67,.T.);
#48=ORIENTED_EDGE('',*,*,#79,.F.);
#49=ORIENTED_EDGE('',*,*,#70,.F.);
#50=ORIENTED_EDGE('',*,*,#81,.T.);
#51=ORIENTED_EDGE('',*,*,#75,.T.);
#52=ORIENTED_EDGE('',*,*,#68,.T.);
#53=ORIENTED_EDGE('',*,*,#78,.F.);
#54=ORIENTED_EDGE('',*,*,#65,.F.);
#55=ORIENTED_EDGE('',*,*,#82,.F.);
#56=ORIENTED_EDGE('',*,*,#60,.T.);
#57=ORIENTED_EDGE('',*,*,#76,.F.);
#58=ORIENTED_EDGE('',*,*,#73,.F.);
#59=ORIENTED_EDGE('',*,*,#80,.F.);
#60=EDGE_CURVE('',#84,#85,#100,.T.);
#61=EDGE_CURVE('',#86,#84,#101,.T.);
#62=EDGE_CURVE('',#86,#87,#102,.T.);
#63=EDGE_CURVE('',#87,#85,#103,.T.);
#64=EDGE_CURVE('',#88,#89,#104,.T.);
#65=EDGE_CURVE('',#89,#90,#105,.T.);
#66=EDGE_CURVE('',#91,#90,#106,.T.);
#67=EDGE_CURVE('',#88,#91,#107,.T.);
#68=EDGE_CURVE('',#92,#93,#108,.T.);
#69=EDGE_CURVE('',#94,#92,#109,.T.);
#70=EDGE_CURVE('',#94,#95,#110,.T.);
#71=EDGE_CURVE('',#95,#93,#111,.T.);
#72=EDGE_CURVE('',#96,#97,#112,.T.);
#73=EDGE_CURVE('',#96,#98,#113,.T.);
#74=EDGE_CURVE('',#98,#99,#114,.T.);
#75=EDGE_CURVE('',#97,#99,#115,.T.);
#76=EDGE_CURVE('',#98,#85,#116,.T.);
#77=EDGE_CURVE('',#87,#91,#117,.T.);
#78=EDGE_CURVE('',#90,#93,#118,.T.);
#79=EDGE_CURVE('',#95,#99,#119,.T.);
#80=EDGE_CURVE('',#84,#96,#120,.T.);
#81=EDGE_CURVE('',#94,#97,#121,.T.);
#82=EDGE_CURVE('',#92,#89,#122,.T.);
#83=EDGE_CURVE('',#86,#88,#123,.T.);
#84=VERTEX_POINT('',#260);
#85=VERTEX_POINT('',#261);
#86=VERTEX_POINT('',#263);
#87=VERTEX_POINT('',#265);
#88=VERTEX_POINT('',#269);
#89=VERTEX_POINT('',#270);
#90=VERTEX_POINT('',#272);
#91=VERTEX_POINT('',#274);
#92=VERTEX_POINT('',#278);
#93=VERTEX_POINT('',#279);
#94=VERTEX_POINT('',#281);
#95=VERTEX_POINT('',#283);
#96=VERTEX_POINT('',#287);
#97=VERTEX_POINT('',#288);
#98=VERTEX_POINT('',#290);
#99=VERTEX_POINT('',#292);
#100=LINE('',#259,#124);
#101=LINE('',#262,#125);
#102=LINE('',#264,#126);
#103=LINE('',#266,#127);
#104=LINE('',#268,#128);
#105=LINE('',#271,#129);
#106=LINE('',#273,#130);
#107=LINE('',#275,#131);
#108=LINE('',#277,#132);
#109=LINE('',#280,#133);
#110=LINE('',#282,#134);
#111=LINE('',#284,#135);
#112=LINE('',#286,#136);
#113=LINE('',#289,#137);
#114=LINE('',#291,#138);
#115=LINE('',#293,#139);
#116=LINE('',#295,#140);
#117=LINE('',#296,#141);
#118=LINE('',#297,#142);
#119=LINE('',#298,#143);
#120=LINE('',#300,#144);
#121=LINE('',#301,#145);
#122=LINE('',#302,#146);
#123=LINE('',#303,#147);
#124=VECTOR('',#215,1.);
#125=VECTOR('',#216,1.);
#126=VECTOR('',#217,1.);
#127=VECTOR('',#218,1.);
#128=VECTOR('',#221,1.);
#129=VECTOR('',#222,1.);
#130=VECTOR('',#223,1.);
#131=VECTOR('',#224,1.);
#132=VECTOR('',#227,1.);
#133=VECTOR('',#228,1.);
#134=VECTOR('',#229,1.);
#135=VECTOR('',#230,1.);
#136=VECTOR('',#233,1.);
#137=VECTOR('',#234,1.);
#138=VECTOR('',#235,1.);
#139=VECTOR('',#236,1.);
#140=VECTOR('',#239,1.);
#141=VECTOR('',#240,1.);
#142=VECTOR('',#241,1.);
#143=VECTOR('',#242,1.);
#144=VECTOR('',#245,1.);
#145=VECTOR('',#246,1.);
#146=VECTOR('',#247,1.);
#147=VECTOR('',#248,1.);
#148=EDGE_LOOP('',(#12,#13,#14,#15));
#149=EDGE_LOOP('',(#16,#17,#18,#19));
#150=EDGE_LOOP('',(#20,#21,#22,#23));
#151=EDGE_LOOP('',(#24,#25,#26,#27));
#152=EDGE_LOOP('',(#28,#29,#30,#31,#32,#33,#34,#35));
#153=EDGE_LOOP('',(#36,#37,#38,#39,#40,#41,#42,#43));
#154=EDGE_LOOP('',(#44,#45,#46,#47));
#155=EDGE_LOOP('',(#48,#49,#50,#51));
#156=EDGE_LOOP('',(#52,#53,#54,#55));
#157=EDGE_LOOP('',(#56,#57,#58,#59));
#158=FACE_BOUND('',#148,.T.);
#159=FACE_BOUND('',#149,.T.);
#160=FACE_BOUND('',#150,.T.);
#161=FACE_BOUND('',#151,.T.);
#162=FACE_BOUND('',#152,.T.);
#163=FACE_BOUND('',#153,.T.);
#164=FACE_BOUND('',#154,.T.);
#165=FACE_BOUND('',#155,.T.);
#166=FACE_BOUND('',#156,.T.);
#167=FACE_BOUND('',#157,.T.);
#168=PLANE('',#201);
#169=PLANE('',#202);
#170=PLANE('',#203);
#171=PLANE('',#204);
#172=PLANE('',#205);
#173=PLANE('',#206);
#174=PLANE('',#207);
#175=PLANE('',#208);
#176=PLANE('',#209);
#177=PLANE('',#210);
#178=ADVANCED_FACE('',(#158),#168,.F.);
#179=ADVANCED_FACE('',(#159),#169,.T.);
#180=ADVANCED_FACE('',(#160),#170,.F.);
#181=ADVANCED_FACE('',(#161),#171,.F.);
#182=ADVANCED_FACE('',(#162),#172,.T.);
#183=ADVANCED_FACE('',(#163),#173,.F.);
#184=ADVANCED_FACE('',(#164),#174,.T.);
#185=ADVANCED_FACE('',(#165),#175,.T.);
#186=ADVANCED_FACE('',(#166),#176,.T.);
#187=ADVANCED_FACE('',(#167),#177,.T.);
#188=CLOSED_SHELL('',(#178,#179,#180,#181,#182,#183,#184,#185,#186,#187));
#189=STYLED_ITEM('',(#190),#197);
#190=PRESENTATION_STYLE_ASSIGNMENT((#191));
#191=SURFACE_STYLE_USAGE(.BOTH.,#192);
#192=SURFACE_SIDE_STYLE('',(#193));
#193=SURFACE_STYLE_FILL_AREA(#194);
#194=FILL_AREA_STYLE('',(#195));
#195=FILL_AREA_STYLE_COLOUR('',#196);
#196=COLOUR_RGB('',0.756862745098039,0.462745098039216,0.109803921568627);
#197=MANIFOLD_SOLID_BREP('Slot Piece inner',#188);
#198=SHAPE_DEFINITION_REPRESENTATION(#314,#199);
#199=SHAPE_REPRESENTATION('Slot Piece inner',(#200),#309);
#200=AXIS2_PLACEMENT_3D('',#257,#211,#212);
#201=AXIS2_PLACEMENT_3D('',#258,#213,#214);
#202=AXIS2_PLACEMENT_3D('',#267,#219,#220);
#203=AXIS2_PLACEMENT_3D('',#276,#225,#226);
#204=AXIS2_PLACEMENT_3D('',#285,#231,#232);
#205=AXIS2_PLACEMENT_3D('',#294,#237,#238);
#206=AXIS2_PLACEMENT_3D('',#299,#243,#244);
#207=AXIS2_PLACEMENT_3D('',#304,#249,#250);
#208=AXIS2_PLACEMENT_3D('',#305,#251,#252);
#209=AXIS2_PLACEMENT_3D('',#306,#253,#254);
#210=AXIS2_PLACEMENT_3D('',#307,#255,#256);
#211=DIRECTION('',(0.,0.,1.));
#212=DIRECTION('',(1.,0.,0.));
#213=DIRECTION('',(0.,-1.,0.));
#214=DIRECTION('',(0.,0.,-1.));
#215=DIRECTION('',(0.997054485501582,0.,-0.0766964988847371));
#216=DIRECTION('',(0.650791373455969,0.,-0.759256602365297));
#217=DIRECTION('',(0.759256602365297,0.,0.650791373455969));
#218=DIRECTION('',(0.650791373455969,0.,-0.759256602365297));
#219=DIRECTION('',(0.,-1.,0.));
#220=DIRECTION('',(0.,0.,-1.));
#221=DIRECTION('',(0.650791373455969,0.,-0.759256602365297));
#222=DIRECTION('',(0.997054485501582,0.,-0.0766964988847371));
#223=DIRECTION('',(0.650791373455969,0.,-0.759256602365297));
#224=DIRECTION('',(0.759256602365297,0.,0.650791373455969));
#225=DIRECTION('',(0.,-1.,0.));
#226=DIRECTION('',(0.,0.,-1.));
#227=DIRECTION('',(0.997054485501582,0.,-0.0766964988847371));
#228=DIRECTION('',(0.650791373455969,0.,-0.759256602365297));
#229=DIRECTION('',(0.759256602365297,0.,0.650791373455969));
#230=DIRECTION('',(0.650791373455969,0.,-0.759256602365297));
#231=DIRECTION('',(0.,1.,0.));
#232=DIRECTION('',(0.,0.,1.));
#233=DIRECTION('',(-0.650791373455969,0.,0.759256602365297));
#234=DIRECTION('',(0.997054485501582,0.,-0.0766964988847371));
#235=DIRECTION('',(-0.650791373455969,0.,0.759256602365297));
#236=DIRECTION('',(0.759256602365297,0.,0.650791373455969));
#237=DIRECTION('',(0.759256602365297,0.,0.650791373455969));
#238=DIRECTION('',(0.,1.,0.));
#239=DIRECTION('',(0.,1.,0.));
#240=DIRECTION('',(2.06610352462003E-17,1.,-2.4104541120567E-17));
#241=DIRECTION('',(0.,1.,0.));
#242=DIRECTION('',(0.,-1.,0.));
#243=DIRECTION('',(0.759256602365297,0.,0.650791373455969));
#244=DIRECTION('',(0.,1.,0.));
#245=DIRECTION('',(0.,-1.,0.));
#246=DIRECTION('',(0.,-1.,0.));
#247=DIRECTION('',(0.,-1.,0.));
#248=DIRECTION('',(2.06610352462003E-17,1.,-2.4104541120567E-17));
#249=DIRECTION('',(0.650791373455969,-3.17475554976731E-17,-0.759256602365297));
#250=DIRECTION('',(-0.759256602365297,0.,-0.650791373455969));
#251=DIRECTION('',(-0.650791373455969,0.,0.759256602365297));
#252=DIRECTION('',(0.759256602365297,0.,0.650791373455969));
#253=DIRECTION('',(-0.0766964988847371,0.,-0.997054485501582));
#254=DIRECTION('',(-0.997054485501582,0.,0.0766964988847371));
#255=DIRECTION('',(-0.0766964988847371,0.,-0.997054485501582));
#256=DIRECTION('',(-0.997054485501582,0.,0.0766964988847371));
#257=CARTESIAN_POINT('',(0.,0.,0.));
#258=CARTESIAN_POINT('',(0.0788557090383474,-0.1778,0.114144321571293));
#259=CARTESIAN_POINT('',(-0.0477756392361857,-0.1778,0.0348770821885711));
#260=CARTESIAN_POINT('',(0.160533741526577,-0.1778,0.0188532836683587));
#261=CARTESIAN_POINT('',(0.169487546173042,-0.1778,0.0181645294647844));
#262=CARTESIAN_POINT('',(0.0788557090383474,-0.1778,0.114144321571293));
#263=CARTESIAN_POINT('',(-0.0234849495571091,-0.1778,0.233541756599325));
#264=CARTESIAN_POINT('',(-0.0234849495571091,-0.1778,0.233541756599325));
#265=CARTESIAN_POINT('',(-0.0186636701320895,-0.1778,0.237674281820771));
#266=CARTESIAN_POINT('',(0.0836769884633671,-0.1778,0.118276846792738));
#267=CARTESIAN_POINT('',(0.0788557090383474,0.1778,0.114144321571293));
#268=CARTESIAN_POINT('',(0.0788557090383474,0.1778,0.114144321571293));
#269=CARTESIAN_POINT('',(-0.0234849495571091,0.1778,0.233541756599325));
#270=CARTESIAN_POINT('',(0.160533741526577,0.1778,0.0188532836683587));
#271=CARTESIAN_POINT('',(-0.0477756392361857,0.1778,0.0348770821885711));
#272=CARTESIAN_POINT('',(0.169487546173042,0.1778,0.0181645294647844));
#273=CARTESIAN_POINT('',(0.0836769884633671,0.1778,0.118276846792738));
#274=CARTESIAN_POINT('',(-0.0186636701320895,0.1778,0.237674281820771));
#275=CARTESIAN_POINT('',(-0.0234849495571091,0.1778,0.233541756599325));
#276=CARTESIAN_POINT('',(0.0769643602874902,0.1905,0.11635089511396));
#277=CARTESIAN_POINT('',(-0.0477756392361856,0.1905,0.0348770821885711));
#278=CARTESIAN_POINT('',(0.160533741526577,0.1905,0.0188532836683586));
#279=CARTESIAN_POINT('',(0.169487546173042,0.1905,0.0181645294647843));
#280=CARTESIAN_POINT('',(0.0769643602874902,0.1905,0.11635089511396));
#281=CARTESIAN_POINT('',(-0.03175,0.1905,0.243184315449365));
#282=CARTESIAN_POINT('',(-0.03175,0.1905,0.243184315449365));
#283=CARTESIAN_POINT('',(-0.0269287205749803,0.1905,0.247316840670811));
#284=CARTESIAN_POINT('',(0.0817856397125098,0.1905,0.120483420335405));
#285=CARTESIAN_POINT('',(0.074723183816902,-0.1905,0.118965600996313));
#286=CARTESIAN_POINT('',(0.074723183816902,-0.1905,0.118965600996313));
#287=CARTESIAN_POINT('',(0.160533741526577,-0.1905,0.0188532836683586));
#288=CARTESIAN_POINT('',(-0.03175,-0.1905,0.243184315449365));
#289=CARTESIAN_POINT('',(-0.0477756392361857,-0.1905,0.0348770821885711));
#290=CARTESIAN_POINT('',(0.169487546173042,-0.1905,0.0181645294647844));
#291=CARTESIAN_POINT('',(0.0795444632419217,-0.1905,0.123098126217758));
#292=CARTESIAN_POINT('',(-0.0269287205749803,-0.1905,0.247316840670811));
#293=CARTESIAN_POINT('',(-0.03175,-0.1905,0.243184315449365));
#294=CARTESIAN_POINT('',(0.0804409338301569,0.,0.122052243864817));
#295=CARTESIAN_POINT('',(0.169487546173042,0.327912949987662,0.0181645294647844));
#296=CARTESIAN_POINT('',(-0.0186636701320895,2.77555756156289E-17,0.237674281820771));
#297=CARTESIAN_POINT('',(0.169487546173042,0.327912949987662,0.0181645294647844));
#298=CARTESIAN_POINT('',(-0.0269287205749802,-0.18415,0.247316840670811));
#299=CARTESIAN_POINT('',(0.0756196544051373,0.,0.117919718643372));
#300=CARTESIAN_POINT('',(0.160533741526577,0.327912949987662,0.0188532836683587));
#301=CARTESIAN_POINT('',(-0.03175,-0.18415,0.243184315449365));
#302=CARTESIAN_POINT('',(0.160533741526577,0.327912949987662,0.0188532836683587));
#303=CARTESIAN_POINT('',(-0.0234849495571091,2.77555756156289E-17,0.233541756599325));
#304=CARTESIAN_POINT('',(-0.0234849495571091,2.77555756156289E-17,0.233541756599325));
#305=CARTESIAN_POINT('',(-0.03175,-0.18415,0.243184315449365));
#306=CARTESIAN_POINT('',(-0.0477756392361857,0.327912949987662,0.0348770821885711));
#307=CARTESIAN_POINT('',(-0.0477756392361857,0.327912949987662,0.0348770821885711));
#308=MECHANICAL_DESIGN_GEOMETRIC_PRESENTATION_REPRESENTATION('',(#189),
#309);
#309=(
GEOMETRIC_REPRESENTATION_CONTEXT(3)
GLOBAL_UNCERTAINTY_ASSIGNED_CONTEXT((#310))
GLOBAL_UNIT_ASSIGNED_CONTEXT((#313,#312,#311))
REPRESENTATION_CONTEXT('Slot Piece inner','TOP_LEVEL_ASSEMBLY_PART')
);
#310=UNCERTAINTY_MEASURE_WITH_UNIT(LENGTH_MEASURE(1.E-8),#313,
'DISTANCE_ACCURACY_VALUE','Maximum Tolerance applied to model');
#311=(
NAMED_UNIT(*)
SI_UNIT($,.STERADIAN.)
SOLID_ANGLE_UNIT()
);
#312=(
NAMED_UNIT(*)
PLANE_ANGLE_UNIT()
SI_UNIT($,.RADIAN.)
);
#313=(
LENGTH_UNIT()
NAMED_UNIT(*)
SI_UNIT($,.METRE.)
);
#314=PRODUCT_DEFINITION_SHAPE('','',#315);
#315=PRODUCT_DEFINITION('','',#317,#316);
#316=PRODUCT_DEFINITION_CONTEXT('',#323,'design');
#317=PRODUCT_DEFINITION_FORMATION_WITH_SPECIFIED_SOURCE('','',#319,
 .NOT_KNOWN.);
#318=PRODUCT_RELATED_PRODUCT_CATEGORY('','',(#319));
#319=PRODUCT('Slot Piece inner','Slot Piece inner','Slot Piece inner',(#321));
#320=PRODUCT_CATEGORY('','');
#321=PRODUCT_CONTEXT('',#323,'mechanical');
#322=APPLICATION_PROTOCOL_DEFINITION('international standard',
'ap242_managed_model_based_3d_engineering',2020,#323);
#323=APPLICATION_CONTEXT('managed model based 3d engineering');
ENDSEC;
END-ISO-10303-21;
