ISO-10303-21;
HEADER;
/* Generated by software containing ST-Developer
 * from STEP Tools, Inc. (www.steptools.com) 
 */
/* OPTION: using custom renumber hook */

FILE_DESCRIPTION(
/* description */ ('STEP AP242 Edition 2',
'CAx-IF Rec.Pracs.---Representation and Presentation of Product Manufa
cturing Information (PMI)---4.0---2014-10-13',
'CAx-IF Rec.Pracs.---3D Tessellated Geometry---0.4---2014-09-14','2;1',
'CAx-IF Rec.Pracs.---User Defined Attributes---1.5---2016-08-15'),
/* implementation_level */ '2;1');

FILE_NAME(
/* name */ 'Spring Solution',
/* time_stamp */ '2026-08-06T17:43:26Z',
/* author */ (''),
/* organization */ (''),
/* preprocessor_version */ 'ST-DEVELOPER v20',
/* originating_system */ 'ONSHAPE BY PTC INC, 1.218',
/* authorisation */ '  ');

FILE_SCHEMA (('AP242_MANAGED_MODEL_BASED_3D_ENGINEERING_MIM_LF { 1 0 10303 442 3 1 4 }'));
ENDSEC;

DATA;
#10=SHAPE_REPRESENTATION_RELATIONSHIP('','',#997,#13);
#11=SHAPE_REPRESENTATION_RELATIONSHIP('','',#998,#14);
#12=SHAPE_REPRESENTATION_RELATIONSHIP('','',#999,#15);
#13=ADVANCED_BREP_SHAPE_REPRESENTATION('',(#991),#1695);
#14=ADVANCED_BREP_SHAPE_REPRESENTATION('',(#992),#1696);
#15=ADVANCED_BREP_SHAPE_REPRESENTATION('',(#993),#1697);
#16=ELLIPSE('',#1019,0.00898025612106915,0.00635);
#17=ELLIPSE('',#1020,0.00898025612106916,0.00635);
#18=ELLIPSE('',#1022,0.00898025612106915,0.00635);
#19=ELLIPSE('',#1024,0.00898025612106916,0.00635);
#20=ELLIPSE('',#1080,0.00898025612106916,0.00635);
#21=ELLIPSE('',#1082,0.00898025612106915,0.00635);
#22=CYLINDRICAL_SURFACE('',#1006,0.00381);
#23=CYLINDRICAL_SURFACE('',#1009,0.00381);
#24=CYLINDRICAL_SURFACE('',#1011,0.00381);
#25=CYLINDRICAL_SURFACE('',#1013,0.00381);
#26=CYLINDRICAL_SURFACE('',#1018,0.00635);
#27=CYLINDRICAL_SURFACE('',#1021,0.00635);
#28=CYLINDRICAL_SURFACE('',#1023,0.00635);
#29=CYLINDRICAL_SURFACE('',#1025,0.00635);
#30=CYLINDRICAL_SURFACE('',#1043,0.00192917088188678);
#31=CYLINDRICAL_SURFACE('',#1044,0.00762);
#32=CYLINDRICAL_SURFACE('',#1045,0.01143);
#33=CYLINDRICAL_SURFACE('',#1046,0.01143);
#34=CYLINDRICAL_SURFACE('',#1047,0.00762);
#35=CYLINDRICAL_SURFACE('',#1049,0.00227133635355375);
#36=CYLINDRICAL_SURFACE('',#1055,0.00381);
#37=CYLINDRICAL_SURFACE('',#1058,0.00381);
#38=CYLINDRICAL_SURFACE('',#1061,0.00381);
#39=CYLINDRICAL_SURFACE('',#1064,0.00381);
#40=CYLINDRICAL_SURFACE('',#1079,0.00635);
#41=CYLINDRICAL_SURFACE('',#1081,0.00635);
#42=CYLINDRICAL_SURFACE('',#1083,0.00635);
#43=CYLINDRICAL_SURFACE('',#1084,0.00381);
#44=CYLINDRICAL_SURFACE('',#1087,0.00381);
#45=CYLINDRICAL_SURFACE('',#1090,0.00381);
#46=CYLINDRICAL_SURFACE('',#1093,0.00381);
#47=CYLINDRICAL_SURFACE('',#1096,0.00381);
#48=CYLINDRICAL_SURFACE('',#1099,0.00381);
#49=CYLINDRICAL_SURFACE('',#1102,0.00381);
#50=CYLINDRICAL_SURFACE('',#1105,0.00381);
#51=CYLINDRICAL_SURFACE('',#1108,0.00381);
#52=CYLINDRICAL_SURFACE('',#1111,0.00381);
#53=CIRCLE('',#1004,0.00381);
#54=CIRCLE('',#1005,0.00381);
#55=CIRCLE('',#1007,0.00381);
#56=CIRCLE('',#1008,0.00381);
#57=CIRCLE('',#1010,0.00381);
#58=CIRCLE('',#1012,0.00381);
#59=CIRCLE('',#1014,0.00381);
#60=CIRCLE('',#1015,0.00381);
#61=CIRCLE('',#1027,0.01143);
#62=CIRCLE('',#1028,0.00192917088188678);
#63=CIRCLE('',#1029,0.00762);
#64=CIRCLE('',#1030,0.00762);
#65=CIRCLE('',#1031,0.00227133635355375);
#66=CIRCLE('',#1032,0.01143);
#67=CIRCLE('',#1035,0.01143);
#68=CIRCLE('',#1036,0.00227133635355375);
#69=CIRCLE('',#1037,0.00762);
#70=CIRCLE('',#1038,0.00762);
#71=CIRCLE('',#1039,0.00192917088188678);
#72=CIRCLE('',#1040,0.01143);
#73=CIRCLE('',#1053,0.00635);
#74=CIRCLE('',#1054,0.00635);
#75=CIRCLE('',#1056,0.00381);
#76=CIRCLE('',#1057,0.00381);
#77=CIRCLE('',#1059,0.00381);
#78=CIRCLE('',#1060,0.00381);
#79=CIRCLE('',#1062,0.00381);
#80=CIRCLE('',#1063,0.00381);
#81=CIRCLE('',#1065,0.00381);
#82=CIRCLE('',#1066,0.00381);
#83=CIRCLE('',#1068,0.00381);
#84=CIRCLE('',#1069,0.00381);
#85=CIRCLE('',#1070,0.00381);
#86=CIRCLE('',#1071,0.00381);
#87=CIRCLE('',#1072,0.00381);
#88=CIRCLE('',#1073,0.00381);
#89=CIRCLE('',#1074,0.00381);
#90=CIRCLE('',#1075,0.00381);
#91=CIRCLE('',#1076,0.00381);
#92=CIRCLE('',#1077,0.00381);
#93=CIRCLE('',#1085,0.00381);
#94=CIRCLE('',#1088,0.00381);
#95=CIRCLE('',#1091,0.00381);
#96=CIRCLE('',#1094,0.00381);
#97=CIRCLE('',#1097,0.00381);
#98=CIRCLE('',#1100,0.00381);
#99=CIRCLE('',#1103,0.00381);
#100=CIRCLE('',#1106,0.00381);
#101=CIRCLE('',#1109,0.00381);
#102=CIRCLE('',#1112,0.00381);
#103=ORIENTED_EDGE('',*,*,#335,.T.);
#104=ORIENTED_EDGE('',*,*,#336,.T.);
#105=ORIENTED_EDGE('',*,*,#337,.F.);
#106=ORIENTED_EDGE('',*,*,#338,.T.);
#107=ORIENTED_EDGE('',*,*,#339,.F.);
#108=ORIENTED_EDGE('',*,*,#340,.T.);
#109=ORIENTED_EDGE('',*,*,#341,.T.);
#110=ORIENTED_EDGE('',*,*,#342,.F.);
#111=ORIENTED_EDGE('',*,*,#343,.F.);
#112=ORIENTED_EDGE('',*,*,#344,.F.);
#113=ORIENTED_EDGE('',*,*,#345,.T.);
#114=ORIENTED_EDGE('',*,*,#346,.T.);
#115=ORIENTED_EDGE('',*,*,#347,.T.);
#116=ORIENTED_EDGE('',*,*,#348,.T.);
#117=ORIENTED_EDGE('',*,*,#349,.F.);
#118=ORIENTED_EDGE('',*,*,#350,.T.);
#119=ORIENTED_EDGE('',*,*,#343,.T.);
#120=ORIENTED_EDGE('',*,*,#351,.F.);
#121=ORIENTED_EDGE('',*,*,#344,.T.);
#122=ORIENTED_EDGE('',*,*,#352,.F.);
#123=ORIENTED_EDGE('',*,*,#353,.F.);
#124=ORIENTED_EDGE('',*,*,#354,.T.);
#125=ORIENTED_EDGE('',*,*,#355,.F.);
#126=ORIENTED_EDGE('',*,*,#356,.T.);
#127=ORIENTED_EDGE('',*,*,#357,.T.);
#128=ORIENTED_EDGE('',*,*,#358,.T.);
#129=ORIENTED_EDGE('',*,*,#349,.T.);
#130=ORIENTED_EDGE('',*,*,#353,.T.);
#131=ORIENTED_EDGE('',*,*,#359,.T.);
#132=ORIENTED_EDGE('',*,*,#360,.T.);
#133=ORIENTED_EDGE('',*,*,#361,.F.);
#134=ORIENTED_EDGE('',*,*,#362,.F.);
#135=ORIENTED_EDGE('',*,*,#352,.T.);
#136=ORIENTED_EDGE('',*,*,#351,.T.);
#137=ORIENTED_EDGE('',*,*,#350,.F.);
#138=ORIENTED_EDGE('',*,*,#354,.F.);
#139=ORIENTED_EDGE('',*,*,#363,.F.);
#140=ORIENTED_EDGE('',*,*,#357,.F.);
#141=ORIENTED_EDGE('',*,*,#364,.F.);
#142=ORIENTED_EDGE('',*,*,#361,.T.);
#143=ORIENTED_EDGE('',*,*,#364,.T.);
#144=ORIENTED_EDGE('',*,*,#356,.F.);
#145=ORIENTED_EDGE('',*,*,#365,.F.);
#146=ORIENTED_EDGE('',*,*,#345,.F.);
#147=ORIENTED_EDGE('',*,*,#366,.F.);
#148=ORIENTED_EDGE('',*,*,#362,.T.);
#149=ORIENTED_EDGE('',*,*,#363,.T.);
#150=ORIENTED_EDGE('',*,*,#360,.F.);
#151=ORIENTED_EDGE('',*,*,#367,.F.);
#152=ORIENTED_EDGE('',*,*,#347,.F.);
#153=ORIENTED_EDGE('',*,*,#368,.F.);
#154=ORIENTED_EDGE('',*,*,#358,.F.);
#155=ORIENTED_EDGE('',*,*,#366,.T.);
#156=ORIENTED_EDGE('',*,*,#348,.F.);
#157=ORIENTED_EDGE('',*,*,#367,.T.);
#158=ORIENTED_EDGE('',*,*,#359,.F.);
#159=ORIENTED_EDGE('',*,*,#369,.T.);
#160=ORIENTED_EDGE('',*,*,#370,.T.);
#161=ORIENTED_EDGE('',*,*,#371,.T.);
#162=ORIENTED_EDGE('',*,*,#372,.F.);
#163=ORIENTED_EDGE('',*,*,#337,.T.);
#164=ORIENTED_EDGE('',*,*,#373,.F.);
#165=ORIENTED_EDGE('',*,*,#374,.F.);
#166=ORIENTED_EDGE('',*,*,#375,.F.);
#167=ORIENTED_EDGE('',*,*,#376,.T.);
#168=ORIENTED_EDGE('',*,*,#377,.T.);
#169=ORIENTED_EDGE('',*,*,#342,.T.);
#170=ORIENTED_EDGE('',*,*,#378,.T.);
#171=ORIENTED_EDGE('',*,*,#346,.F.);
#172=ORIENTED_EDGE('',*,*,#379,.F.);
#173=ORIENTED_EDGE('',*,*,#365,.T.);
#174=ORIENTED_EDGE('',*,*,#380,.F.);
#175=ORIENTED_EDGE('',*,*,#381,.F.);
#176=ORIENTED_EDGE('',*,*,#379,.T.);
#177=ORIENTED_EDGE('',*,*,#355,.T.);
#178=ORIENTED_EDGE('',*,*,#382,.F.);
#179=ORIENTED_EDGE('',*,*,#340,.F.);
#180=ORIENTED_EDGE('',*,*,#383,.F.);
#181=ORIENTED_EDGE('',*,*,#384,.F.);
#182=ORIENTED_EDGE('',*,*,#385,.T.);
#183=ORIENTED_EDGE('',*,*,#386,.T.);
#184=ORIENTED_EDGE('',*,*,#387,.T.);
#185=ORIENTED_EDGE('',*,*,#335,.F.);
#186=ORIENTED_EDGE('',*,*,#388,.T.);
#187=ORIENTED_EDGE('',*,*,#389,.F.);
#188=ORIENTED_EDGE('',*,*,#390,.F.);
#189=ORIENTED_EDGE('',*,*,#391,.F.);
#190=ORIENTED_EDGE('',*,*,#380,.T.);
#191=ORIENTED_EDGE('',*,*,#368,.T.);
#192=ORIENTED_EDGE('',*,*,#378,.F.);
#193=ORIENTED_EDGE('',*,*,#341,.F.);
#194=ORIENTED_EDGE('',*,*,#382,.T.);
#195=ORIENTED_EDGE('',*,*,#392,.F.);
#196=ORIENTED_EDGE('',*,*,#369,.F.);
#197=ORIENTED_EDGE('',*,*,#381,.T.);
#198=ORIENTED_EDGE('',*,*,#391,.T.);
#199=ORIENTED_EDGE('',*,*,#371,.F.);
#200=ORIENTED_EDGE('',*,*,#393,.F.);
#201=ORIENTED_EDGE('',*,*,#389,.T.);
#202=ORIENTED_EDGE('',*,*,#394,.T.);
#203=ORIENTED_EDGE('',*,*,#338,.F.);
#204=ORIENTED_EDGE('',*,*,#372,.T.);
#205=ORIENTED_EDGE('',*,*,#394,.F.);
#206=ORIENTED_EDGE('',*,*,#388,.F.);
#207=ORIENTED_EDGE('',*,*,#370,.F.);
#208=ORIENTED_EDGE('',*,*,#392,.T.);
#209=ORIENTED_EDGE('',*,*,#390,.T.);
#210=ORIENTED_EDGE('',*,*,#393,.T.);
#211=ORIENTED_EDGE('',*,*,#383,.T.);
#212=ORIENTED_EDGE('',*,*,#339,.T.);
#213=ORIENTED_EDGE('',*,*,#377,.F.);
#214=ORIENTED_EDGE('',*,*,#395,.F.);
#215=ORIENTED_EDGE('',*,*,#336,.F.);
#216=ORIENTED_EDGE('',*,*,#387,.F.);
#217=ORIENTED_EDGE('',*,*,#396,.T.);
#218=ORIENTED_EDGE('',*,*,#373,.T.);
#219=ORIENTED_EDGE('',*,*,#375,.T.);
#220=ORIENTED_EDGE('',*,*,#397,.F.);
#221=ORIENTED_EDGE('',*,*,#385,.F.);
#222=ORIENTED_EDGE('',*,*,#398,.T.);
#223=ORIENTED_EDGE('',*,*,#376,.F.);
#224=ORIENTED_EDGE('',*,*,#398,.F.);
#225=ORIENTED_EDGE('',*,*,#384,.T.);
#226=ORIENTED_EDGE('',*,*,#395,.T.);
#227=ORIENTED_EDGE('',*,*,#374,.T.);
#228=ORIENTED_EDGE('',*,*,#396,.F.);
#229=ORIENTED_EDGE('',*,*,#386,.F.);
#230=ORIENTED_EDGE('',*,*,#397,.T.);
#231=ORIENTED_EDGE('',*,*,#399,.T.);
#232=ORIENTED_EDGE('',*,*,#400,.T.);
#233=ORIENTED_EDGE('',*,*,#401,.F.);
#234=ORIENTED_EDGE('',*,*,#402,.T.);
#235=ORIENTED_EDGE('',*,*,#403,.F.);
#236=ORIENTED_EDGE('',*,*,#404,.T.);
#237=ORIENTED_EDGE('',*,*,#405,.T.);
#238=ORIENTED_EDGE('',*,*,#406,.F.);
#239=ORIENTED_EDGE('',*,*,#407,.T.);
#240=ORIENTED_EDGE('',*,*,#408,.F.);
#241=ORIENTED_EDGE('',*,*,#409,.F.);
#242=ORIENTED_EDGE('',*,*,#410,.T.);
#243=ORIENTED_EDGE('',*,*,#411,.F.);
#244=ORIENTED_EDGE('',*,*,#412,.F.);
#245=ORIENTED_EDGE('',*,*,#413,.F.);
#246=ORIENTED_EDGE('',*,*,#414,.F.);
#247=ORIENTED_EDGE('',*,*,#415,.F.);
#248=ORIENTED_EDGE('',*,*,#416,.F.);
#249=ORIENTED_EDGE('',*,*,#417,.F.);
#250=ORIENTED_EDGE('',*,*,#418,.F.);
#251=ORIENTED_EDGE('',*,*,#419,.F.);
#252=ORIENTED_EDGE('',*,*,#420,.F.);
#253=ORIENTED_EDGE('',*,*,#421,.T.);
#254=ORIENTED_EDGE('',*,*,#422,.T.);
#255=ORIENTED_EDGE('',*,*,#399,.F.);
#256=ORIENTED_EDGE('',*,*,#423,.T.);
#257=ORIENTED_EDGE('',*,*,#407,.F.);
#258=ORIENTED_EDGE('',*,*,#405,.F.);
#259=ORIENTED_EDGE('',*,*,#403,.T.);
#260=ORIENTED_EDGE('',*,*,#409,.T.);
#261=ORIENTED_EDGE('',*,*,#401,.T.);
#262=ORIENTED_EDGE('',*,*,#424,.T.);
#263=ORIENTED_EDGE('',*,*,#425,.F.);
#264=ORIENTED_EDGE('',*,*,#426,.F.);
#265=ORIENTED_EDGE('',*,*,#408,.T.);
#266=ORIENTED_EDGE('',*,*,#406,.T.);
#267=ORIENTED_EDGE('',*,*,#404,.F.);
#268=ORIENTED_EDGE('',*,*,#410,.F.);
#269=ORIENTED_EDGE('',*,*,#402,.F.);
#270=ORIENTED_EDGE('',*,*,#426,.T.);
#271=ORIENTED_EDGE('',*,*,#427,.F.);
#272=ORIENTED_EDGE('',*,*,#423,.F.);
#273=ORIENTED_EDGE('',*,*,#427,.T.);
#274=ORIENTED_EDGE('',*,*,#425,.T.);
#275=ORIENTED_EDGE('',*,*,#428,.F.);
#276=ORIENTED_EDGE('',*,*,#421,.F.);
#277=ORIENTED_EDGE('',*,*,#400,.F.);
#278=ORIENTED_EDGE('',*,*,#422,.F.);
#279=ORIENTED_EDGE('',*,*,#428,.T.);
#280=ORIENTED_EDGE('',*,*,#424,.F.);
#281=ORIENTED_EDGE('',*,*,#429,.F.);
#282=ORIENTED_EDGE('',*,*,#420,.T.);
#283=ORIENTED_EDGE('',*,*,#429,.T.);
#284=ORIENTED_EDGE('',*,*,#430,.F.);
#285=ORIENTED_EDGE('',*,*,#419,.T.);
#286=ORIENTED_EDGE('',*,*,#430,.T.);
#287=ORIENTED_EDGE('',*,*,#431,.F.);
#288=ORIENTED_EDGE('',*,*,#418,.T.);
#289=ORIENTED_EDGE('',*,*,#431,.T.);
#290=ORIENTED_EDGE('',*,*,#432,.F.);
#291=ORIENTED_EDGE('',*,*,#417,.T.);
#292=ORIENTED_EDGE('',*,*,#432,.T.);
#293=ORIENTED_EDGE('',*,*,#433,.F.);
#294=ORIENTED_EDGE('',*,*,#416,.T.);
#295=ORIENTED_EDGE('',*,*,#433,.T.);
#296=ORIENTED_EDGE('',*,*,#434,.F.);
#297=ORIENTED_EDGE('',*,*,#415,.T.);
#298=ORIENTED_EDGE('',*,*,#434,.T.);
#299=ORIENTED_EDGE('',*,*,#435,.F.);
#300=ORIENTED_EDGE('',*,*,#414,.T.);
#301=ORIENTED_EDGE('',*,*,#435,.T.);
#302=ORIENTED_EDGE('',*,*,#436,.F.);
#303=ORIENTED_EDGE('',*,*,#413,.T.);
#304=ORIENTED_EDGE('',*,*,#436,.T.);
#305=ORIENTED_EDGE('',*,*,#437,.F.);
#306=ORIENTED_EDGE('',*,*,#412,.T.);
#307=ORIENTED_EDGE('',*,*,#437,.T.);
#308=ORIENTED_EDGE('',*,*,#438,.F.);
#309=ORIENTED_EDGE('',*,*,#411,.T.);
#310=ORIENTED_EDGE('',*,*,#438,.T.);
#311=ORIENTED_EDGE('',*,*,#439,.F.);
#312=ORIENTED_EDGE('',*,*,#440,.F.);
#313=ORIENTED_EDGE('',*,*,#441,.T.);
#314=ORIENTED_EDGE('',*,*,#442,.T.);
#315=ORIENTED_EDGE('',*,*,#443,.T.);
#316=ORIENTED_EDGE('',*,*,#444,.F.);
#317=ORIENTED_EDGE('',*,*,#445,.F.);
#318=ORIENTED_EDGE('',*,*,#440,.T.);
#319=ORIENTED_EDGE('',*,*,#446,.T.);
#320=ORIENTED_EDGE('',*,*,#447,.F.);
#321=ORIENTED_EDGE('',*,*,#448,.F.);
#322=ORIENTED_EDGE('',*,*,#444,.T.);
#323=ORIENTED_EDGE('',*,*,#449,.F.);
#324=ORIENTED_EDGE('',*,*,#442,.F.);
#325=ORIENTED_EDGE('',*,*,#450,.T.);
#326=ORIENTED_EDGE('',*,*,#447,.T.);
#327=ORIENTED_EDGE('',*,*,#441,.F.);
#328=ORIENTED_EDGE('',*,*,#445,.T.);
#329=ORIENTED_EDGE('',*,*,#448,.T.);
#330=ORIENTED_EDGE('',*,*,#450,.F.);
#331=ORIENTED_EDGE('',*,*,#439,.T.);
#332=ORIENTED_EDGE('',*,*,#449,.T.);
#333=ORIENTED_EDGE('',*,*,#446,.F.);
#334=ORIENTED_EDGE('',*,*,#443,.F.);
#335=EDGE_CURVE('',#451,#452,#539,.T.);
#336=EDGE_CURVE('',#452,#453,#540,.T.);
#337=EDGE_CURVE('',#454,#453,#541,.T.);
#338=EDGE_CURVE('',#454,#451,#542,.F.);
#339=EDGE_CURVE('',#455,#456,#543,.T.);
#340=EDGE_CURVE('',#455,#457,#544,.T.);
#341=EDGE_CURVE('',#457,#458,#545,.F.);
#342=EDGE_CURVE('',#456,#458,#546,.T.);
#343=EDGE_CURVE('',#459,#459,#53,.T.);
#344=EDGE_CURVE('',#460,#460,#54,.T.);
#345=EDGE_CURVE('',#461,#462,#547,.T.);
#346=EDGE_CURVE('',#462,#463,#548,.T.);
#347=EDGE_CURVE('',#463,#464,#549,.F.);
#348=EDGE_CURVE('',#464,#461,#550,.F.);
#349=EDGE_CURVE('',#465,#465,#55,.T.);
#350=EDGE_CURVE('',#466,#466,#56,.T.);
#351=EDGE_CURVE('',#467,#467,#57,.T.);
#352=EDGE_CURVE('',#468,#468,#58,.T.);
#353=EDGE_CURVE('',#469,#469,#59,.T.);
#354=EDGE_CURVE('',#470,#470,#60,.T.);
#355=EDGE_CURVE('',#471,#472,#551,.T.);
#356=EDGE_CURVE('',#471,#473,#552,.T.);
#357=EDGE_CURVE('',#473,#474,#553,.T.);
#358=EDGE_CURVE('',#474,#472,#554,.F.);
#359=EDGE_CURVE('',#475,#476,#555,.T.);
#360=EDGE_CURVE('',#476,#477,#556,.T.);
#361=EDGE_CURVE('',#478,#477,#557,.T.);
#362=EDGE_CURVE('',#475,#478,#558,.T.);
#363=EDGE_CURVE('',#474,#477,#16,.F.);
#364=EDGE_CURVE('',#478,#473,#17,.T.);
#365=EDGE_CURVE('',#462,#471,#559,.T.);
#366=EDGE_CURVE('',#475,#461,#18,.T.);
#367=EDGE_CURVE('',#464,#476,#19,.F.);
#368=EDGE_CURVE('',#472,#463,#560,.F.);
#369=EDGE_CURVE('',#479,#480,#561,.T.);
#370=EDGE_CURVE('',#480,#481,#61,.T.);
#371=EDGE_CURVE('',#481,#482,#62,.T.);
#372=EDGE_CURVE('',#454,#482,#63,.T.);
#373=EDGE_CURVE('',#483,#453,#64,.T.);
#374=EDGE_CURVE('',#484,#483,#562,.T.);
#375=EDGE_CURVE('',#485,#484,#563,.T.);
#376=EDGE_CURVE('',#485,#486,#65,.T.);
#377=EDGE_CURVE('',#486,#456,#66,.T.);
#378=EDGE_CURVE('',#458,#463,#564,.T.);
#379=EDGE_CURVE('',#479,#462,#565,.T.);
#380=EDGE_CURVE('',#487,#471,#566,.T.);
#381=EDGE_CURVE('',#479,#487,#567,.T.);
#382=EDGE_CURVE('',#457,#472,#568,.T.);
#383=EDGE_CURVE('',#488,#455,#67,.T.);
#384=EDGE_CURVE('',#489,#488,#68,.T.);
#385=EDGE_CURVE('',#489,#490,#569,.T.);
#386=EDGE_CURVE('',#490,#491,#570,.T.);
#387=EDGE_CURVE('',#491,#452,#69,.T.);
#388=EDGE_CURVE('',#451,#492,#70,.T.);
#389=EDGE_CURVE('',#493,#492,#71,.T.);
#390=EDGE_CURVE('',#494,#493,#72,.T.);
#391=EDGE_CURVE('',#487,#494,#571,.T.);
#392=EDGE_CURVE('',#480,#494,#572,.F.);
#393=EDGE_CURVE('',#493,#481,#573,.T.);
#394=EDGE_CURVE('',#492,#482,#574,.T.);
#395=EDGE_CURVE('',#488,#486,#575,.T.);
#396=EDGE_CURVE('',#491,#483,#576,.T.);
#397=EDGE_CURVE('',#490,#484,#577,.T.);
#398=EDGE_CURVE('',#489,#485,#578,.T.);
#399=EDGE_CURVE('',#495,#496,#579,.T.);
#400=EDGE_CURVE('',#496,#497,#73,.T.);
#401=EDGE_CURVE('',#498,#497,#580,.T.);
#402=EDGE_CURVE('',#498,#495,#74,.T.);
#403=EDGE_CURVE('',#499,#499,#75,.T.);
#404=EDGE_CURVE('',#500,#500,#76,.T.);
#405=EDGE_CURVE('',#501,#501,#77,.T.);
#406=EDGE_CURVE('',#502,#502,#78,.T.);
#407=EDGE_CURVE('',#503,#503,#79,.T.);
#408=EDGE_CURVE('',#504,#504,#80,.T.);
#409=EDGE_CURVE('',#505,#505,#81,.T.);
#410=EDGE_CURVE('',#506,#506,#82,.T.);
#411=EDGE_CURVE('',#507,#507,#83,.T.);
#412=EDGE_CURVE('',#508,#508,#84,.T.);
#413=EDGE_CURVE('',#509,#509,#85,.T.);
#414=EDGE_CURVE('',#510,#510,#86,.T.);
#415=EDGE_CURVE('',#511,#511,#87,.T.);
#416=EDGE_CURVE('',#512,#512,#88,.T.);
#417=EDGE_CURVE('',#513,#513,#89,.T.);
#418=EDGE_CURVE('',#514,#514,#90,.T.);
#419=EDGE_CURVE('',#515,#515,#91,.T.);
#420=EDGE_CURVE('',#516,#516,#92,.T.);
#421=EDGE_CURVE('',#517,#518,#581,.T.);
#422=EDGE_CURVE('',#518,#496,#582,.F.);
#423=EDGE_CURVE('',#495,#517,#583,.T.);
#424=EDGE_CURVE('',#497,#519,#584,.T.);
#425=EDGE_CURVE('',#520,#519,#585,.T.);
#426=EDGE_CURVE('',#498,#520,#586,.T.);
#427=EDGE_CURVE('',#517,#520,#20,.F.);
#428=EDGE_CURVE('',#518,#519,#21,.F.);
#429=EDGE_CURVE('',#521,#521,#93,.T.);
#430=EDGE_CURVE('',#522,#522,#94,.T.);
#431=EDGE_CURVE('',#523,#523,#95,.T.);
#432=EDGE_CURVE('',#524,#524,#96,.T.);
#433=EDGE_CURVE('',#525,#525,#97,.T.);
#434=EDGE_CURVE('',#526,#526,#98,.T.);
#435=EDGE_CURVE('',#527,#527,#99,.T.);
#436=EDGE_CURVE('',#528,#528,#100,.T.);
#437=EDGE_CURVE('',#529,#529,#101,.T.);
#438=EDGE_CURVE('',#530,#530,#102,.T.);
#439=EDGE_CURVE('',#531,#532,#587,.T.);
#440=EDGE_CURVE('',#533,#531,#588,.T.);
#441=EDGE_CURVE('',#533,#534,#589,.T.);
#442=EDGE_CURVE('',#534,#532,#590,.T.);
#443=EDGE_CURVE('',#531,#535,#591,.T.);
#444=EDGE_CURVE('',#536,#535,#592,.T.);
#445=EDGE_CURVE('',#533,#536,#593,.T.);
#446=EDGE_CURVE('',#535,#537,#594,.T.);
#447=EDGE_CURVE('',#538,#537,#595,.T.);
#448=EDGE_CURVE('',#536,#538,#596,.T.);
#449=EDGE_CURVE('',#532,#537,#597,.T.);
#450=EDGE_CURVE('',#534,#538,#598,.T.);
#451=VERTEX_POINT('',#1426);
#452=VERTEX_POINT('',#1427);
#453=VERTEX_POINT('',#1429);
#454=VERTEX_POINT('',#1431);
#455=VERTEX_POINT('',#1435);
#456=VERTEX_POINT('',#1436);
#457=VERTEX_POINT('',#1438);
#458=VERTEX_POINT('',#1440);
#459=VERTEX_POINT('',#1444);
#460=VERTEX_POINT('',#1446);
#461=VERTEX_POINT('',#1448);
#462=VERTEX_POINT('',#1449);
#463=VERTEX_POINT('',#1451);
#464=VERTEX_POINT('',#1453);
#465=VERTEX_POINT('',#1457);
#466=VERTEX_POINT('',#1459);
#467=VERTEX_POINT('',#1462);
#468=VERTEX_POINT('',#1465);
#469=VERTEX_POINT('',#1468);
#470=VERTEX_POINT('',#1470);
#471=VERTEX_POINT('',#1473);
#472=VERTEX_POINT('',#1474);
#473=VERTEX_POINT('',#1476);
#474=VERTEX_POINT('',#1478);
#475=VERTEX_POINT('',#1482);
#476=VERTEX_POINT('',#1483);
#477=VERTEX_POINT('',#1485);
#478=VERTEX_POINT('',#1487);
#479=VERTEX_POINT('',#1501);
#480=VERTEX_POINT('',#1502);
#481=VERTEX_POINT('',#1504);
#482=VERTEX_POINT('',#1506);
#483=VERTEX_POINT('',#1509);
#484=VERTEX_POINT('',#1511);
#485=VERTEX_POINT('',#1513);
#486=VERTEX_POINT('',#1515);
#487=VERTEX_POINT('',#1521);
#488=VERTEX_POINT('',#1526);
#489=VERTEX_POINT('',#1528);
#490=VERTEX_POINT('',#1530);
#491=VERTEX_POINT('',#1532);
#492=VERTEX_POINT('',#1535);
#493=VERTEX_POINT('',#1537);
#494=VERTEX_POINT('',#1539);
#495=VERTEX_POINT('',#1561);
#496=VERTEX_POINT('',#1562);
#497=VERTEX_POINT('',#1564);
#498=VERTEX_POINT('',#1566);
#499=VERTEX_POINT('',#1570);
#500=VERTEX_POINT('',#1572);
#501=VERTEX_POINT('',#1575);
#502=VERTEX_POINT('',#1577);
#503=VERTEX_POINT('',#1580);
#504=VERTEX_POINT('',#1582);
#505=VERTEX_POINT('',#1585);
#506=VERTEX_POINT('',#1587);
#507=VERTEX_POINT('',#1590);
#508=VERTEX_POINT('',#1592);
#509=VERTEX_POINT('',#1594);
#510=VERTEX_POINT('',#1596);
#511=VERTEX_POINT('',#1598);
#512=VERTEX_POINT('',#1600);
#513=VERTEX_POINT('',#1602);
#514=VERTEX_POINT('',#1604);
#515=VERTEX_POINT('',#1606);
#516=VERTEX_POINT('',#1608);
#517=VERTEX_POINT('',#1610);
#518=VERTEX_POINT('',#1611);
#519=VERTEX_POINT('',#1616);
#520=VERTEX_POINT('',#1618);
#521=VERTEX_POINT('',#1627);
#522=VERTEX_POINT('',#1631);
#523=VERTEX_POINT('',#1635);
#524=VERTEX_POINT('',#1639);
#525=VERTEX_POINT('',#1643);
#526=VERTEX_POINT('',#1647);
#527=VERTEX_POINT('',#1651);
#528=VERTEX_POINT('',#1655);
#529=VERTEX_POINT('',#1659);
#530=VERTEX_POINT('',#1663);
#531=VERTEX_POINT('',#1668);
#532=VERTEX_POINT('',#1669);
#533=VERTEX_POINT('',#1671);
#534=VERTEX_POINT('',#1673);
#535=VERTEX_POINT('',#1677);
#536=VERTEX_POINT('',#1679);
#537=VERTEX_POINT('',#1683);
#538=VERTEX_POINT('',#1685);
#539=LINE('',#1425,#599);
#540=LINE('',#1428,#600);
#541=LINE('',#1430,#601);
#542=LINE('',#1432,#602);
#543=LINE('',#1434,#603);
#544=LINE('',#1437,#604);
#545=LINE('',#1439,#605);
#546=LINE('',#1441,#606);
#547=LINE('',#1447,#607);
#548=LINE('',#1450,#608);
#549=LINE('',#1452,#609);
#550=LINE('',#1454,#610);
#551=LINE('',#1472,#611);
#552=LINE('',#1475,#612);
#553=LINE('',#1477,#613);
#554=LINE('',#1479,#614);
#555=LINE('',#1481,#615);
#556=LINE('',#1484,#616);
#557=LINE('',#1486,#617);
#558=LINE('',#1488,#618);
#559=LINE('',#1493,#619);
#560=LINE('',#1497,#620);
#561=LINE('',#1500,#621);
#562=LINE('',#1510,#622);
#563=LINE('',#1512,#623);
#564=LINE('',#1517,#624);
#565=LINE('',#1518,#625);
#566=LINE('',#1520,#626);
#567=LINE('',#1522,#627);
#568=LINE('',#1524,#628);
#569=LINE('',#1529,#629);
#570=LINE('',#1531,#630);
#571=LINE('',#1540,#631);
#572=LINE('',#1543,#632);
#573=LINE('',#1545,#633);
#574=LINE('',#1546,#634);
#575=LINE('',#1550,#635);
#576=LINE('',#1552,#636);
#577=LINE('',#1554,#637);
#578=LINE('',#1555,#638);
#579=LINE('',#1560,#639);
#580=LINE('',#1565,#640);
#581=LINE('',#1609,#641);
#582=LINE('',#1612,#642);
#583=LINE('',#1613,#643);
#584=LINE('',#1615,#644);
#585=LINE('',#1617,#645);
#586=LINE('',#1619,#646);
#587=LINE('',#1667,#647);
#588=LINE('',#1670,#648);
#589=LINE('',#1672,#649);
#590=LINE('',#1674,#650);
#591=LINE('',#1676,#651);
#592=LINE('',#1678,#652);
#593=LINE('',#1680,#653);
#594=LINE('',#1682,#654);
#595=LINE('',#1684,#655);
#596=LINE('',#1686,#656);
#597=LINE('',#1688,#657);
#598=LINE('',#1689,#658);
#599=VECTOR('',#1125,1.);
#600=VECTOR('',#1126,1.);
#601=VECTOR('',#1127,1.);
#602=VECTOR('',#1128,1.);
#603=VECTOR('',#1131,1.);
#604=VECTOR('',#1132,1.);
#605=VECTOR('',#1133,1.);
#606=VECTOR('',#1134,1.);
#607=VECTOR('',#1141,1.);
#608=VECTOR('',#1142,1.);
#609=VECTOR('',#1143,1.);
#610=VECTOR('',#1144,1.);
#611=VECTOR('',#1167,1.);
#612=VECTOR('',#1168,1.);
#613=VECTOR('',#1169,1.);
#614=VECTOR('',#1170,1.);
#615=VECTOR('',#1173,1.);
#616=VECTOR('',#1174,1.);
#617=VECTOR('',#1175,1.);
#618=VECTOR('',#1176,1.);
#619=VECTOR('',#1185,1.);
#620=VECTOR('',#1192,1.);
#621=VECTOR('',#1197,1.);
#622=VECTOR('',#1206,1.);
#623=VECTOR('',#1207,1.);
#624=VECTOR('',#1212,1.);
#625=VECTOR('',#1213,1.);
#626=VECTOR('',#1216,1.);
#627=VECTOR('',#1217,1.);
#628=VECTOR('',#1220,1.);
#629=VECTOR('',#1225,1.);
#630=VECTOR('',#1226,1.);
#631=VECTOR('',#1235,1.);
#632=VECTOR('',#1240,1.);
#633=VECTOR('',#1243,1.);
#634=VECTOR('',#1244,1.);
#635=VECTOR('',#1251,1.);
#636=VECTOR('',#1254,1.);
#637=VECTOR('',#1257,1.);
#638=VECTOR('',#1258,1.);
#639=VECTOR('',#1267,1.);
#640=VECTOR('',#1270,1.);
#641=VECTOR('',#1319,1.);
#642=VECTOR('',#1320,1.);
#643=VECTOR('',#1321,1.);
#644=VECTOR('',#1324,1.);
#645=VECTOR('',#1325,1.);
#646=VECTOR('',#1326,1.);
#647=VECTOR('',#1401,1.);
#648=VECTOR('',#1402,1.);
#649=VECTOR('',#1403,1.);
#650=VECTOR('',#1404,1.);
#651=VECTOR('',#1407,1.);
#652=VECTOR('',#1408,1.);
#653=VECTOR('',#1409,1.);
#654=VECTOR('',#1412,1.);
#655=VECTOR('',#1413,1.);
#656=VECTOR('',#1414,1.);
#657=VECTOR('',#1417,1.);
#658=VECTOR('',#1418,1.);
#659=EDGE_LOOP('',(#103,#104,#105,#106));
#660=EDGE_LOOP('',(#107,#108,#109,#110));
#661=EDGE_LOOP('',(#111));
#662=EDGE_LOOP('',(#112));
#663=EDGE_LOOP('',(#113,#114,#115,#116));
#664=EDGE_LOOP('',(#117));
#665=EDGE_LOOP('',(#118));
#666=EDGE_LOOP('',(#119));
#667=EDGE_LOOP('',(#120));
#668=EDGE_LOOP('',(#121));
#669=EDGE_LOOP('',(#122));
#670=EDGE_LOOP('',(#123));
#671=EDGE_LOOP('',(#124));
#672=EDGE_LOOP('',(#125,#126,#127,#128));
#673=EDGE_LOOP('',(#129));
#674=EDGE_LOOP('',(#130));
#675=EDGE_LOOP('',(#131,#132,#133,#134));
#676=EDGE_LOOP('',(#135));
#677=EDGE_LOOP('',(#136));
#678=EDGE_LOOP('',(#137));
#679=EDGE_LOOP('',(#138));
#680=EDGE_LOOP('',(#139,#140,#141,#142));
#681=EDGE_LOOP('',(#143,#144,#145,#146,#147,#148));
#682=EDGE_LOOP('',(#149,#150,#151,#152,#153,#154));
#683=EDGE_LOOP('',(#155,#156,#157,#158));
#684=EDGE_LOOP('',(#159,#160,#161,#162,#163,#164,#165,#166,#167,#168,#169,
#170,#171,#172));
#685=EDGE_LOOP('',(#173,#174,#175,#176));
#686=EDGE_LOOP('',(#177,#178,#179,#180,#181,#182,#183,#184,#185,#186,#187,
#188,#189,#190));
#687=EDGE_LOOP('',(#191,#192,#193,#194));
#688=EDGE_LOOP('',(#195,#196,#197,#198));
#689=EDGE_LOOP('',(#199,#200,#201,#202));
#690=EDGE_LOOP('',(#203,#204,#205,#206));
#691=EDGE_LOOP('',(#207,#208,#209,#210));
#692=EDGE_LOOP('',(#211,#212,#213,#214));
#693=EDGE_LOOP('',(#215,#216,#217,#218));
#694=EDGE_LOOP('',(#219,#220,#221,#222));
#695=EDGE_LOOP('',(#223,#224,#225,#226));
#696=EDGE_LOOP('',(#227,#228,#229,#230));
#697=EDGE_LOOP('',(#231,#232,#233,#234));
#698=EDGE_LOOP('',(#235));
#699=EDGE_LOOP('',(#236));
#700=EDGE_LOOP('',(#237));
#701=EDGE_LOOP('',(#238));
#702=EDGE_LOOP('',(#239));
#703=EDGE_LOOP('',(#240));
#704=EDGE_LOOP('',(#241));
#705=EDGE_LOOP('',(#242));
#706=EDGE_LOOP('',(#243));
#707=EDGE_LOOP('',(#244));
#708=EDGE_LOOP('',(#245));
#709=EDGE_LOOP('',(#246));
#710=EDGE_LOOP('',(#247));
#711=EDGE_LOOP('',(#248));
#712=EDGE_LOOP('',(#249));
#713=EDGE_LOOP('',(#250));
#714=EDGE_LOOP('',(#251));
#715=EDGE_LOOP('',(#252));
#716=EDGE_LOOP('',(#253,#254,#255,#256));
#717=EDGE_LOOP('',(#257));
#718=EDGE_LOOP('',(#258));
#719=EDGE_LOOP('',(#259));
#720=EDGE_LOOP('',(#260));
#721=EDGE_LOOP('',(#261,#262,#263,#264));
#722=EDGE_LOOP('',(#265));
#723=EDGE_LOOP('',(#266));
#724=EDGE_LOOP('',(#267));
#725=EDGE_LOOP('',(#268));
#726=EDGE_LOOP('',(#269,#270,#271,#272));
#727=EDGE_LOOP('',(#273,#274,#275,#276));
#728=EDGE_LOOP('',(#277,#278,#279,#280));
#729=EDGE_LOOP('',(#281));
#730=EDGE_LOOP('',(#282));
#731=EDGE_LOOP('',(#283));
#732=EDGE_LOOP('',(#284));
#733=EDGE_LOOP('',(#285));
#734=EDGE_LOOP('',(#286));
#735=EDGE_LOOP('',(#287));
#736=EDGE_LOOP('',(#288));
#737=EDGE_LOOP('',(#289));
#738=EDGE_LOOP('',(#290));
#739=EDGE_LOOP('',(#291));
#740=EDGE_LOOP('',(#292));
#741=EDGE_LOOP('',(#293));
#742=EDGE_LOOP('',(#294));
#743=EDGE_LOOP('',(#295));
#744=EDGE_LOOP('',(#296));
#745=EDGE_LOOP('',(#297));
#746=EDGE_LOOP('',(#298));
#747=EDGE_LOOP('',(#299));
#748=EDGE_LOOP('',(#300));
#749=EDGE_LOOP('',(#301));
#750=EDGE_LOOP('',(#302));
#751=EDGE_LOOP('',(#303));
#752=EDGE_LOOP('',(#304));
#753=EDGE_LOOP('',(#305));
#754=EDGE_LOOP('',(#306));
#755=EDGE_LOOP('',(#307));
#756=EDGE_LOOP('',(#308));
#757=EDGE_LOOP('',(#309));
#758=EDGE_LOOP('',(#310));
#759=EDGE_LOOP('',(#311,#312,#313,#314));
#760=EDGE_LOOP('',(#315,#316,#317,#318));
#761=EDGE_LOOP('',(#319,#320,#321,#322));
#762=EDGE_LOOP('',(#323,#324,#325,#326));
#763=EDGE_LOOP('',(#327,#328,#329,#330));
#764=EDGE_LOOP('',(#331,#332,#333,#334));
#765=FACE_BOUND('',#659,.T.);
#766=FACE_BOUND('',#660,.T.);
#767=FACE_BOUND('',#661,.T.);
#768=FACE_BOUND('',#662,.T.);
#769=FACE_BOUND('',#663,.T.);
#770=FACE_BOUND('',#664,.T.);
#771=FACE_BOUND('',#665,.T.);
#772=FACE_BOUND('',#666,.T.);
#773=FACE_BOUND('',#667,.T.);
#774=FACE_BOUND('',#668,.T.);
#775=FACE_BOUND('',#669,.T.);
#776=FACE_BOUND('',#670,.T.);
#777=FACE_BOUND('',#671,.T.);
#778=FACE_BOUND('',#672,.T.);
#779=FACE_BOUND('',#673,.T.);
#780=FACE_BOUND('',#674,.T.);
#781=FACE_BOUND('',#675,.T.);
#782=FACE_BOUND('',#676,.T.);
#783=FACE_BOUND('',#677,.T.);
#784=FACE_BOUND('',#678,.T.);
#785=FACE_BOUND('',#679,.T.);
#786=FACE_BOUND('',#680,.T.);
#787=FACE_BOUND('',#681,.T.);
#788=FACE_BOUND('',#682,.T.);
#789=FACE_BOUND('',#683,.T.);
#790=FACE_BOUND('',#684,.T.);
#791=FACE_BOUND('',#685,.T.);
#792=FACE_BOUND('',#686,.T.);
#793=FACE_BOUND('',#687,.T.);
#794=FACE_BOUND('',#688,.T.);
#795=FACE_BOUND('',#689,.T.);
#796=FACE_BOUND('',#690,.T.);
#797=FACE_BOUND('',#691,.T.);
#798=FACE_BOUND('',#692,.T.);
#799=FACE_BOUND('',#693,.T.);
#800=FACE_BOUND('',#694,.T.);
#801=FACE_BOUND('',#695,.T.);
#802=FACE_BOUND('',#696,.T.);
#803=FACE_BOUND('',#697,.T.);
#804=FACE_BOUND('',#698,.T.);
#805=FACE_BOUND('',#699,.T.);
#806=FACE_BOUND('',#700,.T.);
#807=FACE_BOUND('',#701,.T.);
#808=FACE_BOUND('',#702,.T.);
#809=FACE_BOUND('',#703,.T.);
#810=FACE_BOUND('',#704,.T.);
#811=FACE_BOUND('',#705,.T.);
#812=FACE_BOUND('',#706,.T.);
#813=FACE_BOUND('',#707,.T.);
#814=FACE_BOUND('',#708,.T.);
#815=FACE_BOUND('',#709,.T.);
#816=FACE_BOUND('',#710,.T.);
#817=FACE_BOUND('',#711,.T.);
#818=FACE_BOUND('',#712,.T.);
#819=FACE_BOUND('',#713,.T.);
#820=FACE_BOUND('',#714,.T.);
#821=FACE_BOUND('',#715,.T.);
#822=FACE_BOUND('',#716,.T.);
#823=FACE_BOUND('',#717,.T.);
#824=FACE_BOUND('',#718,.T.);
#825=FACE_BOUND('',#719,.T.);
#826=FACE_BOUND('',#720,.T.);
#827=FACE_BOUND('',#721,.T.);
#828=FACE_BOUND('',#722,.T.);
#829=FACE_BOUND('',#723,.T.);
#830=FACE_BOUND('',#724,.T.);
#831=FACE_BOUND('',#725,.T.);
#832=FACE_BOUND('',#726,.T.);
#833=FACE_BOUND('',#727,.T.);
#834=FACE_BOUND('',#728,.T.);
#835=FACE_BOUND('',#729,.T.);
#836=FACE_BOUND('',#730,.T.);
#837=FACE_BOUND('',#731,.T.);
#838=FACE_BOUND('',#732,.T.);
#839=FACE_BOUND('',#733,.T.);
#840=FACE_BOUND('',#734,.T.);
#841=FACE_BOUND('',#735,.T.);
#842=FACE_BOUND('',#736,.T.);
#843=FACE_BOUND('',#737,.T.);
#844=FACE_BOUND('',#738,.T.);
#845=FACE_BOUND('',#739,.T.);
#846=FACE_BOUND('',#740,.T.);
#847=FACE_BOUND('',#741,.T.);
#848=FACE_BOUND('',#742,.T.);
#849=FACE_BOUND('',#743,.T.);
#850=FACE_BOUND('',#744,.T.);
#851=FACE_BOUND('',#745,.T.);
#852=FACE_BOUND('',#746,.T.);
#853=FACE_BOUND('',#747,.T.);
#854=FACE_BOUND('',#748,.T.);
#855=FACE_BOUND('',#749,.T.);
#856=FACE_BOUND('',#750,.T.);
#857=FACE_BOUND('',#751,.T.);
#858=FACE_BOUND('',#752,.T.);
#859=FACE_BOUND('',#753,.T.);
#860=FACE_BOUND('',#754,.T.);
#861=FACE_BOUND('',#755,.T.);
#862=FACE_BOUND('',#756,.T.);
#863=FACE_BOUND('',#757,.T.);
#864=FACE_BOUND('',#758,.T.);
#865=FACE_BOUND('',#759,.T.);
#866=FACE_BOUND('',#760,.T.);
#867=FACE_BOUND('',#761,.T.);
#868=FACE_BOUND('',#762,.T.);
#869=FACE_BOUND('',#763,.T.);
#870=FACE_BOUND('',#764,.T.);
#871=PLANE('',#1001);
#872=PLANE('',#1002);
#873=PLANE('',#1003);
#874=PLANE('',#1016);
#875=PLANE('',#1017);
#876=PLANE('',#1026);
#877=PLANE('',#1033);
#878=PLANE('',#1034);
#879=PLANE('',#1041);
#880=PLANE('',#1042);
#881=PLANE('',#1048);
#882=PLANE('',#1050);
#883=PLANE('',#1052);
#884=PLANE('',#1067);
#885=PLANE('',#1078);
#886=PLANE('',#1086);
#887=PLANE('',#1089);
#888=PLANE('',#1092);
#889=PLANE('',#1095);
#890=PLANE('',#1098);
#891=PLANE('',#1101);
#892=PLANE('',#1104);
#893=PLANE('',#1107);
#894=PLANE('',#1110);
#895=PLANE('',#1113);
#896=PLANE('',#1115);
#897=PLANE('',#1116);
#898=PLANE('',#1117);
#899=PLANE('',#1118);
#900=PLANE('',#1119);
#901=PLANE('',#1120);
#902=ADVANCED_FACE('',(#765),#871,.T.);
#903=ADVANCED_FACE('',(#766),#872,.T.);
#904=ADVANCED_FACE('',(#767,#768,#769),#873,.T.);
#905=ADVANCED_FACE('',(#770,#771),#22,.F.);
#906=ADVANCED_FACE('',(#772,#773),#23,.F.);
#907=ADVANCED_FACE('',(#774,#775),#24,.F.);
#908=ADVANCED_FACE('',(#776,#777),#25,.F.);
#909=ADVANCED_FACE('',(#778,#779,#780),#874,.T.);
#910=ADVANCED_FACE('',(#781,#782,#783,#784,#785),#875,.F.);
#911=ADVANCED_FACE('',(#786),#26,.T.);
#912=ADVANCED_FACE('',(#787),#27,.T.);
#913=ADVANCED_FACE('',(#788),#28,.T.);
#914=ADVANCED_FACE('',(#789),#29,.T.);
#915=ADVANCED_FACE('',(#790),#876,.T.);
#916=ADVANCED_FACE('',(#791),#877,.F.);
#917=ADVANCED_FACE('',(#792),#878,.F.);
#918=ADVANCED_FACE('',(#793),#879,.F.);
#919=ADVANCED_FACE('',(#794),#880,.T.);
#920=ADVANCED_FACE('',(#795),#30,.T.);
#921=ADVANCED_FACE('',(#796),#31,.F.);
#922=ADVANCED_FACE('',(#797),#32,.T.);
#923=ADVANCED_FACE('',(#798),#33,.T.);
#924=ADVANCED_FACE('',(#799),#34,.F.);
#925=ADVANCED_FACE('',(#800),#881,.F.);
#926=ADVANCED_FACE('',(#801),#35,.T.);
#927=ADVANCED_FACE('',(#802),#882,.F.);
#928=ADVANCED_FACE('',(#803),#883,.T.);
#929=ADVANCED_FACE('',(#804,#805),#36,.F.);
#930=ADVANCED_FACE('',(#806,#807),#37,.F.);
#931=ADVANCED_FACE('',(#808,#809),#38,.F.);
#932=ADVANCED_FACE('',(#810,#811),#39,.F.);
#933=ADVANCED_FACE('',(#812,#813,#814,#815,#816,#817,#818,#819,#820,#821,
#822,#823,#824,#825,#826),#884,.T.);
#934=ADVANCED_FACE('',(#827,#828,#829,#830,#831),#885,.F.);
#935=ADVANCED_FACE('',(#832),#40,.T.);
#936=ADVANCED_FACE('',(#833),#41,.T.);
#937=ADVANCED_FACE('',(#834),#42,.T.);
#938=ADVANCED_FACE('',(#835,#836),#43,.F.);
#939=ADVANCED_FACE('',(#837),#886,.T.);
#940=ADVANCED_FACE('',(#838,#839),#44,.F.);
#941=ADVANCED_FACE('',(#840),#887,.T.);
#942=ADVANCED_FACE('',(#841,#842),#45,.F.);
#943=ADVANCED_FACE('',(#843),#888,.T.);
#944=ADVANCED_FACE('',(#844,#845),#46,.F.);
#945=ADVANCED_FACE('',(#846),#889,.T.);
#946=ADVANCED_FACE('',(#847,#848),#47,.F.);
#947=ADVANCED_FACE('',(#849),#890,.T.);
#948=ADVANCED_FACE('',(#850,#851),#48,.F.);
#949=ADVANCED_FACE('',(#852),#891,.T.);
#950=ADVANCED_FACE('',(#853,#854),#49,.F.);
#951=ADVANCED_FACE('',(#855),#892,.T.);
#952=ADVANCED_FACE('',(#856,#857),#50,.F.);
#953=ADVANCED_FACE('',(#858),#893,.T.);
#954=ADVANCED_FACE('',(#859,#860),#51,.F.);
#955=ADVANCED_FACE('',(#861),#894,.T.);
#956=ADVANCED_FACE('',(#862,#863),#52,.F.);
#957=ADVANCED_FACE('',(#864),#895,.T.);
#958=ADVANCED_FACE('',(#865),#896,.T.);
#959=ADVANCED_FACE('',(#866),#897,.F.);
#960=ADVANCED_FACE('',(#867),#898,.F.);
#961=ADVANCED_FACE('',(#868),#899,.T.);
#962=ADVANCED_FACE('',(#869),#900,.T.);
#963=ADVANCED_FACE('',(#870),#901,.F.);
#964=CLOSED_SHELL('',(#902,#903,#904,#905,#906,#907,#908,#909,#910,#911,
#912,#913,#914,#915,#916,#917,#918,#919,#920,#921,#922,#923,#924,#925,#926,
#927));
#965=CLOSED_SHELL('',(#928,#929,#930,#931,#932,#933,#934,#935,#936,#937,
#938,#939,#940,#941,#942,#943,#944,#945,#946,#947,#948,#949,#950,#951,#952,
#953,#954,#955,#956,#957));
#966=CLOSED_SHELL('',(#958,#959,#960,#961,#962,#963));
#967=STYLED_ITEM('',(#970),#991);
#968=STYLED_ITEM('',(#971),#992);
#969=STYLED_ITEM('',(#972),#993);
#970=PRESENTATION_STYLE_ASSIGNMENT((#973));
#971=PRESENTATION_STYLE_ASSIGNMENT((#974));
#972=PRESENTATION_STYLE_ASSIGNMENT((#975));
#973=SURFACE_STYLE_USAGE(.BOTH.,#976);
#974=SURFACE_STYLE_USAGE(.BOTH.,#977);
#975=SURFACE_STYLE_USAGE(.BOTH.,#978);
#976=SURFACE_SIDE_STYLE('',(#979));
#977=SURFACE_SIDE_STYLE('',(#980));
#978=SURFACE_SIDE_STYLE('',(#981));
#979=SURFACE_STYLE_FILL_AREA(#982);
#980=SURFACE_STYLE_FILL_AREA(#983);
#981=SURFACE_STYLE_FILL_AREA(#984);
#982=FILL_AREA_STYLE('',(#985));
#983=FILL_AREA_STYLE('',(#986));
#984=FILL_AREA_STYLE('',(#987));
#985=FILL_AREA_STYLE_COLOUR('',#988);
#986=FILL_AREA_STYLE_COLOUR('',#989);
#987=FILL_AREA_STYLE_COLOUR('',#990);
#988=COLOUR_RGB('',0.615686274509804,0.811764705882353,0.929411764705882);
#989=COLOUR_RGB('',0.231372549019608,0.380392156862745,0.705882352941177);
#990=COLOUR_RGB('',0.96078431372549,0.835294117647059,0.470588235294118);
#991=MANIFOLD_SOLID_BREP('Claw Piece',#964);
#992=MANIFOLD_SOLID_BREP('Wood Spring Piece',#965);
#993=MANIFOLD_SOLID_BREP('Wood',#966);
#994=SHAPE_DEFINITION_REPRESENTATION(#1710,#997);
#995=SHAPE_DEFINITION_REPRESENTATION(#1711,#998);
#996=SHAPE_DEFINITION_REPRESENTATION(#1712,#999);
#997=SHAPE_REPRESENTATION('Claw Piece',(#1000),#1695);
#998=SHAPE_REPRESENTATION('Wood Spring Piece',(#1051),#1696);
#999=SHAPE_REPRESENTATION('Wood',(#1114),#1697);
#1000=AXIS2_PLACEMENT_3D('',#1423,#1121,#1122);
#1001=AXIS2_PLACEMENT_3D('',#1424,#1123,#1124);
#1002=AXIS2_PLACEMENT_3D('',#1433,#1129,#1130);
#1003=AXIS2_PLACEMENT_3D('',#1442,#1135,#1136);
#1004=AXIS2_PLACEMENT_3D('',#1443,#1137,#1138);
#1005=AXIS2_PLACEMENT_3D('',#1445,#1139,#1140);
#1006=AXIS2_PLACEMENT_3D('',#1455,#1145,#1146);
#1007=AXIS2_PLACEMENT_3D('',#1456,#1147,#1148);
#1008=AXIS2_PLACEMENT_3D('',#1458,#1149,#1150);
#1009=AXIS2_PLACEMENT_3D('',#1460,#1151,#1152);
#1010=AXIS2_PLACEMENT_3D('',#1461,#1153,#1154);
#1011=AXIS2_PLACEMENT_3D('',#1463,#1155,#1156);
#1012=AXIS2_PLACEMENT_3D('',#1464,#1157,#1158);
#1013=AXIS2_PLACEMENT_3D('',#1466,#1159,#1160);
#1014=AXIS2_PLACEMENT_3D('',#1467,#1161,#1162);
#1015=AXIS2_PLACEMENT_3D('',#1469,#1163,#1164);
#1016=AXIS2_PLACEMENT_3D('',#1471,#1165,#1166);
#1017=AXIS2_PLACEMENT_3D('',#1480,#1171,#1172);
#1018=AXIS2_PLACEMENT_3D('',#1489,#1177,#1178);
#1019=AXIS2_PLACEMENT_3D('',#1490,#1179,#1180);
#1020=AXIS2_PLACEMENT_3D('',#1491,#1181,#1182);
#1021=AXIS2_PLACEMENT_3D('',#1492,#1183,#1184);
#1022=AXIS2_PLACEMENT_3D('',#1494,#1186,#1187);
#1023=AXIS2_PLACEMENT_3D('',#1495,#1188,#1189);
#1024=AXIS2_PLACEMENT_3D('',#1496,#1190,#1191);
#1025=AXIS2_PLACEMENT_3D('',#1498,#1193,#1194);
#1026=AXIS2_PLACEMENT_3D('',#1499,#1195,#1196);
#1027=AXIS2_PLACEMENT_3D('',#1503,#1198,#1199);
#1028=AXIS2_PLACEMENT_3D('',#1505,#1200,#1201);
#1029=AXIS2_PLACEMENT_3D('',#1507,#1202,#1203);
#1030=AXIS2_PLACEMENT_3D('',#1508,#1204,#1205);
#1031=AXIS2_PLACEMENT_3D('',#1514,#1208,#1209);
#1032=AXIS2_PLACEMENT_3D('',#1516,#1210,#1211);
#1033=AXIS2_PLACEMENT_3D('',#1519,#1214,#1215);
#1034=AXIS2_PLACEMENT_3D('',#1523,#1218,#1219);
#1035=AXIS2_PLACEMENT_3D('',#1525,#1221,#1222);
#1036=AXIS2_PLACEMENT_3D('',#1527,#1223,#1224);
#1037=AXIS2_PLACEMENT_3D('',#1533,#1227,#1228);
#1038=AXIS2_PLACEMENT_3D('',#1534,#1229,#1230);
#1039=AXIS2_PLACEMENT_3D('',#1536,#1231,#1232);
#1040=AXIS2_PLACEMENT_3D('',#1538,#1233,#1234);
#1041=AXIS2_PLACEMENT_3D('',#1541,#1236,#1237);
#1042=AXIS2_PLACEMENT_3D('',#1542,#1238,#1239);
#1043=AXIS2_PLACEMENT_3D('',#1544,#1241,#1242);
#1044=AXIS2_PLACEMENT_3D('',#1547,#1245,#1246);
#1045=AXIS2_PLACEMENT_3D('',#1548,#1247,#1248);
#1046=AXIS2_PLACEMENT_3D('',#1549,#1249,#1250);
#1047=AXIS2_PLACEMENT_3D('',#1551,#1252,#1253);
#1048=AXIS2_PLACEMENT_3D('',#1553,#1255,#1256);
#1049=AXIS2_PLACEMENT_3D('',#1556,#1259,#1260);
#1050=AXIS2_PLACEMENT_3D('',#1557,#1261,#1262);
#1051=AXIS2_PLACEMENT_3D('',#1558,#1263,#1264);
#1052=AXIS2_PLACEMENT_3D('',#1559,#1265,#1266);
#1053=AXIS2_PLACEMENT_3D('',#1563,#1268,#1269);
#1054=AXIS2_PLACEMENT_3D('',#1567,#1271,#1272);
#1055=AXIS2_PLACEMENT_3D('',#1568,#1273,#1274);
#1056=AXIS2_PLACEMENT_3D('',#1569,#1275,#1276);
#1057=AXIS2_PLACEMENT_3D('',#1571,#1277,#1278);
#1058=AXIS2_PLACEMENT_3D('',#1573,#1279,#1280);
#1059=AXIS2_PLACEMENT_3D('',#1574,#1281,#1282);
#1060=AXIS2_PLACEMENT_3D('',#1576,#1283,#1284);
#1061=AXIS2_PLACEMENT_3D('',#1578,#1285,#1286);
#1062=AXIS2_PLACEMENT_3D('',#1579,#1287,#1288);
#1063=AXIS2_PLACEMENT_3D('',#1581,#1289,#1290);
#1064=AXIS2_PLACEMENT_3D('',#1583,#1291,#1292);
#1065=AXIS2_PLACEMENT_3D('',#1584,#1293,#1294);
#1066=AXIS2_PLACEMENT_3D('',#1586,#1295,#1296);
#1067=AXIS2_PLACEMENT_3D('',#1588,#1297,#1298);
#1068=AXIS2_PLACEMENT_3D('',#1589,#1299,#1300);
#1069=AXIS2_PLACEMENT_3D('',#1591,#1301,#1302);
#1070=AXIS2_PLACEMENT_3D('',#1593,#1303,#1304);
#1071=AXIS2_PLACEMENT_3D('',#1595,#1305,#1306);
#1072=AXIS2_PLACEMENT_3D('',#1597,#1307,#1308);
#1073=AXIS2_PLACEMENT_3D('',#1599,#1309,#1310);
#1074=AXIS2_PLACEMENT_3D('',#1601,#1311,#1312);
#1075=AXIS2_PLACEMENT_3D('',#1603,#1313,#1314);
#1076=AXIS2_PLACEMENT_3D('',#1605,#1315,#1316);
#1077=AXIS2_PLACEMENT_3D('',#1607,#1317,#1318);
#1078=AXIS2_PLACEMENT_3D('',#1614,#1322,#1323);
#1079=AXIS2_PLACEMENT_3D('',#1620,#1327,#1328);
#1080=AXIS2_PLACEMENT_3D('',#1621,#1329,#1330);
#1081=AXIS2_PLACEMENT_3D('',#1622,#1331,#1332);
#1082=AXIS2_PLACEMENT_3D('',#1623,#1333,#1334);
#1083=AXIS2_PLACEMENT_3D('',#1624,#1335,#1336);
#1084=AXIS2_PLACEMENT_3D('',#1625,#1337,#1338);
#1085=AXIS2_PLACEMENT_3D('',#1626,#1339,#1340);
#1086=AXIS2_PLACEMENT_3D('',#1628,#1341,#1342);
#1087=AXIS2_PLACEMENT_3D('',#1629,#1343,#1344);
#1088=AXIS2_PLACEMENT_3D('',#1630,#1345,#1346);
#1089=AXIS2_PLACEMENT_3D('',#1632,#1347,#1348);
#1090=AXIS2_PLACEMENT_3D('',#1633,#1349,#1350);
#1091=AXIS2_PLACEMENT_3D('',#1634,#1351,#1352);
#1092=AXIS2_PLACEMENT_3D('',#1636,#1353,#1354);
#1093=AXIS2_PLACEMENT_3D('',#1637,#1355,#1356);
#1094=AXIS2_PLACEMENT_3D('',#1638,#1357,#1358);
#1095=AXIS2_PLACEMENT_3D('',#1640,#1359,#1360);
#1096=AXIS2_PLACEMENT_3D('',#1641,#1361,#1362);
#1097=AXIS2_PLACEMENT_3D('',#1642,#1363,#1364);
#1098=AXIS2_PLACEMENT_3D('',#1644,#1365,#1366);
#1099=AXIS2_PLACEMENT_3D('',#1645,#1367,#1368);
#1100=AXIS2_PLACEMENT_3D('',#1646,#1369,#1370);
#1101=AXIS2_PLACEMENT_3D('',#1648,#1371,#1372);
#1102=AXIS2_PLACEMENT_3D('',#1649,#1373,#1374);
#1103=AXIS2_PLACEMENT_3D('',#1650,#1375,#1376);
#1104=AXIS2_PLACEMENT_3D('',#1652,#1377,#1378);
#1105=AXIS2_PLACEMENT_3D('',#1653,#1379,#1380);
#1106=AXIS2_PLACEMENT_3D('',#1654,#1381,#1382);
#1107=AXIS2_PLACEMENT_3D('',#1656,#1383,#1384);
#1108=AXIS2_PLACEMENT_3D('',#1657,#1385,#1386);
#1109=AXIS2_PLACEMENT_3D('',#1658,#1387,#1388);
#1110=AXIS2_PLACEMENT_3D('',#1660,#1389,#1390);
#1111=AXIS2_PLACEMENT_3D('',#1661,#1391,#1392);
#1112=AXIS2_PLACEMENT_3D('',#1662,#1393,#1394);
#1113=AXIS2_PLACEMENT_3D('',#1664,#1395,#1396);
#1114=AXIS2_PLACEMENT_3D('',#1665,#1397,#1398);
#1115=AXIS2_PLACEMENT_3D('',#1666,#1399,#1400);
#1116=AXIS2_PLACEMENT_3D('',#1675,#1405,#1406);
#1117=AXIS2_PLACEMENT_3D('',#1681,#1410,#1411);
#1118=AXIS2_PLACEMENT_3D('',#1687,#1415,#1416);
#1119=AXIS2_PLACEMENT_3D('',#1690,#1419,#1420);
#1120=AXIS2_PLACEMENT_3D('',#1691,#1421,#1422);
#1121=DIRECTION('',(0.,0.,1.));
#1122=DIRECTION('',(1.,0.,0.));
#1123=DIRECTION('',(0.,0.,1.));
#1124=DIRECTION('',(1.,0.,0.));
#1125=DIRECTION('',(0.,-1.,0.));
#1126=DIRECTION('',(1.,0.,0.));
#1127=DIRECTION('',(0.,-1.,0.));
#1128=DIRECTION('',(1.,0.,0.));
#1129=DIRECTION('',(0.,0.,1.));
#1130=DIRECTION('',(1.,0.,0.));
#1131=DIRECTION('',(1.,0.,0.));
#1132=DIRECTION('',(0.,-1.,0.));
#1133=DIRECTION('',(-1.,5.1222149881205E-17,0.));
#1134=DIRECTION('',(0.,-1.,0.));
#1135=DIRECTION('',(0.,0.,1.));
#1136=DIRECTION('',(1.,0.,0.));
#1137=DIRECTION('',(0.,0.,1.));
#1138=DIRECTION('',(1.,0.,0.));
#1139=DIRECTION('',(0.,0.,1.));
#1140=DIRECTION('',(1.,0.,0.));
#1141=DIRECTION('',(-1.,0.,0.));
#1142=DIRECTION('',(0.,-1.,0.));
#1143=DIRECTION('',(-1.,5.1222149881205E-17,0.));
#1144=DIRECTION('',(3.41480999208033E-16,-1.,0.));
#1145=DIRECTION('',(0.,0.,-1.));
#1146=DIRECTION('',(-1.,0.,0.));
#1147=DIRECTION('',(0.,0.,-1.));
#1148=DIRECTION('',(1.,0.,0.));
#1149=DIRECTION('',(0.,0.,-1.));
#1150=DIRECTION('',(1.,0.,0.));
#1151=DIRECTION('',(0.,0.,-1.));
#1152=DIRECTION('',(-1.,0.,0.));
#1153=DIRECTION('',(0.,0.,1.));
#1154=DIRECTION('',(1.,0.,0.));
#1155=DIRECTION('',(0.,0.,-1.));
#1156=DIRECTION('',(-1.,0.,0.));
#1157=DIRECTION('',(0.,0.,1.));
#1158=DIRECTION('',(1.,0.,0.));
#1159=DIRECTION('',(0.,0.,-1.));
#1160=DIRECTION('',(-1.,0.,0.));
#1161=DIRECTION('',(0.,0.,-1.));
#1162=DIRECTION('',(1.,0.,0.));
#1163=DIRECTION('',(0.,0.,-1.));
#1164=DIRECTION('',(1.,0.,0.));
#1165=DIRECTION('',(0.,0.,1.));
#1166=DIRECTION('',(1.,0.,0.));
#1167=DIRECTION('',(0.,-1.,0.));
#1168=DIRECTION('',(-1.,0.,0.));
#1169=DIRECTION('',(3.41480999208033E-16,-1.,0.));
#1170=DIRECTION('',(-1.,5.1222149881205E-17,0.));
#1171=DIRECTION('',(0.,0.,1.));
#1172=DIRECTION('',(1.,0.,0.));
#1173=DIRECTION('',(3.41480999208033E-16,-1.,0.));
#1174=DIRECTION('',(-1.,5.12221498812049E-17,0.));
#1175=DIRECTION('',(3.41480999208033E-16,-1.,0.));
#1176=DIRECTION('',(-1.,0.,0.));
#1177=DIRECTION('',(-3.41480999208033E-16,1.,0.));
#1178=DIRECTION('',(-1.,-3.41480999208033E-16,0.));
#1179=DIRECTION('',(-0.707106781186548,0.707106781186547,0.));
#1180=DIRECTION('',(-0.707106781186547,-0.707106781186548,0.));
#1181=DIRECTION('',(0.707106781186547,0.707106781186548,0.));
#1182=DIRECTION('',(-0.707106781186548,0.707106781186547,0.));
#1183=DIRECTION('',(1.,0.,0.));
#1184=DIRECTION('',(0.,0.,-1.));
#1185=DIRECTION('',(-1.,0.,0.));
#1186=DIRECTION('',(0.707106781186548,-0.707106781186547,0.));
#1187=DIRECTION('',(0.707106781186547,0.707106781186548,0.));
#1188=DIRECTION('',(-1.,5.1222149881205E-17,0.));
#1189=DIRECTION('',(-5.1222149881205E-17,-1.,0.));
#1190=DIRECTION('',(-0.707106781186547,-0.707106781186548,0.));
#1191=DIRECTION('',(-0.707106781186548,0.707106781186547,0.));
#1192=DIRECTION('',(-1.,5.1222149881205E-17,0.));
#1193=DIRECTION('',(3.41480999208033E-16,-1.,0.));
#1194=DIRECTION('',(1.,3.41480999208033E-16,0.));
#1195=DIRECTION('',(1.,0.,0.));
#1196=DIRECTION('',(0.,0.,-1.));
#1197=DIRECTION('',(0.,-1.,0.));
#1198=DIRECTION('',(1.,0.,0.));
#1199=DIRECTION('',(0.,0.,-1.));
#1200=DIRECTION('',(1.,0.,0.));
#1201=DIRECTION('',(0.,0.,-1.));
#1202=DIRECTION('',(1.,0.,0.));
#1203=DIRECTION('',(0.,0.,-1.));
#1204=DIRECTION('',(1.,0.,0.));
#1205=DIRECTION('',(0.,0.,-1.));
#1206=DIRECTION('',(0.,-0.976142545464071,-0.217130677093137));
#1207=DIRECTION('',(0.,0.880716593532083,-0.473643623283628));
#1208=DIRECTION('',(1.,0.,0.));
#1209=DIRECTION('',(0.,0.,-1.));
#1210=DIRECTION('',(1.,0.,0.));
#1211=DIRECTION('',(0.,0.,-1.));
#1212=DIRECTION('',(0.,0.,-1.));
#1213=DIRECTION('',(0.,0.,-1.));
#1214=DIRECTION('',(0.,-1.,0.));
#1215=DIRECTION('',(0.,0.,-1.));
#1216=DIRECTION('',(0.,0.,-1.));
#1217=DIRECTION('',(-1.,0.,0.));
#1218=DIRECTION('',(1.,0.,0.));
#1219=DIRECTION('',(0.,0.,-1.));
#1220=DIRECTION('',(0.,0.,-1.));
#1221=DIRECTION('',(1.,0.,0.));
#1222=DIRECTION('',(0.,0.,-1.));
#1223=DIRECTION('',(1.,0.,0.));
#1224=DIRECTION('',(0.,0.,-1.));
#1225=DIRECTION('',(0.,0.880716593532083,-0.473643623283628));
#1226=DIRECTION('',(0.,-0.976142545464071,-0.217130677093137));
#1227=DIRECTION('',(1.,0.,0.));
#1228=DIRECTION('',(0.,0.,-1.));
#1229=DIRECTION('',(1.,0.,0.));
#1230=DIRECTION('',(0.,0.,-1.));
#1231=DIRECTION('',(1.,0.,0.));
#1232=DIRECTION('',(0.,0.,-1.));
#1233=DIRECTION('',(1.,0.,0.));
#1234=DIRECTION('',(0.,0.,-1.));
#1235=DIRECTION('',(0.,-1.,0.));
#1236=DIRECTION('',(5.1222149881205E-17,1.,0.));
#1237=DIRECTION('',(-1.,5.1222149881205E-17,0.));
#1238=DIRECTION('',(0.,0.,1.));
#1239=DIRECTION('',(1.,0.,0.));
#1240=DIRECTION('',(1.,0.,0.));
#1241=DIRECTION('',(1.,0.,0.));
#1242=DIRECTION('',(0.,0.,-1.));
#1243=DIRECTION('',(1.,0.,0.));
#1244=DIRECTION('',(1.,0.,0.));
#1245=DIRECTION('',(1.,0.,0.));
#1246=DIRECTION('',(0.,0.,-1.));
#1247=DIRECTION('',(1.,0.,0.));
#1248=DIRECTION('',(0.,0.,-1.));
#1249=DIRECTION('',(1.,0.,0.));
#1250=DIRECTION('',(0.,0.,-1.));
#1251=DIRECTION('',(1.,0.,0.));
#1252=DIRECTION('',(1.,0.,0.));
#1253=DIRECTION('',(0.,0.,-1.));
#1254=DIRECTION('',(1.,0.,0.));
#1255=DIRECTION('',(0.,-0.473643623283628,-0.880716593532083));
#1256=DIRECTION('',(0.,0.880716593532083,-0.473643623283628));
#1257=DIRECTION('',(1.,0.,0.));
#1258=DIRECTION('',(1.,0.,0.));
#1259=DIRECTION('',(1.,0.,0.));
#1260=DIRECTION('',(0.,0.,-1.));
#1261=DIRECTION('',(0.,-0.217130677093137,0.976142545464071));
#1262=DIRECTION('',(0.,-0.976142545464071,-0.217130677093137));
#1263=DIRECTION('',(0.,0.,1.));
#1264=DIRECTION('',(1.,0.,0.));
#1265=DIRECTION('',(1.,0.,0.));
#1266=DIRECTION('',(0.,0.,-1.));
#1267=DIRECTION('',(0.,1.,0.));
#1268=DIRECTION('',(1.,0.,0.));
#1269=DIRECTION('',(0.,0.,-1.));
#1270=DIRECTION('',(0.,1.,0.));
#1271=DIRECTION('',(1.,0.,0.));
#1272=DIRECTION('',(0.,0.,-1.));
#1273=DIRECTION('',(0.,0.,1.));
#1274=DIRECTION('',(1.,0.,0.));
#1275=DIRECTION('',(0.,0.,1.));
#1276=DIRECTION('',(-1.,0.,0.));
#1277=DIRECTION('',(0.,0.,1.));
#1278=DIRECTION('',(-1.,0.,0.));
#1279=DIRECTION('',(0.,0.,1.));
#1280=DIRECTION('',(1.,0.,0.));
#1281=DIRECTION('',(0.,0.,-1.));
#1282=DIRECTION('',(-1.,0.,0.));
#1283=DIRECTION('',(0.,0.,-1.));
#1284=DIRECTION('',(-1.,0.,0.));
#1285=DIRECTION('',(0.,0.,1.));
#1286=DIRECTION('',(1.,0.,0.));
#1287=DIRECTION('',(0.,0.,-1.));
#1288=DIRECTION('',(-1.,0.,0.));
#1289=DIRECTION('',(0.,0.,-1.));
#1290=DIRECTION('',(-1.,0.,0.));
#1291=DIRECTION('',(0.,0.,1.));
#1292=DIRECTION('',(1.,0.,0.));
#1293=DIRECTION('',(0.,0.,1.));
#1294=DIRECTION('',(-1.,0.,0.));
#1295=DIRECTION('',(0.,0.,1.));
#1296=DIRECTION('',(-1.,0.,0.));
#1297=DIRECTION('',(0.,0.,-1.));
#1298=DIRECTION('',(1.,0.,0.));
#1299=DIRECTION('',(0.,0.,-1.));
#1300=DIRECTION('',(-1.,0.,0.));
#1301=DIRECTION('',(0.,0.,-1.));
#1302=DIRECTION('',(-1.,0.,0.));
#1303=DIRECTION('',(0.,0.,-1.));
#1304=DIRECTION('',(-1.,0.,0.));
#1305=DIRECTION('',(0.,0.,-1.));
#1306=DIRECTION('',(-1.,0.,0.));
#1307=DIRECTION('',(0.,0.,-1.));
#1308=DIRECTION('',(-1.,0.,0.));
#1309=DIRECTION('',(0.,0.,-1.));
#1310=DIRECTION('',(-1.,0.,0.));
#1311=DIRECTION('',(0.,0.,-1.));
#1312=DIRECTION('',(-1.,0.,0.));
#1313=DIRECTION('',(0.,0.,-1.));
#1314=DIRECTION('',(-1.,0.,0.));
#1315=DIRECTION('',(0.,0.,-1.));
#1316=DIRECTION('',(-1.,0.,0.));
#1317=DIRECTION('',(0.,0.,-1.));
#1318=DIRECTION('',(-1.,0.,0.));
#1319=DIRECTION('',(0.,1.,0.));
#1320=DIRECTION('',(-1.,-1.31338845849243E-16,0.));
#1321=DIRECTION('',(-1.,-1.31338845849243E-16,0.));
#1322=DIRECTION('',(0.,0.,-1.));
#1323=DIRECTION('',(1.,0.,0.));
#1324=DIRECTION('',(-1.,-1.31338845849243E-16,0.));
#1325=DIRECTION('',(0.,1.,0.));
#1326=DIRECTION('',(-1.,-1.31338845849243E-16,0.));
#1327=DIRECTION('',(1.,1.31338845849243E-16,0.));
#1328=DIRECTION('',(-1.31338845849243E-16,1.,0.));
#1329=DIRECTION('',(0.707106781186548,-0.707106781186548,0.));
#1330=DIRECTION('',(0.707106781186548,0.707106781186548,0.));
#1331=DIRECTION('',(0.,-1.,0.));
#1332=DIRECTION('',(0.,0.,-1.));
#1333=DIRECTION('',(-0.707106781186548,-0.707106781186548,0.));
#1334=DIRECTION('',(0.707106781186548,-0.707106781186548,0.));
#1335=DIRECTION('',(-1.,-1.31338845849243E-16,0.));
#1336=DIRECTION('',(1.31338845849243E-16,-1.,0.));
#1337=DIRECTION('',(0.,0.,-1.));
#1338=DIRECTION('',(-1.,0.,0.));
#1339=DIRECTION('',(0.,0.,-1.));
#1340=DIRECTION('',(-1.,0.,0.));
#1341=DIRECTION('',(0.,0.,-1.));
#1342=DIRECTION('',(1.,0.,0.));
#1343=DIRECTION('',(0.,0.,-1.));
#1344=DIRECTION('',(-1.,0.,0.));
#1345=DIRECTION('',(0.,0.,-1.));
#1346=DIRECTION('',(-1.,0.,0.));
#1347=DIRECTION('',(0.,0.,-1.));
#1348=DIRECTION('',(1.,0.,0.));
#1349=DIRECTION('',(0.,0.,-1.));
#1350=DIRECTION('',(-1.,0.,0.));
#1351=DIRECTION('',(0.,0.,-1.));
#1352=DIRECTION('',(-1.,0.,0.));
#1353=DIRECTION('',(0.,0.,-1.));
#1354=DIRECTION('',(1.,0.,0.));
#1355=DIRECTION('',(0.,0.,-1.));
#1356=DIRECTION('',(-1.,0.,0.));
#1357=DIRECTION('',(0.,0.,-1.));
#1358=DIRECTION('',(-1.,0.,0.));
#1359=DIRECTION('',(0.,0.,-1.));
#1360=DIRECTION('',(1.,0.,0.));
#1361=DIRECTION('',(0.,0.,-1.));
#1362=DIRECTION('',(-1.,0.,0.));
#1363=DIRECTION('',(0.,0.,-1.));
#1364=DIRECTION('',(-1.,0.,0.));
#1365=DIRECTION('',(0.,0.,-1.));
#1366=DIRECTION('',(1.,0.,0.));
#1367=DIRECTION('',(0.,0.,-1.));
#1368=DIRECTION('',(-1.,0.,0.));
#1369=DIRECTION('',(0.,0.,-1.));
#1370=DIRECTION('',(-1.,0.,0.));
#1371=DIRECTION('',(0.,0.,-1.));
#1372=DIRECTION('',(1.,0.,0.));
#1373=DIRECTION('',(0.,0.,-1.));
#1374=DIRECTION('',(-1.,0.,0.));
#1375=DIRECTION('',(0.,0.,-1.));
#1376=DIRECTION('',(-1.,0.,0.));
#1377=DIRECTION('',(0.,0.,-1.));
#1378=DIRECTION('',(1.,0.,0.));
#1379=DIRECTION('',(0.,0.,-1.));
#1380=DIRECTION('',(-1.,0.,0.));
#1381=DIRECTION('',(0.,0.,-1.));
#1382=DIRECTION('',(-1.,0.,0.));
#1383=DIRECTION('',(0.,0.,-1.));
#1384=DIRECTION('',(1.,0.,0.));
#1385=DIRECTION('',(0.,0.,-1.));
#1386=DIRECTION('',(-1.,0.,0.));
#1387=DIRECTION('',(0.,0.,-1.));
#1388=DIRECTION('',(-1.,0.,0.));
#1389=DIRECTION('',(0.,0.,-1.));
#1390=DIRECTION('',(1.,0.,0.));
#1391=DIRECTION('',(0.,0.,-1.));
#1392=DIRECTION('',(-1.,0.,0.));
#1393=DIRECTION('',(0.,0.,-1.));
#1394=DIRECTION('',(-1.,0.,0.));
#1395=DIRECTION('',(0.,0.,-1.));
#1396=DIRECTION('',(1.,0.,0.));
#1397=DIRECTION('',(0.,0.,1.));
#1398=DIRECTION('',(1.,0.,0.));
#1399=DIRECTION('',(1.,0.,0.));
#1400=DIRECTION('',(0.,0.,-1.));
#1401=DIRECTION('',(0.,-1.,0.));
#1402=DIRECTION('',(0.,0.,-1.));
#1403=DIRECTION('',(0.,-1.,0.));
#1404=DIRECTION('',(0.,0.,-1.));
#1405=DIRECTION('',(0.,-1.,0.));
#1406=DIRECTION('',(0.,0.,-1.));
#1407=DIRECTION('',(-1.,0.,0.));
#1408=DIRECTION('',(0.,0.,-1.));
#1409=DIRECTION('',(-1.,0.,0.));
#1410=DIRECTION('',(1.,0.,0.));
#1411=DIRECTION('',(0.,0.,-1.));
#1412=DIRECTION('',(0.,-1.,0.));
#1413=DIRECTION('',(0.,0.,-1.));
#1414=DIRECTION('',(0.,-1.,0.));
#1415=DIRECTION('',(0.,-1.,0.));
#1416=DIRECTION('',(0.,0.,-1.));
#1417=DIRECTION('',(-1.,0.,0.));
#1418=DIRECTION('',(-1.,0.,0.));
#1419=DIRECTION('',(0.,0.,1.));
#1420=DIRECTION('',(1.,0.,0.));
#1421=DIRECTION('',(0.,0.,1.));
#1422=DIRECTION('',(1.,0.,0.));
#1423=CARTESIAN_POINT('',(0.,0.,0.));
#1424=CARTESIAN_POINT('',(1.38777878078145E-17,0.,0.18923));
#1425=CARTESIAN_POINT('',(-0.0127,0.,0.18923));
#1426=CARTESIAN_POINT('',(-0.0127,0.00950858143190306,0.18923));
#1427=CARTESIAN_POINT('',(-0.0127,-0.00300295492125944,0.18923));
#1428=CARTESIAN_POINT('',(-0.0127,-0.00300295492125944,0.18923));
#1429=CARTESIAN_POINT('',(0.0127,-0.00300295492125944,0.18923));
#1430=CARTESIAN_POINT('',(0.0127,0.,0.18923));
#1431=CARTESIAN_POINT('',(0.0127,0.00950858143190306,0.18923));
#1432=CARTESIAN_POINT('',(-0.0127,0.00950858143190306,0.18923));
#1433=CARTESIAN_POINT('',(1.38777878078145E-17,0.,0.18923));
#1434=CARTESIAN_POINT('',(-0.0127,-0.00731672483672019,0.18923));
#1435=CARTESIAN_POINT('',(-0.0127,-0.0073167248367202,0.18923));
#1436=CARTESIAN_POINT('',(0.0127,-0.0073167248367202,0.18923));
#1437=CARTESIAN_POINT('',(-0.0127,0.,0.18923));
#1438=CARTESIAN_POINT('',(-0.0127,-0.01397,0.18923));
#1439=CARTESIAN_POINT('',(-7.15573433840434E-19,-0.01397,0.18923));
#1440=CARTESIAN_POINT('',(0.0127,-0.01397,0.18923));
#1441=CARTESIAN_POINT('',(0.0127,0.,0.18923));
#1442=CARTESIAN_POINT('',(0.,1.7347234759768E-17,0.18415));
#1443=CARTESIAN_POINT('',(0.060325,1.10004801532177E-17,0.18415));
#1444=CARTESIAN_POINT('',(0.064135,1.10004801532177E-17,0.18415));
#1445=CARTESIAN_POINT('',(0.085725,1.4111083023052E-17,0.18415));
#1446=CARTESIAN_POINT('',(0.089535,1.4111083023052E-17,0.18415));
#1447=CARTESIAN_POINT('',(-0.1016,0.01397,0.18415));
#1448=CARTESIAN_POINT('',(0.09525,0.01397,0.18415));
#1449=CARTESIAN_POINT('',(0.0127,0.01397,0.18415));
#1450=CARTESIAN_POINT('',(0.0127,0.,0.18415));
#1451=CARTESIAN_POINT('',(0.0127,-0.01397,0.18415));
#1452=CARTESIAN_POINT('',(-7.15573433840434E-19,-0.01397,0.18415));
#1453=CARTESIAN_POINT('',(0.09525,-0.01397,0.18415));
#1454=CARTESIAN_POINT('',(0.09525,4.98732999343332E-17,0.18415));
#1455=CARTESIAN_POINT('',(-0.060325,-2.39436063888476E-18,0.18415));
#1456=CARTESIAN_POINT('',(-0.060325,-2.39436063888476E-18,0.18415));
#1457=CARTESIAN_POINT('',(-0.056515,-2.39436063888476E-18,0.18415));
#1458=CARTESIAN_POINT('',(-0.060325,-2.39436063888476E-18,0.1778));
#1459=CARTESIAN_POINT('',(-0.056515,-2.39436063888476E-18,0.1778));
#1460=CARTESIAN_POINT('',(0.060325,1.10004801532177E-17,0.18415));
#1461=CARTESIAN_POINT('',(0.060325,1.10004801532177E-17,0.1778));
#1462=CARTESIAN_POINT('',(0.064135,1.10004801532177E-17,0.1778));
#1463=CARTESIAN_POINT('',(0.085725,1.4111083023052E-17,0.18415));
#1464=CARTESIAN_POINT('',(0.085725,1.4111083023052E-17,0.1778));
#1465=CARTESIAN_POINT('',(0.089535,1.4111083023052E-17,0.1778));
#1466=CARTESIAN_POINT('',(-0.085725,-4.92369073414628E-18,0.18415));
#1467=CARTESIAN_POINT('',(-0.085725,-4.92369073414628E-18,0.18415));
#1468=CARTESIAN_POINT('',(-0.081915,-4.92369073414628E-18,0.18415));
#1469=CARTESIAN_POINT('',(-0.085725,-4.92369073414628E-18,0.1778));
#1470=CARTESIAN_POINT('',(-0.081915,-4.92369073414628E-18,0.1778));
#1471=CARTESIAN_POINT('',(0.,1.7347234759768E-17,0.18415));
#1472=CARTESIAN_POINT('',(-0.0127,0.,0.18415));
#1473=CARTESIAN_POINT('',(-0.0127,0.01397,0.18415));
#1474=CARTESIAN_POINT('',(-0.0127,-0.01397,0.18415));
#1475=CARTESIAN_POINT('',(-0.1016,0.01397,0.18415));
#1476=CARTESIAN_POINT('',(-0.09525,0.01397,0.18415));
#1477=CARTESIAN_POINT('',(-0.09525,-0.02032,0.18415));
#1478=CARTESIAN_POINT('',(-0.09525,-0.01397,0.18415));
#1479=CARTESIAN_POINT('',(-7.15573433840434E-19,-0.01397,0.18415));
#1480=CARTESIAN_POINT('',(0.,1.7347234759768E-17,0.1778));
#1481=CARTESIAN_POINT('',(0.1016,2.42861286636753E-17,0.1778));
#1482=CARTESIAN_POINT('',(0.1016,0.02032,0.1778));
#1483=CARTESIAN_POINT('',(0.1016,-0.02032,0.1778));
#1484=CARTESIAN_POINT('',(6.93889390390723E-18,-0.02032,0.1778));
#1485=CARTESIAN_POINT('',(-0.1016,-0.02032,0.1778));
#1486=CARTESIAN_POINT('',(-0.1016,6.93889390390723E-18,0.1778));
#1487=CARTESIAN_POINT('',(-0.1016,0.02032,0.1778));
#1488=CARTESIAN_POINT('',(0.,0.02032,0.1778));
#1489=CARTESIAN_POINT('',(-0.09525,-1.5178830414797E-17,0.1778));
#1490=CARTESIAN_POINT('',(-0.09525,-0.01397,0.1778));
#1491=CARTESIAN_POINT('',(-0.09525,0.01397,0.1778));
#1492=CARTESIAN_POINT('',(0.,0.01397,0.1778));
#1493=CARTESIAN_POINT('',(-0.1016,0.01397,0.18415));
#1494=CARTESIAN_POINT('',(0.09525,0.01397,0.1778));
#1495=CARTESIAN_POINT('',(7.26415455565288E-18,-0.01397,0.1778));
#1496=CARTESIAN_POINT('',(0.09525,-0.01397,0.1778));
#1497=CARTESIAN_POINT('',(-7.15573433840434E-19,-0.01397,0.18415));
#1498=CARTESIAN_POINT('',(0.09525,2.21177243187043E-17,0.1778));
#1499=CARTESIAN_POINT('',(0.0127,0.,0.18923));
#1500=CARTESIAN_POINT('',(0.0127,0.,0.18923));
#1501=CARTESIAN_POINT('',(0.0127,0.01397,0.18923));
#1502=CARTESIAN_POINT('',(0.0127,0.0138223513473638,0.18923));
#1503=CARTESIAN_POINT('',(0.0127,0.00325281325532179,0.193580834922273));
#1504=CARTESIAN_POINT('',(0.0127,0.000969529611999171,0.204780456157125));
#1505=CARTESIAN_POINT('',(0.0127,0.00159511994742024,0.202955535056433));
#1506=CARTESIAN_POINT('',(0.0127,0.0022207102828408,0.201130613955741));
#1507=CARTESIAN_POINT('',(0.0127,0.00325281325532182,0.193580834922273));
#1508=CARTESIAN_POINT('',(0.0127,0.00325281325532182,0.193580834922273));
#1509=CARTESIAN_POINT('',(0.0127,-0.00432491976002893,0.194382310029853));
#1510=CARTESIAN_POINT('',(0.0127,-0.00256249566209489,0.194774339185316));
#1511=CARTESIAN_POINT('',(0.0127,-0.000800071564160846,0.195166368340778));
#1512=CARTESIAN_POINT('',(0.0127,-0.00224514916947063,0.195943521624742));
#1513=CARTESIAN_POINT('',(0.0127,-0.0036902267747802,0.196720674908706));
#1514=CARTESIAN_POINT('',(0.0127,-0.00586175468562992,0.1960547654829));
#1515=CARTESIAN_POINT('',(0.0127,-0.00739858961123064,0.197727220935947));
#1516=CARTESIAN_POINT('',(0.0127,0.00325281325532179,0.193580834922273));
#1517=CARTESIAN_POINT('',(0.0127,-0.01397,0.18923));
#1518=CARTESIAN_POINT('',(0.0127,0.01397,0.18923));
#1519=CARTESIAN_POINT('',(-0.1016,0.01397,0.18923));
#1520=CARTESIAN_POINT('',(-0.0127,0.01397,0.18923));
#1521=CARTESIAN_POINT('',(-0.0127,0.01397,0.18923));
#1522=CARTESIAN_POINT('',(-0.1016,0.01397,0.18923));
#1523=CARTESIAN_POINT('',(-0.0127,0.,0.18923));
#1524=CARTESIAN_POINT('',(-0.0127,-0.01397,0.18923));
#1525=CARTESIAN_POINT('',(-0.0127,0.00325281325532179,0.193580834922273));
#1526=CARTESIAN_POINT('',(-0.0127,-0.00739858961123064,0.197727220935947));
#1527=CARTESIAN_POINT('',(-0.0127,-0.00586175468562992,0.1960547654829));
#1528=CARTESIAN_POINT('',(-0.0127,-0.0036902267747802,0.196720674908706));
#1529=CARTESIAN_POINT('',(-0.0127,-0.00224514916947063,0.195943521624742));
#1530=CARTESIAN_POINT('',(-0.0127,-0.000800071564160846,0.195166368340778));
#1531=CARTESIAN_POINT('',(-0.0127,-0.00256249566209489,0.194774339185316));
#1532=CARTESIAN_POINT('',(-0.0127,-0.00432491976002893,0.194382310029853));
#1533=CARTESIAN_POINT('',(-0.0127,0.00325281325532182,0.193580834922273));
#1534=CARTESIAN_POINT('',(-0.0127,0.00325281325532182,0.193580834922273));
#1535=CARTESIAN_POINT('',(-0.0127,0.0022207102828408,0.201130613955741));
#1536=CARTESIAN_POINT('',(-0.0127,0.00159511994742024,0.202955535056433));
#1537=CARTESIAN_POINT('',(-0.0127,0.000969529611999171,0.204780456157125));
#1538=CARTESIAN_POINT('',(-0.0127,0.00325281325532179,0.193580834922273));
#1539=CARTESIAN_POINT('',(-0.0127,0.0138223513473638,0.18923));
#1540=CARTESIAN_POINT('',(-0.0127,0.,0.18923));
#1541=CARTESIAN_POINT('',(-7.15573433840434E-19,-0.01397,0.18923));
#1542=CARTESIAN_POINT('',(1.38777878078145E-17,0.,0.18923));
#1543=CARTESIAN_POINT('',(-0.0127,0.0138223513473638,0.18923));
#1544=CARTESIAN_POINT('',(-0.0127,0.00159511994742024,0.202955535056433));
#1545=CARTESIAN_POINT('',(-0.0127,0.000969529611999171,0.204780456157125));
#1546=CARTESIAN_POINT('',(-0.0127,0.0022207102828408,0.201130613955741));
#1547=CARTESIAN_POINT('',(-0.0127,0.00325281325532182,0.193580834922273));
#1548=CARTESIAN_POINT('',(-0.0127,0.00325281325532179,0.193580834922273));
#1549=CARTESIAN_POINT('',(-0.0127,0.00325281325532179,0.193580834922273));
#1550=CARTESIAN_POINT('',(-0.0127,-0.00739858961123064,0.197727220935947));
#1551=CARTESIAN_POINT('',(-0.0127,0.00325281325532182,0.193580834922273));
#1552=CARTESIAN_POINT('',(-0.0127,-0.00432491976002893,0.194382310029853));
#1553=CARTESIAN_POINT('',(-0.0127,-0.00224514916947063,0.195943521624742));
#1554=CARTESIAN_POINT('',(-0.0127,-0.000800071564160846,0.195166368340778));
#1555=CARTESIAN_POINT('',(-0.0127,-0.0036902267747802,0.196720674908706));
#1556=CARTESIAN_POINT('',(-0.0127,-0.00586175468562992,0.1960547654829));
#1557=CARTESIAN_POINT('',(-0.0127,-0.00256249566209489,0.194774339185316));
#1558=CARTESIAN_POINT('',(0.,0.,0.));
#1559=CARTESIAN_POINT('',(0.06604,0.,-0.18415));
#1560=CARTESIAN_POINT('',(0.06604,0.,-0.18415));
#1561=CARTESIAN_POINT('',(0.06604,-0.01397,-0.18415));
#1562=CARTESIAN_POINT('',(0.06604,0.01397,-0.18415));
#1563=CARTESIAN_POINT('',(0.06604,0.01397,-0.1778));
#1564=CARTESIAN_POINT('',(0.06604,0.02032,-0.1778));
#1565=CARTESIAN_POINT('',(0.06604,0.,-0.1778));
#1566=CARTESIAN_POINT('',(0.06604,-0.02032,-0.1778));
#1567=CARTESIAN_POINT('',(0.06604,-0.01397,-0.1778));
#1568=CARTESIAN_POINT('',(-0.050165,-2.15409248736023E-17,-0.18415));
#1569=CARTESIAN_POINT('',(-0.050165,-2.15409248736023E-17,-0.18415));
#1570=CARTESIAN_POINT('',(-0.053975,-2.15409248736023E-17,-0.18415));
#1571=CARTESIAN_POINT('',(-0.050165,-2.15409248736023E-17,-0.1778));
#1572=CARTESIAN_POINT('',(-0.053975,-2.15409248736023E-17,-0.1778));
#1573=CARTESIAN_POINT('',(0.024765,3.61111864572607E-33,-0.18415));
#1574=CARTESIAN_POINT('',(0.024765,3.61111864572607E-33,-0.18415));
#1575=CARTESIAN_POINT('',(0.020955,3.61111864572607E-33,-0.18415));
#1576=CARTESIAN_POINT('',(0.024765,3.61111864572607E-33,-0.1778));
#1577=CARTESIAN_POINT('',(0.020955,3.61111864572607E-33,-0.1778));
#1578=CARTESIAN_POINT('',(0.050165,-3.11060286983428E-18,-0.18415));
#1579=CARTESIAN_POINT('',(0.050165,-3.11060286983428E-18,-0.18415));
#1580=CARTESIAN_POINT('',(0.046355,-3.11060286983428E-18,-0.18415));
#1581=CARTESIAN_POINT('',(0.050165,-3.11060286983428E-18,-0.1778));
#1582=CARTESIAN_POINT('',(0.046355,-3.11060286983428E-18,-0.1778));
#1583=CARTESIAN_POINT('',(-0.024765,-9.09851339426526E-18,-0.18415));
#1584=CARTESIAN_POINT('',(-0.024765,-9.09851339426526E-18,-0.18415));
#1585=CARTESIAN_POINT('',(-0.028575,-9.09851339426526E-18,-0.18415));
#1586=CARTESIAN_POINT('',(-0.024765,-9.09851339426526E-18,-0.1778));
#1587=CARTESIAN_POINT('',(-0.028575,-9.09851339426526E-18,-0.1778));
#1588=CARTESIAN_POINT('',(0.,-6.93889390390723E-18,-0.18415));
#1589=CARTESIAN_POINT('',(0.010795,0.00635,-0.18415));
#1590=CARTESIAN_POINT('',(0.006985,0.00635,-0.18415));
#1591=CARTESIAN_POINT('',(0.034925,-0.00635,-0.18415));
#1592=CARTESIAN_POINT('',(0.031115,-0.00635,-0.18415));
#1593=CARTESIAN_POINT('',(0.034925,0.00635,-0.18415));
#1594=CARTESIAN_POINT('',(0.031115,0.00635,-0.18415));
#1595=CARTESIAN_POINT('',(0.059055,-0.00635,-0.18415));
#1596=CARTESIAN_POINT('',(0.055245,-0.00635,-0.18415));
#1597=CARTESIAN_POINT('',(-0.037465,0.00635,-0.18415));
#1598=CARTESIAN_POINT('',(-0.041275,0.00635,-0.18415));
#1599=CARTESIAN_POINT('',(-0.013335,-0.00635,-0.18415));
#1600=CARTESIAN_POINT('',(-0.017145,-0.00635,-0.18415));
#1601=CARTESIAN_POINT('',(-0.013335,0.00635,-0.18415));
#1602=CARTESIAN_POINT('',(-0.017145,0.00635,-0.18415));
#1603=CARTESIAN_POINT('',(0.010795,-0.00635,-0.18415));
#1604=CARTESIAN_POINT('',(0.006985,-0.00635,-0.18415));
#1605=CARTESIAN_POINT('',(0.059055,0.00635,-0.18415));
#1606=CARTESIAN_POINT('',(0.055245,0.00635,-0.18415));
#1607=CARTESIAN_POINT('',(-0.037465,-0.00635,-0.18415));
#1608=CARTESIAN_POINT('',(-0.041275,-0.00635,-0.18415));
#1609=CARTESIAN_POINT('',(-0.05969,0.02032,-0.18415));
#1610=CARTESIAN_POINT('',(-0.05969,-0.01397,-0.18415));
#1611=CARTESIAN_POINT('',(-0.05969,0.01397,-0.18415));
#1612=CARTESIAN_POINT('',(-1.83480367651393E-18,0.01397,-0.18415));
#1613=CARTESIAN_POINT('',(-0.06604,-0.01397,-0.18415));
#1614=CARTESIAN_POINT('',(0.,-6.93889390390723E-18,-0.1778));
#1615=CARTESIAN_POINT('',(-6.93889390390723E-18,0.02032,-0.1778));
#1616=CARTESIAN_POINT('',(-0.06604,0.02032,-0.1778));
#1617=CARTESIAN_POINT('',(-0.06604,0.,-0.1778));
#1618=CARTESIAN_POINT('',(-0.06604,-0.02032,-0.1778));
#1619=CARTESIAN_POINT('',(0.,-0.02032,-0.1778));
#1620=CARTESIAN_POINT('',(1.83480367651393E-18,-0.01397,-0.1778));
#1621=CARTESIAN_POINT('',(-0.05969,-0.01397,-0.1778));
#1622=CARTESIAN_POINT('',(-0.05969,-6.93889390390723E-18,-0.1778));
#1623=CARTESIAN_POINT('',(-0.05969,0.01397,-0.1778));
#1624=CARTESIAN_POINT('',(-6.10489223276453E-18,0.01397,-0.1778));
#1625=CARTESIAN_POINT('',(-0.037465,-0.00635,-0.18161));
#1626=CARTESIAN_POINT('',(-0.037465,-0.00635,-0.18161));
#1627=CARTESIAN_POINT('',(-0.041275,-0.00635,-0.18161));
#1628=CARTESIAN_POINT('',(0.003175,-6.93889390390723E-18,-0.18161));
#1629=CARTESIAN_POINT('',(0.059055,0.00635,-0.18161));
#1630=CARTESIAN_POINT('',(0.059055,0.00635,-0.18161));
#1631=CARTESIAN_POINT('',(0.055245,0.00635,-0.18161));
#1632=CARTESIAN_POINT('',(0.003175,-6.93889390390723E-18,-0.18161));
#1633=CARTESIAN_POINT('',(0.010795,-0.00635,-0.18161));
#1634=CARTESIAN_POINT('',(0.010795,-0.00635,-0.18161));
#1635=CARTESIAN_POINT('',(0.006985,-0.00635,-0.18161));
#1636=CARTESIAN_POINT('',(0.003175,-6.93889390390723E-18,-0.18161));
#1637=CARTESIAN_POINT('',(-0.013335,0.00635,-0.18161));
#1638=CARTESIAN_POINT('',(-0.013335,0.00635,-0.18161));
#1639=CARTESIAN_POINT('',(-0.017145,0.00635,-0.18161));
#1640=CARTESIAN_POINT('',(0.003175,-6.93889390390723E-18,-0.18161));
#1641=CARTESIAN_POINT('',(-0.013335,-0.00635,-0.18161));
#1642=CARTESIAN_POINT('',(-0.013335,-0.00635,-0.18161));
#1643=CARTESIAN_POINT('',(-0.017145,-0.00635,-0.18161));
#1644=CARTESIAN_POINT('',(0.003175,-6.93889390390723E-18,-0.18161));
#1645=CARTESIAN_POINT('',(-0.037465,0.00635,-0.18161));
#1646=CARTESIAN_POINT('',(-0.037465,0.00635,-0.18161));
#1647=CARTESIAN_POINT('',(-0.041275,0.00635,-0.18161));
#1648=CARTESIAN_POINT('',(0.003175,-6.93889390390723E-18,-0.18161));
#1649=CARTESIAN_POINT('',(0.059055,-0.00635,-0.18161));
#1650=CARTESIAN_POINT('',(0.059055,-0.00635,-0.18161));
#1651=CARTESIAN_POINT('',(0.055245,-0.00635,-0.18161));
#1652=CARTESIAN_POINT('',(0.003175,-6.93889390390723E-18,-0.18161));
#1653=CARTESIAN_POINT('',(0.034925,0.00635,-0.18161));
#1654=CARTESIAN_POINT('',(0.034925,0.00635,-0.18161));
#1655=CARTESIAN_POINT('',(0.031115,0.00635,-0.18161));
#1656=CARTESIAN_POINT('',(0.003175,-6.93889390390723E-18,-0.18161));
#1657=CARTESIAN_POINT('',(0.034925,-0.00635,-0.18161));
#1658=CARTESIAN_POINT('',(0.034925,-0.00635,-0.18161));
#1659=CARTESIAN_POINT('',(0.031115,-0.00635,-0.18161));
#1660=CARTESIAN_POINT('',(0.003175,-6.93889390390723E-18,-0.18161));
#1661=CARTESIAN_POINT('',(0.010795,0.00635,-0.18161));
#1662=CARTESIAN_POINT('',(0.010795,0.00635,-0.18161));
#1663=CARTESIAN_POINT('',(0.006985,0.00635,-0.18161));
#1664=CARTESIAN_POINT('',(0.003175,-6.93889390390723E-18,-0.18161));
#1665=CARTESIAN_POINT('',(0.,0.,0.));
#1666=CARTESIAN_POINT('',(0.13335,0.,0.1778));
#1667=CARTESIAN_POINT('',(0.13335,0.,-0.1778));
#1668=CARTESIAN_POINT('',(0.13335,0.01905,-0.1778));
#1669=CARTESIAN_POINT('',(0.13335,-0.01905,-0.1778));
#1670=CARTESIAN_POINT('',(0.13335,0.01905,0.1778));
#1671=CARTESIAN_POINT('',(0.13335,0.01905,0.1778));
#1672=CARTESIAN_POINT('',(0.13335,0.,0.1778));
#1673=CARTESIAN_POINT('',(0.13335,-0.01905,0.1778));
#1674=CARTESIAN_POINT('',(0.13335,-0.01905,0.1778));
#1675=CARTESIAN_POINT('',(0.,0.01905,0.1778));
#1676=CARTESIAN_POINT('',(0.,0.01905,-0.1778));
#1677=CARTESIAN_POINT('',(-0.13335,0.01905,-0.1778));
#1678=CARTESIAN_POINT('',(-0.13335,0.01905,0.1778));
#1679=CARTESIAN_POINT('',(-0.13335,0.01905,0.1778));
#1680=CARTESIAN_POINT('',(0.,0.01905,0.1778));
#1681=CARTESIAN_POINT('',(-0.13335,0.,0.1778));
#1682=CARTESIAN_POINT('',(-0.13335,0.,-0.1778));
#1683=CARTESIAN_POINT('',(-0.13335,-0.01905,-0.1778));
#1684=CARTESIAN_POINT('',(-0.13335,-0.01905,0.1778));
#1685=CARTESIAN_POINT('',(-0.13335,-0.01905,0.1778));
#1686=CARTESIAN_POINT('',(-0.13335,0.,0.1778));
#1687=CARTESIAN_POINT('',(0.,-0.01905,0.1778));
#1688=CARTESIAN_POINT('',(0.,-0.01905,-0.1778));
#1689=CARTESIAN_POINT('',(0.,-0.01905,0.1778));
#1690=CARTESIAN_POINT('',(0.,0.,0.1778));
#1691=CARTESIAN_POINT('',(0.,0.,-0.1778));
#1692=MECHANICAL_DESIGN_GEOMETRIC_PRESENTATION_REPRESENTATION('',(#967),
#1695);
#1693=MECHANICAL_DESIGN_GEOMETRIC_PRESENTATION_REPRESENTATION('',(#968),
#1696);
#1694=MECHANICAL_DESIGN_GEOMETRIC_PRESENTATION_REPRESENTATION('',(#969),
#1697);
#1695=(
GEOMETRIC_REPRESENTATION_CONTEXT(3)
GLOBAL_UNCERTAINTY_ASSIGNED_CONTEXT((#1698))
GLOBAL_UNIT_ASSIGNED_CONTEXT((#1707,#1704,#1701))
REPRESENTATION_CONTEXT('Claw Piece','TOP_LEVEL_ASSEMBLY_PART')
);
#1696=(
GEOMETRIC_REPRESENTATION_CONTEXT(3)
GLOBAL_UNCERTAINTY_ASSIGNED_CONTEXT((#1699))
GLOBAL_UNIT_ASSIGNED_CONTEXT((#1708,#1705,#1702))
REPRESENTATION_CONTEXT('Wood Spring Piece','TOP_LEVEL_ASSEMBLY_PART')
);
#1697=(
GEOMETRIC_REPRESENTATION_CONTEXT(3)
GLOBAL_UNCERTAINTY_ASSIGNED_CONTEXT((#1700))
GLOBAL_UNIT_ASSIGNED_CONTEXT((#1709,#1706,#1703))
REPRESENTATION_CONTEXT('Wood','TOP_LEVEL_ASSEMBLY_PART')
);
#1698=UNCERTAINTY_MEASURE_WITH_UNIT(LENGTH_MEASURE(1.E-8),#1707,
'DISTANCE_ACCURACY_VALUE','Maximum Tolerance applied to model');
#1699=UNCERTAINTY_MEASURE_WITH_UNIT(LENGTH_MEASURE(1.E-8),#1708,
'DISTANCE_ACCURACY_VALUE','Maximum Tolerance applied to model');
#1700=UNCERTAINTY_MEASURE_WITH_UNIT(LENGTH_MEASURE(1.E-8),#1709,
'DISTANCE_ACCURACY_VALUE','Maximum Tolerance applied to model');
#1701=(
NAMED_UNIT(*)
SI_UNIT($,.STERADIAN.)
SOLID_ANGLE_UNIT()
);
#1702=(
NAMED_UNIT(*)
SI_UNIT($,.STERADIAN.)
SOLID_ANGLE_UNIT()
);
#1703=(
NAMED_UNIT(*)
SI_UNIT($,.STERADIAN.)
SOLID_ANGLE_UNIT()
);
#1704=(
NAMED_UNIT(*)
PLANE_ANGLE_UNIT()
SI_UNIT($,.RADIAN.)
);
#1705=(
NAMED_UNIT(*)
PLANE_ANGLE_UNIT()
SI_UNIT($,.RADIAN.)
);
#1706=(
NAMED_UNIT(*)
PLANE_ANGLE_UNIT()
SI_UNIT($,.RADIAN.)
);
#1707=(
LENGTH_UNIT()
NAMED_UNIT(*)
SI_UNIT($,.METRE.)
);
#1708=(
LENGTH_UNIT()
NAMED_UNIT(*)
SI_UNIT($,.METRE.)
);
#1709=(
LENGTH_UNIT()
NAMED_UNIT(*)
SI_UNIT($,.METRE.)
);
#1710=PRODUCT_DEFINITION_SHAPE('','',#1713);
#1711=PRODUCT_DEFINITION_SHAPE('','',#1714);
#1712=PRODUCT_DEFINITION_SHAPE('','',#1715);
#1713=PRODUCT_DEFINITION('','',#1719,#1716);
#1714=PRODUCT_DEFINITION('','',#1720,#1717);
#1715=PRODUCT_DEFINITION('','',#1721,#1718);
#1716=PRODUCT_DEFINITION_CONTEXT('',#1737,'design');
#1717=PRODUCT_DEFINITION_CONTEXT('',#1738,'design');
#1718=PRODUCT_DEFINITION_CONTEXT('',#1739,'design');
#1719=PRODUCT_DEFINITION_FORMATION_WITH_SPECIFIED_SOURCE('','',#1725,
 .NOT_KNOWN.);
#1720=PRODUCT_DEFINITION_FORMATION_WITH_SPECIFIED_SOURCE('','',#1726,
 .NOT_KNOWN.);
#1721=PRODUCT_DEFINITION_FORMATION_WITH_SPECIFIED_SOURCE('','',#1727,
 .NOT_KNOWN.);
#1722=PRODUCT_RELATED_PRODUCT_CATEGORY('','',(#1725));
#1723=PRODUCT_RELATED_PRODUCT_CATEGORY('','',(#1726));
#1724=PRODUCT_RELATED_PRODUCT_CATEGORY('','',(#1727));
#1725=PRODUCT('Claw Piece','Claw Piece','Claw Piece',(#1731));
#1726=PRODUCT('Wood Spring Piece','Wood Spring Piece',
'Wood Spring Piece',(#1732));
#1727=PRODUCT('Wood','Wood','Wood',(#1733));
#1728=PRODUCT_CATEGORY('','');
#1729=PRODUCT_CATEGORY('','');
#1730=PRODUCT_CATEGORY('','');
#1731=PRODUCT_CONTEXT('',#1737,'mechanical');
#1732=PRODUCT_CONTEXT('',#1738,'mechanical');
#1733=PRODUCT_CONTEXT('',#1739,'mechanical');
#1734=APPLICATION_PROTOCOL_DEFINITION('international standard',
'ap242_managed_model_based_3d_engineering',2020,#1737);
#1735=APPLICATION_PROTOCOL_DEFINITION('international standard',
'ap242_managed_model_based_3d_engineering',2020,#1738);
#1736=APPLICATION_PROTOCOL_DEFINITION('international standard',
'ap242_managed_model_based_3d_engineering',2020,#1739);
#1737=APPLICATION_CONTEXT('managed model based 3d engineering');
#1738=APPLICATION_CONTEXT('managed model based 3d engineering');
#1739=APPLICATION_CONTEXT('managed model based 3d engineering');
ENDSEC;
END-ISO-10303-21;
