ISO-10303-21;
HEADER;
/* Generated by software containing ST-Developer
 * from STEP Tools, Inc. (www.steptools.com) 
 */
/* OPTION: using custom renumber hook */

FILE_DESCRIPTION(
/* description */ ('STEP AP242 Edition 2',
'CAx-IF Rec.Pracs.---Representation and Presentation of Product Manufa
cturing Information (PMI)---4.0---2014-10-13',
'CAx-IF Rec.Pracs.---3D Tessellated Geometry---0.4---2014-09-14','2;1',
'CAx-IF Rec.Pracs.---User Defined Attributes---1.5---2016-08-15'),
/* implementation_level */ '2;1');

FILE_NAME(
/* name */ 'StackingFemale Top',
/* time_stamp */ '2026-08-06T17:44:35Z',
/* author */ (''),
/* organization */ (''),
/* preprocessor_version */ 'ST-DEVELOPER v20',
/* originating_system */ 'ONSHAPE BY PTC INC, 1.218',
/* authorisation */ '  ');

FILE_SCHEMA (('AP242_MANAGED_MODEL_BASED_3D_ENGINEERING_MIM_LF { 1 0 10303 442 3 1 4 }'));
ENDSEC;

DATA;
#10=SHAPE_REPRESENTATION_RELATIONSHIP('','',#470,#11);
#11=ADVANCED_BREP_SHAPE_REPRESENTATION('',(#468),#822);
#12=ELLIPSE('',#499,0.00898025612106916,0.00635);
#13=ELLIPSE('',#501,0.00898025612106915,0.00635);
#14=LINE('',#708,#29);
#15=LINE('',#713,#30);
#16=LINE('',#715,#31);
#17=LINE('',#717,#32);
#18=LINE('',#721,#33);
#19=LINE('',#724,#34);
#20=LINE('',#725,#35);
#21=LINE('',#727,#36);
#22=LINE('',#730,#37);
#23=LINE('',#731,#38);
#24=LINE('',#733,#39);
#25=LINE('',#734,#40);
#26=LINE('',#756,#41);
#27=LINE('',#759,#42);
#28=LINE('',#760,#43);
#29=VECTOR('',#557,1.);
#30=VECTOR('',#560,1.);
#31=VECTOR('',#561,1.);
#32=VECTOR('',#562,1.);
#33=VECTOR('',#567,1.);
#34=VECTOR('',#568,1.);
#35=VECTOR('',#569,1.);
#36=VECTOR('',#572,1.);
#37=VECTOR('',#573,1.);
#38=VECTOR('',#574,1.);
#39=VECTOR('',#577,1.);
#40=VECTOR('',#578,1.);
#41=VECTOR('',#601,1.);
#42=VECTOR('',#602,1.);
#43=VECTOR('',#603,1.);
#44=PLANE('',#478);
#45=PLANE('',#481);
#46=PLANE('',#482);
#47=PLANE('',#483);
#48=PLANE('',#484);
#49=PLANE('',#495);
#50=PLANE('',#505);
#51=PLANE('',#508);
#52=PLANE('',#511);
#53=PLANE('',#514);
#54=PLANE('',#517);
#55=PLANE('',#520);
#56=PLANE('',#523);
#57=PLANE('',#526);
#58=PLANE('',#529);
#59=PLANE('',#532);
#60=PLANE('',#533);
#61=PLANE('',#534);
#62=PLANE('',#535);
#63=PLANE('',#538);
#64=ORIENTED_EDGE('',*,*,#158,.F.);
#65=ORIENTED_EDGE('',*,*,#159,.T.);
#66=ORIENTED_EDGE('',*,*,#160,.T.);
#67=ORIENTED_EDGE('',*,*,#161,.F.);
#68=ORIENTED_EDGE('',*,*,#162,.T.);
#69=ORIENTED_EDGE('',*,*,#163,.T.);
#70=ORIENTED_EDGE('',*,*,#164,.T.);
#71=ORIENTED_EDGE('',*,*,#165,.F.);
#72=ORIENTED_EDGE('',*,*,#166,.F.);
#73=ORIENTED_EDGE('',*,*,#167,.T.);
#74=ORIENTED_EDGE('',*,*,#168,.F.);
#75=ORIENTED_EDGE('',*,*,#169,.T.);
#76=ORIENTED_EDGE('',*,*,#166,.T.);
#77=ORIENTED_EDGE('',*,*,#170,.T.);
#78=ORIENTED_EDGE('',*,*,#171,.F.);
#79=ORIENTED_EDGE('',*,*,#172,.T.);
#80=ORIENTED_EDGE('',*,*,#168,.T.);
#81=ORIENTED_EDGE('',*,*,#173,.T.);
#82=ORIENTED_EDGE('',*,*,#164,.F.);
#83=ORIENTED_EDGE('',*,*,#174,.T.);
#84=ORIENTED_EDGE('',*,*,#171,.T.);
#85=ORIENTED_EDGE('',*,*,#175,.F.);
#86=ORIENTED_EDGE('',*,*,#176,.F.);
#87=ORIENTED_EDGE('',*,*,#177,.F.);
#88=ORIENTED_EDGE('',*,*,#178,.F.);
#89=ORIENTED_EDGE('',*,*,#179,.F.);
#90=ORIENTED_EDGE('',*,*,#180,.F.);
#91=ORIENTED_EDGE('',*,*,#181,.F.);
#92=ORIENTED_EDGE('',*,*,#182,.F.);
#93=ORIENTED_EDGE('',*,*,#183,.F.);
#94=ORIENTED_EDGE('',*,*,#184,.F.);
#95=ORIENTED_EDGE('',*,*,#185,.F.);
#96=ORIENTED_EDGE('',*,*,#186,.T.);
#97=ORIENTED_EDGE('',*,*,#187,.T.);
#98=ORIENTED_EDGE('',*,*,#162,.F.);
#99=ORIENTED_EDGE('',*,*,#188,.T.);
#100=ORIENTED_EDGE('',*,*,#165,.T.);
#101=ORIENTED_EDGE('',*,*,#175,.T.);
#102=ORIENTED_EDGE('',*,*,#173,.F.);
#103=ORIENTED_EDGE('',*,*,#170,.F.);
#104=ORIENTED_EDGE('',*,*,#189,.T.);
#105=ORIENTED_EDGE('',*,*,#158,.T.);
#106=ORIENTED_EDGE('',*,*,#190,.F.);
#107=ORIENTED_EDGE('',*,*,#160,.F.);
#108=ORIENTED_EDGE('',*,*,#167,.F.);
#109=ORIENTED_EDGE('',*,*,#169,.F.);
#110=ORIENTED_EDGE('',*,*,#191,.F.);
#111=ORIENTED_EDGE('',*,*,#188,.F.);
#112=ORIENTED_EDGE('',*,*,#191,.T.);
#113=ORIENTED_EDGE('',*,*,#172,.F.);
#114=ORIENTED_EDGE('',*,*,#192,.F.);
#115=ORIENTED_EDGE('',*,*,#186,.F.);
#116=ORIENTED_EDGE('',*,*,#163,.F.);
#117=ORIENTED_EDGE('',*,*,#187,.F.);
#118=ORIENTED_EDGE('',*,*,#192,.T.);
#119=ORIENTED_EDGE('',*,*,#174,.F.);
#120=ORIENTED_EDGE('',*,*,#193,.F.);
#121=ORIENTED_EDGE('',*,*,#185,.T.);
#122=ORIENTED_EDGE('',*,*,#193,.T.);
#123=ORIENTED_EDGE('',*,*,#194,.F.);
#124=ORIENTED_EDGE('',*,*,#184,.T.);
#125=ORIENTED_EDGE('',*,*,#194,.T.);
#126=ORIENTED_EDGE('',*,*,#195,.F.);
#127=ORIENTED_EDGE('',*,*,#183,.T.);
#128=ORIENTED_EDGE('',*,*,#195,.T.);
#129=ORIENTED_EDGE('',*,*,#196,.F.);
#130=ORIENTED_EDGE('',*,*,#182,.T.);
#131=ORIENTED_EDGE('',*,*,#196,.T.);
#132=ORIENTED_EDGE('',*,*,#197,.F.);
#133=ORIENTED_EDGE('',*,*,#181,.T.);
#134=ORIENTED_EDGE('',*,*,#197,.T.);
#135=ORIENTED_EDGE('',*,*,#198,.F.);
#136=ORIENTED_EDGE('',*,*,#180,.T.);
#137=ORIENTED_EDGE('',*,*,#198,.T.);
#138=ORIENTED_EDGE('',*,*,#199,.F.);
#139=ORIENTED_EDGE('',*,*,#179,.T.);
#140=ORIENTED_EDGE('',*,*,#199,.T.);
#141=ORIENTED_EDGE('',*,*,#200,.F.);
#142=ORIENTED_EDGE('',*,*,#178,.T.);
#143=ORIENTED_EDGE('',*,*,#200,.T.);
#144=ORIENTED_EDGE('',*,*,#201,.F.);
#145=ORIENTED_EDGE('',*,*,#177,.T.);
#146=ORIENTED_EDGE('',*,*,#201,.T.);
#147=ORIENTED_EDGE('',*,*,#202,.F.);
#148=ORIENTED_EDGE('',*,*,#176,.T.);
#149=ORIENTED_EDGE('',*,*,#202,.T.);
#150=ORIENTED_EDGE('',*,*,#161,.T.);
#151=ORIENTED_EDGE('',*,*,#159,.F.);
#152=ORIENTED_EDGE('',*,*,#203,.T.);
#153=ORIENTED_EDGE('',*,*,#203,.F.);
#154=ORIENTED_EDGE('',*,*,#190,.T.);
#155=ORIENTED_EDGE('',*,*,#204,.F.);
#156=ORIENTED_EDGE('',*,*,#204,.T.);
#157=ORIENTED_EDGE('',*,*,#189,.F.);
#158=EDGE_CURVE('',#205,#205,#245,.T.);
#159=EDGE_CURVE('',#206,#206,#246,.T.);
#160=EDGE_CURVE('',#207,#207,#247,.T.);
#161=EDGE_CURVE('',#208,#208,#248,.F.);
#162=EDGE_CURVE('',#209,#210,#14,.T.);
#163=EDGE_CURVE('',#210,#211,#249,.T.);
#164=EDGE_CURVE('',#211,#212,#15,.T.);
#165=EDGE_CURVE('',#213,#212,#16,.T.);
#166=EDGE_CURVE('',#214,#213,#17,.T.);
#167=EDGE_CURVE('',#214,#209,#250,.T.);
#168=EDGE_CURVE('',#215,#216,#18,.T.);
#169=EDGE_CURVE('',#215,#214,#19,.F.);
#170=EDGE_CURVE('',#213,#216,#20,.T.);
#171=EDGE_CURVE('',#217,#218,#21,.T.);
#172=EDGE_CURVE('',#217,#215,#22,.F.);
#173=EDGE_CURVE('',#216,#218,#23,.T.);
#174=EDGE_CURVE('',#211,#217,#24,.T.);
#175=EDGE_CURVE('',#212,#218,#25,.T.);
#176=EDGE_CURVE('',#219,#219,#251,.T.);
#177=EDGE_CURVE('',#220,#220,#252,.T.);
#178=EDGE_CURVE('',#221,#221,#253,.T.);
#179=EDGE_CURVE('',#222,#222,#254,.T.);
#180=EDGE_CURVE('',#223,#223,#255,.T.);
#181=EDGE_CURVE('',#224,#224,#256,.T.);
#182=EDGE_CURVE('',#225,#225,#257,.T.);
#183=EDGE_CURVE('',#226,#226,#258,.T.);
#184=EDGE_CURVE('',#227,#227,#259,.T.);
#185=EDGE_CURVE('',#228,#228,#260,.T.);
#186=EDGE_CURVE('',#229,#230,#26,.T.);
#187=EDGE_CURVE('',#230,#210,#27,.F.);
#188=EDGE_CURVE('',#209,#229,#28,.T.);
#189=EDGE_CURVE('',#231,#231,#261,.T.);
#190=EDGE_CURVE('',#232,#232,#262,.T.);
#191=EDGE_CURVE('',#229,#215,#12,.F.);
#192=EDGE_CURVE('',#230,#217,#13,.F.);
#193=EDGE_CURVE('',#233,#233,#263,.T.);
#194=EDGE_CURVE('',#234,#234,#264,.T.);
#195=EDGE_CURVE('',#235,#235,#265,.T.);
#196=EDGE_CURVE('',#236,#236,#266,.T.);
#197=EDGE_CURVE('',#237,#237,#267,.T.);
#198=EDGE_CURVE('',#238,#238,#268,.T.);
#199=EDGE_CURVE('',#239,#239,#269,.T.);
#200=EDGE_CURVE('',#240,#240,#270,.T.);
#201=EDGE_CURVE('',#241,#241,#271,.T.);
#202=EDGE_CURVE('',#242,#242,#272,.T.);
#203=EDGE_CURVE('',#243,#243,#273,.T.);
#204=EDGE_CURVE('',#244,#244,#274,.T.);
#205=VERTEX_POINT('',#699);
#206=VERTEX_POINT('',#701);
#207=VERTEX_POINT('',#704);
#208=VERTEX_POINT('',#706);
#209=VERTEX_POINT('',#709);
#210=VERTEX_POINT('',#710);
#211=VERTEX_POINT('',#712);
#212=VERTEX_POINT('',#714);
#213=VERTEX_POINT('',#716);
#214=VERTEX_POINT('',#718);
#215=VERTEX_POINT('',#722);
#216=VERTEX_POINT('',#723);
#217=VERTEX_POINT('',#728);
#218=VERTEX_POINT('',#729);
#219=VERTEX_POINT('',#737);
#220=VERTEX_POINT('',#739);
#221=VERTEX_POINT('',#741);
#222=VERTEX_POINT('',#743);
#223=VERTEX_POINT('',#745);
#224=VERTEX_POINT('',#747);
#225=VERTEX_POINT('',#749);
#226=VERTEX_POINT('',#751);
#227=VERTEX_POINT('',#753);
#228=VERTEX_POINT('',#755);
#229=VERTEX_POINT('',#757);
#230=VERTEX_POINT('',#758);
#231=VERTEX_POINT('',#763);
#232=VERTEX_POINT('',#765);
#233=VERTEX_POINT('',#773);
#234=VERTEX_POINT('',#777);
#235=VERTEX_POINT('',#781);
#236=VERTEX_POINT('',#785);
#237=VERTEX_POINT('',#789);
#238=VERTEX_POINT('',#793);
#239=VERTEX_POINT('',#797);
#240=VERTEX_POINT('',#801);
#241=VERTEX_POINT('',#805);
#242=VERTEX_POINT('',#809);
#243=VERTEX_POINT('',#815);
#244=VERTEX_POINT('',#819);
#245=CIRCLE('',#473,0.004064);
#246=CIRCLE('',#474,0.004064);
#247=CIRCLE('',#476,0.004064);
#248=CIRCLE('',#477,0.004064);
#249=CIRCLE('',#479,0.00635);
#250=CIRCLE('',#480,0.00635);
#251=CIRCLE('',#485,0.00381);
#252=CIRCLE('',#486,0.00381);
#253=CIRCLE('',#487,0.00381);
#254=CIRCLE('',#488,0.00381);
#255=CIRCLE('',#489,0.00381);
#256=CIRCLE('',#490,0.00381);
#257=CIRCLE('',#491,0.00381);
#258=CIRCLE('',#492,0.00381);
#259=CIRCLE('',#493,0.00381);
#260=CIRCLE('',#494,0.00381);
#261=CIRCLE('',#496,0.00381);
#262=CIRCLE('',#497,0.00381);
#263=CIRCLE('',#504,0.00381);
#264=CIRCLE('',#507,0.00381);
#265=CIRCLE('',#510,0.00381);
#266=CIRCLE('',#513,0.00381);
#267=CIRCLE('',#516,0.00381);
#268=CIRCLE('',#519,0.00381);
#269=CIRCLE('',#522,0.00381);
#270=CIRCLE('',#525,0.00381);
#271=CIRCLE('',#528,0.00381);
#272=CIRCLE('',#531,0.00381);
#273=CIRCLE('',#536,0.00381);
#274=CIRCLE('',#539,0.00381);
#275=EDGE_LOOP('',(#64));
#276=EDGE_LOOP('',(#65));
#277=EDGE_LOOP('',(#66));
#278=EDGE_LOOP('',(#67));
#279=EDGE_LOOP('',(#68,#69,#70,#71,#72,#73));
#280=EDGE_LOOP('',(#74,#75,#76,#77));
#281=EDGE_LOOP('',(#78,#79,#80,#81));
#282=EDGE_LOOP('',(#82,#83,#84,#85));
#283=EDGE_LOOP('',(#86));
#284=EDGE_LOOP('',(#87));
#285=EDGE_LOOP('',(#88));
#286=EDGE_LOOP('',(#89));
#287=EDGE_LOOP('',(#90));
#288=EDGE_LOOP('',(#91));
#289=EDGE_LOOP('',(#92));
#290=EDGE_LOOP('',(#93));
#291=EDGE_LOOP('',(#94));
#292=EDGE_LOOP('',(#95));
#293=EDGE_LOOP('',(#96,#97,#98,#99));
#294=EDGE_LOOP('',(#100,#101,#102,#103));
#295=EDGE_LOOP('',(#104));
#296=EDGE_LOOP('',(#105));
#297=EDGE_LOOP('',(#106));
#298=EDGE_LOOP('',(#107));
#299=EDGE_LOOP('',(#108,#109,#110,#111));
#300=EDGE_LOOP('',(#112,#113,#114,#115));
#301=EDGE_LOOP('',(#116,#117,#118,#119));
#302=EDGE_LOOP('',(#120));
#303=EDGE_LOOP('',(#121));
#304=EDGE_LOOP('',(#122));
#305=EDGE_LOOP('',(#123));
#306=EDGE_LOOP('',(#124));
#307=EDGE_LOOP('',(#125));
#308=EDGE_LOOP('',(#126));
#309=EDGE_LOOP('',(#127));
#310=EDGE_LOOP('',(#128));
#311=EDGE_LOOP('',(#129));
#312=EDGE_LOOP('',(#130));
#313=EDGE_LOOP('',(#131));
#314=EDGE_LOOP('',(#132));
#315=EDGE_LOOP('',(#133));
#316=EDGE_LOOP('',(#134));
#317=EDGE_LOOP('',(#135));
#318=EDGE_LOOP('',(#136));
#319=EDGE_LOOP('',(#137));
#320=EDGE_LOOP('',(#138));
#321=EDGE_LOOP('',(#139));
#322=EDGE_LOOP('',(#140));
#323=EDGE_LOOP('',(#141));
#324=EDGE_LOOP('',(#142));
#325=EDGE_LOOP('',(#143));
#326=EDGE_LOOP('',(#144));
#327=EDGE_LOOP('',(#145));
#328=EDGE_LOOP('',(#146));
#329=EDGE_LOOP('',(#147));
#330=EDGE_LOOP('',(#148));
#331=EDGE_LOOP('',(#149));
#332=EDGE_LOOP('',(#150));
#333=EDGE_LOOP('',(#151));
#334=EDGE_LOOP('',(#152));
#335=EDGE_LOOP('',(#153));
#336=EDGE_LOOP('',(#154));
#337=EDGE_LOOP('',(#155));
#338=EDGE_LOOP('',(#156));
#339=EDGE_LOOP('',(#157));
#340=FACE_BOUND('',#275,.T.);
#341=FACE_BOUND('',#276,.T.);
#342=FACE_BOUND('',#277,.T.);
#343=FACE_BOUND('',#278,.T.);
#344=FACE_BOUND('',#279,.T.);
#345=FACE_BOUND('',#280,.T.);
#346=FACE_BOUND('',#281,.T.);
#347=FACE_BOUND('',#282,.T.);
#348=FACE_BOUND('',#283,.T.);
#349=FACE_BOUND('',#284,.T.);
#350=FACE_BOUND('',#285,.T.);
#351=FACE_BOUND('',#286,.T.);
#352=FACE_BOUND('',#287,.T.);
#353=FACE_BOUND('',#288,.T.);
#354=FACE_BOUND('',#289,.T.);
#355=FACE_BOUND('',#290,.T.);
#356=FACE_BOUND('',#291,.T.);
#357=FACE_BOUND('',#292,.T.);
#358=FACE_BOUND('',#293,.T.);
#359=FACE_BOUND('',#294,.T.);
#360=FACE_BOUND('',#295,.T.);
#361=FACE_BOUND('',#296,.T.);
#362=FACE_BOUND('',#297,.T.);
#363=FACE_BOUND('',#298,.T.);
#364=FACE_BOUND('',#299,.T.);
#365=FACE_BOUND('',#300,.T.);
#366=FACE_BOUND('',#301,.T.);
#367=FACE_BOUND('',#302,.T.);
#368=FACE_BOUND('',#303,.T.);
#369=FACE_BOUND('',#304,.T.);
#370=FACE_BOUND('',#305,.T.);
#371=FACE_BOUND('',#306,.T.);
#372=FACE_BOUND('',#307,.T.);
#373=FACE_BOUND('',#308,.T.);
#374=FACE_BOUND('',#309,.T.);
#375=FACE_BOUND('',#310,.T.);
#376=FACE_BOUND('',#311,.T.);
#377=FACE_BOUND('',#312,.T.);
#378=FACE_BOUND('',#313,.T.);
#379=FACE_BOUND('',#314,.T.);
#380=FACE_BOUND('',#315,.T.);
#381=FACE_BOUND('',#316,.T.);
#382=FACE_BOUND('',#317,.T.);
#383=FACE_BOUND('',#318,.T.);
#384=FACE_BOUND('',#319,.T.);
#385=FACE_BOUND('',#320,.T.);
#386=FACE_BOUND('',#321,.T.);
#387=FACE_BOUND('',#322,.T.);
#388=FACE_BOUND('',#323,.T.);
#389=FACE_BOUND('',#324,.T.);
#390=FACE_BOUND('',#325,.T.);
#391=FACE_BOUND('',#326,.T.);
#392=FACE_BOUND('',#327,.T.);
#393=FACE_BOUND('',#328,.T.);
#394=FACE_BOUND('',#329,.T.);
#395=FACE_BOUND('',#330,.T.);
#396=FACE_BOUND('',#331,.T.);
#397=FACE_BOUND('',#332,.T.);
#398=FACE_BOUND('',#333,.T.);
#399=FACE_BOUND('',#334,.T.);
#400=FACE_BOUND('',#335,.T.);
#401=FACE_BOUND('',#336,.T.);
#402=FACE_BOUND('',#337,.T.);
#403=FACE_BOUND('',#338,.T.);
#404=FACE_BOUND('',#339,.T.);
#405=CYLINDRICAL_SURFACE('',#472,0.004064);
#406=CYLINDRICAL_SURFACE('',#475,0.004064);
#407=CYLINDRICAL_SURFACE('',#498,0.00635);
#408=CYLINDRICAL_SURFACE('',#500,0.00635);
#409=CYLINDRICAL_SURFACE('',#502,0.00635);
#410=CYLINDRICAL_SURFACE('',#503,0.00381);
#411=CYLINDRICAL_SURFACE('',#506,0.00381);
#412=CYLINDRICAL_SURFACE('',#509,0.00381);
#413=CYLINDRICAL_SURFACE('',#512,0.00381);
#414=CYLINDRICAL_SURFACE('',#515,0.00381);
#415=CYLINDRICAL_SURFACE('',#518,0.00381);
#416=CYLINDRICAL_SURFACE('',#521,0.00381);
#417=CYLINDRICAL_SURFACE('',#524,0.00381);
#418=CYLINDRICAL_SURFACE('',#527,0.00381);
#419=CYLINDRICAL_SURFACE('',#530,0.00381);
#420=CYLINDRICAL_SURFACE('',#537,0.00381);
#421=CYLINDRICAL_SURFACE('',#540,0.00381);
#422=ADVANCED_FACE('',(#340,#341),#405,.F.);
#423=ADVANCED_FACE('',(#342,#343),#406,.F.);
#424=ADVANCED_FACE('',(#344),#44,.T.);
#425=ADVANCED_FACE('',(#345),#45,.F.);
#426=ADVANCED_FACE('',(#346),#46,.F.);
#427=ADVANCED_FACE('',(#347),#47,.T.);
#428=ADVANCED_FACE('',(#348,#349,#350,#351,#352,#353,#354,#355,#356,#357,
#358),#48,.T.);
#429=ADVANCED_FACE('',(#359,#360,#361,#362,#363),#49,.F.);
#430=ADVANCED_FACE('',(#364),#407,.T.);
#431=ADVANCED_FACE('',(#365),#408,.T.);
#432=ADVANCED_FACE('',(#366),#409,.T.);
#433=ADVANCED_FACE('',(#367,#368),#410,.F.);
#434=ADVANCED_FACE('',(#369),#50,.T.);
#435=ADVANCED_FACE('',(#370,#371),#411,.F.);
#436=ADVANCED_FACE('',(#372),#51,.T.);
#437=ADVANCED_FACE('',(#373,#374),#412,.F.);
#438=ADVANCED_FACE('',(#375),#52,.T.);
#439=ADVANCED_FACE('',(#376,#377),#413,.F.);
#440=ADVANCED_FACE('',(#378),#53,.T.);
#441=ADVANCED_FACE('',(#379,#380),#414,.F.);
#442=ADVANCED_FACE('',(#381),#54,.T.);
#443=ADVANCED_FACE('',(#382,#383),#415,.F.);
#444=ADVANCED_FACE('',(#384),#55,.T.);
#445=ADVANCED_FACE('',(#385,#386),#416,.F.);
#446=ADVANCED_FACE('',(#387),#56,.T.);
#447=ADVANCED_FACE('',(#388,#389),#417,.F.);
#448=ADVANCED_FACE('',(#390),#57,.T.);
#449=ADVANCED_FACE('',(#391,#392),#418,.F.);
#450=ADVANCED_FACE('',(#393),#58,.T.);
#451=ADVANCED_FACE('',(#394,#395),#419,.F.);
#452=ADVANCED_FACE('',(#396),#59,.T.);
#453=ADVANCED_FACE('',(#397),#60,.F.);
#454=ADVANCED_FACE('',(#398),#61,.F.);
#455=ADVANCED_FACE('',(#399),#62,.F.);
#456=ADVANCED_FACE('',(#400,#401),#420,.T.);
#457=ADVANCED_FACE('',(#402),#63,.F.);
#458=ADVANCED_FACE('',(#403,#404),#421,.T.);
#459=CLOSED_SHELL('',(#422,#423,#424,#425,#426,#427,#428,#429,#430,#431,
#432,#433,#434,#435,#436,#437,#438,#439,#440,#441,#442,#443,#444,#445,#446,
#447,#448,#449,#450,#451,#452,#453,#454,#455,#456,#457,#458));
#460=STYLED_ITEM('',(#461),#468);
#461=PRESENTATION_STYLE_ASSIGNMENT((#462));
#462=SURFACE_STYLE_USAGE(.BOTH.,#463);
#463=SURFACE_SIDE_STYLE('',(#464));
#464=SURFACE_STYLE_FILL_AREA(#465);
#465=FILL_AREA_STYLE('',(#466));
#466=FILL_AREA_STYLE_COLOUR('',#467);
#467=COLOUR_RGB('',0.231372549019608,0.380392156862745,0.705882352941177);
#468=MANIFOLD_SOLID_BREP('Wood Spring Piece',#459);
#469=SHAPE_DEFINITION_REPRESENTATION(#827,#470);
#470=SHAPE_REPRESENTATION('Wood Spring Piece',(#471),#822);
#471=AXIS2_PLACEMENT_3D('',#696,#541,#542);
#472=AXIS2_PLACEMENT_3D('',#697,#543,#544);
#473=AXIS2_PLACEMENT_3D('',#698,#545,#546);
#474=AXIS2_PLACEMENT_3D('',#700,#547,#548);
#475=AXIS2_PLACEMENT_3D('',#702,#549,#550);
#476=AXIS2_PLACEMENT_3D('',#703,#551,#552);
#477=AXIS2_PLACEMENT_3D('',#705,#553,#554);
#478=AXIS2_PLACEMENT_3D('',#707,#555,#556);
#479=AXIS2_PLACEMENT_3D('',#711,#558,#559);
#480=AXIS2_PLACEMENT_3D('',#719,#563,#564);
#481=AXIS2_PLACEMENT_3D('',#720,#565,#566);
#482=AXIS2_PLACEMENT_3D('',#726,#570,#571);
#483=AXIS2_PLACEMENT_3D('',#732,#575,#576);
#484=AXIS2_PLACEMENT_3D('',#735,#579,#580);
#485=AXIS2_PLACEMENT_3D('',#736,#581,#582);
#486=AXIS2_PLACEMENT_3D('',#738,#583,#584);
#487=AXIS2_PLACEMENT_3D('',#740,#585,#586);
#488=AXIS2_PLACEMENT_3D('',#742,#587,#588);
#489=AXIS2_PLACEMENT_3D('',#744,#589,#590);
#490=AXIS2_PLACEMENT_3D('',#746,#591,#592);
#491=AXIS2_PLACEMENT_3D('',#748,#593,#594);
#492=AXIS2_PLACEMENT_3D('',#750,#595,#596);
#493=AXIS2_PLACEMENT_3D('',#752,#597,#598);
#494=AXIS2_PLACEMENT_3D('',#754,#599,#600);
#495=AXIS2_PLACEMENT_3D('',#761,#604,#605);
#496=AXIS2_PLACEMENT_3D('',#762,#606,#607);
#497=AXIS2_PLACEMENT_3D('',#764,#608,#609);
#498=AXIS2_PLACEMENT_3D('',#766,#610,#611);
#499=AXIS2_PLACEMENT_3D('',#767,#612,#613);
#500=AXIS2_PLACEMENT_3D('',#768,#614,#615);
#501=AXIS2_PLACEMENT_3D('',#769,#616,#617);
#502=AXIS2_PLACEMENT_3D('',#770,#618,#619);
#503=AXIS2_PLACEMENT_3D('',#771,#620,#621);
#504=AXIS2_PLACEMENT_3D('',#772,#622,#623);
#505=AXIS2_PLACEMENT_3D('',#774,#624,#625);
#506=AXIS2_PLACEMENT_3D('',#775,#626,#627);
#507=AXIS2_PLACEMENT_3D('',#776,#628,#629);
#508=AXIS2_PLACEMENT_3D('',#778,#630,#631);
#509=AXIS2_PLACEMENT_3D('',#779,#632,#633);
#510=AXIS2_PLACEMENT_3D('',#780,#634,#635);
#511=AXIS2_PLACEMENT_3D('',#782,#636,#637);
#512=AXIS2_PLACEMENT_3D('',#783,#638,#639);
#513=AXIS2_PLACEMENT_3D('',#784,#640,#641);
#514=AXIS2_PLACEMENT_3D('',#786,#642,#643);
#515=AXIS2_PLACEMENT_3D('',#787,#644,#645);
#516=AXIS2_PLACEMENT_3D('',#788,#646,#647);
#517=AXIS2_PLACEMENT_3D('',#790,#648,#649);
#518=AXIS2_PLACEMENT_3D('',#791,#650,#651);
#519=AXIS2_PLACEMENT_3D('',#792,#652,#653);
#520=AXIS2_PLACEMENT_3D('',#794,#654,#655);
#521=AXIS2_PLACEMENT_3D('',#795,#656,#657);
#522=AXIS2_PLACEMENT_3D('',#796,#658,#659);
#523=AXIS2_PLACEMENT_3D('',#798,#660,#661);
#524=AXIS2_PLACEMENT_3D('',#799,#662,#663);
#525=AXIS2_PLACEMENT_3D('',#800,#664,#665);
#526=AXIS2_PLACEMENT_3D('',#802,#666,#667);
#527=AXIS2_PLACEMENT_3D('',#803,#668,#669);
#528=AXIS2_PLACEMENT_3D('',#804,#670,#671);
#529=AXIS2_PLACEMENT_3D('',#806,#672,#673);
#530=AXIS2_PLACEMENT_3D('',#807,#674,#675);
#531=AXIS2_PLACEMENT_3D('',#808,#676,#677);
#532=AXIS2_PLACEMENT_3D('',#810,#678,#679);
#533=AXIS2_PLACEMENT_3D('',#811,#680,#681);
#534=AXIS2_PLACEMENT_3D('',#812,#682,#683);
#535=AXIS2_PLACEMENT_3D('',#813,#684,#685);
#536=AXIS2_PLACEMENT_3D('',#814,#686,#687);
#537=AXIS2_PLACEMENT_3D('',#816,#688,#689);
#538=AXIS2_PLACEMENT_3D('',#817,#690,#691);
#539=AXIS2_PLACEMENT_3D('',#818,#692,#693);
#540=AXIS2_PLACEMENT_3D('',#820,#694,#695);
#541=DIRECTION('',(0.,0.,1.));
#542=DIRECTION('',(1.,0.,0.));
#543=DIRECTION('',(0.,0.,1.));
#544=DIRECTION('',(1.,0.,0.));
#545=DIRECTION('',(0.,0.,-1.));
#546=DIRECTION('',(-1.,0.,0.));
#547=DIRECTION('',(0.,0.,-1.));
#548=DIRECTION('',(-1.,0.,0.));
#549=DIRECTION('',(0.,0.,1.));
#550=DIRECTION('',(1.,0.,0.));
#551=DIRECTION('',(0.,0.,1.));
#552=DIRECTION('',(-1.,0.,0.));
#553=DIRECTION('',(0.,0.,-1.));
#554=DIRECTION('',(-1.,0.,0.));
#555=DIRECTION('',(1.,0.,0.));
#556=DIRECTION('',(0.,0.,-1.));
#557=DIRECTION('',(0.,1.,0.));
#558=DIRECTION('',(1.,0.,0.));
#559=DIRECTION('',(0.,0.,-1.));
#560=DIRECTION('',(0.,0.,1.));
#561=DIRECTION('',(0.,1.,0.));
#562=DIRECTION('',(0.,0.,1.));
#563=DIRECTION('',(1.,0.,0.));
#564=DIRECTION('',(0.,0.,-1.));
#565=DIRECTION('',(-1.31338845849243E-16,1.,0.));
#566=DIRECTION('',(-1.,-1.31338845849243E-16,0.));
#567=DIRECTION('',(0.,0.,1.));
#568=DIRECTION('',(-1.,-1.31338845849243E-16,0.));
#569=DIRECTION('',(-1.,-1.31338845849243E-16,0.));
#570=DIRECTION('',(1.,0.,0.));
#571=DIRECTION('',(0.,0.,-1.));
#572=DIRECTION('',(0.,0.,1.));
#573=DIRECTION('',(0.,1.,0.));
#574=DIRECTION('',(0.,1.,0.));
#575=DIRECTION('',(-1.31338845849243E-16,1.,0.));
#576=DIRECTION('',(-1.,-1.31338845849243E-16,0.));
#577=DIRECTION('',(-1.,-1.31338845849243E-16,0.));
#578=DIRECTION('',(-1.,-1.31338845849243E-16,0.));
#579=DIRECTION('',(0.,0.,-1.));
#580=DIRECTION('',(1.,0.,0.));
#581=DIRECTION('',(0.,0.,-1.));
#582=DIRECTION('',(-1.,0.,0.));
#583=DIRECTION('',(0.,0.,-1.));
#584=DIRECTION('',(-1.,0.,0.));
#585=DIRECTION('',(0.,0.,-1.));
#586=DIRECTION('',(-1.,0.,0.));
#587=DIRECTION('',(0.,0.,-1.));
#588=DIRECTION('',(-1.,0.,0.));
#589=DIRECTION('',(0.,0.,-1.));
#590=DIRECTION('',(-1.,0.,0.));
#591=DIRECTION('',(0.,0.,-1.));
#592=DIRECTION('',(-1.,0.,0.));
#593=DIRECTION('',(0.,0.,-1.));
#594=DIRECTION('',(-1.,0.,0.));
#595=DIRECTION('',(0.,0.,-1.));
#596=DIRECTION('',(-1.,0.,0.));
#597=DIRECTION('',(0.,0.,-1.));
#598=DIRECTION('',(-1.,0.,0.));
#599=DIRECTION('',(0.,0.,-1.));
#600=DIRECTION('',(-1.,0.,0.));
#601=DIRECTION('',(0.,1.,0.));
#602=DIRECTION('',(-1.,-1.31338845849243E-16,0.));
#603=DIRECTION('',(-1.,-1.31338845849243E-16,0.));
#604=DIRECTION('',(0.,0.,-1.));
#605=DIRECTION('',(1.,0.,0.));
#606=DIRECTION('',(0.,0.,-1.));
#607=DIRECTION('',(-1.,0.,0.));
#608=DIRECTION('',(0.,0.,1.));
#609=DIRECTION('',(-1.,0.,0.));
#610=DIRECTION('',(1.,1.31338845849243E-16,0.));
#611=DIRECTION('',(-1.31338845849243E-16,1.,0.));
#612=DIRECTION('',(0.707106781186548,-0.707106781186548,0.));
#613=DIRECTION('',(0.707106781186548,0.707106781186548,0.));
#614=DIRECTION('',(0.,-1.,0.));
#615=DIRECTION('',(0.,0.,-1.));
#616=DIRECTION('',(-0.707106781186548,-0.707106781186548,0.));
#617=DIRECTION('',(0.707106781186548,-0.707106781186548,0.));
#618=DIRECTION('',(-1.,-1.31338845849243E-16,0.));
#619=DIRECTION('',(1.31338845849243E-16,-1.,0.));
#620=DIRECTION('',(0.,0.,-1.));
#621=DIRECTION('',(-1.,0.,0.));
#622=DIRECTION('',(0.,0.,-1.));
#623=DIRECTION('',(-1.,0.,0.));
#624=DIRECTION('',(0.,0.,-1.));
#625=DIRECTION('',(1.,0.,0.));
#626=DIRECTION('',(0.,0.,-1.));
#627=DIRECTION('',(-1.,0.,0.));
#628=DIRECTION('',(0.,0.,-1.));
#629=DIRECTION('',(-1.,0.,0.));
#630=DIRECTION('',(0.,0.,-1.));
#631=DIRECTION('',(1.,0.,0.));
#632=DIRECTION('',(0.,0.,-1.));
#633=DIRECTION('',(-1.,0.,0.));
#634=DIRECTION('',(0.,0.,-1.));
#635=DIRECTION('',(-1.,0.,0.));
#636=DIRECTION('',(0.,0.,-1.));
#637=DIRECTION('',(1.,0.,0.));
#638=DIRECTION('',(0.,0.,-1.));
#639=DIRECTION('',(-1.,0.,0.));
#640=DIRECTION('',(0.,0.,-1.));
#641=DIRECTION('',(-1.,0.,0.));
#642=DIRECTION('',(0.,0.,-1.));
#643=DIRECTION('',(1.,0.,0.));
#644=DIRECTION('',(0.,0.,-1.));
#645=DIRECTION('',(-1.,0.,0.));
#646=DIRECTION('',(0.,0.,-1.));
#647=DIRECTION('',(-1.,0.,0.));
#648=DIRECTION('',(0.,0.,-1.));
#649=DIRECTION('',(1.,0.,0.));
#650=DIRECTION('',(0.,0.,-1.));
#651=DIRECTION('',(-1.,0.,0.));
#652=DIRECTION('',(0.,0.,-1.));
#653=DIRECTION('',(-1.,0.,0.));
#654=DIRECTION('',(0.,0.,-1.));
#655=DIRECTION('',(1.,0.,0.));
#656=DIRECTION('',(0.,0.,-1.));
#657=DIRECTION('',(-1.,0.,0.));
#658=DIRECTION('',(0.,0.,-1.));
#659=DIRECTION('',(-1.,0.,0.));
#660=DIRECTION('',(0.,0.,-1.));
#661=DIRECTION('',(1.,0.,0.));
#662=DIRECTION('',(0.,0.,-1.));
#663=DIRECTION('',(-1.,0.,0.));
#664=DIRECTION('',(0.,0.,-1.));
#665=DIRECTION('',(-1.,0.,0.));
#666=DIRECTION('',(0.,0.,-1.));
#667=DIRECTION('',(1.,0.,0.));
#668=DIRECTION('',(0.,0.,-1.));
#669=DIRECTION('',(-1.,0.,0.));
#670=DIRECTION('',(0.,0.,-1.));
#671=DIRECTION('',(-1.,0.,0.));
#672=DIRECTION('',(0.,0.,-1.));
#673=DIRECTION('',(1.,0.,0.));
#674=DIRECTION('',(0.,0.,-1.));
#675=DIRECTION('',(-1.,0.,0.));
#676=DIRECTION('',(0.,0.,-1.));
#677=DIRECTION('',(-1.,0.,0.));
#678=DIRECTION('',(0.,0.,-1.));
#679=DIRECTION('',(1.,0.,0.));
#680=DIRECTION('',(0.,0.,-1.));
#681=DIRECTION('',(1.,0.,0.));
#682=DIRECTION('',(0.,0.,-1.));
#683=DIRECTION('',(1.,0.,0.));
#684=DIRECTION('',(0.,0.,-1.));
#685=DIRECTION('',(1.,0.,0.));
#686=DIRECTION('',(0.,0.,1.));
#687=DIRECTION('',(-1.,0.,0.));
#688=DIRECTION('',(0.,0.,-1.));
#689=DIRECTION('',(-1.,0.,0.));
#690=DIRECTION('',(0.,0.,-1.));
#691=DIRECTION('',(1.,0.,0.));
#692=DIRECTION('',(0.,0.,-1.));
#693=DIRECTION('',(-1.,0.,0.));
#694=DIRECTION('',(0.,0.,-1.));
#695=DIRECTION('',(-1.,0.,0.));
#696=CARTESIAN_POINT('',(0.,0.,0.));
#697=CARTESIAN_POINT('',(0.024765,-1.55530143491679E-20,-0.1905));
#698=CARTESIAN_POINT('',(0.024765,-1.55530143491679E-20,-0.1778));
#699=CARTESIAN_POINT('',(0.020701,-1.55530143491679E-20,-0.1778));
#700=CARTESIAN_POINT('',(0.024765,-1.55530143491679E-20,-0.18415));
#701=CARTESIAN_POINT('',(0.020701,-1.55530143491679E-20,-0.18415));
#702=CARTESIAN_POINT('',(-0.024765,-9.11406640861443E-18,-0.1905));
#703=CARTESIAN_POINT('',(-0.024765,-9.11406640861443E-18,-0.1778));
#704=CARTESIAN_POINT('',(-0.028829,-9.11406640861443E-18,-0.1778));
#705=CARTESIAN_POINT('',(-0.024765,-9.11406640861443E-18,-0.18415));
#706=CARTESIAN_POINT('',(-0.028829,-9.11406640861443E-18,-0.18415));
#707=CARTESIAN_POINT('',(0.06604,0.,-0.1905));
#708=CARTESIAN_POINT('',(0.06604,0.,-0.1905));
#709=CARTESIAN_POINT('',(0.06604,-0.01397,-0.1905));
#710=CARTESIAN_POINT('',(0.06604,0.01397,-0.1905));
#711=CARTESIAN_POINT('',(0.06604,0.01397,-0.18415));
#712=CARTESIAN_POINT('',(0.06604,0.02032,-0.18415));
#713=CARTESIAN_POINT('',(0.06604,0.02032,-0.1905));
#714=CARTESIAN_POINT('',(0.06604,0.02032,-0.1778));
#715=CARTESIAN_POINT('',(0.06604,0.,-0.1778));
#716=CARTESIAN_POINT('',(0.06604,-0.02032,-0.1778));
#717=CARTESIAN_POINT('',(0.06604,-0.02032,-0.1905));
#718=CARTESIAN_POINT('',(0.06604,-0.02032,-0.18415));
#719=CARTESIAN_POINT('',(0.06604,-0.01397,-0.18415));
#720=CARTESIAN_POINT('',(0.,-0.02032,-0.1905));
#721=CARTESIAN_POINT('',(-0.06604,-0.02032,-0.1905));
#722=CARTESIAN_POINT('',(-0.06604,-0.02032,-0.18415));
#723=CARTESIAN_POINT('',(-0.06604,-0.02032,-0.1778));
#724=CARTESIAN_POINT('',(0.06604,-0.02032,-0.18415));
#725=CARTESIAN_POINT('',(0.,-0.02032,-0.1778));
#726=CARTESIAN_POINT('',(-0.06604,0.,-0.1905));
#727=CARTESIAN_POINT('',(-0.06604,0.02032,-0.1905));
#728=CARTESIAN_POINT('',(-0.06604,0.02032,-0.18415));
#729=CARTESIAN_POINT('',(-0.06604,0.02032,-0.1778));
#730=CARTESIAN_POINT('',(-0.06604,-0.02032,-0.18415));
#731=CARTESIAN_POINT('',(-0.06604,0.,-0.1778));
#732=CARTESIAN_POINT('',(-6.93889390390723E-18,0.02032,-0.1905));
#733=CARTESIAN_POINT('',(-6.93889390390723E-18,0.02032,-0.18415));
#734=CARTESIAN_POINT('',(-6.93889390390723E-18,0.02032,-0.1778));
#735=CARTESIAN_POINT('',(0.,-6.93889390390723E-18,-0.1905));
#736=CARTESIAN_POINT('',(0.010795,0.00635,-0.1905));
#737=CARTESIAN_POINT('',(0.006985,0.00635,-0.1905));
#738=CARTESIAN_POINT('',(0.034925,-0.00635,-0.1905));
#739=CARTESIAN_POINT('',(0.031115,-0.00635,-0.1905));
#740=CARTESIAN_POINT('',(0.034925,0.00635,-0.1905));
#741=CARTESIAN_POINT('',(0.031115,0.00635,-0.1905));
#742=CARTESIAN_POINT('',(0.059055,-0.00635,-0.1905));
#743=CARTESIAN_POINT('',(0.055245,-0.00635,-0.1905));
#744=CARTESIAN_POINT('',(-0.037465,0.00635,-0.1905));
#745=CARTESIAN_POINT('',(-0.041275,0.00635,-0.1905));
#746=CARTESIAN_POINT('',(-0.013335,-0.00635,-0.1905));
#747=CARTESIAN_POINT('',(-0.017145,-0.00635,-0.1905));
#748=CARTESIAN_POINT('',(-0.013335,0.00635,-0.1905));
#749=CARTESIAN_POINT('',(-0.017145,0.00635,-0.1905));
#750=CARTESIAN_POINT('',(0.010795,-0.00635,-0.1905));
#751=CARTESIAN_POINT('',(0.006985,-0.00635,-0.1905));
#752=CARTESIAN_POINT('',(0.059055,0.00635,-0.1905));
#753=CARTESIAN_POINT('',(0.055245,0.00635,-0.1905));
#754=CARTESIAN_POINT('',(-0.037465,-0.00635,-0.1905));
#755=CARTESIAN_POINT('',(-0.041275,-0.00635,-0.1905));
#756=CARTESIAN_POINT('',(-0.05969,0.02032,-0.1905));
#757=CARTESIAN_POINT('',(-0.05969,-0.01397,-0.1905));
#758=CARTESIAN_POINT('',(-0.05969,0.01397,-0.1905));
#759=CARTESIAN_POINT('',(-1.83480367651393E-18,0.01397,-0.1905));
#760=CARTESIAN_POINT('',(-0.06604,-0.01397,-0.1905));
#761=CARTESIAN_POINT('',(0.,-6.93889390390723E-18,-0.1778));
#762=CARTESIAN_POINT('',(0.050165,-3.11060286983428E-18,-0.1778));
#763=CARTESIAN_POINT('',(0.046355,-3.11060286983428E-18,-0.1778));
#764=CARTESIAN_POINT('',(-0.050165,-2.15409248736023E-17,-0.1778));
#765=CARTESIAN_POINT('',(-0.053975,-2.15409248736023E-17,-0.1778));
#766=CARTESIAN_POINT('',(1.83480367651393E-18,-0.01397,-0.18415));
#767=CARTESIAN_POINT('',(-0.05969,-0.01397,-0.18415));
#768=CARTESIAN_POINT('',(-0.05969,-6.93889390390723E-18,-0.18415));
#769=CARTESIAN_POINT('',(-0.05969,0.01397,-0.18415));
#770=CARTESIAN_POINT('',(-6.10489223276453E-18,0.01397,-0.18415));
#771=CARTESIAN_POINT('',(-0.037465,-0.00635,-0.18796));
#772=CARTESIAN_POINT('',(-0.037465,-0.00635,-0.18796));
#773=CARTESIAN_POINT('',(-0.041275,-0.00635,-0.18796));
#774=CARTESIAN_POINT('',(0.003175,-6.93889390390723E-18,-0.18796));
#775=CARTESIAN_POINT('',(0.059055,0.00635,-0.18796));
#776=CARTESIAN_POINT('',(0.059055,0.00635,-0.18796));
#777=CARTESIAN_POINT('',(0.055245,0.00635,-0.18796));
#778=CARTESIAN_POINT('',(0.003175,-6.93889390390723E-18,-0.18796));
#779=CARTESIAN_POINT('',(0.010795,-0.00635,-0.18796));
#780=CARTESIAN_POINT('',(0.010795,-0.00635,-0.18796));
#781=CARTESIAN_POINT('',(0.006985,-0.00635,-0.18796));
#782=CARTESIAN_POINT('',(0.003175,-6.93889390390723E-18,-0.18796));
#783=CARTESIAN_POINT('',(-0.013335,0.00635,-0.18796));
#784=CARTESIAN_POINT('',(-0.013335,0.00635,-0.18796));
#785=CARTESIAN_POINT('',(-0.017145,0.00635,-0.18796));
#786=CARTESIAN_POINT('',(0.003175,-6.93889390390723E-18,-0.18796));
#787=CARTESIAN_POINT('',(-0.013335,-0.00635,-0.18796));
#788=CARTESIAN_POINT('',(-0.013335,-0.00635,-0.18796));
#789=CARTESIAN_POINT('',(-0.017145,-0.00635,-0.18796));
#790=CARTESIAN_POINT('',(0.003175,-6.93889390390723E-18,-0.18796));
#791=CARTESIAN_POINT('',(-0.037465,0.00635,-0.18796));
#792=CARTESIAN_POINT('',(-0.037465,0.00635,-0.18796));
#793=CARTESIAN_POINT('',(-0.041275,0.00635,-0.18796));
#794=CARTESIAN_POINT('',(0.003175,-6.93889390390723E-18,-0.18796));
#795=CARTESIAN_POINT('',(0.059055,-0.00635,-0.18796));
#796=CARTESIAN_POINT('',(0.059055,-0.00635,-0.18796));
#797=CARTESIAN_POINT('',(0.055245,-0.00635,-0.18796));
#798=CARTESIAN_POINT('',(0.003175,-6.93889390390723E-18,-0.18796));
#799=CARTESIAN_POINT('',(0.034925,0.00635,-0.18796));
#800=CARTESIAN_POINT('',(0.034925,0.00635,-0.18796));
#801=CARTESIAN_POINT('',(0.031115,0.00635,-0.18796));
#802=CARTESIAN_POINT('',(0.003175,-6.93889390390723E-18,-0.18796));
#803=CARTESIAN_POINT('',(0.034925,-0.00635,-0.18796));
#804=CARTESIAN_POINT('',(0.034925,-0.00635,-0.18796));
#805=CARTESIAN_POINT('',(0.031115,-0.00635,-0.18796));
#806=CARTESIAN_POINT('',(0.003175,-6.93889390390723E-18,-0.18796));
#807=CARTESIAN_POINT('',(0.010795,0.00635,-0.18796));
#808=CARTESIAN_POINT('',(0.010795,0.00635,-0.18796));
#809=CARTESIAN_POINT('',(0.006985,0.00635,-0.18796));
#810=CARTESIAN_POINT('',(0.003175,-6.93889390390723E-18,-0.18796));
#811=CARTESIAN_POINT('',(0.003175,-6.93889390390723E-18,-0.18415));
#812=CARTESIAN_POINT('',(0.003175,-6.93889390390723E-18,-0.18415));
#813=CARTESIAN_POINT('',(0.003175,-6.93889390390723E-18,-0.17145));
#814=CARTESIAN_POINT('',(-0.050165,-2.15409248736023E-17,-0.17145));
#815=CARTESIAN_POINT('',(-0.053975,-2.15409248736023E-17,-0.17145));
#816=CARTESIAN_POINT('',(-0.050165,-2.15409248736023E-17,-0.17145));
#817=CARTESIAN_POINT('',(0.003175,-6.93889390390723E-18,-0.17145));
#818=CARTESIAN_POINT('',(0.050165,-3.11060286983428E-18,-0.17145));
#819=CARTESIAN_POINT('',(0.046355,-3.11060286983428E-18,-0.17145));
#820=CARTESIAN_POINT('',(0.050165,-3.11060286983428E-18,-0.17145));
#821=MECHANICAL_DESIGN_GEOMETRIC_PRESENTATION_REPRESENTATION('',(#460),
#822);
#822=(
GEOMETRIC_REPRESENTATION_CONTEXT(3)
GLOBAL_UNCERTAINTY_ASSIGNED_CONTEXT((#823))
GLOBAL_UNIT_ASSIGNED_CONTEXT((#826,#825,#824))
REPRESENTATION_CONTEXT('Wood Spring Piece','TOP_LEVEL_ASSEMBLY_PART')
);
#823=UNCERTAINTY_MEASURE_WITH_UNIT(LENGTH_MEASURE(1.E-8),#826,
'DISTANCE_ACCURACY_VALUE','Maximum Tolerance applied to model');
#824=(
NAMED_UNIT(*)
SI_UNIT($,.STERADIAN.)
SOLID_ANGLE_UNIT()
);
#825=(
NAMED_UNIT(*)
PLANE_ANGLE_UNIT()
SI_UNIT($,.RADIAN.)
);
#826=(
LENGTH_UNIT()
NAMED_UNIT(*)
SI_UNIT($,.METRE.)
);
#827=PRODUCT_DEFINITION_SHAPE('','',#828);
#828=PRODUCT_DEFINITION('','',#830,#829);
#829=PRODUCT_DEFINITION_CONTEXT('',#836,'design');
#830=PRODUCT_DEFINITION_FORMATION_WITH_SPECIFIED_SOURCE('','',#832,
 .NOT_KNOWN.);
#831=PRODUCT_RELATED_PRODUCT_CATEGORY('','',(#832));
#832=PRODUCT('Wood Spring Piece','Wood Spring Piece',
'Wood Spring Piece',(#834));
#833=PRODUCT_CATEGORY('','');
#834=PRODUCT_CONTEXT('',#836,'mechanical');
#835=APPLICATION_PROTOCOL_DEFINITION('international standard',
'ap242_managed_model_based_3d_engineering',2020,#836);
#836=APPLICATION_CONTEXT('managed model based 3d engineering');
ENDSEC;
END-ISO-10303-21;
