ISO-10303-21;
HEADER;
/* Generated by software containing ST-Developer
 * from STEP Tools, Inc. (www.steptools.com) 
 */
/* OPTION: using custom renumber hook */

FILE_DESCRIPTION(
/* description */ ('STEP AP242 Edition 2',
'CAx-IF Rec.Pracs.---Representation and Presentation of Product Manufa
cturing Information (PMI)---4.0---2014-10-13',
'CAx-IF Rec.Pracs.---3D Tessellated Geometry---0.4---2014-09-14','2;1',
'CAx-IF Rec.Pracs.---User Defined Attributes---1.5---2016-08-15'),
/* implementation_level */ '2;1');

FILE_NAME(
/* name */ 'StackingFemaleAll',
/* time_stamp */ '2026-08-06T17:47:25Z',
/* author */ (''),
/* organization */ (''),
/* preprocessor_version */ 'ST-DEVELOPER v20',
/* originating_system */ 'ONSHAPE BY PTC INC, 1.218',
/* authorisation */ '  ');

FILE_SCHEMA (('AP242_MANAGED_MODEL_BASED_3D_ENGINEERING_MIM_LF { 1 0 10303 442 3 1 4 }'));
ENDSEC;

DATA;
#10=SHAPE_REPRESENTATION_RELATIONSHIP('','',#558,#11);
#11=ADVANCED_BREP_SHAPE_REPRESENTATION('',(#556),#982);
#12=ELLIPSE('',#587,0.00898025612106916,0.00635);
#13=ELLIPSE('',#589,0.00898025612106915,0.00635);
#14=CYLINDRICAL_SURFACE('',#586,0.00635);
#15=CYLINDRICAL_SURFACE('',#588,0.00635);
#16=CYLINDRICAL_SURFACE('',#590,0.00635);
#17=CYLINDRICAL_SURFACE('',#591,0.00381);
#18=CYLINDRICAL_SURFACE('',#594,0.00381);
#19=CYLINDRICAL_SURFACE('',#597,0.00381);
#20=CYLINDRICAL_SURFACE('',#600,0.00381);
#21=CYLINDRICAL_SURFACE('',#603,0.00381);
#22=CYLINDRICAL_SURFACE('',#606,0.00381);
#23=CYLINDRICAL_SURFACE('',#609,0.00381);
#24=CYLINDRICAL_SURFACE('',#612,0.00381);
#25=CYLINDRICAL_SURFACE('',#615,0.00381);
#26=CYLINDRICAL_SURFACE('',#618,0.00381);
#27=CYLINDRICAL_SURFACE('',#623,0.00381);
#28=CYLINDRICAL_SURFACE('',#626,0.00381);
#29=CYLINDRICAL_SURFACE('',#629,0.00381);
#30=CYLINDRICAL_SURFACE('',#632,0.00381);
#31=CYLINDRICAL_SURFACE('',#633,0.004064);
#32=CYLINDRICAL_SURFACE('',#635,0.004064);
#33=CYLINDRICAL_SURFACE('',#639,0.004064);
#34=CYLINDRICAL_SURFACE('',#642,0.004064);
#35=LINE('',#858,#50);
#36=LINE('',#861,#51);
#37=LINE('',#863,#52);
#38=LINE('',#865,#53);
#39=LINE('',#873,#54);
#40=LINE('',#875,#55);
#41=LINE('',#877,#56);
#42=LINE('',#881,#57);
#43=LINE('',#884,#58);
#44=LINE('',#885,#59);
#45=LINE('',#887,#60);
#46=LINE('',#890,#61);
#47=LINE('',#891,#62);
#48=LINE('',#893,#63);
#49=LINE('',#894,#64);
#50=VECTOR('',#673,1.);
#51=VECTOR('',#674,1.);
#52=VECTOR('',#675,1.);
#53=VECTOR('',#676,1.);
#54=VECTOR('',#685,1.);
#55=VECTOR('',#686,1.);
#56=VECTOR('',#687,1.);
#57=VECTOR('',#692,1.);
#58=VECTOR('',#693,1.);
#59=VECTOR('',#694,1.);
#60=VECTOR('',#697,1.);
#61=VECTOR('',#698,1.);
#62=VECTOR('',#699,1.);
#63=VECTOR('',#702,1.);
#64=VECTOR('',#703,1.);
#65=ORIENTED_EDGE('',*,*,#175,.F.);
#66=ORIENTED_EDGE('',*,*,#176,.F.);
#67=ORIENTED_EDGE('',*,*,#177,.F.);
#68=ORIENTED_EDGE('',*,*,#178,.F.);
#69=ORIENTED_EDGE('',*,*,#179,.F.);
#70=ORIENTED_EDGE('',*,*,#180,.F.);
#71=ORIENTED_EDGE('',*,*,#181,.F.);
#72=ORIENTED_EDGE('',*,*,#182,.F.);
#73=ORIENTED_EDGE('',*,*,#183,.F.);
#74=ORIENTED_EDGE('',*,*,#184,.F.);
#75=ORIENTED_EDGE('',*,*,#185,.F.);
#76=ORIENTED_EDGE('',*,*,#186,.F.);
#77=ORIENTED_EDGE('',*,*,#187,.T.);
#78=ORIENTED_EDGE('',*,*,#188,.T.);
#79=ORIENTED_EDGE('',*,*,#189,.F.);
#80=ORIENTED_EDGE('',*,*,#190,.T.);
#81=ORIENTED_EDGE('',*,*,#191,.F.);
#82=ORIENTED_EDGE('',*,*,#192,.F.);
#83=ORIENTED_EDGE('',*,*,#189,.T.);
#84=ORIENTED_EDGE('',*,*,#193,.T.);
#85=ORIENTED_EDGE('',*,*,#194,.T.);
#86=ORIENTED_EDGE('',*,*,#195,.F.);
#87=ORIENTED_EDGE('',*,*,#196,.F.);
#88=ORIENTED_EDGE('',*,*,#197,.T.);
#89=ORIENTED_EDGE('',*,*,#198,.F.);
#90=ORIENTED_EDGE('',*,*,#199,.T.);
#91=ORIENTED_EDGE('',*,*,#196,.T.);
#92=ORIENTED_EDGE('',*,*,#200,.T.);
#93=ORIENTED_EDGE('',*,*,#201,.F.);
#94=ORIENTED_EDGE('',*,*,#202,.T.);
#95=ORIENTED_EDGE('',*,*,#198,.T.);
#96=ORIENTED_EDGE('',*,*,#203,.T.);
#97=ORIENTED_EDGE('',*,*,#194,.F.);
#98=ORIENTED_EDGE('',*,*,#204,.T.);
#99=ORIENTED_EDGE('',*,*,#201,.T.);
#100=ORIENTED_EDGE('',*,*,#205,.F.);
#101=ORIENTED_EDGE('',*,*,#206,.T.);
#102=ORIENTED_EDGE('',*,*,#207,.T.);
#103=ORIENTED_EDGE('',*,*,#195,.T.);
#104=ORIENTED_EDGE('',*,*,#205,.T.);
#105=ORIENTED_EDGE('',*,*,#203,.F.);
#106=ORIENTED_EDGE('',*,*,#200,.F.);
#107=ORIENTED_EDGE('',*,*,#208,.T.);
#108=ORIENTED_EDGE('',*,*,#209,.F.);
#109=ORIENTED_EDGE('',*,*,#197,.F.);
#110=ORIENTED_EDGE('',*,*,#199,.F.);
#111=ORIENTED_EDGE('',*,*,#210,.F.);
#112=ORIENTED_EDGE('',*,*,#190,.F.);
#113=ORIENTED_EDGE('',*,*,#210,.T.);
#114=ORIENTED_EDGE('',*,*,#202,.F.);
#115=ORIENTED_EDGE('',*,*,#211,.F.);
#116=ORIENTED_EDGE('',*,*,#187,.F.);
#117=ORIENTED_EDGE('',*,*,#193,.F.);
#118=ORIENTED_EDGE('',*,*,#188,.F.);
#119=ORIENTED_EDGE('',*,*,#211,.T.);
#120=ORIENTED_EDGE('',*,*,#204,.F.);
#121=ORIENTED_EDGE('',*,*,#212,.F.);
#122=ORIENTED_EDGE('',*,*,#186,.T.);
#123=ORIENTED_EDGE('',*,*,#212,.T.);
#124=ORIENTED_EDGE('',*,*,#213,.F.);
#125=ORIENTED_EDGE('',*,*,#185,.T.);
#126=ORIENTED_EDGE('',*,*,#213,.T.);
#127=ORIENTED_EDGE('',*,*,#214,.F.);
#128=ORIENTED_EDGE('',*,*,#184,.T.);
#129=ORIENTED_EDGE('',*,*,#214,.T.);
#130=ORIENTED_EDGE('',*,*,#215,.F.);
#131=ORIENTED_EDGE('',*,*,#183,.T.);
#132=ORIENTED_EDGE('',*,*,#215,.T.);
#133=ORIENTED_EDGE('',*,*,#216,.F.);
#134=ORIENTED_EDGE('',*,*,#182,.T.);
#135=ORIENTED_EDGE('',*,*,#216,.T.);
#136=ORIENTED_EDGE('',*,*,#217,.F.);
#137=ORIENTED_EDGE('',*,*,#181,.T.);
#138=ORIENTED_EDGE('',*,*,#217,.T.);
#139=ORIENTED_EDGE('',*,*,#218,.F.);
#140=ORIENTED_EDGE('',*,*,#180,.T.);
#141=ORIENTED_EDGE('',*,*,#218,.T.);
#142=ORIENTED_EDGE('',*,*,#219,.F.);
#143=ORIENTED_EDGE('',*,*,#179,.T.);
#144=ORIENTED_EDGE('',*,*,#219,.T.);
#145=ORIENTED_EDGE('',*,*,#220,.F.);
#146=ORIENTED_EDGE('',*,*,#178,.T.);
#147=ORIENTED_EDGE('',*,*,#220,.T.);
#148=ORIENTED_EDGE('',*,*,#221,.F.);
#149=ORIENTED_EDGE('',*,*,#177,.T.);
#150=ORIENTED_EDGE('',*,*,#221,.T.);
#151=ORIENTED_EDGE('',*,*,#222,.F.);
#152=ORIENTED_EDGE('',*,*,#192,.T.);
#153=ORIENTED_EDGE('',*,*,#222,.T.);
#154=ORIENTED_EDGE('',*,*,#223,.T.);
#155=ORIENTED_EDGE('',*,*,#191,.T.);
#156=ORIENTED_EDGE('',*,*,#223,.F.);
#157=ORIENTED_EDGE('',*,*,#224,.T.);
#158=ORIENTED_EDGE('',*,*,#224,.F.);
#159=ORIENTED_EDGE('',*,*,#209,.T.);
#160=ORIENTED_EDGE('',*,*,#225,.F.);
#161=ORIENTED_EDGE('',*,*,#225,.T.);
#162=ORIENTED_EDGE('',*,*,#208,.F.);
#163=ORIENTED_EDGE('',*,*,#226,.F.);
#164=ORIENTED_EDGE('',*,*,#175,.T.);
#165=ORIENTED_EDGE('',*,*,#227,.F.);
#166=ORIENTED_EDGE('',*,*,#176,.T.);
#167=ORIENTED_EDGE('',*,*,#226,.T.);
#168=ORIENTED_EDGE('',*,*,#227,.T.);
#169=ORIENTED_EDGE('',*,*,#228,.T.);
#170=ORIENTED_EDGE('',*,*,#207,.F.);
#171=ORIENTED_EDGE('',*,*,#228,.F.);
#172=ORIENTED_EDGE('',*,*,#229,.T.);
#173=ORIENTED_EDGE('',*,*,#206,.F.);
#174=ORIENTED_EDGE('',*,*,#229,.F.);
#175=EDGE_CURVE('',#230,#230,#278,.T.);
#176=EDGE_CURVE('',#231,#231,#279,.T.);
#177=EDGE_CURVE('',#232,#232,#280,.T.);
#178=EDGE_CURVE('',#233,#233,#281,.T.);
#179=EDGE_CURVE('',#234,#234,#282,.T.);
#180=EDGE_CURVE('',#235,#235,#283,.T.);
#181=EDGE_CURVE('',#236,#236,#284,.T.);
#182=EDGE_CURVE('',#237,#237,#285,.T.);
#183=EDGE_CURVE('',#238,#238,#286,.T.);
#184=EDGE_CURVE('',#239,#239,#287,.T.);
#185=EDGE_CURVE('',#240,#240,#288,.T.);
#186=EDGE_CURVE('',#241,#241,#289,.T.);
#187=EDGE_CURVE('',#242,#243,#35,.T.);
#188=EDGE_CURVE('',#243,#244,#36,.F.);
#189=EDGE_CURVE('',#245,#244,#37,.T.);
#190=EDGE_CURVE('',#245,#242,#38,.T.);
#191=EDGE_CURVE('',#246,#246,#290,.T.);
#192=EDGE_CURVE('',#247,#247,#291,.T.);
#193=EDGE_CURVE('',#244,#248,#292,.T.);
#194=EDGE_CURVE('',#248,#249,#39,.T.);
#195=EDGE_CURVE('',#250,#249,#40,.T.);
#196=EDGE_CURVE('',#251,#250,#41,.T.);
#197=EDGE_CURVE('',#251,#245,#293,.T.);
#198=EDGE_CURVE('',#252,#253,#42,.T.);
#199=EDGE_CURVE('',#252,#251,#43,.F.);
#200=EDGE_CURVE('',#250,#253,#44,.T.);
#201=EDGE_CURVE('',#254,#255,#45,.T.);
#202=EDGE_CURVE('',#254,#252,#46,.F.);
#203=EDGE_CURVE('',#253,#255,#47,.T.);
#204=EDGE_CURVE('',#248,#254,#48,.T.);
#205=EDGE_CURVE('',#249,#255,#49,.T.);
#206=EDGE_CURVE('',#256,#256,#294,.T.);
#207=EDGE_CURVE('',#257,#257,#295,.T.);
#208=EDGE_CURVE('',#258,#258,#296,.T.);
#209=EDGE_CURVE('',#259,#259,#297,.T.);
#210=EDGE_CURVE('',#242,#252,#12,.F.);
#211=EDGE_CURVE('',#243,#254,#13,.F.);
#212=EDGE_CURVE('',#260,#260,#298,.T.);
#213=EDGE_CURVE('',#261,#261,#299,.T.);
#214=EDGE_CURVE('',#262,#262,#300,.T.);
#215=EDGE_CURVE('',#263,#263,#301,.T.);
#216=EDGE_CURVE('',#264,#264,#302,.T.);
#217=EDGE_CURVE('',#265,#265,#303,.T.);
#218=EDGE_CURVE('',#266,#266,#304,.T.);
#219=EDGE_CURVE('',#267,#267,#305,.T.);
#220=EDGE_CURVE('',#268,#268,#306,.T.);
#221=EDGE_CURVE('',#269,#269,#307,.T.);
#222=EDGE_CURVE('',#270,#270,#308,.T.);
#223=EDGE_CURVE('',#271,#271,#309,.T.);
#224=EDGE_CURVE('',#272,#272,#310,.T.);
#225=EDGE_CURVE('',#273,#273,#311,.T.);
#226=EDGE_CURVE('',#274,#274,#312,.T.);
#227=EDGE_CURVE('',#275,#275,#313,.T.);
#228=EDGE_CURVE('',#276,#276,#314,.T.);
#229=EDGE_CURVE('',#277,#277,#315,.T.);
#230=VERTEX_POINT('',#835);
#231=VERTEX_POINT('',#837);
#232=VERTEX_POINT('',#839);
#233=VERTEX_POINT('',#841);
#234=VERTEX_POINT('',#843);
#235=VERTEX_POINT('',#845);
#236=VERTEX_POINT('',#847);
#237=VERTEX_POINT('',#849);
#238=VERTEX_POINT('',#851);
#239=VERTEX_POINT('',#853);
#240=VERTEX_POINT('',#855);
#241=VERTEX_POINT('',#857);
#242=VERTEX_POINT('',#859);
#243=VERTEX_POINT('',#860);
#244=VERTEX_POINT('',#862);
#245=VERTEX_POINT('',#864);
#246=VERTEX_POINT('',#867);
#247=VERTEX_POINT('',#869);
#248=VERTEX_POINT('',#872);
#249=VERTEX_POINT('',#874);
#250=VERTEX_POINT('',#876);
#251=VERTEX_POINT('',#878);
#252=VERTEX_POINT('',#882);
#253=VERTEX_POINT('',#883);
#254=VERTEX_POINT('',#888);
#255=VERTEX_POINT('',#889);
#256=VERTEX_POINT('',#897);
#257=VERTEX_POINT('',#899);
#258=VERTEX_POINT('',#901);
#259=VERTEX_POINT('',#903);
#260=VERTEX_POINT('',#911);
#261=VERTEX_POINT('',#915);
#262=VERTEX_POINT('',#919);
#263=VERTEX_POINT('',#923);
#264=VERTEX_POINT('',#927);
#265=VERTEX_POINT('',#931);
#266=VERTEX_POINT('',#935);
#267=VERTEX_POINT('',#939);
#268=VERTEX_POINT('',#943);
#269=VERTEX_POINT('',#947);
#270=VERTEX_POINT('',#951);
#271=VERTEX_POINT('',#955);
#272=VERTEX_POINT('',#959);
#273=VERTEX_POINT('',#963);
#274=VERTEX_POINT('',#967);
#275=VERTEX_POINT('',#970);
#276=VERTEX_POINT('',#975);
#277=VERTEX_POINT('',#979);
#278=CIRCLE('',#561,0.004064);
#279=CIRCLE('',#562,0.004064);
#280=CIRCLE('',#563,0.00381);
#281=CIRCLE('',#564,0.00381);
#282=CIRCLE('',#565,0.00381);
#283=CIRCLE('',#566,0.00381);
#284=CIRCLE('',#567,0.00381);
#285=CIRCLE('',#568,0.00381);
#286=CIRCLE('',#569,0.00381);
#287=CIRCLE('',#570,0.00381);
#288=CIRCLE('',#571,0.00381);
#289=CIRCLE('',#572,0.00381);
#290=CIRCLE('',#573,0.00381);
#291=CIRCLE('',#574,0.00381);
#292=CIRCLE('',#576,0.00635);
#293=CIRCLE('',#577,0.00635);
#294=CIRCLE('',#582,0.004064);
#295=CIRCLE('',#583,0.004064);
#296=CIRCLE('',#584,0.00381);
#297=CIRCLE('',#585,0.00381);
#298=CIRCLE('',#592,0.00381);
#299=CIRCLE('',#595,0.00381);
#300=CIRCLE('',#598,0.00381);
#301=CIRCLE('',#601,0.00381);
#302=CIRCLE('',#604,0.00381);
#303=CIRCLE('',#607,0.00381);
#304=CIRCLE('',#610,0.00381);
#305=CIRCLE('',#613,0.00381);
#306=CIRCLE('',#616,0.00381);
#307=CIRCLE('',#619,0.00381);
#308=CIRCLE('',#622,0.00381);
#309=CIRCLE('',#625,0.00381);
#310=CIRCLE('',#628,0.00381);
#311=CIRCLE('',#631,0.00381);
#312=CIRCLE('',#634,0.004064);
#313=CIRCLE('',#636,0.004064);
#314=CIRCLE('',#640,0.004064);
#315=CIRCLE('',#643,0.004064);
#316=EDGE_LOOP('',(#65));
#317=EDGE_LOOP('',(#66));
#318=EDGE_LOOP('',(#67));
#319=EDGE_LOOP('',(#68));
#320=EDGE_LOOP('',(#69));
#321=EDGE_LOOP('',(#70));
#322=EDGE_LOOP('',(#71));
#323=EDGE_LOOP('',(#72));
#324=EDGE_LOOP('',(#73));
#325=EDGE_LOOP('',(#74));
#326=EDGE_LOOP('',(#75));
#327=EDGE_LOOP('',(#76));
#328=EDGE_LOOP('',(#77,#78,#79,#80));
#329=EDGE_LOOP('',(#81));
#330=EDGE_LOOP('',(#82));
#331=EDGE_LOOP('',(#83,#84,#85,#86,#87,#88));
#332=EDGE_LOOP('',(#89,#90,#91,#92));
#333=EDGE_LOOP('',(#93,#94,#95,#96));
#334=EDGE_LOOP('',(#97,#98,#99,#100));
#335=EDGE_LOOP('',(#101));
#336=EDGE_LOOP('',(#102));
#337=EDGE_LOOP('',(#103,#104,#105,#106));
#338=EDGE_LOOP('',(#107));
#339=EDGE_LOOP('',(#108));
#340=EDGE_LOOP('',(#109,#110,#111,#112));
#341=EDGE_LOOP('',(#113,#114,#115,#116));
#342=EDGE_LOOP('',(#117,#118,#119,#120));
#343=EDGE_LOOP('',(#121));
#344=EDGE_LOOP('',(#122));
#345=EDGE_LOOP('',(#123));
#346=EDGE_LOOP('',(#124));
#347=EDGE_LOOP('',(#125));
#348=EDGE_LOOP('',(#126));
#349=EDGE_LOOP('',(#127));
#350=EDGE_LOOP('',(#128));
#351=EDGE_LOOP('',(#129));
#352=EDGE_LOOP('',(#130));
#353=EDGE_LOOP('',(#131));
#354=EDGE_LOOP('',(#132));
#355=EDGE_LOOP('',(#133));
#356=EDGE_LOOP('',(#134));
#357=EDGE_LOOP('',(#135));
#358=EDGE_LOOP('',(#136));
#359=EDGE_LOOP('',(#137));
#360=EDGE_LOOP('',(#138));
#361=EDGE_LOOP('',(#139));
#362=EDGE_LOOP('',(#140));
#363=EDGE_LOOP('',(#141));
#364=EDGE_LOOP('',(#142));
#365=EDGE_LOOP('',(#143));
#366=EDGE_LOOP('',(#144));
#367=EDGE_LOOP('',(#145));
#368=EDGE_LOOP('',(#146));
#369=EDGE_LOOP('',(#147));
#370=EDGE_LOOP('',(#148));
#371=EDGE_LOOP('',(#149));
#372=EDGE_LOOP('',(#150));
#373=EDGE_LOOP('',(#151));
#374=EDGE_LOOP('',(#152));
#375=EDGE_LOOP('',(#153));
#376=EDGE_LOOP('',(#154));
#377=EDGE_LOOP('',(#155));
#378=EDGE_LOOP('',(#156));
#379=EDGE_LOOP('',(#157));
#380=EDGE_LOOP('',(#158));
#381=EDGE_LOOP('',(#159));
#382=EDGE_LOOP('',(#160));
#383=EDGE_LOOP('',(#161));
#384=EDGE_LOOP('',(#162));
#385=EDGE_LOOP('',(#163));
#386=EDGE_LOOP('',(#164));
#387=EDGE_LOOP('',(#165));
#388=EDGE_LOOP('',(#166));
#389=EDGE_LOOP('',(#167));
#390=EDGE_LOOP('',(#168));
#391=EDGE_LOOP('',(#169));
#392=EDGE_LOOP('',(#170));
#393=EDGE_LOOP('',(#171));
#394=EDGE_LOOP('',(#172));
#395=EDGE_LOOP('',(#173));
#396=EDGE_LOOP('',(#174));
#397=FACE_BOUND('',#316,.T.);
#398=FACE_BOUND('',#317,.T.);
#399=FACE_BOUND('',#318,.T.);
#400=FACE_BOUND('',#319,.T.);
#401=FACE_BOUND('',#320,.T.);
#402=FACE_BOUND('',#321,.T.);
#403=FACE_BOUND('',#322,.T.);
#404=FACE_BOUND('',#323,.T.);
#405=FACE_BOUND('',#324,.T.);
#406=FACE_BOUND('',#325,.T.);
#407=FACE_BOUND('',#326,.T.);
#408=FACE_BOUND('',#327,.T.);
#409=FACE_BOUND('',#328,.T.);
#410=FACE_BOUND('',#329,.T.);
#411=FACE_BOUND('',#330,.T.);
#412=FACE_BOUND('',#331,.T.);
#413=FACE_BOUND('',#332,.T.);
#414=FACE_BOUND('',#333,.T.);
#415=FACE_BOUND('',#334,.T.);
#416=FACE_BOUND('',#335,.T.);
#417=FACE_BOUND('',#336,.T.);
#418=FACE_BOUND('',#337,.T.);
#419=FACE_BOUND('',#338,.T.);
#420=FACE_BOUND('',#339,.T.);
#421=FACE_BOUND('',#340,.T.);
#422=FACE_BOUND('',#341,.T.);
#423=FACE_BOUND('',#342,.T.);
#424=FACE_BOUND('',#343,.T.);
#425=FACE_BOUND('',#344,.T.);
#426=FACE_BOUND('',#345,.T.);
#427=FACE_BOUND('',#346,.T.);
#428=FACE_BOUND('',#347,.T.);
#429=FACE_BOUND('',#348,.T.);
#430=FACE_BOUND('',#349,.T.);
#431=FACE_BOUND('',#350,.T.);
#432=FACE_BOUND('',#351,.T.);
#433=FACE_BOUND('',#352,.T.);
#434=FACE_BOUND('',#353,.T.);
#435=FACE_BOUND('',#354,.T.);
#436=FACE_BOUND('',#355,.T.);
#437=FACE_BOUND('',#356,.T.);
#438=FACE_BOUND('',#357,.T.);
#439=FACE_BOUND('',#358,.T.);
#440=FACE_BOUND('',#359,.T.);
#441=FACE_BOUND('',#360,.T.);
#442=FACE_BOUND('',#361,.T.);
#443=FACE_BOUND('',#362,.T.);
#444=FACE_BOUND('',#363,.T.);
#445=FACE_BOUND('',#364,.T.);
#446=FACE_BOUND('',#365,.T.);
#447=FACE_BOUND('',#366,.T.);
#448=FACE_BOUND('',#367,.T.);
#449=FACE_BOUND('',#368,.T.);
#450=FACE_BOUND('',#369,.T.);
#451=FACE_BOUND('',#370,.T.);
#452=FACE_BOUND('',#371,.T.);
#453=FACE_BOUND('',#372,.T.);
#454=FACE_BOUND('',#373,.T.);
#455=FACE_BOUND('',#374,.T.);
#456=FACE_BOUND('',#375,.T.);
#457=FACE_BOUND('',#376,.T.);
#458=FACE_BOUND('',#377,.T.);
#459=FACE_BOUND('',#378,.T.);
#460=FACE_BOUND('',#379,.T.);
#461=FACE_BOUND('',#380,.T.);
#462=FACE_BOUND('',#381,.T.);
#463=FACE_BOUND('',#382,.T.);
#464=FACE_BOUND('',#383,.T.);
#465=FACE_BOUND('',#384,.T.);
#466=FACE_BOUND('',#385,.T.);
#467=FACE_BOUND('',#386,.T.);
#468=FACE_BOUND('',#387,.T.);
#469=FACE_BOUND('',#388,.T.);
#470=FACE_BOUND('',#389,.T.);
#471=FACE_BOUND('',#390,.T.);
#472=FACE_BOUND('',#391,.T.);
#473=FACE_BOUND('',#392,.T.);
#474=FACE_BOUND('',#393,.T.);
#475=FACE_BOUND('',#394,.T.);
#476=FACE_BOUND('',#395,.T.);
#477=FACE_BOUND('',#396,.T.);
#478=PLANE('',#560);
#479=PLANE('',#575);
#480=PLANE('',#578);
#481=PLANE('',#579);
#482=PLANE('',#580);
#483=PLANE('',#581);
#484=PLANE('',#593);
#485=PLANE('',#596);
#486=PLANE('',#599);
#487=PLANE('',#602);
#488=PLANE('',#605);
#489=PLANE('',#608);
#490=PLANE('',#611);
#491=PLANE('',#614);
#492=PLANE('',#617);
#493=PLANE('',#620);
#494=PLANE('',#621);
#495=PLANE('',#624);
#496=PLANE('',#627);
#497=PLANE('',#630);
#498=PLANE('',#637);
#499=PLANE('',#638);
#500=PLANE('',#641);
#501=PLANE('',#644);
#502=ADVANCED_FACE('',(#397,#398,#399,#400,#401,#402,#403,#404,#405,#406,
#407,#408,#409,#410,#411),#478,.T.);
#503=ADVANCED_FACE('',(#412),#479,.T.);
#504=ADVANCED_FACE('',(#413),#480,.F.);
#505=ADVANCED_FACE('',(#414),#481,.F.);
#506=ADVANCED_FACE('',(#415),#482,.T.);
#507=ADVANCED_FACE('',(#416,#417,#418,#419,#420),#483,.F.);
#508=ADVANCED_FACE('',(#421),#14,.T.);
#509=ADVANCED_FACE('',(#422),#15,.T.);
#510=ADVANCED_FACE('',(#423),#16,.T.);
#511=ADVANCED_FACE('',(#424,#425),#17,.F.);
#512=ADVANCED_FACE('',(#426),#484,.T.);
#513=ADVANCED_FACE('',(#427,#428),#18,.F.);
#514=ADVANCED_FACE('',(#429),#485,.T.);
#515=ADVANCED_FACE('',(#430,#431),#19,.F.);
#516=ADVANCED_FACE('',(#432),#486,.T.);
#517=ADVANCED_FACE('',(#433,#434),#20,.F.);
#518=ADVANCED_FACE('',(#435),#487,.T.);
#519=ADVANCED_FACE('',(#436,#437),#21,.F.);
#520=ADVANCED_FACE('',(#438),#488,.T.);
#521=ADVANCED_FACE('',(#439,#440),#22,.F.);
#522=ADVANCED_FACE('',(#441),#489,.T.);
#523=ADVANCED_FACE('',(#442,#443),#23,.F.);
#524=ADVANCED_FACE('',(#444),#490,.T.);
#525=ADVANCED_FACE('',(#445,#446),#24,.F.);
#526=ADVANCED_FACE('',(#447),#491,.T.);
#527=ADVANCED_FACE('',(#448,#449),#25,.F.);
#528=ADVANCED_FACE('',(#450),#492,.T.);
#529=ADVANCED_FACE('',(#451,#452),#26,.F.);
#530=ADVANCED_FACE('',(#453),#493,.T.);
#531=ADVANCED_FACE('',(#454),#494,.T.);
#532=ADVANCED_FACE('',(#455,#456),#27,.T.);
#533=ADVANCED_FACE('',(#457),#495,.T.);
#534=ADVANCED_FACE('',(#458,#459),#28,.T.);
#535=ADVANCED_FACE('',(#460),#496,.F.);
#536=ADVANCED_FACE('',(#461,#462),#29,.T.);
#537=ADVANCED_FACE('',(#463),#497,.F.);
#538=ADVANCED_FACE('',(#464,#465),#30,.T.);
#539=ADVANCED_FACE('',(#466,#467),#31,.F.);
#540=ADVANCED_FACE('',(#468,#469),#32,.F.);
#541=ADVANCED_FACE('',(#470),#498,.T.);
#542=ADVANCED_FACE('',(#471),#499,.T.);
#543=ADVANCED_FACE('',(#472,#473),#33,.F.);
#544=ADVANCED_FACE('',(#474),#500,.F.);
#545=ADVANCED_FACE('',(#475,#476),#34,.F.);
#546=ADVANCED_FACE('',(#477),#501,.F.);
#547=CLOSED_SHELL('',(#502,#503,#504,#505,#506,#507,#508,#509,#510,#511,
#512,#513,#514,#515,#516,#517,#518,#519,#520,#521,#522,#523,#524,#525,#526,
#527,#528,#529,#530,#531,#532,#533,#534,#535,#536,#537,#538,#539,#540,#541,
#542,#543,#544,#545,#546));
#548=STYLED_ITEM('',(#549),#556);
#549=PRESENTATION_STYLE_ASSIGNMENT((#550));
#550=SURFACE_STYLE_USAGE(.BOTH.,#551);
#551=SURFACE_SIDE_STYLE('',(#552));
#552=SURFACE_STYLE_FILL_AREA(#553);
#553=FILL_AREA_STYLE('',(#554));
#554=FILL_AREA_STYLE_COLOUR('',#555);
#555=COLOUR_RGB('',0.231372549019608,0.380392156862745,0.705882352941177);
#556=MANIFOLD_SOLID_BREP('Wood Spring Piece',#547);
#557=SHAPE_DEFINITION_REPRESENTATION(#987,#558);
#558=SHAPE_REPRESENTATION('Wood Spring Piece',(#559),#982);
#559=AXIS2_PLACEMENT_3D('',#832,#645,#646);
#560=AXIS2_PLACEMENT_3D('',#833,#647,#648);
#561=AXIS2_PLACEMENT_3D('',#834,#649,#650);
#562=AXIS2_PLACEMENT_3D('',#836,#651,#652);
#563=AXIS2_PLACEMENT_3D('',#838,#653,#654);
#564=AXIS2_PLACEMENT_3D('',#840,#655,#656);
#565=AXIS2_PLACEMENT_3D('',#842,#657,#658);
#566=AXIS2_PLACEMENT_3D('',#844,#659,#660);
#567=AXIS2_PLACEMENT_3D('',#846,#661,#662);
#568=AXIS2_PLACEMENT_3D('',#848,#663,#664);
#569=AXIS2_PLACEMENT_3D('',#850,#665,#666);
#570=AXIS2_PLACEMENT_3D('',#852,#667,#668);
#571=AXIS2_PLACEMENT_3D('',#854,#669,#670);
#572=AXIS2_PLACEMENT_3D('',#856,#671,#672);
#573=AXIS2_PLACEMENT_3D('',#866,#677,#678);
#574=AXIS2_PLACEMENT_3D('',#868,#679,#680);
#575=AXIS2_PLACEMENT_3D('',#870,#681,#682);
#576=AXIS2_PLACEMENT_3D('',#871,#683,#684);
#577=AXIS2_PLACEMENT_3D('',#879,#688,#689);
#578=AXIS2_PLACEMENT_3D('',#880,#690,#691);
#579=AXIS2_PLACEMENT_3D('',#886,#695,#696);
#580=AXIS2_PLACEMENT_3D('',#892,#700,#701);
#581=AXIS2_PLACEMENT_3D('',#895,#704,#705);
#582=AXIS2_PLACEMENT_3D('',#896,#706,#707);
#583=AXIS2_PLACEMENT_3D('',#898,#708,#709);
#584=AXIS2_PLACEMENT_3D('',#900,#710,#711);
#585=AXIS2_PLACEMENT_3D('',#902,#712,#713);
#586=AXIS2_PLACEMENT_3D('',#904,#714,#715);
#587=AXIS2_PLACEMENT_3D('',#905,#716,#717);
#588=AXIS2_PLACEMENT_3D('',#906,#718,#719);
#589=AXIS2_PLACEMENT_3D('',#907,#720,#721);
#590=AXIS2_PLACEMENT_3D('',#908,#722,#723);
#591=AXIS2_PLACEMENT_3D('',#909,#724,#725);
#592=AXIS2_PLACEMENT_3D('',#910,#726,#727);
#593=AXIS2_PLACEMENT_3D('',#912,#728,#729);
#594=AXIS2_PLACEMENT_3D('',#913,#730,#731);
#595=AXIS2_PLACEMENT_3D('',#914,#732,#733);
#596=AXIS2_PLACEMENT_3D('',#916,#734,#735);
#597=AXIS2_PLACEMENT_3D('',#917,#736,#737);
#598=AXIS2_PLACEMENT_3D('',#918,#738,#739);
#599=AXIS2_PLACEMENT_3D('',#920,#740,#741);
#600=AXIS2_PLACEMENT_3D('',#921,#742,#743);
#601=AXIS2_PLACEMENT_3D('',#922,#744,#745);
#602=AXIS2_PLACEMENT_3D('',#924,#746,#747);
#603=AXIS2_PLACEMENT_3D('',#925,#748,#749);
#604=AXIS2_PLACEMENT_3D('',#926,#750,#751);
#605=AXIS2_PLACEMENT_3D('',#928,#752,#753);
#606=AXIS2_PLACEMENT_3D('',#929,#754,#755);
#607=AXIS2_PLACEMENT_3D('',#930,#756,#757);
#608=AXIS2_PLACEMENT_3D('',#932,#758,#759);
#609=AXIS2_PLACEMENT_3D('',#933,#760,#761);
#610=AXIS2_PLACEMENT_3D('',#934,#762,#763);
#611=AXIS2_PLACEMENT_3D('',#936,#764,#765);
#612=AXIS2_PLACEMENT_3D('',#937,#766,#767);
#613=AXIS2_PLACEMENT_3D('',#938,#768,#769);
#614=AXIS2_PLACEMENT_3D('',#940,#770,#771);
#615=AXIS2_PLACEMENT_3D('',#941,#772,#773);
#616=AXIS2_PLACEMENT_3D('',#942,#774,#775);
#617=AXIS2_PLACEMENT_3D('',#944,#776,#777);
#618=AXIS2_PLACEMENT_3D('',#945,#778,#779);
#619=AXIS2_PLACEMENT_3D('',#946,#780,#781);
#620=AXIS2_PLACEMENT_3D('',#948,#782,#783);
#621=AXIS2_PLACEMENT_3D('',#949,#784,#785);
#622=AXIS2_PLACEMENT_3D('',#950,#786,#787);
#623=AXIS2_PLACEMENT_3D('',#952,#788,#789);
#624=AXIS2_PLACEMENT_3D('',#953,#790,#791);
#625=AXIS2_PLACEMENT_3D('',#954,#792,#793);
#626=AXIS2_PLACEMENT_3D('',#956,#794,#795);
#627=AXIS2_PLACEMENT_3D('',#957,#796,#797);
#628=AXIS2_PLACEMENT_3D('',#958,#798,#799);
#629=AXIS2_PLACEMENT_3D('',#960,#800,#801);
#630=AXIS2_PLACEMENT_3D('',#961,#802,#803);
#631=AXIS2_PLACEMENT_3D('',#962,#804,#805);
#632=AXIS2_PLACEMENT_3D('',#964,#806,#807);
#633=AXIS2_PLACEMENT_3D('',#965,#808,#809);
#634=AXIS2_PLACEMENT_3D('',#966,#810,#811);
#635=AXIS2_PLACEMENT_3D('',#968,#812,#813);
#636=AXIS2_PLACEMENT_3D('',#969,#814,#815);
#637=AXIS2_PLACEMENT_3D('',#971,#816,#817);
#638=AXIS2_PLACEMENT_3D('',#972,#818,#819);
#639=AXIS2_PLACEMENT_3D('',#973,#820,#821);
#640=AXIS2_PLACEMENT_3D('',#974,#822,#823);
#641=AXIS2_PLACEMENT_3D('',#976,#824,#825);
#642=AXIS2_PLACEMENT_3D('',#977,#826,#827);
#643=AXIS2_PLACEMENT_3D('',#978,#828,#829);
#644=AXIS2_PLACEMENT_3D('',#980,#830,#831);
#645=DIRECTION('',(0.,0.,1.));
#646=DIRECTION('',(1.,0.,0.));
#647=DIRECTION('',(0.,0.,-1.));
#648=DIRECTION('',(1.,0.,0.));
#649=DIRECTION('',(0.,0.,-1.));
#650=DIRECTION('',(-1.,0.,0.));
#651=DIRECTION('',(0.,0.,-1.));
#652=DIRECTION('',(-1.,0.,0.));
#653=DIRECTION('',(0.,0.,-1.));
#654=DIRECTION('',(-1.,0.,0.));
#655=DIRECTION('',(0.,0.,-1.));
#656=DIRECTION('',(-1.,0.,0.));
#657=DIRECTION('',(0.,0.,-1.));
#658=DIRECTION('',(-1.,0.,0.));
#659=DIRECTION('',(0.,0.,-1.));
#660=DIRECTION('',(-1.,0.,0.));
#661=DIRECTION('',(0.,0.,-1.));
#662=DIRECTION('',(-1.,0.,0.));
#663=DIRECTION('',(0.,0.,-1.));
#664=DIRECTION('',(-1.,0.,0.));
#665=DIRECTION('',(0.,0.,-1.));
#666=DIRECTION('',(-1.,0.,0.));
#667=DIRECTION('',(0.,0.,-1.));
#668=DIRECTION('',(-1.,0.,0.));
#669=DIRECTION('',(0.,0.,-1.));
#670=DIRECTION('',(-1.,0.,0.));
#671=DIRECTION('',(0.,0.,-1.));
#672=DIRECTION('',(-1.,0.,0.));
#673=DIRECTION('',(0.,1.,0.));
#674=DIRECTION('',(-1.,-1.31338845849243E-16,0.));
#675=DIRECTION('',(0.,1.,0.));
#676=DIRECTION('',(-1.,-1.31338845849243E-16,0.));
#677=DIRECTION('',(0.,0.,-1.));
#678=DIRECTION('',(-1.,0.,0.));
#679=DIRECTION('',(0.,0.,-1.));
#680=DIRECTION('',(-1.,0.,0.));
#681=DIRECTION('',(1.,0.,0.));
#682=DIRECTION('',(0.,0.,-1.));
#683=DIRECTION('',(1.,0.,0.));
#684=DIRECTION('',(0.,0.,-1.));
#685=DIRECTION('',(0.,0.,1.));
#686=DIRECTION('',(0.,1.,0.));
#687=DIRECTION('',(0.,0.,1.));
#688=DIRECTION('',(1.,0.,0.));
#689=DIRECTION('',(0.,0.,-1.));
#690=DIRECTION('',(-1.31338845849243E-16,1.,0.));
#691=DIRECTION('',(-1.,-1.31338845849243E-16,0.));
#692=DIRECTION('',(0.,0.,1.));
#693=DIRECTION('',(-1.,-1.31338845849243E-16,0.));
#694=DIRECTION('',(-1.,-1.31338845849243E-16,0.));
#695=DIRECTION('',(1.,0.,0.));
#696=DIRECTION('',(0.,0.,-1.));
#697=DIRECTION('',(0.,0.,1.));
#698=DIRECTION('',(0.,1.,0.));
#699=DIRECTION('',(0.,1.,0.));
#700=DIRECTION('',(-1.31338845849243E-16,1.,0.));
#701=DIRECTION('',(-1.,-1.31338845849243E-16,0.));
#702=DIRECTION('',(-1.,-1.31338845849243E-16,0.));
#703=DIRECTION('',(-1.,-1.31338845849243E-16,0.));
#704=DIRECTION('',(0.,0.,-1.));
#705=DIRECTION('',(1.,0.,0.));
#706=DIRECTION('',(0.,0.,-1.));
#707=DIRECTION('',(-1.,0.,0.));
#708=DIRECTION('',(0.,0.,-1.));
#709=DIRECTION('',(-1.,0.,0.));
#710=DIRECTION('',(0.,0.,-1.));
#711=DIRECTION('',(-1.,0.,0.));
#712=DIRECTION('',(0.,0.,1.));
#713=DIRECTION('',(-1.,0.,0.));
#714=DIRECTION('',(1.,1.31338845849243E-16,0.));
#715=DIRECTION('',(-1.31338845849243E-16,1.,0.));
#716=DIRECTION('',(0.707106781186548,-0.707106781186548,0.));
#717=DIRECTION('',(0.707106781186548,0.707106781186548,0.));
#718=DIRECTION('',(0.,-1.,0.));
#719=DIRECTION('',(0.,0.,-1.));
#720=DIRECTION('',(-0.707106781186548,-0.707106781186548,0.));
#721=DIRECTION('',(0.707106781186548,-0.707106781186548,0.));
#722=DIRECTION('',(-1.,-1.31338845849243E-16,0.));
#723=DIRECTION('',(1.31338845849243E-16,-1.,0.));
#724=DIRECTION('',(0.,0.,-1.));
#725=DIRECTION('',(-1.,0.,0.));
#726=DIRECTION('',(0.,0.,-1.));
#727=DIRECTION('',(-1.,0.,0.));
#728=DIRECTION('',(0.,0.,-1.));
#729=DIRECTION('',(1.,0.,0.));
#730=DIRECTION('',(0.,0.,-1.));
#731=DIRECTION('',(-1.,0.,0.));
#732=DIRECTION('',(0.,0.,-1.));
#733=DIRECTION('',(-1.,0.,0.));
#734=DIRECTION('',(0.,0.,-1.));
#735=DIRECTION('',(1.,0.,0.));
#736=DIRECTION('',(0.,0.,-1.));
#737=DIRECTION('',(-1.,0.,0.));
#738=DIRECTION('',(0.,0.,-1.));
#739=DIRECTION('',(-1.,0.,0.));
#740=DIRECTION('',(0.,0.,-1.));
#741=DIRECTION('',(1.,0.,0.));
#742=DIRECTION('',(0.,0.,-1.));
#743=DIRECTION('',(-1.,0.,0.));
#744=DIRECTION('',(0.,0.,-1.));
#745=DIRECTION('',(-1.,0.,0.));
#746=DIRECTION('',(0.,0.,-1.));
#747=DIRECTION('',(1.,0.,0.));
#748=DIRECTION('',(0.,0.,-1.));
#749=DIRECTION('',(-1.,0.,0.));
#750=DIRECTION('',(0.,0.,-1.));
#751=DIRECTION('',(-1.,0.,0.));
#752=DIRECTION('',(0.,0.,-1.));
#753=DIRECTION('',(1.,0.,0.));
#754=DIRECTION('',(0.,0.,-1.));
#755=DIRECTION('',(-1.,0.,0.));
#756=DIRECTION('',(0.,0.,-1.));
#757=DIRECTION('',(-1.,0.,0.));
#758=DIRECTION('',(0.,0.,-1.));
#759=DIRECTION('',(1.,0.,0.));
#760=DIRECTION('',(0.,0.,-1.));
#761=DIRECTION('',(-1.,0.,0.));
#762=DIRECTION('',(0.,0.,-1.));
#763=DIRECTION('',(-1.,0.,0.));
#764=DIRECTION('',(0.,0.,-1.));
#765=DIRECTION('',(1.,0.,0.));
#766=DIRECTION('',(0.,0.,-1.));
#767=DIRECTION('',(-1.,0.,0.));
#768=DIRECTION('',(0.,0.,-1.));
#769=DIRECTION('',(-1.,0.,0.));
#770=DIRECTION('',(0.,0.,-1.));
#771=DIRECTION('',(1.,0.,0.));
#772=DIRECTION('',(0.,0.,-1.));
#773=DIRECTION('',(-1.,0.,0.));
#774=DIRECTION('',(0.,0.,-1.));
#775=DIRECTION('',(-1.,0.,0.));
#776=DIRECTION('',(0.,0.,-1.));
#777=DIRECTION('',(1.,0.,0.));
#778=DIRECTION('',(0.,0.,-1.));
#779=DIRECTION('',(-1.,0.,0.));
#780=DIRECTION('',(0.,0.,-1.));
#781=DIRECTION('',(-1.,0.,0.));
#782=DIRECTION('',(0.,0.,-1.));
#783=DIRECTION('',(1.,0.,0.));
#784=DIRECTION('',(0.,0.,-1.));
#785=DIRECTION('',(1.,0.,0.));
#786=DIRECTION('',(0.,0.,1.));
#787=DIRECTION('',(-1.,0.,0.));
#788=DIRECTION('',(0.,0.,1.));
#789=DIRECTION('',(1.,0.,0.));
#790=DIRECTION('',(0.,0.,-1.));
#791=DIRECTION('',(1.,0.,0.));
#792=DIRECTION('',(0.,0.,-1.));
#793=DIRECTION('',(-1.,0.,0.));
#794=DIRECTION('',(0.,0.,1.));
#795=DIRECTION('',(1.,0.,0.));
#796=DIRECTION('',(0.,0.,-1.));
#797=DIRECTION('',(1.,0.,0.));
#798=DIRECTION('',(0.,0.,1.));
#799=DIRECTION('',(-1.,0.,0.));
#800=DIRECTION('',(0.,0.,-1.));
#801=DIRECTION('',(-1.,0.,0.));
#802=DIRECTION('',(0.,0.,-1.));
#803=DIRECTION('',(1.,0.,0.));
#804=DIRECTION('',(0.,0.,-1.));
#805=DIRECTION('',(-1.,0.,0.));
#806=DIRECTION('',(0.,0.,-1.));
#807=DIRECTION('',(-1.,0.,0.));
#808=DIRECTION('',(0.,0.,-1.));
#809=DIRECTION('',(-1.,0.,0.));
#810=DIRECTION('',(0.,0.,-1.));
#811=DIRECTION('',(-1.,0.,0.));
#812=DIRECTION('',(0.,0.,-1.));
#813=DIRECTION('',(-1.,0.,0.));
#814=DIRECTION('',(0.,0.,-1.));
#815=DIRECTION('',(-1.,0.,0.));
#816=DIRECTION('',(0.,0.,-1.));
#817=DIRECTION('',(1.,0.,0.));
#818=DIRECTION('',(0.,0.,-1.));
#819=DIRECTION('',(1.,0.,0.));
#820=DIRECTION('',(0.,0.,1.));
#821=DIRECTION('',(1.,0.,0.));
#822=DIRECTION('',(0.,0.,-1.));
#823=DIRECTION('',(-1.,0.,0.));
#824=DIRECTION('',(0.,0.,-1.));
#825=DIRECTION('',(1.,0.,0.));
#826=DIRECTION('',(0.,0.,1.));
#827=DIRECTION('',(1.,0.,0.));
#828=DIRECTION('',(0.,0.,-1.));
#829=DIRECTION('',(-1.,0.,0.));
#830=DIRECTION('',(0.,0.,-1.));
#831=DIRECTION('',(1.,0.,0.));
#832=CARTESIAN_POINT('',(0.,0.,0.));
#833=CARTESIAN_POINT('',(0.,-6.93889390390723E-18,-0.1905));
#834=CARTESIAN_POINT('',(0.050165,-3.35945109942101E-18,-0.1905));
#835=CARTESIAN_POINT('',(0.046101,-3.35945109942101E-18,-0.1905));
#836=CARTESIAN_POINT('',(-0.050165,-3.26641146360947E-17,-0.1905));
#837=CARTESIAN_POINT('',(-0.054229,-3.26641146360947E-17,-0.1905));
#838=CARTESIAN_POINT('',(0.010795,0.00635,-0.1905));
#839=CARTESIAN_POINT('',(0.006985,0.00635,-0.1905));
#840=CARTESIAN_POINT('',(0.034925,-0.00635,-0.1905));
#841=CARTESIAN_POINT('',(0.031115,-0.00635,-0.1905));
#842=CARTESIAN_POINT('',(0.034925,0.00635,-0.1905));
#843=CARTESIAN_POINT('',(0.031115,0.00635,-0.1905));
#844=CARTESIAN_POINT('',(0.059055,-0.00635,-0.1905));
#845=CARTESIAN_POINT('',(0.055245,-0.00635,-0.1905));
#846=CARTESIAN_POINT('',(-0.037465,0.00635,-0.1905));
#847=CARTESIAN_POINT('',(-0.041275,0.00635,-0.1905));
#848=CARTESIAN_POINT('',(-0.013335,-0.00635,-0.1905));
#849=CARTESIAN_POINT('',(-0.017145,-0.00635,-0.1905));
#850=CARTESIAN_POINT('',(-0.013335,0.00635,-0.1905));
#851=CARTESIAN_POINT('',(-0.017145,0.00635,-0.1905));
#852=CARTESIAN_POINT('',(0.010795,-0.00635,-0.1905));
#853=CARTESIAN_POINT('',(0.006985,-0.00635,-0.1905));
#854=CARTESIAN_POINT('',(0.059055,0.00635,-0.1905));
#855=CARTESIAN_POINT('',(0.055245,0.00635,-0.1905));
#856=CARTESIAN_POINT('',(-0.037465,-0.00635,-0.1905));
#857=CARTESIAN_POINT('',(-0.041275,-0.00635,-0.1905));
#858=CARTESIAN_POINT('',(-0.05969,0.02032,-0.1905));
#859=CARTESIAN_POINT('',(-0.05969,-0.01397,-0.1905));
#860=CARTESIAN_POINT('',(-0.05969,0.01397,-0.1905));
#861=CARTESIAN_POINT('',(-1.83480367651393E-18,0.01397,-0.1905));
#862=CARTESIAN_POINT('',(0.06604,0.01397,-0.1905));
#863=CARTESIAN_POINT('',(0.06604,0.,-0.1905));
#864=CARTESIAN_POINT('',(0.06604,-0.01397,-0.1905));
#865=CARTESIAN_POINT('',(-0.06604,-0.01397,-0.1905));
#866=CARTESIAN_POINT('',(0.024765,3.61111864572607E-33,-0.1905));
#867=CARTESIAN_POINT('',(0.020955,3.61111864572607E-33,-0.1905));
#868=CARTESIAN_POINT('',(-0.024765,-9.09851339426526E-18,-0.1905));
#869=CARTESIAN_POINT('',(-0.028575,-9.09851339426526E-18,-0.1905));
#870=CARTESIAN_POINT('',(0.06604,0.,-0.1905));
#871=CARTESIAN_POINT('',(0.06604,0.01397,-0.18415));
#872=CARTESIAN_POINT('',(0.06604,0.02032,-0.18415));
#873=CARTESIAN_POINT('',(0.06604,0.02032,-0.1905));
#874=CARTESIAN_POINT('',(0.06604,0.02032,-0.1778));
#875=CARTESIAN_POINT('',(0.06604,0.,-0.1778));
#876=CARTESIAN_POINT('',(0.06604,-0.02032,-0.1778));
#877=CARTESIAN_POINT('',(0.06604,-0.02032,-0.1905));
#878=CARTESIAN_POINT('',(0.06604,-0.02032,-0.18415));
#879=CARTESIAN_POINT('',(0.06604,-0.01397,-0.18415));
#880=CARTESIAN_POINT('',(0.,-0.02032,-0.1905));
#881=CARTESIAN_POINT('',(-0.06604,-0.02032,-0.1905));
#882=CARTESIAN_POINT('',(-0.06604,-0.02032,-0.18415));
#883=CARTESIAN_POINT('',(-0.06604,-0.02032,-0.1778));
#884=CARTESIAN_POINT('',(0.06604,-0.02032,-0.18415));
#885=CARTESIAN_POINT('',(0.,-0.02032,-0.1778));
#886=CARTESIAN_POINT('',(-0.06604,0.,-0.1905));
#887=CARTESIAN_POINT('',(-0.06604,0.02032,-0.1905));
#888=CARTESIAN_POINT('',(-0.06604,0.02032,-0.18415));
#889=CARTESIAN_POINT('',(-0.06604,0.02032,-0.1778));
#890=CARTESIAN_POINT('',(-0.06604,-0.02032,-0.18415));
#891=CARTESIAN_POINT('',(-0.06604,0.,-0.1778));
#892=CARTESIAN_POINT('',(-6.93889390390723E-18,0.02032,-0.1905));
#893=CARTESIAN_POINT('',(-6.93889390390723E-18,0.02032,-0.18415));
#894=CARTESIAN_POINT('',(-6.93889390390723E-18,0.02032,-0.1778));
#895=CARTESIAN_POINT('',(0.,-6.93889390390723E-18,-0.1778));
#896=CARTESIAN_POINT('',(0.024765,-1.55530143491679E-20,-0.1778));
#897=CARTESIAN_POINT('',(0.020701,-1.55530143491679E-20,-0.1778));
#898=CARTESIAN_POINT('',(-0.024765,-1.30379250329592E-17,-0.1778));
#899=CARTESIAN_POINT('',(-0.028829,-1.30379250329592E-17,-0.1778));
#900=CARTESIAN_POINT('',(0.050165,-3.11060286983428E-18,-0.1778));
#901=CARTESIAN_POINT('',(0.046355,-3.11060286983428E-18,-0.1778));
#902=CARTESIAN_POINT('',(-0.050165,-2.15409248736023E-17,-0.1778));
#903=CARTESIAN_POINT('',(-0.053975,-2.15409248736023E-17,-0.1778));
#904=CARTESIAN_POINT('',(1.83480367651393E-18,-0.01397,-0.18415));
#905=CARTESIAN_POINT('',(-0.05969,-0.01397,-0.18415));
#906=CARTESIAN_POINT('',(-0.05969,-6.93889390390723E-18,-0.18415));
#907=CARTESIAN_POINT('',(-0.05969,0.01397,-0.18415));
#908=CARTESIAN_POINT('',(-6.10489223276453E-18,0.01397,-0.18415));
#909=CARTESIAN_POINT('',(-0.037465,-0.00635,-0.18796));
#910=CARTESIAN_POINT('',(-0.037465,-0.00635,-0.18796));
#911=CARTESIAN_POINT('',(-0.041275,-0.00635,-0.18796));
#912=CARTESIAN_POINT('',(0.003175,-6.93889390390723E-18,-0.18796));
#913=CARTESIAN_POINT('',(0.059055,0.00635,-0.18796));
#914=CARTESIAN_POINT('',(0.059055,0.00635,-0.18796));
#915=CARTESIAN_POINT('',(0.055245,0.00635,-0.18796));
#916=CARTESIAN_POINT('',(0.003175,-6.93889390390723E-18,-0.18796));
#917=CARTESIAN_POINT('',(0.010795,-0.00635,-0.18796));
#918=CARTESIAN_POINT('',(0.010795,-0.00635,-0.18796));
#919=CARTESIAN_POINT('',(0.006985,-0.00635,-0.18796));
#920=CARTESIAN_POINT('',(0.003175,-6.93889390390723E-18,-0.18796));
#921=CARTESIAN_POINT('',(-0.013335,0.00635,-0.18796));
#922=CARTESIAN_POINT('',(-0.013335,0.00635,-0.18796));
#923=CARTESIAN_POINT('',(-0.017145,0.00635,-0.18796));
#924=CARTESIAN_POINT('',(0.003175,-6.93889390390723E-18,-0.18796));
#925=CARTESIAN_POINT('',(-0.013335,-0.00635,-0.18796));
#926=CARTESIAN_POINT('',(-0.013335,-0.00635,-0.18796));
#927=CARTESIAN_POINT('',(-0.017145,-0.00635,-0.18796));
#928=CARTESIAN_POINT('',(0.003175,-6.93889390390723E-18,-0.18796));
#929=CARTESIAN_POINT('',(-0.037465,0.00635,-0.18796));
#930=CARTESIAN_POINT('',(-0.037465,0.00635,-0.18796));
#931=CARTESIAN_POINT('',(-0.041275,0.00635,-0.18796));
#932=CARTESIAN_POINT('',(0.003175,-6.93889390390723E-18,-0.18796));
#933=CARTESIAN_POINT('',(0.059055,-0.00635,-0.18796));
#934=CARTESIAN_POINT('',(0.059055,-0.00635,-0.18796));
#935=CARTESIAN_POINT('',(0.055245,-0.00635,-0.18796));
#936=CARTESIAN_POINT('',(0.003175,-6.93889390390723E-18,-0.18796));
#937=CARTESIAN_POINT('',(0.034925,0.00635,-0.18796));
#938=CARTESIAN_POINT('',(0.034925,0.00635,-0.18796));
#939=CARTESIAN_POINT('',(0.031115,0.00635,-0.18796));
#940=CARTESIAN_POINT('',(0.003175,-6.93889390390723E-18,-0.18796));
#941=CARTESIAN_POINT('',(0.034925,-0.00635,-0.18796));
#942=CARTESIAN_POINT('',(0.034925,-0.00635,-0.18796));
#943=CARTESIAN_POINT('',(0.031115,-0.00635,-0.18796));
#944=CARTESIAN_POINT('',(0.003175,-6.93889390390723E-18,-0.18796));
#945=CARTESIAN_POINT('',(0.010795,0.00635,-0.18796));
#946=CARTESIAN_POINT('',(0.010795,0.00635,-0.18796));
#947=CARTESIAN_POINT('',(0.006985,0.00635,-0.18796));
#948=CARTESIAN_POINT('',(0.003175,-6.93889390390723E-18,-0.18796));
#949=CARTESIAN_POINT('',(0.003175,-6.93889390390723E-18,-0.19685));
#950=CARTESIAN_POINT('',(-0.024765,-9.09851339426526E-18,-0.19685));
#951=CARTESIAN_POINT('',(-0.028575,-9.09851339426526E-18,-0.19685));
#952=CARTESIAN_POINT('',(-0.024765,-9.09851339426526E-18,-0.19685));
#953=CARTESIAN_POINT('',(0.003175,-6.93889390390723E-18,-0.19685));
#954=CARTESIAN_POINT('',(0.024765,3.61111864572607E-33,-0.19685));
#955=CARTESIAN_POINT('',(0.020955,3.61111864572607E-33,-0.19685));
#956=CARTESIAN_POINT('',(0.024765,3.61111864572607E-33,-0.19685));
#957=CARTESIAN_POINT('',(0.003175,-6.93889390390723E-18,-0.17145));
#958=CARTESIAN_POINT('',(-0.050165,-2.15409248736023E-17,-0.17145));
#959=CARTESIAN_POINT('',(-0.053975,-2.15409248736023E-17,-0.17145));
#960=CARTESIAN_POINT('',(-0.050165,-2.15409248736023E-17,-0.17145));
#961=CARTESIAN_POINT('',(0.003175,-6.93889390390723E-18,-0.17145));
#962=CARTESIAN_POINT('',(0.050165,-3.11060286983428E-18,-0.17145));
#963=CARTESIAN_POINT('',(0.046355,-3.11060286983428E-18,-0.17145));
#964=CARTESIAN_POINT('',(0.050165,-3.11060286983428E-18,-0.17145));
#965=CARTESIAN_POINT('',(0.050165,-3.35945109942101E-18,-0.18415));
#966=CARTESIAN_POINT('',(0.050165,-3.35945109942101E-18,-0.18415));
#967=CARTESIAN_POINT('',(0.046101,-3.35945109942101E-18,-0.18415));
#968=CARTESIAN_POINT('',(-0.050165,-3.26641146360947E-17,-0.18415));
#969=CARTESIAN_POINT('',(-0.050165,-3.26641146360947E-17,-0.18415));
#970=CARTESIAN_POINT('',(-0.054229,-3.26641146360947E-17,-0.18415));
#971=CARTESIAN_POINT('',(0.003175,-6.93889390390723E-18,-0.18415));
#972=CARTESIAN_POINT('',(0.003175,-6.93889390390723E-18,-0.18415));
#973=CARTESIAN_POINT('',(-0.024765,-1.30379250329592E-17,-0.185928));
#974=CARTESIAN_POINT('',(-0.024765,-1.30379250329592E-17,-0.185928));
#975=CARTESIAN_POINT('',(-0.028829,-1.30379250329592E-17,-0.185928));
#976=CARTESIAN_POINT('',(0.,0.,-0.185928));
#977=CARTESIAN_POINT('',(0.024765,-1.55530143491679E-20,-0.185928));
#978=CARTESIAN_POINT('',(0.024765,-1.55530143491679E-20,-0.185928));
#979=CARTESIAN_POINT('',(0.020701,-1.55530143491679E-20,-0.185928));
#980=CARTESIAN_POINT('',(0.,0.,-0.185928));
#981=MECHANICAL_DESIGN_GEOMETRIC_PRESENTATION_REPRESENTATION('',(#548),
#982);
#982=(
GEOMETRIC_REPRESENTATION_CONTEXT(3)
GLOBAL_UNCERTAINTY_ASSIGNED_CONTEXT((#983))
GLOBAL_UNIT_ASSIGNED_CONTEXT((#986,#985,#984))
REPRESENTATION_CONTEXT('Wood Spring Piece','TOP_LEVEL_ASSEMBLY_PART')
);
#983=UNCERTAINTY_MEASURE_WITH_UNIT(LENGTH_MEASURE(1.E-8),#986,
'DISTANCE_ACCURACY_VALUE','Maximum Tolerance applied to model');
#984=(
NAMED_UNIT(*)
SI_UNIT($,.STERADIAN.)
SOLID_ANGLE_UNIT()
);
#985=(
NAMED_UNIT(*)
PLANE_ANGLE_UNIT()
SI_UNIT($,.RADIAN.)
);
#986=(
LENGTH_UNIT()
NAMED_UNIT(*)
SI_UNIT($,.METRE.)
);
#987=PRODUCT_DEFINITION_SHAPE('','',#988);
#988=PRODUCT_DEFINITION('','',#990,#989);
#989=PRODUCT_DEFINITION_CONTEXT('',#996,'design');
#990=PRODUCT_DEFINITION_FORMATION_WITH_SPECIFIED_SOURCE('','',#992,
 .NOT_KNOWN.);
#991=PRODUCT_RELATED_PRODUCT_CATEGORY('','',(#992));
#992=PRODUCT('Wood Spring Piece','Wood Spring Piece',
'Wood Spring Piece',(#994));
#993=PRODUCT_CATEGORY('','');
#994=PRODUCT_CONTEXT('',#996,'mechanical');
#995=APPLICATION_PROTOCOL_DEFINITION('international standard',
'ap242_managed_model_based_3d_engineering',2020,#996);
#996=APPLICATION_CONTEXT('managed model based 3d engineering');
ENDSEC;
END-ISO-10303-21;
