ISO-10303-21;
HEADER;
/* Generated by software containing ST-Developer
 * from STEP Tools, Inc. (www.steptools.com) 
 */
/* OPTION: using custom renumber hook */

FILE_DESCRIPTION(
/* description */ ('STEP AP242 Edition 2',
'CAx-IF Rec.Pracs.---Representation and Presentation of Product Manufa
cturing Information (PMI)---4.0---2014-10-13',
'CAx-IF Rec.Pracs.---3D Tessellated Geometry---0.4---2014-09-14','2;1',
'CAx-IF Rec.Pracs.---User Defined Attributes---1.5---2016-08-15'),
/* implementation_level */ '2;1');

FILE_NAME(
/* name */ 'StackingFemale Bottom',
/* time_stamp */ '2026-08-06T17:48:49Z',
/* author */ (''),
/* organization */ (''),
/* preprocessor_version */ 'ST-DEVELOPER v20',
/* originating_system */ 'ONSHAPE BY PTC INC, 1.218',
/* authorisation */ '  ');

FILE_SCHEMA (('AP242_MANAGED_MODEL_BASED_3D_ENGINEERING_MIM_LF { 1 0 10303 442 3 1 4 }'));
ENDSEC;

DATA;
#10=SHAPE_REPRESENTATION_RELATIONSHIP('','',#514,#11);
#11=ADVANCED_BREP_SHAPE_REPRESENTATION('',(#512),#902);
#12=ELLIPSE('',#541,0.00898025612106916,0.00635);
#13=ELLIPSE('',#543,0.00898025612106915,0.00635);
#14=CYLINDRICAL_SURFACE('',#540,0.00635);
#15=CYLINDRICAL_SURFACE('',#542,0.00635);
#16=CYLINDRICAL_SURFACE('',#544,0.00635);
#17=CYLINDRICAL_SURFACE('',#545,0.00381);
#18=CYLINDRICAL_SURFACE('',#548,0.00381);
#19=CYLINDRICAL_SURFACE('',#551,0.00381);
#20=CYLINDRICAL_SURFACE('',#554,0.00381);
#21=CYLINDRICAL_SURFACE('',#557,0.00381);
#22=CYLINDRICAL_SURFACE('',#560,0.00381);
#23=CYLINDRICAL_SURFACE('',#563,0.00381);
#24=CYLINDRICAL_SURFACE('',#566,0.00381);
#25=CYLINDRICAL_SURFACE('',#569,0.00381);
#26=CYLINDRICAL_SURFACE('',#572,0.00381);
#27=CYLINDRICAL_SURFACE('',#577,0.00381);
#28=CYLINDRICAL_SURFACE('',#580,0.00381);
#29=CYLINDRICAL_SURFACE('',#581,0.004064);
#30=CYLINDRICAL_SURFACE('',#583,0.004064);
#31=CYLINDRICAL_SURFACE('',#587,0.004064);
#32=CYLINDRICAL_SURFACE('',#589,0.004064);
#33=LINE('',#774,#48);
#34=LINE('',#777,#49);
#35=LINE('',#779,#50);
#36=LINE('',#781,#51);
#37=LINE('',#805,#52);
#38=LINE('',#807,#53);
#39=LINE('',#809,#54);
#40=LINE('',#813,#55);
#41=LINE('',#816,#56);
#42=LINE('',#817,#57);
#43=LINE('',#819,#58);
#44=LINE('',#822,#59);
#45=LINE('',#823,#60);
#46=LINE('',#825,#61);
#47=LINE('',#826,#62);
#48=VECTOR('',#605,1.);
#49=VECTOR('',#606,1.);
#50=VECTOR('',#607,1.);
#51=VECTOR('',#608,1.);
#52=VECTOR('',#633,1.);
#53=VECTOR('',#634,1.);
#54=VECTOR('',#635,1.);
#55=VECTOR('',#640,1.);
#56=VECTOR('',#641,1.);
#57=VECTOR('',#642,1.);
#58=VECTOR('',#645,1.);
#59=VECTOR('',#646,1.);
#60=VECTOR('',#647,1.);
#61=VECTOR('',#650,1.);
#62=VECTOR('',#651,1.);
#63=ORIENTED_EDGE('',*,*,#165,.F.);
#64=ORIENTED_EDGE('',*,*,#166,.F.);
#65=ORIENTED_EDGE('',*,*,#167,.F.);
#66=ORIENTED_EDGE('',*,*,#168,.F.);
#67=ORIENTED_EDGE('',*,*,#169,.T.);
#68=ORIENTED_EDGE('',*,*,#170,.T.);
#69=ORIENTED_EDGE('',*,*,#171,.F.);
#70=ORIENTED_EDGE('',*,*,#172,.T.);
#71=ORIENTED_EDGE('',*,*,#173,.F.);
#72=ORIENTED_EDGE('',*,*,#174,.F.);
#73=ORIENTED_EDGE('',*,*,#175,.F.);
#74=ORIENTED_EDGE('',*,*,#176,.F.);
#75=ORIENTED_EDGE('',*,*,#177,.F.);
#76=ORIENTED_EDGE('',*,*,#178,.F.);
#77=ORIENTED_EDGE('',*,*,#179,.F.);
#78=ORIENTED_EDGE('',*,*,#180,.F.);
#79=ORIENTED_EDGE('',*,*,#181,.F.);
#80=ORIENTED_EDGE('',*,*,#182,.F.);
#81=ORIENTED_EDGE('',*,*,#171,.T.);
#82=ORIENTED_EDGE('',*,*,#183,.T.);
#83=ORIENTED_EDGE('',*,*,#184,.T.);
#84=ORIENTED_EDGE('',*,*,#185,.F.);
#85=ORIENTED_EDGE('',*,*,#186,.F.);
#86=ORIENTED_EDGE('',*,*,#187,.T.);
#87=ORIENTED_EDGE('',*,*,#188,.F.);
#88=ORIENTED_EDGE('',*,*,#189,.T.);
#89=ORIENTED_EDGE('',*,*,#186,.T.);
#90=ORIENTED_EDGE('',*,*,#190,.T.);
#91=ORIENTED_EDGE('',*,*,#191,.F.);
#92=ORIENTED_EDGE('',*,*,#192,.T.);
#93=ORIENTED_EDGE('',*,*,#188,.T.);
#94=ORIENTED_EDGE('',*,*,#193,.T.);
#95=ORIENTED_EDGE('',*,*,#184,.F.);
#96=ORIENTED_EDGE('',*,*,#194,.T.);
#97=ORIENTED_EDGE('',*,*,#191,.T.);
#98=ORIENTED_EDGE('',*,*,#195,.F.);
#99=ORIENTED_EDGE('',*,*,#196,.T.);
#100=ORIENTED_EDGE('',*,*,#197,.T.);
#101=ORIENTED_EDGE('',*,*,#185,.T.);
#102=ORIENTED_EDGE('',*,*,#195,.T.);
#103=ORIENTED_EDGE('',*,*,#193,.F.);
#104=ORIENTED_EDGE('',*,*,#190,.F.);
#105=ORIENTED_EDGE('',*,*,#187,.F.);
#106=ORIENTED_EDGE('',*,*,#189,.F.);
#107=ORIENTED_EDGE('',*,*,#198,.F.);
#108=ORIENTED_EDGE('',*,*,#172,.F.);
#109=ORIENTED_EDGE('',*,*,#198,.T.);
#110=ORIENTED_EDGE('',*,*,#192,.F.);
#111=ORIENTED_EDGE('',*,*,#199,.F.);
#112=ORIENTED_EDGE('',*,*,#169,.F.);
#113=ORIENTED_EDGE('',*,*,#183,.F.);
#114=ORIENTED_EDGE('',*,*,#170,.F.);
#115=ORIENTED_EDGE('',*,*,#199,.T.);
#116=ORIENTED_EDGE('',*,*,#194,.F.);
#117=ORIENTED_EDGE('',*,*,#200,.F.);
#118=ORIENTED_EDGE('',*,*,#173,.T.);
#119=ORIENTED_EDGE('',*,*,#200,.T.);
#120=ORIENTED_EDGE('',*,*,#201,.F.);
#121=ORIENTED_EDGE('',*,*,#174,.T.);
#122=ORIENTED_EDGE('',*,*,#201,.T.);
#123=ORIENTED_EDGE('',*,*,#202,.F.);
#124=ORIENTED_EDGE('',*,*,#175,.T.);
#125=ORIENTED_EDGE('',*,*,#202,.T.);
#126=ORIENTED_EDGE('',*,*,#203,.F.);
#127=ORIENTED_EDGE('',*,*,#176,.T.);
#128=ORIENTED_EDGE('',*,*,#203,.T.);
#129=ORIENTED_EDGE('',*,*,#204,.F.);
#130=ORIENTED_EDGE('',*,*,#177,.T.);
#131=ORIENTED_EDGE('',*,*,#204,.T.);
#132=ORIENTED_EDGE('',*,*,#205,.F.);
#133=ORIENTED_EDGE('',*,*,#178,.T.);
#134=ORIENTED_EDGE('',*,*,#205,.T.);
#135=ORIENTED_EDGE('',*,*,#206,.F.);
#136=ORIENTED_EDGE('',*,*,#179,.T.);
#137=ORIENTED_EDGE('',*,*,#206,.T.);
#138=ORIENTED_EDGE('',*,*,#207,.F.);
#139=ORIENTED_EDGE('',*,*,#180,.T.);
#140=ORIENTED_EDGE('',*,*,#207,.T.);
#141=ORIENTED_EDGE('',*,*,#208,.F.);
#142=ORIENTED_EDGE('',*,*,#181,.T.);
#143=ORIENTED_EDGE('',*,*,#208,.T.);
#144=ORIENTED_EDGE('',*,*,#209,.F.);
#145=ORIENTED_EDGE('',*,*,#182,.T.);
#146=ORIENTED_EDGE('',*,*,#209,.T.);
#147=ORIENTED_EDGE('',*,*,#210,.F.);
#148=ORIENTED_EDGE('',*,*,#167,.T.);
#149=ORIENTED_EDGE('',*,*,#210,.T.);
#150=ORIENTED_EDGE('',*,*,#211,.T.);
#151=ORIENTED_EDGE('',*,*,#168,.T.);
#152=ORIENTED_EDGE('',*,*,#211,.F.);
#153=ORIENTED_EDGE('',*,*,#212,.T.);
#154=ORIENTED_EDGE('',*,*,#197,.F.);
#155=ORIENTED_EDGE('',*,*,#213,.T.);
#156=ORIENTED_EDGE('',*,*,#196,.F.);
#157=ORIENTED_EDGE('',*,*,#212,.F.);
#158=ORIENTED_EDGE('',*,*,#213,.F.);
#159=ORIENTED_EDGE('',*,*,#214,.F.);
#160=ORIENTED_EDGE('',*,*,#165,.T.);
#161=ORIENTED_EDGE('',*,*,#215,.F.);
#162=ORIENTED_EDGE('',*,*,#166,.T.);
#163=ORIENTED_EDGE('',*,*,#214,.T.);
#164=ORIENTED_EDGE('',*,*,#215,.T.);
#165=EDGE_CURVE('',#216,#216,#260,.T.);
#166=EDGE_CURVE('',#217,#217,#261,.T.);
#167=EDGE_CURVE('',#218,#218,#262,.T.);
#168=EDGE_CURVE('',#219,#219,#263,.T.);
#169=EDGE_CURVE('',#220,#221,#33,.T.);
#170=EDGE_CURVE('',#221,#222,#34,.F.);
#171=EDGE_CURVE('',#223,#222,#35,.T.);
#172=EDGE_CURVE('',#223,#220,#36,.T.);
#173=EDGE_CURVE('',#224,#224,#264,.T.);
#174=EDGE_CURVE('',#225,#225,#265,.T.);
#175=EDGE_CURVE('',#226,#226,#266,.T.);
#176=EDGE_CURVE('',#227,#227,#267,.T.);
#177=EDGE_CURVE('',#228,#228,#268,.T.);
#178=EDGE_CURVE('',#229,#229,#269,.T.);
#179=EDGE_CURVE('',#230,#230,#270,.T.);
#180=EDGE_CURVE('',#231,#231,#271,.T.);
#181=EDGE_CURVE('',#232,#232,#272,.T.);
#182=EDGE_CURVE('',#233,#233,#273,.T.);
#183=EDGE_CURVE('',#222,#234,#274,.T.);
#184=EDGE_CURVE('',#234,#235,#37,.T.);
#185=EDGE_CURVE('',#236,#235,#38,.T.);
#186=EDGE_CURVE('',#237,#236,#39,.T.);
#187=EDGE_CURVE('',#237,#223,#275,.T.);
#188=EDGE_CURVE('',#238,#239,#40,.T.);
#189=EDGE_CURVE('',#238,#237,#41,.F.);
#190=EDGE_CURVE('',#236,#239,#42,.T.);
#191=EDGE_CURVE('',#240,#241,#43,.T.);
#192=EDGE_CURVE('',#240,#238,#44,.F.);
#193=EDGE_CURVE('',#239,#241,#45,.T.);
#194=EDGE_CURVE('',#234,#240,#46,.T.);
#195=EDGE_CURVE('',#235,#241,#47,.T.);
#196=EDGE_CURVE('',#242,#242,#276,.T.);
#197=EDGE_CURVE('',#243,#243,#277,.T.);
#198=EDGE_CURVE('',#220,#238,#12,.F.);
#199=EDGE_CURVE('',#221,#240,#13,.F.);
#200=EDGE_CURVE('',#244,#244,#278,.T.);
#201=EDGE_CURVE('',#245,#245,#279,.T.);
#202=EDGE_CURVE('',#246,#246,#280,.T.);
#203=EDGE_CURVE('',#247,#247,#281,.T.);
#204=EDGE_CURVE('',#248,#248,#282,.T.);
#205=EDGE_CURVE('',#249,#249,#283,.T.);
#206=EDGE_CURVE('',#250,#250,#284,.T.);
#207=EDGE_CURVE('',#251,#251,#285,.T.);
#208=EDGE_CURVE('',#252,#252,#286,.T.);
#209=EDGE_CURVE('',#253,#253,#287,.T.);
#210=EDGE_CURVE('',#254,#254,#288,.T.);
#211=EDGE_CURVE('',#255,#255,#289,.T.);
#212=EDGE_CURVE('',#256,#256,#290,.T.);
#213=EDGE_CURVE('',#257,#257,#291,.T.);
#214=EDGE_CURVE('',#258,#258,#292,.T.);
#215=EDGE_CURVE('',#259,#259,#293,.T.);
#216=VERTEX_POINT('',#767);
#217=VERTEX_POINT('',#769);
#218=VERTEX_POINT('',#771);
#219=VERTEX_POINT('',#773);
#220=VERTEX_POINT('',#775);
#221=VERTEX_POINT('',#776);
#222=VERTEX_POINT('',#778);
#223=VERTEX_POINT('',#780);
#224=VERTEX_POINT('',#783);
#225=VERTEX_POINT('',#785);
#226=VERTEX_POINT('',#787);
#227=VERTEX_POINT('',#789);
#228=VERTEX_POINT('',#791);
#229=VERTEX_POINT('',#793);
#230=VERTEX_POINT('',#795);
#231=VERTEX_POINT('',#797);
#232=VERTEX_POINT('',#799);
#233=VERTEX_POINT('',#801);
#234=VERTEX_POINT('',#804);
#235=VERTEX_POINT('',#806);
#236=VERTEX_POINT('',#808);
#237=VERTEX_POINT('',#810);
#238=VERTEX_POINT('',#814);
#239=VERTEX_POINT('',#815);
#240=VERTEX_POINT('',#820);
#241=VERTEX_POINT('',#821);
#242=VERTEX_POINT('',#829);
#243=VERTEX_POINT('',#831);
#244=VERTEX_POINT('',#839);
#245=VERTEX_POINT('',#843);
#246=VERTEX_POINT('',#847);
#247=VERTEX_POINT('',#851);
#248=VERTEX_POINT('',#855);
#249=VERTEX_POINT('',#859);
#250=VERTEX_POINT('',#863);
#251=VERTEX_POINT('',#867);
#252=VERTEX_POINT('',#871);
#253=VERTEX_POINT('',#875);
#254=VERTEX_POINT('',#879);
#255=VERTEX_POINT('',#883);
#256=VERTEX_POINT('',#887);
#257=VERTEX_POINT('',#890);
#258=VERTEX_POINT('',#895);
#259=VERTEX_POINT('',#898);
#260=CIRCLE('',#517,0.004064);
#261=CIRCLE('',#518,0.004064);
#262=CIRCLE('',#519,0.00381);
#263=CIRCLE('',#520,0.00381);
#264=CIRCLE('',#521,0.00381);
#265=CIRCLE('',#522,0.00381);
#266=CIRCLE('',#523,0.00381);
#267=CIRCLE('',#524,0.00381);
#268=CIRCLE('',#525,0.00381);
#269=CIRCLE('',#526,0.00381);
#270=CIRCLE('',#527,0.00381);
#271=CIRCLE('',#528,0.00381);
#272=CIRCLE('',#529,0.00381);
#273=CIRCLE('',#530,0.00381);
#274=CIRCLE('',#532,0.00635);
#275=CIRCLE('',#533,0.00635);
#276=CIRCLE('',#538,0.004064);
#277=CIRCLE('',#539,0.004064);
#278=CIRCLE('',#546,0.00381);
#279=CIRCLE('',#549,0.00381);
#280=CIRCLE('',#552,0.00381);
#281=CIRCLE('',#555,0.00381);
#282=CIRCLE('',#558,0.00381);
#283=CIRCLE('',#561,0.00381);
#284=CIRCLE('',#564,0.00381);
#285=CIRCLE('',#567,0.00381);
#286=CIRCLE('',#570,0.00381);
#287=CIRCLE('',#573,0.00381);
#288=CIRCLE('',#576,0.00381);
#289=CIRCLE('',#579,0.00381);
#290=CIRCLE('',#582,0.004064);
#291=CIRCLE('',#584,0.004064);
#292=CIRCLE('',#588,0.004064);
#293=CIRCLE('',#590,0.004064);
#294=EDGE_LOOP('',(#63));
#295=EDGE_LOOP('',(#64));
#296=EDGE_LOOP('',(#65));
#297=EDGE_LOOP('',(#66));
#298=EDGE_LOOP('',(#67,#68,#69,#70));
#299=EDGE_LOOP('',(#71));
#300=EDGE_LOOP('',(#72));
#301=EDGE_LOOP('',(#73));
#302=EDGE_LOOP('',(#74));
#303=EDGE_LOOP('',(#75));
#304=EDGE_LOOP('',(#76));
#305=EDGE_LOOP('',(#77));
#306=EDGE_LOOP('',(#78));
#307=EDGE_LOOP('',(#79));
#308=EDGE_LOOP('',(#80));
#309=EDGE_LOOP('',(#81,#82,#83,#84,#85,#86));
#310=EDGE_LOOP('',(#87,#88,#89,#90));
#311=EDGE_LOOP('',(#91,#92,#93,#94));
#312=EDGE_LOOP('',(#95,#96,#97,#98));
#313=EDGE_LOOP('',(#99));
#314=EDGE_LOOP('',(#100));
#315=EDGE_LOOP('',(#101,#102,#103,#104));
#316=EDGE_LOOP('',(#105,#106,#107,#108));
#317=EDGE_LOOP('',(#109,#110,#111,#112));
#318=EDGE_LOOP('',(#113,#114,#115,#116));
#319=EDGE_LOOP('',(#117));
#320=EDGE_LOOP('',(#118));
#321=EDGE_LOOP('',(#119));
#322=EDGE_LOOP('',(#120));
#323=EDGE_LOOP('',(#121));
#324=EDGE_LOOP('',(#122));
#325=EDGE_LOOP('',(#123));
#326=EDGE_LOOP('',(#124));
#327=EDGE_LOOP('',(#125));
#328=EDGE_LOOP('',(#126));
#329=EDGE_LOOP('',(#127));
#330=EDGE_LOOP('',(#128));
#331=EDGE_LOOP('',(#129));
#332=EDGE_LOOP('',(#130));
#333=EDGE_LOOP('',(#131));
#334=EDGE_LOOP('',(#132));
#335=EDGE_LOOP('',(#133));
#336=EDGE_LOOP('',(#134));
#337=EDGE_LOOP('',(#135));
#338=EDGE_LOOP('',(#136));
#339=EDGE_LOOP('',(#137));
#340=EDGE_LOOP('',(#138));
#341=EDGE_LOOP('',(#139));
#342=EDGE_LOOP('',(#140));
#343=EDGE_LOOP('',(#141));
#344=EDGE_LOOP('',(#142));
#345=EDGE_LOOP('',(#143));
#346=EDGE_LOOP('',(#144));
#347=EDGE_LOOP('',(#145));
#348=EDGE_LOOP('',(#146));
#349=EDGE_LOOP('',(#147));
#350=EDGE_LOOP('',(#148));
#351=EDGE_LOOP('',(#149));
#352=EDGE_LOOP('',(#150));
#353=EDGE_LOOP('',(#151));
#354=EDGE_LOOP('',(#152));
#355=EDGE_LOOP('',(#153));
#356=EDGE_LOOP('',(#154));
#357=EDGE_LOOP('',(#155));
#358=EDGE_LOOP('',(#156));
#359=EDGE_LOOP('',(#157));
#360=EDGE_LOOP('',(#158));
#361=EDGE_LOOP('',(#159));
#362=EDGE_LOOP('',(#160));
#363=EDGE_LOOP('',(#161));
#364=EDGE_LOOP('',(#162));
#365=EDGE_LOOP('',(#163));
#366=EDGE_LOOP('',(#164));
#367=FACE_BOUND('',#294,.T.);
#368=FACE_BOUND('',#295,.T.);
#369=FACE_BOUND('',#296,.T.);
#370=FACE_BOUND('',#297,.T.);
#371=FACE_BOUND('',#298,.T.);
#372=FACE_BOUND('',#299,.T.);
#373=FACE_BOUND('',#300,.T.);
#374=FACE_BOUND('',#301,.T.);
#375=FACE_BOUND('',#302,.T.);
#376=FACE_BOUND('',#303,.T.);
#377=FACE_BOUND('',#304,.T.);
#378=FACE_BOUND('',#305,.T.);
#379=FACE_BOUND('',#306,.T.);
#380=FACE_BOUND('',#307,.T.);
#381=FACE_BOUND('',#308,.T.);
#382=FACE_BOUND('',#309,.T.);
#383=FACE_BOUND('',#310,.T.);
#384=FACE_BOUND('',#311,.T.);
#385=FACE_BOUND('',#312,.T.);
#386=FACE_BOUND('',#313,.T.);
#387=FACE_BOUND('',#314,.T.);
#388=FACE_BOUND('',#315,.T.);
#389=FACE_BOUND('',#316,.T.);
#390=FACE_BOUND('',#317,.T.);
#391=FACE_BOUND('',#318,.T.);
#392=FACE_BOUND('',#319,.T.);
#393=FACE_BOUND('',#320,.T.);
#394=FACE_BOUND('',#321,.T.);
#395=FACE_BOUND('',#322,.T.);
#396=FACE_BOUND('',#323,.T.);
#397=FACE_BOUND('',#324,.T.);
#398=FACE_BOUND('',#325,.T.);
#399=FACE_BOUND('',#326,.T.);
#400=FACE_BOUND('',#327,.T.);
#401=FACE_BOUND('',#328,.T.);
#402=FACE_BOUND('',#329,.T.);
#403=FACE_BOUND('',#330,.T.);
#404=FACE_BOUND('',#331,.T.);
#405=FACE_BOUND('',#332,.T.);
#406=FACE_BOUND('',#333,.T.);
#407=FACE_BOUND('',#334,.T.);
#408=FACE_BOUND('',#335,.T.);
#409=FACE_BOUND('',#336,.T.);
#410=FACE_BOUND('',#337,.T.);
#411=FACE_BOUND('',#338,.T.);
#412=FACE_BOUND('',#339,.T.);
#413=FACE_BOUND('',#340,.T.);
#414=FACE_BOUND('',#341,.T.);
#415=FACE_BOUND('',#342,.T.);
#416=FACE_BOUND('',#343,.T.);
#417=FACE_BOUND('',#344,.T.);
#418=FACE_BOUND('',#345,.T.);
#419=FACE_BOUND('',#346,.T.);
#420=FACE_BOUND('',#347,.T.);
#421=FACE_BOUND('',#348,.T.);
#422=FACE_BOUND('',#349,.T.);
#423=FACE_BOUND('',#350,.T.);
#424=FACE_BOUND('',#351,.T.);
#425=FACE_BOUND('',#352,.T.);
#426=FACE_BOUND('',#353,.T.);
#427=FACE_BOUND('',#354,.T.);
#428=FACE_BOUND('',#355,.T.);
#429=FACE_BOUND('',#356,.T.);
#430=FACE_BOUND('',#357,.T.);
#431=FACE_BOUND('',#358,.T.);
#432=FACE_BOUND('',#359,.T.);
#433=FACE_BOUND('',#360,.T.);
#434=FACE_BOUND('',#361,.T.);
#435=FACE_BOUND('',#362,.T.);
#436=FACE_BOUND('',#363,.T.);
#437=FACE_BOUND('',#364,.T.);
#438=FACE_BOUND('',#365,.T.);
#439=FACE_BOUND('',#366,.T.);
#440=PLANE('',#516);
#441=PLANE('',#531);
#442=PLANE('',#534);
#443=PLANE('',#535);
#444=PLANE('',#536);
#445=PLANE('',#537);
#446=PLANE('',#547);
#447=PLANE('',#550);
#448=PLANE('',#553);
#449=PLANE('',#556);
#450=PLANE('',#559);
#451=PLANE('',#562);
#452=PLANE('',#565);
#453=PLANE('',#568);
#454=PLANE('',#571);
#455=PLANE('',#574);
#456=PLANE('',#575);
#457=PLANE('',#578);
#458=PLANE('',#585);
#459=PLANE('',#586);
#460=PLANE('',#591);
#461=PLANE('',#592);
#462=ADVANCED_FACE('',(#367,#368,#369,#370,#371,#372,#373,#374,#375,#376,
#377,#378,#379,#380,#381),#440,.T.);
#463=ADVANCED_FACE('',(#382),#441,.T.);
#464=ADVANCED_FACE('',(#383),#442,.F.);
#465=ADVANCED_FACE('',(#384),#443,.F.);
#466=ADVANCED_FACE('',(#385),#444,.T.);
#467=ADVANCED_FACE('',(#386,#387,#388),#445,.F.);
#468=ADVANCED_FACE('',(#389),#14,.T.);
#469=ADVANCED_FACE('',(#390),#15,.T.);
#470=ADVANCED_FACE('',(#391),#16,.T.);
#471=ADVANCED_FACE('',(#392,#393),#17,.F.);
#472=ADVANCED_FACE('',(#394),#446,.T.);
#473=ADVANCED_FACE('',(#395,#396),#18,.F.);
#474=ADVANCED_FACE('',(#397),#447,.T.);
#475=ADVANCED_FACE('',(#398,#399),#19,.F.);
#476=ADVANCED_FACE('',(#400),#448,.T.);
#477=ADVANCED_FACE('',(#401,#402),#20,.F.);
#478=ADVANCED_FACE('',(#403),#449,.T.);
#479=ADVANCED_FACE('',(#404,#405),#21,.F.);
#480=ADVANCED_FACE('',(#406),#450,.T.);
#481=ADVANCED_FACE('',(#407,#408),#22,.F.);
#482=ADVANCED_FACE('',(#409),#451,.T.);
#483=ADVANCED_FACE('',(#410,#411),#23,.F.);
#484=ADVANCED_FACE('',(#412),#452,.T.);
#485=ADVANCED_FACE('',(#413,#414),#24,.F.);
#486=ADVANCED_FACE('',(#415),#453,.T.);
#487=ADVANCED_FACE('',(#416,#417),#25,.F.);
#488=ADVANCED_FACE('',(#418),#454,.T.);
#489=ADVANCED_FACE('',(#419,#420),#26,.F.);
#490=ADVANCED_FACE('',(#421),#455,.T.);
#491=ADVANCED_FACE('',(#422),#456,.T.);
#492=ADVANCED_FACE('',(#423,#424),#27,.T.);
#493=ADVANCED_FACE('',(#425),#457,.T.);
#494=ADVANCED_FACE('',(#426,#427),#28,.T.);
#495=ADVANCED_FACE('',(#428,#429),#29,.F.);
#496=ADVANCED_FACE('',(#430,#431),#30,.F.);
#497=ADVANCED_FACE('',(#432),#458,.F.);
#498=ADVANCED_FACE('',(#433),#459,.F.);
#499=ADVANCED_FACE('',(#434,#435),#31,.F.);
#500=ADVANCED_FACE('',(#436,#437),#32,.F.);
#501=ADVANCED_FACE('',(#438),#460,.T.);
#502=ADVANCED_FACE('',(#439),#461,.T.);
#503=CLOSED_SHELL('',(#462,#463,#464,#465,#466,#467,#468,#469,#470,#471,
#472,#473,#474,#475,#476,#477,#478,#479,#480,#481,#482,#483,#484,#485,#486,
#487,#488,#489,#490,#491,#492,#493,#494,#495,#496,#497,#498,#499,#500,#501,
#502));
#504=STYLED_ITEM('',(#505),#512);
#505=PRESENTATION_STYLE_ASSIGNMENT((#506));
#506=SURFACE_STYLE_USAGE(.BOTH.,#507);
#507=SURFACE_SIDE_STYLE('',(#508));
#508=SURFACE_STYLE_FILL_AREA(#509);
#509=FILL_AREA_STYLE('',(#510));
#510=FILL_AREA_STYLE_COLOUR('',#511);
#511=COLOUR_RGB('',0.231372549019608,0.380392156862745,0.705882352941177);
#512=MANIFOLD_SOLID_BREP('Wood Spring Piece',#503);
#513=SHAPE_DEFINITION_REPRESENTATION(#907,#514);
#514=SHAPE_REPRESENTATION('Wood Spring Piece',(#515),#902);
#515=AXIS2_PLACEMENT_3D('',#764,#593,#594);
#516=AXIS2_PLACEMENT_3D('',#765,#595,#596);
#517=AXIS2_PLACEMENT_3D('',#766,#597,#598);
#518=AXIS2_PLACEMENT_3D('',#768,#599,#600);
#519=AXIS2_PLACEMENT_3D('',#770,#601,#602);
#520=AXIS2_PLACEMENT_3D('',#772,#603,#604);
#521=AXIS2_PLACEMENT_3D('',#782,#609,#610);
#522=AXIS2_PLACEMENT_3D('',#784,#611,#612);
#523=AXIS2_PLACEMENT_3D('',#786,#613,#614);
#524=AXIS2_PLACEMENT_3D('',#788,#615,#616);
#525=AXIS2_PLACEMENT_3D('',#790,#617,#618);
#526=AXIS2_PLACEMENT_3D('',#792,#619,#620);
#527=AXIS2_PLACEMENT_3D('',#794,#621,#622);
#528=AXIS2_PLACEMENT_3D('',#796,#623,#624);
#529=AXIS2_PLACEMENT_3D('',#798,#625,#626);
#530=AXIS2_PLACEMENT_3D('',#800,#627,#628);
#531=AXIS2_PLACEMENT_3D('',#802,#629,#630);
#532=AXIS2_PLACEMENT_3D('',#803,#631,#632);
#533=AXIS2_PLACEMENT_3D('',#811,#636,#637);
#534=AXIS2_PLACEMENT_3D('',#812,#638,#639);
#535=AXIS2_PLACEMENT_3D('',#818,#643,#644);
#536=AXIS2_PLACEMENT_3D('',#824,#648,#649);
#537=AXIS2_PLACEMENT_3D('',#827,#652,#653);
#538=AXIS2_PLACEMENT_3D('',#828,#654,#655);
#539=AXIS2_PLACEMENT_3D('',#830,#656,#657);
#540=AXIS2_PLACEMENT_3D('',#832,#658,#659);
#541=AXIS2_PLACEMENT_3D('',#833,#660,#661);
#542=AXIS2_PLACEMENT_3D('',#834,#662,#663);
#543=AXIS2_PLACEMENT_3D('',#835,#664,#665);
#544=AXIS2_PLACEMENT_3D('',#836,#666,#667);
#545=AXIS2_PLACEMENT_3D('',#837,#668,#669);
#546=AXIS2_PLACEMENT_3D('',#838,#670,#671);
#547=AXIS2_PLACEMENT_3D('',#840,#672,#673);
#548=AXIS2_PLACEMENT_3D('',#841,#674,#675);
#549=AXIS2_PLACEMENT_3D('',#842,#676,#677);
#550=AXIS2_PLACEMENT_3D('',#844,#678,#679);
#551=AXIS2_PLACEMENT_3D('',#845,#680,#681);
#552=AXIS2_PLACEMENT_3D('',#846,#682,#683);
#553=AXIS2_PLACEMENT_3D('',#848,#684,#685);
#554=AXIS2_PLACEMENT_3D('',#849,#686,#687);
#555=AXIS2_PLACEMENT_3D('',#850,#688,#689);
#556=AXIS2_PLACEMENT_3D('',#852,#690,#691);
#557=AXIS2_PLACEMENT_3D('',#853,#692,#693);
#558=AXIS2_PLACEMENT_3D('',#854,#694,#695);
#559=AXIS2_PLACEMENT_3D('',#856,#696,#697);
#560=AXIS2_PLACEMENT_3D('',#857,#698,#699);
#561=AXIS2_PLACEMENT_3D('',#858,#700,#701);
#562=AXIS2_PLACEMENT_3D('',#860,#702,#703);
#563=AXIS2_PLACEMENT_3D('',#861,#704,#705);
#564=AXIS2_PLACEMENT_3D('',#862,#706,#707);
#565=AXIS2_PLACEMENT_3D('',#864,#708,#709);
#566=AXIS2_PLACEMENT_3D('',#865,#710,#711);
#567=AXIS2_PLACEMENT_3D('',#866,#712,#713);
#568=AXIS2_PLACEMENT_3D('',#868,#714,#715);
#569=AXIS2_PLACEMENT_3D('',#869,#716,#717);
#570=AXIS2_PLACEMENT_3D('',#870,#718,#719);
#571=AXIS2_PLACEMENT_3D('',#872,#720,#721);
#572=AXIS2_PLACEMENT_3D('',#873,#722,#723);
#573=AXIS2_PLACEMENT_3D('',#874,#724,#725);
#574=AXIS2_PLACEMENT_3D('',#876,#726,#727);
#575=AXIS2_PLACEMENT_3D('',#877,#728,#729);
#576=AXIS2_PLACEMENT_3D('',#878,#730,#731);
#577=AXIS2_PLACEMENT_3D('',#880,#732,#733);
#578=AXIS2_PLACEMENT_3D('',#881,#734,#735);
#579=AXIS2_PLACEMENT_3D('',#882,#736,#737);
#580=AXIS2_PLACEMENT_3D('',#884,#738,#739);
#581=AXIS2_PLACEMENT_3D('',#885,#740,#741);
#582=AXIS2_PLACEMENT_3D('',#886,#742,#743);
#583=AXIS2_PLACEMENT_3D('',#888,#744,#745);
#584=AXIS2_PLACEMENT_3D('',#889,#746,#747);
#585=AXIS2_PLACEMENT_3D('',#891,#748,#749);
#586=AXIS2_PLACEMENT_3D('',#892,#750,#751);
#587=AXIS2_PLACEMENT_3D('',#893,#752,#753);
#588=AXIS2_PLACEMENT_3D('',#894,#754,#755);
#589=AXIS2_PLACEMENT_3D('',#896,#756,#757);
#590=AXIS2_PLACEMENT_3D('',#897,#758,#759);
#591=AXIS2_PLACEMENT_3D('',#899,#760,#761);
#592=AXIS2_PLACEMENT_3D('',#900,#762,#763);
#593=DIRECTION('',(0.,0.,1.));
#594=DIRECTION('',(1.,0.,0.));
#595=DIRECTION('',(0.,0.,-1.));
#596=DIRECTION('',(1.,0.,0.));
#597=DIRECTION('',(0.,0.,-1.));
#598=DIRECTION('',(-1.,0.,0.));
#599=DIRECTION('',(0.,0.,-1.));
#600=DIRECTION('',(-1.,0.,0.));
#601=DIRECTION('',(0.,0.,-1.));
#602=DIRECTION('',(-1.,0.,0.));
#603=DIRECTION('',(0.,0.,-1.));
#604=DIRECTION('',(-1.,0.,0.));
#605=DIRECTION('',(0.,1.,0.));
#606=DIRECTION('',(-1.,-1.31338845849243E-16,0.));
#607=DIRECTION('',(0.,1.,0.));
#608=DIRECTION('',(-1.,-1.31338845849243E-16,0.));
#609=DIRECTION('',(0.,0.,-1.));
#610=DIRECTION('',(-1.,0.,0.));
#611=DIRECTION('',(0.,0.,-1.));
#612=DIRECTION('',(-1.,0.,0.));
#613=DIRECTION('',(0.,0.,-1.));
#614=DIRECTION('',(-1.,0.,0.));
#615=DIRECTION('',(0.,0.,-1.));
#616=DIRECTION('',(-1.,0.,0.));
#617=DIRECTION('',(0.,0.,-1.));
#618=DIRECTION('',(-1.,0.,0.));
#619=DIRECTION('',(0.,0.,-1.));
#620=DIRECTION('',(-1.,0.,0.));
#621=DIRECTION('',(0.,0.,-1.));
#622=DIRECTION('',(-1.,0.,0.));
#623=DIRECTION('',(0.,0.,-1.));
#624=DIRECTION('',(-1.,0.,0.));
#625=DIRECTION('',(0.,0.,-1.));
#626=DIRECTION('',(-1.,0.,0.));
#627=DIRECTION('',(0.,0.,-1.));
#628=DIRECTION('',(-1.,0.,0.));
#629=DIRECTION('',(1.,0.,0.));
#630=DIRECTION('',(0.,0.,-1.));
#631=DIRECTION('',(1.,0.,0.));
#632=DIRECTION('',(0.,0.,-1.));
#633=DIRECTION('',(0.,0.,1.));
#634=DIRECTION('',(0.,1.,0.));
#635=DIRECTION('',(0.,0.,1.));
#636=DIRECTION('',(1.,0.,0.));
#637=DIRECTION('',(0.,0.,-1.));
#638=DIRECTION('',(-1.31338845849243E-16,1.,0.));
#639=DIRECTION('',(-1.,-1.31338845849243E-16,0.));
#640=DIRECTION('',(0.,0.,1.));
#641=DIRECTION('',(-1.,-1.31338845849243E-16,0.));
#642=DIRECTION('',(-1.,-1.31338845849243E-16,0.));
#643=DIRECTION('',(1.,0.,0.));
#644=DIRECTION('',(0.,0.,-1.));
#645=DIRECTION('',(0.,0.,1.));
#646=DIRECTION('',(0.,1.,0.));
#647=DIRECTION('',(0.,1.,0.));
#648=DIRECTION('',(-1.31338845849243E-16,1.,0.));
#649=DIRECTION('',(-1.,-1.31338845849243E-16,0.));
#650=DIRECTION('',(-1.,-1.31338845849243E-16,0.));
#651=DIRECTION('',(-1.,-1.31338845849243E-16,0.));
#652=DIRECTION('',(0.,0.,-1.));
#653=DIRECTION('',(1.,0.,0.));
#654=DIRECTION('',(0.,0.,-1.));
#655=DIRECTION('',(-1.,0.,0.));
#656=DIRECTION('',(0.,0.,-1.));
#657=DIRECTION('',(-1.,0.,0.));
#658=DIRECTION('',(1.,1.31338845849243E-16,0.));
#659=DIRECTION('',(-1.31338845849243E-16,1.,0.));
#660=DIRECTION('',(0.707106781186548,-0.707106781186548,0.));
#661=DIRECTION('',(0.707106781186548,0.707106781186548,0.));
#662=DIRECTION('',(0.,-1.,0.));
#663=DIRECTION('',(0.,0.,-1.));
#664=DIRECTION('',(-0.707106781186548,-0.707106781186548,0.));
#665=DIRECTION('',(0.707106781186548,-0.707106781186548,0.));
#666=DIRECTION('',(-1.,-1.31338845849243E-16,0.));
#667=DIRECTION('',(1.31338845849243E-16,-1.,0.));
#668=DIRECTION('',(0.,0.,-1.));
#669=DIRECTION('',(-1.,0.,0.));
#670=DIRECTION('',(0.,0.,-1.));
#671=DIRECTION('',(-1.,0.,0.));
#672=DIRECTION('',(0.,0.,-1.));
#673=DIRECTION('',(1.,0.,0.));
#674=DIRECTION('',(0.,0.,-1.));
#675=DIRECTION('',(-1.,0.,0.));
#676=DIRECTION('',(0.,0.,-1.));
#677=DIRECTION('',(-1.,0.,0.));
#678=DIRECTION('',(0.,0.,-1.));
#679=DIRECTION('',(1.,0.,0.));
#680=DIRECTION('',(0.,0.,-1.));
#681=DIRECTION('',(-1.,0.,0.));
#682=DIRECTION('',(0.,0.,-1.));
#683=DIRECTION('',(-1.,0.,0.));
#684=DIRECTION('',(0.,0.,-1.));
#685=DIRECTION('',(1.,0.,0.));
#686=DIRECTION('',(0.,0.,-1.));
#687=DIRECTION('',(-1.,0.,0.));
#688=DIRECTION('',(0.,0.,-1.));
#689=DIRECTION('',(-1.,0.,0.));
#690=DIRECTION('',(0.,0.,-1.));
#691=DIRECTION('',(1.,0.,0.));
#692=DIRECTION('',(0.,0.,-1.));
#693=DIRECTION('',(-1.,0.,0.));
#694=DIRECTION('',(0.,0.,-1.));
#695=DIRECTION('',(-1.,0.,0.));
#696=DIRECTION('',(0.,0.,-1.));
#697=DIRECTION('',(1.,0.,0.));
#698=DIRECTION('',(0.,0.,-1.));
#699=DIRECTION('',(-1.,0.,0.));
#700=DIRECTION('',(0.,0.,-1.));
#701=DIRECTION('',(-1.,0.,0.));
#702=DIRECTION('',(0.,0.,-1.));
#703=DIRECTION('',(1.,0.,0.));
#704=DIRECTION('',(0.,0.,-1.));
#705=DIRECTION('',(-1.,0.,0.));
#706=DIRECTION('',(0.,0.,-1.));
#707=DIRECTION('',(-1.,0.,0.));
#708=DIRECTION('',(0.,0.,-1.));
#709=DIRECTION('',(1.,0.,0.));
#710=DIRECTION('',(0.,0.,-1.));
#711=DIRECTION('',(-1.,0.,0.));
#712=DIRECTION('',(0.,0.,-1.));
#713=DIRECTION('',(-1.,0.,0.));
#714=DIRECTION('',(0.,0.,-1.));
#715=DIRECTION('',(1.,0.,0.));
#716=DIRECTION('',(0.,0.,-1.));
#717=DIRECTION('',(-1.,0.,0.));
#718=DIRECTION('',(0.,0.,-1.));
#719=DIRECTION('',(-1.,0.,0.));
#720=DIRECTION('',(0.,0.,-1.));
#721=DIRECTION('',(1.,0.,0.));
#722=DIRECTION('',(0.,0.,-1.));
#723=DIRECTION('',(-1.,0.,0.));
#724=DIRECTION('',(0.,0.,-1.));
#725=DIRECTION('',(-1.,0.,0.));
#726=DIRECTION('',(0.,0.,-1.));
#727=DIRECTION('',(1.,0.,0.));
#728=DIRECTION('',(0.,0.,-1.));
#729=DIRECTION('',(1.,0.,0.));
#730=DIRECTION('',(0.,0.,1.));
#731=DIRECTION('',(-1.,0.,0.));
#732=DIRECTION('',(0.,0.,1.));
#733=DIRECTION('',(1.,0.,0.));
#734=DIRECTION('',(0.,0.,-1.));
#735=DIRECTION('',(1.,0.,0.));
#736=DIRECTION('',(0.,0.,-1.));
#737=DIRECTION('',(-1.,0.,0.));
#738=DIRECTION('',(0.,0.,1.));
#739=DIRECTION('',(1.,0.,0.));
#740=DIRECTION('',(0.,0.,1.));
#741=DIRECTION('',(1.,0.,0.));
#742=DIRECTION('',(0.,0.,-1.));
#743=DIRECTION('',(-1.,0.,0.));
#744=DIRECTION('',(0.,0.,1.));
#745=DIRECTION('',(1.,0.,0.));
#746=DIRECTION('',(0.,0.,-1.));
#747=DIRECTION('',(-1.,0.,0.));
#748=DIRECTION('',(0.,0.,-1.));
#749=DIRECTION('',(1.,0.,0.));
#750=DIRECTION('',(0.,0.,-1.));
#751=DIRECTION('',(1.,0.,0.));
#752=DIRECTION('',(0.,0.,-1.));
#753=DIRECTION('',(-1.,0.,0.));
#754=DIRECTION('',(0.,0.,-1.));
#755=DIRECTION('',(-1.,0.,0.));
#756=DIRECTION('',(0.,0.,-1.));
#757=DIRECTION('',(-1.,0.,0.));
#758=DIRECTION('',(0.,0.,-1.));
#759=DIRECTION('',(-1.,0.,0.));
#760=DIRECTION('',(0.,0.,-1.));
#761=DIRECTION('',(1.,0.,0.));
#762=DIRECTION('',(0.,0.,-1.));
#763=DIRECTION('',(1.,0.,0.));
#764=CARTESIAN_POINT('',(0.,0.,0.));
#765=CARTESIAN_POINT('',(0.,-6.93889390390723E-18,-0.1905));
#766=CARTESIAN_POINT('',(-0.050165,-1.01539085853708E-16,-0.1905));
#767=CARTESIAN_POINT('',(-0.054229,-1.01539085853708E-16,-0.1905));
#768=CARTESIAN_POINT('',(0.050165,-3.35945109942101E-18,-0.1905));
#769=CARTESIAN_POINT('',(0.046101,-3.35945109942101E-18,-0.1905));
#770=CARTESIAN_POINT('',(-0.024765,-9.09851339426526E-18,-0.1905));
#771=CARTESIAN_POINT('',(-0.028575,-9.09851339426526E-18,-0.1905));
#772=CARTESIAN_POINT('',(0.024765,3.61111864572607E-33,-0.1905));
#773=CARTESIAN_POINT('',(0.020955,3.61111864572607E-33,-0.1905));
#774=CARTESIAN_POINT('',(-0.05969,0.02032,-0.1905));
#775=CARTESIAN_POINT('',(-0.05969,-0.01397,-0.1905));
#776=CARTESIAN_POINT('',(-0.05969,0.01397,-0.1905));
#777=CARTESIAN_POINT('',(-1.83480367651393E-18,0.01397,-0.1905));
#778=CARTESIAN_POINT('',(0.06604,0.01397,-0.1905));
#779=CARTESIAN_POINT('',(0.06604,0.,-0.1905));
#780=CARTESIAN_POINT('',(0.06604,-0.01397,-0.1905));
#781=CARTESIAN_POINT('',(-0.06604,-0.01397,-0.1905));
#782=CARTESIAN_POINT('',(-0.037465,-0.00635,-0.1905));
#783=CARTESIAN_POINT('',(-0.041275,-0.00635,-0.1905));
#784=CARTESIAN_POINT('',(0.059055,0.00635,-0.1905));
#785=CARTESIAN_POINT('',(0.055245,0.00635,-0.1905));
#786=CARTESIAN_POINT('',(0.010795,-0.00635,-0.1905));
#787=CARTESIAN_POINT('',(0.006985,-0.00635,-0.1905));
#788=CARTESIAN_POINT('',(-0.013335,0.00635,-0.1905));
#789=CARTESIAN_POINT('',(-0.017145,0.00635,-0.1905));
#790=CARTESIAN_POINT('',(-0.013335,-0.00635,-0.1905));
#791=CARTESIAN_POINT('',(-0.017145,-0.00635,-0.1905));
#792=CARTESIAN_POINT('',(-0.037465,0.00635,-0.1905));
#793=CARTESIAN_POINT('',(-0.041275,0.00635,-0.1905));
#794=CARTESIAN_POINT('',(0.059055,-0.00635,-0.1905));
#795=CARTESIAN_POINT('',(0.055245,-0.00635,-0.1905));
#796=CARTESIAN_POINT('',(0.034925,0.00635,-0.1905));
#797=CARTESIAN_POINT('',(0.031115,0.00635,-0.1905));
#798=CARTESIAN_POINT('',(0.034925,-0.00635,-0.1905));
#799=CARTESIAN_POINT('',(0.031115,-0.00635,-0.1905));
#800=CARTESIAN_POINT('',(0.010795,0.00635,-0.1905));
#801=CARTESIAN_POINT('',(0.006985,0.00635,-0.1905));
#802=CARTESIAN_POINT('',(0.06604,0.,-0.1905));
#803=CARTESIAN_POINT('',(0.06604,0.01397,-0.18415));
#804=CARTESIAN_POINT('',(0.06604,0.02032,-0.18415));
#805=CARTESIAN_POINT('',(0.06604,0.02032,-0.1905));
#806=CARTESIAN_POINT('',(0.06604,0.02032,-0.1778));
#807=CARTESIAN_POINT('',(0.06604,0.,-0.1778));
#808=CARTESIAN_POINT('',(0.06604,-0.02032,-0.1778));
#809=CARTESIAN_POINT('',(0.06604,-0.02032,-0.1905));
#810=CARTESIAN_POINT('',(0.06604,-0.02032,-0.18415));
#811=CARTESIAN_POINT('',(0.06604,-0.01397,-0.18415));
#812=CARTESIAN_POINT('',(0.,-0.02032,-0.1905));
#813=CARTESIAN_POINT('',(-0.06604,-0.02032,-0.1905));
#814=CARTESIAN_POINT('',(-0.06604,-0.02032,-0.18415));
#815=CARTESIAN_POINT('',(-0.06604,-0.02032,-0.1778));
#816=CARTESIAN_POINT('',(0.06604,-0.02032,-0.18415));
#817=CARTESIAN_POINT('',(0.,-0.02032,-0.1778));
#818=CARTESIAN_POINT('',(-0.06604,0.,-0.1905));
#819=CARTESIAN_POINT('',(-0.06604,0.02032,-0.1905));
#820=CARTESIAN_POINT('',(-0.06604,0.02032,-0.18415));
#821=CARTESIAN_POINT('',(-0.06604,0.02032,-0.1778));
#822=CARTESIAN_POINT('',(-0.06604,-0.02032,-0.18415));
#823=CARTESIAN_POINT('',(-0.06604,0.,-0.1778));
#824=CARTESIAN_POINT('',(-6.93889390390723E-18,0.02032,-0.1905));
#825=CARTESIAN_POINT('',(-6.93889390390723E-18,0.02032,-0.18415));
#826=CARTESIAN_POINT('',(-6.93889390390723E-18,0.02032,-0.1778));
#827=CARTESIAN_POINT('',(0.,-6.93889390390723E-18,-0.1778));
#828=CARTESIAN_POINT('',(0.024765,-1.55530143491679E-20,-0.1778));
#829=CARTESIAN_POINT('',(0.020701,-1.55530143491679E-20,-0.1778));
#830=CARTESIAN_POINT('',(-0.024765,-9.11406640861443E-18,-0.1778));
#831=CARTESIAN_POINT('',(-0.028829,-9.11406640861443E-18,-0.1778));
#832=CARTESIAN_POINT('',(1.83480367651393E-18,-0.01397,-0.18415));
#833=CARTESIAN_POINT('',(-0.05969,-0.01397,-0.18415));
#834=CARTESIAN_POINT('',(-0.05969,-6.93889390390723E-18,-0.18415));
#835=CARTESIAN_POINT('',(-0.05969,0.01397,-0.18415));
#836=CARTESIAN_POINT('',(-6.10489223276453E-18,0.01397,-0.18415));
#837=CARTESIAN_POINT('',(-0.037465,-0.00635,-0.18796));
#838=CARTESIAN_POINT('',(-0.037465,-0.00635,-0.18796));
#839=CARTESIAN_POINT('',(-0.041275,-0.00635,-0.18796));
#840=CARTESIAN_POINT('',(0.003175,-6.93889390390723E-18,-0.18796));
#841=CARTESIAN_POINT('',(0.059055,0.00635,-0.18796));
#842=CARTESIAN_POINT('',(0.059055,0.00635,-0.18796));
#843=CARTESIAN_POINT('',(0.055245,0.00635,-0.18796));
#844=CARTESIAN_POINT('',(0.003175,-6.93889390390723E-18,-0.18796));
#845=CARTESIAN_POINT('',(0.010795,-0.00635,-0.18796));
#846=CARTESIAN_POINT('',(0.010795,-0.00635,-0.18796));
#847=CARTESIAN_POINT('',(0.006985,-0.00635,-0.18796));
#848=CARTESIAN_POINT('',(0.003175,-6.93889390390723E-18,-0.18796));
#849=CARTESIAN_POINT('',(-0.013335,0.00635,-0.18796));
#850=CARTESIAN_POINT('',(-0.013335,0.00635,-0.18796));
#851=CARTESIAN_POINT('',(-0.017145,0.00635,-0.18796));
#852=CARTESIAN_POINT('',(0.003175,-6.93889390390723E-18,-0.18796));
#853=CARTESIAN_POINT('',(-0.013335,-0.00635,-0.18796));
#854=CARTESIAN_POINT('',(-0.013335,-0.00635,-0.18796));
#855=CARTESIAN_POINT('',(-0.017145,-0.00635,-0.18796));
#856=CARTESIAN_POINT('',(0.003175,-6.93889390390723E-18,-0.18796));
#857=CARTESIAN_POINT('',(-0.037465,0.00635,-0.18796));
#858=CARTESIAN_POINT('',(-0.037465,0.00635,-0.18796));
#859=CARTESIAN_POINT('',(-0.041275,0.00635,-0.18796));
#860=CARTESIAN_POINT('',(0.003175,-6.93889390390723E-18,-0.18796));
#861=CARTESIAN_POINT('',(0.059055,-0.00635,-0.18796));
#862=CARTESIAN_POINT('',(0.059055,-0.00635,-0.18796));
#863=CARTESIAN_POINT('',(0.055245,-0.00635,-0.18796));
#864=CARTESIAN_POINT('',(0.003175,-6.93889390390723E-18,-0.18796));
#865=CARTESIAN_POINT('',(0.034925,0.00635,-0.18796));
#866=CARTESIAN_POINT('',(0.034925,0.00635,-0.18796));
#867=CARTESIAN_POINT('',(0.031115,0.00635,-0.18796));
#868=CARTESIAN_POINT('',(0.003175,-6.93889390390723E-18,-0.18796));
#869=CARTESIAN_POINT('',(0.034925,-0.00635,-0.18796));
#870=CARTESIAN_POINT('',(0.034925,-0.00635,-0.18796));
#871=CARTESIAN_POINT('',(0.031115,-0.00635,-0.18796));
#872=CARTESIAN_POINT('',(0.003175,-6.93889390390723E-18,-0.18796));
#873=CARTESIAN_POINT('',(0.010795,0.00635,-0.18796));
#874=CARTESIAN_POINT('',(0.010795,0.00635,-0.18796));
#875=CARTESIAN_POINT('',(0.006985,0.00635,-0.18796));
#876=CARTESIAN_POINT('',(0.003175,-6.93889390390723E-18,-0.18796));
#877=CARTESIAN_POINT('',(0.003175,-6.93889390390723E-18,-0.19685));
#878=CARTESIAN_POINT('',(-0.024765,-9.09851339426526E-18,-0.19685));
#879=CARTESIAN_POINT('',(-0.028575,-9.09851339426526E-18,-0.19685));
#880=CARTESIAN_POINT('',(-0.024765,-9.09851339426526E-18,-0.19685));
#881=CARTESIAN_POINT('',(0.003175,-6.93889390390723E-18,-0.19685));
#882=CARTESIAN_POINT('',(0.024765,3.61111864572607E-33,-0.19685));
#883=CARTESIAN_POINT('',(0.020955,3.61111864572607E-33,-0.19685));
#884=CARTESIAN_POINT('',(0.024765,3.61111864572607E-33,-0.19685));
#885=CARTESIAN_POINT('',(-0.024765,-9.11406640861443E-18,-0.18415));
#886=CARTESIAN_POINT('',(-0.024765,-9.11406640861443E-18,-0.18415));
#887=CARTESIAN_POINT('',(-0.028829,-9.11406640861443E-18,-0.18415));
#888=CARTESIAN_POINT('',(0.024765,-1.55530143491679E-20,-0.18415));
#889=CARTESIAN_POINT('',(0.024765,-1.55530143491679E-20,-0.18415));
#890=CARTESIAN_POINT('',(0.020701,-1.55530143491679E-20,-0.18415));
#891=CARTESIAN_POINT('',(0.003175,-6.93889390390723E-18,-0.18415));
#892=CARTESIAN_POINT('',(0.003175,-6.93889390390723E-18,-0.18415));
#893=CARTESIAN_POINT('',(-0.050165,-1.01539085853708E-16,-0.18415));
#894=CARTESIAN_POINT('',(-0.050165,-1.01539085853708E-16,-0.18415));
#895=CARTESIAN_POINT('',(-0.054229,-1.01539085853708E-16,-0.18415));
#896=CARTESIAN_POINT('',(0.050165,-3.35945109942101E-18,-0.18415));
#897=CARTESIAN_POINT('',(0.050165,-3.35945109942101E-18,-0.18415));
#898=CARTESIAN_POINT('',(0.046101,-3.35945109942101E-18,-0.18415));
#899=CARTESIAN_POINT('',(0.,-6.93889390390723E-18,-0.18415));
#900=CARTESIAN_POINT('',(0.,-6.93889390390723E-18,-0.18415));
#901=MECHANICAL_DESIGN_GEOMETRIC_PRESENTATION_REPRESENTATION('',(#504),
#902);
#902=(
GEOMETRIC_REPRESENTATION_CONTEXT(3)
GLOBAL_UNCERTAINTY_ASSIGNED_CONTEXT((#903))
GLOBAL_UNIT_ASSIGNED_CONTEXT((#906,#905,#904))
REPRESENTATION_CONTEXT('Wood Spring Piece','TOP_LEVEL_ASSEMBLY_PART')
);
#903=UNCERTAINTY_MEASURE_WITH_UNIT(LENGTH_MEASURE(1.E-8),#906,
'DISTANCE_ACCURACY_VALUE','Maximum Tolerance applied to model');
#904=(
NAMED_UNIT(*)
SI_UNIT($,.STERADIAN.)
SOLID_ANGLE_UNIT()
);
#905=(
NAMED_UNIT(*)
PLANE_ANGLE_UNIT()
SI_UNIT($,.RADIAN.)
);
#906=(
LENGTH_UNIT()
NAMED_UNIT(*)
SI_UNIT($,.METRE.)
);
#907=PRODUCT_DEFINITION_SHAPE('','',#908);
#908=PRODUCT_DEFINITION('','',#910,#909);
#909=PRODUCT_DEFINITION_CONTEXT('',#916,'design');
#910=PRODUCT_DEFINITION_FORMATION_WITH_SPECIFIED_SOURCE('','',#912,
 .NOT_KNOWN.);
#911=PRODUCT_RELATED_PRODUCT_CATEGORY('','',(#912));
#912=PRODUCT('Wood Spring Piece','Wood Spring Piece',
'Wood Spring Piece',(#914));
#913=PRODUCT_CATEGORY('','');
#914=PRODUCT_CONTEXT('',#916,'mechanical');
#915=APPLICATION_PROTOCOL_DEFINITION('international standard',
'ap242_managed_model_based_3d_engineering',2020,#916);
#916=APPLICATION_CONTEXT('managed model based 3d engineering');
ENDSEC;
END-ISO-10303-21;
