ISO-10303-21;
HEADER;
/* Generated by software containing ST-Developer
 * from STEP Tools, Inc. (www.steptools.com) 
 */
/* OPTION: using custom renumber hook */

FILE_DESCRIPTION(
/* description */ ('STEP AP242 Edition 2',
'CAx-IF Rec.Pracs.---Representation and Presentation of Product Manufa
cturing Information (PMI)---4.0---2014-10-13',
'CAx-IF Rec.Pracs.---3D Tessellated Geometry---0.4---2014-09-14','2;1',
'CAx-IF Rec.Pracs.---User Defined Attributes---1.5---2016-08-15'),
/* implementation_level */ '2;1');

FILE_NAME(
/* name */ 'Top Clip',
/* time_stamp */ '2026-08-06T20:51:09Z',
/* author */ (''),
/* organization */ (''),
/* preprocessor_version */ 'ST-DEVELOPER v20',
/* originating_system */ 'ONSHAPE BY PTC INC, 1.218',
/* authorisation */ '  ');

FILE_SCHEMA (('AP242_MANAGED_MODEL_BASED_3D_ENGINEERING_MIM_LF { 1 0 10303 442 3 1 4 }'));
ENDSEC;

DATA;
#10=SHAPE_REPRESENTATION_RELATIONSHIP('','',#473,#11);
#11=ADVANCED_BREP_SHAPE_REPRESENTATION('',(#471),#761);
#12=CYLINDRICAL_SURFACE('',#505,0.0032639);
#13=CYLINDRICAL_SURFACE('',#506,0.0032639);
#14=CYLINDRICAL_SURFACE('',#507,0.0032639);
#15=CYLINDRICAL_SURFACE('',#508,0.0032639);
#16=CYLINDRICAL_SURFACE('',#509,0.0032639);
#17=CYLINDRICAL_SURFACE('',#510,0.0032639);
#18=CYLINDRICAL_SURFACE('',#511,0.0032639);
#19=CYLINDRICAL_SURFACE('',#512,0.0032639);
#20=CIRCLE('',#477,0.0032639);
#21=CIRCLE('',#478,0.0032639);
#22=CIRCLE('',#479,0.0032639);
#23=CIRCLE('',#480,0.0032639);
#24=CIRCLE('',#490,0.0032639);
#25=CIRCLE('',#491,0.0032639);
#26=CIRCLE('',#492,0.0032639);
#27=CIRCLE('',#493,0.0032639);
#28=CIRCLE('',#494,0.0032639);
#29=CIRCLE('',#495,0.0032639);
#30=CIRCLE('',#496,0.0032639);
#31=CIRCLE('',#497,0.0032639);
#32=CIRCLE('',#499,0.0032639);
#33=CIRCLE('',#500,0.0032639);
#34=CIRCLE('',#501,0.0032639);
#35=CIRCLE('',#502,0.0032639);
#36=ORIENTED_EDGE('',*,*,#148,.F.);
#37=ORIENTED_EDGE('',*,*,#149,.F.);
#38=ORIENTED_EDGE('',*,*,#150,.T.);
#39=ORIENTED_EDGE('',*,*,#151,.T.);
#40=ORIENTED_EDGE('',*,*,#152,.F.);
#41=ORIENTED_EDGE('',*,*,#153,.F.);
#42=ORIENTED_EDGE('',*,*,#154,.F.);
#43=ORIENTED_EDGE('',*,*,#155,.F.);
#44=ORIENTED_EDGE('',*,*,#149,.T.);
#45=ORIENTED_EDGE('',*,*,#156,.T.);
#46=ORIENTED_EDGE('',*,*,#157,.T.);
#47=ORIENTED_EDGE('',*,*,#158,.T.);
#48=ORIENTED_EDGE('',*,*,#159,.T.);
#49=ORIENTED_EDGE('',*,*,#160,.T.);
#50=ORIENTED_EDGE('',*,*,#161,.T.);
#51=ORIENTED_EDGE('',*,*,#162,.F.);
#52=ORIENTED_EDGE('',*,*,#163,.F.);
#53=ORIENTED_EDGE('',*,*,#164,.F.);
#54=ORIENTED_EDGE('',*,*,#165,.T.);
#55=ORIENTED_EDGE('',*,*,#166,.T.);
#56=ORIENTED_EDGE('',*,*,#167,.T.);
#57=ORIENTED_EDGE('',*,*,#168,.F.);
#58=ORIENTED_EDGE('',*,*,#169,.T.);
#59=ORIENTED_EDGE('',*,*,#170,.T.);
#60=ORIENTED_EDGE('',*,*,#171,.F.);
#61=ORIENTED_EDGE('',*,*,#172,.T.);
#62=ORIENTED_EDGE('',*,*,#173,.T.);
#63=ORIENTED_EDGE('',*,*,#174,.F.);
#64=ORIENTED_EDGE('',*,*,#157,.F.);
#65=ORIENTED_EDGE('',*,*,#175,.F.);
#66=ORIENTED_EDGE('',*,*,#176,.F.);
#67=ORIENTED_EDGE('',*,*,#177,.T.);
#68=ORIENTED_EDGE('',*,*,#178,.T.);
#69=ORIENTED_EDGE('',*,*,#173,.F.);
#70=ORIENTED_EDGE('',*,*,#179,.F.);
#71=ORIENTED_EDGE('',*,*,#175,.T.);
#72=ORIENTED_EDGE('',*,*,#180,.F.);
#73=ORIENTED_EDGE('',*,*,#170,.F.);
#74=ORIENTED_EDGE('',*,*,#181,.T.);
#75=ORIENTED_EDGE('',*,*,#174,.T.);
#76=ORIENTED_EDGE('',*,*,#180,.T.);
#77=ORIENTED_EDGE('',*,*,#178,.F.);
#78=ORIENTED_EDGE('',*,*,#182,.F.);
#79=ORIENTED_EDGE('',*,*,#159,.F.);
#80=ORIENTED_EDGE('',*,*,#183,.F.);
#81=ORIENTED_EDGE('',*,*,#167,.F.);
#82=ORIENTED_EDGE('',*,*,#184,.T.);
#83=ORIENTED_EDGE('',*,*,#185,.T.);
#84=ORIENTED_EDGE('',*,*,#163,.T.);
#85=ORIENTED_EDGE('',*,*,#186,.T.);
#86=ORIENTED_EDGE('',*,*,#150,.F.);
#87=ORIENTED_EDGE('',*,*,#187,.T.);
#88=ORIENTED_EDGE('',*,*,#188,.T.);
#89=ORIENTED_EDGE('',*,*,#189,.T.);
#90=ORIENTED_EDGE('',*,*,#190,.T.);
#91=ORIENTED_EDGE('',*,*,#191,.T.);
#92=ORIENTED_EDGE('',*,*,#192,.T.);
#93=ORIENTED_EDGE('',*,*,#193,.T.);
#94=ORIENTED_EDGE('',*,*,#194,.T.);
#95=ORIENTED_EDGE('',*,*,#162,.T.);
#96=ORIENTED_EDGE('',*,*,#195,.T.);
#97=ORIENTED_EDGE('',*,*,#151,.F.);
#98=ORIENTED_EDGE('',*,*,#186,.F.);
#99=ORIENTED_EDGE('',*,*,#196,.F.);
#100=ORIENTED_EDGE('',*,*,#160,.F.);
#101=ORIENTED_EDGE('',*,*,#185,.F.);
#102=ORIENTED_EDGE('',*,*,#197,.F.);
#103=ORIENTED_EDGE('',*,*,#177,.F.);
#104=ORIENTED_EDGE('',*,*,#198,.F.);
#105=ORIENTED_EDGE('',*,*,#199,.F.);
#106=ORIENTED_EDGE('',*,*,#200,.F.);
#107=ORIENTED_EDGE('',*,*,#201,.F.);
#108=ORIENTED_EDGE('',*,*,#202,.F.);
#109=ORIENTED_EDGE('',*,*,#164,.T.);
#110=ORIENTED_EDGE('',*,*,#183,.T.);
#111=ORIENTED_EDGE('',*,*,#158,.F.);
#112=ORIENTED_EDGE('',*,*,#181,.F.);
#113=ORIENTED_EDGE('',*,*,#169,.F.);
#114=ORIENTED_EDGE('',*,*,#166,.F.);
#115=ORIENTED_EDGE('',*,*,#203,.T.);
#116=ORIENTED_EDGE('',*,*,#171,.T.);
#117=ORIENTED_EDGE('',*,*,#182,.T.);
#118=ORIENTED_EDGE('',*,*,#197,.T.);
#119=ORIENTED_EDGE('',*,*,#184,.F.);
#120=ORIENTED_EDGE('',*,*,#201,.T.);
#121=ORIENTED_EDGE('',*,*,#194,.F.);
#122=ORIENTED_EDGE('',*,*,#200,.T.);
#123=ORIENTED_EDGE('',*,*,#192,.F.);
#124=ORIENTED_EDGE('',*,*,#199,.T.);
#125=ORIENTED_EDGE('',*,*,#189,.F.);
#126=ORIENTED_EDGE('',*,*,#198,.T.);
#127=ORIENTED_EDGE('',*,*,#187,.F.);
#128=ORIENTED_EDGE('',*,*,#152,.T.);
#129=ORIENTED_EDGE('',*,*,#193,.F.);
#130=ORIENTED_EDGE('',*,*,#153,.T.);
#131=ORIENTED_EDGE('',*,*,#191,.F.);
#132=ORIENTED_EDGE('',*,*,#154,.T.);
#133=ORIENTED_EDGE('',*,*,#190,.F.);
#134=ORIENTED_EDGE('',*,*,#155,.T.);
#135=ORIENTED_EDGE('',*,*,#188,.F.);
#136=ORIENTED_EDGE('',*,*,#195,.F.);
#137=ORIENTED_EDGE('',*,*,#161,.F.);
#138=ORIENTED_EDGE('',*,*,#196,.T.);
#139=ORIENTED_EDGE('',*,*,#176,.T.);
#140=ORIENTED_EDGE('',*,*,#179,.T.);
#141=ORIENTED_EDGE('',*,*,#172,.F.);
#142=ORIENTED_EDGE('',*,*,#156,.F.);
#143=ORIENTED_EDGE('',*,*,#148,.T.);
#144=ORIENTED_EDGE('',*,*,#165,.F.);
#145=ORIENTED_EDGE('',*,*,#202,.T.);
#146=ORIENTED_EDGE('',*,*,#168,.T.);
#147=ORIENTED_EDGE('',*,*,#203,.F.);
#148=EDGE_CURVE('',#204,#205,#246,.T.);
#149=EDGE_CURVE('',#206,#204,#247,.T.);
#150=EDGE_CURVE('',#206,#207,#248,.T.);
#151=EDGE_CURVE('',#207,#205,#249,.T.);
#152=EDGE_CURVE('',#208,#208,#20,.T.);
#153=EDGE_CURVE('',#209,#209,#21,.T.);
#154=EDGE_CURVE('',#210,#210,#22,.T.);
#155=EDGE_CURVE('',#211,#211,#23,.T.);
#156=EDGE_CURVE('',#204,#212,#250,.T.);
#157=EDGE_CURVE('',#212,#213,#251,.T.);
#158=EDGE_CURVE('',#213,#214,#252,.T.);
#159=EDGE_CURVE('',#214,#206,#253,.T.);
#160=EDGE_CURVE('',#215,#216,#254,.T.);
#161=EDGE_CURVE('',#216,#217,#255,.T.);
#162=EDGE_CURVE('',#218,#217,#256,.T.);
#163=EDGE_CURVE('',#215,#218,#257,.T.);
#164=EDGE_CURVE('',#219,#220,#258,.T.);
#165=EDGE_CURVE('',#219,#221,#259,.T.);
#166=EDGE_CURVE('',#221,#222,#260,.T.);
#167=EDGE_CURVE('',#222,#220,#261,.T.);
#168=EDGE_CURVE('',#223,#224,#262,.T.);
#169=EDGE_CURVE('',#223,#225,#263,.T.);
#170=EDGE_CURVE('',#225,#226,#264,.T.);
#171=EDGE_CURVE('',#224,#226,#265,.T.);
#172=EDGE_CURVE('',#212,#227,#266,.T.);
#173=EDGE_CURVE('',#227,#228,#267,.T.);
#174=EDGE_CURVE('',#213,#228,#268,.T.);
#175=EDGE_CURVE('',#229,#230,#269,.T.);
#176=EDGE_CURVE('',#231,#229,#270,.T.);
#177=EDGE_CURVE('',#231,#232,#271,.T.);
#178=EDGE_CURVE('',#232,#230,#272,.T.);
#179=EDGE_CURVE('',#229,#227,#273,.T.);
#180=EDGE_CURVE('',#228,#230,#274,.T.);
#181=EDGE_CURVE('',#225,#213,#275,.T.);
#182=EDGE_CURVE('',#226,#232,#276,.T.);
#183=EDGE_CURVE('',#220,#214,#277,.T.);
#184=EDGE_CURVE('',#222,#233,#278,.T.);
#185=EDGE_CURVE('',#233,#215,#279,.T.);
#186=EDGE_CURVE('',#218,#207,#280,.T.);
#187=EDGE_CURVE('',#234,#234,#24,.T.);
#188=EDGE_CURVE('',#235,#235,#25,.T.);
#189=EDGE_CURVE('',#236,#236,#26,.T.);
#190=EDGE_CURVE('',#237,#237,#27,.T.);
#191=EDGE_CURVE('',#238,#238,#28,.T.);
#192=EDGE_CURVE('',#239,#239,#29,.T.);
#193=EDGE_CURVE('',#240,#240,#30,.T.);
#194=EDGE_CURVE('',#241,#241,#31,.T.);
#195=EDGE_CURVE('',#217,#205,#281,.T.);
#196=EDGE_CURVE('',#216,#231,#282,.T.);
#197=EDGE_CURVE('',#232,#233,#283,.T.);
#198=EDGE_CURVE('',#242,#242,#32,.T.);
#199=EDGE_CURVE('',#243,#243,#33,.T.);
#200=EDGE_CURVE('',#244,#244,#34,.T.);
#201=EDGE_CURVE('',#245,#245,#35,.T.);
#202=EDGE_CURVE('',#219,#223,#284,.T.);
#203=EDGE_CURVE('',#221,#224,#285,.T.);
#204=VERTEX_POINT('',#640);
#205=VERTEX_POINT('',#641);
#206=VERTEX_POINT('',#643);
#207=VERTEX_POINT('',#645);
#208=VERTEX_POINT('',#649);
#209=VERTEX_POINT('',#651);
#210=VERTEX_POINT('',#653);
#211=VERTEX_POINT('',#655);
#212=VERTEX_POINT('',#657);
#213=VERTEX_POINT('',#659);
#214=VERTEX_POINT('',#661);
#215=VERTEX_POINT('',#665);
#216=VERTEX_POINT('',#666);
#217=VERTEX_POINT('',#668);
#218=VERTEX_POINT('',#670);
#219=VERTEX_POINT('',#674);
#220=VERTEX_POINT('',#675);
#221=VERTEX_POINT('',#677);
#222=VERTEX_POINT('',#679);
#223=VERTEX_POINT('',#683);
#224=VERTEX_POINT('',#684);
#225=VERTEX_POINT('',#686);
#226=VERTEX_POINT('',#688);
#227=VERTEX_POINT('',#692);
#228=VERTEX_POINT('',#694);
#229=VERTEX_POINT('',#698);
#230=VERTEX_POINT('',#699);
#231=VERTEX_POINT('',#701);
#232=VERTEX_POINT('',#703);
#233=VERTEX_POINT('',#714);
#234=VERTEX_POINT('',#719);
#235=VERTEX_POINT('',#721);
#236=VERTEX_POINT('',#723);
#237=VERTEX_POINT('',#725);
#238=VERTEX_POINT('',#727);
#239=VERTEX_POINT('',#729);
#240=VERTEX_POINT('',#731);
#241=VERTEX_POINT('',#733);
#242=VERTEX_POINT('',#739);
#243=VERTEX_POINT('',#741);
#244=VERTEX_POINT('',#743);
#245=VERTEX_POINT('',#745);
#246=LINE('',#639,#286);
#247=LINE('',#642,#287);
#248=LINE('',#644,#288);
#249=LINE('',#646,#289);
#250=LINE('',#656,#290);
#251=LINE('',#658,#291);
#252=LINE('',#660,#292);
#253=LINE('',#662,#293);
#254=LINE('',#664,#294);
#255=LINE('',#667,#295);
#256=LINE('',#669,#296);
#257=LINE('',#671,#297);
#258=LINE('',#673,#298);
#259=LINE('',#676,#299);
#260=LINE('',#678,#300);
#261=LINE('',#680,#301);
#262=LINE('',#682,#302);
#263=LINE('',#685,#303);
#264=LINE('',#687,#304);
#265=LINE('',#689,#305);
#266=LINE('',#691,#306);
#267=LINE('',#693,#307);
#268=LINE('',#695,#308);
#269=LINE('',#697,#309);
#270=LINE('',#700,#310);
#271=LINE('',#702,#311);
#272=LINE('',#704,#312);
#273=LINE('',#706,#313);
#274=LINE('',#707,#314);
#275=LINE('',#709,#315);
#276=LINE('',#710,#316);
#277=LINE('',#712,#317);
#278=LINE('',#713,#318);
#279=LINE('',#715,#319);
#280=LINE('',#716,#320);
#281=LINE('',#734,#321);
#282=LINE('',#736,#322);
#283=LINE('',#737,#323);
#284=LINE('',#747,#324);
#285=LINE('',#749,#325);
#286=VECTOR('',#519,1.);
#287=VECTOR('',#520,1.);
#288=VECTOR('',#521,1.);
#289=VECTOR('',#522,1.);
#290=VECTOR('',#533,1.);
#291=VECTOR('',#534,1.);
#292=VECTOR('',#535,1.);
#293=VECTOR('',#536,1.);
#294=VECTOR('',#539,1.);
#295=VECTOR('',#540,1.);
#296=VECTOR('',#541,1.);
#297=VECTOR('',#542,1.);
#298=VECTOR('',#545,1.);
#299=VECTOR('',#546,1.);
#300=VECTOR('',#547,1.);
#301=VECTOR('',#548,1.);
#302=VECTOR('',#551,1.);
#303=VECTOR('',#552,1.);
#304=VECTOR('',#553,1.);
#305=VECTOR('',#554,1.);
#306=VECTOR('',#557,1.);
#307=VECTOR('',#558,1.);
#308=VECTOR('',#559,1.);
#309=VECTOR('',#562,1.);
#310=VECTOR('',#563,1.);
#311=VECTOR('',#564,1.);
#312=VECTOR('',#565,1.);
#313=VECTOR('',#568,1.);
#314=VECTOR('',#569,1.);
#315=VECTOR('',#572,1.);
#316=VECTOR('',#573,1.);
#317=VECTOR('',#576,1.);
#318=VECTOR('',#577,1.);
#319=VECTOR('',#578,1.);
#320=VECTOR('',#579,1.);
#321=VECTOR('',#598,1.);
#322=VECTOR('',#601,1.);
#323=VECTOR('',#602,1.);
#324=VECTOR('',#613,1.);
#325=VECTOR('',#616,1.);
#326=EDGE_LOOP('',(#36,#37,#38,#39));
#327=EDGE_LOOP('',(#40));
#328=EDGE_LOOP('',(#41));
#329=EDGE_LOOP('',(#42));
#330=EDGE_LOOP('',(#43));
#331=EDGE_LOOP('',(#44,#45,#46,#47,#48));
#332=EDGE_LOOP('',(#49,#50,#51,#52));
#333=EDGE_LOOP('',(#53,#54,#55,#56));
#334=EDGE_LOOP('',(#57,#58,#59,#60));
#335=EDGE_LOOP('',(#61,#62,#63,#64));
#336=EDGE_LOOP('',(#65,#66,#67,#68));
#337=EDGE_LOOP('',(#69,#70,#71,#72));
#338=EDGE_LOOP('',(#73,#74,#75,#76,#77,#78));
#339=EDGE_LOOP('',(#79,#80,#81,#82,#83,#84,#85,#86));
#340=EDGE_LOOP('',(#87));
#341=EDGE_LOOP('',(#88));
#342=EDGE_LOOP('',(#89));
#343=EDGE_LOOP('',(#90));
#344=EDGE_LOOP('',(#91));
#345=EDGE_LOOP('',(#92));
#346=EDGE_LOOP('',(#93));
#347=EDGE_LOOP('',(#94));
#348=EDGE_LOOP('',(#95,#96,#97,#98));
#349=EDGE_LOOP('',(#99,#100,#101,#102,#103));
#350=EDGE_LOOP('',(#104));
#351=EDGE_LOOP('',(#105));
#352=EDGE_LOOP('',(#106));
#353=EDGE_LOOP('',(#107));
#354=EDGE_LOOP('',(#108,#109,#110,#111,#112,#113));
#355=EDGE_LOOP('',(#114,#115,#116,#117,#118,#119));
#356=EDGE_LOOP('',(#120));
#357=EDGE_LOOP('',(#121));
#358=EDGE_LOOP('',(#122));
#359=EDGE_LOOP('',(#123));
#360=EDGE_LOOP('',(#124));
#361=EDGE_LOOP('',(#125));
#362=EDGE_LOOP('',(#126));
#363=EDGE_LOOP('',(#127));
#364=EDGE_LOOP('',(#128));
#365=EDGE_LOOP('',(#129));
#366=EDGE_LOOP('',(#130));
#367=EDGE_LOOP('',(#131));
#368=EDGE_LOOP('',(#132));
#369=EDGE_LOOP('',(#133));
#370=EDGE_LOOP('',(#134));
#371=EDGE_LOOP('',(#135));
#372=EDGE_LOOP('',(#136,#137,#138,#139,#140,#141,#142,#143));
#373=EDGE_LOOP('',(#144,#145,#146,#147));
#374=FACE_BOUND('',#326,.T.);
#375=FACE_BOUND('',#327,.T.);
#376=FACE_BOUND('',#328,.T.);
#377=FACE_BOUND('',#329,.T.);
#378=FACE_BOUND('',#330,.T.);
#379=FACE_BOUND('',#331,.T.);
#380=FACE_BOUND('',#332,.T.);
#381=FACE_BOUND('',#333,.T.);
#382=FACE_BOUND('',#334,.T.);
#383=FACE_BOUND('',#335,.T.);
#384=FACE_BOUND('',#336,.T.);
#385=FACE_BOUND('',#337,.T.);
#386=FACE_BOUND('',#338,.T.);
#387=FACE_BOUND('',#339,.T.);
#388=FACE_BOUND('',#340,.T.);
#389=FACE_BOUND('',#341,.T.);
#390=FACE_BOUND('',#342,.T.);
#391=FACE_BOUND('',#343,.T.);
#392=FACE_BOUND('',#344,.T.);
#393=FACE_BOUND('',#345,.T.);
#394=FACE_BOUND('',#346,.T.);
#395=FACE_BOUND('',#347,.T.);
#396=FACE_BOUND('',#348,.T.);
#397=FACE_BOUND('',#349,.T.);
#398=FACE_BOUND('',#350,.T.);
#399=FACE_BOUND('',#351,.T.);
#400=FACE_BOUND('',#352,.T.);
#401=FACE_BOUND('',#353,.T.);
#402=FACE_BOUND('',#354,.T.);
#403=FACE_BOUND('',#355,.T.);
#404=FACE_BOUND('',#356,.T.);
#405=FACE_BOUND('',#357,.T.);
#406=FACE_BOUND('',#358,.T.);
#407=FACE_BOUND('',#359,.T.);
#408=FACE_BOUND('',#360,.T.);
#409=FACE_BOUND('',#361,.T.);
#410=FACE_BOUND('',#362,.T.);
#411=FACE_BOUND('',#363,.T.);
#412=FACE_BOUND('',#364,.T.);
#413=FACE_BOUND('',#365,.T.);
#414=FACE_BOUND('',#366,.T.);
#415=FACE_BOUND('',#367,.T.);
#416=FACE_BOUND('',#368,.T.);
#417=FACE_BOUND('',#369,.T.);
#418=FACE_BOUND('',#370,.T.);
#419=FACE_BOUND('',#371,.T.);
#420=FACE_BOUND('',#372,.T.);
#421=FACE_BOUND('',#373,.T.);
#422=PLANE('',#475);
#423=PLANE('',#476);
#424=PLANE('',#481);
#425=PLANE('',#482);
#426=PLANE('',#483);
#427=PLANE('',#484);
#428=PLANE('',#485);
#429=PLANE('',#486);
#430=PLANE('',#487);
#431=PLANE('',#488);
#432=PLANE('',#489);
#433=PLANE('',#498);
#434=PLANE('',#503);
#435=PLANE('',#504);
#436=PLANE('',#513);
#437=PLANE('',#514);
#438=ADVANCED_FACE('',(#374),#422,.F.);
#439=ADVANCED_FACE('',(#375,#376,#377,#378,#379),#423,.T.);
#440=ADVANCED_FACE('',(#380),#424,.T.);
#441=ADVANCED_FACE('',(#381),#425,.T.);
#442=ADVANCED_FACE('',(#382),#426,.F.);
#443=ADVANCED_FACE('',(#383),#427,.F.);
#444=ADVANCED_FACE('',(#384),#428,.T.);
#445=ADVANCED_FACE('',(#385),#429,.T.);
#446=ADVANCED_FACE('',(#386),#430,.F.);
#447=ADVANCED_FACE('',(#387),#431,.F.);
#448=ADVANCED_FACE('',(#388,#389,#390,#391,#392,#393,#394,#395,#396),#432,
 .F.);
#449=ADVANCED_FACE('',(#397,#398,#399,#400,#401),#433,.T.);
#450=ADVANCED_FACE('',(#402),#434,.T.);
#451=ADVANCED_FACE('',(#403),#435,.F.);
#452=ADVANCED_FACE('',(#404,#405),#12,.F.);
#453=ADVANCED_FACE('',(#406,#407),#13,.F.);
#454=ADVANCED_FACE('',(#408,#409),#14,.F.);
#455=ADVANCED_FACE('',(#410,#411),#15,.F.);
#456=ADVANCED_FACE('',(#412,#413),#16,.F.);
#457=ADVANCED_FACE('',(#414,#415),#17,.F.);
#458=ADVANCED_FACE('',(#416,#417),#18,.F.);
#459=ADVANCED_FACE('',(#418,#419),#19,.F.);
#460=ADVANCED_FACE('',(#420),#436,.T.);
#461=ADVANCED_FACE('',(#421),#437,.T.);
#462=CLOSED_SHELL('',(#438,#439,#440,#441,#442,#443,#444,#445,#446,#447,
#448,#449,#450,#451,#452,#453,#454,#455,#456,#457,#458,#459,#460,#461));
#463=STYLED_ITEM('',(#464),#471);
#464=PRESENTATION_STYLE_ASSIGNMENT((#465));
#465=SURFACE_STYLE_USAGE(.BOTH.,#466);
#466=SURFACE_SIDE_STYLE('',(#467));
#467=SURFACE_STYLE_FILL_AREA(#468);
#468=FILL_AREA_STYLE('',(#469));
#469=FILL_AREA_STYLE_COLOUR('',#470);
#470=COLOUR_RGB('',0.615686274509804,0.811764705882353,0.929411764705882);
#471=MANIFOLD_SOLID_BREP('Top Clip',#462);
#472=SHAPE_DEFINITION_REPRESENTATION(#766,#473);
#473=SHAPE_REPRESENTATION('Top Clip',(#474),#761);
#474=AXIS2_PLACEMENT_3D('',#637,#515,#516);
#475=AXIS2_PLACEMENT_3D('',#638,#517,#518);
#476=AXIS2_PLACEMENT_3D('',#647,#523,#524);
#477=AXIS2_PLACEMENT_3D('',#648,#525,#526);
#478=AXIS2_PLACEMENT_3D('',#650,#527,#528);
#479=AXIS2_PLACEMENT_3D('',#652,#529,#530);
#480=AXIS2_PLACEMENT_3D('',#654,#531,#532);
#481=AXIS2_PLACEMENT_3D('',#663,#537,#538);
#482=AXIS2_PLACEMENT_3D('',#672,#543,#544);
#483=AXIS2_PLACEMENT_3D('',#681,#549,#550);
#484=AXIS2_PLACEMENT_3D('',#690,#555,#556);
#485=AXIS2_PLACEMENT_3D('',#696,#560,#561);
#486=AXIS2_PLACEMENT_3D('',#705,#566,#567);
#487=AXIS2_PLACEMENT_3D('',#708,#570,#571);
#488=AXIS2_PLACEMENT_3D('',#711,#574,#575);
#489=AXIS2_PLACEMENT_3D('',#717,#580,#581);
#490=AXIS2_PLACEMENT_3D('',#718,#582,#583);
#491=AXIS2_PLACEMENT_3D('',#720,#584,#585);
#492=AXIS2_PLACEMENT_3D('',#722,#586,#587);
#493=AXIS2_PLACEMENT_3D('',#724,#588,#589);
#494=AXIS2_PLACEMENT_3D('',#726,#590,#591);
#495=AXIS2_PLACEMENT_3D('',#728,#592,#593);
#496=AXIS2_PLACEMENT_3D('',#730,#594,#595);
#497=AXIS2_PLACEMENT_3D('',#732,#596,#597);
#498=AXIS2_PLACEMENT_3D('',#735,#599,#600);
#499=AXIS2_PLACEMENT_3D('',#738,#603,#604);
#500=AXIS2_PLACEMENT_3D('',#740,#605,#606);
#501=AXIS2_PLACEMENT_3D('',#742,#607,#608);
#502=AXIS2_PLACEMENT_3D('',#744,#609,#610);
#503=AXIS2_PLACEMENT_3D('',#746,#611,#612);
#504=AXIS2_PLACEMENT_3D('',#748,#614,#615);
#505=AXIS2_PLACEMENT_3D('',#750,#617,#618);
#506=AXIS2_PLACEMENT_3D('',#751,#619,#620);
#507=AXIS2_PLACEMENT_3D('',#752,#621,#622);
#508=AXIS2_PLACEMENT_3D('',#753,#623,#624);
#509=AXIS2_PLACEMENT_3D('',#754,#625,#626);
#510=AXIS2_PLACEMENT_3D('',#755,#627,#628);
#511=AXIS2_PLACEMENT_3D('',#756,#629,#630);
#512=AXIS2_PLACEMENT_3D('',#757,#631,#632);
#513=AXIS2_PLACEMENT_3D('',#758,#633,#634);
#514=AXIS2_PLACEMENT_3D('',#759,#635,#636);
#515=DIRECTION('',(0.,0.,1.));
#516=DIRECTION('',(1.,0.,0.));
#517=DIRECTION('',(-1.,0.,0.));
#518=DIRECTION('',(0.,0.,1.));
#519=DIRECTION('',(0.,0.,-1.));
#520=DIRECTION('',(0.,1.,0.));
#521=DIRECTION('',(0.,0.,-1.));
#522=DIRECTION('',(0.,1.,0.));
#523=DIRECTION('',(0.,0.,1.));
#524=DIRECTION('',(1.,0.,0.));
#525=DIRECTION('',(0.,0.,1.));
#526=DIRECTION('',(1.,0.,0.));
#527=DIRECTION('',(0.,0.,1.));
#528=DIRECTION('',(1.,0.,0.));
#529=DIRECTION('',(0.,0.,1.));
#530=DIRECTION('',(1.,0.,0.));
#531=DIRECTION('',(0.,0.,1.));
#532=DIRECTION('',(1.,0.,0.));
#533=DIRECTION('',(-1.,5.46369598732852E-16,0.));
#534=DIRECTION('',(-1.87814549564418E-16,-1.,0.));
#535=DIRECTION('',(-1.87814549564418E-16,-1.,0.));
#536=DIRECTION('',(1.,0.,0.));
#537=DIRECTION('',(-1.,0.,0.));
#538=DIRECTION('',(0.,0.,1.));
#539=DIRECTION('',(0.,1.,0.));
#540=DIRECTION('',(0.,0.,-1.));
#541=DIRECTION('',(0.,1.,0.));
#542=DIRECTION('',(0.,0.,-1.));
#543=DIRECTION('',(0.,0.,1.));
#544=DIRECTION('',(1.,0.,0.));
#545=DIRECTION('',(-1.87814549564418E-16,-1.,0.));
#546=DIRECTION('',(-1.,0.,0.));
#547=DIRECTION('',(-1.87814549564418E-16,-1.,0.));
#548=DIRECTION('',(1.,0.,0.));
#549=DIRECTION('',(0.,0.,1.));
#550=DIRECTION('',(1.,0.,0.));
#551=DIRECTION('',(-1.,0.,0.));
#552=DIRECTION('',(0.,-1.,0.));
#553=DIRECTION('',(-1.,0.,0.));
#554=DIRECTION('',(0.,-1.,0.));
#555=DIRECTION('',(1.,-1.87814549564418E-16,0.));
#556=DIRECTION('',(1.87814549564418E-16,1.,0.));
#557=DIRECTION('',(0.,0.,-1.));
#558=DIRECTION('',(-1.87814549564418E-16,-1.,0.));
#559=DIRECTION('',(0.,0.,-1.));
#560=DIRECTION('',(1.,-1.87814549564418E-16,0.));
#561=DIRECTION('',(1.87814549564418E-16,1.,0.));
#562=DIRECTION('',(-1.87814549564418E-16,-1.,0.));
#563=DIRECTION('',(0.,0.,-1.));
#564=DIRECTION('',(-1.87814549564418E-16,-1.,0.));
#565=DIRECTION('',(0.,0.,-1.));
#566=DIRECTION('',(0.,0.,1.));
#567=DIRECTION('',(1.,0.,0.));
#568=DIRECTION('',(1.,0.,0.));
#569=DIRECTION('',(-1.,0.,0.));
#570=DIRECTION('',(0.,-1.,0.));
#571=DIRECTION('',(0.,0.,-1.));
#572=DIRECTION('',(0.,0.,-1.));
#573=DIRECTION('',(0.,0.,-1.));
#574=DIRECTION('',(0.,1.,0.));
#575=DIRECTION('',(0.,0.,1.));
#576=DIRECTION('',(0.,0.,-1.));
#577=DIRECTION('',(0.,0.,-1.));
#578=DIRECTION('',(-1.,0.,0.));
#579=DIRECTION('',(1.,0.,0.));
#580=DIRECTION('',(0.,0.,1.));
#581=DIRECTION('',(1.,0.,0.));
#582=DIRECTION('',(0.,0.,1.));
#583=DIRECTION('',(1.,0.,0.));
#584=DIRECTION('',(0.,0.,1.));
#585=DIRECTION('',(1.,0.,0.));
#586=DIRECTION('',(0.,0.,1.));
#587=DIRECTION('',(1.,0.,0.));
#588=DIRECTION('',(0.,0.,1.));
#589=DIRECTION('',(1.,0.,0.));
#590=DIRECTION('',(0.,0.,1.));
#591=DIRECTION('',(1.,0.,0.));
#592=DIRECTION('',(0.,0.,1.));
#593=DIRECTION('',(1.,0.,0.));
#594=DIRECTION('',(0.,0.,1.));
#595=DIRECTION('',(1.,0.,0.));
#596=DIRECTION('',(0.,0.,1.));
#597=DIRECTION('',(1.,0.,0.));
#598=DIRECTION('',(1.,0.,0.));
#599=DIRECTION('',(0.,0.,1.));
#600=DIRECTION('',(1.,0.,0.));
#601=DIRECTION('',(1.,5.46369598732852E-16,0.));
#602=DIRECTION('',(-1.87814549564418E-16,-1.,0.));
#603=DIRECTION('',(0.,0.,1.));
#604=DIRECTION('',(1.,0.,0.));
#605=DIRECTION('',(0.,0.,1.));
#606=DIRECTION('',(1.,0.,0.));
#607=DIRECTION('',(0.,0.,1.));
#608=DIRECTION('',(1.,0.,0.));
#609=DIRECTION('',(0.,0.,1.));
#610=DIRECTION('',(1.,0.,0.));
#611=DIRECTION('',(1.,-1.87814549564418E-16,0.));
#612=DIRECTION('',(1.87814549564418E-16,1.,0.));
#613=DIRECTION('',(0.,0.,-1.));
#614=DIRECTION('',(1.,-1.87814549564418E-16,0.));
#615=DIRECTION('',(1.87814549564418E-16,1.,0.));
#616=DIRECTION('',(0.,0.,-1.));
#617=DIRECTION('',(0.,0.,1.));
#618=DIRECTION('',(1.,0.,0.));
#619=DIRECTION('',(0.,0.,1.));
#620=DIRECTION('',(1.,0.,0.));
#621=DIRECTION('',(0.,0.,1.));
#622=DIRECTION('',(1.,0.,0.));
#623=DIRECTION('',(0.,0.,1.));
#624=DIRECTION('',(1.,0.,0.));
#625=DIRECTION('',(0.,0.,1.));
#626=DIRECTION('',(1.,0.,0.));
#627=DIRECTION('',(0.,0.,1.));
#628=DIRECTION('',(1.,0.,0.));
#629=DIRECTION('',(0.,0.,1.));
#630=DIRECTION('',(1.,0.,0.));
#631=DIRECTION('',(0.,0.,1.));
#632=DIRECTION('',(1.,0.,0.));
#633=DIRECTION('',(0.,1.,0.));
#634=DIRECTION('',(0.,0.,1.));
#635=DIRECTION('',(0.,1.,0.));
#636=DIRECTION('',(0.,0.,1.));
#637=CARTESIAN_POINT('',(0.,0.,0.));
#638=CARTESIAN_POINT('',(0.0254,0.,0.0063754));
#639=CARTESIAN_POINT('',(0.0254,0.00762,0.0063754));
#640=CARTESIAN_POINT('',(0.0254,0.00762,0.0063754));
#641=CARTESIAN_POINT('',(0.0254,0.00762,0.));
#642=CARTESIAN_POINT('',(0.0254,0.,0.0063754));
#643=CARTESIAN_POINT('',(0.0254,-0.0508,0.0063754));
#644=CARTESIAN_POINT('',(0.0254,-0.0508,0.0063754));
#645=CARTESIAN_POINT('',(0.0254,-0.0508,0.));
#646=CARTESIAN_POINT('',(0.0254,0.,0.));
#647=CARTESIAN_POINT('',(0.,0.,0.0063754));
#648=CARTESIAN_POINT('',(0.01905,-0.03175,0.0063754));
#649=CARTESIAN_POINT('',(0.0223139,-0.03175,0.0063754));
#650=CARTESIAN_POINT('',(0.01905,-0.01651,0.0063754));
#651=CARTESIAN_POINT('',(0.0223139,-0.01651,0.0063754));
#652=CARTESIAN_POINT('',(0.01905,-0.04699,0.0063754));
#653=CARTESIAN_POINT('',(0.0223139,-0.04699,0.0063754));
#654=CARTESIAN_POINT('',(0.01905,-0.00127,0.0063754));
#655=CARTESIAN_POINT('',(0.0223139,-0.00127,0.0063754));
#656=CARTESIAN_POINT('',(0.01905,0.00762,0.0063754));
#657=CARTESIAN_POINT('',(0.0127,0.00762,0.0063754));
#658=CARTESIAN_POINT('',(0.0127,6.93889390390723E-18,0.0063754));
#659=CARTESIAN_POINT('',(0.0127,-0.04445,0.0063754));
#660=CARTESIAN_POINT('',(0.0127,6.93889390390723E-18,0.0063754));
#661=CARTESIAN_POINT('',(0.0127,-0.0508,0.0063754));
#662=CARTESIAN_POINT('',(0.01905,-0.0508,0.0063754));
#663=CARTESIAN_POINT('',(-0.0254,0.,0.0063754));
#664=CARTESIAN_POINT('',(-0.0254,0.,0.0063754));
#665=CARTESIAN_POINT('',(-0.0254,-0.0508,0.0063754));
#666=CARTESIAN_POINT('',(-0.0254,0.00762,0.0063754));
#667=CARTESIAN_POINT('',(-0.0254,0.00762,0.0063754));
#668=CARTESIAN_POINT('',(-0.0254,0.00762,0.));
#669=CARTESIAN_POINT('',(-0.0254,0.,0.));
#670=CARTESIAN_POINT('',(-0.0254,-0.0508,0.));
#671=CARTESIAN_POINT('',(-0.0254,-0.0508,0.0063754));
#672=CARTESIAN_POINT('',(0.,0.,0.06985));
#673=CARTESIAN_POINT('',(0.0127,6.93889390390723E-18,0.06985));
#674=CARTESIAN_POINT('',(0.0127,0.00762,0.06985));
#675=CARTESIAN_POINT('',(0.0127,-0.0508,0.06985));
#676=CARTESIAN_POINT('',(-1.04083408558608E-17,0.00762,0.06985));
#677=CARTESIAN_POINT('',(-0.0127,0.00762,0.06985));
#678=CARTESIAN_POINT('',(-0.0127,6.93889390390723E-18,0.06985));
#679=CARTESIAN_POINT('',(-0.0127,-0.0508,0.06985));
#680=CARTESIAN_POINT('',(-1.04083408558608E-17,-0.0508,0.06985));
#681=CARTESIAN_POINT('',(-1.04083408558608E-17,0.050802,0.0635));
#682=CARTESIAN_POINT('',(-1.04083408558608E-17,0.00762,0.0635));
#683=CARTESIAN_POINT('',(0.0127,0.00762,0.0635));
#684=CARTESIAN_POINT('',(-0.0127,0.00762,0.0635));
#685=CARTESIAN_POINT('',(0.0127,0.050802,0.0635));
#686=CARTESIAN_POINT('',(0.0127,-0.04445,0.0635));
#687=CARTESIAN_POINT('',(-1.04083408558608E-17,-0.04445,0.0635));
#688=CARTESIAN_POINT('',(-0.0127,-0.04445,0.0635));
#689=CARTESIAN_POINT('',(-0.0127,0.050802,0.0635));
#690=CARTESIAN_POINT('',(0.0127,6.93889390390723E-18,0.0063754));
#691=CARTESIAN_POINT('',(0.0127,0.00762,0.0063754));
#692=CARTESIAN_POINT('',(0.0127,0.00762,0.00635));
#693=CARTESIAN_POINT('',(0.0127,6.93889390390723E-18,0.00635));
#694=CARTESIAN_POINT('',(0.0127,-0.04445,0.00635));
#695=CARTESIAN_POINT('',(0.0127,-0.04445,0.06985));
#696=CARTESIAN_POINT('',(-0.0127,6.93889390390723E-18,0.0063754));
#697=CARTESIAN_POINT('',(-0.0127,6.93889390390723E-18,0.00635));
#698=CARTESIAN_POINT('',(-0.0127,0.00762,0.00635));
#699=CARTESIAN_POINT('',(-0.0127,-0.04445,0.00635));
#700=CARTESIAN_POINT('',(-0.0127,0.00762,0.0063754));
#701=CARTESIAN_POINT('',(-0.0127,0.00762,0.0063754));
#702=CARTESIAN_POINT('',(-0.0127,6.93889390390723E-18,0.0063754));
#703=CARTESIAN_POINT('',(-0.0127,-0.04445,0.0063754));
#704=CARTESIAN_POINT('',(-0.0127,-0.04445,0.0063754));
#705=CARTESIAN_POINT('',(0.,0.,0.00635));
#706=CARTESIAN_POINT('',(8.67361737988404E-18,0.00762,0.00635));
#707=CARTESIAN_POINT('',(-1.04083408558608E-17,-0.04445,0.00635));
#708=CARTESIAN_POINT('',(-1.04083408558608E-17,-0.04445,0.06985));
#709=CARTESIAN_POINT('',(0.0127,-0.04445,0.06985));
#710=CARTESIAN_POINT('',(-0.0127,-0.04445,0.06985));
#711=CARTESIAN_POINT('',(-1.04083408558608E-17,-0.0508,0.00635));
#712=CARTESIAN_POINT('',(0.0127,-0.0508,0.06985));
#713=CARTESIAN_POINT('',(-0.0127,-0.0508,0.06985));
#714=CARTESIAN_POINT('',(-0.0127,-0.0508,0.0063754));
#715=CARTESIAN_POINT('',(-0.01905,-0.0508,0.0063754));
#716=CARTESIAN_POINT('',(-1.04083408558608E-17,-0.0508,0.));
#717=CARTESIAN_POINT('',(0.,0.,0.));
#718=CARTESIAN_POINT('',(-0.01905,-0.00127,0.));
#719=CARTESIAN_POINT('',(-0.0157861,-0.00127,0.));
#720=CARTESIAN_POINT('',(0.01905,-0.00127,0.));
#721=CARTESIAN_POINT('',(0.0223139,-0.00127,0.));
#722=CARTESIAN_POINT('',(-0.01905,-0.01651,0.));
#723=CARTESIAN_POINT('',(-0.0157861,-0.01651,0.));
#724=CARTESIAN_POINT('',(0.01905,-0.04699,0.));
#725=CARTESIAN_POINT('',(0.0223139,-0.04699,0.));
#726=CARTESIAN_POINT('',(0.01905,-0.01651,0.));
#727=CARTESIAN_POINT('',(0.0223139,-0.01651,0.));
#728=CARTESIAN_POINT('',(-0.01905,-0.03175,0.));
#729=CARTESIAN_POINT('',(-0.0157861,-0.03175,0.));
#730=CARTESIAN_POINT('',(0.01905,-0.03175,0.));
#731=CARTESIAN_POINT('',(0.0223139,-0.03175,0.));
#732=CARTESIAN_POINT('',(-0.01905,-0.04699,0.));
#733=CARTESIAN_POINT('',(-0.0157861,-0.04699,0.));
#734=CARTESIAN_POINT('',(8.67361737988404E-18,0.00762,0.));
#735=CARTESIAN_POINT('',(0.,0.,0.0063754));
#736=CARTESIAN_POINT('',(-0.01905,0.00762,0.0063754));
#737=CARTESIAN_POINT('',(-0.0127,6.93889390390723E-18,0.0063754));
#738=CARTESIAN_POINT('',(-0.01905,-0.00127,0.0063754));
#739=CARTESIAN_POINT('',(-0.0157861,-0.00127,0.0063754));
#740=CARTESIAN_POINT('',(-0.01905,-0.01651,0.0063754));
#741=CARTESIAN_POINT('',(-0.0157861,-0.01651,0.0063754));
#742=CARTESIAN_POINT('',(-0.01905,-0.03175,0.0063754));
#743=CARTESIAN_POINT('',(-0.0157861,-0.03175,0.0063754));
#744=CARTESIAN_POINT('',(-0.01905,-0.04699,0.0063754));
#745=CARTESIAN_POINT('',(-0.0157861,-0.04699,0.0063754));
#746=CARTESIAN_POINT('',(0.0127,6.93889390390723E-18,0.06985));
#747=CARTESIAN_POINT('',(0.0127,0.00762,0.06985));
#748=CARTESIAN_POINT('',(-0.0127,6.93889390390723E-18,0.06985));
#749=CARTESIAN_POINT('',(-0.0127,0.00762,0.06985));
#750=CARTESIAN_POINT('',(-0.01905,-0.04699,0.));
#751=CARTESIAN_POINT('',(-0.01905,-0.03175,0.));
#752=CARTESIAN_POINT('',(-0.01905,-0.01651,0.));
#753=CARTESIAN_POINT('',(-0.01905,-0.00127,0.));
#754=CARTESIAN_POINT('',(0.01905,-0.03175,0.));
#755=CARTESIAN_POINT('',(0.01905,-0.01651,0.));
#756=CARTESIAN_POINT('',(0.01905,-0.04699,0.));
#757=CARTESIAN_POINT('',(0.01905,-0.00127,0.));
#758=CARTESIAN_POINT('',(8.67361737988404E-18,0.00762,0.00635));
#759=CARTESIAN_POINT('',(8.67361737988404E-18,0.00762,0.00635));
#760=MECHANICAL_DESIGN_GEOMETRIC_PRESENTATION_REPRESENTATION('',(#463),
#761);
#761=(
GEOMETRIC_REPRESENTATION_CONTEXT(3)
GLOBAL_UNCERTAINTY_ASSIGNED_CONTEXT((#762))
GLOBAL_UNIT_ASSIGNED_CONTEXT((#765,#764,#763))
REPRESENTATION_CONTEXT('Top Clip','TOP_LEVEL_ASSEMBLY_PART')
);
#762=UNCERTAINTY_MEASURE_WITH_UNIT(LENGTH_MEASURE(1.E-8),#765,
'DISTANCE_ACCURACY_VALUE','Maximum Tolerance applied to model');
#763=(
NAMED_UNIT(*)
SI_UNIT($,.STERADIAN.)
SOLID_ANGLE_UNIT()
);
#764=(
NAMED_UNIT(*)
PLANE_ANGLE_UNIT()
SI_UNIT($,.RADIAN.)
);
#765=(
LENGTH_UNIT()
NAMED_UNIT(*)
SI_UNIT($,.METRE.)
);
#766=PRODUCT_DEFINITION_SHAPE('','',#767);
#767=PRODUCT_DEFINITION('','',#769,#768);
#768=PRODUCT_DEFINITION_CONTEXT('',#775,'design');
#769=PRODUCT_DEFINITION_FORMATION_WITH_SPECIFIED_SOURCE('','',#771,
 .NOT_KNOWN.);
#770=PRODUCT_RELATED_PRODUCT_CATEGORY('','',(#771));
#771=PRODUCT('Top Clip','Top Clip','Top Clip',(#773));
#772=PRODUCT_CATEGORY('','');
#773=PRODUCT_CONTEXT('',#775,'mechanical');
#774=APPLICATION_PROTOCOL_DEFINITION('international standard',
'ap242_managed_model_based_3d_engineering',2020,#775);
#775=APPLICATION_CONTEXT('managed model based 3d engineering');
ENDSEC;
END-ISO-10303-21;
