ISO-10303-21;
HEADER;
/* Generated by software containing ST-Developer
 * from STEP Tools, Inc. (www.steptools.com) 
 */
/* OPTION: using custom renumber hook */

FILE_DESCRIPTION(
/* description */ ('STEP AP242 Edition 2',
'CAx-IF Rec.Pracs.---Representation and Presentation of Product Manufa
cturing Information (PMI)---4.0---2014-10-13',
'CAx-IF Rec.Pracs.---3D Tessellated Geometry---0.4---2014-09-14','2;1',
'CAx-IF Rec.Pracs.---User Defined Attributes---1.5---2016-08-15'),
/* implementation_level */ '2;1');

FILE_NAME(
/* name */ 'Top Clip Wheel',
/* time_stamp */ '2026-08-06T20:54:00Z',
/* author */ (''),
/* organization */ (''),
/* preprocessor_version */ 'ST-DEVELOPER v20',
/* originating_system */ 'ONSHAPE BY PTC INC, 1.218',
/* authorisation */ '  ');

FILE_SCHEMA (('AP242_MANAGED_MODEL_BASED_3D_ENGINEERING_MIM_LF { 1 0 10303 442 3 1 4 }'));
ENDSEC;

DATA;
#10=SHAPE_REPRESENTATION_RELATIONSHIP('','',#699,#11);
#11=ADVANCED_BREP_SHAPE_REPRESENTATION('',(#697),#1145);
#12=CYLINDRICAL_SURFACE('',#743,0.0032639);
#13=CYLINDRICAL_SURFACE('',#744,0.0032639);
#14=CYLINDRICAL_SURFACE('',#745,0.0032639);
#15=CYLINDRICAL_SURFACE('',#746,0.0032639);
#16=CYLINDRICAL_SURFACE('',#747,0.0032639);
#17=CYLINDRICAL_SURFACE('',#748,0.0032639);
#18=CYLINDRICAL_SURFACE('',#749,0.0032639);
#19=CYLINDRICAL_SURFACE('',#750,0.0032639);
#20=CYLINDRICAL_SURFACE('',#751,0.0032639);
#21=CYLINDRICAL_SURFACE('',#752,0.0032639);
#22=CYLINDRICAL_SURFACE('',#753,0.0032639);
#23=CYLINDRICAL_SURFACE('',#754,0.0032639);
#24=CYLINDRICAL_SURFACE('',#766,0.0032639);
#25=CYLINDRICAL_SURFACE('',#767,0.0032639);
#26=CYLINDRICAL_SURFACE('',#768,0.0032639);
#27=CYLINDRICAL_SURFACE('',#769,0.003175);
#28=CYLINDRICAL_SURFACE('',#770,0.003175);
#29=CIRCLE('',#702,0.0032639);
#30=CIRCLE('',#703,0.0032639);
#31=CIRCLE('',#704,0.0032639);
#32=CIRCLE('',#705,0.0032639);
#33=CIRCLE('',#706,0.0032639);
#34=CIRCLE('',#707,0.0032639);
#35=CIRCLE('',#708,0.0032639);
#36=CIRCLE('',#709,0.0032639);
#37=CIRCLE('',#710,0.0032639);
#38=CIRCLE('',#711,0.0032639);
#39=CIRCLE('',#712,0.0032639);
#40=CIRCLE('',#713,0.0032639);
#41=CIRCLE('',#714,0.003175);
#42=CIRCLE('',#715,0.003175);
#43=CIRCLE('',#724,0.0032639);
#44=CIRCLE('',#725,0.0032639);
#45=CIRCLE('',#726,0.0032639);
#46=CIRCLE('',#727,0.0032639);
#47=CIRCLE('',#728,0.0032639);
#48=CIRCLE('',#729,0.0032639);
#49=CIRCLE('',#732,0.0032639);
#50=CIRCLE('',#733,0.0032639);
#51=CIRCLE('',#734,0.0032639);
#52=CIRCLE('',#735,0.0032639);
#53=CIRCLE('',#736,0.0032639);
#54=CIRCLE('',#737,0.0032639);
#55=CIRCLE('',#756,0.0032639);
#56=CIRCLE('',#757,0.0032639);
#57=CIRCLE('',#758,0.0032639);
#58=CIRCLE('',#760,0.0032639);
#59=CIRCLE('',#761,0.0032639);
#60=CIRCLE('',#762,0.0032639);
#61=CIRCLE('',#764,0.003175);
#62=CIRCLE('',#765,0.003175);
#63=ORIENTED_EDGE('',*,*,#227,.T.);
#64=ORIENTED_EDGE('',*,*,#228,.F.);
#65=ORIENTED_EDGE('',*,*,#229,.F.);
#66=ORIENTED_EDGE('',*,*,#230,.T.);
#67=ORIENTED_EDGE('',*,*,#231,.T.);
#68=ORIENTED_EDGE('',*,*,#232,.T.);
#69=ORIENTED_EDGE('',*,*,#233,.T.);
#70=ORIENTED_EDGE('',*,*,#234,.T.);
#71=ORIENTED_EDGE('',*,*,#235,.T.);
#72=ORIENTED_EDGE('',*,*,#236,.T.);
#73=ORIENTED_EDGE('',*,*,#237,.T.);
#74=ORIENTED_EDGE('',*,*,#238,.T.);
#75=ORIENTED_EDGE('',*,*,#239,.T.);
#76=ORIENTED_EDGE('',*,*,#240,.T.);
#77=ORIENTED_EDGE('',*,*,#241,.T.);
#78=ORIENTED_EDGE('',*,*,#242,.T.);
#79=ORIENTED_EDGE('',*,*,#243,.T.);
#80=ORIENTED_EDGE('',*,*,#244,.T.);
#81=ORIENTED_EDGE('',*,*,#245,.T.);
#82=ORIENTED_EDGE('',*,*,#246,.F.);
#83=ORIENTED_EDGE('',*,*,#247,.F.);
#84=ORIENTED_EDGE('',*,*,#248,.T.);
#85=ORIENTED_EDGE('',*,*,#249,.T.);
#86=ORIENTED_EDGE('',*,*,#250,.T.);
#87=ORIENTED_EDGE('',*,*,#251,.F.);
#88=ORIENTED_EDGE('',*,*,#252,.F.);
#89=ORIENTED_EDGE('',*,*,#249,.F.);
#90=ORIENTED_EDGE('',*,*,#253,.F.);
#91=ORIENTED_EDGE('',*,*,#254,.T.);
#92=ORIENTED_EDGE('',*,*,#255,.T.);
#93=ORIENTED_EDGE('',*,*,#256,.T.);
#94=ORIENTED_EDGE('',*,*,#251,.T.);
#95=ORIENTED_EDGE('',*,*,#257,.F.);
#96=ORIENTED_EDGE('',*,*,#258,.F.);
#97=ORIENTED_EDGE('',*,*,#227,.F.);
#98=ORIENTED_EDGE('',*,*,#259,.F.);
#99=ORIENTED_EDGE('',*,*,#260,.T.);
#100=ORIENTED_EDGE('',*,*,#258,.T.);
#101=ORIENTED_EDGE('',*,*,#261,.T.);
#102=ORIENTED_EDGE('',*,*,#254,.F.);
#103=ORIENTED_EDGE('',*,*,#262,.F.);
#104=ORIENTED_EDGE('',*,*,#263,.T.);
#105=ORIENTED_EDGE('',*,*,#264,.F.);
#106=ORIENTED_EDGE('',*,*,#265,.F.);
#107=ORIENTED_EDGE('',*,*,#266,.F.);
#108=ORIENTED_EDGE('',*,*,#267,.T.);
#109=ORIENTED_EDGE('',*,*,#268,.T.);
#110=ORIENTED_EDGE('',*,*,#269,.T.);
#111=ORIENTED_EDGE('',*,*,#229,.T.);
#112=ORIENTED_EDGE('',*,*,#270,.F.);
#113=ORIENTED_EDGE('',*,*,#250,.F.);
#114=ORIENTED_EDGE('',*,*,#255,.F.);
#115=ORIENTED_EDGE('',*,*,#261,.F.);
#116=ORIENTED_EDGE('',*,*,#257,.T.);
#117=ORIENTED_EDGE('',*,*,#228,.T.);
#118=ORIENTED_EDGE('',*,*,#263,.F.);
#119=ORIENTED_EDGE('',*,*,#271,.F.);
#120=ORIENTED_EDGE('',*,*,#270,.T.);
#121=ORIENTED_EDGE('',*,*,#272,.F.);
#122=ORIENTED_EDGE('',*,*,#273,.F.);
#123=ORIENTED_EDGE('',*,*,#274,.F.);
#124=ORIENTED_EDGE('',*,*,#275,.F.);
#125=ORIENTED_EDGE('',*,*,#276,.F.);
#126=ORIENTED_EDGE('',*,*,#277,.F.);
#127=ORIENTED_EDGE('',*,*,#262,.T.);
#128=ORIENTED_EDGE('',*,*,#253,.T.);
#129=ORIENTED_EDGE('',*,*,#278,.T.);
#130=ORIENTED_EDGE('',*,*,#264,.T.);
#131=ORIENTED_EDGE('',*,*,#271,.T.);
#132=ORIENTED_EDGE('',*,*,#230,.F.);
#133=ORIENTED_EDGE('',*,*,#269,.F.);
#134=ORIENTED_EDGE('',*,*,#279,.T.);
#135=ORIENTED_EDGE('',*,*,#259,.T.);
#136=ORIENTED_EDGE('',*,*,#280,.F.);
#137=ORIENTED_EDGE('',*,*,#281,.F.);
#138=ORIENTED_EDGE('',*,*,#282,.F.);
#139=ORIENTED_EDGE('',*,*,#283,.F.);
#140=ORIENTED_EDGE('',*,*,#284,.F.);
#141=ORIENTED_EDGE('',*,*,#285,.F.);
#142=ORIENTED_EDGE('',*,*,#256,.F.);
#143=ORIENTED_EDGE('',*,*,#260,.F.);
#144=ORIENTED_EDGE('',*,*,#279,.F.);
#145=ORIENTED_EDGE('',*,*,#268,.F.);
#146=ORIENTED_EDGE('',*,*,#286,.F.);
#147=ORIENTED_EDGE('',*,*,#278,.F.);
#148=ORIENTED_EDGE('',*,*,#248,.F.);
#149=ORIENTED_EDGE('',*,*,#287,.F.);
#150=ORIENTED_EDGE('',*,*,#288,.F.);
#151=ORIENTED_EDGE('',*,*,#289,.T.);
#152=ORIENTED_EDGE('',*,*,#265,.T.);
#153=ORIENTED_EDGE('',*,*,#290,.F.);
#154=ORIENTED_EDGE('',*,*,#291,.T.);
#155=ORIENTED_EDGE('',*,*,#292,.T.);
#156=ORIENTED_EDGE('',*,*,#252,.T.);
#157=ORIENTED_EDGE('',*,*,#286,.T.);
#158=ORIENTED_EDGE('',*,*,#267,.F.);
#159=ORIENTED_EDGE('',*,*,#289,.F.);
#160=ORIENTED_EDGE('',*,*,#293,.T.);
#161=ORIENTED_EDGE('',*,*,#290,.T.);
#162=ORIENTED_EDGE('',*,*,#266,.T.);
#163=ORIENTED_EDGE('',*,*,#294,.F.);
#164=ORIENTED_EDGE('',*,*,#287,.T.);
#165=ORIENTED_EDGE('',*,*,#247,.T.);
#166=ORIENTED_EDGE('',*,*,#292,.F.);
#167=ORIENTED_EDGE('',*,*,#293,.F.);
#168=ORIENTED_EDGE('',*,*,#288,.T.);
#169=ORIENTED_EDGE('',*,*,#294,.T.);
#170=ORIENTED_EDGE('',*,*,#291,.F.);
#171=ORIENTED_EDGE('',*,*,#285,.T.);
#172=ORIENTED_EDGE('',*,*,#231,.F.);
#173=ORIENTED_EDGE('',*,*,#284,.T.);
#174=ORIENTED_EDGE('',*,*,#233,.F.);
#175=ORIENTED_EDGE('',*,*,#283,.T.);
#176=ORIENTED_EDGE('',*,*,#235,.F.);
#177=ORIENTED_EDGE('',*,*,#282,.T.);
#178=ORIENTED_EDGE('',*,*,#237,.F.);
#179=ORIENTED_EDGE('',*,*,#281,.T.);
#180=ORIENTED_EDGE('',*,*,#239,.F.);
#181=ORIENTED_EDGE('',*,*,#280,.T.);
#182=ORIENTED_EDGE('',*,*,#241,.F.);
#183=ORIENTED_EDGE('',*,*,#277,.T.);
#184=ORIENTED_EDGE('',*,*,#232,.F.);
#185=ORIENTED_EDGE('',*,*,#276,.T.);
#186=ORIENTED_EDGE('',*,*,#234,.F.);
#187=ORIENTED_EDGE('',*,*,#275,.T.);
#188=ORIENTED_EDGE('',*,*,#236,.F.);
#189=ORIENTED_EDGE('',*,*,#274,.T.);
#190=ORIENTED_EDGE('',*,*,#238,.F.);
#191=ORIENTED_EDGE('',*,*,#273,.T.);
#192=ORIENTED_EDGE('',*,*,#240,.F.);
#193=ORIENTED_EDGE('',*,*,#272,.T.);
#194=ORIENTED_EDGE('',*,*,#242,.F.);
#195=ORIENTED_EDGE('',*,*,#295,.T.);
#196=ORIENTED_EDGE('',*,*,#296,.T.);
#197=ORIENTED_EDGE('',*,*,#297,.T.);
#198=ORIENTED_EDGE('',*,*,#298,.F.);
#199=ORIENTED_EDGE('',*,*,#299,.T.);
#200=ORIENTED_EDGE('',*,*,#246,.T.);
#201=ORIENTED_EDGE('',*,*,#300,.T.);
#202=ORIENTED_EDGE('',*,*,#301,.F.);
#203=ORIENTED_EDGE('',*,*,#302,.F.);
#204=ORIENTED_EDGE('',*,*,#303,.F.);
#205=ORIENTED_EDGE('',*,*,#244,.F.);
#206=ORIENTED_EDGE('',*,*,#304,.T.);
#207=ORIENTED_EDGE('',*,*,#305,.T.);
#208=ORIENTED_EDGE('',*,*,#306,.T.);
#209=ORIENTED_EDGE('',*,*,#307,.T.);
#210=ORIENTED_EDGE('',*,*,#298,.T.);
#211=ORIENTED_EDGE('',*,*,#308,.T.);
#212=ORIENTED_EDGE('',*,*,#305,.F.);
#213=ORIENTED_EDGE('',*,*,#303,.T.);
#214=ORIENTED_EDGE('',*,*,#297,.F.);
#215=ORIENTED_EDGE('',*,*,#302,.T.);
#216=ORIENTED_EDGE('',*,*,#296,.F.);
#217=ORIENTED_EDGE('',*,*,#301,.T.);
#218=ORIENTED_EDGE('',*,*,#295,.F.);
#219=ORIENTED_EDGE('',*,*,#304,.F.);
#220=ORIENTED_EDGE('',*,*,#243,.F.);
#221=ORIENTED_EDGE('',*,*,#299,.F.);
#222=ORIENTED_EDGE('',*,*,#307,.F.);
#223=ORIENTED_EDGE('',*,*,#300,.F.);
#224=ORIENTED_EDGE('',*,*,#245,.F.);
#225=ORIENTED_EDGE('',*,*,#306,.F.);
#226=ORIENTED_EDGE('',*,*,#308,.F.);
#227=EDGE_CURVE('',#309,#310,#373,.T.);
#228=EDGE_CURVE('',#311,#310,#374,.T.);
#229=EDGE_CURVE('',#312,#311,#375,.T.);
#230=EDGE_CURVE('',#312,#309,#376,.T.);
#231=EDGE_CURVE('',#313,#313,#29,.T.);
#232=EDGE_CURVE('',#314,#314,#30,.T.);
#233=EDGE_CURVE('',#315,#315,#31,.T.);
#234=EDGE_CURVE('',#316,#316,#32,.T.);
#235=EDGE_CURVE('',#317,#317,#33,.T.);
#236=EDGE_CURVE('',#318,#318,#34,.T.);
#237=EDGE_CURVE('',#319,#319,#35,.T.);
#238=EDGE_CURVE('',#320,#320,#36,.T.);
#239=EDGE_CURVE('',#321,#321,#37,.T.);
#240=EDGE_CURVE('',#322,#322,#38,.T.);
#241=EDGE_CURVE('',#323,#323,#39,.T.);
#242=EDGE_CURVE('',#324,#324,#40,.T.);
#243=EDGE_CURVE('',#325,#326,#41,.T.);
#244=EDGE_CURVE('',#326,#327,#377,.T.);
#245=EDGE_CURVE('',#327,#328,#42,.T.);
#246=EDGE_CURVE('',#325,#328,#378,.T.);
#247=EDGE_CURVE('',#329,#330,#379,.T.);
#248=EDGE_CURVE('',#329,#331,#380,.T.);
#249=EDGE_CURVE('',#331,#332,#381,.T.);
#250=EDGE_CURVE('',#332,#333,#382,.T.);
#251=EDGE_CURVE('',#334,#333,#383,.T.);
#252=EDGE_CURVE('',#330,#334,#384,.T.);
#253=EDGE_CURVE('',#335,#331,#385,.T.);
#254=EDGE_CURVE('',#335,#336,#386,.T.);
#255=EDGE_CURVE('',#336,#332,#387,.T.);
#256=EDGE_CURVE('',#337,#334,#388,.T.);
#257=EDGE_CURVE('',#338,#333,#389,.T.);
#258=EDGE_CURVE('',#337,#338,#390,.T.);
#259=EDGE_CURVE('',#339,#309,#391,.T.);
#260=EDGE_CURVE('',#339,#337,#392,.T.);
#261=EDGE_CURVE('',#338,#336,#393,.T.);
#262=EDGE_CURVE('',#340,#335,#394,.T.);
#263=EDGE_CURVE('',#340,#310,#395,.T.);
#264=EDGE_CURVE('',#341,#342,#396,.T.);
#265=EDGE_CURVE('',#343,#341,#397,.T.);
#266=EDGE_CURVE('',#344,#343,#398,.T.);
#267=EDGE_CURVE('',#344,#345,#399,.T.);
#268=EDGE_CURVE('',#345,#346,#400,.T.);
#269=EDGE_CURVE('',#346,#312,#401,.T.);
#270=EDGE_CURVE('',#342,#311,#402,.T.);
#271=EDGE_CURVE('',#342,#340,#403,.T.);
#272=EDGE_CURVE('',#347,#347,#43,.T.);
#273=EDGE_CURVE('',#348,#348,#44,.T.);
#274=EDGE_CURVE('',#349,#349,#45,.T.);
#275=EDGE_CURVE('',#350,#350,#46,.T.);
#276=EDGE_CURVE('',#351,#351,#47,.T.);
#277=EDGE_CURVE('',#352,#352,#48,.T.);
#278=EDGE_CURVE('',#331,#341,#404,.T.);
#279=EDGE_CURVE('',#346,#339,#405,.T.);
#280=EDGE_CURVE('',#353,#353,#49,.T.);
#281=EDGE_CURVE('',#354,#354,#50,.T.);
#282=EDGE_CURVE('',#355,#355,#51,.T.);
#283=EDGE_CURVE('',#356,#356,#52,.T.);
#284=EDGE_CURVE('',#357,#357,#53,.T.);
#285=EDGE_CURVE('',#358,#358,#54,.T.);
#286=EDGE_CURVE('',#334,#345,#406,.T.);
#287=EDGE_CURVE('',#359,#329,#407,.T.);
#288=EDGE_CURVE('',#360,#359,#408,.T.);
#289=EDGE_CURVE('',#360,#343,#409,.T.);
#290=EDGE_CURVE('',#361,#344,#410,.T.);
#291=EDGE_CURVE('',#361,#362,#411,.T.);
#292=EDGE_CURVE('',#362,#330,#412,.T.);
#293=EDGE_CURVE('',#360,#361,#413,.T.);
#294=EDGE_CURVE('',#359,#362,#414,.T.);
#295=EDGE_CURVE('',#363,#363,#55,.T.);
#296=EDGE_CURVE('',#364,#364,#56,.T.);
#297=EDGE_CURVE('',#365,#365,#57,.T.);
#298=EDGE_CURVE('',#366,#367,#415,.T.);
#299=EDGE_CURVE('',#366,#325,#416,.T.);
#300=EDGE_CURVE('',#328,#367,#417,.F.);
#301=EDGE_CURVE('',#368,#368,#58,.T.);
#302=EDGE_CURVE('',#369,#369,#59,.T.);
#303=EDGE_CURVE('',#370,#370,#60,.T.);
#304=EDGE_CURVE('',#326,#371,#418,.F.);
#305=EDGE_CURVE('',#371,#372,#419,.T.);
#306=EDGE_CURVE('',#372,#327,#420,.T.);
#307=EDGE_CURVE('',#371,#366,#61,.F.);
#308=EDGE_CURVE('',#367,#372,#62,.F.);
#309=VERTEX_POINT('',#964);
#310=VERTEX_POINT('',#965);
#311=VERTEX_POINT('',#967);
#312=VERTEX_POINT('',#969);
#313=VERTEX_POINT('',#972);
#314=VERTEX_POINT('',#974);
#315=VERTEX_POINT('',#976);
#316=VERTEX_POINT('',#978);
#317=VERTEX_POINT('',#980);
#318=VERTEX_POINT('',#982);
#319=VERTEX_POINT('',#984);
#320=VERTEX_POINT('',#986);
#321=VERTEX_POINT('',#988);
#322=VERTEX_POINT('',#990);
#323=VERTEX_POINT('',#992);
#324=VERTEX_POINT('',#994);
#325=VERTEX_POINT('',#996);
#326=VERTEX_POINT('',#997);
#327=VERTEX_POINT('',#999);
#328=VERTEX_POINT('',#1001);
#329=VERTEX_POINT('',#1005);
#330=VERTEX_POINT('',#1006);
#331=VERTEX_POINT('',#1008);
#332=VERTEX_POINT('',#1010);
#333=VERTEX_POINT('',#1012);
#334=VERTEX_POINT('',#1014);
#335=VERTEX_POINT('',#1018);
#336=VERTEX_POINT('',#1020);
#337=VERTEX_POINT('',#1024);
#338=VERTEX_POINT('',#1026);
#339=VERTEX_POINT('',#1030);
#340=VERTEX_POINT('',#1034);
#341=VERTEX_POINT('',#1038);
#342=VERTEX_POINT('',#1039);
#343=VERTEX_POINT('',#1041);
#344=VERTEX_POINT('',#1043);
#345=VERTEX_POINT('',#1045);
#346=VERTEX_POINT('',#1047);
#347=VERTEX_POINT('',#1055);
#348=VERTEX_POINT('',#1057);
#349=VERTEX_POINT('',#1059);
#350=VERTEX_POINT('',#1061);
#351=VERTEX_POINT('',#1063);
#352=VERTEX_POINT('',#1065);
#353=VERTEX_POINT('',#1071);
#354=VERTEX_POINT('',#1073);
#355=VERTEX_POINT('',#1075);
#356=VERTEX_POINT('',#1077);
#357=VERTEX_POINT('',#1079);
#358=VERTEX_POINT('',#1081);
#359=VERTEX_POINT('',#1085);
#360=VERTEX_POINT('',#1087);
#361=VERTEX_POINT('',#1091);
#362=VERTEX_POINT('',#1093);
#363=VERTEX_POINT('',#1114);
#364=VERTEX_POINT('',#1116);
#365=VERTEX_POINT('',#1118);
#366=VERTEX_POINT('',#1120);
#367=VERTEX_POINT('',#1121);
#368=VERTEX_POINT('',#1126);
#369=VERTEX_POINT('',#1128);
#370=VERTEX_POINT('',#1130);
#371=VERTEX_POINT('',#1132);
#372=VERTEX_POINT('',#1134);
#373=LINE('',#963,#421);
#374=LINE('',#966,#422);
#375=LINE('',#968,#423);
#376=LINE('',#970,#424);
#377=LINE('',#998,#425);
#378=LINE('',#1002,#426);
#379=LINE('',#1004,#427);
#380=LINE('',#1007,#428);
#381=LINE('',#1009,#429);
#382=LINE('',#1011,#430);
#383=LINE('',#1013,#431);
#384=LINE('',#1015,#432);
#385=LINE('',#1017,#433);
#386=LINE('',#1019,#434);
#387=LINE('',#1021,#435);
#388=LINE('',#1023,#436);
#389=LINE('',#1025,#437);
#390=LINE('',#1027,#438);
#391=LINE('',#1029,#439);
#392=LINE('',#1031,#440);
#393=LINE('',#1032,#441);
#394=LINE('',#1033,#442);
#395=LINE('',#1035,#443);
#396=LINE('',#1037,#444);
#397=LINE('',#1040,#445);
#398=LINE('',#1042,#446);
#399=LINE('',#1044,#447);
#400=LINE('',#1046,#448);
#401=LINE('',#1048,#449);
#402=LINE('',#1049,#450);
#403=LINE('',#1052,#451);
#404=LINE('',#1066,#452);
#405=LINE('',#1068,#453);
#406=LINE('',#1082,#454);
#407=LINE('',#1084,#455);
#408=LINE('',#1086,#456);
#409=LINE('',#1088,#457);
#410=LINE('',#1090,#458);
#411=LINE('',#1092,#459);
#412=LINE('',#1094,#460);
#413=LINE('',#1096,#461);
#414=LINE('',#1098,#462);
#415=LINE('',#1119,#463);
#416=LINE('',#1122,#464);
#417=LINE('',#1123,#465);
#418=LINE('',#1131,#466);
#419=LINE('',#1133,#467);
#420=LINE('',#1135,#468);
#421=VECTOR('',#775,1.);
#422=VECTOR('',#776,1.);
#423=VECTOR('',#777,1.);
#424=VECTOR('',#778,1.);
#425=VECTOR('',#805,1.);
#426=VECTOR('',#808,1.);
#427=VECTOR('',#811,1.);
#428=VECTOR('',#812,1.);
#429=VECTOR('',#813,1.);
#430=VECTOR('',#814,1.);
#431=VECTOR('',#815,1.);
#432=VECTOR('',#816,1.);
#433=VECTOR('',#819,1.);
#434=VECTOR('',#820,1.);
#435=VECTOR('',#821,1.);
#436=VECTOR('',#824,1.);
#437=VECTOR('',#825,1.);
#438=VECTOR('',#826,1.);
#439=VECTOR('',#829,1.);
#440=VECTOR('',#830,1.);
#441=VECTOR('',#831,1.);
#442=VECTOR('',#832,1.);
#443=VECTOR('',#833,1.);
#444=VECTOR('',#836,1.);
#445=VECTOR('',#837,1.);
#446=VECTOR('',#838,1.);
#447=VECTOR('',#839,1.);
#448=VECTOR('',#840,1.);
#449=VECTOR('',#841,1.);
#450=VECTOR('',#842,1.);
#451=VECTOR('',#847,1.);
#452=VECTOR('',#862,1.);
#453=VECTOR('',#865,1.);
#454=VECTOR('',#880,1.);
#455=VECTOR('',#883,1.);
#456=VECTOR('',#884,1.);
#457=VECTOR('',#885,1.);
#458=VECTOR('',#888,1.);
#459=VECTOR('',#889,1.);
#460=VECTOR('',#890,1.);
#461=VECTOR('',#893,1.);
#462=VECTOR('',#896,1.);
#463=VECTOR('',#931,1.);
#464=VECTOR('',#932,1.);
#465=VECTOR('',#933,1.);
#466=VECTOR('',#942,1.);
#467=VECTOR('',#943,1.);
#468=VECTOR('',#944,1.);
#469=EDGE_LOOP('',(#63,#64,#65,#66));
#470=EDGE_LOOP('',(#67));
#471=EDGE_LOOP('',(#68));
#472=EDGE_LOOP('',(#69));
#473=EDGE_LOOP('',(#70));
#474=EDGE_LOOP('',(#71));
#475=EDGE_LOOP('',(#72));
#476=EDGE_LOOP('',(#73));
#477=EDGE_LOOP('',(#74));
#478=EDGE_LOOP('',(#75));
#479=EDGE_LOOP('',(#76));
#480=EDGE_LOOP('',(#77));
#481=EDGE_LOOP('',(#78));
#482=EDGE_LOOP('',(#79,#80,#81,#82));
#483=EDGE_LOOP('',(#83,#84,#85,#86,#87,#88));
#484=EDGE_LOOP('',(#89,#90,#91,#92));
#485=EDGE_LOOP('',(#93,#94,#95,#96));
#486=EDGE_LOOP('',(#97,#98,#99,#100,#101,#102,#103,#104));
#487=EDGE_LOOP('',(#105,#106,#107,#108,#109,#110,#111,#112));
#488=EDGE_LOOP('',(#113,#114,#115,#116));
#489=EDGE_LOOP('',(#117,#118,#119,#120));
#490=EDGE_LOOP('',(#121));
#491=EDGE_LOOP('',(#122));
#492=EDGE_LOOP('',(#123));
#493=EDGE_LOOP('',(#124));
#494=EDGE_LOOP('',(#125));
#495=EDGE_LOOP('',(#126));
#496=EDGE_LOOP('',(#127,#128,#129,#130,#131));
#497=EDGE_LOOP('',(#132,#133,#134,#135));
#498=EDGE_LOOP('',(#136));
#499=EDGE_LOOP('',(#137));
#500=EDGE_LOOP('',(#138));
#501=EDGE_LOOP('',(#139));
#502=EDGE_LOOP('',(#140));
#503=EDGE_LOOP('',(#141));
#504=EDGE_LOOP('',(#142,#143,#144,#145,#146));
#505=EDGE_LOOP('',(#147,#148,#149,#150,#151,#152));
#506=EDGE_LOOP('',(#153,#154,#155,#156,#157,#158));
#507=EDGE_LOOP('',(#159,#160,#161,#162));
#508=EDGE_LOOP('',(#163,#164,#165,#166));
#509=EDGE_LOOP('',(#167,#168,#169,#170));
#510=EDGE_LOOP('',(#171));
#511=EDGE_LOOP('',(#172));
#512=EDGE_LOOP('',(#173));
#513=EDGE_LOOP('',(#174));
#514=EDGE_LOOP('',(#175));
#515=EDGE_LOOP('',(#176));
#516=EDGE_LOOP('',(#177));
#517=EDGE_LOOP('',(#178));
#518=EDGE_LOOP('',(#179));
#519=EDGE_LOOP('',(#180));
#520=EDGE_LOOP('',(#181));
#521=EDGE_LOOP('',(#182));
#522=EDGE_LOOP('',(#183));
#523=EDGE_LOOP('',(#184));
#524=EDGE_LOOP('',(#185));
#525=EDGE_LOOP('',(#186));
#526=EDGE_LOOP('',(#187));
#527=EDGE_LOOP('',(#188));
#528=EDGE_LOOP('',(#189));
#529=EDGE_LOOP('',(#190));
#530=EDGE_LOOP('',(#191));
#531=EDGE_LOOP('',(#192));
#532=EDGE_LOOP('',(#193));
#533=EDGE_LOOP('',(#194));
#534=EDGE_LOOP('',(#195));
#535=EDGE_LOOP('',(#196));
#536=EDGE_LOOP('',(#197));
#537=EDGE_LOOP('',(#198,#199,#200,#201));
#538=EDGE_LOOP('',(#202));
#539=EDGE_LOOP('',(#203));
#540=EDGE_LOOP('',(#204));
#541=EDGE_LOOP('',(#205,#206,#207,#208));
#542=EDGE_LOOP('',(#209,#210,#211,#212));
#543=EDGE_LOOP('',(#213));
#544=EDGE_LOOP('',(#214));
#545=EDGE_LOOP('',(#215));
#546=EDGE_LOOP('',(#216));
#547=EDGE_LOOP('',(#217));
#548=EDGE_LOOP('',(#218));
#549=EDGE_LOOP('',(#219,#220,#221,#222));
#550=EDGE_LOOP('',(#223,#224,#225,#226));
#551=FACE_BOUND('',#469,.T.);
#552=FACE_BOUND('',#470,.T.);
#553=FACE_BOUND('',#471,.T.);
#554=FACE_BOUND('',#472,.T.);
#555=FACE_BOUND('',#473,.T.);
#556=FACE_BOUND('',#474,.T.);
#557=FACE_BOUND('',#475,.T.);
#558=FACE_BOUND('',#476,.T.);
#559=FACE_BOUND('',#477,.T.);
#560=FACE_BOUND('',#478,.T.);
#561=FACE_BOUND('',#479,.T.);
#562=FACE_BOUND('',#480,.T.);
#563=FACE_BOUND('',#481,.T.);
#564=FACE_BOUND('',#482,.T.);
#565=FACE_BOUND('',#483,.T.);
#566=FACE_BOUND('',#484,.T.);
#567=FACE_BOUND('',#485,.T.);
#568=FACE_BOUND('',#486,.T.);
#569=FACE_BOUND('',#487,.T.);
#570=FACE_BOUND('',#488,.T.);
#571=FACE_BOUND('',#489,.T.);
#572=FACE_BOUND('',#490,.T.);
#573=FACE_BOUND('',#491,.T.);
#574=FACE_BOUND('',#492,.T.);
#575=FACE_BOUND('',#493,.T.);
#576=FACE_BOUND('',#494,.T.);
#577=FACE_BOUND('',#495,.T.);
#578=FACE_BOUND('',#496,.T.);
#579=FACE_BOUND('',#497,.T.);
#580=FACE_BOUND('',#498,.T.);
#581=FACE_BOUND('',#499,.T.);
#582=FACE_BOUND('',#500,.T.);
#583=FACE_BOUND('',#501,.T.);
#584=FACE_BOUND('',#502,.T.);
#585=FACE_BOUND('',#503,.T.);
#586=FACE_BOUND('',#504,.T.);
#587=FACE_BOUND('',#505,.T.);
#588=FACE_BOUND('',#506,.T.);
#589=FACE_BOUND('',#507,.T.);
#590=FACE_BOUND('',#508,.T.);
#591=FACE_BOUND('',#509,.T.);
#592=FACE_BOUND('',#510,.T.);
#593=FACE_BOUND('',#511,.T.);
#594=FACE_BOUND('',#512,.T.);
#595=FACE_BOUND('',#513,.T.);
#596=FACE_BOUND('',#514,.T.);
#597=FACE_BOUND('',#515,.T.);
#598=FACE_BOUND('',#516,.T.);
#599=FACE_BOUND('',#517,.T.);
#600=FACE_BOUND('',#518,.T.);
#601=FACE_BOUND('',#519,.T.);
#602=FACE_BOUND('',#520,.T.);
#603=FACE_BOUND('',#521,.T.);
#604=FACE_BOUND('',#522,.T.);
#605=FACE_BOUND('',#523,.T.);
#606=FACE_BOUND('',#524,.T.);
#607=FACE_BOUND('',#525,.T.);
#608=FACE_BOUND('',#526,.T.);
#609=FACE_BOUND('',#527,.T.);
#610=FACE_BOUND('',#528,.T.);
#611=FACE_BOUND('',#529,.T.);
#612=FACE_BOUND('',#530,.T.);
#613=FACE_BOUND('',#531,.T.);
#614=FACE_BOUND('',#532,.T.);
#615=FACE_BOUND('',#533,.T.);
#616=FACE_BOUND('',#534,.T.);
#617=FACE_BOUND('',#535,.T.);
#618=FACE_BOUND('',#536,.T.);
#619=FACE_BOUND('',#537,.T.);
#620=FACE_BOUND('',#538,.T.);
#621=FACE_BOUND('',#539,.T.);
#622=FACE_BOUND('',#540,.T.);
#623=FACE_BOUND('',#541,.T.);
#624=FACE_BOUND('',#542,.T.);
#625=FACE_BOUND('',#543,.T.);
#626=FACE_BOUND('',#544,.T.);
#627=FACE_BOUND('',#545,.T.);
#628=FACE_BOUND('',#546,.T.);
#629=FACE_BOUND('',#547,.T.);
#630=FACE_BOUND('',#548,.T.);
#631=FACE_BOUND('',#549,.T.);
#632=FACE_BOUND('',#550,.T.);
#633=PLANE('',#701);
#634=PLANE('',#716);
#635=PLANE('',#717);
#636=PLANE('',#718);
#637=PLANE('',#719);
#638=PLANE('',#720);
#639=PLANE('',#721);
#640=PLANE('',#722);
#641=PLANE('',#723);
#642=PLANE('',#730);
#643=PLANE('',#731);
#644=PLANE('',#738);
#645=PLANE('',#739);
#646=PLANE('',#740);
#647=PLANE('',#741);
#648=PLANE('',#742);
#649=PLANE('',#755);
#650=PLANE('',#759);
#651=PLANE('',#763);
#652=ADVANCED_FACE('',(#551,#552,#553,#554,#555,#556,#557,#558,#559,#560,
#561,#562,#563,#564),#633,.F.);
#653=ADVANCED_FACE('',(#565),#634,.F.);
#654=ADVANCED_FACE('',(#566),#635,.F.);
#655=ADVANCED_FACE('',(#567),#636,.T.);
#656=ADVANCED_FACE('',(#568),#637,.T.);
#657=ADVANCED_FACE('',(#569),#638,.F.);
#658=ADVANCED_FACE('',(#570),#639,.T.);
#659=ADVANCED_FACE('',(#571),#640,.F.);
#660=ADVANCED_FACE('',(#572,#573,#574,#575,#576,#577,#578),#641,.T.);
#661=ADVANCED_FACE('',(#579),#642,.T.);
#662=ADVANCED_FACE('',(#580,#581,#582,#583,#584,#585,#586),#643,.T.);
#663=ADVANCED_FACE('',(#587),#644,.T.);
#664=ADVANCED_FACE('',(#588),#645,.F.);
#665=ADVANCED_FACE('',(#589),#646,.T.);
#666=ADVANCED_FACE('',(#590),#647,.F.);
#667=ADVANCED_FACE('',(#591),#648,.T.);
#668=ADVANCED_FACE('',(#592,#593),#12,.F.);
#669=ADVANCED_FACE('',(#594,#595),#13,.F.);
#670=ADVANCED_FACE('',(#596,#597),#14,.F.);
#671=ADVANCED_FACE('',(#598,#599),#15,.F.);
#672=ADVANCED_FACE('',(#600,#601),#16,.F.);
#673=ADVANCED_FACE('',(#602,#603),#17,.F.);
#674=ADVANCED_FACE('',(#604,#605),#18,.F.);
#675=ADVANCED_FACE('',(#606,#607),#19,.F.);
#676=ADVANCED_FACE('',(#608,#609),#20,.F.);
#677=ADVANCED_FACE('',(#610,#611),#21,.F.);
#678=ADVANCED_FACE('',(#612,#613),#22,.F.);
#679=ADVANCED_FACE('',(#614,#615),#23,.F.);
#680=ADVANCED_FACE('',(#616,#617,#618,#619),#649,.F.);
#681=ADVANCED_FACE('',(#620,#621,#622,#623),#650,.T.);
#682=ADVANCED_FACE('',(#624),#651,.F.);
#683=ADVANCED_FACE('',(#625,#626),#24,.F.);
#684=ADVANCED_FACE('',(#627,#628),#25,.F.);
#685=ADVANCED_FACE('',(#629,#630),#26,.F.);
#686=ADVANCED_FACE('',(#631),#27,.T.);
#687=ADVANCED_FACE('',(#632),#28,.T.);
#688=CLOSED_SHELL('',(#652,#653,#654,#655,#656,#657,#658,#659,#660,#661,
#662,#663,#664,#665,#666,#667,#668,#669,#670,#671,#672,#673,#674,#675,#676,
#677,#678,#679,#680,#681,#682,#683,#684,#685,#686,#687));
#689=STYLED_ITEM('',(#690),#697);
#690=PRESENTATION_STYLE_ASSIGNMENT((#691));
#691=SURFACE_STYLE_USAGE(.BOTH.,#692);
#692=SURFACE_SIDE_STYLE('',(#693));
#693=SURFACE_STYLE_FILL_AREA(#694);
#694=FILL_AREA_STYLE('',(#695));
#695=FILL_AREA_STYLE_COLOUR('',#696);
#696=COLOUR_RGB('',0.615686274509804,0.811764705882353,0.929411764705882);
#697=MANIFOLD_SOLID_BREP('Clip Wheel',#688);
#698=SHAPE_DEFINITION_REPRESENTATION(#1150,#699);
#699=SHAPE_REPRESENTATION('Clip Wheel',(#700),#1145);
#700=AXIS2_PLACEMENT_3D('',#961,#771,#772);
#701=AXIS2_PLACEMENT_3D('',#962,#773,#774);
#702=AXIS2_PLACEMENT_3D('',#971,#779,#780);
#703=AXIS2_PLACEMENT_3D('',#973,#781,#782);
#704=AXIS2_PLACEMENT_3D('',#975,#783,#784);
#705=AXIS2_PLACEMENT_3D('',#977,#785,#786);
#706=AXIS2_PLACEMENT_3D('',#979,#787,#788);
#707=AXIS2_PLACEMENT_3D('',#981,#789,#790);
#708=AXIS2_PLACEMENT_3D('',#983,#791,#792);
#709=AXIS2_PLACEMENT_3D('',#985,#793,#794);
#710=AXIS2_PLACEMENT_3D('',#987,#795,#796);
#711=AXIS2_PLACEMENT_3D('',#989,#797,#798);
#712=AXIS2_PLACEMENT_3D('',#991,#799,#800);
#713=AXIS2_PLACEMENT_3D('',#993,#801,#802);
#714=AXIS2_PLACEMENT_3D('',#995,#803,#804);
#715=AXIS2_PLACEMENT_3D('',#1000,#806,#807);
#716=AXIS2_PLACEMENT_3D('',#1003,#809,#810);
#717=AXIS2_PLACEMENT_3D('',#1016,#817,#818);
#718=AXIS2_PLACEMENT_3D('',#1022,#822,#823);
#719=AXIS2_PLACEMENT_3D('',#1028,#827,#828);
#720=AXIS2_PLACEMENT_3D('',#1036,#834,#835);
#721=AXIS2_PLACEMENT_3D('',#1050,#843,#844);
#722=AXIS2_PLACEMENT_3D('',#1051,#845,#846);
#723=AXIS2_PLACEMENT_3D('',#1053,#848,#849);
#724=AXIS2_PLACEMENT_3D('',#1054,#850,#851);
#725=AXIS2_PLACEMENT_3D('',#1056,#852,#853);
#726=AXIS2_PLACEMENT_3D('',#1058,#854,#855);
#727=AXIS2_PLACEMENT_3D('',#1060,#856,#857);
#728=AXIS2_PLACEMENT_3D('',#1062,#858,#859);
#729=AXIS2_PLACEMENT_3D('',#1064,#860,#861);
#730=AXIS2_PLACEMENT_3D('',#1067,#863,#864);
#731=AXIS2_PLACEMENT_3D('',#1069,#866,#867);
#732=AXIS2_PLACEMENT_3D('',#1070,#868,#869);
#733=AXIS2_PLACEMENT_3D('',#1072,#870,#871);
#734=AXIS2_PLACEMENT_3D('',#1074,#872,#873);
#735=AXIS2_PLACEMENT_3D('',#1076,#874,#875);
#736=AXIS2_PLACEMENT_3D('',#1078,#876,#877);
#737=AXIS2_PLACEMENT_3D('',#1080,#878,#879);
#738=AXIS2_PLACEMENT_3D('',#1083,#881,#882);
#739=AXIS2_PLACEMENT_3D('',#1089,#886,#887);
#740=AXIS2_PLACEMENT_3D('',#1095,#891,#892);
#741=AXIS2_PLACEMENT_3D('',#1097,#894,#895);
#742=AXIS2_PLACEMENT_3D('',#1099,#897,#898);
#743=AXIS2_PLACEMENT_3D('',#1100,#899,#900);
#744=AXIS2_PLACEMENT_3D('',#1101,#901,#902);
#745=AXIS2_PLACEMENT_3D('',#1102,#903,#904);
#746=AXIS2_PLACEMENT_3D('',#1103,#905,#906);
#747=AXIS2_PLACEMENT_3D('',#1104,#907,#908);
#748=AXIS2_PLACEMENT_3D('',#1105,#909,#910);
#749=AXIS2_PLACEMENT_3D('',#1106,#911,#912);
#750=AXIS2_PLACEMENT_3D('',#1107,#913,#914);
#751=AXIS2_PLACEMENT_3D('',#1108,#915,#916);
#752=AXIS2_PLACEMENT_3D('',#1109,#917,#918);
#753=AXIS2_PLACEMENT_3D('',#1110,#919,#920);
#754=AXIS2_PLACEMENT_3D('',#1111,#921,#922);
#755=AXIS2_PLACEMENT_3D('',#1112,#923,#924);
#756=AXIS2_PLACEMENT_3D('',#1113,#925,#926);
#757=AXIS2_PLACEMENT_3D('',#1115,#927,#928);
#758=AXIS2_PLACEMENT_3D('',#1117,#929,#930);
#759=AXIS2_PLACEMENT_3D('',#1124,#934,#935);
#760=AXIS2_PLACEMENT_3D('',#1125,#936,#937);
#761=AXIS2_PLACEMENT_3D('',#1127,#938,#939);
#762=AXIS2_PLACEMENT_3D('',#1129,#940,#941);
#763=AXIS2_PLACEMENT_3D('',#1136,#945,#946);
#764=AXIS2_PLACEMENT_3D('',#1137,#947,#948);
#765=AXIS2_PLACEMENT_3D('',#1138,#949,#950);
#766=AXIS2_PLACEMENT_3D('',#1139,#951,#952);
#767=AXIS2_PLACEMENT_3D('',#1140,#953,#954);
#768=AXIS2_PLACEMENT_3D('',#1141,#955,#956);
#769=AXIS2_PLACEMENT_3D('',#1142,#957,#958);
#770=AXIS2_PLACEMENT_3D('',#1143,#959,#960);
#771=DIRECTION('',(0.,0.,1.));
#772=DIRECTION('',(1.,0.,0.));
#773=DIRECTION('',(0.,0.,1.));
#774=DIRECTION('',(1.,0.,0.));
#775=DIRECTION('',(1.,0.,0.));
#776=DIRECTION('',(0.,1.,0.));
#777=DIRECTION('',(1.,0.,0.));
#778=DIRECTION('',(0.,1.,0.));
#779=DIRECTION('',(0.,0.,1.));
#780=DIRECTION('',(1.,0.,0.));
#781=DIRECTION('',(0.,0.,1.));
#782=DIRECTION('',(1.,0.,0.));
#783=DIRECTION('',(0.,0.,1.));
#784=DIRECTION('',(1.,0.,0.));
#785=DIRECTION('',(0.,0.,1.));
#786=DIRECTION('',(1.,0.,0.));
#787=DIRECTION('',(0.,0.,1.));
#788=DIRECTION('',(1.,0.,0.));
#789=DIRECTION('',(0.,0.,1.));
#790=DIRECTION('',(1.,0.,0.));
#791=DIRECTION('',(0.,0.,1.));
#792=DIRECTION('',(1.,0.,0.));
#793=DIRECTION('',(0.,0.,1.));
#794=DIRECTION('',(1.,0.,0.));
#795=DIRECTION('',(0.,0.,1.));
#796=DIRECTION('',(1.,0.,0.));
#797=DIRECTION('',(0.,0.,1.));
#798=DIRECTION('',(1.,0.,0.));
#799=DIRECTION('',(0.,0.,1.));
#800=DIRECTION('',(1.,0.,0.));
#801=DIRECTION('',(0.,0.,1.));
#802=DIRECTION('',(1.,0.,0.));
#803=DIRECTION('',(0.,0.,1.));
#804=DIRECTION('',(1.,0.,0.));
#805=DIRECTION('',(-1.,-1.36592399683213E-16,0.));
#806=DIRECTION('',(0.,0.,1.));
#807=DIRECTION('',(1.,0.,0.));
#808=DIRECTION('',(-1.,-1.36592399683213E-16,0.));
#809=DIRECTION('',(0.,-1.,0.));
#810=DIRECTION('',(0.,0.,-1.));
#811=DIRECTION('',(-1.,0.,0.));
#812=DIRECTION('',(0.,0.,-1.));
#813=DIRECTION('',(0.,0.,-1.));
#814=DIRECTION('',(-1.,0.,0.));
#815=DIRECTION('',(0.,0.,-1.));
#816=DIRECTION('',(0.,0.,-1.));
#817=DIRECTION('',(1.,-1.87814549564418E-16,0.));
#818=DIRECTION('',(1.87814549564418E-16,1.,0.));
#819=DIRECTION('',(-1.87814549564418E-16,-1.,0.));
#820=DIRECTION('',(0.,0.,-1.));
#821=DIRECTION('',(-1.87814549564418E-16,-1.,0.));
#822=DIRECTION('',(1.,-1.87814549564418E-16,0.));
#823=DIRECTION('',(1.87814549564418E-16,1.,0.));
#824=DIRECTION('',(-1.87814549564418E-16,-1.,0.));
#825=DIRECTION('',(-1.87814549564418E-16,-1.,0.));
#826=DIRECTION('',(0.,0.,-1.));
#827=DIRECTION('',(0.,1.,0.));
#828=DIRECTION('',(0.,0.,1.));
#829=DIRECTION('',(0.,0.,-1.));
#830=DIRECTION('',(1.,5.46369598732852E-16,0.));
#831=DIRECTION('',(1.,0.,0.));
#832=DIRECTION('',(-1.,5.46369598732852E-16,0.));
#833=DIRECTION('',(0.,0.,-1.));
#834=DIRECTION('',(0.,1.,0.));
#835=DIRECTION('',(0.,0.,1.));
#836=DIRECTION('',(1.,0.,0.));
#837=DIRECTION('',(0.,0.,-1.));
#838=DIRECTION('',(1.,0.,0.));
#839=DIRECTION('',(0.,0.,-1.));
#840=DIRECTION('',(-1.,0.,0.));
#841=DIRECTION('',(0.,0.,-1.));
#842=DIRECTION('',(0.,0.,-1.));
#843=DIRECTION('',(0.,0.,1.));
#844=DIRECTION('',(1.,0.,0.));
#845=DIRECTION('',(-1.,0.,0.));
#846=DIRECTION('',(0.,0.,1.));
#847=DIRECTION('',(0.,1.,0.));
#848=DIRECTION('',(0.,0.,1.));
#849=DIRECTION('',(1.,0.,0.));
#850=DIRECTION('',(0.,0.,1.));
#851=DIRECTION('',(1.,0.,0.));
#852=DIRECTION('',(0.,0.,1.));
#853=DIRECTION('',(1.,0.,0.));
#854=DIRECTION('',(0.,0.,1.));
#855=DIRECTION('',(1.,0.,0.));
#856=DIRECTION('',(0.,0.,1.));
#857=DIRECTION('',(1.,0.,0.));
#858=DIRECTION('',(0.,0.,1.));
#859=DIRECTION('',(1.,0.,0.));
#860=DIRECTION('',(0.,0.,1.));
#861=DIRECTION('',(1.,0.,0.));
#862=DIRECTION('',(-1.87814549564418E-16,-1.,0.));
#863=DIRECTION('',(-1.,0.,0.));
#864=DIRECTION('',(0.,0.,1.));
#865=DIRECTION('',(0.,1.,0.));
#866=DIRECTION('',(0.,0.,1.));
#867=DIRECTION('',(1.,0.,0.));
#868=DIRECTION('',(0.,0.,1.));
#869=DIRECTION('',(1.,0.,0.));
#870=DIRECTION('',(0.,0.,1.));
#871=DIRECTION('',(1.,0.,0.));
#872=DIRECTION('',(0.,0.,1.));
#873=DIRECTION('',(1.,0.,0.));
#874=DIRECTION('',(0.,0.,1.));
#875=DIRECTION('',(1.,0.,0.));
#876=DIRECTION('',(0.,0.,1.));
#877=DIRECTION('',(1.,0.,0.));
#878=DIRECTION('',(0.,0.,1.));
#879=DIRECTION('',(1.,0.,0.));
#880=DIRECTION('',(-1.87814549564418E-16,-1.,0.));
#881=DIRECTION('',(1.,-1.87814549564418E-16,0.));
#882=DIRECTION('',(1.87814549564418E-16,1.,0.));
#883=DIRECTION('',(0.,-1.,0.));
#884=DIRECTION('',(0.,0.,-1.));
#885=DIRECTION('',(-1.87814549564418E-16,-1.,0.));
#886=DIRECTION('',(1.,-1.87814549564418E-16,0.));
#887=DIRECTION('',(1.87814549564418E-16,1.,0.));
#888=DIRECTION('',(-1.87814549564418E-16,-1.,0.));
#889=DIRECTION('',(0.,0.,-1.));
#890=DIRECTION('',(0.,-1.,0.));
#891=DIRECTION('',(0.,0.,1.));
#892=DIRECTION('',(1.,0.,0.));
#893=DIRECTION('',(-1.,0.,0.));
#894=DIRECTION('',(0.,0.,1.));
#895=DIRECTION('',(1.,0.,0.));
#896=DIRECTION('',(-1.,0.,0.));
#897=DIRECTION('',(0.,1.,0.));
#898=DIRECTION('',(0.,0.,1.));
#899=DIRECTION('',(0.,0.,1.));
#900=DIRECTION('',(1.,0.,0.));
#901=DIRECTION('',(0.,0.,1.));
#902=DIRECTION('',(1.,0.,0.));
#903=DIRECTION('',(0.,0.,1.));
#904=DIRECTION('',(1.,0.,0.));
#905=DIRECTION('',(0.,0.,1.));
#906=DIRECTION('',(1.,0.,0.));
#907=DIRECTION('',(0.,0.,1.));
#908=DIRECTION('',(1.,0.,0.));
#909=DIRECTION('',(0.,0.,1.));
#910=DIRECTION('',(1.,0.,0.));
#911=DIRECTION('',(0.,0.,1.));
#912=DIRECTION('',(1.,0.,0.));
#913=DIRECTION('',(0.,0.,1.));
#914=DIRECTION('',(1.,0.,0.));
#915=DIRECTION('',(0.,0.,1.));
#916=DIRECTION('',(1.,0.,0.));
#917=DIRECTION('',(0.,0.,1.));
#918=DIRECTION('',(1.,0.,0.));
#919=DIRECTION('',(0.,0.,1.));
#920=DIRECTION('',(1.,0.,0.));
#921=DIRECTION('',(0.,0.,1.));
#922=DIRECTION('',(1.,0.,0.));
#923=DIRECTION('',(-1.36592399683213E-16,1.,0.));
#924=DIRECTION('',(-1.,-1.36592399683213E-16,0.));
#925=DIRECTION('',(-1.36592399683213E-16,1.,0.));
#926=DIRECTION('',(-1.,-1.36592399683213E-16,0.));
#927=DIRECTION('',(-1.36592399683213E-16,1.,0.));
#928=DIRECTION('',(-1.,-1.36592399683213E-16,0.));
#929=DIRECTION('',(-1.36592399683213E-16,1.,0.));
#930=DIRECTION('',(-1.,-1.36592399683213E-16,0.));
#931=DIRECTION('',(-1.,-1.36592399683213E-16,0.));
#932=DIRECTION('',(0.,0.,1.));
#933=DIRECTION('',(0.,0.,1.));
#934=DIRECTION('',(-1.36592399683213E-16,1.,0.));
#935=DIRECTION('',(-1.,-1.36592399683213E-16,0.));
#936=DIRECTION('',(-1.36592399683213E-16,1.,0.));
#937=DIRECTION('',(-1.,-1.36592399683213E-16,0.));
#938=DIRECTION('',(-1.36592399683213E-16,1.,0.));
#939=DIRECTION('',(-1.,-1.36592399683213E-16,0.));
#940=DIRECTION('',(-1.36592399683213E-16,1.,0.));
#941=DIRECTION('',(-1.,-1.36592399683213E-16,0.));
#942=DIRECTION('',(0.,0.,1.));
#943=DIRECTION('',(-1.,-1.36592399683213E-16,0.));
#944=DIRECTION('',(0.,0.,1.));
#945=DIRECTION('',(0.,0.,1.));
#946=DIRECTION('',(1.,0.,0.));
#947=DIRECTION('',(0.,0.,1.));
#948=DIRECTION('',(1.,0.,0.));
#949=DIRECTION('',(0.,0.,1.));
#950=DIRECTION('',(1.,0.,0.));
#951=DIRECTION('',(-1.36592399683213E-16,1.,0.));
#952=DIRECTION('',(-1.,-1.36592399683213E-16,0.));
#953=DIRECTION('',(-1.36592399683213E-16,1.,0.));
#954=DIRECTION('',(-1.,-1.36592399683213E-16,0.));
#955=DIRECTION('',(-1.36592399683213E-16,1.,0.));
#956=DIRECTION('',(-1.,-1.36592399683213E-16,0.));
#957=DIRECTION('',(0.,0.,-1.));
#958=DIRECTION('',(-1.,0.,0.));
#959=DIRECTION('',(0.,0.,-1.));
#960=DIRECTION('',(-1.,0.,0.));
#961=CARTESIAN_POINT('',(0.,0.,0.));
#962=CARTESIAN_POINT('',(0.,0.,0.));
#963=CARTESIAN_POINT('',(8.67361737988404E-18,0.0508,0.));
#964=CARTESIAN_POINT('',(-0.0254,0.0508,0.));
#965=CARTESIAN_POINT('',(0.0254,0.0508,0.));
#966=CARTESIAN_POINT('',(0.0254,0.,0.));
#967=CARTESIAN_POINT('',(0.0254,-0.0508,0.));
#968=CARTESIAN_POINT('',(-1.04083408558608E-17,-0.0508,0.));
#969=CARTESIAN_POINT('',(-0.0254,-0.0508,0.));
#970=CARTESIAN_POINT('',(-0.0254,0.,0.));
#971=CARTESIAN_POINT('',(-0.01905,0.04445,0.));
#972=CARTESIAN_POINT('',(-0.0157861,0.04445,0.));
#973=CARTESIAN_POINT('',(0.01905,-0.01651,0.));
#974=CARTESIAN_POINT('',(0.0223139,-0.01651,0.));
#975=CARTESIAN_POINT('',(-0.01905,-0.03175,0.));
#976=CARTESIAN_POINT('',(-0.0157861,-0.03175,0.));
#977=CARTESIAN_POINT('',(0.01905,-0.03175,0.));
#978=CARTESIAN_POINT('',(0.0223139,-0.03175,0.));
#979=CARTESIAN_POINT('',(-0.01905,0.01397,0.));
#980=CARTESIAN_POINT('',(-0.0157861,0.01397,0.));
#981=CARTESIAN_POINT('',(0.01905,0.02921,0.));
#982=CARTESIAN_POINT('',(0.0223139,0.02921,0.));
#983=CARTESIAN_POINT('',(-0.01905,0.02921,0.));
#984=CARTESIAN_POINT('',(-0.0157861,0.02921,0.));
#985=CARTESIAN_POINT('',(0.01905,0.04445,0.));
#986=CARTESIAN_POINT('',(0.0223139,0.04445,0.));
#987=CARTESIAN_POINT('',(-0.01905,-0.01651,0.));
#988=CARTESIAN_POINT('',(-0.0157861,-0.01651,0.));
#989=CARTESIAN_POINT('',(0.01905,-0.00127,0.));
#990=CARTESIAN_POINT('',(0.0223139,-0.00127,0.));
#991=CARTESIAN_POINT('',(-0.01905,-0.00127,0.));
#992=CARTESIAN_POINT('',(-0.0157861,-0.00127,0.));
#993=CARTESIAN_POINT('',(0.01905,0.01397,0.));
#994=CARTESIAN_POINT('',(0.0223139,0.01397,0.));
#995=CARTESIAN_POINT('',(0.009525,-3.85185988877447E-34,0.));
#996=CARTESIAN_POINT('',(0.009525,-0.003175,0.));
#997=CARTESIAN_POINT('',(0.009525,0.003175,0.));
#998=CARTESIAN_POINT('',(0.,0.003175,0.));
#999=CARTESIAN_POINT('',(-0.009525,0.003175,0.));
#1000=CARTESIAN_POINT('',(-0.009525,-1.73472347597681E-18,0.));
#1001=CARTESIAN_POINT('',(-0.009525,-0.003175,0.));
#1002=CARTESIAN_POINT('',(1.7347234759768E-18,-0.003175,0.));
#1003=CARTESIAN_POINT('',(-1.04083408558608E-17,-0.04445,0.08255));
#1004=CARTESIAN_POINT('',(-1.04083408558608E-17,-0.04445,0.0762));
#1005=CARTESIAN_POINT('',(0.0127,-0.04445,0.0762));
#1006=CARTESIAN_POINT('',(-0.0127,-0.04445,0.0762));
#1007=CARTESIAN_POINT('',(0.0127,-0.04445,0.08255));
#1008=CARTESIAN_POINT('',(0.0127,-0.04445,0.0063754));
#1009=CARTESIAN_POINT('',(0.0127,-0.04445,0.08255));
#1010=CARTESIAN_POINT('',(0.0127,-0.04445,0.00635));
#1011=CARTESIAN_POINT('',(-1.04083408558608E-17,-0.04445,0.00635));
#1012=CARTESIAN_POINT('',(-0.0127,-0.04445,0.00635));
#1013=CARTESIAN_POINT('',(-0.0127,-0.04445,0.0063754));
#1014=CARTESIAN_POINT('',(-0.0127,-0.04445,0.0063754));
#1015=CARTESIAN_POINT('',(-0.0127,-0.04445,0.08255));
#1016=CARTESIAN_POINT('',(0.0127,6.93889390390723E-18,0.0063754));
#1017=CARTESIAN_POINT('',(0.0127,6.93889390390723E-18,0.0063754));
#1018=CARTESIAN_POINT('',(0.0127,0.0508,0.0063754));
#1019=CARTESIAN_POINT('',(0.0127,0.0508,0.0063754));
#1020=CARTESIAN_POINT('',(0.0127,0.0508,0.00635));
#1021=CARTESIAN_POINT('',(0.0127,6.93889390390723E-18,0.00635));
#1022=CARTESIAN_POINT('',(-0.0127,6.93889390390723E-18,0.0063754));
#1023=CARTESIAN_POINT('',(-0.0127,6.93889390390723E-18,0.0063754));
#1024=CARTESIAN_POINT('',(-0.0127,0.0508,0.0063754));
#1025=CARTESIAN_POINT('',(-0.0127,6.93889390390723E-18,0.00635));
#1026=CARTESIAN_POINT('',(-0.0127,0.0508,0.00635));
#1027=CARTESIAN_POINT('',(-0.0127,0.0508,0.0063754));
#1028=CARTESIAN_POINT('',(8.67361737988404E-18,0.0508,0.00635));
#1029=CARTESIAN_POINT('',(-0.0254,0.0508,0.0063754));
#1030=CARTESIAN_POINT('',(-0.0254,0.0508,0.0063754));
#1031=CARTESIAN_POINT('',(-0.01905,0.0508,0.0063754));
#1032=CARTESIAN_POINT('',(8.67361737988404E-18,0.0508,0.00635));
#1033=CARTESIAN_POINT('',(0.01905,0.0508,0.0063754));
#1034=CARTESIAN_POINT('',(0.0254,0.0508,0.0063754));
#1035=CARTESIAN_POINT('',(0.0254,0.0508,0.0063754));
#1036=CARTESIAN_POINT('',(-1.04083408558608E-17,-0.0508,0.00635));
#1037=CARTESIAN_POINT('',(0.01905,-0.0508,0.0063754));
#1038=CARTESIAN_POINT('',(0.0127,-0.0508,0.0063754));
#1039=CARTESIAN_POINT('',(0.0254,-0.0508,0.0063754));
#1040=CARTESIAN_POINT('',(0.0127,-0.0508,0.08255));
#1041=CARTESIAN_POINT('',(0.0127,-0.0508,0.08255));
#1042=CARTESIAN_POINT('',(-1.04083408558608E-17,-0.0508,0.08255));
#1043=CARTESIAN_POINT('',(-0.0127,-0.0508,0.08255));
#1044=CARTESIAN_POINT('',(-0.0127,-0.0508,0.08255));
#1045=CARTESIAN_POINT('',(-0.0127,-0.0508,0.0063754));
#1046=CARTESIAN_POINT('',(-0.01905,-0.0508,0.0063754));
#1047=CARTESIAN_POINT('',(-0.0254,-0.0508,0.0063754));
#1048=CARTESIAN_POINT('',(-0.0254,-0.0508,0.0063754));
#1049=CARTESIAN_POINT('',(0.0254,-0.0508,0.0063754));
#1050=CARTESIAN_POINT('',(0.,0.,0.00635));
#1051=CARTESIAN_POINT('',(0.0254,0.,0.0063754));
#1052=CARTESIAN_POINT('',(0.0254,0.,0.0063754));
#1053=CARTESIAN_POINT('',(0.,0.,0.0063754));
#1054=CARTESIAN_POINT('',(0.01905,0.01397,0.0063754));
#1055=CARTESIAN_POINT('',(0.0223139,0.01397,0.0063754));
#1056=CARTESIAN_POINT('',(0.01905,-0.00127,0.0063754));
#1057=CARTESIAN_POINT('',(0.0223139,-0.00127,0.0063754));
#1058=CARTESIAN_POINT('',(0.01905,0.04445,0.0063754));
#1059=CARTESIAN_POINT('',(0.0223139,0.04445,0.0063754));
#1060=CARTESIAN_POINT('',(0.01905,0.02921,0.0063754));
#1061=CARTESIAN_POINT('',(0.0223139,0.02921,0.0063754));
#1062=CARTESIAN_POINT('',(0.01905,-0.03175,0.0063754));
#1063=CARTESIAN_POINT('',(0.0223139,-0.03175,0.0063754));
#1064=CARTESIAN_POINT('',(0.01905,-0.01651,0.0063754));
#1065=CARTESIAN_POINT('',(0.0223139,-0.01651,0.0063754));
#1066=CARTESIAN_POINT('',(0.0127,6.93889390390723E-18,0.0063754));
#1067=CARTESIAN_POINT('',(-0.0254,0.,0.0063754));
#1068=CARTESIAN_POINT('',(-0.0254,0.,0.0063754));
#1069=CARTESIAN_POINT('',(0.,0.,0.0063754));
#1070=CARTESIAN_POINT('',(-0.01905,-0.00127,0.0063754));
#1071=CARTESIAN_POINT('',(-0.0157861,-0.00127,0.0063754));
#1072=CARTESIAN_POINT('',(-0.01905,-0.01651,0.0063754));
#1073=CARTESIAN_POINT('',(-0.0157861,-0.01651,0.0063754));
#1074=CARTESIAN_POINT('',(-0.01905,0.02921,0.0063754));
#1075=CARTESIAN_POINT('',(-0.0157861,0.02921,0.0063754));
#1076=CARTESIAN_POINT('',(-0.01905,0.01397,0.0063754));
#1077=CARTESIAN_POINT('',(-0.0157861,0.01397,0.0063754));
#1078=CARTESIAN_POINT('',(-0.01905,-0.03175,0.0063754));
#1079=CARTESIAN_POINT('',(-0.0157861,-0.03175,0.0063754));
#1080=CARTESIAN_POINT('',(-0.01905,0.04445,0.0063754));
#1081=CARTESIAN_POINT('',(-0.0157861,0.04445,0.0063754));
#1082=CARTESIAN_POINT('',(-0.0127,6.93889390390723E-18,0.0063754));
#1083=CARTESIAN_POINT('',(0.0127,6.93889390390723E-18,0.08255));
#1084=CARTESIAN_POINT('',(0.0127,0.050802,0.0762));
#1085=CARTESIAN_POINT('',(0.0127,0.0508,0.0762));
#1086=CARTESIAN_POINT('',(0.0127,0.0508,0.08255));
#1087=CARTESIAN_POINT('',(0.0127,0.0508,0.08255));
#1088=CARTESIAN_POINT('',(0.0127,6.93889390390723E-18,0.08255));
#1089=CARTESIAN_POINT('',(-0.0127,6.93889390390723E-18,0.08255));
#1090=CARTESIAN_POINT('',(-0.0127,6.93889390390723E-18,0.08255));
#1091=CARTESIAN_POINT('',(-0.0127,0.0508,0.08255));
#1092=CARTESIAN_POINT('',(-0.0127,0.0508,0.08255));
#1093=CARTESIAN_POINT('',(-0.0127,0.0508,0.0762));
#1094=CARTESIAN_POINT('',(-0.0127,0.050802,0.0762));
#1095=CARTESIAN_POINT('',(0.,0.,0.08255));
#1096=CARTESIAN_POINT('',(-1.04083408558608E-17,0.0508,0.08255));
#1097=CARTESIAN_POINT('',(-1.04083408558608E-17,0.050802,0.0762));
#1098=CARTESIAN_POINT('',(-1.04083408558608E-17,0.0508,0.0762));
#1099=CARTESIAN_POINT('',(8.67361737988404E-18,0.0508,0.00635));
#1100=CARTESIAN_POINT('',(-0.01905,0.04445,0.));
#1101=CARTESIAN_POINT('',(-0.01905,-0.03175,0.));
#1102=CARTESIAN_POINT('',(-0.01905,0.01397,0.));
#1103=CARTESIAN_POINT('',(-0.01905,0.02921,0.));
#1104=CARTESIAN_POINT('',(-0.01905,-0.01651,0.));
#1105=CARTESIAN_POINT('',(-0.01905,-0.00127,0.));
#1106=CARTESIAN_POINT('',(0.01905,-0.01651,0.));
#1107=CARTESIAN_POINT('',(0.01905,-0.03175,0.));
#1108=CARTESIAN_POINT('',(0.01905,0.02921,0.));
#1109=CARTESIAN_POINT('',(0.01905,0.04445,0.));
#1110=CARTESIAN_POINT('',(0.01905,-0.00127,0.));
#1111=CARTESIAN_POINT('',(0.01905,0.01397,0.));
#1112=CARTESIAN_POINT('',(1.7347234759768E-18,-0.003175,-0.0254));
#1113=CARTESIAN_POINT('',(5.65678479467916E-19,-0.003175,-0.00508));
#1114=CARTESIAN_POINT('',(-0.0032639,-0.003175,-0.00508));
#1115=CARTESIAN_POINT('',(7.83375792978755E-20,-0.003175,-0.0127));
#1116=CARTESIAN_POINT('',(-0.0032639,-0.003175,-0.0127));
#1117=CARTESIAN_POINT('',(-3.90312782094781E-18,-0.003175,-0.02032));
#1118=CARTESIAN_POINT('',(-0.0032639,-0.003175,-0.02032));
#1119=CARTESIAN_POINT('',(1.7347234759768E-18,-0.003175,-0.0254));
#1120=CARTESIAN_POINT('',(0.009525,-0.003175,-0.0254));
#1121=CARTESIAN_POINT('',(-0.009525,-0.003175,-0.0254));
#1122=CARTESIAN_POINT('',(0.009525,-0.003175,-0.0254));
#1123=CARTESIAN_POINT('',(-0.009525,-0.003175,-0.0254));
#1124=CARTESIAN_POINT('',(0.,0.003175,-0.0254));
#1125=CARTESIAN_POINT('',(-3.0168325852049E-19,0.003175,-0.00508));
#1126=CARTESIAN_POINT('',(-0.0032639,0.003175,-0.00508));
#1127=CARTESIAN_POINT('',(-7.8902415869053E-19,0.003175,-0.0127));
#1128=CARTESIAN_POINT('',(-0.0032639,0.003175,-0.0127));
#1129=CARTESIAN_POINT('',(-4.77048955893622E-18,0.003175,-0.02032));
#1130=CARTESIAN_POINT('',(-0.0032639,0.003175,-0.02032));
#1131=CARTESIAN_POINT('',(0.009525,0.003175,-0.0254));
#1132=CARTESIAN_POINT('',(0.009525,0.003175,-0.0254));
#1133=CARTESIAN_POINT('',(0.,0.003175,-0.0254));
#1134=CARTESIAN_POINT('',(-0.009525,0.003175,-0.0254));
#1135=CARTESIAN_POINT('',(-0.009525,0.003175,-0.0254));
#1136=CARTESIAN_POINT('',(0.,0.,-0.0254));
#1137=CARTESIAN_POINT('',(0.009525,8.67361737988404E-19,-0.0254));
#1138=CARTESIAN_POINT('',(-0.009525,-2.60208521396521E-18,-0.0254));
#1139=CARTESIAN_POINT('',(-3.90312782094781E-18,-0.003175,-0.02032));
#1140=CARTESIAN_POINT('',(7.83375792978736E-20,-0.003175,-0.0127));
#1141=CARTESIAN_POINT('',(5.65678479467914E-19,-0.003175,-0.00508));
#1142=CARTESIAN_POINT('',(0.009525,8.67361737988404E-19,-0.0254));
#1143=CARTESIAN_POINT('',(-0.009525,-2.60208521396521E-18,-0.0254));
#1144=MECHANICAL_DESIGN_GEOMETRIC_PRESENTATION_REPRESENTATION('',(#689),
#1145);
#1145=(
GEOMETRIC_REPRESENTATION_CONTEXT(3)
GLOBAL_UNCERTAINTY_ASSIGNED_CONTEXT((#1146))
GLOBAL_UNIT_ASSIGNED_CONTEXT((#1149,#1148,#1147))
REPRESENTATION_CONTEXT('Clip Wheel','TOP_LEVEL_ASSEMBLY_PART')
);
#1146=UNCERTAINTY_MEASURE_WITH_UNIT(LENGTH_MEASURE(1.E-8),#1149,
'DISTANCE_ACCURACY_VALUE','Maximum Tolerance applied to model');
#1147=(
NAMED_UNIT(*)
SI_UNIT($,.STERADIAN.)
SOLID_ANGLE_UNIT()
);
#1148=(
NAMED_UNIT(*)
PLANE_ANGLE_UNIT()
SI_UNIT($,.RADIAN.)
);
#1149=(
LENGTH_UNIT()
NAMED_UNIT(*)
SI_UNIT($,.METRE.)
);
#1150=PRODUCT_DEFINITION_SHAPE('','',#1151);
#1151=PRODUCT_DEFINITION('','',#1153,#1152);
#1152=PRODUCT_DEFINITION_CONTEXT('',#1159,'design');
#1153=PRODUCT_DEFINITION_FORMATION_WITH_SPECIFIED_SOURCE('','',#1155,
 .NOT_KNOWN.);
#1154=PRODUCT_RELATED_PRODUCT_CATEGORY('','',(#1155));
#1155=PRODUCT('Clip Wheel','Clip Wheel','Clip Wheel',(#1157));
#1156=PRODUCT_CATEGORY('','');
#1157=PRODUCT_CONTEXT('',#1159,'mechanical');
#1158=APPLICATION_PROTOCOL_DEFINITION('international standard',
'ap242_managed_model_based_3d_engineering',2020,#1159);
#1159=APPLICATION_CONTEXT('managed model based 3d engineering');
ENDSEC;
END-ISO-10303-21;
