ISO-10303-21;
HEADER;
/* Generated by software containing ST-Developer
 * from STEP Tools, Inc. (www.steptools.com) 
 */
/* OPTION: using custom renumber hook */

FILE_DESCRIPTION(
/* description */ ('STEP AP242 Edition 2',
'CAx-IF Rec.Pracs.---Representation and Presentation of Product Manufa
cturing Information (PMI)---4.0---2014-10-13',
'CAx-IF Rec.Pracs.---3D Tessellated Geometry---0.4---2014-09-14','2;1',
'CAx-IF Rec.Pracs.---User Defined Attributes---1.5---2016-08-15'),
/* implementation_level */ '2;1');

FILE_NAME(
/* name */ 'Wheel',
/* time_stamp */ '2026-08-06T20:25:24Z',
/* author */ (''),
/* organization */ (''),
/* preprocessor_version */ 'ST-DEVELOPER v20',
/* originating_system */ 'ONSHAPE BY PTC INC, 1.218',
/* authorisation */ '  ');

FILE_SCHEMA (('AP242_MANAGED_MODEL_BASED_3D_ENGINEERING_MIM_LF { 1 0 10303 442 3 1 4 }'));
ENDSEC;

DATA;
#10=LINE('',#967,#46);
#11=LINE('',#970,#47);
#12=LINE('',#972,#48);
#13=LINE('',#974,#49);
#14=LINE('',#1008,#50);
#15=LINE('',#1011,#51);
#16=LINE('',#1013,#52);
#17=LINE('',#1015,#53);
#18=LINE('',#1017,#54);
#19=LINE('',#1020,#55);
#20=LINE('',#1021,#56);
#21=LINE('',#1023,#57);
#22=LINE('',#1025,#58);
#23=LINE('',#1027,#59);
#24=LINE('',#1029,#60);
#25=LINE('',#1063,#61);
#26=LINE('',#1081,#62);
#27=LINE('',#1084,#63);
#28=LINE('',#1086,#64);
#29=LINE('',#1088,#65);
#30=LINE('',#1090,#66);
#31=LINE('',#1092,#67);
#32=LINE('',#1094,#68);
#33=LINE('',#1096,#69);
#34=LINE('',#1097,#70);
#35=LINE('',#1099,#71);
#36=LINE('',#1101,#72);
#37=LINE('',#1103,#73);
#38=LINE('',#1105,#74);
#39=LINE('',#1107,#75);
#40=LINE('',#1108,#76);
#41=LINE('',#1110,#77);
#42=LINE('',#1111,#78);
#43=LINE('',#1113,#79);
#44=LINE('',#1118,#80);
#45=LINE('',#1123,#81);
#46=VECTOR('',#786,1.);
#47=VECTOR('',#787,1.);
#48=VECTOR('',#788,1.);
#49=VECTOR('',#789,1.);
#50=VECTOR('',#824,1.);
#51=VECTOR('',#825,1.);
#52=VECTOR('',#826,1.);
#53=VECTOR('',#827,1.);
#54=VECTOR('',#830,1.);
#55=VECTOR('',#831,1.);
#56=VECTOR('',#832,1.);
#57=VECTOR('',#835,1.);
#58=VECTOR('',#836,1.);
#59=VECTOR('',#839,1.);
#60=VECTOR('',#840,1.);
#61=VECTOR('',#875,1.);
#62=VECTOR('',#910,1.);
#63=VECTOR('',#911,1.);
#64=VECTOR('',#912,1.);
#65=VECTOR('',#913,1.);
#66=VECTOR('',#916,1.);
#67=VECTOR('',#917,1.);
#68=VECTOR('',#918,1.);
#69=VECTOR('',#919,1.);
#70=VECTOR('',#920,1.);
#71=VECTOR('',#921,1.);
#72=VECTOR('',#924,1.);
#73=VECTOR('',#925,1.);
#74=VECTOR('',#926,1.);
#75=VECTOR('',#929,1.);
#76=VECTOR('',#930,1.);
#77=VECTOR('',#931,1.);
#78=VECTOR('',#932,1.);
#79=VECTOR('',#933,1.);
#80=VECTOR('',#940,1.);
#81=VECTOR('',#947,1.);
#82=SHAPE_REPRESENTATION_RELATIONSHIP('','',#686,#84);
#83=SHAPE_REPRESENTATION_RELATIONSHIP('','',#687,#85);
#84=ADVANCED_BREP_SHAPE_REPRESENTATION('',(#682),#1128);
#85=ADVANCED_BREP_SHAPE_REPRESENTATION('',(#683),#1129);
#86=PLANE('',#695);
#87=PLANE('',#696);
#88=PLANE('',#698);
#89=PLANE('',#699);
#90=PLANE('',#716);
#91=PLANE('',#717);
#92=PLANE('',#718);
#93=PLANE('',#719);
#94=PLANE('',#752);
#95=PLANE('',#753);
#96=PLANE('',#754);
#97=PLANE('',#755);
#98=PLANE('',#756);
#99=PLANE('',#757);
#100=PLANE('',#759);
#101=PLANE('',#760);
#102=PLANE('',#762);
#103=ORIENTED_EDGE('',*,*,#251,.F.);
#104=ORIENTED_EDGE('',*,*,#252,.T.);
#105=ORIENTED_EDGE('',*,*,#253,.T.);
#106=ORIENTED_EDGE('',*,*,#254,.F.);
#107=ORIENTED_EDGE('',*,*,#251,.T.);
#108=ORIENTED_EDGE('',*,*,#253,.F.);
#109=ORIENTED_EDGE('',*,*,#252,.F.);
#110=ORIENTED_EDGE('',*,*,#254,.T.);
#111=ORIENTED_EDGE('',*,*,#255,.F.);
#112=ORIENTED_EDGE('',*,*,#256,.T.);
#113=ORIENTED_EDGE('',*,*,#257,.T.);
#114=ORIENTED_EDGE('',*,*,#258,.T.);
#115=ORIENTED_EDGE('',*,*,#259,.F.);
#116=ORIENTED_EDGE('',*,*,#260,.F.);
#117=ORIENTED_EDGE('',*,*,#261,.F.);
#118=ORIENTED_EDGE('',*,*,#262,.F.);
#119=ORIENTED_EDGE('',*,*,#263,.F.);
#120=ORIENTED_EDGE('',*,*,#264,.F.);
#121=ORIENTED_EDGE('',*,*,#265,.F.);
#122=ORIENTED_EDGE('',*,*,#266,.F.);
#123=ORIENTED_EDGE('',*,*,#267,.F.);
#124=ORIENTED_EDGE('',*,*,#268,.F.);
#125=ORIENTED_EDGE('',*,*,#269,.F.);
#126=ORIENTED_EDGE('',*,*,#270,.F.);
#127=ORIENTED_EDGE('',*,*,#271,.F.);
#128=ORIENTED_EDGE('',*,*,#272,.F.);
#129=ORIENTED_EDGE('',*,*,#273,.F.);
#130=ORIENTED_EDGE('',*,*,#274,.F.);
#131=ORIENTED_EDGE('',*,*,#275,.F.);
#132=ORIENTED_EDGE('',*,*,#276,.T.);
#133=ORIENTED_EDGE('',*,*,#277,.F.);
#134=ORIENTED_EDGE('',*,*,#278,.T.);
#135=ORIENTED_EDGE('',*,*,#279,.F.);
#136=ORIENTED_EDGE('',*,*,#280,.F.);
#137=ORIENTED_EDGE('',*,*,#277,.T.);
#138=ORIENTED_EDGE('',*,*,#281,.T.);
#139=ORIENTED_EDGE('',*,*,#282,.T.);
#140=ORIENTED_EDGE('',*,*,#283,.F.);
#141=ORIENTED_EDGE('',*,*,#278,.F.);
#142=ORIENTED_EDGE('',*,*,#280,.T.);
#143=ORIENTED_EDGE('',*,*,#284,.F.);
#144=ORIENTED_EDGE('',*,*,#285,.F.);
#145=ORIENTED_EDGE('',*,*,#275,.T.);
#146=ORIENTED_EDGE('',*,*,#283,.T.);
#147=ORIENTED_EDGE('',*,*,#286,.T.);
#148=ORIENTED_EDGE('',*,*,#287,.T.);
#149=ORIENTED_EDGE('',*,*,#288,.T.);
#150=ORIENTED_EDGE('',*,*,#289,.T.);
#151=ORIENTED_EDGE('',*,*,#290,.T.);
#152=ORIENTED_EDGE('',*,*,#291,.T.);
#153=ORIENTED_EDGE('',*,*,#292,.T.);
#154=ORIENTED_EDGE('',*,*,#293,.T.);
#155=ORIENTED_EDGE('',*,*,#294,.T.);
#156=ORIENTED_EDGE('',*,*,#295,.T.);
#157=ORIENTED_EDGE('',*,*,#296,.T.);
#158=ORIENTED_EDGE('',*,*,#297,.T.);
#159=ORIENTED_EDGE('',*,*,#298,.T.);
#160=ORIENTED_EDGE('',*,*,#299,.T.);
#161=ORIENTED_EDGE('',*,*,#300,.T.);
#162=ORIENTED_EDGE('',*,*,#301,.T.);
#163=ORIENTED_EDGE('',*,*,#279,.T.);
#164=ORIENTED_EDGE('',*,*,#302,.T.);
#165=ORIENTED_EDGE('',*,*,#284,.T.);
#166=ORIENTED_EDGE('',*,*,#282,.F.);
#167=ORIENTED_EDGE('',*,*,#274,.T.);
#168=ORIENTED_EDGE('',*,*,#301,.F.);
#169=ORIENTED_EDGE('',*,*,#273,.T.);
#170=ORIENTED_EDGE('',*,*,#300,.F.);
#171=ORIENTED_EDGE('',*,*,#272,.T.);
#172=ORIENTED_EDGE('',*,*,#299,.F.);
#173=ORIENTED_EDGE('',*,*,#271,.T.);
#174=ORIENTED_EDGE('',*,*,#298,.F.);
#175=ORIENTED_EDGE('',*,*,#270,.T.);
#176=ORIENTED_EDGE('',*,*,#297,.F.);
#177=ORIENTED_EDGE('',*,*,#269,.T.);
#178=ORIENTED_EDGE('',*,*,#296,.F.);
#179=ORIENTED_EDGE('',*,*,#268,.T.);
#180=ORIENTED_EDGE('',*,*,#295,.F.);
#181=ORIENTED_EDGE('',*,*,#267,.T.);
#182=ORIENTED_EDGE('',*,*,#294,.F.);
#183=ORIENTED_EDGE('',*,*,#266,.T.);
#184=ORIENTED_EDGE('',*,*,#293,.F.);
#185=ORIENTED_EDGE('',*,*,#265,.T.);
#186=ORIENTED_EDGE('',*,*,#292,.F.);
#187=ORIENTED_EDGE('',*,*,#264,.T.);
#188=ORIENTED_EDGE('',*,*,#291,.F.);
#189=ORIENTED_EDGE('',*,*,#263,.T.);
#190=ORIENTED_EDGE('',*,*,#290,.F.);
#191=ORIENTED_EDGE('',*,*,#262,.T.);
#192=ORIENTED_EDGE('',*,*,#289,.F.);
#193=ORIENTED_EDGE('',*,*,#261,.T.);
#194=ORIENTED_EDGE('',*,*,#288,.F.);
#195=ORIENTED_EDGE('',*,*,#260,.T.);
#196=ORIENTED_EDGE('',*,*,#287,.F.);
#197=ORIENTED_EDGE('',*,*,#259,.T.);
#198=ORIENTED_EDGE('',*,*,#286,.F.);
#199=ORIENTED_EDGE('',*,*,#303,.T.);
#200=ORIENTED_EDGE('',*,*,#304,.F.);
#201=ORIENTED_EDGE('',*,*,#305,.F.);
#202=ORIENTED_EDGE('',*,*,#306,.T.);
#203=ORIENTED_EDGE('',*,*,#307,.T.);
#204=ORIENTED_EDGE('',*,*,#308,.F.);
#205=ORIENTED_EDGE('',*,*,#309,.F.);
#206=ORIENTED_EDGE('',*,*,#310,.T.);
#207=ORIENTED_EDGE('',*,*,#256,.F.);
#208=ORIENTED_EDGE('',*,*,#311,.F.);
#209=ORIENTED_EDGE('',*,*,#312,.F.);
#210=ORIENTED_EDGE('',*,*,#304,.T.);
#211=ORIENTED_EDGE('',*,*,#313,.T.);
#212=ORIENTED_EDGE('',*,*,#314,.F.);
#213=ORIENTED_EDGE('',*,*,#315,.F.);
#214=ORIENTED_EDGE('',*,*,#308,.T.);
#215=ORIENTED_EDGE('',*,*,#316,.T.);
#216=ORIENTED_EDGE('',*,*,#306,.F.);
#217=ORIENTED_EDGE('',*,*,#317,.F.);
#218=ORIENTED_EDGE('',*,*,#318,.T.);
#219=ORIENTED_EDGE('',*,*,#258,.F.);
#220=ORIENTED_EDGE('',*,*,#319,.F.);
#221=ORIENTED_EDGE('',*,*,#320,.F.);
#222=ORIENTED_EDGE('',*,*,#314,.T.);
#223=ORIENTED_EDGE('',*,*,#281,.F.);
#224=ORIENTED_EDGE('',*,*,#276,.F.);
#225=ORIENTED_EDGE('',*,*,#285,.T.);
#226=ORIENTED_EDGE('',*,*,#302,.F.);
#227=ORIENTED_EDGE('',*,*,#303,.F.);
#228=ORIENTED_EDGE('',*,*,#316,.F.);
#229=ORIENTED_EDGE('',*,*,#313,.F.);
#230=ORIENTED_EDGE('',*,*,#307,.F.);
#231=ORIENTED_EDGE('',*,*,#321,.F.);
#232=ORIENTED_EDGE('',*,*,#257,.F.);
#233=ORIENTED_EDGE('',*,*,#310,.F.);
#234=ORIENTED_EDGE('',*,*,#322,.T.);
#235=ORIENTED_EDGE('',*,*,#319,.T.);
#236=ORIENTED_EDGE('',*,*,#322,.F.);
#237=ORIENTED_EDGE('',*,*,#309,.T.);
#238=ORIENTED_EDGE('',*,*,#315,.T.);
#239=ORIENTED_EDGE('',*,*,#320,.T.);
#240=ORIENTED_EDGE('',*,*,#323,.F.);
#241=ORIENTED_EDGE('',*,*,#255,.T.);
#242=ORIENTED_EDGE('',*,*,#318,.F.);
#243=ORIENTED_EDGE('',*,*,#324,.F.);
#244=ORIENTED_EDGE('',*,*,#311,.T.);
#245=ORIENTED_EDGE('',*,*,#312,.T.);
#246=ORIENTED_EDGE('',*,*,#324,.T.);
#247=ORIENTED_EDGE('',*,*,#317,.T.);
#248=ORIENTED_EDGE('',*,*,#305,.T.);
#249=ORIENTED_EDGE('',*,*,#321,.T.);
#250=ORIENTED_EDGE('',*,*,#323,.T.);
#251=EDGE_CURVE('',#325,#325,#387,.T.);
#252=EDGE_CURVE('',#326,#326,#388,.T.);
#253=EDGE_CURVE('',#327,#327,#389,.T.);
#254=EDGE_CURVE('',#328,#328,#390,.T.);
#255=EDGE_CURVE('',#329,#330,#10,.T.);
#256=EDGE_CURVE('',#329,#331,#11,.T.);
#257=EDGE_CURVE('',#331,#332,#12,.T.);
#258=EDGE_CURVE('',#332,#330,#13,.T.);
#259=EDGE_CURVE('',#333,#333,#391,.T.);
#260=EDGE_CURVE('',#334,#334,#392,.T.);
#261=EDGE_CURVE('',#335,#335,#393,.T.);
#262=EDGE_CURVE('',#336,#336,#394,.T.);
#263=EDGE_CURVE('',#337,#337,#395,.T.);
#264=EDGE_CURVE('',#338,#338,#396,.T.);
#265=EDGE_CURVE('',#339,#339,#397,.T.);
#266=EDGE_CURVE('',#340,#340,#398,.T.);
#267=EDGE_CURVE('',#341,#341,#399,.T.);
#268=EDGE_CURVE('',#342,#342,#400,.T.);
#269=EDGE_CURVE('',#343,#343,#401,.T.);
#270=EDGE_CURVE('',#344,#344,#402,.T.);
#271=EDGE_CURVE('',#345,#345,#403,.T.);
#272=EDGE_CURVE('',#346,#346,#404,.T.);
#273=EDGE_CURVE('',#347,#347,#405,.T.);
#274=EDGE_CURVE('',#348,#348,#406,.T.);
#275=EDGE_CURVE('',#349,#350,#14,.T.);
#276=EDGE_CURVE('',#349,#351,#15,.T.);
#277=EDGE_CURVE('',#352,#351,#16,.T.);
#278=EDGE_CURVE('',#352,#350,#17,.T.);
#279=EDGE_CURVE('',#353,#354,#18,.T.);
#280=EDGE_CURVE('',#352,#353,#19,.T.);
#281=EDGE_CURVE('',#351,#354,#20,.T.);
#282=EDGE_CURVE('',#353,#355,#21,.T.);
#283=EDGE_CURVE('',#350,#355,#22,.T.);
#284=EDGE_CURVE('',#356,#355,#23,.T.);
#285=EDGE_CURVE('',#349,#356,#24,.T.);
#286=EDGE_CURVE('',#357,#357,#407,.T.);
#287=EDGE_CURVE('',#358,#358,#408,.T.);
#288=EDGE_CURVE('',#359,#359,#409,.T.);
#289=EDGE_CURVE('',#360,#360,#410,.T.);
#290=EDGE_CURVE('',#361,#361,#411,.T.);
#291=EDGE_CURVE('',#362,#362,#412,.T.);
#292=EDGE_CURVE('',#363,#363,#413,.T.);
#293=EDGE_CURVE('',#364,#364,#414,.T.);
#294=EDGE_CURVE('',#365,#365,#415,.T.);
#295=EDGE_CURVE('',#366,#366,#416,.T.);
#296=EDGE_CURVE('',#367,#367,#417,.T.);
#297=EDGE_CURVE('',#368,#368,#418,.T.);
#298=EDGE_CURVE('',#369,#369,#419,.T.);
#299=EDGE_CURVE('',#370,#370,#420,.T.);
#300=EDGE_CURVE('',#371,#371,#421,.T.);
#301=EDGE_CURVE('',#372,#372,#422,.T.);
#302=EDGE_CURVE('',#354,#356,#25,.T.);
#303=EDGE_CURVE('',#373,#374,#26,.T.);
#304=EDGE_CURVE('',#375,#374,#27,.T.);
#305=EDGE_CURVE('',#376,#375,#28,.T.);
#306=EDGE_CURVE('',#376,#373,#29,.T.);
#307=EDGE_CURVE('',#374,#377,#30,.T.);
#308=EDGE_CURVE('',#378,#377,#31,.T.);
#309=EDGE_CURVE('',#379,#378,#32,.T.);
#310=EDGE_CURVE('',#379,#331,#33,.T.);
#311=EDGE_CURVE('',#380,#329,#34,.T.);
#312=EDGE_CURVE('',#375,#380,#35,.T.);
#313=EDGE_CURVE('',#377,#381,#36,.T.);
#314=EDGE_CURVE('',#382,#381,#37,.T.);
#315=EDGE_CURVE('',#378,#382,#38,.T.);
#316=EDGE_CURVE('',#381,#373,#39,.T.);
#317=EDGE_CURVE('',#383,#376,#40,.T.);
#318=EDGE_CURVE('',#383,#330,#41,.T.);
#319=EDGE_CURVE('',#384,#332,#42,.T.);
#320=EDGE_CURVE('',#382,#384,#43,.T.);
#321=EDGE_CURVE('',#385,#385,#423,.T.);
#322=EDGE_CURVE('',#379,#384,#44,.T.);
#323=EDGE_CURVE('',#386,#386,#424,.F.);
#324=EDGE_CURVE('',#380,#383,#45,.T.);
#325=VERTEX_POINT('',#955);
#326=VERTEX_POINT('',#957);
#327=VERTEX_POINT('',#960);
#328=VERTEX_POINT('',#962);
#329=VERTEX_POINT('',#968);
#330=VERTEX_POINT('',#969);
#331=VERTEX_POINT('',#971);
#332=VERTEX_POINT('',#973);
#333=VERTEX_POINT('',#977);
#334=VERTEX_POINT('',#979);
#335=VERTEX_POINT('',#981);
#336=VERTEX_POINT('',#983);
#337=VERTEX_POINT('',#985);
#338=VERTEX_POINT('',#987);
#339=VERTEX_POINT('',#989);
#340=VERTEX_POINT('',#991);
#341=VERTEX_POINT('',#993);
#342=VERTEX_POINT('',#995);
#343=VERTEX_POINT('',#997);
#344=VERTEX_POINT('',#999);
#345=VERTEX_POINT('',#1001);
#346=VERTEX_POINT('',#1003);
#347=VERTEX_POINT('',#1005);
#348=VERTEX_POINT('',#1007);
#349=VERTEX_POINT('',#1009);
#350=VERTEX_POINT('',#1010);
#351=VERTEX_POINT('',#1012);
#352=VERTEX_POINT('',#1014);
#353=VERTEX_POINT('',#1018);
#354=VERTEX_POINT('',#1019);
#355=VERTEX_POINT('',#1024);
#356=VERTEX_POINT('',#1028);
#357=VERTEX_POINT('',#1032);
#358=VERTEX_POINT('',#1034);
#359=VERTEX_POINT('',#1036);
#360=VERTEX_POINT('',#1038);
#361=VERTEX_POINT('',#1040);
#362=VERTEX_POINT('',#1042);
#363=VERTEX_POINT('',#1044);
#364=VERTEX_POINT('',#1046);
#365=VERTEX_POINT('',#1048);
#366=VERTEX_POINT('',#1050);
#367=VERTEX_POINT('',#1052);
#368=VERTEX_POINT('',#1054);
#369=VERTEX_POINT('',#1056);
#370=VERTEX_POINT('',#1058);
#371=VERTEX_POINT('',#1060);
#372=VERTEX_POINT('',#1062);
#373=VERTEX_POINT('',#1082);
#374=VERTEX_POINT('',#1083);
#375=VERTEX_POINT('',#1085);
#376=VERTEX_POINT('',#1087);
#377=VERTEX_POINT('',#1091);
#378=VERTEX_POINT('',#1093);
#379=VERTEX_POINT('',#1095);
#380=VERTEX_POINT('',#1098);
#381=VERTEX_POINT('',#1102);
#382=VERTEX_POINT('',#1104);
#383=VERTEX_POINT('',#1109);
#384=VERTEX_POINT('',#1112);
#385=VERTEX_POINT('',#1117);
#386=VERTEX_POINT('',#1122);
#387=CIRCLE('',#690,0.0127);
#388=CIRCLE('',#691,0.0127);
#389=CIRCLE('',#693,0.00508);
#390=CIRCLE('',#694,0.00508);
#391=CIRCLE('',#700,0.0032639);
#392=CIRCLE('',#701,0.0032639);
#393=CIRCLE('',#702,0.0032639);
#394=CIRCLE('',#703,0.0032639);
#395=CIRCLE('',#704,0.0032639);
#396=CIRCLE('',#705,0.0032639);
#397=CIRCLE('',#706,0.0032639);
#398=CIRCLE('',#707,0.0032639);
#399=CIRCLE('',#708,0.0032639);
#400=CIRCLE('',#709,0.0032639);
#401=CIRCLE('',#710,0.0032639);
#402=CIRCLE('',#711,0.0032639);
#403=CIRCLE('',#712,0.0032639);
#404=CIRCLE('',#713,0.0032639);
#405=CIRCLE('',#714,0.0032639);
#406=CIRCLE('',#715,0.0032639);
#407=CIRCLE('',#720,0.0032639);
#408=CIRCLE('',#721,0.0032639);
#409=CIRCLE('',#722,0.0032639);
#410=CIRCLE('',#723,0.0032639);
#411=CIRCLE('',#724,0.0032639);
#412=CIRCLE('',#725,0.0032639);
#413=CIRCLE('',#726,0.0032639);
#414=CIRCLE('',#727,0.0032639);
#415=CIRCLE('',#728,0.0032639);
#416=CIRCLE('',#729,0.0032639);
#417=CIRCLE('',#730,0.0032639);
#418=CIRCLE('',#731,0.0032639);
#419=CIRCLE('',#732,0.0032639);
#420=CIRCLE('',#733,0.0032639);
#421=CIRCLE('',#734,0.0032639);
#422=CIRCLE('',#735,0.0032639);
#423=CIRCLE('',#758,0.003175);
#424=CIRCLE('',#761,0.003175);
#425=EDGE_LOOP('',(#103));
#426=EDGE_LOOP('',(#104));
#427=EDGE_LOOP('',(#105));
#428=EDGE_LOOP('',(#106));
#429=EDGE_LOOP('',(#107));
#430=EDGE_LOOP('',(#108));
#431=EDGE_LOOP('',(#109));
#432=EDGE_LOOP('',(#110));
#433=EDGE_LOOP('',(#111,#112,#113,#114));
#434=EDGE_LOOP('',(#115));
#435=EDGE_LOOP('',(#116));
#436=EDGE_LOOP('',(#117));
#437=EDGE_LOOP('',(#118));
#438=EDGE_LOOP('',(#119));
#439=EDGE_LOOP('',(#120));
#440=EDGE_LOOP('',(#121));
#441=EDGE_LOOP('',(#122));
#442=EDGE_LOOP('',(#123));
#443=EDGE_LOOP('',(#124));
#444=EDGE_LOOP('',(#125));
#445=EDGE_LOOP('',(#126));
#446=EDGE_LOOP('',(#127));
#447=EDGE_LOOP('',(#128));
#448=EDGE_LOOP('',(#129));
#449=EDGE_LOOP('',(#130));
#450=EDGE_LOOP('',(#131,#132,#133,#134));
#451=EDGE_LOOP('',(#135,#136,#137,#138));
#452=EDGE_LOOP('',(#139,#140,#141,#142));
#453=EDGE_LOOP('',(#143,#144,#145,#146));
#454=EDGE_LOOP('',(#147));
#455=EDGE_LOOP('',(#148));
#456=EDGE_LOOP('',(#149));
#457=EDGE_LOOP('',(#150));
#458=EDGE_LOOP('',(#151));
#459=EDGE_LOOP('',(#152));
#460=EDGE_LOOP('',(#153));
#461=EDGE_LOOP('',(#154));
#462=EDGE_LOOP('',(#155));
#463=EDGE_LOOP('',(#156));
#464=EDGE_LOOP('',(#157));
#465=EDGE_LOOP('',(#158));
#466=EDGE_LOOP('',(#159));
#467=EDGE_LOOP('',(#160));
#468=EDGE_LOOP('',(#161));
#469=EDGE_LOOP('',(#162));
#470=EDGE_LOOP('',(#163,#164,#165,#166));
#471=EDGE_LOOP('',(#167));
#472=EDGE_LOOP('',(#168));
#473=EDGE_LOOP('',(#169));
#474=EDGE_LOOP('',(#170));
#475=EDGE_LOOP('',(#171));
#476=EDGE_LOOP('',(#172));
#477=EDGE_LOOP('',(#173));
#478=EDGE_LOOP('',(#174));
#479=EDGE_LOOP('',(#175));
#480=EDGE_LOOP('',(#176));
#481=EDGE_LOOP('',(#177));
#482=EDGE_LOOP('',(#178));
#483=EDGE_LOOP('',(#179));
#484=EDGE_LOOP('',(#180));
#485=EDGE_LOOP('',(#181));
#486=EDGE_LOOP('',(#182));
#487=EDGE_LOOP('',(#183));
#488=EDGE_LOOP('',(#184));
#489=EDGE_LOOP('',(#185));
#490=EDGE_LOOP('',(#186));
#491=EDGE_LOOP('',(#187));
#492=EDGE_LOOP('',(#188));
#493=EDGE_LOOP('',(#189));
#494=EDGE_LOOP('',(#190));
#495=EDGE_LOOP('',(#191));
#496=EDGE_LOOP('',(#192));
#497=EDGE_LOOP('',(#193));
#498=EDGE_LOOP('',(#194));
#499=EDGE_LOOP('',(#195));
#500=EDGE_LOOP('',(#196));
#501=EDGE_LOOP('',(#197));
#502=EDGE_LOOP('',(#198));
#503=EDGE_LOOP('',(#199,#200,#201,#202));
#504=EDGE_LOOP('',(#203,#204,#205,#206,#207,#208,#209,#210));
#505=EDGE_LOOP('',(#211,#212,#213,#214));
#506=EDGE_LOOP('',(#215,#216,#217,#218,#219,#220,#221,#222));
#507=EDGE_LOOP('',(#223,#224,#225,#226));
#508=EDGE_LOOP('',(#227,#228,#229,#230));
#509=EDGE_LOOP('',(#231));
#510=EDGE_LOOP('',(#232,#233,#234,#235));
#511=EDGE_LOOP('',(#236,#237,#238,#239));
#512=EDGE_LOOP('',(#240));
#513=EDGE_LOOP('',(#241,#242,#243,#244));
#514=EDGE_LOOP('',(#245,#246,#247,#248));
#515=EDGE_LOOP('',(#249));
#516=EDGE_LOOP('',(#250));
#517=FACE_BOUND('',#425,.T.);
#518=FACE_BOUND('',#426,.T.);
#519=FACE_BOUND('',#427,.T.);
#520=FACE_BOUND('',#428,.T.);
#521=FACE_BOUND('',#429,.T.);
#522=FACE_BOUND('',#430,.T.);
#523=FACE_BOUND('',#431,.T.);
#524=FACE_BOUND('',#432,.T.);
#525=FACE_BOUND('',#433,.T.);
#526=FACE_BOUND('',#434,.T.);
#527=FACE_BOUND('',#435,.T.);
#528=FACE_BOUND('',#436,.T.);
#529=FACE_BOUND('',#437,.T.);
#530=FACE_BOUND('',#438,.T.);
#531=FACE_BOUND('',#439,.T.);
#532=FACE_BOUND('',#440,.T.);
#533=FACE_BOUND('',#441,.T.);
#534=FACE_BOUND('',#442,.T.);
#535=FACE_BOUND('',#443,.T.);
#536=FACE_BOUND('',#444,.T.);
#537=FACE_BOUND('',#445,.T.);
#538=FACE_BOUND('',#446,.T.);
#539=FACE_BOUND('',#447,.T.);
#540=FACE_BOUND('',#448,.T.);
#541=FACE_BOUND('',#449,.T.);
#542=FACE_BOUND('',#450,.T.);
#543=FACE_BOUND('',#451,.T.);
#544=FACE_BOUND('',#452,.T.);
#545=FACE_BOUND('',#453,.T.);
#546=FACE_BOUND('',#454,.T.);
#547=FACE_BOUND('',#455,.T.);
#548=FACE_BOUND('',#456,.T.);
#549=FACE_BOUND('',#457,.T.);
#550=FACE_BOUND('',#458,.T.);
#551=FACE_BOUND('',#459,.T.);
#552=FACE_BOUND('',#460,.T.);
#553=FACE_BOUND('',#461,.T.);
#554=FACE_BOUND('',#462,.T.);
#555=FACE_BOUND('',#463,.T.);
#556=FACE_BOUND('',#464,.T.);
#557=FACE_BOUND('',#465,.T.);
#558=FACE_BOUND('',#466,.T.);
#559=FACE_BOUND('',#467,.T.);
#560=FACE_BOUND('',#468,.T.);
#561=FACE_BOUND('',#469,.T.);
#562=FACE_BOUND('',#470,.T.);
#563=FACE_BOUND('',#471,.T.);
#564=FACE_BOUND('',#472,.T.);
#565=FACE_BOUND('',#473,.T.);
#566=FACE_BOUND('',#474,.T.);
#567=FACE_BOUND('',#475,.T.);
#568=FACE_BOUND('',#476,.T.);
#569=FACE_BOUND('',#477,.T.);
#570=FACE_BOUND('',#478,.T.);
#571=FACE_BOUND('',#479,.T.);
#572=FACE_BOUND('',#480,.T.);
#573=FACE_BOUND('',#481,.T.);
#574=FACE_BOUND('',#482,.T.);
#575=FACE_BOUND('',#483,.T.);
#576=FACE_BOUND('',#484,.T.);
#577=FACE_BOUND('',#485,.T.);
#578=FACE_BOUND('',#486,.T.);
#579=FACE_BOUND('',#487,.T.);
#580=FACE_BOUND('',#488,.T.);
#581=FACE_BOUND('',#489,.T.);
#582=FACE_BOUND('',#490,.T.);
#583=FACE_BOUND('',#491,.T.);
#584=FACE_BOUND('',#492,.T.);
#585=FACE_BOUND('',#493,.T.);
#586=FACE_BOUND('',#494,.T.);
#587=FACE_BOUND('',#495,.T.);
#588=FACE_BOUND('',#496,.T.);
#589=FACE_BOUND('',#497,.T.);
#590=FACE_BOUND('',#498,.T.);
#591=FACE_BOUND('',#499,.T.);
#592=FACE_BOUND('',#500,.T.);
#593=FACE_BOUND('',#501,.T.);
#594=FACE_BOUND('',#502,.T.);
#595=FACE_BOUND('',#503,.T.);
#596=FACE_BOUND('',#504,.T.);
#597=FACE_BOUND('',#505,.T.);
#598=FACE_BOUND('',#506,.T.);
#599=FACE_BOUND('',#507,.T.);
#600=FACE_BOUND('',#508,.T.);
#601=FACE_BOUND('',#509,.T.);
#602=FACE_BOUND('',#510,.T.);
#603=FACE_BOUND('',#511,.T.);
#604=FACE_BOUND('',#512,.T.);
#605=FACE_BOUND('',#513,.T.);
#606=FACE_BOUND('',#514,.T.);
#607=FACE_BOUND('',#515,.T.);
#608=FACE_BOUND('',#516,.T.);
#609=CYLINDRICAL_SURFACE('',#689,0.0127);
#610=CYLINDRICAL_SURFACE('',#692,0.00508);
#611=CYLINDRICAL_SURFACE('',#736,0.0032639);
#612=CYLINDRICAL_SURFACE('',#737,0.0032639);
#613=CYLINDRICAL_SURFACE('',#738,0.0032639);
#614=CYLINDRICAL_SURFACE('',#739,0.0032639);
#615=CYLINDRICAL_SURFACE('',#740,0.0032639);
#616=CYLINDRICAL_SURFACE('',#741,0.0032639);
#617=CYLINDRICAL_SURFACE('',#742,0.0032639);
#618=CYLINDRICAL_SURFACE('',#743,0.0032639);
#619=CYLINDRICAL_SURFACE('',#744,0.0032639);
#620=CYLINDRICAL_SURFACE('',#745,0.0032639);
#621=CYLINDRICAL_SURFACE('',#746,0.0032639);
#622=CYLINDRICAL_SURFACE('',#747,0.0032639);
#623=CYLINDRICAL_SURFACE('',#748,0.0032639);
#624=CYLINDRICAL_SURFACE('',#749,0.0032639);
#625=CYLINDRICAL_SURFACE('',#750,0.0032639);
#626=CYLINDRICAL_SURFACE('',#751,0.0032639);
#627=CYLINDRICAL_SURFACE('',#763,0.003175);
#628=ADVANCED_FACE('',(#517,#518),#609,.T.);
#629=ADVANCED_FACE('',(#519,#520),#610,.F.);
#630=ADVANCED_FACE('',(#521,#522),#86,.T.);
#631=ADVANCED_FACE('',(#523,#524),#87,.F.);
#632=ADVANCED_FACE('',(#525),#88,.T.);
#633=ADVANCED_FACE('',(#526,#527,#528,#529,#530,#531,#532,#533,#534,#535,
#536,#537,#538,#539,#540,#541,#542),#89,.T.);
#634=ADVANCED_FACE('',(#543),#90,.T.);
#635=ADVANCED_FACE('',(#544),#91,.F.);
#636=ADVANCED_FACE('',(#545),#92,.T.);
#637=ADVANCED_FACE('',(#546,#547,#548,#549,#550,#551,#552,#553,#554,#555,
#556,#557,#558,#559,#560,#561,#562),#93,.F.);
#638=ADVANCED_FACE('',(#563,#564),#611,.F.);
#639=ADVANCED_FACE('',(#565,#566),#612,.F.);
#640=ADVANCED_FACE('',(#567,#568),#613,.F.);
#641=ADVANCED_FACE('',(#569,#570),#614,.F.);
#642=ADVANCED_FACE('',(#571,#572),#615,.F.);
#643=ADVANCED_FACE('',(#573,#574),#616,.F.);
#644=ADVANCED_FACE('',(#575,#576),#617,.F.);
#645=ADVANCED_FACE('',(#577,#578),#618,.F.);
#646=ADVANCED_FACE('',(#579,#580),#619,.F.);
#647=ADVANCED_FACE('',(#581,#582),#620,.F.);
#648=ADVANCED_FACE('',(#583,#584),#621,.F.);
#649=ADVANCED_FACE('',(#585,#586),#622,.F.);
#650=ADVANCED_FACE('',(#587,#588),#623,.F.);
#651=ADVANCED_FACE('',(#589,#590),#624,.F.);
#652=ADVANCED_FACE('',(#591,#592),#625,.F.);
#653=ADVANCED_FACE('',(#593,#594),#626,.F.);
#654=ADVANCED_FACE('',(#595),#94,.F.);
#655=ADVANCED_FACE('',(#596),#95,.F.);
#656=ADVANCED_FACE('',(#597),#96,.F.);
#657=ADVANCED_FACE('',(#598),#97,.F.);
#658=ADVANCED_FACE('',(#599,#600),#98,.F.);
#659=ADVANCED_FACE('',(#601,#602),#99,.T.);
#660=ADVANCED_FACE('',(#603),#100,.T.);
#661=ADVANCED_FACE('',(#604,#605),#101,.F.);
#662=ADVANCED_FACE('',(#606),#102,.T.);
#663=ADVANCED_FACE('',(#607,#608),#627,.T.);
#664=CLOSED_SHELL('',(#628,#629,#630,#631));
#665=CLOSED_SHELL('',(#632,#633,#634,#635,#636,#637,#638,#639,#640,#641,
#642,#643,#644,#645,#646,#647,#648,#649,#650,#651,#652,#653,#654,#655,#656,
#657,#658,#659,#660,#661,#662,#663));
#666=STYLED_ITEM('',(#668),#682);
#667=STYLED_ITEM('',(#669),#683);
#668=PRESENTATION_STYLE_ASSIGNMENT((#670));
#669=PRESENTATION_STYLE_ASSIGNMENT((#671));
#670=SURFACE_STYLE_USAGE(.BOTH.,#672);
#671=SURFACE_STYLE_USAGE(.BOTH.,#673);
#672=SURFACE_SIDE_STYLE('',(#674));
#673=SURFACE_SIDE_STYLE('',(#675));
#674=SURFACE_STYLE_FILL_AREA(#676);
#675=SURFACE_STYLE_FILL_AREA(#677);
#676=FILL_AREA_STYLE('',(#678));
#677=FILL_AREA_STYLE('',(#679));
#678=FILL_AREA_STYLE_COLOUR('',#680);
#679=FILL_AREA_STYLE_COLOUR('',#681);
#680=COLOUR_RGB('',0.647058823529412,0.647058823529412,0.647058823529412);
#681=COLOUR_RGB('',0.615686274509804,0.811764705882353,0.929411764705882);
#682=MANIFOLD_SOLID_BREP('Part 2',#664);
#683=MANIFOLD_SOLID_BREP('Part 1',#665);
#684=SHAPE_DEFINITION_REPRESENTATION(#1138,#686);
#685=SHAPE_DEFINITION_REPRESENTATION(#1139,#687);
#686=SHAPE_REPRESENTATION('Part 2',(#688),#1128);
#687=SHAPE_REPRESENTATION('Part 1',(#697),#1129);
#688=AXIS2_PLACEMENT_3D('',#952,#764,#765);
#689=AXIS2_PLACEMENT_3D('',#953,#766,#767);
#690=AXIS2_PLACEMENT_3D('',#954,#768,#769);
#691=AXIS2_PLACEMENT_3D('',#956,#770,#771);
#692=AXIS2_PLACEMENT_3D('',#958,#772,#773);
#693=AXIS2_PLACEMENT_3D('',#959,#774,#775);
#694=AXIS2_PLACEMENT_3D('',#961,#776,#777);
#695=AXIS2_PLACEMENT_3D('',#963,#778,#779);
#696=AXIS2_PLACEMENT_3D('',#964,#780,#781);
#697=AXIS2_PLACEMENT_3D('',#965,#782,#783);
#698=AXIS2_PLACEMENT_3D('',#966,#784,#785);
#699=AXIS2_PLACEMENT_3D('',#975,#790,#791);
#700=AXIS2_PLACEMENT_3D('',#976,#792,#793);
#701=AXIS2_PLACEMENT_3D('',#978,#794,#795);
#702=AXIS2_PLACEMENT_3D('',#980,#796,#797);
#703=AXIS2_PLACEMENT_3D('',#982,#798,#799);
#704=AXIS2_PLACEMENT_3D('',#984,#800,#801);
#705=AXIS2_PLACEMENT_3D('',#986,#802,#803);
#706=AXIS2_PLACEMENT_3D('',#988,#804,#805);
#707=AXIS2_PLACEMENT_3D('',#990,#806,#807);
#708=AXIS2_PLACEMENT_3D('',#992,#808,#809);
#709=AXIS2_PLACEMENT_3D('',#994,#810,#811);
#710=AXIS2_PLACEMENT_3D('',#996,#812,#813);
#711=AXIS2_PLACEMENT_3D('',#998,#814,#815);
#712=AXIS2_PLACEMENT_3D('',#1000,#816,#817);
#713=AXIS2_PLACEMENT_3D('',#1002,#818,#819);
#714=AXIS2_PLACEMENT_3D('',#1004,#820,#821);
#715=AXIS2_PLACEMENT_3D('',#1006,#822,#823);
#716=AXIS2_PLACEMENT_3D('',#1016,#828,#829);
#717=AXIS2_PLACEMENT_3D('',#1022,#833,#834);
#718=AXIS2_PLACEMENT_3D('',#1026,#837,#838);
#719=AXIS2_PLACEMENT_3D('',#1030,#841,#842);
#720=AXIS2_PLACEMENT_3D('',#1031,#843,#844);
#721=AXIS2_PLACEMENT_3D('',#1033,#845,#846);
#722=AXIS2_PLACEMENT_3D('',#1035,#847,#848);
#723=AXIS2_PLACEMENT_3D('',#1037,#849,#850);
#724=AXIS2_PLACEMENT_3D('',#1039,#851,#852);
#725=AXIS2_PLACEMENT_3D('',#1041,#853,#854);
#726=AXIS2_PLACEMENT_3D('',#1043,#855,#856);
#727=AXIS2_PLACEMENT_3D('',#1045,#857,#858);
#728=AXIS2_PLACEMENT_3D('',#1047,#859,#860);
#729=AXIS2_PLACEMENT_3D('',#1049,#861,#862);
#730=AXIS2_PLACEMENT_3D('',#1051,#863,#864);
#731=AXIS2_PLACEMENT_3D('',#1053,#865,#866);
#732=AXIS2_PLACEMENT_3D('',#1055,#867,#868);
#733=AXIS2_PLACEMENT_3D('',#1057,#869,#870);
#734=AXIS2_PLACEMENT_3D('',#1059,#871,#872);
#735=AXIS2_PLACEMENT_3D('',#1061,#873,#874);
#736=AXIS2_PLACEMENT_3D('',#1064,#876,#877);
#737=AXIS2_PLACEMENT_3D('',#1065,#878,#879);
#738=AXIS2_PLACEMENT_3D('',#1066,#880,#881);
#739=AXIS2_PLACEMENT_3D('',#1067,#882,#883);
#740=AXIS2_PLACEMENT_3D('',#1068,#884,#885);
#741=AXIS2_PLACEMENT_3D('',#1069,#886,#887);
#742=AXIS2_PLACEMENT_3D('',#1070,#888,#889);
#743=AXIS2_PLACEMENT_3D('',#1071,#890,#891);
#744=AXIS2_PLACEMENT_3D('',#1072,#892,#893);
#745=AXIS2_PLACEMENT_3D('',#1073,#894,#895);
#746=AXIS2_PLACEMENT_3D('',#1074,#896,#897);
#747=AXIS2_PLACEMENT_3D('',#1075,#898,#899);
#748=AXIS2_PLACEMENT_3D('',#1076,#900,#901);
#749=AXIS2_PLACEMENT_3D('',#1077,#902,#903);
#750=AXIS2_PLACEMENT_3D('',#1078,#904,#905);
#751=AXIS2_PLACEMENT_3D('',#1079,#906,#907);
#752=AXIS2_PLACEMENT_3D('',#1080,#908,#909);
#753=AXIS2_PLACEMENT_3D('',#1089,#914,#915);
#754=AXIS2_PLACEMENT_3D('',#1100,#922,#923);
#755=AXIS2_PLACEMENT_3D('',#1106,#927,#928);
#756=AXIS2_PLACEMENT_3D('',#1114,#934,#935);
#757=AXIS2_PLACEMENT_3D('',#1115,#936,#937);
#758=AXIS2_PLACEMENT_3D('',#1116,#938,#939);
#759=AXIS2_PLACEMENT_3D('',#1119,#941,#942);
#760=AXIS2_PLACEMENT_3D('',#1120,#943,#944);
#761=AXIS2_PLACEMENT_3D('',#1121,#945,#946);
#762=AXIS2_PLACEMENT_3D('',#1124,#948,#949);
#763=AXIS2_PLACEMENT_3D('',#1125,#950,#951);
#764=DIRECTION('',(0.,0.,1.));
#765=DIRECTION('',(1.,0.,0.));
#766=DIRECTION('',(0.,0.,-1.));
#767=DIRECTION('',(-1.,0.,0.));
#768=DIRECTION('',(0.,0.,1.));
#769=DIRECTION('',(1.,0.,0.));
#770=DIRECTION('',(0.,0.,1.));
#771=DIRECTION('',(1.,0.,0.));
#772=DIRECTION('',(0.,0.,-1.));
#773=DIRECTION('',(-1.,0.,0.));
#774=DIRECTION('',(0.,0.,1.));
#775=DIRECTION('',(1.,0.,0.));
#776=DIRECTION('',(0.,0.,1.));
#777=DIRECTION('',(1.,0.,0.));
#778=DIRECTION('',(0.,0.,1.));
#779=DIRECTION('',(1.,0.,0.));
#780=DIRECTION('',(0.,0.,1.));
#781=DIRECTION('',(1.,0.,0.));
#782=DIRECTION('',(0.,0.,1.));
#783=DIRECTION('',(1.,0.,0.));
#784=DIRECTION('',(1.,0.,0.));
#785=DIRECTION('',(0.,1.,0.));
#786=DIRECTION('',(0.,1.,0.));
#787=DIRECTION('',(0.,0.,-1.));
#788=DIRECTION('',(0.,1.,0.));
#789=DIRECTION('',(0.,0.,1.));
#790=DIRECTION('',(0.,-1.,0.));
#791=DIRECTION('',(1.,0.,0.));
#792=DIRECTION('',(0.,-1.,0.));
#793=DIRECTION('',(0.,0.,-1.));
#794=DIRECTION('',(0.,-1.,0.));
#795=DIRECTION('',(0.,0.,-1.));
#796=DIRECTION('',(0.,-1.,0.));
#797=DIRECTION('',(0.,0.,-1.));
#798=DIRECTION('',(0.,-1.,0.));
#799=DIRECTION('',(0.,0.,-1.));
#800=DIRECTION('',(0.,-1.,0.));
#801=DIRECTION('',(0.,0.,-1.));
#802=DIRECTION('',(0.,-1.,0.));
#803=DIRECTION('',(0.,0.,-1.));
#804=DIRECTION('',(0.,-1.,0.));
#805=DIRECTION('',(0.,0.,-1.));
#806=DIRECTION('',(0.,-1.,0.));
#807=DIRECTION('',(0.,0.,-1.));
#808=DIRECTION('',(0.,-1.,0.));
#809=DIRECTION('',(0.,0.,-1.));
#810=DIRECTION('',(0.,-1.,0.));
#811=DIRECTION('',(0.,0.,-1.));
#812=DIRECTION('',(0.,-1.,0.));
#813=DIRECTION('',(0.,0.,-1.));
#814=DIRECTION('',(0.,-1.,0.));
#815=DIRECTION('',(0.,0.,-1.));
#816=DIRECTION('',(0.,-1.,0.));
#817=DIRECTION('',(0.,0.,-1.));
#818=DIRECTION('',(0.,-1.,0.));
#819=DIRECTION('',(0.,0.,-1.));
#820=DIRECTION('',(0.,-1.,0.));
#821=DIRECTION('',(0.,0.,-1.));
#822=DIRECTION('',(0.,-1.,0.));
#823=DIRECTION('',(0.,0.,-1.));
#824=DIRECTION('',(-1.,0.,0.));
#825=DIRECTION('',(0.,0.,1.));
#826=DIRECTION('',(1.,0.,0.));
#827=DIRECTION('',(0.,0.,-1.));
#828=DIRECTION('',(0.,0.,1.));
#829=DIRECTION('',(1.,0.,0.));
#830=DIRECTION('',(1.,0.,0.));
#831=DIRECTION('',(0.,1.,0.));
#832=DIRECTION('',(0.,1.,0.));
#833=DIRECTION('',(1.,0.,0.));
#834=DIRECTION('',(0.,0.,-1.));
#835=DIRECTION('',(0.,0.,-1.));
#836=DIRECTION('',(0.,1.,0.));
#837=DIRECTION('',(0.,0.,-1.));
#838=DIRECTION('',(-1.,0.,0.));
#839=DIRECTION('',(-1.,0.,0.));
#840=DIRECTION('',(0.,1.,0.));
#841=DIRECTION('',(0.,-1.,0.));
#842=DIRECTION('',(1.,0.,0.));
#843=DIRECTION('',(0.,-1.,0.));
#844=DIRECTION('',(0.,0.,-1.));
#845=DIRECTION('',(0.,-1.,0.));
#846=DIRECTION('',(0.,0.,-1.));
#847=DIRECTION('',(0.,-1.,0.));
#848=DIRECTION('',(0.,0.,-1.));
#849=DIRECTION('',(0.,-1.,0.));
#850=DIRECTION('',(0.,0.,-1.));
#851=DIRECTION('',(0.,-1.,0.));
#852=DIRECTION('',(0.,0.,-1.));
#853=DIRECTION('',(0.,-1.,0.));
#854=DIRECTION('',(0.,0.,-1.));
#855=DIRECTION('',(0.,-1.,0.));
#856=DIRECTION('',(0.,0.,-1.));
#857=DIRECTION('',(0.,-1.,0.));
#858=DIRECTION('',(0.,0.,-1.));
#859=DIRECTION('',(0.,-1.,0.));
#860=DIRECTION('',(0.,0.,-1.));
#861=DIRECTION('',(0.,-1.,0.));
#862=DIRECTION('',(0.,0.,-1.));
#863=DIRECTION('',(0.,-1.,0.));
#864=DIRECTION('',(0.,0.,-1.));
#865=DIRECTION('',(0.,-1.,0.));
#866=DIRECTION('',(0.,0.,-1.));
#867=DIRECTION('',(0.,-1.,0.));
#868=DIRECTION('',(0.,0.,-1.));
#869=DIRECTION('',(0.,-1.,0.));
#870=DIRECTION('',(0.,0.,-1.));
#871=DIRECTION('',(0.,-1.,0.));
#872=DIRECTION('',(0.,0.,-1.));
#873=DIRECTION('',(0.,-1.,0.));
#874=DIRECTION('',(0.,0.,-1.));
#875=DIRECTION('',(0.,0.,-1.));
#876=DIRECTION('',(0.,-1.,0.));
#877=DIRECTION('',(0.,0.,-1.));
#878=DIRECTION('',(0.,-1.,0.));
#879=DIRECTION('',(0.,0.,-1.));
#880=DIRECTION('',(0.,-1.,0.));
#881=DIRECTION('',(0.,0.,-1.));
#882=DIRECTION('',(0.,-1.,0.));
#883=DIRECTION('',(0.,0.,-1.));
#884=DIRECTION('',(0.,-1.,0.));
#885=DIRECTION('',(0.,0.,-1.));
#886=DIRECTION('',(0.,-1.,0.));
#887=DIRECTION('',(0.,0.,-1.));
#888=DIRECTION('',(0.,-1.,0.));
#889=DIRECTION('',(0.,0.,-1.));
#890=DIRECTION('',(0.,-1.,0.));
#891=DIRECTION('',(0.,0.,-1.));
#892=DIRECTION('',(0.,-1.,0.));
#893=DIRECTION('',(0.,0.,-1.));
#894=DIRECTION('',(0.,-1.,0.));
#895=DIRECTION('',(0.,0.,-1.));
#896=DIRECTION('',(0.,-1.,0.));
#897=DIRECTION('',(0.,0.,-1.));
#898=DIRECTION('',(0.,-1.,0.));
#899=DIRECTION('',(0.,0.,-1.));
#900=DIRECTION('',(0.,-1.,0.));
#901=DIRECTION('',(0.,0.,-1.));
#902=DIRECTION('',(0.,-1.,0.));
#903=DIRECTION('',(0.,0.,-1.));
#904=DIRECTION('',(0.,-1.,0.));
#905=DIRECTION('',(0.,0.,-1.));
#906=DIRECTION('',(0.,-1.,0.));
#907=DIRECTION('',(0.,0.,-1.));
#908=DIRECTION('',(0.,0.,-1.));
#909=DIRECTION('',(-1.,0.,0.));
#910=DIRECTION('',(0.,-1.,0.));
#911=DIRECTION('',(-1.,0.,0.));
#912=DIRECTION('',(0.,-1.,0.));
#913=DIRECTION('',(-1.,0.,0.));
#914=DIRECTION('',(0.,1.,0.));
#915=DIRECTION('',(0.,0.,1.));
#916=DIRECTION('',(0.,0.,-1.));
#917=DIRECTION('',(-1.,0.,0.));
#918=DIRECTION('',(0.,0.,-1.));
#919=DIRECTION('',(-1.,0.,0.));
#920=DIRECTION('',(-1.,0.,0.));
#921=DIRECTION('',(0.,0.,-1.));
#922=DIRECTION('',(0.,0.,1.));
#923=DIRECTION('',(1.,0.,0.));
#924=DIRECTION('',(0.,1.,0.));
#925=DIRECTION('',(-1.,0.,0.));
#926=DIRECTION('',(0.,1.,0.));
#927=DIRECTION('',(0.,-1.,0.));
#928=DIRECTION('',(0.,0.,-1.));
#929=DIRECTION('',(0.,0.,1.));
#930=DIRECTION('',(0.,0.,1.));
#931=DIRECTION('',(-1.,0.,0.));
#932=DIRECTION('',(-1.,0.,0.));
#933=DIRECTION('',(0.,0.,1.));
#934=DIRECTION('',(1.,0.,0.));
#935=DIRECTION('',(0.,1.,0.));
#936=DIRECTION('',(0.,0.,1.));
#937=DIRECTION('',(1.,0.,0.));
#938=DIRECTION('',(0.,0.,1.));
#939=DIRECTION('',(1.,0.,0.));
#940=DIRECTION('',(0.,1.,0.));
#941=DIRECTION('',(1.,0.,0.));
#942=DIRECTION('',(0.,1.,0.));
#943=DIRECTION('',(0.,0.,1.));
#944=DIRECTION('',(1.,0.,0.));
#945=DIRECTION('',(0.,0.,1.));
#946=DIRECTION('',(1.,0.,0.));
#947=DIRECTION('',(0.,1.,0.));
#948=DIRECTION('',(1.,0.,0.));
#949=DIRECTION('',(0.,1.,0.));
#950=DIRECTION('',(0.,0.,-1.));
#951=DIRECTION('',(-1.,0.,0.));
#952=CARTESIAN_POINT('',(0.,0.,0.));
#953=CARTESIAN_POINT('',(0.05969,-0.003175,0.01016));
#954=CARTESIAN_POINT('',(0.05969,-0.003175,0.01016));
#955=CARTESIAN_POINT('',(0.07239,-0.003175,0.01016));
#956=CARTESIAN_POINT('',(0.05969,-0.003175,-0.01016));
#957=CARTESIAN_POINT('',(0.07239,-0.003175,-0.01016));
#958=CARTESIAN_POINT('',(0.05969,-0.003175,0.01016));
#959=CARTESIAN_POINT('',(0.05969,-0.003175,0.01016));
#960=CARTESIAN_POINT('',(0.06477,-0.003175,0.01016));
#961=CARTESIAN_POINT('',(0.05969,-0.003175,-0.01016));
#962=CARTESIAN_POINT('',(0.06477,-0.003175,-0.01016));
#963=CARTESIAN_POINT('',(0.05842,-0.003175,0.01016));
#964=CARTESIAN_POINT('',(0.05842,-0.003175,-0.01016));
#965=CARTESIAN_POINT('',(0.,0.,0.));
#966=CARTESIAN_POINT('',(0.04445,-0.003175,3.46944695195361E-18));
#967=CARTESIAN_POINT('',(0.04445,-0.003175,0.0127));
#968=CARTESIAN_POINT('',(0.04445,-0.0127,0.0127));
#969=CARTESIAN_POINT('',(0.04445,0.00635,0.0127));
#970=CARTESIAN_POINT('',(0.04445,-0.0127,3.46944695195361E-18));
#971=CARTESIAN_POINT('',(0.04445,-0.0127,-0.0127));
#972=CARTESIAN_POINT('',(0.04445,-0.003175,-0.0127));
#973=CARTESIAN_POINT('',(0.04445,0.00635,-0.0127));
#974=CARTESIAN_POINT('',(0.04445,0.00635,3.46944695195361E-18));
#975=CARTESIAN_POINT('',(1.38777878078145E-17,-0.00635,0.));
#976=CARTESIAN_POINT('',(-0.02286,-0.00635,-0.00635));
#977=CARTESIAN_POINT('',(-0.02286,-0.00635,-0.0096139));
#978=CARTESIAN_POINT('',(-0.0127,-0.00635,0.00635));
#979=CARTESIAN_POINT('',(-0.0127,-0.00635,0.0030861));
#980=CARTESIAN_POINT('',(-0.0127,-0.00635,-0.00635));
#981=CARTESIAN_POINT('',(-0.0127,-0.00635,-0.0096139));
#982=CARTESIAN_POINT('',(-0.00254,-0.00635,-0.00635));
#983=CARTESIAN_POINT('',(-0.00254,-0.00635,-0.0096139));
#984=CARTESIAN_POINT('',(-0.03302,-0.00635,-0.00635));
#985=CARTESIAN_POINT('',(-0.03302,-0.00635,-0.0096139));
#986=CARTESIAN_POINT('',(-0.04318,-0.00635,-0.00635));
#987=CARTESIAN_POINT('',(-0.04318,-0.00635,-0.0096139));
#988=CARTESIAN_POINT('',(-0.02286,-0.00635,0.00635));
#989=CARTESIAN_POINT('',(-0.02286,-0.00635,0.0030861));
#990=CARTESIAN_POINT('',(-0.03302,-0.00635,0.00635));
#991=CARTESIAN_POINT('',(-0.03302,-0.00635,0.0030861));
#992=CARTESIAN_POINT('',(0.02794,-0.00635,0.00635));
#993=CARTESIAN_POINT('',(0.02794,-0.00635,0.0030861));
#994=CARTESIAN_POINT('',(0.02794,-0.00635,-0.00635));
#995=CARTESIAN_POINT('',(0.02794,-0.00635,-0.0096139));
#996=CARTESIAN_POINT('',(0.01778,-0.00635,-0.00635));
#997=CARTESIAN_POINT('',(0.01778,-0.00635,-0.0096139));
#998=CARTESIAN_POINT('',(-0.00254,-0.00635,0.00635));
#999=CARTESIAN_POINT('',(-0.00254,-0.00635,0.0030861));
#1000=CARTESIAN_POINT('',(0.00762,-0.00635,0.00635));
#1001=CARTESIAN_POINT('',(0.00762,-0.00635,0.0030861));
#1002=CARTESIAN_POINT('',(0.00762,-0.00635,-0.00635));
#1003=CARTESIAN_POINT('',(0.00762,-0.00635,-0.0096139));
#1004=CARTESIAN_POINT('',(0.01778,-0.00635,0.00635));
#1005=CARTESIAN_POINT('',(0.01778,-0.00635,0.0030861));
#1006=CARTESIAN_POINT('',(-0.04318,-0.00635,0.00635));
#1007=CARTESIAN_POINT('',(-0.04318,-0.00635,0.0030861));
#1008=CARTESIAN_POINT('',(-0.0444789473682642,-0.00635,-0.0127));
#1009=CARTESIAN_POINT('',(0.0381,-0.00635,-0.0127));
#1010=CARTESIAN_POINT('',(-0.0508,-0.00635,-0.0127));
#1011=CARTESIAN_POINT('',(0.0381,-0.00635,0.));
#1012=CARTESIAN_POINT('',(0.0381,-0.00635,0.0127));
#1013=CARTESIAN_POINT('',(-2.89473682641809E-5,-0.00635,0.0127));
#1014=CARTESIAN_POINT('',(-0.0508,-0.00635,0.0127));
#1015=CARTESIAN_POINT('',(-0.0508,-0.00635,0.));
#1016=CARTESIAN_POINT('',(-2.89473682641809E-5,-0.00635,0.0127));
#1017=CARTESIAN_POINT('',(-2.89473682641809E-5,0.,0.0127));
#1018=CARTESIAN_POINT('',(-0.0508,0.,0.0127));
#1019=CARTESIAN_POINT('',(0.0381,0.,0.0127));
#1020=CARTESIAN_POINT('',(-0.0508,-0.00635,0.0127));
#1021=CARTESIAN_POINT('',(0.0381,-0.00635,0.0127));
#1022=CARTESIAN_POINT('',(-0.0508,-0.00635,0.));
#1023=CARTESIAN_POINT('',(-0.0508,0.,0.));
#1024=CARTESIAN_POINT('',(-0.0508,0.,-0.0127));
#1025=CARTESIAN_POINT('',(-0.0508,-0.00635,-0.0127));
#1026=CARTESIAN_POINT('',(-0.0444789473682642,-0.00635,-0.0127));
#1027=CARTESIAN_POINT('',(-0.0444789473682642,0.,-0.0127));
#1028=CARTESIAN_POINT('',(0.0381,0.,-0.0127));
#1029=CARTESIAN_POINT('',(0.0381,-0.00635,-0.0127));
#1030=CARTESIAN_POINT('',(1.38777878078145E-17,0.,0.));
#1031=CARTESIAN_POINT('',(-0.02286,0.,-0.00635));
#1032=CARTESIAN_POINT('',(-0.02286,0.,-0.0096139));
#1033=CARTESIAN_POINT('',(-0.0127,0.,0.00635));
#1034=CARTESIAN_POINT('',(-0.0127,0.,0.0030861));
#1035=CARTESIAN_POINT('',(-0.0127,0.,-0.00635));
#1036=CARTESIAN_POINT('',(-0.0127,0.,-0.0096139));
#1037=CARTESIAN_POINT('',(-0.00254,0.,-0.00635));
#1038=CARTESIAN_POINT('',(-0.00254,0.,-0.0096139));
#1039=CARTESIAN_POINT('',(-0.03302,0.,-0.00635));
#1040=CARTESIAN_POINT('',(-0.03302,0.,-0.0096139));
#1041=CARTESIAN_POINT('',(-0.04318,0.,-0.00635));
#1042=CARTESIAN_POINT('',(-0.04318,0.,-0.0096139));
#1043=CARTESIAN_POINT('',(-0.02286,0.,0.00635));
#1044=CARTESIAN_POINT('',(-0.02286,0.,0.0030861));
#1045=CARTESIAN_POINT('',(-0.03302,0.,0.00635));
#1046=CARTESIAN_POINT('',(-0.03302,0.,0.0030861));
#1047=CARTESIAN_POINT('',(0.02794,0.,0.00635));
#1048=CARTESIAN_POINT('',(0.02794,0.,0.0030861));
#1049=CARTESIAN_POINT('',(0.02794,0.,-0.00635));
#1050=CARTESIAN_POINT('',(0.02794,0.,-0.0096139));
#1051=CARTESIAN_POINT('',(0.01778,0.,-0.00635));
#1052=CARTESIAN_POINT('',(0.01778,0.,-0.0096139));
#1053=CARTESIAN_POINT('',(-0.00254,0.,0.00635));
#1054=CARTESIAN_POINT('',(-0.00254,0.,0.0030861));
#1055=CARTESIAN_POINT('',(0.00762,0.,0.00635));
#1056=CARTESIAN_POINT('',(0.00762,0.,0.0030861));
#1057=CARTESIAN_POINT('',(0.00762,0.,-0.00635));
#1058=CARTESIAN_POINT('',(0.00762,0.,-0.0096139));
#1059=CARTESIAN_POINT('',(0.01778,0.,0.00635));
#1060=CARTESIAN_POINT('',(0.01778,0.,0.0030861));
#1061=CARTESIAN_POINT('',(-0.04318,0.,0.00635));
#1062=CARTESIAN_POINT('',(-0.04318,0.,0.0030861));
#1063=CARTESIAN_POINT('',(0.0381,0.,0.));
#1064=CARTESIAN_POINT('',(-0.04318,0.,0.00635));
#1065=CARTESIAN_POINT('',(0.01778,0.,0.00635));
#1066=CARTESIAN_POINT('',(0.00762,0.,-0.00635));
#1067=CARTESIAN_POINT('',(0.00762,0.,0.00635));
#1068=CARTESIAN_POINT('',(-0.00254,0.,0.00635));
#1069=CARTESIAN_POINT('',(0.01778,0.,-0.00635));
#1070=CARTESIAN_POINT('',(0.02794,0.,-0.00635));
#1071=CARTESIAN_POINT('',(0.02794,0.,0.00635));
#1072=CARTESIAN_POINT('',(-0.03302,0.,0.00635));
#1073=CARTESIAN_POINT('',(-0.02286,0.,0.00635));
#1074=CARTESIAN_POINT('',(-0.04318,0.,-0.00635));
#1075=CARTESIAN_POINT('',(-0.03302,0.,-0.00635));
#1076=CARTESIAN_POINT('',(-0.00254,0.,-0.00635));
#1077=CARTESIAN_POINT('',(-0.0127,0.,-0.00635));
#1078=CARTESIAN_POINT('',(-0.0127,0.,0.00635));
#1079=CARTESIAN_POINT('',(-0.02286,0.,-0.00635));
#1080=CARTESIAN_POINT('',(0.04445,-0.003175,0.01905));
#1081=CARTESIAN_POINT('',(0.0381,-0.003175,0.01905));
#1082=CARTESIAN_POINT('',(0.0381,0.00635,0.01905));
#1083=CARTESIAN_POINT('',(0.0381,-0.0127,0.01905));
#1084=CARTESIAN_POINT('',(0.04445,-0.0127,0.01905));
#1085=CARTESIAN_POINT('',(0.0635,-0.0127,0.01905));
#1086=CARTESIAN_POINT('',(0.0635,-0.003175,0.01905));
#1087=CARTESIAN_POINT('',(0.0635,0.00635,0.01905));
#1088=CARTESIAN_POINT('',(0.04445,0.00635,0.01905));
#1089=CARTESIAN_POINT('',(0.04445,-0.0127,3.46944695195361E-18));
#1090=CARTESIAN_POINT('',(0.0381,-0.0127,3.46944695195361E-18));
#1091=CARTESIAN_POINT('',(0.0381,-0.0127,-0.01905));
#1092=CARTESIAN_POINT('',(0.04445,-0.0127,-0.01905));
#1093=CARTESIAN_POINT('',(0.0635,-0.0127,-0.01905));
#1094=CARTESIAN_POINT('',(0.0635,-0.0127,3.46944695195361E-18));
#1095=CARTESIAN_POINT('',(0.0635,-0.0127,-0.0127));
#1096=CARTESIAN_POINT('',(0.0635,-0.0127,-0.0127));
#1097=CARTESIAN_POINT('',(0.0635,-0.0127,0.0127));
#1098=CARTESIAN_POINT('',(0.0635,-0.0127,0.0127));
#1099=CARTESIAN_POINT('',(0.0635,-0.0127,3.46944695195361E-18));
#1100=CARTESIAN_POINT('',(0.04445,-0.003175,-0.01905));
#1101=CARTESIAN_POINT('',(0.0381,-0.003175,-0.01905));
#1102=CARTESIAN_POINT('',(0.0381,0.00635,-0.01905));
#1103=CARTESIAN_POINT('',(0.04445,0.00635,-0.01905));
#1104=CARTESIAN_POINT('',(0.0635,0.00635,-0.01905));
#1105=CARTESIAN_POINT('',(0.0635,-0.003175,-0.01905));
#1106=CARTESIAN_POINT('',(0.04445,0.00635,3.46944695195361E-18));
#1107=CARTESIAN_POINT('',(0.0381,0.00635,3.46944695195361E-18));
#1108=CARTESIAN_POINT('',(0.0635,0.00635,3.46944695195361E-18));
#1109=CARTESIAN_POINT('',(0.0635,0.00635,0.0127));
#1110=CARTESIAN_POINT('',(0.0635,0.00635,0.0127));
#1111=CARTESIAN_POINT('',(0.0635,0.00635,-0.0127));
#1112=CARTESIAN_POINT('',(0.0635,0.00635,-0.0127));
#1113=CARTESIAN_POINT('',(0.0635,0.00635,3.46944695195361E-18));
#1114=CARTESIAN_POINT('',(0.0381,-0.003175,3.46944695195361E-18));
#1115=CARTESIAN_POINT('',(0.0635,-0.003175,-0.0127));
#1116=CARTESIAN_POINT('',(0.05969,-0.003175,-0.0127));
#1117=CARTESIAN_POINT('',(0.062865,-0.003175,-0.0127));
#1118=CARTESIAN_POINT('',(0.0635,-0.003175,-0.0127));
#1119=CARTESIAN_POINT('',(0.0635,-0.003175,0.));
#1120=CARTESIAN_POINT('',(0.0635,-0.003175,0.0127));
#1121=CARTESIAN_POINT('',(0.05969,-0.003175,0.0127));
#1122=CARTESIAN_POINT('',(0.062865,-0.003175,0.0127));
#1123=CARTESIAN_POINT('',(0.0635,-0.003175,0.0127));
#1124=CARTESIAN_POINT('',(0.0635,-0.003175,0.));
#1125=CARTESIAN_POINT('',(0.05969,-0.003175,0.019052));
#1126=MECHANICAL_DESIGN_GEOMETRIC_PRESENTATION_REPRESENTATION('',(#666),
#1128);
#1127=MECHANICAL_DESIGN_GEOMETRIC_PRESENTATION_REPRESENTATION('',(#667),
#1129);
#1128=(
GEOMETRIC_REPRESENTATION_CONTEXT(3)
GLOBAL_UNCERTAINTY_ASSIGNED_CONTEXT((#1130))
GLOBAL_UNIT_ASSIGNED_CONTEXT((#1136,#1134,#1132))
REPRESENTATION_CONTEXT('Part 2','TOP_LEVEL_ASSEMBLY_PART')
);
#1129=(
GEOMETRIC_REPRESENTATION_CONTEXT(3)
GLOBAL_UNCERTAINTY_ASSIGNED_CONTEXT((#1131))
GLOBAL_UNIT_ASSIGNED_CONTEXT((#1137,#1135,#1133))
REPRESENTATION_CONTEXT('Part 1','TOP_LEVEL_ASSEMBLY_PART')
);
#1130=UNCERTAINTY_MEASURE_WITH_UNIT(LENGTH_MEASURE(1.E-8),#1136,
'DISTANCE_ACCURACY_VALUE','Maximum Tolerance applied to model');
#1131=UNCERTAINTY_MEASURE_WITH_UNIT(LENGTH_MEASURE(1.E-8),#1137,
'DISTANCE_ACCURACY_VALUE','Maximum Tolerance applied to model');
#1132=(
NAMED_UNIT(*)
SI_UNIT($,.STERADIAN.)
SOLID_ANGLE_UNIT()
);
#1133=(
NAMED_UNIT(*)
SI_UNIT($,.STERADIAN.)
SOLID_ANGLE_UNIT()
);
#1134=(
NAMED_UNIT(*)
PLANE_ANGLE_UNIT()
SI_UNIT($,.RADIAN.)
);
#1135=(
NAMED_UNIT(*)
PLANE_ANGLE_UNIT()
SI_UNIT($,.RADIAN.)
);
#1136=(
LENGTH_UNIT()
NAMED_UNIT(*)
SI_UNIT($,.METRE.)
);
#1137=(
LENGTH_UNIT()
NAMED_UNIT(*)
SI_UNIT($,.METRE.)
);
#1138=PRODUCT_DEFINITION_SHAPE('','',#1140);
#1139=PRODUCT_DEFINITION_SHAPE('','',#1141);
#1140=PRODUCT_DEFINITION('','',#1144,#1142);
#1141=PRODUCT_DEFINITION('','',#1145,#1143);
#1142=PRODUCT_DEFINITION_CONTEXT('',#1156,'design');
#1143=PRODUCT_DEFINITION_CONTEXT('',#1157,'design');
#1144=PRODUCT_DEFINITION_FORMATION_WITH_SPECIFIED_SOURCE('','',#1148,
 .NOT_KNOWN.);
#1145=PRODUCT_DEFINITION_FORMATION_WITH_SPECIFIED_SOURCE('','',#1149,
 .NOT_KNOWN.);
#1146=PRODUCT_RELATED_PRODUCT_CATEGORY('','',(#1148));
#1147=PRODUCT_RELATED_PRODUCT_CATEGORY('','',(#1149));
#1148=PRODUCT('Part 2','Part 2','Part 2',(#1152));
#1149=PRODUCT('Part 1','Part 1','Part 1',(#1153));
#1150=PRODUCT_CATEGORY('','');
#1151=PRODUCT_CATEGORY('','');
#1152=PRODUCT_CONTEXT('',#1156,'mechanical');
#1153=PRODUCT_CONTEXT('',#1157,'mechanical');
#1154=APPLICATION_PROTOCOL_DEFINITION('international standard',
'ap242_managed_model_based_3d_engineering',2020,#1156);
#1155=APPLICATION_PROTOCOL_DEFINITION('international standard',
'ap242_managed_model_based_3d_engineering',2020,#1157);
#1156=APPLICATION_CONTEXT('managed model based 3d engineering');
#1157=APPLICATION_CONTEXT('managed model based 3d engineering');
ENDSEC;
END-ISO-10303-21;
