ISO-10303-21;
HEADER;
/* Generated by software containing ST-Developer
 * from STEP Tools, Inc. (www.steptools.com) 
 */
/* OPTION: using custom renumber hook */

FILE_DESCRIPTION(
/* description */ ('STEP AP242 Edition 2',
'CAx-IF Rec.Pracs.---Representation and Presentation of Product Manufa
cturing Information (PMI)---4.0---2014-10-13',
'CAx-IF Rec.Pracs.---3D Tessellated Geometry---0.4---2014-09-14','2;1',
'CAx-IF Rec.Pracs.---User Defined Attributes---1.5---2016-08-15'),
/* implementation_level */ '2;1');

FILE_NAME(
/* name */ 'Standin',
/* time_stamp */ '2026-08-06T17:11:03Z',
/* author */ (''),
/* organization */ (''),
/* preprocessor_version */ 'ST-DEVELOPER v20',
/* originating_system */ 'ONSHAPE BY PTC INC, 1.218',
/* authorisation */ '  ');

FILE_SCHEMA (('AP242_MANAGED_MODEL_BASED_3D_ENGINEERING_MIM_LF { 1 0 10303 442 3 1 4 }'));
ENDSEC;

DATA;
#10=SHAPE_REPRESENTATION_RELATIONSHIP('','',#143,#11);
#11=ADVANCED_BREP_SHAPE_REPRESENTATION('',(#141),#259);
#12=PLANE('',#162);
#13=PLANE('',#163);
#14=PLANE('',#166);
#15=PLANE('',#169);
#16=TOROIDAL_SURFACE('',#151,0.0127,0.0127);
#17=TOROIDAL_SURFACE('',#155,0.0127,0.0127);
#18=ELLIPSE('',#147,0.0179605122421383,0.0127);
#19=ELLIPSE('',#148,0.0179605122421383,0.0127);
#20=ELLIPSE('',#150,0.0179605122421383,0.0127);
#21=ELLIPSE('',#158,0.0179605122421383,0.0127);
#22=ELLIPSE('',#159,0.0179605122421383,0.0127);
#23=ELLIPSE('',#161,0.0179605122421383,0.0127);
#24=ORIENTED_EDGE('',*,*,#52,.T.);
#25=ORIENTED_EDGE('',*,*,#53,.T.);
#26=ORIENTED_EDGE('',*,*,#54,.T.);
#27=ORIENTED_EDGE('',*,*,#55,.F.);
#28=ORIENTED_EDGE('',*,*,#56,.T.);
#29=ORIENTED_EDGE('',*,*,#52,.F.);
#30=ORIENTED_EDGE('',*,*,#57,.T.);
#31=ORIENTED_EDGE('',*,*,#57,.F.);
#32=ORIENTED_EDGE('',*,*,#58,.T.);
#33=ORIENTED_EDGE('',*,*,#58,.F.);
#34=ORIENTED_EDGE('',*,*,#59,.T.);
#35=ORIENTED_EDGE('',*,*,#60,.F.);
#36=ORIENTED_EDGE('',*,*,#61,.F.);
#37=ORIENTED_EDGE('',*,*,#62,.T.);
#38=ORIENTED_EDGE('',*,*,#63,.F.);
#39=ORIENTED_EDGE('',*,*,#59,.F.);
#40=ORIENTED_EDGE('',*,*,#55,.T.);
#41=ORIENTED_EDGE('',*,*,#62,.F.);
#42=ORIENTED_EDGE('',*,*,#54,.F.);
#43=ORIENTED_EDGE('',*,*,#53,.F.);
#44=ORIENTED_EDGE('',*,*,#56,.F.);
#45=ORIENTED_EDGE('',*,*,#64,.F.);
#46=ORIENTED_EDGE('',*,*,#64,.T.);
#47=ORIENTED_EDGE('',*,*,#65,.T.);
#48=ORIENTED_EDGE('',*,*,#61,.T.);
#49=ORIENTED_EDGE('',*,*,#60,.T.);
#50=ORIENTED_EDGE('',*,*,#63,.T.);
#51=ORIENTED_EDGE('',*,*,#65,.F.);
#52=EDGE_CURVE('',#66,#66,#76,.T.);
#53=EDGE_CURVE('',#67,#68,#18,.F.);
#54=EDGE_CURVE('',#68,#69,#19,.T.);
#55=EDGE_CURVE('',#69,#69,#77,.T.);
#56=EDGE_CURVE('',#69,#67,#20,.T.);
#57=EDGE_CURVE('',#66,#66,#78,.T.);
#58=EDGE_CURVE('',#70,#70,#79,.T.);
#59=EDGE_CURVE('',#70,#70,#80,.T.);
#60=EDGE_CURVE('',#71,#72,#21,.F.);
#61=EDGE_CURVE('',#73,#71,#22,.T.);
#62=EDGE_CURVE('',#73,#73,#81,.T.);
#63=EDGE_CURVE('',#72,#73,#23,.T.);
#64=EDGE_CURVE('',#74,#74,#82,.T.);
#65=EDGE_CURVE('',#75,#75,#83,.T.);
#66=VERTEX_POINT('',#225);
#67=VERTEX_POINT('',#227);
#68=VERTEX_POINT('',#228);
#69=VERTEX_POINT('',#230);
#70=VERTEX_POINT('',#237);
#71=VERTEX_POINT('',#242);
#72=VERTEX_POINT('',#243);
#73=VERTEX_POINT('',#245);
#74=VERTEX_POINT('',#252);
#75=VERTEX_POINT('',#256);
#76=CIRCLE('',#146,0.0127);
#77=CIRCLE('',#149,0.0127);
#78=CIRCLE('',#152,0.0127);
#79=CIRCLE('',#154,0.0127);
#80=CIRCLE('',#156,0.0127);
#81=CIRCLE('',#160,0.0127);
#82=CIRCLE('',#165,0.0127);
#83=CIRCLE('',#168,0.0127);
#84=EDGE_LOOP('',(#24));
#85=EDGE_LOOP('',(#25,#26,#27,#28));
#86=EDGE_LOOP('',(#29,#30));
#87=EDGE_LOOP('',(#31));
#88=EDGE_LOOP('',(#32));
#89=EDGE_LOOP('',(#33,#34));
#90=EDGE_LOOP('',(#35,#36,#37,#38));
#91=EDGE_LOOP('',(#39));
#92=EDGE_LOOP('',(#40));
#93=EDGE_LOOP('',(#41));
#94=EDGE_LOOP('',(#42,#43,#44));
#95=EDGE_LOOP('',(#45));
#96=EDGE_LOOP('',(#46));
#97=EDGE_LOOP('',(#47));
#98=EDGE_LOOP('',(#48,#49,#50));
#99=EDGE_LOOP('',(#51));
#100=FACE_BOUND('',#84,.T.);
#101=FACE_BOUND('',#85,.T.);
#102=FACE_BOUND('',#86,.T.);
#103=FACE_BOUND('',#87,.T.);
#104=FACE_BOUND('',#88,.T.);
#105=FACE_BOUND('',#89,.T.);
#106=FACE_BOUND('',#90,.T.);
#107=FACE_BOUND('',#91,.T.);
#108=FACE_BOUND('',#92,.T.);
#109=FACE_BOUND('',#93,.T.);
#110=FACE_BOUND('',#94,.T.);
#111=FACE_BOUND('',#95,.T.);
#112=FACE_BOUND('',#96,.T.);
#113=FACE_BOUND('',#97,.T.);
#114=FACE_BOUND('',#98,.T.);
#115=FACE_BOUND('',#99,.T.);
#116=CYLINDRICAL_SURFACE('',#145,0.0127);
#117=CYLINDRICAL_SURFACE('',#153,0.0127);
#118=CYLINDRICAL_SURFACE('',#157,0.0127);
#119=CYLINDRICAL_SURFACE('',#164,0.0127);
#120=CYLINDRICAL_SURFACE('',#167,0.0127);
#121=ADVANCED_FACE('',(#100,#101),#116,.T.);
#122=ADVANCED_FACE('',(#102),#16,.T.);
#123=ADVANCED_FACE('',(#103,#104),#117,.T.);
#124=ADVANCED_FACE('',(#105),#17,.T.);
#125=ADVANCED_FACE('',(#106,#107),#118,.T.);
#126=ADVANCED_FACE('',(#108),#12,.T.);
#127=ADVANCED_FACE('',(#109),#13,.F.);
#128=ADVANCED_FACE('',(#110,#111),#119,.T.);
#129=ADVANCED_FACE('',(#112),#14,.T.);
#130=ADVANCED_FACE('',(#113,#114),#120,.T.);
#131=ADVANCED_FACE('',(#115),#15,.T.);
#132=CLOSED_SHELL('',(#121,#122,#123,#124,#125,#126,#127,#128,#129,#130,
#131));
#133=STYLED_ITEM('',(#134),#141);
#134=PRESENTATION_STYLE_ASSIGNMENT((#135));
#135=SURFACE_STYLE_USAGE(.BOTH.,#136);
#136=SURFACE_SIDE_STYLE('',(#137));
#137=SURFACE_STYLE_FILL_AREA(#138);
#138=FILL_AREA_STYLE('',(#139));
#139=FILL_AREA_STYLE_COLOUR('',#140);
#140=COLOUR_RGB('',0.615686274509804,0.811764705882353,0.929411764705882);
#141=MANIFOLD_SOLID_BREP('Standin',#132);
#142=SHAPE_DEFINITION_REPRESENTATION(#264,#143);
#143=SHAPE_REPRESENTATION('Standin',(#144),#259);
#144=AXIS2_PLACEMENT_3D('',#222,#170,#171);
#145=AXIS2_PLACEMENT_3D('',#223,#172,#173);
#146=AXIS2_PLACEMENT_3D('',#224,#174,#175);
#147=AXIS2_PLACEMENT_3D('',#226,#176,#177);
#148=AXIS2_PLACEMENT_3D('',#229,#178,#179);
#149=AXIS2_PLACEMENT_3D('',#231,#180,#181);
#150=AXIS2_PLACEMENT_3D('',#232,#182,#183);
#151=AXIS2_PLACEMENT_3D('',#233,#184,#185);
#152=AXIS2_PLACEMENT_3D('',#234,#186,#187);
#153=AXIS2_PLACEMENT_3D('',#235,#188,#189);
#154=AXIS2_PLACEMENT_3D('',#236,#190,#191);
#155=AXIS2_PLACEMENT_3D('',#238,#192,#193);
#156=AXIS2_PLACEMENT_3D('',#239,#194,#195);
#157=AXIS2_PLACEMENT_3D('',#240,#196,#197);
#158=AXIS2_PLACEMENT_3D('',#241,#198,#199);
#159=AXIS2_PLACEMENT_3D('',#244,#200,#201);
#160=AXIS2_PLACEMENT_3D('',#246,#202,#203);
#161=AXIS2_PLACEMENT_3D('',#247,#204,#205);
#162=AXIS2_PLACEMENT_3D('',#248,#206,#207);
#163=AXIS2_PLACEMENT_3D('',#249,#208,#209);
#164=AXIS2_PLACEMENT_3D('',#250,#210,#211);
#165=AXIS2_PLACEMENT_3D('',#251,#212,#213);
#166=AXIS2_PLACEMENT_3D('',#253,#214,#215);
#167=AXIS2_PLACEMENT_3D('',#254,#216,#217);
#168=AXIS2_PLACEMENT_3D('',#255,#218,#219);
#169=AXIS2_PLACEMENT_3D('',#257,#220,#221);
#170=DIRECTION('',(0.,0.,1.));
#171=DIRECTION('',(1.,0.,0.));
#172=DIRECTION('',(3.06161699786839E-16,0.,-1.));
#173=DIRECTION('',(-1.,0.,-3.06161699786839E-16));
#174=DIRECTION('',(-2.28847549044393E-17,0.,-1.));
#175=DIRECTION('',(-1.,0.,2.28847549044393E-17));
#176=DIRECTION('',(2.16489014058874E-16,-0.707106781186548,-0.707106781186548));
#177=DIRECTION('',(2.16489014058874E-16,0.707106781186548,-0.707106781186548));
#178=DIRECTION('',(2.16489014058874E-16,0.707106781186548,-0.707106781186548));
#179=DIRECTION('',(2.16489014058874E-16,-0.707106781186548,-0.707106781186548));
#180=DIRECTION('',(1.22464679914735E-16,0.,-1.));
#181=DIRECTION('',(-1.,0.,-1.22464679914735E-16));
#182=DIRECTION('',(2.16489014058874E-16,0.707106781186548,-0.707106781186548));
#183=DIRECTION('',(2.16489014058874E-16,-0.707106781186548,-0.707106781186548));
#184=DIRECTION('',(0.,-1.,0.));
#185=DIRECTION('',(0.,0.,-1.));
#186=DIRECTION('',(-1.,0.,6.12323399573677E-17));
#187=DIRECTION('',(6.12323399573677E-17,0.,1.));
#188=DIRECTION('',(-1.,0.,-1.22464679914735E-16));
#189=DIRECTION('',(-1.22464679914735E-16,0.,1.));
#190=DIRECTION('',(-1.,0.,1.83697019872103E-16));
#191=DIRECTION('',(1.83697019872103E-16,0.,1.));
#192=DIRECTION('',(0.,-1.,0.));
#193=DIRECTION('',(0.,0.,-1.));
#194=DIRECTION('',(0.,0.,1.));
#195=DIRECTION('',(1.,0.,0.));
#196=DIRECTION('',(-1.83697019872103E-16,0.,1.));
#197=DIRECTION('',(1.,0.,1.83697019872103E-16));
#198=DIRECTION('',(-1.29893408435324E-16,0.707106781186548,0.707106781186548));
#199=DIRECTION('',(-1.29893408435324E-16,-0.707106781186548,0.707106781186548));
#200=DIRECTION('',(-1.29893408435324E-16,-0.707106781186548,0.707106781186548));
#201=DIRECTION('',(-1.29893408435324E-16,0.707106781186548,0.707106781186548));
#202=DIRECTION('',(0.,0.,1.));
#203=DIRECTION('',(1.,0.,0.));
#204=DIRECTION('',(-1.29893408435324E-16,-0.707106781186548,0.707106781186548));
#205=DIRECTION('',(-1.29893408435324E-16,0.707106781186548,0.707106781186548));
#206=DIRECTION('',(1.22464679914735E-16,0.,-1.));
#207=DIRECTION('',(-1.,0.,-1.22464679914735E-16));
#208=DIRECTION('',(0.,0.,1.));
#209=DIRECTION('',(1.,0.,0.));
#210=DIRECTION('',(0.,1.,0.));
#211=DIRECTION('',(0.,0.,1.));
#212=DIRECTION('',(0.,-1.,0.));
#213=DIRECTION('',(0.,0.,-1.));
#214=DIRECTION('',(0.,-1.,0.));
#215=DIRECTION('',(1.,0.,0.));
#216=DIRECTION('',(0.,1.,0.));
#217=DIRECTION('',(0.,0.,1.));
#218=DIRECTION('',(0.,1.,0.));
#219=DIRECTION('',(0.,0.,-1.));
#220=DIRECTION('',(0.,-1.,0.));
#221=DIRECTION('',(1.,0.,0.));
#222=CARTESIAN_POINT('',(0.,0.,0.));
#223=CARTESIAN_POINT('',(-0.2413,7.77650717458569E-19,0.));
#224=CARTESIAN_POINT('',(-0.2413,7.77650717458569E-19,5.55111512312578E-17));
#225=CARTESIAN_POINT('',(-0.2286,7.77650717458569E-19,1.90819582357449E-17));
#226=CARTESIAN_POINT('',(-0.2413,-1.34889624490852E-17,-0.2667));
#227=CARTESIAN_POINT('',(-0.254,0.,-0.2667));
#228=CARTESIAN_POINT('',(-0.2286,0.,-0.2667));
#229=CARTESIAN_POINT('',(-0.2413,-1.34889624490852E-17,-0.2667));
#230=CARTESIAN_POINT('',(-0.2413,-0.0127,-0.2794));
#231=CARTESIAN_POINT('',(-0.2413,7.77650717458569E-19,-0.2794));
#232=CARTESIAN_POINT('',(-0.2413,-1.34889624490852E-17,-0.2667));
#233=CARTESIAN_POINT('',(-0.2286,7.77650717458569E-19,1.90819582357449E-17));
#234=CARTESIAN_POINT('',(-0.2286,7.77650717458569E-19,0.0127));
#235=CARTESIAN_POINT('',(0.2286,7.77650717458569E-19,0.0127));
#236=CARTESIAN_POINT('',(0.2286,7.77650717458569E-19,0.0127));
#237=CARTESIAN_POINT('',(0.2286,7.77650717458569E-19,7.63278329429795E-17));
#238=CARTESIAN_POINT('',(0.2286,7.77650717458569E-19,7.63278329429795E-17));
#239=CARTESIAN_POINT('',(0.2413,7.77650717458569E-19,0.));
#240=CARTESIAN_POINT('',(0.2413,7.77650717458569E-19,-0.2794));
#241=CARTESIAN_POINT('',(0.2413,-1.34889624490852E-17,-0.2667));
#242=CARTESIAN_POINT('',(0.254,0.,-0.2667));
#243=CARTESIAN_POINT('',(0.2286,0.,-0.2667));
#244=CARTESIAN_POINT('',(0.2413,-1.34889624490852E-17,-0.2667));
#245=CARTESIAN_POINT('',(0.2413,-0.0127,-0.2794));
#246=CARTESIAN_POINT('',(0.2413,7.77650717458569E-19,-0.2794));
#247=CARTESIAN_POINT('',(0.2413,-1.34889624490852E-17,-0.2667));
#248=CARTESIAN_POINT('',(1.04561246509967E-16,0.,-0.2794));
#249=CARTESIAN_POINT('',(5.55111512312578E-17,0.,-0.2794));
#250=CARTESIAN_POINT('',(-0.2413,-0.1016,-0.2667));
#251=CARTESIAN_POINT('',(-0.2413,-0.1016,-0.2667));
#252=CARTESIAN_POINT('',(-0.2413,-0.1016,-0.2794));
#253=CARTESIAN_POINT('',(0.,-0.1016,-0.1397));
#254=CARTESIAN_POINT('',(0.2413,-0.1016,-0.2667));
#255=CARTESIAN_POINT('',(0.2413,-0.1016,-0.2667));
#256=CARTESIAN_POINT('',(0.2413,-0.1016,-0.2794));
#257=CARTESIAN_POINT('',(0.,-0.1016,-0.1397));
#258=MECHANICAL_DESIGN_GEOMETRIC_PRESENTATION_REPRESENTATION('',(#133),
#259);
#259=(
GEOMETRIC_REPRESENTATION_CONTEXT(3)
GLOBAL_UNCERTAINTY_ASSIGNED_CONTEXT((#260))
GLOBAL_UNIT_ASSIGNED_CONTEXT((#263,#262,#261))
REPRESENTATION_CONTEXT('Standin','TOP_LEVEL_ASSEMBLY_PART')
);
#260=UNCERTAINTY_MEASURE_WITH_UNIT(LENGTH_MEASURE(1.E-8),#263,
'DISTANCE_ACCURACY_VALUE','Maximum Tolerance applied to model');
#261=(
NAMED_UNIT(*)
SI_UNIT($,.STERADIAN.)
SOLID_ANGLE_UNIT()
);
#262=(
NAMED_UNIT(*)
PLANE_ANGLE_UNIT()
SI_UNIT($,.RADIAN.)
);
#263=(
LENGTH_UNIT()
NAMED_UNIT(*)
SI_UNIT($,.METRE.)
);
#264=PRODUCT_DEFINITION_SHAPE('','',#265);
#265=PRODUCT_DEFINITION('','',#267,#266);
#266=PRODUCT_DEFINITION_CONTEXT('',#273,'design');
#267=PRODUCT_DEFINITION_FORMATION_WITH_SPECIFIED_SOURCE('','',#269,
 .NOT_KNOWN.);
#268=PRODUCT_RELATED_PRODUCT_CATEGORY('','',(#269));
#269=PRODUCT('Standin','Standin','Standin',(#271));
#270=PRODUCT_CATEGORY('','');
#271=PRODUCT_CONTEXT('',#273,'mechanical');
#272=APPLICATION_PROTOCOL_DEFINITION('international standard',
'ap242_managed_model_based_3d_engineering',2020,#273);
#273=APPLICATION_CONTEXT('managed model based 3d engineering');
ENDSEC;
END-ISO-10303-21;
