ISO-10303-21;
HEADER;
/* Generated by software containing ST-Developer
 * from STEP Tools, Inc. (www.steptools.com) 
 */
/* OPTION: using custom renumber hook */

FILE_DESCRIPTION(
/* description */ ('STEP AP242 Edition 2',
'CAx-IF Rec.Pracs.---Representation and Presentation of Product Manufa
cturing Information (PMI)---4.0---2014-10-13',
'CAx-IF Rec.Pracs.---3D Tessellated Geometry---0.4---2014-09-14','2;1',
'CAx-IF Rec.Pracs.---User Defined Attributes---1.5---2016-08-15'),
/* implementation_level */ '2;1');

FILE_NAME(
/* name */ 'Head',
/* time_stamp */ '2026-08-07T03:25:50Z',
/* author */ (''),
/* organization */ (''),
/* preprocessor_version */ 'ST-DEVELOPER v20',
/* originating_system */ 'ONSHAPE BY PTC INC, 1.218',
/* authorisation */ '  ');

FILE_SCHEMA (('AP242_MANAGED_MODEL_BASED_3D_ENGINEERING_MIM_LF { 1 0 10303 442 3 1 4 }'));
ENDSEC;

DATA;
#10=SHAPE_REPRESENTATION_RELATIONSHIP('','',#295,#11);
#11=ADVANCED_BREP_SHAPE_REPRESENTATION('',(#293),#461);
#12=ORIENTED_EDGE('',*,*,#84,.F.);
#13=ORIENTED_EDGE('',*,*,#85,.F.);
#14=ORIENTED_EDGE('',*,*,#86,.F.);
#15=ORIENTED_EDGE('',*,*,#87,.F.);
#16=ORIENTED_EDGE('',*,*,#88,.F.);
#17=ORIENTED_EDGE('',*,*,#89,.T.);
#18=ORIENTED_EDGE('',*,*,#90,.T.);
#19=ORIENTED_EDGE('',*,*,#91,.F.);
#20=ORIENTED_EDGE('',*,*,#92,.T.);
#21=ORIENTED_EDGE('',*,*,#93,.T.);
#22=ORIENTED_EDGE('',*,*,#94,.T.);
#23=ORIENTED_EDGE('',*,*,#95,.T.);
#24=ORIENTED_EDGE('',*,*,#96,.F.);
#25=ORIENTED_EDGE('',*,*,#97,.F.);
#26=ORIENTED_EDGE('',*,*,#88,.T.);
#27=ORIENTED_EDGE('',*,*,#98,.T.);
#28=ORIENTED_EDGE('',*,*,#99,.T.);
#29=ORIENTED_EDGE('',*,*,#100,.F.);
#30=ORIENTED_EDGE('',*,*,#89,.F.);
#31=ORIENTED_EDGE('',*,*,#97,.T.);
#32=ORIENTED_EDGE('',*,*,#101,.T.);
#33=ORIENTED_EDGE('',*,*,#102,.F.);
#34=ORIENTED_EDGE('',*,*,#90,.F.);
#35=ORIENTED_EDGE('',*,*,#100,.T.);
#36=ORIENTED_EDGE('',*,*,#103,.F.);
#37=ORIENTED_EDGE('',*,*,#98,.F.);
#38=ORIENTED_EDGE('',*,*,#91,.T.);
#39=ORIENTED_EDGE('',*,*,#102,.T.);
#40=ORIENTED_EDGE('',*,*,#96,.T.);
#41=ORIENTED_EDGE('',*,*,#103,.T.);
#42=ORIENTED_EDGE('',*,*,#101,.F.);
#43=ORIENTED_EDGE('',*,*,#99,.F.);
#44=ORIENTED_EDGE('',*,*,#93,.F.);
#45=ORIENTED_EDGE('',*,*,#104,.F.);
#46=ORIENTED_EDGE('',*,*,#105,.T.);
#47=ORIENTED_EDGE('',*,*,#106,.T.);
#48=ORIENTED_EDGE('',*,*,#92,.F.);
#49=ORIENTED_EDGE('',*,*,#107,.F.);
#50=ORIENTED_EDGE('',*,*,#108,.T.);
#51=ORIENTED_EDGE('',*,*,#104,.T.);
#52=ORIENTED_EDGE('',*,*,#95,.F.);
#53=ORIENTED_EDGE('',*,*,#109,.F.);
#54=ORIENTED_EDGE('',*,*,#110,.T.);
#55=ORIENTED_EDGE('',*,*,#107,.T.);
#56=ORIENTED_EDGE('',*,*,#94,.F.);
#57=ORIENTED_EDGE('',*,*,#106,.F.);
#58=ORIENTED_EDGE('',*,*,#111,.T.);
#59=ORIENTED_EDGE('',*,*,#109,.T.);
#60=ORIENTED_EDGE('',*,*,#105,.F.);
#61=ORIENTED_EDGE('',*,*,#108,.F.);
#62=ORIENTED_EDGE('',*,*,#110,.F.);
#63=ORIENTED_EDGE('',*,*,#111,.F.);
#64=ORIENTED_EDGE('',*,*,#84,.T.);
#65=ORIENTED_EDGE('',*,*,#112,.F.);
#66=ORIENTED_EDGE('',*,*,#113,.F.);
#67=ORIENTED_EDGE('',*,*,#114,.T.);
#68=ORIENTED_EDGE('',*,*,#87,.T.);
#69=ORIENTED_EDGE('',*,*,#115,.F.);
#70=ORIENTED_EDGE('',*,*,#116,.F.);
#71=ORIENTED_EDGE('',*,*,#112,.T.);
#72=ORIENTED_EDGE('',*,*,#86,.T.);
#73=ORIENTED_EDGE('',*,*,#117,.F.);
#74=ORIENTED_EDGE('',*,*,#118,.F.);
#75=ORIENTED_EDGE('',*,*,#115,.T.);
#76=ORIENTED_EDGE('',*,*,#85,.T.);
#77=ORIENTED_EDGE('',*,*,#114,.F.);
#78=ORIENTED_EDGE('',*,*,#119,.F.);
#79=ORIENTED_EDGE('',*,*,#117,.T.);
#80=ORIENTED_EDGE('',*,*,#113,.T.);
#81=ORIENTED_EDGE('',*,*,#116,.T.);
#82=ORIENTED_EDGE('',*,*,#118,.T.);
#83=ORIENTED_EDGE('',*,*,#119,.T.);
#84=EDGE_CURVE('',#120,#121,#144,.T.);
#85=EDGE_CURVE('',#122,#120,#145,.T.);
#86=EDGE_CURVE('',#123,#122,#146,.T.);
#87=EDGE_CURVE('',#121,#123,#147,.T.);
#88=EDGE_CURVE('',#124,#125,#148,.T.);
#89=EDGE_CURVE('',#124,#126,#149,.T.);
#90=EDGE_CURVE('',#126,#127,#150,.T.);
#91=EDGE_CURVE('',#125,#127,#151,.T.);
#92=EDGE_CURVE('',#128,#129,#152,.T.);
#93=EDGE_CURVE('',#129,#130,#153,.T.);
#94=EDGE_CURVE('',#130,#131,#154,.T.);
#95=EDGE_CURVE('',#131,#128,#155,.T.);
#96=EDGE_CURVE('',#132,#133,#156,.T.);
#97=EDGE_CURVE('',#124,#132,#157,.T.);
#98=EDGE_CURVE('',#125,#133,#158,.T.);
#99=EDGE_CURVE('',#132,#134,#159,.T.);
#100=EDGE_CURVE('',#126,#134,#160,.T.);
#101=EDGE_CURVE('',#134,#135,#161,.T.);
#102=EDGE_CURVE('',#127,#135,#162,.T.);
#103=EDGE_CURVE('',#133,#135,#163,.T.);
#104=EDGE_CURVE('',#136,#129,#164,.T.);
#105=EDGE_CURVE('',#136,#137,#165,.T.);
#106=EDGE_CURVE('',#137,#130,#166,.T.);
#107=EDGE_CURVE('',#138,#128,#167,.T.);
#108=EDGE_CURVE('',#138,#136,#168,.T.);
#109=EDGE_CURVE('',#139,#131,#169,.T.);
#110=EDGE_CURVE('',#139,#138,#170,.T.);
#111=EDGE_CURVE('',#137,#139,#171,.T.);
#112=EDGE_CURVE('',#140,#121,#172,.T.);
#113=EDGE_CURVE('',#141,#140,#173,.T.);
#114=EDGE_CURVE('',#141,#120,#174,.T.);
#115=EDGE_CURVE('',#142,#123,#175,.T.);
#116=EDGE_CURVE('',#140,#142,#176,.T.);
#117=EDGE_CURVE('',#143,#122,#177,.T.);
#118=EDGE_CURVE('',#142,#143,#178,.T.);
#119=EDGE_CURVE('',#143,#141,#179,.T.);
#120=VERTEX_POINT('',#386);
#121=VERTEX_POINT('',#387);
#122=VERTEX_POINT('',#389);
#123=VERTEX_POINT('',#391);
#124=VERTEX_POINT('',#394);
#125=VERTEX_POINT('',#395);
#126=VERTEX_POINT('',#397);
#127=VERTEX_POINT('',#399);
#128=VERTEX_POINT('',#402);
#129=VERTEX_POINT('',#403);
#130=VERTEX_POINT('',#405);
#131=VERTEX_POINT('',#407);
#132=VERTEX_POINT('',#411);
#133=VERTEX_POINT('',#412);
#134=VERTEX_POINT('',#417);
#135=VERTEX_POINT('',#421);
#136=VERTEX_POINT('',#428);
#137=VERTEX_POINT('',#430);
#138=VERTEX_POINT('',#434);
#139=VERTEX_POINT('',#438);
#140=VERTEX_POINT('',#445);
#141=VERTEX_POINT('',#447);
#142=VERTEX_POINT('',#451);
#143=VERTEX_POINT('',#455);
#144=LINE('',#385,#180);
#145=LINE('',#388,#181);
#146=LINE('',#390,#182);
#147=LINE('',#392,#183);
#148=LINE('',#393,#184);
#149=LINE('',#396,#185);
#150=LINE('',#398,#186);
#151=LINE('',#400,#187);
#152=LINE('',#401,#188);
#153=LINE('',#404,#189);
#154=LINE('',#406,#190);
#155=LINE('',#408,#191);
#156=LINE('',#410,#192);
#157=LINE('',#413,#193);
#158=LINE('',#414,#194);
#159=LINE('',#416,#195);
#160=LINE('',#418,#196);
#161=LINE('',#420,#197);
#162=LINE('',#422,#198);
#163=LINE('',#424,#199);
#164=LINE('',#427,#200);
#165=LINE('',#429,#201);
#166=LINE('',#431,#202);
#167=LINE('',#433,#203);
#168=LINE('',#435,#204);
#169=LINE('',#437,#205);
#170=LINE('',#439,#206);
#171=LINE('',#441,#207);
#172=LINE('',#444,#208);
#173=LINE('',#446,#209);
#174=LINE('',#448,#210);
#175=LINE('',#450,#211);
#176=LINE('',#452,#212);
#177=LINE('',#454,#213);
#178=LINE('',#456,#214);
#179=LINE('',#458,#215);
#180=VECTOR('',#317,1.);
#181=VECTOR('',#318,1.);
#182=VECTOR('',#319,1.);
#183=VECTOR('',#320,1.);
#184=VECTOR('',#321,1.);
#185=VECTOR('',#322,1.);
#186=VECTOR('',#323,1.);
#187=VECTOR('',#324,1.);
#188=VECTOR('',#325,1.);
#189=VECTOR('',#326,1.);
#190=VECTOR('',#327,1.);
#191=VECTOR('',#328,1.);
#192=VECTOR('',#331,1.);
#193=VECTOR('',#332,1.);
#194=VECTOR('',#333,1.);
#195=VECTOR('',#336,1.);
#196=VECTOR('',#337,1.);
#197=VECTOR('',#340,1.);
#198=VECTOR('',#341,1.);
#199=VECTOR('',#344,1.);
#200=VECTOR('',#349,1.);
#201=VECTOR('',#350,1.);
#202=VECTOR('',#351,1.);
#203=VECTOR('',#354,1.);
#204=VECTOR('',#355,1.);
#205=VECTOR('',#358,1.);
#206=VECTOR('',#359,1.);
#207=VECTOR('',#362,1.);
#208=VECTOR('',#367,1.);
#209=VECTOR('',#368,1.);
#210=VECTOR('',#369,1.);
#211=VECTOR('',#372,1.);
#212=VECTOR('',#373,1.);
#213=VECTOR('',#376,1.);
#214=VECTOR('',#377,1.);
#215=VECTOR('',#380,1.);
#216=EDGE_LOOP('',(#12,#13,#14,#15));
#217=EDGE_LOOP('',(#16,#17,#18,#19));
#218=EDGE_LOOP('',(#20,#21,#22,#23));
#219=EDGE_LOOP('',(#24,#25,#26,#27));
#220=EDGE_LOOP('',(#28,#29,#30,#31));
#221=EDGE_LOOP('',(#32,#33,#34,#35));
#222=EDGE_LOOP('',(#36,#37,#38,#39));
#223=EDGE_LOOP('',(#40,#41,#42,#43));
#224=EDGE_LOOP('',(#44,#45,#46,#47));
#225=EDGE_LOOP('',(#48,#49,#50,#51));
#226=EDGE_LOOP('',(#52,#53,#54,#55));
#227=EDGE_LOOP('',(#56,#57,#58,#59));
#228=EDGE_LOOP('',(#60,#61,#62,#63));
#229=EDGE_LOOP('',(#64,#65,#66,#67));
#230=EDGE_LOOP('',(#68,#69,#70,#71));
#231=EDGE_LOOP('',(#72,#73,#74,#75));
#232=EDGE_LOOP('',(#76,#77,#78,#79));
#233=EDGE_LOOP('',(#80,#81,#82,#83));
#234=FACE_BOUND('',#216,.T.);
#235=FACE_BOUND('',#217,.T.);
#236=FACE_BOUND('',#218,.T.);
#237=FACE_BOUND('',#219,.T.);
#238=FACE_BOUND('',#220,.T.);
#239=FACE_BOUND('',#221,.T.);
#240=FACE_BOUND('',#222,.T.);
#241=FACE_BOUND('',#223,.T.);
#242=FACE_BOUND('',#224,.T.);
#243=FACE_BOUND('',#225,.T.);
#244=FACE_BOUND('',#226,.T.);
#245=FACE_BOUND('',#227,.T.);
#246=FACE_BOUND('',#228,.T.);
#247=FACE_BOUND('',#229,.T.);
#248=FACE_BOUND('',#230,.T.);
#249=FACE_BOUND('',#231,.T.);
#250=FACE_BOUND('',#232,.T.);
#251=FACE_BOUND('',#233,.T.);
#252=PLANE('',#297);
#253=PLANE('',#298);
#254=PLANE('',#299);
#255=PLANE('',#300);
#256=PLANE('',#301);
#257=PLANE('',#302);
#258=PLANE('',#303);
#259=PLANE('',#304);
#260=PLANE('',#305);
#261=PLANE('',#306);
#262=PLANE('',#307);
#263=PLANE('',#308);
#264=PLANE('',#309);
#265=PLANE('',#310);
#266=PLANE('',#311);
#267=PLANE('',#312);
#268=ADVANCED_FACE('',(#234,#235,#236),#252,.T.);
#269=ADVANCED_FACE('',(#237),#253,.T.);
#270=ADVANCED_FACE('',(#238),#254,.F.);
#271=ADVANCED_FACE('',(#239),#255,.F.);
#272=ADVANCED_FACE('',(#240),#256,.T.);
#273=ADVANCED_FACE('',(#241),#257,.F.);
#274=ADVANCED_FACE('',(#242),#258,.T.);
#275=ADVANCED_FACE('',(#243),#259,.T.);
#276=ADVANCED_FACE('',(#244),#260,.T.);
#277=ADVANCED_FACE('',(#245),#261,.T.);
#278=ADVANCED_FACE('',(#246),#262,.T.);
#279=ADVANCED_FACE('',(#247),#263,.F.);
#280=ADVANCED_FACE('',(#248),#264,.F.);
#281=ADVANCED_FACE('',(#249),#265,.F.);
#282=ADVANCED_FACE('',(#250),#266,.F.);
#283=ADVANCED_FACE('',(#251),#267,.T.);
#284=CLOSED_SHELL('',(#268,#269,#270,#271,#272,#273,#274,#275,#276,#277,
#278,#279,#280,#281,#282,#283));
#285=STYLED_ITEM('',(#286),#293);
#286=PRESENTATION_STYLE_ASSIGNMENT((#287));
#287=SURFACE_STYLE_USAGE(.BOTH.,#288);
#288=SURFACE_SIDE_STYLE('',(#289));
#289=SURFACE_STYLE_FILL_AREA(#290);
#290=FILL_AREA_STYLE('',(#291));
#291=FILL_AREA_STYLE_COLOUR('',#292);
#292=COLOUR_RGB('',0.615686274509804,0.811764705882353,0.929411764705882);
#293=MANIFOLD_SOLID_BREP('Part 1',#284);
#294=SHAPE_DEFINITION_REPRESENTATION(#466,#295);
#295=SHAPE_REPRESENTATION('Part 1',(#296),#461);
#296=AXIS2_PLACEMENT_3D('',#383,#313,#314);
#297=AXIS2_PLACEMENT_3D('',#384,#315,#316);
#298=AXIS2_PLACEMENT_3D('',#409,#329,#330);
#299=AXIS2_PLACEMENT_3D('',#415,#334,#335);
#300=AXIS2_PLACEMENT_3D('',#419,#338,#339);
#301=AXIS2_PLACEMENT_3D('',#423,#342,#343);
#302=AXIS2_PLACEMENT_3D('',#425,#345,#346);
#303=AXIS2_PLACEMENT_3D('',#426,#347,#348);
#304=AXIS2_PLACEMENT_3D('',#432,#352,#353);
#305=AXIS2_PLACEMENT_3D('',#436,#356,#357);
#306=AXIS2_PLACEMENT_3D('',#440,#360,#361);
#307=AXIS2_PLACEMENT_3D('',#442,#363,#364);
#308=AXIS2_PLACEMENT_3D('',#443,#365,#366);
#309=AXIS2_PLACEMENT_3D('',#449,#370,#371);
#310=AXIS2_PLACEMENT_3D('',#453,#374,#375);
#311=AXIS2_PLACEMENT_3D('',#457,#378,#379);
#312=AXIS2_PLACEMENT_3D('',#459,#381,#382);
#313=DIRECTION('',(0.,0.,1.));
#314=DIRECTION('',(1.,0.,0.));
#315=DIRECTION('',(0.,0.,1.));
#316=DIRECTION('',(1.,0.,0.));
#317=DIRECTION('',(-1.,0.,0.));
#318=DIRECTION('',(0.,1.,0.));
#319=DIRECTION('',(1.,2.73184799366426E-16,0.));
#320=DIRECTION('',(0.,-1.,0.));
#321=DIRECTION('',(-6.82961998416066E-17,-1.,0.));
#322=DIRECTION('',(-1.,0.,0.));
#323=DIRECTION('',(-6.82961998416066E-17,-1.,0.));
#324=DIRECTION('',(-1.,0.,0.));
#325=DIRECTION('',(-3.64246399155235E-16,1.,0.));
#326=DIRECTION('',(1.,0.,0.));
#327=DIRECTION('',(0.,-1.,0.));
#328=DIRECTION('',(-1.,-1.36592399683213E-16,0.));
#329=DIRECTION('',(1.,-6.82961998416066E-17,0.));
#330=DIRECTION('',(6.82961998416066E-17,1.,0.));
#331=DIRECTION('',(-6.82961998416066E-17,-1.,0.));
#332=DIRECTION('',(0.,0.,-1.));
#333=DIRECTION('',(0.,0.,-1.));
#334=DIRECTION('',(0.,-1.,0.));
#335=DIRECTION('',(0.,0.,-1.));
#336=DIRECTION('',(-1.,0.,0.));
#337=DIRECTION('',(0.,0.,-1.));
#338=DIRECTION('',(1.,-6.82961998416066E-17,0.));
#339=DIRECTION('',(6.82961998416066E-17,1.,0.));
#340=DIRECTION('',(-6.82961998416066E-17,-1.,0.));
#341=DIRECTION('',(0.,0.,-1.));
#342=DIRECTION('',(0.,-1.,0.));
#343=DIRECTION('',(0.,0.,-1.));
#344=DIRECTION('',(-1.,0.,0.));
#345=DIRECTION('',(0.,0.,1.));
#346=DIRECTION('',(1.,0.,0.));
#347=DIRECTION('',(0.,1.,0.));
#348=DIRECTION('',(0.,0.,1.));
#349=DIRECTION('',(0.,0.,-1.));
#350=DIRECTION('',(1.,0.,0.));
#351=DIRECTION('',(0.,0.,-1.));
#352=DIRECTION('',(-1.,-3.64246399155235E-16,0.));
#353=DIRECTION('',(3.64246399155235E-16,-1.,0.));
#354=DIRECTION('',(0.,0.,-1.));
#355=DIRECTION('',(-3.64246399155235E-16,1.,0.));
#356=DIRECTION('',(1.36592399683213E-16,-1.,0.));
#357=DIRECTION('',(1.,1.36592399683213E-16,0.));
#358=DIRECTION('',(0.,0.,-1.));
#359=DIRECTION('',(-1.,-1.36592399683213E-16,0.));
#360=DIRECTION('',(1.,0.,0.));
#361=DIRECTION('',(0.,0.,-1.));
#362=DIRECTION('',(0.,-1.,0.));
#363=DIRECTION('',(0.,0.,1.));
#364=DIRECTION('',(1.,0.,0.));
#365=DIRECTION('',(0.,-1.,0.));
#366=DIRECTION('',(0.,0.,-1.));
#367=DIRECTION('',(0.,0.,-1.));
#368=DIRECTION('',(-1.,0.,0.));
#369=DIRECTION('',(0.,0.,-1.));
#370=DIRECTION('',(1.,0.,0.));
#371=DIRECTION('',(0.,0.,-1.));
#372=DIRECTION('',(0.,0.,-1.));
#373=DIRECTION('',(0.,-1.,0.));
#374=DIRECTION('',(-2.73184799366426E-16,1.,0.));
#375=DIRECTION('',(-1.,-2.73184799366426E-16,0.));
#376=DIRECTION('',(0.,0.,-1.));
#377=DIRECTION('',(1.,2.73184799366426E-16,0.));
#378=DIRECTION('',(-1.,0.,0.));
#379=DIRECTION('',(0.,0.,1.));
#380=DIRECTION('',(0.,1.,0.));
#381=DIRECTION('',(0.,0.,1.));
#382=DIRECTION('',(1.,0.,0.));
#383=CARTESIAN_POINT('',(0.,0.,0.));
#384=CARTESIAN_POINT('',(6.93889390390723E-18,0.,0.1016));
#385=CARTESIAN_POINT('',(-0.0217996306570156,0.,0.1016));
#386=CARTESIAN_POINT('',(-0.0127,-1.56125112837912E-17,0.1016));
#387=CARTESIAN_POINT('',(-0.0381,0.,0.1016));
#388=CARTESIAN_POINT('',(-0.0127,-0.00238125,0.1016));
#389=CARTESIAN_POINT('',(-0.0127,-0.0047625,0.1016));
#390=CARTESIAN_POINT('',(-0.0254,-0.0047625,0.1016));
#391=CARTESIAN_POINT('',(-0.0381,-0.0047625,0.1016));
#392=CARTESIAN_POINT('',(-0.0381,-0.00238125,0.1016));
#393=CARTESIAN_POINT('',(0.0508,0.,0.1016));
#394=CARTESIAN_POINT('',(0.0508,0.0508,0.1016));
#395=CARTESIAN_POINT('',(0.0508,-0.0508,0.1016));
#396=CARTESIAN_POINT('',(-1.38777878078145E-17,0.0508,0.1016));
#397=CARTESIAN_POINT('',(-0.0508,0.0508,0.1016));
#398=CARTESIAN_POINT('',(-0.0508,-6.93889390390723E-18,0.1016));
#399=CARTESIAN_POINT('',(-0.0508,-0.0508,0.1016));
#400=CARTESIAN_POINT('',(6.93889390390723E-18,-0.0508,0.1016));
#401=CARTESIAN_POINT('',(0.0127,-0.00238125,0.1016));
#402=CARTESIAN_POINT('',(0.0127,-0.0047625,0.1016));
#403=CARTESIAN_POINT('',(0.0127,5.20417042793042E-18,0.1016));
#404=CARTESIAN_POINT('',(0.0290003693429844,0.,0.1016));
#405=CARTESIAN_POINT('',(0.0381,1.56125112837912E-17,0.1016));
#406=CARTESIAN_POINT('',(0.0381,-0.00238125,0.1016));
#407=CARTESIAN_POINT('',(0.0381,-0.0047625,0.1016));
#408=CARTESIAN_POINT('',(0.0254,-0.0047625,0.1016));
#409=CARTESIAN_POINT('',(0.0508,0.,0.1016));
#410=CARTESIAN_POINT('',(0.0508,0.,0.));
#411=CARTESIAN_POINT('',(0.0508,0.0508,0.));
#412=CARTESIAN_POINT('',(0.0508,-0.0508,0.));
#413=CARTESIAN_POINT('',(0.0508,0.0508,0.1016));
#414=CARTESIAN_POINT('',(0.0508,-0.0508,0.1016));
#415=CARTESIAN_POINT('',(-1.38777878078145E-17,0.0508,0.1016));
#416=CARTESIAN_POINT('',(-1.38777878078145E-17,0.0508,0.));
#417=CARTESIAN_POINT('',(-0.0508,0.0508,0.));
#418=CARTESIAN_POINT('',(-0.0508,0.0508,0.1016));
#419=CARTESIAN_POINT('',(-0.0508,-6.93889390390723E-18,0.1016));
#420=CARTESIAN_POINT('',(-0.0508,-6.93889390390723E-18,0.));
#421=CARTESIAN_POINT('',(-0.0508,-0.0508,0.));
#422=CARTESIAN_POINT('',(-0.0508,-0.0508,0.1016));
#423=CARTESIAN_POINT('',(6.93889390390723E-18,-0.0508,0.1016));
#424=CARTESIAN_POINT('',(6.93889390390723E-18,-0.0508,0.));
#425=CARTESIAN_POINT('',(6.93889390390723E-18,0.,0.));
#426=CARTESIAN_POINT('',(0.0290003693429844,0.,0.127));
#427=CARTESIAN_POINT('',(0.0127,5.20417042793042E-18,0.127));
#428=CARTESIAN_POINT('',(0.0127,5.20417042793042E-18,0.127));
#429=CARTESIAN_POINT('',(0.0290003693429844,0.,0.127));
#430=CARTESIAN_POINT('',(0.0381,1.56125112837912E-17,0.127));
#431=CARTESIAN_POINT('',(0.0381,1.56125112837912E-17,0.127));
#432=CARTESIAN_POINT('',(0.0127,-0.00238125,0.127));
#433=CARTESIAN_POINT('',(0.0127,-0.0047625,0.127));
#434=CARTESIAN_POINT('',(0.0127,-0.0047625,0.127));
#435=CARTESIAN_POINT('',(0.0127,-0.00238125,0.127));
#436=CARTESIAN_POINT('',(0.0254,-0.0047625,0.127));
#437=CARTESIAN_POINT('',(0.0381,-0.0047625,0.127));
#438=CARTESIAN_POINT('',(0.0381,-0.0047625,0.127));
#439=CARTESIAN_POINT('',(0.0254,-0.0047625,0.127));
#440=CARTESIAN_POINT('',(0.0381,-0.00238125,0.127));
#441=CARTESIAN_POINT('',(0.0381,-0.00238125,0.127));
#442=CARTESIAN_POINT('',(0.,-6.93889390390723E-18,0.127));
#443=CARTESIAN_POINT('',(-0.0217996306570156,0.,0.127));
#444=CARTESIAN_POINT('',(-0.0381,0.,0.127));
#445=CARTESIAN_POINT('',(-0.0381,0.,0.127));
#446=CARTESIAN_POINT('',(-0.0217996306570156,0.,0.127));
#447=CARTESIAN_POINT('',(-0.0127,-1.56125112837912E-17,0.127));
#448=CARTESIAN_POINT('',(-0.0127,-1.56125112837912E-17,0.127));
#449=CARTESIAN_POINT('',(-0.0381,-0.00238125,0.127));
#450=CARTESIAN_POINT('',(-0.0381,-0.0047625,0.127));
#451=CARTESIAN_POINT('',(-0.0381,-0.0047625,0.127));
#452=CARTESIAN_POINT('',(-0.0381,-0.00238125,0.127));
#453=CARTESIAN_POINT('',(-0.0254,-0.0047625,0.127));
#454=CARTESIAN_POINT('',(-0.0127,-0.0047625,0.127));
#455=CARTESIAN_POINT('',(-0.0127,-0.0047625,0.127));
#456=CARTESIAN_POINT('',(-0.0254,-0.0047625,0.127));
#457=CARTESIAN_POINT('',(-0.0127,-0.00238125,0.127));
#458=CARTESIAN_POINT('',(-0.0127,-0.00238125,0.127));
#459=CARTESIAN_POINT('',(0.,-6.93889390390723E-18,0.127));
#460=MECHANICAL_DESIGN_GEOMETRIC_PRESENTATION_REPRESENTATION('',(#285),
#461);
#461=(
GEOMETRIC_REPRESENTATION_CONTEXT(3)
GLOBAL_UNCERTAINTY_ASSIGNED_CONTEXT((#462))
GLOBAL_UNIT_ASSIGNED_CONTEXT((#465,#464,#463))
REPRESENTATION_CONTEXT('Part 1','TOP_LEVEL_ASSEMBLY_PART')
);
#462=UNCERTAINTY_MEASURE_WITH_UNIT(LENGTH_MEASURE(1.E-8),#465,
'DISTANCE_ACCURACY_VALUE','Maximum Tolerance applied to model');
#463=(
NAMED_UNIT(*)
SI_UNIT($,.STERADIAN.)
SOLID_ANGLE_UNIT()
);
#464=(
NAMED_UNIT(*)
PLANE_ANGLE_UNIT()
SI_UNIT($,.RADIAN.)
);
#465=(
LENGTH_UNIT()
NAMED_UNIT(*)
SI_UNIT($,.METRE.)
);
#466=PRODUCT_DEFINITION_SHAPE('','',#467);
#467=PRODUCT_DEFINITION('','',#469,#468);
#468=PRODUCT_DEFINITION_CONTEXT('',#475,'design');
#469=PRODUCT_DEFINITION_FORMATION_WITH_SPECIFIED_SOURCE('','',#471,
 .NOT_KNOWN.);
#470=PRODUCT_RELATED_PRODUCT_CATEGORY('','',(#471));
#471=PRODUCT('Part 1','Part 1','Part 1',(#473));
#472=PRODUCT_CATEGORY('','');
#473=PRODUCT_CONTEXT('',#475,'mechanical');
#474=APPLICATION_PROTOCOL_DEFINITION('international standard',
'ap242_managed_model_based_3d_engineering',2020,#475);
#475=APPLICATION_CONTEXT('managed model based 3d engineering');
ENDSEC;
END-ISO-10303-21;
