ISO-10303-21;
HEADER;
/* Generated by software containing ST-Developer
 * from STEP Tools, Inc. (www.steptools.com) 
 */
/* OPTION: using custom renumber hook */

FILE_DESCRIPTION(
/* description */ ('STEP AP242 Edition 2',
'CAx-IF Rec.Pracs.---Representation and Presentation of Product Manufa
cturing Information (PMI)---4.0---2014-10-13',
'CAx-IF Rec.Pracs.---3D Tessellated Geometry---0.4---2014-09-14','2;1',
'CAx-IF Rec.Pracs.---User Defined Attributes---1.5---2016-08-15'),
/* implementation_level */ '2;1');

FILE_NAME(
/* name */ 'Base',
/* time_stamp */ '2026-08-07T02:52:53Z',
/* author */ (''),
/* organization */ (''),
/* preprocessor_version */ 'ST-DEVELOPER v20',
/* originating_system */ 'ONSHAPE BY PTC INC, 1.218',
/* authorisation */ '  ');

FILE_SCHEMA (('AP242_MANAGED_MODEL_BASED_3D_ENGINEERING_MIM_LF { 1 0 10303 442 3 1 4 }'));
ENDSEC;

DATA;
#10=PLANE('',#346);
#11=PLANE('',#351);
#12=PLANE('',#352);
#13=PLANE('',#355);
#14=PLANE('',#356);
#15=PLANE('',#357);
#16=PLANE('',#358);
#17=PLANE('',#360);
#18=PLANE('',#363);
#19=PLANE('',#364);
#20=PLANE('',#365);
#21=PLANE('',#366);
#22=B_SPLINE_CURVE_WITH_KNOTS('',3,(#471,#472,#473,#474,#475,#476,#477),
 .UNSPECIFIED.,.F.,.F.,(4,1,1,1,4),(0.,0.00250170437144343,0.00500340874288686,
0.00750511311433029,0.0100068174857737),.UNSPECIFIED.);
#23=B_SPLINE_CURVE_WITH_KNOTS('',3,(#485,#486,#487,#488,#489,#490,#491),
 .UNSPECIFIED.,.F.,.F.,(4,1,1,1,4),(3.68827667956241E-16,0.00250170437144368,
0.00500340874288698,0.00750511311433029,0.0100068174857736),
 .UNSPECIFIED.);
#24=B_SPLINE_CURVE_WITH_KNOTS('',3,(#505,#506,#507,#508,#509,#510,#511),
 .UNSPECIFIED.,.F.,.F.,(4,1,1,1,4),(0.,0.00250216938495968,0.00500433876991936,
0.00750650815487903,0.0100086775398387),.UNSPECIFIED.);
#25=B_SPLINE_CURVE_WITH_KNOTS('',3,(#519,#520,#521,#522,#523,#524,#525),
 .UNSPECIFIED.,.F.,.F.,(4,1,1,1,4),(3.68827667956241E-16,0.00250216938495995,
0.00500433876991953,0.00750650815487911,0.0100086775398387),
 .UNSPECIFIED.);
#26=LINE('',#463,#52);
#27=LINE('',#467,#53);
#28=LINE('',#468,#54);
#29=LINE('',#479,#55);
#30=LINE('',#483,#56);
#31=LINE('',#493,#57);
#32=LINE('',#497,#58);
#33=LINE('',#501,#59);
#34=LINE('',#503,#60);
#35=LINE('',#513,#61);
#36=LINE('',#517,#62);
#37=LINE('',#527,#63);
#38=LINE('',#531,#64);
#39=LINE('',#532,#65);
#40=LINE('',#537,#66);
#41=LINE('',#538,#67);
#42=LINE('',#542,#68);
#43=LINE('',#544,#69);
#44=LINE('',#547,#70);
#45=LINE('',#549,#71);
#46=LINE('',#551,#72);
#47=LINE('',#556,#73);
#48=LINE('',#558,#74);
#49=LINE('',#560,#75);
#50=LINE('',#562,#76);
#51=LINE('',#564,#77);
#52=VECTOR('',#379,1.);
#53=VECTOR('',#382,1.);
#54=VECTOR('',#383,1.);
#55=VECTOR('',#384,1.);
#56=VECTOR('',#387,1.);
#57=VECTOR('',#388,1.);
#58=VECTOR('',#393,1.);
#59=VECTOR('',#396,1.);
#60=VECTOR('',#399,1.);
#61=VECTOR('',#400,1.);
#62=VECTOR('',#403,1.);
#63=VECTOR('',#404,1.);
#64=VECTOR('',#409,1.);
#65=VECTOR('',#410,1.);
#66=VECTOR('',#417,1.);
#67=VECTOR('',#418,1.);
#68=VECTOR('',#425,1.);
#69=VECTOR('',#428,1.);
#70=VECTOR('',#433,1.);
#71=VECTOR('',#434,1.);
#72=VECTOR('',#435,1.);
#73=VECTOR('',#442,1.);
#74=VECTOR('',#443,1.);
#75=VECTOR('',#446,1.);
#76=VECTOR('',#447,1.);
#77=VECTOR('',#450,1.);
#78=ORIENTED_EDGE('',*,*,#156,.T.);
#79=ORIENTED_EDGE('',*,*,#157,.T.);
#80=ORIENTED_EDGE('',*,*,#158,.F.);
#81=ORIENTED_EDGE('',*,*,#159,.F.);
#82=ORIENTED_EDGE('',*,*,#160,.F.);
#83=ORIENTED_EDGE('',*,*,#161,.T.);
#84=ORIENTED_EDGE('',*,*,#162,.T.);
#85=ORIENTED_EDGE('',*,*,#163,.F.);
#86=ORIENTED_EDGE('',*,*,#164,.T.);
#87=ORIENTED_EDGE('',*,*,#165,.T.);
#88=ORIENTED_EDGE('',*,*,#166,.F.);
#89=ORIENTED_EDGE('',*,*,#167,.F.);
#90=ORIENTED_EDGE('',*,*,#167,.T.);
#91=ORIENTED_EDGE('',*,*,#168,.T.);
#92=ORIENTED_EDGE('',*,*,#169,.F.);
#93=ORIENTED_EDGE('',*,*,#170,.T.);
#94=ORIENTED_EDGE('',*,*,#171,.F.);
#95=ORIENTED_EDGE('',*,*,#172,.T.);
#96=ORIENTED_EDGE('',*,*,#173,.T.);
#97=ORIENTED_EDGE('',*,*,#174,.T.);
#98=ORIENTED_EDGE('',*,*,#175,.T.);
#99=ORIENTED_EDGE('',*,*,#176,.T.);
#100=ORIENTED_EDGE('',*,*,#177,.F.);
#101=ORIENTED_EDGE('',*,*,#169,.T.);
#102=ORIENTED_EDGE('',*,*,#178,.T.);
#103=ORIENTED_EDGE('',*,*,#179,.F.);
#104=ORIENTED_EDGE('',*,*,#163,.T.);
#105=ORIENTED_EDGE('',*,*,#180,.F.);
#106=ORIENTED_EDGE('',*,*,#174,.F.);
#107=ORIENTED_EDGE('',*,*,#178,.F.);
#108=ORIENTED_EDGE('',*,*,#181,.F.);
#109=ORIENTED_EDGE('',*,*,#182,.F.);
#110=ORIENTED_EDGE('',*,*,#176,.F.);
#111=ORIENTED_EDGE('',*,*,#183,.T.);
#112=ORIENTED_EDGE('',*,*,#161,.F.);
#113=ORIENTED_EDGE('',*,*,#183,.F.);
#114=ORIENTED_EDGE('',*,*,#175,.F.);
#115=ORIENTED_EDGE('',*,*,#180,.T.);
#116=ORIENTED_EDGE('',*,*,#162,.F.);
#117=ORIENTED_EDGE('',*,*,#160,.T.);
#118=ORIENTED_EDGE('',*,*,#170,.F.);
#119=ORIENTED_EDGE('',*,*,#177,.T.);
#120=ORIENTED_EDGE('',*,*,#182,.T.);
#121=ORIENTED_EDGE('',*,*,#166,.T.);
#122=ORIENTED_EDGE('',*,*,#184,.T.);
#123=ORIENTED_EDGE('',*,*,#171,.T.);
#124=ORIENTED_EDGE('',*,*,#168,.F.);
#125=ORIENTED_EDGE('',*,*,#179,.T.);
#126=ORIENTED_EDGE('',*,*,#173,.F.);
#127=ORIENTED_EDGE('',*,*,#185,.F.);
#128=ORIENTED_EDGE('',*,*,#164,.F.);
#129=ORIENTED_EDGE('',*,*,#185,.T.);
#130=ORIENTED_EDGE('',*,*,#172,.F.);
#131=ORIENTED_EDGE('',*,*,#184,.F.);
#132=ORIENTED_EDGE('',*,*,#165,.F.);
#133=ORIENTED_EDGE('',*,*,#186,.F.);
#134=ORIENTED_EDGE('',*,*,#187,.F.);
#135=ORIENTED_EDGE('',*,*,#188,.T.);
#136=ORIENTED_EDGE('',*,*,#156,.F.);
#137=ORIENTED_EDGE('',*,*,#189,.T.);
#138=ORIENTED_EDGE('',*,*,#189,.F.);
#139=ORIENTED_EDGE('',*,*,#181,.T.);
#140=ORIENTED_EDGE('',*,*,#157,.F.);
#141=ORIENTED_EDGE('',*,*,#188,.F.);
#142=ORIENTED_EDGE('',*,*,#190,.T.);
#143=ORIENTED_EDGE('',*,*,#191,.T.);
#144=ORIENTED_EDGE('',*,*,#192,.T.);
#145=ORIENTED_EDGE('',*,*,#193,.F.);
#146=ORIENTED_EDGE('',*,*,#190,.F.);
#147=ORIENTED_EDGE('',*,*,#187,.T.);
#148=ORIENTED_EDGE('',*,*,#194,.T.);
#149=ORIENTED_EDGE('',*,*,#158,.T.);
#150=ORIENTED_EDGE('',*,*,#191,.F.);
#151=ORIENTED_EDGE('',*,*,#193,.T.);
#152=ORIENTED_EDGE('',*,*,#186,.T.);
#153=ORIENTED_EDGE('',*,*,#159,.T.);
#154=ORIENTED_EDGE('',*,*,#194,.F.);
#155=ORIENTED_EDGE('',*,*,#192,.F.);
#156=EDGE_CURVE('',#239,#240,#195,.T.);
#157=EDGE_CURVE('',#240,#241,#26,.F.);
#158=EDGE_CURVE('',#242,#241,#196,.T.);
#159=EDGE_CURVE('',#239,#242,#27,.T.);
#160=EDGE_CURVE('',#243,#244,#28,.F.);
#161=EDGE_CURVE('',#243,#245,#22,.T.);
#162=EDGE_CURVE('',#245,#246,#29,.F.);
#163=EDGE_CURVE('',#247,#246,#197,.T.);
#164=EDGE_CURVE('',#247,#248,#30,.T.);
#165=EDGE_CURVE('',#248,#249,#23,.T.);
#166=EDGE_CURVE('',#250,#249,#31,.T.);
#167=EDGE_CURVE('',#244,#250,#198,.T.);
#168=EDGE_CURVE('',#250,#251,#32,.T.);
#169=EDGE_CURVE('',#252,#251,#199,.T.);
#170=EDGE_CURVE('',#252,#244,#33,.T.);
#171=EDGE_CURVE('',#253,#251,#34,.T.);
#172=EDGE_CURVE('',#253,#254,#24,.T.);
#173=EDGE_CURVE('',#254,#255,#35,.T.);
#174=EDGE_CURVE('',#255,#256,#200,.T.);
#175=EDGE_CURVE('',#256,#257,#36,.F.);
#176=EDGE_CURVE('',#257,#258,#25,.T.);
#177=EDGE_CURVE('',#252,#258,#37,.F.);
#178=EDGE_CURVE('',#259,#259,#201,.F.);
#179=EDGE_CURVE('',#247,#255,#38,.T.);
#180=EDGE_CURVE('',#256,#246,#39,.T.);
#181=EDGE_CURVE('',#260,#260,#202,.T.);
#182=EDGE_CURVE('',#258,#243,#40,.T.);
#183=EDGE_CURVE('',#257,#245,#41,.T.);
#184=EDGE_CURVE('',#249,#253,#42,.T.);
#185=EDGE_CURVE('',#248,#254,#43,.T.);
#186=EDGE_CURVE('',#261,#239,#44,.T.);
#187=EDGE_CURVE('',#262,#261,#45,.T.);
#188=EDGE_CURVE('',#262,#240,#46,.T.);
#189=EDGE_CURVE('',#263,#263,#203,.T.);
#190=EDGE_CURVE('',#262,#264,#47,.T.);
#191=EDGE_CURVE('',#264,#241,#48,.T.);
#192=EDGE_CURVE('',#261,#265,#49,.T.);
#193=EDGE_CURVE('',#264,#265,#50,.T.);
#194=EDGE_CURVE('',#265,#242,#51,.T.);
#195=CIRCLE('',#342,0.0381);
#196=CIRCLE('',#343,0.0381);
#197=CIRCLE('',#344,0.0381);
#198=CIRCLE('',#345,0.0381);
#199=CIRCLE('',#347,0.03175);
#200=CIRCLE('',#349,0.03175);
#201=CIRCLE('',#350,0.03175);
#202=CIRCLE('',#353,0.041275);
#203=CIRCLE('',#361,0.041275);
#204=EDGE_LOOP('',(#78,#79,#80,#81));
#205=EDGE_LOOP('',(#82,#83,#84,#85,#86,#87,#88,#89));
#206=EDGE_LOOP('',(#90,#91,#92,#93));
#207=EDGE_LOOP('',(#94,#95,#96,#97,#98,#99,#100,#101));
#208=EDGE_LOOP('',(#102));
#209=EDGE_LOOP('',(#103,#104,#105,#106));
#210=EDGE_LOOP('',(#107));
#211=EDGE_LOOP('',(#108));
#212=EDGE_LOOP('',(#109,#110,#111,#112));
#213=EDGE_LOOP('',(#113,#114,#115,#116));
#214=EDGE_LOOP('',(#117,#118,#119,#120));
#215=EDGE_LOOP('',(#121,#122,#123,#124));
#216=EDGE_LOOP('',(#125,#126,#127,#128));
#217=EDGE_LOOP('',(#129,#130,#131,#132));
#218=EDGE_LOOP('',(#133,#134,#135,#136));
#219=EDGE_LOOP('',(#137));
#220=EDGE_LOOP('',(#138));
#221=EDGE_LOOP('',(#139));
#222=EDGE_LOOP('',(#140,#141,#142,#143));
#223=EDGE_LOOP('',(#144,#145,#146,#147));
#224=EDGE_LOOP('',(#148,#149,#150,#151));
#225=EDGE_LOOP('',(#152,#153,#154,#155));
#226=CYLINDRICAL_SURFACE('',#341,0.0381);
#227=CYLINDRICAL_SURFACE('',#348,0.03175);
#228=CYLINDRICAL_SURFACE('',#354,0.00317524093656776);
#229=CYLINDRICAL_SURFACE('',#359,0.00317524093656776);
#230=CYLINDRICAL_SURFACE('',#362,0.041275);
#231=MANIFOLD_SOLID_BREP('Base',#315);
#232=SHAPE_REPRESENTATION_RELATIONSHIP('','',#335,#234);
#233=SHAPE_REPRESENTATION_RELATIONSHIP('','',#336,#235);
#234=ADVANCED_BREP_SHAPE_REPRESENTATION('',(#332),#568);
#235=ADVANCED_BREP_SHAPE_REPRESENTATION('',(#231),#569);
#236=ORIENTED_CLOSED_SHELL('',*,#314,.F.);
#237=VERTEX_POINT('',#455);
#238=VERTEX_POINT('',#457);
#239=VERTEX_POINT('',#461);
#240=VERTEX_POINT('',#462);
#241=VERTEX_POINT('',#464);
#242=VERTEX_POINT('',#466);
#243=VERTEX_POINT('',#469);
#244=VERTEX_POINT('',#470);
#245=VERTEX_POINT('',#478);
#246=VERTEX_POINT('',#480);
#247=VERTEX_POINT('',#482);
#248=VERTEX_POINT('',#484);
#249=VERTEX_POINT('',#492);
#250=VERTEX_POINT('',#494);
#251=VERTEX_POINT('',#498);
#252=VERTEX_POINT('',#500);
#253=VERTEX_POINT('',#504);
#254=VERTEX_POINT('',#512);
#255=VERTEX_POINT('',#514);
#256=VERTEX_POINT('',#516);
#257=VERTEX_POINT('',#518);
#258=VERTEX_POINT('',#526);
#259=VERTEX_POINT('',#529);
#260=VERTEX_POINT('',#535);
#261=VERTEX_POINT('',#548);
#262=VERTEX_POINT('',#550);
#263=VERTEX_POINT('',#553);
#264=VERTEX_POINT('',#557);
#265=VERTEX_POINT('',#561);
#266=VERTEX_LOOP('',#237);
#267=VERTEX_LOOP('',#238);
#268=FACE_BOUND('',#266,.T.);
#269=FACE_BOUND('',#267,.T.);
#270=FACE_BOUND('',#204,.T.);
#271=FACE_BOUND('',#205,.T.);
#272=FACE_BOUND('',#206,.T.);
#273=FACE_BOUND('',#207,.T.);
#274=FACE_BOUND('',#208,.T.);
#275=FACE_BOUND('',#209,.T.);
#276=FACE_BOUND('',#210,.T.);
#277=FACE_BOUND('',#211,.T.);
#278=FACE_BOUND('',#212,.T.);
#279=FACE_BOUND('',#213,.T.);
#280=FACE_BOUND('',#214,.T.);
#281=FACE_BOUND('',#215,.T.);
#282=FACE_BOUND('',#216,.T.);
#283=FACE_BOUND('',#217,.T.);
#284=FACE_BOUND('',#218,.T.);
#285=FACE_BOUND('',#219,.T.);
#286=FACE_BOUND('',#220,.T.);
#287=FACE_BOUND('',#221,.T.);
#288=FACE_BOUND('',#222,.T.);
#289=FACE_BOUND('',#223,.T.);
#290=FACE_BOUND('',#224,.T.);
#291=FACE_BOUND('',#225,.T.);
#292=TOROIDAL_SURFACE('',#338,0.0463418468853424,0.00605730311542848);
#293=TOROIDAL_SURFACE('',#339,0.0463418468853424,0.00351730311542848);
#294=ADVANCED_FACE('',(#268),#292,.T.);
#295=ADVANCED_FACE('',(#269),#293,.F.);
#296=ADVANCED_FACE('',(#270,#271),#226,.T.);
#297=ADVANCED_FACE('',(#272),#10,.T.);
#298=ADVANCED_FACE('',(#273,#274),#227,.F.);
#299=ADVANCED_FACE('',(#275),#11,.T.);
#300=ADVANCED_FACE('',(#276,#277),#12,.F.);
#301=ADVANCED_FACE('',(#278),#228,.F.);
#302=ADVANCED_FACE('',(#279),#13,.F.);
#303=ADVANCED_FACE('',(#280),#14,.T.);
#304=ADVANCED_FACE('',(#281),#15,.T.);
#305=ADVANCED_FACE('',(#282),#16,.F.);
#306=ADVANCED_FACE('',(#283),#229,.F.);
#307=ADVANCED_FACE('',(#284,#285),#17,.T.);
#308=ADVANCED_FACE('',(#286,#287),#230,.T.);
#309=ADVANCED_FACE('',(#288),#18,.T.);
#310=ADVANCED_FACE('',(#289),#19,.F.);
#311=ADVANCED_FACE('',(#290),#20,.F.);
#312=ADVANCED_FACE('',(#291),#21,.F.);
#313=CLOSED_SHELL('',(#294));
#314=CLOSED_SHELL('',(#295));
#315=CLOSED_SHELL('',(#296,#297,#298,#299,#300,#301,#302,#303,#304,#305,
#306,#307,#308,#309,#310,#311,#312));
#316=STYLED_ITEM('',(#318),#332);
#317=STYLED_ITEM('',(#319),#231);
#318=PRESENTATION_STYLE_ASSIGNMENT((#320));
#319=PRESENTATION_STYLE_ASSIGNMENT((#321));
#320=SURFACE_STYLE_USAGE(.BOTH.,#322);
#321=SURFACE_STYLE_USAGE(.BOTH.,#323);
#322=SURFACE_SIDE_STYLE('',(#324));
#323=SURFACE_SIDE_STYLE('',(#325));
#324=SURFACE_STYLE_FILL_AREA(#326);
#325=SURFACE_STYLE_FILL_AREA(#327);
#326=FILL_AREA_STYLE('',(#328));
#327=FILL_AREA_STYLE('',(#329));
#328=FILL_AREA_STYLE_COLOUR('',#330);
#329=FILL_AREA_STYLE_COLOUR('',#331);
#330=COLOUR_RGB('',0.513725490196078,0.415686274509804,0.733333333333333);
#331=COLOUR_RGB('',0.682352941176471,0.333333333333334,0.737254901960784);
#332=BREP_WITH_VOIDS('Floatation Ring',#313,(#236));
#333=SHAPE_DEFINITION_REPRESENTATION(#578,#335);
#334=SHAPE_DEFINITION_REPRESENTATION(#579,#336);
#335=SHAPE_REPRESENTATION('Floatation Ring',(#337),#568);
#336=SHAPE_REPRESENTATION('Base',(#340),#569);
#337=AXIS2_PLACEMENT_3D('',#453,#367,#368);
#338=AXIS2_PLACEMENT_3D('',#454,#369,#370);
#339=AXIS2_PLACEMENT_3D('',#456,#371,#372);
#340=AXIS2_PLACEMENT_3D('',#458,#373,#374);
#341=AXIS2_PLACEMENT_3D('',#459,#375,#376);
#342=AXIS2_PLACEMENT_3D('',#460,#377,#378);
#343=AXIS2_PLACEMENT_3D('',#465,#380,#381);
#344=AXIS2_PLACEMENT_3D('',#481,#385,#386);
#345=AXIS2_PLACEMENT_3D('',#495,#389,#390);
#346=AXIS2_PLACEMENT_3D('',#496,#391,#392);
#347=AXIS2_PLACEMENT_3D('',#499,#394,#395);
#348=AXIS2_PLACEMENT_3D('',#502,#397,#398);
#349=AXIS2_PLACEMENT_3D('',#515,#401,#402);
#350=AXIS2_PLACEMENT_3D('',#528,#405,#406);
#351=AXIS2_PLACEMENT_3D('',#530,#407,#408);
#352=AXIS2_PLACEMENT_3D('',#533,#411,#412);
#353=AXIS2_PLACEMENT_3D('',#534,#413,#414);
#354=AXIS2_PLACEMENT_3D('',#536,#415,#416);
#355=AXIS2_PLACEMENT_3D('',#539,#419,#420);
#356=AXIS2_PLACEMENT_3D('',#540,#421,#422);
#357=AXIS2_PLACEMENT_3D('',#541,#423,#424);
#358=AXIS2_PLACEMENT_3D('',#543,#426,#427);
#359=AXIS2_PLACEMENT_3D('',#545,#429,#430);
#360=AXIS2_PLACEMENT_3D('',#546,#431,#432);
#361=AXIS2_PLACEMENT_3D('',#552,#436,#437);
#362=AXIS2_PLACEMENT_3D('',#554,#438,#439);
#363=AXIS2_PLACEMENT_3D('',#555,#440,#441);
#364=AXIS2_PLACEMENT_3D('',#559,#444,#445);
#365=AXIS2_PLACEMENT_3D('',#563,#448,#449);
#366=AXIS2_PLACEMENT_3D('',#565,#451,#452);
#367=DIRECTION('',(0.,0.,1.));
#368=DIRECTION('',(1.,0.,0.));
#369=DIRECTION('',(0.,0.,-1.));
#370=DIRECTION('',(-1.,0.,0.));
#371=DIRECTION('',(0.,0.,-1.));
#372=DIRECTION('',(-1.,0.,0.));
#373=DIRECTION('',(0.,0.,1.));
#374=DIRECTION('',(1.,0.,0.));
#375=DIRECTION('',(0.,0.,-1.));
#376=DIRECTION('',(-1.,0.,0.));
#377=DIRECTION('',(0.,0.,1.));
#378=DIRECTION('',(1.,0.,0.));
#379=DIRECTION('',(0.,0.,-1.));
#380=DIRECTION('',(0.,0.,-1.));
#381=DIRECTION('',(-1.,0.,0.));
#382=DIRECTION('',(0.,0.,1.));
#383=DIRECTION('',(0.,0.,-1.));
#384=DIRECTION('',(0.,0.,-1.));
#385=DIRECTION('',(0.,0.,1.));
#386=DIRECTION('',(1.,0.,0.));
#387=DIRECTION('',(0.,0.,-1.));
#388=DIRECTION('',(0.,0.,-1.));
#389=DIRECTION('',(0.,0.,1.));
#390=DIRECTION('',(1.,0.,0.));
#391=DIRECTION('',(0.,0.,1.));
#392=DIRECTION('',(1.,0.,0.));
#393=DIRECTION('',(0.,-1.,0.));
#394=DIRECTION('',(0.,0.,1.));
#395=DIRECTION('',(1.,0.,0.));
#396=DIRECTION('',(0.,-1.,0.));
#397=DIRECTION('',(0.,0.,1.));
#398=DIRECTION('',(1.,0.,0.));
#399=DIRECTION('',(0.,0.,1.));
#400=DIRECTION('',(0.,0.,1.));
#401=DIRECTION('',(0.,0.,1.));
#402=DIRECTION('',(1.,0.,0.));
#403=DIRECTION('',(0.,0.,1.));
#404=DIRECTION('',(0.,0.,1.));
#405=DIRECTION('',(0.,0.,1.));
#406=DIRECTION('',(1.,0.,0.));
#407=DIRECTION('',(0.,0.,1.));
#408=DIRECTION('',(1.,0.,0.));
#409=DIRECTION('',(0.,-1.,0.));
#410=DIRECTION('',(0.,-1.,0.));
#411=DIRECTION('',(0.,0.,1.));
#412=DIRECTION('',(1.,0.,0.));
#413=DIRECTION('',(0.,0.,1.));
#414=DIRECTION('',(1.,0.,0.));
#415=DIRECTION('',(0.,-1.,0.));
#416=DIRECTION('',(0.,0.,-1.));
#417=DIRECTION('',(0.,-1.,0.));
#418=DIRECTION('',(0.,-1.,0.));
#419=DIRECTION('',(-1.,0.,6.74599888039912E-17));
#420=DIRECTION('',(6.74599888039912E-17,0.,1.));
#421=DIRECTION('',(-1.,0.,6.74599888039912E-17));
#422=DIRECTION('',(6.74599888039912E-17,0.,1.));
#423=DIRECTION('',(-1.,0.,6.74599888039912E-17));
#424=DIRECTION('',(6.74599888039912E-17,0.,1.));
#425=DIRECTION('',(0.,-1.,0.));
#426=DIRECTION('',(-1.,0.,6.74599888039912E-17));
#427=DIRECTION('',(6.74599888039912E-17,0.,1.));
#428=DIRECTION('',(0.,-1.,0.));
#429=DIRECTION('',(0.,-1.,0.));
#430=DIRECTION('',(0.,0.,-1.));
#431=DIRECTION('',(0.,0.,1.));
#432=DIRECTION('',(1.,0.,0.));
#433=DIRECTION('',(-1.,0.,0.));
#434=DIRECTION('',(0.,1.,0.));
#435=DIRECTION('',(-1.,0.,0.));
#436=DIRECTION('',(0.,0.,1.));
#437=DIRECTION('',(1.,0.,0.));
#438=DIRECTION('',(0.,0.,-1.));
#439=DIRECTION('',(-1.,0.,0.));
#440=DIRECTION('',(0.,-1.,0.));
#441=DIRECTION('',(1.,0.,0.));
#442=DIRECTION('',(0.,0.,1.));
#443=DIRECTION('',(-1.,0.,0.));
#444=DIRECTION('',(-1.,0.,0.));
#445=DIRECTION('',(0.,0.,1.));
#446=DIRECTION('',(0.,0.,1.));
#447=DIRECTION('',(0.,1.,0.));
#448=DIRECTION('',(0.,0.,-1.));
#449=DIRECTION('',(-1.,0.,0.));
#450=DIRECTION('',(-1.,0.,0.));
#451=DIRECTION('',(0.,-1.,0.));
#452=DIRECTION('',(1.,0.,0.));
#453=CARTESIAN_POINT('',(0.,0.,0.));
#454=CARTESIAN_POINT('',(0.,2.52736483174035E-18,0.00341548872626875));
#455=CARTESIAN_POINT('',(-0.0402845437699139,2.52736483174035E-18,0.00341548872626875));
#456=CARTESIAN_POINT('',(0.,2.52736483174035E-18,0.00341548872626875));
#457=CARTESIAN_POINT('',(-0.0428245437699139,2.52736483174035E-18,0.00341548872626875));
#458=CARTESIAN_POINT('',(0.,0.,0.));
#459=CARTESIAN_POINT('',(0.,2.33295215237571E-18,0.0254));
#460=CARTESIAN_POINT('',(0.,2.33295215237571E-18,0.00635));
#461=CARTESIAN_POINT('',(0.0380878876011975,0.000960634206421661,0.00635));
#462=CARTESIAN_POINT('',(0.0380987439793724,-0.000309365793578327,0.00635));
#463=CARTESIAN_POINT('',(0.0380987439793724,-0.000309365793578327,0.0254));
#464=CARTESIAN_POINT('',(0.0380987439793724,-0.000309365793578327,0.02286));
#465=CARTESIAN_POINT('',(0.,2.33295215237571E-18,0.02286));
#466=CARTESIAN_POINT('',(0.0380878876011975,0.000960634206421661,0.02286));
#467=CARTESIAN_POINT('',(0.0380878876011975,0.000960634206421661,-0.00254));
#468=CARTESIAN_POINT('',(0.003175,-0.037967477859347,0.0254));
#469=CARTESIAN_POINT('',(0.003175,-0.037967477859347,0.0159143562182784));
#470=CARTESIAN_POINT('',(0.003175,-0.037967477859347,0.0254));
#471=CARTESIAN_POINT('',(0.003175,-0.037967477859347,0.0159143562182784));
#472=CARTESIAN_POINT('',(0.00318542093834266,-0.0379666064167044,0.0150684853005202));
#473=CARTESIAN_POINT('',(0.00250648671528655,-0.0380326418007428,0.0134034365086363));
#474=CARTESIAN_POINT('',(3.72102272896543E-6,-0.0381336398843079,0.0123489494656034));
#475=CARTESIAN_POINT('',(-0.00250597999602897,-0.038032798143922,0.0134007718457314));
#476=CARTESIAN_POINT('',(-0.00318542091929997,-0.0379666064182968,0.015068486846031));
#477=CARTESIAN_POINT('',(-0.00317499999999765,-0.0379674778593472,0.0159143562182784));
#478=CARTESIAN_POINT('',(-0.003175,-0.037967477859347,0.0159143562182784));
#479=CARTESIAN_POINT('',(-0.003175,-0.037967477859347,0.0254));
#480=CARTESIAN_POINT('',(-0.003175,-0.037967477859347,0.0254));
#481=CARTESIAN_POINT('',(0.,2.33295215237571E-18,0.0254));
#482=CARTESIAN_POINT('',(-0.003175,0.037967477859347,0.0254));
#483=CARTESIAN_POINT('',(-0.003175,0.037967477859347,0.0254));
#484=CARTESIAN_POINT('',(-0.003175,0.0379674778593469,0.0159143562182784));
#485=CARTESIAN_POINT('',(-0.00317499999999765,0.0379674778593471,0.0159143562182784));
#486=CARTESIAN_POINT('',(-0.00318542093834031,0.0379666064167045,0.0150684853005203));
#487=CARTESIAN_POINT('',(-0.00250648671528395,0.038032641800743,0.0134034365086359));
#488=CARTESIAN_POINT('',(-3.72102272648317E-6,0.0381336398843078,0.0123489494656035));
#489=CARTESIAN_POINT('',(0.00250597999603128,0.0380327981439218,0.0134007718457313));
#490=CARTESIAN_POINT('',(0.00318542091930232,0.0379666064182966,0.015068486846031));
#491=CARTESIAN_POINT('',(0.003175,0.037967477859347,0.0159143562182784));
#492=CARTESIAN_POINT('',(0.003175,0.0379674778593469,0.0159143562182784));
#493=CARTESIAN_POINT('',(0.003175,0.037967477859347,0.0254));
#494=CARTESIAN_POINT('',(0.003175,0.037967477859347,0.0254));
#495=CARTESIAN_POINT('',(0.,2.33295215237571E-18,0.0254));
#496=CARTESIAN_POINT('',(0.,0.,0.0254));
#497=CARTESIAN_POINT('',(0.003175,0.,0.0254));
#498=CARTESIAN_POINT('',(0.003175,0.0315908511281352,0.0254));
#499=CARTESIAN_POINT('',(0.,4.27707894602213E-18,0.0254));
#500=CARTESIAN_POINT('',(0.003175,-0.0315908511281351,0.0254));
#501=CARTESIAN_POINT('',(0.003175,0.,0.0254));
#502=CARTESIAN_POINT('',(0.,4.27707894602213E-18,-1.99999999999853E-6));
#503=CARTESIAN_POINT('',(0.003175,0.0315908511281352,-1.99999999999875E-6));
#504=CARTESIAN_POINT('',(0.003175,0.0315908511281352,0.0159143562182784));
#505=CARTESIAN_POINT('',(0.003175,0.0315908511281352,0.0159143562182784));
#506=CARTESIAN_POINT('',(0.00318542302464894,0.031589803574743,0.0150683159543686));
#507=CARTESIAN_POINT('',(0.00250645524868868,0.0316691704354962,0.0134035122141357));
#508=CARTESIAN_POINT('',(3.78714411419815E-6,0.0317903687107259,0.0123488971240555));
#509=CARTESIAN_POINT('',(-0.00250604391626476,0.031669354086139,0.0134009056437815));
#510=CARTESIAN_POINT('',(-0.0031854230009226,0.0315898035771276,0.0150683178800524));
#511=CARTESIAN_POINT('',(-0.00317499999999765,0.0315908511281354,0.0159143562182784));
#512=CARTESIAN_POINT('',(-0.00317499999999765,0.0315908511281354,0.0159143562182784));
#513=CARTESIAN_POINT('',(-0.003175,0.0315908511281352,-1.99999999999832E-6));
#514=CARTESIAN_POINT('',(-0.003175,0.0315908511281352,0.0254));
#515=CARTESIAN_POINT('',(0.,4.27707894602213E-18,0.0254));
#516=CARTESIAN_POINT('',(-0.003175,-0.0315908511281351,0.0254));
#517=CARTESIAN_POINT('',(-0.003175,-0.0315908511281351,-1.99999999999832E-6));
#518=CARTESIAN_POINT('',(-0.003175,-0.0315908511281352,0.0159143562182784));
#519=CARTESIAN_POINT('',(-0.00317499999999765,-0.0315908511281354,0.0159143562182784));
#520=CARTESIAN_POINT('',(-0.00318542302464659,-0.0315898035747432,0.0150683159543686));
#521=CARTESIAN_POINT('',(-0.00250645524868606,-0.0316691704354964,0.0134035122141354));
#522=CARTESIAN_POINT('',(-3.78714411164662E-6,-0.0317903687107259,0.0123488971240556));
#523=CARTESIAN_POINT('',(0.00250604391626716,-0.0316693540861388,0.0134009056437816));
#524=CARTESIAN_POINT('',(0.00318542300092495,-0.0315898035771273,0.0150683178800524));
#525=CARTESIAN_POINT('',(0.003175,-0.0315908511281351,0.0159143562182784));
#526=CARTESIAN_POINT('',(0.003175,-0.0315908511281352,0.0159143562182784));
#527=CARTESIAN_POINT('',(0.003175,-0.0315908511281351,-1.99999999999875E-6));
#528=CARTESIAN_POINT('',(0.,4.27707894602213E-18,0.));
#529=CARTESIAN_POINT('',(0.03175,4.27707894602213E-18,0.));
#530=CARTESIAN_POINT('',(0.,0.,0.0254));
#531=CARTESIAN_POINT('',(-0.003175,0.,0.0254));
#532=CARTESIAN_POINT('',(-0.003175,0.,0.0254));
#533=CARTESIAN_POINT('',(0.,0.,0.));
#534=CARTESIAN_POINT('',(0.,2.52736483174035E-18,0.));
#535=CARTESIAN_POINT('',(0.041275,2.52736483174035E-18,0.));
#536=CARTESIAN_POINT('',(1.17288991019482E-15,0.110762254903207,0.0158752409365689));
#537=CARTESIAN_POINT('',(0.003175,0.110762254903207,0.0159143562182784));
#538=CARTESIAN_POINT('',(-0.003175,0.110762254903207,0.0159143562182784));
#539=CARTESIAN_POINT('',(-0.003175,0.110762254903207,0.0223430686548353));
#540=CARTESIAN_POINT('',(0.003175,0.110762254903207,0.0223430686548353));
#541=CARTESIAN_POINT('',(0.003175,0.110762254903207,0.0223430686548353));
#542=CARTESIAN_POINT('',(0.003175,0.110762254903207,0.0159143562182784));
#543=CARTESIAN_POINT('',(-0.003175,0.110762254903207,0.0223430686548353));
#544=CARTESIAN_POINT('',(-0.003175,0.110762254903207,0.0159143562182784));
#545=CARTESIAN_POINT('',(1.17288991019482E-15,0.110762254903207,0.0158752409365689));
#546=CARTESIAN_POINT('',(0.,0.,0.00635));
#547=CARTESIAN_POINT('',(0.,0.000960634206421673,0.00635));
#548=CARTESIAN_POINT('',(0.0393578876011975,0.000960634206421673,0.00635));
#549=CARTESIAN_POINT('',(0.0393578876011975,-0.000309365793578327,0.00635));
#550=CARTESIAN_POINT('',(0.0393578876011975,-0.000309365793578327,0.00635));
#551=CARTESIAN_POINT('',(0.,-0.000309365793578327,0.00635));
#552=CARTESIAN_POINT('',(0.,2.52736483174035E-18,0.00635));
#553=CARTESIAN_POINT('',(0.041275,2.52736483174035E-18,0.00635));
#554=CARTESIAN_POINT('',(0.,2.52736483174035E-18,0.00635));
#555=CARTESIAN_POINT('',(0.0387228876011975,-0.000309365793578327,0.014605));
#556=CARTESIAN_POINT('',(0.0393578876011975,-0.000309365793578327,-0.00254));
#557=CARTESIAN_POINT('',(0.0393578876011975,-0.000309365793578327,0.02286));
#558=CARTESIAN_POINT('',(0.0387228876011975,-0.000309365793578327,0.02286));
#559=CARTESIAN_POINT('',(0.0393578876011975,-0.000309365793578327,-0.00254));
#560=CARTESIAN_POINT('',(0.0393578876011975,0.000960634206421673,-0.00254));
#561=CARTESIAN_POINT('',(0.0393578876011975,0.000960634206421673,0.02286));
#562=CARTESIAN_POINT('',(0.0393578876011975,-0.000309365793578327,0.02286));
#563=CARTESIAN_POINT('',(0.0387228876011975,-0.000309365793578327,0.02286));
#564=CARTESIAN_POINT('',(0.0387228876011975,0.000960634206421673,0.02286));
#565=CARTESIAN_POINT('',(0.0387228876011975,0.000960634206421673,0.014605));
#566=MECHANICAL_DESIGN_GEOMETRIC_PRESENTATION_REPRESENTATION('',(#316),
#568);
#567=MECHANICAL_DESIGN_GEOMETRIC_PRESENTATION_REPRESENTATION('',(#317),
#569);
#568=(
GEOMETRIC_REPRESENTATION_CONTEXT(3)
GLOBAL_UNCERTAINTY_ASSIGNED_CONTEXT((#570))
GLOBAL_UNIT_ASSIGNED_CONTEXT((#576,#574,#572))
REPRESENTATION_CONTEXT('Floatation Ring','TOP_LEVEL_ASSEMBLY_PART')
);
#569=(
GEOMETRIC_REPRESENTATION_CONTEXT(3)
GLOBAL_UNCERTAINTY_ASSIGNED_CONTEXT((#571))
GLOBAL_UNIT_ASSIGNED_CONTEXT((#577,#575,#573))
REPRESENTATION_CONTEXT('Base','TOP_LEVEL_ASSEMBLY_PART')
);
#570=UNCERTAINTY_MEASURE_WITH_UNIT(LENGTH_MEASURE(1.E-8),#576,
'DISTANCE_ACCURACY_VALUE','Maximum Tolerance applied to model');
#571=UNCERTAINTY_MEASURE_WITH_UNIT(LENGTH_MEASURE(2.E-5),#577,
'DISTANCE_ACCURACY_VALUE','Maximum Tolerance applied to model');
#572=(
NAMED_UNIT(*)
SI_UNIT($,.STERADIAN.)
SOLID_ANGLE_UNIT()
);
#573=(
NAMED_UNIT(*)
SI_UNIT($,.STERADIAN.)
SOLID_ANGLE_UNIT()
);
#574=(
NAMED_UNIT(*)
PLANE_ANGLE_UNIT()
SI_UNIT($,.RADIAN.)
);
#575=(
NAMED_UNIT(*)
PLANE_ANGLE_UNIT()
SI_UNIT($,.RADIAN.)
);
#576=(
LENGTH_UNIT()
NAMED_UNIT(*)
SI_UNIT($,.METRE.)
);
#577=(
LENGTH_UNIT()
NAMED_UNIT(*)
SI_UNIT($,.METRE.)
);
#578=PRODUCT_DEFINITION_SHAPE('','',#580);
#579=PRODUCT_DEFINITION_SHAPE('','',#581);
#580=PRODUCT_DEFINITION('','',#584,#582);
#581=PRODUCT_DEFINITION('','',#585,#583);
#582=PRODUCT_DEFINITION_CONTEXT('',#596,'design');
#583=PRODUCT_DEFINITION_CONTEXT('',#597,'design');
#584=PRODUCT_DEFINITION_FORMATION_WITH_SPECIFIED_SOURCE('','',#588,
 .NOT_KNOWN.);
#585=PRODUCT_DEFINITION_FORMATION_WITH_SPECIFIED_SOURCE('','',#589,
 .NOT_KNOWN.);
#586=PRODUCT_RELATED_PRODUCT_CATEGORY('','',(#588));
#587=PRODUCT_RELATED_PRODUCT_CATEGORY('','',(#589));
#588=PRODUCT('Floatation Ring','Floatation Ring','Floatation Ring',(#592));
#589=PRODUCT('Base','Base','Base',(#593));
#590=PRODUCT_CATEGORY('','');
#591=PRODUCT_CATEGORY('','');
#592=PRODUCT_CONTEXT('',#596,'mechanical');
#593=PRODUCT_CONTEXT('',#597,'mechanical');
#594=APPLICATION_PROTOCOL_DEFINITION('international standard',
'ap242_managed_model_based_3d_engineering',2020,#596);
#595=APPLICATION_PROTOCOL_DEFINITION('international standard',
'ap242_managed_model_based_3d_engineering',2020,#597);
#596=APPLICATION_CONTEXT('managed model based 3d engineering');
#597=APPLICATION_CONTEXT('managed model based 3d engineering');
ENDSEC;
END-ISO-10303-21;
