ISO-10303-21;
HEADER;
/* Generated by software containing ST-Developer
 * from STEP Tools, Inc. (www.steptools.com) 
 */
/* OPTION: using custom renumber hook */

FILE_DESCRIPTION(
/* description */ ('STEP AP242 Edition 2',
'CAx-IF Rec.Pracs.---Representation and Presentation of Product Manufa
cturing Information (PMI)---4.0---2014-10-13',
'CAx-IF Rec.Pracs.---3D Tessellated Geometry---0.4---2014-09-14','2;1',
'CAx-IF Rec.Pracs.---User Defined Attributes---1.5---2016-08-15'),
/* implementation_level */ '2;1');

FILE_NAME(
/* name */ 'Top Head',
/* time_stamp */ '2026-08-07T02:56:13Z',
/* author */ (''),
/* organization */ (''),
/* preprocessor_version */ 'ST-DEVELOPER v20',
/* originating_system */ 'ONSHAPE BY PTC INC, 1.218',
/* authorisation */ '  ');

FILE_SCHEMA (('AP242_MANAGED_MODEL_BASED_3D_ENGINEERING_MIM_LF { 1 0 10303 442 3 1 4 }'));
ENDSEC;

DATA;
#10=SHAPE_REPRESENTATION_RELATIONSHIP('','',#448,#11);
#11=ADVANCED_BREP_SHAPE_REPRESENTATION('',(#446),#1250);
#12=B_SPLINE_CURVE_WITH_KNOTS('',3,(#948,#949,#950,#951,#952,#953,#954,
#955,#956,#957,#958,#959,#960,#961,#962,#963,#964,#965,#966,#967,#968),
 .UNSPECIFIED.,.T.,.F.,(1,1,1,1,1,1,1,1,1,1,1,1,1,1,1,1,1,1,1,1,1,1,1,1,
1),(-0.00488186922953705,-0.00244093461476852,-0.00122046730738426,1.89196028869934E-18,
0.00122046730738426,0.00244093461476852,0.00488186922953705,0.00732280384430557,
0.00976373845907409,0.0122046730738426,0.0146456076886111,0.0170865423033797,
0.0195274769181482,0.0219684115329167,0.0244093461476852,0.0268502807624537,
0.0292912153772223,0.0317321499919908,0.0341730846067593,0.0366140192215278,
0.0378344865289121,0.0390549538362964,0.0402754211436806,0.0414958884510649,
0.0439368230658334),.UNSPECIFIED.);
#13=B_SPLINE_CURVE_WITH_KNOTS('',3,(#970,#971,#972,#973,#974,#975,#976,
#977,#978,#979,#980,#981,#982,#983,#984,#985,#986,#987,#988,#989,#990),
 .UNSPECIFIED.,.T.,.F.,(1,1,1,1,1,1,1,1,1,1,1,1,1,1,1,1,1,1,1,1,1,1,1,1,
1),(-0.00734290479982651,-0.00489526986655101,-0.00244763493327551,2.19963985555828E-18,
0.00244763493327551,0.00489526986655101,0.00734290479982652,0.00979053973310202,
0.0122381746663775,0.014685809599653,0.0171334445329285,0.0183572619995663,
0.019581079466204,0.0208048969328418,0.0220287143994796,0.0244763493327551,
0.0269239842660306,0.0293716191993061,0.0318192541325816,0.0342668890658571,
0.0367145239991326,0.0391621589324081,0.0416097938656836,0.0440574287989591,
0.0465050637322346),.UNSPECIFIED.);
#14=B_SPLINE_CURVE_WITH_KNOTS('',3,(#1163,#1164,#1165,#1166,#1167,#1168,
#1169,#1170,#1171,#1172,#1173,#1174,#1175,#1176,#1177,#1178,#1179,#1180,
#1181,#1182,#1183,#1184,#1185,#1186,#1187),.UNSPECIFIED.,.T.,.F.,(1,1,1,
1,1,1,1,1,1,1,1,1,1,1,1,1,1,1,1,1,1,1,1,1,1,1,1,1,1),(-0.00400572287245303,
-0.00267048191496866,-0.00133524095748429,7.1518777664989E-17,0.00133524095748444,
0.0026704819149688,0.00400572287245317,0.00534096382993753,0.00801144574490626,
0.010681927659875,0.0133524095748437,0.0160228914898125,0.0186933734047812,
0.0200286143622656,0.0213638553197499,0.0226990962772343,0.0240343372347186,
0.0267048191496874,0.0293753010646561,0.0320457829796248,0.0347162648945936,
0.0373867468095623,0.0387219877670467,0.040057228724531,0.0413924696820154,
0.0427277106394998,0.0440629515969841,0.0453981925544685,0.0467334335119529),
 .UNSPECIFIED.);
#15=B_SPLINE_CURVE_WITH_KNOTS('',3,(#1189,#1190,#1191,#1192,#1193,#1194,
#1195,#1196,#1197,#1198,#1199,#1200,#1201,#1202,#1203,#1204,#1205,#1206,
#1207,#1208,#1209,#1210,#1211,#1212),.UNSPECIFIED.,.T.,.F.,(1,1,1,1,1,1,
1,1,1,1,1,1,1,1,1,1,1,1,1,1,1,1,1,1,1,1,1,1),(-0.00803069248212335,-0.00535379498808223,
-0.00267689749404111,2.0057309558922E-18,0.00133844874702056,0.00267689749404112,
0.00535379498808223,0.00803069248212335,0.0107075899761645,0.0133844874702056,
0.0160613849642467,0.0173998337112672,0.0187382824582878,0.0200767312053084,
0.0214151799523289,0.0227536286993495,0.02409207744637,0.0254305261933906,
0.0267689749404111,0.0294458724344523,0.0321227699284934,0.0347996674225345,
0.0374765649165756,0.0401534624106167,0.0428303599046578,0.0441688086516784,
0.045507257398699,0.0481841548927401),.UNSPECIFIED.);
#16=VERTEX_LOOP('',#254);
#17=VERTEX_LOOP('',#259);
#18=B_SPLINE_SURFACE_WITH_KNOTS('',3,3,((#698,#699,#700,#701,#702,#703,
#704,#705,#706,#707,#708,#709,#710,#711,#712,#713,#714,#715,#716),(#717,
#718,#719,#720,#721,#722,#723,#724,#725,#726,#727,#728,#729,#730,#731,#732,
#733,#734,#735),(#736,#737,#738,#739,#740,#741,#742,#743,#744,#745,#746,
#747,#748,#749,#750,#751,#752,#753,#754),(#755,#756,#757,#758,#759,#760,
#761,#762,#763,#764,#765,#766,#767,#768,#769,#770,#771,#772,#773),(#774,
#775,#776,#777,#778,#779,#780,#781,#782,#783,#784,#785,#786,#787,#788,#789,
#790,#791,#792),(#793,#794,#795,#796,#797,#798,#799,#800,#801,#802,#803,
#804,#805,#806,#807,#808,#809,#810,#811),(#812,#813,#814,#815,#816,#817,
#818,#819,#820,#821,#822,#823,#824,#825,#826,#827,#828,#829,#830),(#831,
#832,#833,#834,#835,#836,#837,#838,#839,#840,#841,#842,#843,#844,#845,#846,
#847,#848,#849),(#850,#851,#852,#853,#854,#855,#856,#857,#858,#859,#860,
#861,#862,#863,#864,#865,#866,#867,#868)),.UNSPECIFIED.,.F.,.T.,.F.,(4,
1,1,1,1,1,4),(1,1,1,1,1,1,1,1,1,1,1,1,1,1,1,1,1,1,1,1,1,1,1),(0.,0.25,0.375,
0.5,0.625,0.75,1.),(-1.17809724509617,-0.785398163397448,-0.392699081698725,
0.,0.392699081698724,0.785398163397448,1.17809724509617,1.5707963267949,
1.96349540849362,2.35619449019234,2.74889357189107,3.14159265358979,3.53429173528852,
3.92699081698724,4.31968989868597,4.71238898038469,5.10508806208341,5.49778714378214,
5.89048622548086,6.28318530717959,6.67588438887831,7.06858347057703,7.46128255227576),
 .UNSPECIFIED.);
#19=B_SPLINE_SURFACE_WITH_KNOTS('',3,3,((#872,#873,#874,#875,#876,#877,
#878,#879,#880,#881,#882,#883,#884,#885,#886,#887,#888,#889,#890),(#891,
#892,#893,#894,#895,#896,#897,#898,#899,#900,#901,#902,#903,#904,#905,#906,
#907,#908,#909),(#910,#911,#912,#913,#914,#915,#916,#917,#918,#919,#920,
#921,#922,#923,#924,#925,#926,#927,#928),(#929,#930,#931,#932,#933,#934,
#935,#936,#937,#938,#939,#940,#941,#942,#943,#944,#945,#946,#947)),
 .UNSPECIFIED.,.F.,.T.,.F.,(4,4),(1,1,1,1,1,1,1,1,1,1,1,1,1,1,1,1,1,1,1,
1,1,1,1),(0.1745131378501,1.),(-1.17809724509617,-0.785398163397448,-0.392699081698725,
0.,0.392699081698724,0.785398163397448,1.17809724509617,1.5707963267949,
1.96349540849362,2.35619449019234,2.74889357189107,3.14159265358979,3.53429173528852,
3.92699081698724,4.31968989868597,4.71238898038469,5.10508806208341,5.49778714378214,
5.89048622548086,6.28318530717959,6.67588438887831,7.06858347057703,7.46128255227576),
 .UNSPECIFIED.);
#20=B_SPLINE_SURFACE_WITH_KNOTS('',3,3,((#992,#993,#994,#995,#996,#997,
#998,#999,#1000,#1001,#1002,#1003,#1004,#1005,#1006,#1007,#1008,#1009,#1010),
(#1011,#1012,#1013,#1014,#1015,#1016,#1017,#1018,#1019,#1020,#1021,#1022,
#1023,#1024,#1025,#1026,#1027,#1028,#1029),(#1030,#1031,#1032,#1033,#1034,
#1035,#1036,#1037,#1038,#1039,#1040,#1041,#1042,#1043,#1044,#1045,#1046,
#1047,#1048),(#1049,#1050,#1051,#1052,#1053,#1054,#1055,#1056,#1057,#1058,
#1059,#1060,#1061,#1062,#1063,#1064,#1065,#1066,#1067),(#1068,#1069,#1070,
#1071,#1072,#1073,#1074,#1075,#1076,#1077,#1078,#1079,#1080,#1081,#1082,
#1083,#1084,#1085,#1086),(#1087,#1088,#1089,#1090,#1091,#1092,#1093,#1094,
#1095,#1096,#1097,#1098,#1099,#1100,#1101,#1102,#1103,#1104,#1105),(#1106,
#1107,#1108,#1109,#1110,#1111,#1112,#1113,#1114,#1115,#1116,#1117,#1118,
#1119,#1120,#1121,#1122,#1123,#1124),(#1125,#1126,#1127,#1128,#1129,#1130,
#1131,#1132,#1133,#1134,#1135,#1136,#1137,#1138,#1139,#1140,#1141,#1142,
#1143),(#1144,#1145,#1146,#1147,#1148,#1149,#1150,#1151,#1152,#1153,#1154,
#1155,#1156,#1157,#1158,#1159,#1160,#1161,#1162)),.UNSPECIFIED.,.F.,.T.,
 .F.,(4,1,1,1,1,1,4),(1,1,1,1,1,1,1,1,1,1,1,1,1,1,1,1,1,1,1,1,1,1,1),(0.,
0.249031100242906,0.373546650364359,0.498062200485812,0.622577750607265,
0.747093300728718,0.996124400971624),(-1.17809724509617,-0.785398163397448,
-0.392699081698725,0.,0.392699081698724,0.785398163397448,1.17809724509617,
1.5707963267949,1.96349540849362,2.35619449019234,2.74889357189107,3.14159265358979,
3.53429173528852,3.92699081698724,4.31968989868597,4.71238898038469,5.10508806208341,
5.49778714378214,5.89048622548086,6.28318530717959,6.67588438887831,7.06858347057703,
7.46128255227576),.UNSPECIFIED.);
#21=ELLIPSE('',#463,1.21920000000002,0.0381);
#22=ELLIPSE('',#465,1.21920000000001,0.0381);
#23=ELLIPSE('',#467,1.21920000000001,0.0381);
#24=ELLIPSE('',#469,1.21920000000002,0.0381);
#25=ELLIPSE('',#471,1.32080000000002,0.041275);
#26=ELLIPSE('',#473,1.32080000000003,0.041275);
#27=ELLIPSE('',#474,1.32080000000003,0.041275);
#28=ELLIPSE('',#476,1.32080000000002,0.041275);
#29=CYLINDRICAL_SURFACE('',#461,0.0381);
#30=CYLINDRICAL_SURFACE('',#470,0.041275);
#31=CYLINDRICAL_SURFACE('',#481,0.00508);
#32=CYLINDRICAL_SURFACE('',#482,0.00508);
#33=CIRCLE('',#451,0.0381);
#34=CIRCLE('',#452,0.041275);
#35=CIRCLE('',#453,0.0381);
#36=CIRCLE('',#455,0.0381);
#37=CIRCLE('',#456,0.041275);
#38=CIRCLE('',#457,0.0381);
#39=CIRCLE('',#459,0.0384542923601354);
#40=CIRCLE('',#460,0.0381);
#41=CIRCLE('',#462,0.0380999999999984);
#42=CIRCLE('',#464,0.0381);
#43=CIRCLE('',#466,0.0381);
#44=CIRCLE('',#468,0.0381);
#45=CIRCLE('',#472,0.041275);
#46=CIRCLE('',#475,0.041275);
#47=CIRCLE('',#477,0.041275);
#48=CIRCLE('',#479,0.0411890322985108);
#49=CIRCLE('',#480,0.011225815793128);
#50=ORIENTED_EDGE('',*,*,#164,.F.);
#51=ORIENTED_EDGE('',*,*,#165,.F.);
#52=ORIENTED_EDGE('',*,*,#166,.T.);
#53=ORIENTED_EDGE('',*,*,#167,.T.);
#54=ORIENTED_EDGE('',*,*,#168,.T.);
#55=ORIENTED_EDGE('',*,*,#169,.F.);
#56=ORIENTED_EDGE('',*,*,#170,.T.);
#57=ORIENTED_EDGE('',*,*,#171,.T.);
#58=ORIENTED_EDGE('',*,*,#172,.T.);
#59=ORIENTED_EDGE('',*,*,#173,.T.);
#60=ORIENTED_EDGE('',*,*,#174,.T.);
#61=ORIENTED_EDGE('',*,*,#175,.F.);
#62=ORIENTED_EDGE('',*,*,#176,.F.);
#63=ORIENTED_EDGE('',*,*,#177,.F.);
#64=ORIENTED_EDGE('',*,*,#178,.T.);
#65=ORIENTED_EDGE('',*,*,#179,.F.);
#66=ORIENTED_EDGE('',*,*,#180,.F.);
#67=ORIENTED_EDGE('',*,*,#181,.F.);
#68=ORIENTED_EDGE('',*,*,#174,.F.);
#69=ORIENTED_EDGE('',*,*,#182,.T.);
#70=ORIENTED_EDGE('',*,*,#183,.F.);
#71=ORIENTED_EDGE('',*,*,#184,.F.);
#72=ORIENTED_EDGE('',*,*,#178,.F.);
#73=ORIENTED_EDGE('',*,*,#185,.F.);
#74=ORIENTED_EDGE('',*,*,#186,.F.);
#75=ORIENTED_EDGE('',*,*,#187,.T.);
#76=ORIENTED_EDGE('',*,*,#167,.F.);
#77=ORIENTED_EDGE('',*,*,#188,.T.);
#78=ORIENTED_EDGE('',*,*,#189,.F.);
#79=ORIENTED_EDGE('',*,*,#190,.F.);
#80=ORIENTED_EDGE('',*,*,#171,.F.);
#81=ORIENTED_EDGE('',*,*,#191,.T.);
#82=ORIENTED_EDGE('',*,*,#192,.F.);
#83=ORIENTED_EDGE('',*,*,#193,.F.);
#84=ORIENTED_EDGE('',*,*,#181,.T.);
#85=ORIENTED_EDGE('',*,*,#194,.F.);
#86=ORIENTED_EDGE('',*,*,#195,.T.);
#87=ORIENTED_EDGE('',*,*,#196,.T.);
#88=ORIENTED_EDGE('',*,*,#176,.T.);
#89=ORIENTED_EDGE('',*,*,#197,.T.);
#90=ORIENTED_EDGE('',*,*,#198,.T.);
#91=ORIENTED_EDGE('',*,*,#199,.F.);
#92=ORIENTED_EDGE('',*,*,#169,.T.);
#93=ORIENTED_EDGE('',*,*,#200,.F.);
#94=ORIENTED_EDGE('',*,*,#201,.F.);
#95=ORIENTED_EDGE('',*,*,#200,.T.);
#96=ORIENTED_EDGE('',*,*,#202,.F.);
#97=ORIENTED_EDGE('',*,*,#203,.T.);
#98=ORIENTED_EDGE('',*,*,#204,.T.);
#99=ORIENTED_EDGE('',*,*,#201,.T.);
#100=ORIENTED_EDGE('',*,*,#202,.T.);
#101=ORIENTED_EDGE('',*,*,#205,.F.);
#102=ORIENTED_EDGE('',*,*,#206,.F.);
#103=ORIENTED_EDGE('',*,*,#180,.T.);
#104=ORIENTED_EDGE('',*,*,#206,.T.);
#105=ORIENTED_EDGE('',*,*,#204,.F.);
#106=ORIENTED_EDGE('',*,*,#205,.T.);
#107=ORIENTED_EDGE('',*,*,#203,.F.);
#108=ORIENTED_EDGE('',*,*,#185,.T.);
#109=ORIENTED_EDGE('',*,*,#177,.T.);
#110=ORIENTED_EDGE('',*,*,#196,.F.);
#111=ORIENTED_EDGE('',*,*,#207,.F.);
#112=ORIENTED_EDGE('',*,*,#208,.T.);
#113=ORIENTED_EDGE('',*,*,#194,.T.);
#114=ORIENTED_EDGE('',*,*,#168,.F.);
#115=ORIENTED_EDGE('',*,*,#187,.F.);
#116=ORIENTED_EDGE('',*,*,#186,.T.);
#117=ORIENTED_EDGE('',*,*,#207,.T.);
#118=ORIENTED_EDGE('',*,*,#195,.F.);
#119=ORIENTED_EDGE('',*,*,#208,.F.);
#120=ORIENTED_EDGE('',*,*,#192,.T.);
#121=ORIENTED_EDGE('',*,*,#209,.F.);
#122=ORIENTED_EDGE('',*,*,#198,.F.);
#123=ORIENTED_EDGE('',*,*,#210,.T.);
#124=ORIENTED_EDGE('',*,*,#170,.F.);
#125=ORIENTED_EDGE('',*,*,#199,.T.);
#126=ORIENTED_EDGE('',*,*,#209,.T.);
#127=ORIENTED_EDGE('',*,*,#191,.F.);
#128=ORIENTED_EDGE('',*,*,#193,.T.);
#129=ORIENTED_EDGE('',*,*,#210,.F.);
#130=ORIENTED_EDGE('',*,*,#197,.F.);
#131=ORIENTED_EDGE('',*,*,#175,.T.);
#132=ORIENTED_EDGE('',*,*,#164,.T.);
#133=ORIENTED_EDGE('',*,*,#190,.T.);
#134=ORIENTED_EDGE('',*,*,#211,.F.);
#135=ORIENTED_EDGE('',*,*,#212,.F.);
#136=ORIENTED_EDGE('',*,*,#165,.T.);
#137=ORIENTED_EDGE('',*,*,#212,.T.);
#138=ORIENTED_EDGE('',*,*,#213,.F.);
#139=ORIENTED_EDGE('',*,*,#214,.F.);
#140=ORIENTED_EDGE('',*,*,#214,.T.);
#141=ORIENTED_EDGE('',*,*,#215,.T.);
#142=ORIENTED_EDGE('',*,*,#188,.F.);
#143=ORIENTED_EDGE('',*,*,#166,.F.);
#144=ORIENTED_EDGE('',*,*,#211,.T.);
#145=ORIENTED_EDGE('',*,*,#189,.T.);
#146=ORIENTED_EDGE('',*,*,#215,.F.);
#147=ORIENTED_EDGE('',*,*,#213,.T.);
#148=ORIENTED_EDGE('',*,*,#216,.T.);
#149=ORIENTED_EDGE('',*,*,#217,.T.);
#150=ORIENTED_EDGE('',*,*,#218,.F.);
#151=ORIENTED_EDGE('',*,*,#172,.F.);
#152=ORIENTED_EDGE('',*,*,#218,.T.);
#153=ORIENTED_EDGE('',*,*,#219,.T.);
#154=ORIENTED_EDGE('',*,*,#182,.F.);
#155=ORIENTED_EDGE('',*,*,#173,.F.);
#156=ORIENTED_EDGE('',*,*,#179,.T.);
#157=ORIENTED_EDGE('',*,*,#184,.T.);
#158=ORIENTED_EDGE('',*,*,#220,.F.);
#159=ORIENTED_EDGE('',*,*,#216,.F.);
#160=ORIENTED_EDGE('',*,*,#217,.F.);
#161=ORIENTED_EDGE('',*,*,#220,.T.);
#162=ORIENTED_EDGE('',*,*,#183,.T.);
#163=ORIENTED_EDGE('',*,*,#219,.F.);
#164=EDGE_CURVE('',#221,#222,#264,.T.);
#165=EDGE_CURVE('',#223,#221,#265,.T.);
#166=EDGE_CURVE('',#223,#224,#266,.T.);
#167=EDGE_CURVE('',#224,#225,#33,.T.);
#168=EDGE_CURVE('',#225,#226,#267,.T.);
#169=EDGE_CURVE('',#227,#226,#34,.T.);
#170=EDGE_CURVE('',#227,#228,#268,.T.);
#171=EDGE_CURVE('',#228,#222,#35,.T.);
#172=EDGE_CURVE('',#229,#230,#269,.T.);
#173=EDGE_CURVE('',#230,#231,#270,.T.);
#174=EDGE_CURVE('',#231,#232,#36,.T.);
#175=EDGE_CURVE('',#233,#232,#271,.T.);
#176=EDGE_CURVE('',#234,#233,#37,.T.);
#177=EDGE_CURVE('',#235,#234,#272,.T.);
#178=EDGE_CURVE('',#235,#236,#38,.T.);
#179=EDGE_CURVE('',#229,#236,#273,.T.);
#180=EDGE_CURVE('',#237,#237,#39,.T.);
#181=EDGE_CURVE('',#238,#238,#40,.T.);
#182=EDGE_CURVE('',#231,#239,#274,.T.);
#183=EDGE_CURVE('',#240,#239,#41,.T.);
#184=EDGE_CURVE('',#236,#240,#275,.T.);
#185=EDGE_CURVE('',#241,#235,#21,.F.);
#186=EDGE_CURVE('',#242,#241,#42,.F.);
#187=EDGE_CURVE('',#242,#225,#22,.F.);
#188=EDGE_CURVE('',#224,#243,#276,.T.);
#189=EDGE_CURVE('',#244,#243,#43,.T.);
#190=EDGE_CURVE('',#222,#244,#277,.T.);
#191=EDGE_CURVE('',#228,#245,#23,.F.);
#192=EDGE_CURVE('',#246,#245,#44,.F.);
#193=EDGE_CURVE('',#232,#246,#24,.F.);
#194=EDGE_CURVE('',#247,#226,#25,.F.);
#195=EDGE_CURVE('',#247,#248,#45,.F.);
#196=EDGE_CURVE('',#248,#234,#26,.F.);
#197=EDGE_CURVE('',#233,#249,#27,.F.);
#198=EDGE_CURVE('',#249,#250,#46,.F.);
#199=EDGE_CURVE('',#227,#250,#28,.F.);
#200=EDGE_CURVE('',#251,#251,#47,.T.);
#201=EDGE_CURVE('',#252,#252,#48,.T.);
#202=EDGE_CURVE('',#253,#253,#49,.T.);
#203=EDGE_CURVE('',#255,#255,#12,.T.);
#204=EDGE_CURVE('',#256,#256,#13,.T.);
#205=EDGE_CURVE('',#257,#257,#14,.T.);
#206=EDGE_CURVE('',#258,#258,#15,.T.);
#207=EDGE_CURVE('',#241,#248,#278,.T.);
#208=EDGE_CURVE('',#242,#247,#279,.T.);
#209=EDGE_CURVE('',#250,#245,#280,.T.);
#210=EDGE_CURVE('',#249,#246,#281,.T.);
#211=EDGE_CURVE('',#260,#244,#282,.T.);
#212=EDGE_CURVE('',#221,#260,#283,.T.);
#213=EDGE_CURVE('',#261,#260,#284,.T.);
#214=EDGE_CURVE('',#223,#261,#285,.T.);
#215=EDGE_CURVE('',#261,#243,#286,.T.);
#216=EDGE_CURVE('',#229,#262,#287,.T.);
#217=EDGE_CURVE('',#262,#263,#288,.T.);
#218=EDGE_CURVE('',#230,#263,#289,.T.);
#219=EDGE_CURVE('',#263,#239,#290,.T.);
#220=EDGE_CURVE('',#262,#240,#291,.T.);
#221=VERTEX_POINT('',#624);
#222=VERTEX_POINT('',#625);
#223=VERTEX_POINT('',#627);
#224=VERTEX_POINT('',#629);
#225=VERTEX_POINT('',#631);
#226=VERTEX_POINT('',#633);
#227=VERTEX_POINT('',#635);
#228=VERTEX_POINT('',#637);
#229=VERTEX_POINT('',#641);
#230=VERTEX_POINT('',#642);
#231=VERTEX_POINT('',#644);
#232=VERTEX_POINT('',#646);
#233=VERTEX_POINT('',#648);
#234=VERTEX_POINT('',#650);
#235=VERTEX_POINT('',#652);
#236=VERTEX_POINT('',#654);
#237=VERTEX_POINT('',#658);
#238=VERTEX_POINT('',#660);
#239=VERTEX_POINT('',#663);
#240=VERTEX_POINT('',#665);
#241=VERTEX_POINT('',#668);
#242=VERTEX_POINT('',#670);
#243=VERTEX_POINT('',#673);
#244=VERTEX_POINT('',#675);
#245=VERTEX_POINT('',#678);
#246=VERTEX_POINT('',#680);
#247=VERTEX_POINT('',#684);
#248=VERTEX_POINT('',#686);
#249=VERTEX_POINT('',#689);
#250=VERTEX_POINT('',#691);
#251=VERTEX_POINT('',#694);
#252=VERTEX_POINT('',#697);
#253=VERTEX_POINT('',#870);
#254=VERTEX_POINT('',#871);
#255=VERTEX_POINT('',#969);
#256=VERTEX_POINT('',#991);
#257=VERTEX_POINT('',#1188);
#258=VERTEX_POINT('',#1213);
#259=VERTEX_POINT('',#1214);
#260=VERTEX_POINT('',#1229);
#261=VERTEX_POINT('',#1233);
#262=VERTEX_POINT('',#1240);
#263=VERTEX_POINT('',#1242);
#264=LINE('',#623,#292);
#265=LINE('',#626,#293);
#266=LINE('',#628,#294);
#267=LINE('',#632,#295);
#268=LINE('',#636,#296);
#269=LINE('',#640,#297);
#270=LINE('',#643,#298);
#271=LINE('',#647,#299);
#272=LINE('',#651,#300);
#273=LINE('',#655,#301);
#274=LINE('',#662,#302);
#275=LINE('',#666,#303);
#276=LINE('',#672,#304);
#277=LINE('',#676,#305);
#278=LINE('',#1218,#306);
#279=LINE('',#1220,#307);
#280=LINE('',#1223,#308);
#281=LINE('',#1224,#309);
#282=LINE('',#1228,#310);
#283=LINE('',#1230,#311);
#284=LINE('',#1232,#312);
#285=LINE('',#1234,#313);
#286=LINE('',#1236,#314);
#287=LINE('',#1239,#315);
#288=LINE('',#1241,#316);
#289=LINE('',#1243,#317);
#290=LINE('',#1245,#318);
#291=LINE('',#1247,#319);
#292=VECTOR('',#501,1.);
#293=VECTOR('',#502,1.);
#294=VECTOR('',#503,1.);
#295=VECTOR('',#506,1.);
#296=VECTOR('',#509,1.);
#297=VECTOR('',#514,1.);
#298=VECTOR('',#515,1.);
#299=VECTOR('',#518,1.);
#300=VECTOR('',#521,1.);
#301=VECTOR('',#524,1.);
#302=VECTOR('',#533,1.);
#303=VECTOR('',#536,1.);
#304=VECTOR('',#543,1.);
#305=VECTOR('',#546,1.);
#306=VECTOR('',#581,1.);
#307=VECTOR('',#584,1.);
#308=VECTOR('',#589,1.);
#309=VECTOR('',#590,1.);
#310=VECTOR('',#597,1.);
#311=VECTOR('',#598,1.);
#312=VECTOR('',#601,1.);
#313=VECTOR('',#602,1.);
#314=VECTOR('',#605,1.);
#315=VECTOR('',#610,1.);
#316=VECTOR('',#611,1.);
#317=VECTOR('',#612,1.);
#318=VECTOR('',#615,1.);
#319=VECTOR('',#618,1.);
#320=EDGE_LOOP('',(#50,#51,#52,#53,#54,#55,#56,#57));
#321=EDGE_LOOP('',(#58,#59,#60,#61,#62,#63,#64,#65));
#322=EDGE_LOOP('',(#66));
#323=EDGE_LOOP('',(#67));
#324=EDGE_LOOP('',(#68,#69,#70,#71,#72,#73,#74,#75,#76,#77,#78,#79,#80,
#81,#82,#83));
#325=EDGE_LOOP('',(#84));
#326=EDGE_LOOP('',(#85,#86,#87,#88,#89,#90,#91,#92));
#327=EDGE_LOOP('',(#93));
#328=EDGE_LOOP('',(#94));
#329=EDGE_LOOP('',(#95));
#330=EDGE_LOOP('',(#96));
#331=EDGE_LOOP('',(#97));
#332=EDGE_LOOP('',(#98));
#333=EDGE_LOOP('',(#99));
#334=EDGE_LOOP('',(#100));
#335=EDGE_LOOP('',(#101));
#336=EDGE_LOOP('',(#102));
#337=EDGE_LOOP('',(#103));
#338=EDGE_LOOP('',(#104));
#339=EDGE_LOOP('',(#105));
#340=EDGE_LOOP('',(#106));
#341=EDGE_LOOP('',(#107));
#342=EDGE_LOOP('',(#108,#109,#110,#111));
#343=EDGE_LOOP('',(#112,#113,#114,#115));
#344=EDGE_LOOP('',(#116,#117,#118,#119));
#345=EDGE_LOOP('',(#120,#121,#122,#123));
#346=EDGE_LOOP('',(#124,#125,#126,#127));
#347=EDGE_LOOP('',(#128,#129,#130,#131));
#348=EDGE_LOOP('',(#132,#133,#134,#135));
#349=EDGE_LOOP('',(#136,#137,#138,#139));
#350=EDGE_LOOP('',(#140,#141,#142,#143));
#351=EDGE_LOOP('',(#144,#145,#146,#147));
#352=EDGE_LOOP('',(#148,#149,#150,#151));
#353=EDGE_LOOP('',(#152,#153,#154,#155));
#354=EDGE_LOOP('',(#156,#157,#158,#159));
#355=EDGE_LOOP('',(#160,#161,#162,#163));
#356=FACE_BOUND('',#320,.T.);
#357=FACE_BOUND('',#321,.T.);
#358=FACE_BOUND('',#322,.T.);
#359=FACE_BOUND('',#323,.T.);
#360=FACE_BOUND('',#324,.T.);
#361=FACE_BOUND('',#325,.T.);
#362=FACE_BOUND('',#326,.T.);
#363=FACE_BOUND('',#327,.T.);
#364=FACE_BOUND('',#328,.T.);
#365=FACE_BOUND('',#329,.T.);
#366=FACE_BOUND('',#330,.T.);
#367=FACE_BOUND('',#16,.T.);
#368=FACE_BOUND('',#331,.T.);
#369=FACE_BOUND('',#332,.T.);
#370=FACE_BOUND('',#333,.T.);
#371=FACE_BOUND('',#334,.T.);
#372=FACE_BOUND('',#335,.T.);
#373=FACE_BOUND('',#336,.T.);
#374=FACE_BOUND('',#337,.T.);
#375=FACE_BOUND('',#17,.T.);
#376=FACE_BOUND('',#338,.T.);
#377=FACE_BOUND('',#339,.T.);
#378=FACE_BOUND('',#340,.T.);
#379=FACE_BOUND('',#341,.T.);
#380=FACE_BOUND('',#342,.T.);
#381=FACE_BOUND('',#343,.T.);
#382=FACE_BOUND('',#344,.T.);
#383=FACE_BOUND('',#345,.T.);
#384=FACE_BOUND('',#346,.T.);
#385=FACE_BOUND('',#347,.T.);
#386=FACE_BOUND('',#348,.T.);
#387=FACE_BOUND('',#349,.T.);
#388=FACE_BOUND('',#350,.T.);
#389=FACE_BOUND('',#351,.T.);
#390=FACE_BOUND('',#352,.T.);
#391=FACE_BOUND('',#353,.T.);
#392=FACE_BOUND('',#354,.T.);
#393=FACE_BOUND('',#355,.T.);
#394=PLANE('',#450);
#395=PLANE('',#454);
#396=PLANE('',#458);
#397=PLANE('',#478);
#398=PLANE('',#483);
#399=PLANE('',#484);
#400=PLANE('',#485);
#401=PLANE('',#486);
#402=PLANE('',#487);
#403=PLANE('',#488);
#404=PLANE('',#489);
#405=PLANE('',#490);
#406=PLANE('',#491);
#407=PLANE('',#492);
#408=PLANE('',#493);
#409=PLANE('',#494);
#410=PLANE('',#495);
#411=PLANE('',#496);
#412=ADVANCED_FACE('',(#356),#394,.F.);
#413=ADVANCED_FACE('',(#357),#395,.F.);
#414=ADVANCED_FACE('',(#358,#359),#396,.T.);
#415=ADVANCED_FACE('',(#360,#361),#29,.F.);
#416=ADVANCED_FACE('',(#362,#363),#30,.T.);
#417=ADVANCED_FACE('',(#364,#365),#397,.T.);
#418=ADVANCED_FACE('',(#366,#367),#18,.F.);
#419=ADVANCED_FACE('',(#368,#369,#370,#371),#19,.F.);
#420=ADVANCED_FACE('',(#372,#373,#374,#375),#20,.T.);
#421=ADVANCED_FACE('',(#376,#377),#31,.F.);
#422=ADVANCED_FACE('',(#378,#379),#32,.F.);
#423=ADVANCED_FACE('',(#380),#398,.T.);
#424=ADVANCED_FACE('',(#381),#399,.F.);
#425=ADVANCED_FACE('',(#382),#400,.T.);
#426=ADVANCED_FACE('',(#383),#401,.T.);
#427=ADVANCED_FACE('',(#384),#402,.F.);
#428=ADVANCED_FACE('',(#385),#403,.T.);
#429=ADVANCED_FACE('',(#386),#404,.T.);
#430=ADVANCED_FACE('',(#387),#405,.T.);
#431=ADVANCED_FACE('',(#388),#406,.F.);
#432=ADVANCED_FACE('',(#389),#407,.F.);
#433=ADVANCED_FACE('',(#390),#408,.F.);
#434=ADVANCED_FACE('',(#391),#409,.F.);
#435=ADVANCED_FACE('',(#392),#410,.T.);
#436=ADVANCED_FACE('',(#393),#411,.F.);
#437=CLOSED_SHELL('',(#412,#413,#414,#415,#416,#417,#418,#419,#420,#421,
#422,#423,#424,#425,#426,#427,#428,#429,#430,#431,#432,#433,#434,#435,#436));
#438=STYLED_ITEM('',(#439),#446);
#439=PRESENTATION_STYLE_ASSIGNMENT((#440));
#440=SURFACE_STYLE_USAGE(.BOTH.,#441);
#441=SURFACE_SIDE_STYLE('',(#442));
#442=SURFACE_STYLE_FILL_AREA(#443);
#443=FILL_AREA_STYLE('',(#444));
#444=FILL_AREA_STYLE_COLOUR('',#445);
#445=COLOUR_RGB('',0.596078431372549,0.12156862745098,0.674509803921569);
#446=MANIFOLD_SOLID_BREP('Head',#437);
#447=SHAPE_DEFINITION_REPRESENTATION(#1255,#448);
#448=SHAPE_REPRESENTATION('Head',(#449),#1250);
#449=AXIS2_PLACEMENT_3D('',#621,#497,#498);
#450=AXIS2_PLACEMENT_3D('',#622,#499,#500);
#451=AXIS2_PLACEMENT_3D('',#630,#504,#505);
#452=AXIS2_PLACEMENT_3D('',#634,#507,#508);
#453=AXIS2_PLACEMENT_3D('',#638,#510,#511);
#454=AXIS2_PLACEMENT_3D('',#639,#512,#513);
#455=AXIS2_PLACEMENT_3D('',#645,#516,#517);
#456=AXIS2_PLACEMENT_3D('',#649,#519,#520);
#457=AXIS2_PLACEMENT_3D('',#653,#522,#523);
#458=AXIS2_PLACEMENT_3D('',#656,#525,#526);
#459=AXIS2_PLACEMENT_3D('',#657,#527,#528);
#460=AXIS2_PLACEMENT_3D('',#659,#529,#530);
#461=AXIS2_PLACEMENT_3D('',#661,#531,#532);
#462=AXIS2_PLACEMENT_3D('',#664,#534,#535);
#463=AXIS2_PLACEMENT_3D('',#667,#537,#538);
#464=AXIS2_PLACEMENT_3D('',#669,#539,#540);
#465=AXIS2_PLACEMENT_3D('',#671,#541,#542);
#466=AXIS2_PLACEMENT_3D('',#674,#544,#545);
#467=AXIS2_PLACEMENT_3D('',#677,#547,#548);
#468=AXIS2_PLACEMENT_3D('',#679,#549,#550);
#469=AXIS2_PLACEMENT_3D('',#681,#551,#552);
#470=AXIS2_PLACEMENT_3D('',#682,#553,#554);
#471=AXIS2_PLACEMENT_3D('',#683,#555,#556);
#472=AXIS2_PLACEMENT_3D('',#685,#557,#558);
#473=AXIS2_PLACEMENT_3D('',#687,#559,#560);
#474=AXIS2_PLACEMENT_3D('',#688,#561,#562);
#475=AXIS2_PLACEMENT_3D('',#690,#563,#564);
#476=AXIS2_PLACEMENT_3D('',#692,#565,#566);
#477=AXIS2_PLACEMENT_3D('',#693,#567,#568);
#478=AXIS2_PLACEMENT_3D('',#695,#569,#570);
#479=AXIS2_PLACEMENT_3D('',#696,#571,#572);
#480=AXIS2_PLACEMENT_3D('',#869,#573,#574);
#481=AXIS2_PLACEMENT_3D('',#1215,#575,#576);
#482=AXIS2_PLACEMENT_3D('',#1216,#577,#578);
#483=AXIS2_PLACEMENT_3D('',#1217,#579,#580);
#484=AXIS2_PLACEMENT_3D('',#1219,#582,#583);
#485=AXIS2_PLACEMENT_3D('',#1221,#585,#586);
#486=AXIS2_PLACEMENT_3D('',#1222,#587,#588);
#487=AXIS2_PLACEMENT_3D('',#1225,#591,#592);
#488=AXIS2_PLACEMENT_3D('',#1226,#593,#594);
#489=AXIS2_PLACEMENT_3D('',#1227,#595,#596);
#490=AXIS2_PLACEMENT_3D('',#1231,#599,#600);
#491=AXIS2_PLACEMENT_3D('',#1235,#603,#604);
#492=AXIS2_PLACEMENT_3D('',#1237,#606,#607);
#493=AXIS2_PLACEMENT_3D('',#1238,#608,#609);
#494=AXIS2_PLACEMENT_3D('',#1244,#613,#614);
#495=AXIS2_PLACEMENT_3D('',#1246,#616,#617);
#496=AXIS2_PLACEMENT_3D('',#1248,#619,#620);
#497=DIRECTION('',(0.,0.,1.));
#498=DIRECTION('',(1.,0.,0.));
#499=DIRECTION('',(0.,0.,1.));
#500=DIRECTION('',(1.,0.,0.));
#501=DIRECTION('',(1.,0.,0.));
#502=DIRECTION('',(0.,1.,0.));
#503=DIRECTION('',(1.,0.,0.));
#504=DIRECTION('',(0.,0.,1.));
#505=DIRECTION('',(1.,0.,0.));
#506=DIRECTION('',(0.,-1.,0.));
#507=DIRECTION('',(0.,0.,1.));
#508=DIRECTION('',(1.,0.,0.));
#509=DIRECTION('',(0.,-1.,0.));
#510=DIRECTION('',(0.,0.,1.));
#511=DIRECTION('',(1.,0.,0.));
#512=DIRECTION('',(0.,0.,1.));
#513=DIRECTION('',(1.,0.,0.));
#514=DIRECTION('',(0.,1.,0.));
#515=DIRECTION('',(-1.,0.,0.));
#516=DIRECTION('',(0.,0.,1.));
#517=DIRECTION('',(1.,0.,0.));
#518=DIRECTION('',(0.,-1.,0.));
#519=DIRECTION('',(0.,0.,1.));
#520=DIRECTION('',(1.,0.,0.));
#521=DIRECTION('',(0.,-1.,0.));
#522=DIRECTION('',(0.,0.,1.));
#523=DIRECTION('',(1.,0.,0.));
#524=DIRECTION('',(-1.,0.,0.));
#525=DIRECTION('',(0.,0.,1.));
#526=DIRECTION('',(1.,0.,0.));
#527=DIRECTION('',(0.,0.,-1.));
#528=DIRECTION('',(-1.,0.,0.));
#529=DIRECTION('',(0.,0.,1.));
#530=DIRECTION('',(1.,0.,0.));
#531=DIRECTION('',(0.,0.,1.));
#532=DIRECTION('',(1.,0.,0.));
#533=DIRECTION('',(0.,0.,1.));
#534=DIRECTION('',(0.,0.,1.));
#535=DIRECTION('',(1.,0.,0.));
#536=DIRECTION('',(0.,0.,1.));
#537=DIRECTION('',(-0.999511599482467,0.,0.0312499999999994));
#538=DIRECTION('',(0.0312499999999994,0.,0.999511599482467));
#539=DIRECTION('',(0.,0.,-1.));
#540=DIRECTION('',(-1.,0.,0.));
#541=DIRECTION('',(-0.999511599482467,0.,-0.0312499999999996));
#542=DIRECTION('',(-0.0312499999999996,0.,0.999511599482467));
#543=DIRECTION('',(0.,0.,1.));
#544=DIRECTION('',(0.,0.,1.));
#545=DIRECTION('',(1.,0.,0.));
#546=DIRECTION('',(0.,0.,1.));
#547=DIRECTION('',(-0.999511599482467,0.,-0.0312499999999996));
#548=DIRECTION('',(-0.0312499999999996,0.,0.999511599482467));
#549=DIRECTION('',(0.,0.,-1.));
#550=DIRECTION('',(-1.,0.,0.));
#551=DIRECTION('',(-0.999511599482467,0.,0.0312499999999994));
#552=DIRECTION('',(0.0312499999999994,0.,0.999511599482467));
#553=DIRECTION('',(0.,0.,1.));
#554=DIRECTION('',(1.,0.,0.));
#555=DIRECTION('',(-0.999511599482467,0.,-0.0312499999999996));
#556=DIRECTION('',(-0.0312499999999996,0.,0.999511599482467));
#557=DIRECTION('',(0.,0.,-1.));
#558=DIRECTION('',(-1.,0.,0.));
#559=DIRECTION('',(-0.999511599482467,0.,0.0312499999999994));
#560=DIRECTION('',(0.0312499999999994,0.,0.999511599482467));
#561=DIRECTION('',(-0.999511599482467,0.,0.0312499999999994));
#562=DIRECTION('',(0.0312499999999994,0.,0.999511599482467));
#563=DIRECTION('',(0.,0.,-1.));
#564=DIRECTION('',(-1.,0.,0.));
#565=DIRECTION('',(-0.999511599482467,0.,-0.0312499999999996));
#566=DIRECTION('',(-0.0312499999999996,0.,0.999511599482467));
#567=DIRECTION('',(0.,0.,1.));
#568=DIRECTION('',(1.,0.,0.));
#569=DIRECTION('',(0.,0.,1.));
#570=DIRECTION('',(1.,0.,0.));
#571=DIRECTION('',(0.,0.,1.));
#572=DIRECTION('',(1.,0.,0.));
#573=DIRECTION('',(0.,0.,-1.));
#574=DIRECTION('',(-1.,0.,0.));
#575=DIRECTION('',(1.,0.,0.));
#576=DIRECTION('',(0.,0.,-1.));
#577=DIRECTION('',(1.,0.,0.));
#578=DIRECTION('',(0.,0.,-1.));
#579=DIRECTION('',(-0.999511599482467,0.,0.0312499999999994));
#580=DIRECTION('',(0.0312499999999994,0.,0.999511599482467));
#581=DIRECTION('',(0.,-1.,0.));
#582=DIRECTION('',(-0.999511599482467,0.,-0.0312499999999996));
#583=DIRECTION('',(-0.0312499999999996,0.,0.999511599482467));
#584=DIRECTION('',(0.,-1.,0.));
#585=DIRECTION('',(0.,0.,-1.));
#586=DIRECTION('',(-1.,0.,0.));
#587=DIRECTION('',(0.,0.,-1.));
#588=DIRECTION('',(-1.,0.,0.));
#589=DIRECTION('',(0.,-1.,0.));
#590=DIRECTION('',(0.,-1.,0.));
#591=DIRECTION('',(-0.999511599482467,0.,-0.0312499999999996));
#592=DIRECTION('',(-0.0312499999999996,0.,0.999511599482467));
#593=DIRECTION('',(-0.999511599482467,0.,0.0312499999999994));
#594=DIRECTION('',(0.0312499999999994,0.,0.999511599482467));
#595=DIRECTION('',(0.,-1.,0.));
#596=DIRECTION('',(0.,0.,-1.));
#597=DIRECTION('',(1.,0.,0.));
#598=DIRECTION('',(0.,0.,1.));
#599=DIRECTION('',(1.,0.,0.));
#600=DIRECTION('',(0.,0.,-1.));
#601=DIRECTION('',(0.,1.,0.));
#602=DIRECTION('',(0.,0.,1.));
#603=DIRECTION('',(0.,-1.,0.));
#604=DIRECTION('',(0.,0.,-1.));
#605=DIRECTION('',(1.,0.,0.));
#606=DIRECTION('',(0.,0.,1.));
#607=DIRECTION('',(1.,0.,0.));
#608=DIRECTION('',(1.,0.,0.));
#609=DIRECTION('',(0.,0.,-1.));
#610=DIRECTION('',(0.,0.,1.));
#611=DIRECTION('',(0.,1.,0.));
#612=DIRECTION('',(0.,0.,1.));
#613=DIRECTION('',(0.,1.,0.));
#614=DIRECTION('',(0.,0.,1.));
#615=DIRECTION('',(-1.,0.,0.));
#616=DIRECTION('',(0.,1.,0.));
#617=DIRECTION('',(0.,0.,1.));
#618=DIRECTION('',(-1.,0.,0.));
#619=DIRECTION('',(0.,0.,1.));
#620=DIRECTION('',(1.,0.,0.));
#621=CARTESIAN_POINT('',(0.,0.,0.));
#622=CARTESIAN_POINT('',(0.,0.,-0.01905));
#623=CARTESIAN_POINT('',(0.,0.000960634206421673,-0.01905));
#624=CARTESIAN_POINT('',(-0.0393578876011975,0.000960634206421673,-0.01905));
#625=CARTESIAN_POINT('',(-0.0380878876011975,0.000960634206421665,-0.01905));
#626=CARTESIAN_POINT('',(-0.0393578876011975,0.,-0.01905));
#627=CARTESIAN_POINT('',(-0.0393578876011975,-0.000960634206421673,-0.01905));
#628=CARTESIAN_POINT('',(0.,-0.000960634206421673,-0.01905));
#629=CARTESIAN_POINT('',(-0.0380878876011975,-0.000960634206421685,-0.01905));
#630=CARTESIAN_POINT('',(0.,2.33295215237571E-18,-0.01905));
#631=CARTESIAN_POINT('',(-0.00519881039272867,-0.0377436401331464,-0.01905));
#632=CARTESIAN_POINT('',(-0.00519881039272867,0.,-0.01905));
#633=CARTESIAN_POINT('',(-0.00519881039272867,-0.0409462818275415,-0.01905));
#634=CARTESIAN_POINT('',(0.,2.52736483174035E-18,-0.01905));
#635=CARTESIAN_POINT('',(-0.00519881039272867,0.0409462818275415,-0.01905));
#636=CARTESIAN_POINT('',(-0.00519881039272867,0.,-0.01905));
#637=CARTESIAN_POINT('',(-0.00519881039272867,0.0377436401331464,-0.01905));
#638=CARTESIAN_POINT('',(0.,2.33295215237571E-18,-0.01905));
#639=CARTESIAN_POINT('',(0.,0.,-0.01905));
#640=CARTESIAN_POINT('',(0.0393578876011975,0.,-0.01905));
#641=CARTESIAN_POINT('',(0.0393578876011975,-0.000960634206421673,-0.01905));
#642=CARTESIAN_POINT('',(0.0393578876011975,0.000960634206421673,-0.01905));
#643=CARTESIAN_POINT('',(0.,0.000960634206421673,-0.01905));
#644=CARTESIAN_POINT('',(0.0380878876011975,0.000960634206421661,-0.01905));
#645=CARTESIAN_POINT('',(0.,2.33295215237571E-18,-0.01905));
#646=CARTESIAN_POINT('',(0.00519881039272867,0.0377436401331464,-0.01905));
#647=CARTESIAN_POINT('',(0.00519881039272867,0.,-0.01905));
#648=CARTESIAN_POINT('',(0.00519881039272867,0.0409462818275415,-0.01905));
#649=CARTESIAN_POINT('',(0.,2.52736483174035E-18,-0.01905));
#650=CARTESIAN_POINT('',(0.00519881039272867,-0.0409462818275415,-0.01905));
#651=CARTESIAN_POINT('',(0.00519881039272867,0.,-0.01905));
#652=CARTESIAN_POINT('',(0.00519881039272867,-0.0377436401331464,-0.01905));
#653=CARTESIAN_POINT('',(0.,2.33295215237571E-18,-0.01905));
#654=CARTESIAN_POINT('',(0.0380878876011975,-0.000960634206421665,-0.01905));
#655=CARTESIAN_POINT('',(0.,-0.000960634206421673,-0.01905));
#656=CARTESIAN_POINT('',(0.,0.,0.));
#657=CARTESIAN_POINT('',(0.,0.,-3.46944695195361E-18));
#658=CARTESIAN_POINT('',(-0.0384542923601354,0.,-3.46944695195361E-18));
#659=CARTESIAN_POINT('',(0.,2.33295215237571E-18,0.));
#660=CARTESIAN_POINT('',(0.0381,2.33295215237571E-18,0.));
#661=CARTESIAN_POINT('',(0.,2.33295215237571E-18,-0.01905));
#662=CARTESIAN_POINT('',(0.0380878876011975,0.000960634206421661,-0.02794));
#663=CARTESIAN_POINT('',(0.0380878876011975,0.000960634206421661,-0.00254));
#664=CARTESIAN_POINT('',(1.53696499971545E-15,-2.43945488809238E-18,-0.00254));
#665=CARTESIAN_POINT('',(0.0380878876011975,-0.000960634206421665,-0.00254));
#666=CARTESIAN_POINT('',(0.0380878876011975,-0.000960634206421665,-0.02794));
#667=CARTESIAN_POINT('',(0.,2.33295215237571E-18,-0.185330681313357));
#668=CARTESIAN_POINT('',(0.005715,-0.0376689364729082,-0.00254));
#669=CARTESIAN_POINT('',(0.,2.33295215237571E-18,-0.00254));
#670=CARTESIAN_POINT('',(-0.005715,-0.0376689364729082,-0.00254));
#671=CARTESIAN_POINT('',(0.,2.33295215237571E-18,-0.185330681313356));
#672=CARTESIAN_POINT('',(-0.0380878876011975,-0.000960634206421685,-0.02794));
#673=CARTESIAN_POINT('',(-0.0380878876011975,-0.000960634206421685,-0.00254));
#674=CARTESIAN_POINT('',(-4.05925293378573E-16,-9.86623976961809E-18,-0.00254));
#675=CARTESIAN_POINT('',(-0.0380878876011975,0.000960634206421665,-0.00254));
#676=CARTESIAN_POINT('',(-0.0380878876011975,0.000960634206421665,-0.02794));
#677=CARTESIAN_POINT('',(0.,2.33295215237571E-18,-0.185330681313356));
#678=CARTESIAN_POINT('',(-0.005715,0.0376689364729083,-0.00254));
#679=CARTESIAN_POINT('',(0.,2.33295215237571E-18,-0.00254));
#680=CARTESIAN_POINT('',(0.005715,0.0376689364729083,-0.00254));
#681=CARTESIAN_POINT('',(0.,2.33295215237571E-18,-0.185330681313357));
#682=CARTESIAN_POINT('',(0.,2.52736483174035E-18,-0.01905));
#683=CARTESIAN_POINT('',(0.,2.52736483174035E-18,-0.185330681313356));
#684=CARTESIAN_POINT('',(-0.005715,-0.0408774314261549,-0.00254));
#685=CARTESIAN_POINT('',(0.,2.52736483174035E-18,-0.00254));
#686=CARTESIAN_POINT('',(0.005715,-0.0408774314261549,-0.00254));
#687=CARTESIAN_POINT('',(0.,2.52736483174035E-18,-0.185330681313357));
#688=CARTESIAN_POINT('',(0.,2.52736483174035E-18,-0.185330681313357));
#689=CARTESIAN_POINT('',(0.005715,0.040877431426155,-0.00254));
#690=CARTESIAN_POINT('',(0.,2.52736483174035E-18,-0.00254));
#691=CARTESIAN_POINT('',(-0.005715,0.040877431426155,-0.00254));
#692=CARTESIAN_POINT('',(0.,2.52736483174035E-18,-0.185330681313356));
#693=CARTESIAN_POINT('',(0.,2.52736483174035E-18,0.));
#694=CARTESIAN_POINT('',(0.041275,2.52736483174035E-18,0.));
#695=CARTESIAN_POINT('',(0.,0.,0.));
#696=CARTESIAN_POINT('',(0.,0.,0.));
#697=CARTESIAN_POINT('',(0.0411890322985108,0.,0.));
#698=CARTESIAN_POINT('',(2.75996599460354E-18,1.14321534665333E-18,0.04826));
#699=CARTESIAN_POINT('',(2.98736566563111E-18,2.262967684655E-33,0.04826));
#700=CARTESIAN_POINT('',(2.75996599460354E-18,-1.14321534665333E-18,0.04826));
#701=CARTESIAN_POINT('',(2.11238652005162E-18,-2.11238652005162E-18,0.04826));
#702=CARTESIAN_POINT('',(1.14321534665333E-18,-2.75996599460354E-18,0.04826));
#703=CARTESIAN_POINT('',(4.02489265721551E-34,-2.98736566563111E-18,0.04826));
#704=CARTESIAN_POINT('',(-1.14321534665333E-18,-2.75996599460354E-18,0.04826));
#705=CARTESIAN_POINT('',(-2.11238652005162E-18,-2.11238652005162E-18,0.04826));
#706=CARTESIAN_POINT('',(-2.75996599460354E-18,-1.14321534665333E-18,0.04826));
#707=CARTESIAN_POINT('',(-2.98736566563111E-18,-4.39752436642618E-34,0.04826));
#708=CARTESIAN_POINT('',(-2.75996599460354E-18,1.14321534665333E-18,0.04826));
#709=CARTESIAN_POINT('',(-2.11238652005162E-18,2.11238652005162E-18,0.04826));
#710=CARTESIAN_POINT('',(-1.14321534665333E-18,2.75996599460354E-18,0.04826));
#711=CARTESIAN_POINT('',(-9.82525198191301E-34,2.98736566563111E-18,0.04826));
#712=CARTESIAN_POINT('',(1.14321534665333E-18,2.75996599460354E-18,0.04826));
#713=CARTESIAN_POINT('',(2.11238652005162E-18,2.11238652005162E-18,0.04826));
#714=CARTESIAN_POINT('',(2.75996599460354E-18,1.14321534665333E-18,0.04826));
#715=CARTESIAN_POINT('',(2.98736566563111E-18,2.262967684655E-33,0.04826));
#716=CARTESIAN_POINT('',(2.75996599460354E-18,-1.14321534665333E-18,0.04826));
#717=CARTESIAN_POINT('',(0.000878706765308841,0.000363972259539912,0.0485111658567635));
#718=CARTESIAN_POINT('',(0.000951105349114446,7.11507675693612E-19,0.0485111658567634));
#719=CARTESIAN_POINT('',(0.00087870676530884,-0.000363972259539914,0.0485111658567635));
#720=CARTESIAN_POINT('',(0.000672533041981624,-0.000672533041981624,0.0485111658567634));
#721=CARTESIAN_POINT('',(0.000363972259539914,-0.00087870676530884,0.0485111658567634));
#722=CARTESIAN_POINT('',(-1.51195381084893E-19,-0.000951105349114446,0.0485111658567634));
#723=CARTESIAN_POINT('',(-0.000363972259539914,-0.00087870676530884,0.0485111658567634));
#724=CARTESIAN_POINT('',(-0.000672533041981623,-0.000672533041981624,0.0485111658567635));
#725=CARTESIAN_POINT('',(-0.00087870676530884,-0.000363972259539914,0.0485111658567634));
#726=CARTESIAN_POINT('',(-0.000951105349114447,-1.25339783088016E-19,0.0485111658567634));
#727=CARTESIAN_POINT('',(-0.000878706765308839,0.000363972259539914,0.0485111658567635));
#728=CARTESIAN_POINT('',(-0.000672533041981624,0.000672533041981624,0.0485111658567635));
#729=CARTESIAN_POINT('',(-0.000363972259539914,0.00087870676530884,0.0485111658567635));
#730=CARTESIAN_POINT('',(-4.02340649945793E-19,0.000951105349114447,0.0485111658567634));
#731=CARTESIAN_POINT('',(0.000363972259539914,0.000878706765308841,0.0485111658567635));
#732=CARTESIAN_POINT('',(0.000672533041981624,0.000672533041981623,0.0485111658567635));
#733=CARTESIAN_POINT('',(0.000878706765308841,0.000363972259539912,0.0485111658567635));
#734=CARTESIAN_POINT('',(0.000951105349114446,7.11507675693612E-19,0.0485111658567634));
#735=CARTESIAN_POINT('',(0.00087870676530884,-0.000363972259539914,0.0485111658567635));
#736=CARTESIAN_POINT('',(0.00205492000033494,0.00085117573373045,0.0485224096127553));
#737=CARTESIAN_POINT('',(0.00222422938058738,1.62630325872826E-18,0.0485224096127553));
#738=CARTESIAN_POINT('',(0.00205492000033493,-0.000851175733730455,0.0485224096127553));
#739=CARTESIAN_POINT('',(0.00157276767792769,-0.00157276767792769,0.0485224096127553));
#740=CARTESIAN_POINT('',(0.000851175733730454,-0.00205492000033493,0.0485224096127553));
#741=CARTESIAN_POINT('',(1.07064964532944E-18,-0.00222422938058738,0.0485224096127553));
#742=CARTESIAN_POINT('',(-0.000851175733730454,-0.00205492000033493,0.0485224096127553));
#743=CARTESIAN_POINT('',(-0.00157276767792769,-0.00157276767792769,0.0485224096127553));
#744=CARTESIAN_POINT('',(-0.00205492000033493,-0.000851175733730455,0.0485224096127553));
#745=CARTESIAN_POINT('',(-0.00222422938058738,-1.96769724114114E-19,0.0485224096127553));
#746=CARTESIAN_POINT('',(-0.00205492000033494,0.000851175733730454,0.0485224096127553));
#747=CARTESIAN_POINT('',(-0.00157276767792769,0.00157276767792769,0.0485224096127553));
#748=CARTESIAN_POINT('',(-0.000851175733730454,0.00205492000033493,0.0485224096127553));
#749=CARTESIAN_POINT('',(-5.37018888559226E-19,0.00222422938058738,0.0485224096127553));
#750=CARTESIAN_POINT('',(0.000851175733730454,0.00205492000033493,0.0485224096127553));
#751=CARTESIAN_POINT('',(0.00157276767792769,0.00157276767792769,0.0485224096127553));
#752=CARTESIAN_POINT('',(0.00205492000033494,0.00085117573373045,0.0485224096127553));
#753=CARTESIAN_POINT('',(0.00222422938058738,1.62630325872826E-18,0.0485224096127553));
#754=CARTESIAN_POINT('',(0.00205492000033493,-0.000851175733730455,0.0485224096127553));
#755=CARTESIAN_POINT('',(0.0033575998231252,0.00139076338375995,0.0483038930617677));
#756=CARTESIAN_POINT('',(0.00363423986025384,2.7376104855259E-18,0.0483038930617677));
#757=CARTESIAN_POINT('',(0.0033575998231252,-0.00139076338375996,0.0483038930617677));
#758=CARTESIAN_POINT('',(0.00256979564964394,-0.00256979564964394,0.0483038930617677));
#759=CARTESIAN_POINT('',(0.00139076338375996,-0.0033575998231252,0.0483038930617677));
#760=CARTESIAN_POINT('',(8.04681299891585E-20,-0.00363423986025384,0.0483038930617677));
#761=CARTESIAN_POINT('',(-0.00139076338375996,-0.0033575998231252,0.0483038930617677));
#762=CARTESIAN_POINT('',(-0.00256979564964394,-0.00256979564964394,0.0483038930617677));
#763=CARTESIAN_POINT('',(-0.0033575998231252,-0.00139076338375996,0.0483038930617677));
#764=CARTESIAN_POINT('',(-0.00363423986025384,-5.3177787219809E-19,0.0483038930617677));
#765=CARTESIAN_POINT('',(-0.0033575998231252,0.00139076338375996,0.0483038930617677));
#766=CARTESIAN_POINT('',(-0.00256979564964394,0.00256979564964394,0.0483038930617677));
#767=CARTESIAN_POINT('',(-0.00139076338375996,0.0033575998231252,0.0483038930617677));
#768=CARTESIAN_POINT('',(-1.03676832743926E-18,0.00363423986025384,0.0483038930617677));
#769=CARTESIAN_POINT('',(0.00139076338375996,0.0033575998231252,0.0483038930617677));
#770=CARTESIAN_POINT('',(0.00256979564964394,0.00256979564964394,0.0483038930617677));
#771=CARTESIAN_POINT('',(0.0033575998231252,0.00139076338375995,0.0483038930617677));
#772=CARTESIAN_POINT('',(0.00363423986025384,2.7376104855259E-18,0.0483038930617677));
#773=CARTESIAN_POINT('',(0.0033575998231252,-0.00139076338375996,0.0483038930617677));
#774=CARTESIAN_POINT('',(0.00417952465429473,0.00173121579608159,0.0481690769836006));
#775=CARTESIAN_POINT('',(0.00452388488673837,3.36102673470506E-18,0.0481690769836005));
#776=CARTESIAN_POINT('',(0.00417952465429472,-0.0017312157960816,0.0481690769836005));
#777=CARTESIAN_POINT('',(0.00319886968072004,-0.00319886968072004,0.0481690769836005));
#778=CARTESIAN_POINT('',(0.0017312157960816,-0.00417952465429472,0.0481690769836006));
#779=CARTESIAN_POINT('',(1.29257227751006E-18,-0.00452388488673837,0.0481690769836005));
#780=CARTESIAN_POINT('',(-0.00173121579608159,-0.00417952465429472,0.0481690769836005));
#781=CARTESIAN_POINT('',(-0.00319886968072004,-0.00319886968072004,0.0481690769836005));
#782=CARTESIAN_POINT('',(-0.00417952465429472,-0.0017312157960816,0.0481690769836005));
#783=CARTESIAN_POINT('',(-0.00452388488673837,-6.45363005191422E-19,0.0481690769836005));
#784=CARTESIAN_POINT('',(-0.00417952465429473,0.0017312157960816,0.0481690769836006));
#785=CARTESIAN_POINT('',(-0.00319886968072004,0.00319886968072004,0.0481690769836005));
#786=CARTESIAN_POINT('',(-0.0017312157960816,0.00417952465429472,0.0481690769836005));
#787=CARTESIAN_POINT('',(-8.30092288309214E-19,0.00452388488673837,0.0481690769836005));
#788=CARTESIAN_POINT('',(0.0017312157960816,0.00417952465429472,0.0481690769836006));
#789=CARTESIAN_POINT('',(0.00319886968072004,0.00319886968072004,0.0481690769836005));
#790=CARTESIAN_POINT('',(0.00417952465429473,0.00173121579608159,0.0481690769836006));
#791=CARTESIAN_POINT('',(0.00452388488673837,3.36102673470506E-18,0.0481690769836005));
#792=CARTESIAN_POINT('',(0.00417952465429472,-0.0017312157960816,0.0481690769836005));
#793=CARTESIAN_POINT('',(0.00502942110366104,0.00208325443202185,0.0480448410112725));
#794=CARTESIAN_POINT('',(0.00544380617458866,4.01154803819637E-18,0.0480448410112725));
#795=CARTESIAN_POINT('',(0.00502942110366103,-0.00208325443202186,0.0480448410112725));
#796=CARTESIAN_POINT('',(0.00384935226151684,-0.00384935226151684,0.0480448410112725));
#797=CARTESIAN_POINT('',(0.00208325443202186,-0.00502942110366103,0.0480448410112725));
#798=CARTESIAN_POINT('',(1.15874107184388E-18,-0.00544380617458866,0.0480448410112725));
#799=CARTESIAN_POINT('',(-0.00208325443202186,-0.00502942110366103,0.0480448410112725));
#800=CARTESIAN_POINT('',(-0.00384935226151684,-0.00384935226151684,0.0480448410112725));
#801=CARTESIAN_POINT('',(-0.00502942110366103,-0.00208325443202186,0.0480448410112725));
#802=CARTESIAN_POINT('',(-0.00544380617458866,-7.08410711480214E-19,0.0480448410112725));
#803=CARTESIAN_POINT('',(-0.00502942110366103,0.00208325443202186,0.0480448410112725));
#804=CARTESIAN_POINT('',(-0.00384935226151684,0.00384935226151684,0.0480448410112725));
#805=CARTESIAN_POINT('',(-0.00208325443202186,0.00502942110366103,0.0480448410112725));
#806=CARTESIAN_POINT('',(-4.30292737205185E-19,0.00544380617458866,0.0480448410112725));
#807=CARTESIAN_POINT('',(0.00208325443202186,0.00502942110366103,0.0480448410112725));
#808=CARTESIAN_POINT('',(0.00384935226151685,0.00384935226151684,0.0480448410112725));
#809=CARTESIAN_POINT('',(0.00502942110366104,0.00208325443202185,0.0480448410112725));
#810=CARTESIAN_POINT('',(0.00544380617458866,4.01154803819637E-18,0.0480448410112725));
#811=CARTESIAN_POINT('',(0.00502942110366103,-0.00208325443202186,0.0480448410112725));
#812=CARTESIAN_POINT('',(0.00657309420369665,0.00272266476592711,0.0477653310701221));
#813=CARTESIAN_POINT('',(0.00711466589786839,5.96311194867027E-18,0.0477653310701221));
#814=CARTESIAN_POINT('',(0.00657309420369664,-0.00272266476592713,0.0477653310701221));
#815=CARTESIAN_POINT('',(0.00503082850225942,-0.00503082850225941,0.0477653310701221));
#816=CARTESIAN_POINT('',(0.00272266476592713,-0.00657309420369664,0.0477653310701221));
#817=CARTESIAN_POINT('',(1.03338019565025E-19,-0.00711466589786839,0.0477653310701221));
#818=CARTESIAN_POINT('',(-0.00272266476592713,-0.00657309420369664,0.0477653310701221));
#819=CARTESIAN_POINT('',(-0.00503082850225942,-0.00503082850225941,0.0477653310701221));
#820=CARTESIAN_POINT('',(-0.00657309420369664,-0.00272266476592713,0.0477653310701221));
#821=CARTESIAN_POINT('',(-0.00711466589786839,-1.42117570170491E-18,0.0477653310701221));
#822=CARTESIAN_POINT('',(-0.00657309420369664,0.00272266476592713,0.0477653310701221));
#823=CARTESIAN_POINT('',(-0.00503082850225943,0.00503082850225941,0.0477653310701221));
#824=CARTESIAN_POINT('',(-0.00272266476592712,0.00657309420369664,0.0477653310701221));
#825=CARTESIAN_POINT('',(-4.47572209329172E-18,0.00711466589786839,0.0477653310701221));
#826=CARTESIAN_POINT('',(0.00272266476592713,0.00657309420369664,0.0477653310701221));
#827=CARTESIAN_POINT('',(0.00503082850225942,0.00503082850225942,0.0477653310701221));
#828=CARTESIAN_POINT('',(0.00657309420369665,0.00272266476592711,0.0477653310701221));
#829=CARTESIAN_POINT('',(0.00711466589786839,5.96311194867027E-18,0.0477653310701221));
#830=CARTESIAN_POINT('',(0.00657309420369664,-0.00272266476592713,0.0477653310701221));
#831=CARTESIAN_POINT('',(0.00857838541240643,0.00355328358108224,0.0473109115467335));
#832=CARTESIAN_POINT('',(0.00928517746149075,6.17995238316738E-18,0.0473109115467334));
#833=CARTESIAN_POINT('',(0.00857838541240641,-0.00355328358108225,0.0473109115467334));
#834=CARTESIAN_POINT('',(0.0065656119475406,-0.00656561194754061,0.0473109115467334));
#835=CARTESIAN_POINT('',(0.00355328358108225,-0.00857838541240641,0.0473109115467334));
#836=CARTESIAN_POINT('',(3.45250629300853E-18,-0.00928517746149075,0.0473109115467334));
#837=CARTESIAN_POINT('',(-0.00355328358108225,-0.00857838541240641,0.0473109115467334));
#838=CARTESIAN_POINT('',(-0.0065656119475406,-0.0065656119475406,0.0473109115467334));
#839=CARTESIAN_POINT('',(-0.00857838541240642,-0.00355328358108225,0.0473109115467334));
#840=CARTESIAN_POINT('',(-0.00928517746149075,-8.31534891297507E-19,0.0473109115467334));
#841=CARTESIAN_POINT('',(-0.00857838541240643,0.00355328358108225,0.0473109115467334));
#842=CARTESIAN_POINT('',(-0.0065656119475406,0.00656561194754061,0.0473109115467334));
#843=CARTESIAN_POINT('',(-0.00355328358108226,0.00857838541240641,0.0473109115467334));
#844=CARTESIAN_POINT('',(-5.35324822664718E-19,0.00928517746149075,0.0473109115467334));
#845=CARTESIAN_POINT('',(0.00355328358108225,0.00857838541240642,0.0473109115467335));
#846=CARTESIAN_POINT('',(0.00656561194754061,0.0065656119475406,0.0473109115467334));
#847=CARTESIAN_POINT('',(0.00857838541240643,0.00355328358108224,0.0473109115467335));
#848=CARTESIAN_POINT('',(0.00928517746149075,6.17995238316738E-18,0.0473109115467334));
#849=CARTESIAN_POINT('',(0.00857838541240641,-0.00355328358108225,0.0473109115467334));
#850=CARTESIAN_POINT('',(0.0106413085748152,0.00440777433308552,0.0467902496492791));
#851=CARTESIAN_POINT('',(0.0115180694022845,8.45677694538693E-18,0.0467902496492791));
#852=CARTESIAN_POINT('',(0.0106413085748151,-0.00440777433308555,0.0467902496492791));
#853=CARTESIAN_POINT('',(0.00814450498053264,-0.00814450498053264,0.0467902496492791));
#854=CARTESIAN_POINT('',(0.00440777433308555,-0.0106413085748151,0.0467902496492791));
#855=CARTESIAN_POINT('',(1.29426634340457E-18,-0.0115180694022845,0.0467902496492791));
#856=CARTESIAN_POINT('',(-0.00440777433308554,-0.0106413085748151,0.0467902496492791));
#857=CARTESIAN_POINT('',(-0.00814450498053265,-0.00814450498053265,0.0467902496492791));
#858=CARTESIAN_POINT('',(-0.0106413085748151,-0.00440777433308555,0.0467902496492791));
#859=CARTESIAN_POINT('',(-0.0115180694022845,-2.11628534893527E-18,0.0467902496492791));
#860=CARTESIAN_POINT('',(-0.0106413085748151,0.00440777433308555,0.0467902496492791));
#861=CARTESIAN_POINT('',(-0.00814450498053264,0.00814450498053264,0.0467902496492791));
#862=CARTESIAN_POINT('',(-0.00440777433308555,0.0106413085748151,0.0467902496492791));
#863=CARTESIAN_POINT('',(-1.2400562347803E-18,0.0115180694022845,0.0467902496492791));
#864=CARTESIAN_POINT('',(0.00440777433308554,0.0106413085748151,0.0467902496492791));
#865=CARTESIAN_POINT('',(0.00814450498053265,0.00814450498053264,0.0467902496492791));
#866=CARTESIAN_POINT('',(0.0106413085748152,0.00440777433308552,0.0467902496492791));
#867=CARTESIAN_POINT('',(0.0115180694022845,8.45677694538693E-18,0.0467902496492791));
#868=CARTESIAN_POINT('',(0.0106413085748151,-0.00440777433308555,0.0467902496492791));
#869=CARTESIAN_POINT('',(0.,0.,0.0467902496492791));
#870=CARTESIAN_POINT('',(-0.011225815793128,0.,0.0467902496492791));
#871=CARTESIAN_POINT('',(2.91156577528859E-18,0.,0.04826));
#872=CARTESIAN_POINT('',(0.0106413085748228,0.0044077743330887,0.0467902496492768));
#873=CARTESIAN_POINT('',(0.0115180694022928,8.78203759713259E-18,0.0467902496492768));
#874=CARTESIAN_POINT('',(0.0106413085748228,-0.00440777433308873,0.0467902496492768));
#875=CARTESIAN_POINT('',(0.00814450498053852,-0.00814450498053852,0.0467902496492768));
#876=CARTESIAN_POINT('',(0.00440777433308873,-0.0106413085748228,0.0467902496492768));
#877=CARTESIAN_POINT('',(2.31070588010973E-18,-0.0115180694022928,0.0467902496492768));
#878=CARTESIAN_POINT('',(-0.00440777433308872,-0.0106413085748228,0.0467902496492768));
#879=CARTESIAN_POINT('',(-0.00814450498053852,-0.00814450498053852,0.0467902496492768));
#880=CARTESIAN_POINT('',(-0.0106413085748228,-0.00440777433308873,0.0467902496492768));
#881=CARTESIAN_POINT('',(-0.0115180694022928,-1.44978953345434E-18,0.0467902496492768));
#882=CARTESIAN_POINT('',(-0.0106413085748228,0.00440777433308872,0.0467902496492768));
#883=CARTESIAN_POINT('',(-0.00814450498053852,0.00814450498053852,0.0467902496492768));
#884=CARTESIAN_POINT('',(-0.00440777433308873,0.0106413085748228,0.0467902496492768));
#885=CARTESIAN_POINT('',(-1.19939865331209E-18,0.0115180694022928,0.0467902496492768));
#886=CARTESIAN_POINT('',(0.00440777433308872,0.0106413085748228,0.0467902496492768));
#887=CARTESIAN_POINT('',(0.00814450498053853,0.00814450498053852,0.0467902496492768));
#888=CARTESIAN_POINT('',(0.0106413085748228,0.0044077743330887,0.0467902496492768));
#889=CARTESIAN_POINT('',(0.0115180694022928,8.78203759713259E-18,0.0467902496492768));
#890=CARTESIAN_POINT('',(0.0106413085748228,-0.00440777433308873,0.0467902496492768));
#891=CARTESIAN_POINT('',(0.0261440629571347,0.0108292254523812,0.0421554138613284));
#892=CARTESIAN_POINT('',(0.0282981298287558,1.88651178012478E-17,0.0421554138613284));
#893=CARTESIAN_POINT('',(0.0261440629571347,-0.0108292254523812,0.0421554138613284));
#894=CARTESIAN_POINT('',(0.0200097994968106,-0.0200097994968106,0.0421554138613284));
#895=CARTESIAN_POINT('',(0.0108292254523812,-0.0261440629571347,0.0421554138613284));
#896=CARTESIAN_POINT('',(6.09863722023096E-20,-0.0282981298287559,0.0421554138613284));
#897=CARTESIAN_POINT('',(-0.0108292254523812,-0.0261440629571347,0.0421554138613284));
#898=CARTESIAN_POINT('',(-0.0200097994968106,-0.0200097994968106,0.0421554138613284));
#899=CARTESIAN_POINT('',(-0.0261440629571347,-0.0108292254523812,0.0421554138613284));
#900=CARTESIAN_POINT('',(-0.0282981298287559,-7.43072887868636E-19,0.0421554138613284));
#901=CARTESIAN_POINT('',(-0.0261440629571347,0.0108292254523812,0.0421554138613284));
#902=CARTESIAN_POINT('',(-0.0200097994968106,0.0200097994968106,0.0421554138613284));
#903=CARTESIAN_POINT('',(-0.0108292254523812,0.0261440629571347,0.0421554138613284));
#904=CARTESIAN_POINT('',(-1.88515652740917E-17,0.0282981298287559,0.0421554138613284));
#905=CARTESIAN_POINT('',(0.0108292254523812,0.0261440629571347,0.0421554138613284));
#906=CARTESIAN_POINT('',(0.0200097994968106,0.0200097994968106,0.0421554138613284));
#907=CARTESIAN_POINT('',(0.0261440629571347,0.0108292254523812,0.0421554138613284));
#908=CARTESIAN_POINT('',(0.0282981298287558,1.88651178012478E-17,0.0421554138613284));
#909=CARTESIAN_POINT('',(0.0261440629571347,-0.0108292254523812,0.0421554138613284));
#910=CARTESIAN_POINT('',(0.0356117589239873,0.0147508735262765,0.0265586639782361));
#911=CARTESIAN_POINT('',(0.0385458900980168,2.94902990916057E-17,0.0265586639782361));
#912=CARTESIAN_POINT('',(0.0356117589239873,-0.0147508735262766,0.0265586639782361));
#913=CARTESIAN_POINT('',(0.0272560602751791,-0.0272560602751791,0.0265586639782361));
#914=CARTESIAN_POINT('',(0.0147508735262766,-0.0356117589239873,0.0265586639782361));
#915=CARTESIAN_POINT('',(1.48129121815832E-17,-0.0385458900980169,0.0265586639782361));
#916=CARTESIAN_POINT('',(-0.0147508735262766,-0.0356117589239873,0.0265586639782361));
#917=CARTESIAN_POINT('',(-0.0272560602751791,-0.0272560602751791,0.0265586639782361));
#918=CARTESIAN_POINT('',(-0.0356117589239873,-0.0147508735262766,0.0265586639782361));
#919=CARTESIAN_POINT('',(-0.0385458900980169,-7.10623585054916E-18,0.0265586639782361));
#920=CARTESIAN_POINT('',(-0.0356117589239872,0.0147508735262766,0.0265586639782361));
#921=CARTESIAN_POINT('',(-0.0272560602751791,0.0272560602751791,0.0265586639782361));
#922=CARTESIAN_POINT('',(-0.0147508735262766,0.0356117589239872,0.0265586639782361));
#923=CARTESIAN_POINT('',(-5.14996031930615E-18,0.0385458900980169,0.0265586639782361));
#924=CARTESIAN_POINT('',(0.0147508735262766,0.0356117589239873,0.0265586639782361));
#925=CARTESIAN_POINT('',(0.0272560602751791,0.0272560602751791,0.0265586639782361));
#926=CARTESIAN_POINT('',(0.0356117589239873,0.0147508735262765,0.0265586639782361));
#927=CARTESIAN_POINT('',(0.0385458900980168,2.94902990916057E-17,0.0265586639782361));
#928=CARTESIAN_POINT('',(0.0356117589239873,-0.0147508735262766,0.0265586639782361));
#929=CARTESIAN_POINT('',(0.0390443964753807,0.0161727185547748,0.));
#930=CARTESIAN_POINT('',(0.0422613502100758,3.25260651745651E-17,0.));
#931=CARTESIAN_POINT('',(0.0390443964753806,-0.0161727185547749,0.));
#932=CARTESIAN_POINT('',(0.0298832873156441,-0.0298832873156441,0.));
#933=CARTESIAN_POINT('',(0.0161727185547749,-0.0390443964753806,0.));
#934=CARTESIAN_POINT('',(7.79270311473956E-18,-0.0422613502100758,0.));
#935=CARTESIAN_POINT('',(-0.0161727185547749,-0.0390443964753806,0.));
#936=CARTESIAN_POINT('',(-0.0298832873156441,-0.0298832873156441,0.));
#937=CARTESIAN_POINT('',(-0.0390443964753806,-0.0161727185547749,0.));
#938=CARTESIAN_POINT('',(-0.0422613502100758,-7.46686012784267E-18,0.));
#939=CARTESIAN_POINT('',(-0.0390443964753806,0.0161727185547749,0.));
#940=CARTESIAN_POINT('',(-0.0298832873156442,0.0298832873156441,0.));
#941=CARTESIAN_POINT('',(-0.0161727185547749,0.0390443964753806,0.));
#942=CARTESIAN_POINT('',(-8.72782748850831E-18,0.0422613502100758,0.));
#943=CARTESIAN_POINT('',(0.0161727185547749,0.0390443964753806,0.));
#944=CARTESIAN_POINT('',(0.0298832873156442,0.0298832873156441,0.));
#945=CARTESIAN_POINT('',(0.0390443964753807,0.0161727185547748,0.));
#946=CARTESIAN_POINT('',(0.0422613502100758,3.25260651745651E-17,0.));
#947=CARTESIAN_POINT('',(0.0390443964753806,-0.0161727185547749,0.));
#948=CARTESIAN_POINT('',(0.0196502311339404,-0.00123416438607541,0.0430758549947078));
#949=CARTESIAN_POINT('',(0.0194358067926005,2.6229164974969E-6,0.0432315860011102));
#950=CARTESIAN_POINT('',(0.0196475886321513,0.00122367272008542,0.0430778010008513));
#951=CARTESIAN_POINT('',(0.0203589486068459,0.00263356948011526,0.0425472006148314));
#952=CARTESIAN_POINT('',(0.0216561911465196,0.00389804017889517,0.0415199351177438));
#953=CARTESIAN_POINT('',(0.0233714639497325,0.00480563380800336,0.0400203021947009));
#954=CARTESIAN_POINT('',(0.0251350140704768,0.00517119547920288,0.0383393190526201));
#955=CARTESIAN_POINT('',(0.0268509934916165,0.00495937653425608,0.0365790908173708));
#956=CARTESIAN_POINT('',(0.0284212194848008,0.00409009653943128,0.034872915035733));
#957=CARTESIAN_POINT('',(0.0296787705967858,0.00244761173149751,0.0334467357614579));
#958=CARTESIAN_POINT('',(0.0302285572473585,6.7728546746723E-6,0.0328076365894836));
#959=CARTESIAN_POINT('',(0.0296822415089337,-0.0024420447815868,0.0334427353768242));
#960=CARTESIAN_POINT('',(0.0284246678053203,-0.00408712087974797,0.0348690979559704));
#961=CARTESIAN_POINT('',(0.0268551625839455,-0.00495776657078724,0.0365746201394277));
#962=CARTESIAN_POINT('',(0.0251418986985758,-0.00517171326200163,0.0383325262523346));
#963=CARTESIAN_POINT('',(0.0233753957263939,-0.00480672291880726,0.0400166898722214));
#964=CARTESIAN_POINT('',(0.0216631517887633,-0.00390398813655686,0.0415141410296391));
#965=CARTESIAN_POINT('',(0.0203615194976009,-0.00263452991888198,0.0425452448368749));
#966=CARTESIAN_POINT('',(0.0196502311339404,-0.00123416438607541,0.0430758549947078));
#967=CARTESIAN_POINT('',(0.0194358067926005,2.6229164974969E-6,0.0432315860011102));
#968=CARTESIAN_POINT('',(0.0196475886321513,0.00122367272008542,0.0430778010008513));
#969=CARTESIAN_POINT('',(0.0195068411560823,1.97275786300103E-18,0.04318));
#970=CARTESIAN_POINT('',(-0.0296792211361719,-0.0024484073525298,0.033446209384873));
#971=CARTESIAN_POINT('',(-0.0302285645953804,1.61509383873269E-6,0.0328076274941079));
#972=CARTESIAN_POINT('',(-0.0296817767018487,0.00244194697717485,0.0334432806386952));
#973=CARTESIAN_POINT('',(-0.0284209743299344,0.00409154992010178,0.0348732671161436));
#974=CARTESIAN_POINT('',(-0.0268488740241104,0.00495931133675688,0.0365812417069207));
#975=CARTESIAN_POINT('',(-0.0251411320643753,0.00517085937692083,0.0383331112718624));
#976=CARTESIAN_POINT('',(-0.0233759948209628,0.00480821656983453,0.040016390398392));
#977=CARTESIAN_POINT('',(-0.0216513741363755,0.00389515681493335,0.0415240322389889));
#978=CARTESIAN_POINT('',(-0.0203578494350005,0.00263119665899598,0.0425479977481987));
#979=CARTESIAN_POINT('',(-0.0196472604361546,0.00122345001286912,0.0430780475284414));
#980=CARTESIAN_POINT('',(-0.0194359178389327,-1.09109442316535E-6,0.0432315002951085));
#981=CARTESIAN_POINT('',(-0.0196501195591305,-0.00123310534279634,0.043075948066843));
#982=CARTESIAN_POINT('',(-0.0203617931953996,-0.00263494007084478,0.0425449874798155));
#983=CARTESIAN_POINT('',(-0.0216571287648281,-0.00389922407193794,0.0415191414645664));
#984=CARTESIAN_POINT('',(-0.0233745338868785,-0.00480695370373618,0.0400175765421787));
#985=CARTESIAN_POINT('',(-0.0251395728362098,-0.00517124056285218,0.0383347644887483));
#986=CARTESIAN_POINT('',(-0.026852231705201,-0.00495886162039251,0.0365777361579116));
#987=CARTESIAN_POINT('',(-0.0284224145040483,-0.00408858783159321,0.034871594149608));
#988=CARTESIAN_POINT('',(-0.0296792211361719,-0.0024484073525298,0.033446209384873));
#989=CARTESIAN_POINT('',(-0.0302285645953804,1.61509383873269E-6,0.0328076274941079));
#990=CARTESIAN_POINT('',(-0.0296817767018487,0.00244194697717485,0.0334432806386952));
#991=CARTESIAN_POINT('',(-0.0300458760365904,-3.67955859157886E-18,0.03302));
#992=CARTESIAN_POINT('',(2.75996599460354E-18,1.14321534665333E-18,0.0455508362633591));
#993=CARTESIAN_POINT('',(2.98736566563111E-18,2.262967684655E-33,0.0455508362633591));
#994=CARTESIAN_POINT('',(2.75996599460354E-18,-1.14321534665333E-18,0.0455508362633591));
#995=CARTESIAN_POINT('',(2.11238652005162E-18,-2.11238652005162E-18,0.0455508362633591));
#996=CARTESIAN_POINT('',(1.14321534665333E-18,-2.75996599460354E-18,0.0455508362633591));
#997=CARTESIAN_POINT('',(4.02489265721551E-34,-2.98736566563111E-18,0.0455508362633591));
#998=CARTESIAN_POINT('',(-1.14321534665333E-18,-2.75996599460354E-18,0.0455508362633591));
#999=CARTESIAN_POINT('',(-2.11238652005162E-18,-2.11238652005162E-18,0.0455508362633591));
#1000=CARTESIAN_POINT('',(-2.75996599460354E-18,-1.14321534665333E-18,0.0455508362633591));
#1001=CARTESIAN_POINT('',(-2.98736566563111E-18,-4.39752436642618E-34,0.0455508362633591));
#1002=CARTESIAN_POINT('',(-2.75996599460354E-18,1.14321534665333E-18,0.0455508362633591));
#1003=CARTESIAN_POINT('',(-2.11238652005162E-18,2.11238652005162E-18,0.0455508362633591));
#1004=CARTESIAN_POINT('',(-1.14321534665333E-18,2.75996599460354E-18,0.0455508362633591));
#1005=CARTESIAN_POINT('',(-9.82525198191301E-34,2.98736566563111E-18,0.0455508362633591));
#1006=CARTESIAN_POINT('',(1.14321534665333E-18,2.75996599460354E-18,0.0455508362633591));
#1007=CARTESIAN_POINT('',(2.11238652005162E-18,2.11238652005162E-18,0.0455508362633591));
#1008=CARTESIAN_POINT('',(2.75996599460354E-18,1.14321534665333E-18,0.0455508362633591));
#1009=CARTESIAN_POINT('',(2.98736566563111E-18,2.262967684655E-33,0.0455508362633591));
#1010=CARTESIAN_POINT('',(2.75996599460354E-18,-1.14321534665333E-18,0.0455508362633591));
#1011=CARTESIAN_POINT('',(0.00515281135873528,0.00213436434913828,0.0455487095508247));
#1012=CARTESIAN_POINT('',(0.00557736282427311,4.17417836406919E-18,0.0455487095508246));
#1013=CARTESIAN_POINT('',(0.00515281135873528,-0.00213436434913829,0.0455487095508247));
#1014=CARTESIAN_POINT('',(0.00394379107418127,-0.00394379107418127,0.0455487095508247));
#1015=CARTESIAN_POINT('',(0.00213436434913829,-0.00515281135873528,0.0455487095508246));
#1016=CARTESIAN_POINT('',(1.40438062654763E-18,-0.00557736282427311,0.0455487095508247));
#1017=CARTESIAN_POINT('',(-0.00213436434913829,-0.00515281135873528,0.0455487095508246));
#1018=CARTESIAN_POINT('',(-0.00394379107418127,-0.00394379107418127,0.0455487095508247));
#1019=CARTESIAN_POINT('',(-0.00515281135873527,-0.00213436434913829,0.0455487095508246));
#1020=CARTESIAN_POINT('',(-0.00557736282427311,-9.49073947618842E-20,0.0455487095508246));
#1021=CARTESIAN_POINT('',(-0.00515281135873528,0.00213436434913828,0.0455487095508247));
#1022=CARTESIAN_POINT('',(-0.00394379107418128,0.00394379107418128,0.0455487095508246));
#1023=CARTESIAN_POINT('',(-0.00213436434913829,0.00515281135873527,0.0455487095508247));
#1024=CARTESIAN_POINT('',(4.98055372985529E-19,0.00557736282427311,0.0455487095508247));
#1025=CARTESIAN_POINT('',(0.00213436434913829,0.00515281135873528,0.0455487095508247));
#1026=CARTESIAN_POINT('',(0.00394379107418128,0.00394379107418127,0.0455487095508246));
#1027=CARTESIAN_POINT('',(0.00515281135873528,0.00213436434913828,0.0455487095508247));
#1028=CARTESIAN_POINT('',(0.00557736282427311,4.17417836406919E-18,0.0455487095508246));
#1029=CARTESIAN_POINT('',(0.00515281135873528,-0.00213436434913829,0.0455487095508247));
#1030=CARTESIAN_POINT('',(0.0119421552913357,0.00494660268563682,0.0441449631005675));
#1031=CARTESIAN_POINT('',(0.0129260957420223,9.75781955236954E-18,0.0441449631005674));
#1032=CARTESIAN_POINT('',(0.0119421552913357,-0.00494660268563685,0.0441449631005675));
#1033=CARTESIAN_POINT('',(0.0091401299534505,-0.00914012995345049,0.0441449631005674));
#1034=CARTESIAN_POINT('',(0.00494660268563685,-0.0119421552913357,0.0441449631005674));
#1035=CARTESIAN_POINT('',(1.10114283143059E-18,-0.0129260957420223,0.0441449631005675));
#1036=CARTESIAN_POINT('',(-0.00494660268563684,-0.0119421552913357,0.0441449631005674));
#1037=CARTESIAN_POINT('',(-0.00914012995345049,-0.0091401299534505,0.0441449631005675));
#1038=CARTESIAN_POINT('',(-0.0119421552913357,-0.00494660268563685,0.0441449631005674));
#1039=CARTESIAN_POINT('',(-0.0129260957420223,-2.98229051071908E-18,0.0441449631005675));
#1040=CARTESIAN_POINT('',(-0.0119421552913357,0.00494660268563685,0.0441449631005674));
#1041=CARTESIAN_POINT('',(-0.0091401299534505,0.00914012995345049,0.0441449631005675));
#1042=CARTESIAN_POINT('',(-0.00494660268563685,0.0119421552913357,0.0441449631005675));
#1043=CARTESIAN_POINT('',(-7.63007278886674E-18,0.0129260957420223,0.0441449631005674));
#1044=CARTESIAN_POINT('',(0.00494660268563685,0.0119421552913357,0.0441449631005675));
#1045=CARTESIAN_POINT('',(0.0091401299534505,0.00914012995345049,0.0441449631005674));
#1046=CARTESIAN_POINT('',(0.0119421552913357,0.00494660268563682,0.0441449631005675));
#1047=CARTESIAN_POINT('',(0.0129260957420223,9.75781955236954E-18,0.0441449631005674));
#1048=CARTESIAN_POINT('',(0.0119421552913357,-0.00494660268563685,0.0441449631005675));
#1049=CARTESIAN_POINT('',(0.0193841287612794,0.00802916902770826,0.0395888857576749));
#1050=CARTESIAN_POINT('',(0.0209812297806722,1.47451495458029E-17,0.0395888857576749));
#1051=CARTESIAN_POINT('',(0.0193841287612794,-0.0080291690277083,0.0395888857576749));
#1052=CARTESIAN_POINT('',(0.0148359698555465,-0.0148359698555465,0.0395888857576749));
#1053=CARTESIAN_POINT('',(0.0080291690277083,-0.0193841287612794,0.0395888857576749));
#1054=CARTESIAN_POINT('',(5.21094669150846E-18,-0.0209812297806723,0.0395888857576749));
#1055=CARTESIAN_POINT('',(-0.0080291690277083,-0.0193841287612794,0.0395888857576749));
#1056=CARTESIAN_POINT('',(-0.0148359698555465,-0.0148359698555465,0.0395888857576749));
#1057=CARTESIAN_POINT('',(-0.0193841287612794,-0.0080291690277083,0.0395888857576749));
#1058=CARTESIAN_POINT('',(-0.0209812297806723,-3.61919973005021E-18,0.0395888857576749));
#1059=CARTESIAN_POINT('',(-0.0193841287612794,0.0080291690277083,0.0395888857576749));
#1060=CARTESIAN_POINT('',(-0.0148359698555465,0.0148359698555465,0.0395888857576749));
#1061=CARTESIAN_POINT('',(-0.00802916902770831,0.0193841287612794,0.0395888857576749));
#1062=CARTESIAN_POINT('',(3.11708124589583E-19,0.0209812297806723,0.0395888857576749));
#1063=CARTESIAN_POINT('',(0.0080291690277083,0.0193841287612794,0.0395888857576749));
#1064=CARTESIAN_POINT('',(0.0148359698555465,0.0148359698555465,0.0395888857576749));
#1065=CARTESIAN_POINT('',(0.0193841287612794,0.00802916902770826,0.0395888857576749));
#1066=CARTESIAN_POINT('',(0.0209812297806722,1.47451495458029E-17,0.0395888857576749));
#1067=CARTESIAN_POINT('',(0.0193841287612794,-0.0080291690277083,0.0395888857576749));
#1068=CARTESIAN_POINT('',(0.0242552558327322,0.0100468559247468,0.0347703087629085));
#1069=CARTESIAN_POINT('',(0.0262536997294459,1.9298798670242E-17,0.0347703087629084));
#1070=CARTESIAN_POINT('',(0.0242552558327322,-0.0100468559247468,0.0347703087629084));
#1071=CARTESIAN_POINT('',(0.0185641691099267,-0.0185641691099267,0.0347703087629084));
#1072=CARTESIAN_POINT('',(0.0100468559247468,-0.0242552558327322,0.0347703087629084));
#1073=CARTESIAN_POINT('',(4.54687286086108E-18,-0.0262536997294459,0.0347703087629085));
#1074=CARTESIAN_POINT('',(-0.0100468559247468,-0.0242552558327322,0.0347703087629084));
#1075=CARTESIAN_POINT('',(-0.0185641691099267,-0.0185641691099267,0.0347703087629085));
#1076=CARTESIAN_POINT('',(-0.0242552558327322,-0.0100468559247468,0.0347703087629084));
#1077=CARTESIAN_POINT('',(-0.026253699729446,-2.0543195948877E-18,0.0347703087629085));
#1078=CARTESIAN_POINT('',(-0.0242552558327322,0.0100468559247468,0.0347703087629084));
#1079=CARTESIAN_POINT('',(-0.0185641691099267,0.0185641691099267,0.0347703087629084));
#1080=CARTESIAN_POINT('',(-0.0100468559247468,0.0242552558327322,0.0347703087629085));
#1081=CARTESIAN_POINT('',(-1.50568576703924E-17,0.026253699729446,0.0347703087629085));
#1082=CARTESIAN_POINT('',(0.0100468559247468,0.0242552558327322,0.0347703087629085));
#1083=CARTESIAN_POINT('',(0.0185641691099267,0.0185641691099266,0.0347703087629084));
#1084=CARTESIAN_POINT('',(0.0242552558327322,0.0100468559247468,0.0347703087629085));
#1085=CARTESIAN_POINT('',(0.0262536997294459,1.9298798670242E-17,0.0347703087629084));
#1086=CARTESIAN_POINT('',(0.0242552558327322,-0.0100468559247468,0.0347703087629084));
#1087=CARTESIAN_POINT('',(0.0284396374434753,0.0117800835380611,0.0284676643303715));
#1088=CARTESIAN_POINT('',(0.0307828417479612,2.16840434497101E-17,0.0284676643303715));
#1089=CARTESIAN_POINT('',(0.0284396374434753,-0.0117800835380612,0.0284676643303715));
#1090=CARTESIAN_POINT('',(0.0217667561441757,-0.0217667561441757,0.0284676643303715));
#1091=CARTESIAN_POINT('',(0.0117800835380612,-0.0284396374434753,0.0284676643303715));
#1092=CARTESIAN_POINT('',(3.55076211489003E-18,-0.0307828417479612,0.0284676643303715));
#1093=CARTESIAN_POINT('',(-0.0117800835380612,-0.0284396374434753,0.0284676643303715));
#1094=CARTESIAN_POINT('',(-0.0217667561441757,-0.0217667561441757,0.0284676643303715));
#1095=CARTESIAN_POINT('',(-0.0284396374434753,-0.0117800835380612,0.0284676643303715));
#1096=CARTESIAN_POINT('',(-0.0307828417479612,-5.37574753930862E-18,0.0284676643303715));
#1097=CARTESIAN_POINT('',(-0.0284396374434753,0.0117800835380612,0.0284676643303715));
#1098=CARTESIAN_POINT('',(-0.0217667561441757,0.0217667561441757,0.0284676643303715));
#1099=CARTESIAN_POINT('',(-0.0117800835380612,0.0284396374434753,0.0284676643303715));
#1100=CARTESIAN_POINT('',(-4.94667241196511E-18,0.0307828417479612,0.0284676643303715));
#1101=CARTESIAN_POINT('',(0.0117800835380612,0.0284396374434753,0.0284676643303715));
#1102=CARTESIAN_POINT('',(0.0217667561441757,0.0217667561441757,0.0284676643303715));
#1103=CARTESIAN_POINT('',(0.0284396374434753,0.0117800835380611,0.0284676643303715));
#1104=CARTESIAN_POINT('',(0.0307828417479612,2.16840434497101E-17,0.0284676643303715));
#1105=CARTESIAN_POINT('',(0.0284396374434753,-0.0117800835380612,0.0284676643303715));
#1106=CARTESIAN_POINT('',(0.0330717787784859,0.0136987793018515,0.018008837907508));
#1107=CARTESIAN_POINT('',(0.0357966353996285,2.66713734431434E-17,0.018008837907508));
#1108=CARTESIAN_POINT('',(0.0330717787784858,-0.0136987793018515,0.018008837907508));
#1109=CARTESIAN_POINT('',(0.0253120436347398,-0.0253120436347398,0.018008837907508));
#1110=CARTESIAN_POINT('',(0.0136987793018515,-0.0330717787784858,0.018008837907508));
#1111=CARTESIAN_POINT('',(6.35613523619627E-18,-0.0357966353996285,0.018008837907508));
#1112=CARTESIAN_POINT('',(-0.0136987793018515,-0.0330717787784858,0.018008837907508));
#1113=CARTESIAN_POINT('',(-0.0253120436347398,-0.0253120436347398,0.018008837907508));
#1114=CARTESIAN_POINT('',(-0.0330717787784858,-0.0136987793018515,0.018008837907508));
#1115=CARTESIAN_POINT('',(-0.0357966353996285,-5.68187054040224E-18,0.018008837907508));
#1116=CARTESIAN_POINT('',(-0.0330717787784858,0.0136987793018515,0.018008837907508));
#1117=CARTESIAN_POINT('',(-0.0253120436347398,0.0253120436347398,0.018008837907508));
#1118=CARTESIAN_POINT('',(-0.0136987793018515,0.0330717787784858,0.018008837907508));
#1119=CARTESIAN_POINT('',(-1.13570177567857E-17,0.0357966353996286,0.018008837907508));
#1120=CARTESIAN_POINT('',(0.0136987793018515,0.0330717787784858,0.018008837907508));
#1121=CARTESIAN_POINT('',(0.0253120436347398,0.0253120436347398,0.018008837907508));
#1122=CARTESIAN_POINT('',(0.0330717787784859,0.0136987793018515,0.018008837907508));
#1123=CARTESIAN_POINT('',(0.0357966353996285,2.66713734431434E-17,0.018008837907508));
#1124=CARTESIAN_POINT('',(0.0330717787784858,-0.0136987793018515,0.018008837907508));
#1125=CARTESIAN_POINT('',(0.0354209654204862,0.0146718442695137,0.00782370707403056));
#1126=CARTESIAN_POINT('',(0.0383393766979608,3.0140820395097E-17,0.00782370707403056));
#1127=CARTESIAN_POINT('',(0.0354209654204861,-0.0146718442695138,0.00782370707403056));
#1128=CARTESIAN_POINT('',(0.0271100332495936,-0.0271100332495936,0.00782370707403056));
#1129=CARTESIAN_POINT('',(0.0146718442695138,-0.0354209654204861,0.00782370707403056));
#1130=CARTESIAN_POINT('',(8.90401034153721E-18,-0.0383393766979608,0.00782370707403056));
#1131=CARTESIAN_POINT('',(-0.0146718442695138,-0.0354209654204861,0.00782370707403056));
#1132=CARTESIAN_POINT('',(-0.0271100332495936,-0.0271100332495936,0.00782370707403056));
#1133=CARTESIAN_POINT('',(-0.0354209654204861,-0.0146718442695138,0.00782370707403056));
#1134=CARTESIAN_POINT('',(-0.0383393766979608,-5.66299758754624E-18,0.00782370707403056));
#1135=CARTESIAN_POINT('',(-0.0354209654204862,0.0146718442695138,0.00782370707403056));
#1136=CARTESIAN_POINT('',(-0.0271100332495936,0.0271100332495936,0.00782370707403056));
#1137=CARTESIAN_POINT('',(-0.0146718442695138,0.0354209654204862,0.00782370707403056));
#1138=CARTESIAN_POINT('',(-5.14996031930615E-18,0.0383393766979608,0.00782370707403056));
#1139=CARTESIAN_POINT('',(0.0146718442695138,0.0354209654204862,0.00782370707403056));
#1140=CARTESIAN_POINT('',(0.0271100332495936,0.0271100332495936,0.00782370707403056));
#1141=CARTESIAN_POINT('',(0.0354209654204862,0.0146718442695137,0.00782370707403056));
#1142=CARTESIAN_POINT('',(0.0383393766979608,3.0140820395097E-17,0.00782370707403056));
#1143=CARTESIAN_POINT('',(0.0354209654204861,-0.0146718442695138,0.00782370707403056));
#1144=CARTESIAN_POINT('',(0.0364520493273063,0.0150989332076632,-4.17417836406919E-18));
#1145=CARTESIAN_POINT('',(0.0394554138765499,2.94902990916057E-17,-4.17417836406919E-18));
#1146=CARTESIAN_POINT('',(0.0364520493273063,-0.0150989332076633,-4.17417836406919E-18));
#1147=CARTESIAN_POINT('',(0.0278991907066303,-0.0278991907066303,-4.17417836406919E-18));
#1148=CARTESIAN_POINT('',(0.0150989332076633,-0.0364520493273063,-4.17417836406919E-18));
#1149=CARTESIAN_POINT('',(7.04731412115578E-18,-0.03945541387655,-4.17417836406919E-18));
#1150=CARTESIAN_POINT('',(-0.0150989332076633,-0.0364520493273063,-4.17417836406919E-18));
#1151=CARTESIAN_POINT('',(-0.0278991907066303,-0.0278991907066303,-4.17417836406919E-18));
#1152=CARTESIAN_POINT('',(-0.0364520493273063,-0.0150989332076633,-4.17417836406919E-18));
#1153=CARTESIAN_POINT('',(-0.03945541387655,-5.40896711270875E-18,-4.17417836406919E-18));
#1154=CARTESIAN_POINT('',(-0.0364520493273063,0.0150989332076633,-4.17417836406919E-18));
#1155=CARTESIAN_POINT('',(-0.0278991907066303,0.0278991907066303,-4.17417836406919E-18));
#1156=CARTESIAN_POINT('',(-0.0150989332076633,0.0364520493273063,-4.17417836406919E-18));
#1157=CARTESIAN_POINT('',(-8.59230221694762E-18,0.03945541387655,-4.17417836406919E-18));
#1158=CARTESIAN_POINT('',(0.0150989332076633,0.0364520493273063,-4.17417836406919E-18));
#1159=CARTESIAN_POINT('',(0.0278991907066303,0.0278991907066303,-4.17417836406919E-18));
#1160=CARTESIAN_POINT('',(0.0364520493273063,0.0150989332076632,-4.17417836406919E-18));
#1161=CARTESIAN_POINT('',(0.0394554138765499,2.94902990916057E-17,-4.17417836406919E-18));
#1162=CARTESIAN_POINT('',(0.0364520493273063,-0.0150989332076633,-4.17417836406919E-18));
#1163=CARTESIAN_POINT('',(0.013737134408423,-0.001327967865513,0.0430531096684944));
#1164=CARTESIAN_POINT('',(0.0133226744884374,3.30146709988008E-7,0.0432433475821691));
#1165=CARTESIAN_POINT('',(0.013736351224053,0.00132664727867304,0.043053500002829));
#1166=CARTESIAN_POINT('',(0.0145549112922622,0.00232654761166974,0.0426513050951367));
#1167=CARTESIAN_POINT('',(0.0155073704206351,0.00312188325280801,0.0421412437859565));
#1168=CARTESIAN_POINT('',(0.0168586037740179,0.00397192187575738,0.0413542059887711));
#1169=CARTESIAN_POINT('',(0.0186166886950646,0.00471945989737034,0.0401995587242715));
#1170=CARTESIAN_POINT('',(0.020712028562482,0.00514599574277561,0.0386108534372161));
#1171=CARTESIAN_POINT('',(0.022755541527965,0.00503732826142461,0.0368670115892228));
#1172=CARTESIAN_POINT('',(0.0246392632459034,0.00426784980889488,0.0351015278633107));
#1173=CARTESIAN_POINT('',(0.0259360439523181,0.0029129433590622,0.0337988310479502));
#1174=CARTESIAN_POINT('',(0.0265719268051278,0.00134550794924886,0.0331426015686681));
#1175=CARTESIAN_POINT('',(0.0267473771813023,8.85020817887204E-6,0.0329596168728283));
#1176=CARTESIAN_POINT('',(0.0265754259990749,-0.00133404934661519,0.0331389669604907));
#1177=CARTESIAN_POINT('',(0.025940688964474,-0.00290677371336795,0.0337940943161469));
#1178=CARTESIAN_POINT('',(0.0246421614070628,-0.00426707241901213,0.0350988885438488));
#1179=CARTESIAN_POINT('',(0.0227556242073757,-0.00503608641467652,0.03686659685289));
#1180=CARTESIAN_POINT('',(0.0207293624625096,-0.00514712202999957,0.0385967736077814));
#1181=CARTESIAN_POINT('',(0.0186202875861209,-0.00472177840528205,0.0401974950030537));
#1182=CARTESIAN_POINT('',(0.0168590944310122,-0.00397192693365985,0.0413538388685276));
#1183=CARTESIAN_POINT('',(0.0155087945944753,-0.00312310291284935,0.0421404775336945));
#1184=CARTESIAN_POINT('',(0.0145534034635607,-0.00232493792132523,0.0426520870129988));
#1185=CARTESIAN_POINT('',(0.013737134408423,-0.001327967865513,0.0430531096684944));
#1186=CARTESIAN_POINT('',(0.0133226744884374,3.30146709988008E-7,0.0432433475821691));
#1187=CARTESIAN_POINT('',(0.013736351224053,0.00132664727867304,0.043053500002829));
#1188=CARTESIAN_POINT('',(0.0134606972643712,2.18210195831302E-17,0.04318));
#1189=CARTESIAN_POINT('',(-0.026207242028354,-0.00263631810321673,0.0335254111710979));
#1190=CARTESIAN_POINT('',(-0.0268079670434384,-0.00045422954159399,0.0328961187174817));
#1191=CARTESIAN_POINT('',(-0.0265726589913752,0.00134487679551253,0.0331419040743134));
#1192=CARTESIAN_POINT('',(-0.0259340467057644,0.00291690488352121,0.0338008591408816));
#1193=CARTESIAN_POINT('',(-0.0246330177389836,0.00427279778128378,0.0351077314965642));
#1194=CARTESIAN_POINT('',(-0.0227437292657006,0.0050401097144895,0.0368777070233639));
#1195=CARTESIAN_POINT('',(-0.0206998846716089,0.00514457849959765,0.038620513049067));
#1196=CARTESIAN_POINT('',(-0.0186066846440983,0.0047168611740808,0.0402068703202541));
#1197=CARTESIAN_POINT('',(-0.0168387276330537,0.00396186687795252,0.0413666254375567));
#1198=CARTESIAN_POINT('',(-0.0154891370522574,0.00310910977340242,0.0421514422695656));
#1199=CARTESIAN_POINT('',(-0.0145329124099904,0.00230482904512272,0.0426626271327384));
#1200=CARTESIAN_POINT('',(-0.0137200446371377,0.00130078710118588,0.0430611185699543));
#1201=CARTESIAN_POINT('',(-0.0133228454924606,-3.76750659773258E-5,0.0432432789960491));
#1202=CARTESIAN_POINT('',(-0.0137542338129707,-0.00135446204676851,0.0430450802474281));
#1203=CARTESIAN_POINT('',(-0.0145749992503798,-0.0023462837133593,0.0426409924610865));
#1204=CARTESIAN_POINT('',(-0.0155306496949594,-0.0031384067254653,0.0421282197665933));
#1205=CARTESIAN_POINT('',(-0.016877685013513,-0.00398103782357808,0.0413421558810363));
#1206=CARTESIAN_POINT('',(-0.0186347182545065,-0.00472556052737612,0.0401869135766077));
#1207=CARTESIAN_POINT('',(-0.0207321689513198,-0.00514689394695787,0.0385943847528342));
#1208=CARTESIAN_POINT('',(-0.0227612547243683,-0.00503557434920045,0.0368615270666257));
#1209=CARTESIAN_POINT('',(-0.0246442470990452,-0.00426317134815272,0.0350970503258028));
#1210=CARTESIAN_POINT('',(-0.026207242028354,-0.00263631810321673,0.0335254111710979));
#1211=CARTESIAN_POINT('',(-0.0268079670434384,-0.00045422954159399,0.0328961187174817));
#1212=CARTESIAN_POINT('',(-0.0265726589913752,0.00134487679551253,0.0331419040743134));
#1213=CARTESIAN_POINT('',(-0.0266894826917451,-3.26851895493443E-18,0.03302));
#1214=CARTESIAN_POINT('',(3.24334264513358E-18,0.,0.0455508362633591));
#1215=CARTESIAN_POINT('',(-0.134976943981779,8.67361737988404E-19,0.0381));
#1216=CARTESIAN_POINT('',(-0.134976943981779,8.67361737988404E-19,0.0381));
#1217=CARTESIAN_POINT('',(0.0053975,0.136923326521711,-0.0126950378507419));
#1218=CARTESIAN_POINT('',(0.005715,0.136923326521711,-0.00254));
#1219=CARTESIAN_POINT('',(-0.0053975,0.136923326521711,-0.0126950378507419));
#1220=CARTESIAN_POINT('',(-0.005715,0.136923326521711,-0.00254));
#1221=CARTESIAN_POINT('',(0.,0.136923326521711,-0.00254));
#1222=CARTESIAN_POINT('',(0.,0.136923326521711,-0.00254));
#1223=CARTESIAN_POINT('',(-0.005715,0.136923326521711,-0.00254));
#1224=CARTESIAN_POINT('',(0.005715,0.136923326521711,-0.00254));
#1225=CARTESIAN_POINT('',(-0.0053975,0.136923326521711,-0.0126950378507419));
#1226=CARTESIAN_POINT('',(0.0053975,0.136923326521711,-0.0126950378507419));
#1227=CARTESIAN_POINT('',(-0.0387228876011975,0.000960634206421673,-0.02794));
#1228=CARTESIAN_POINT('',(-0.0387228876011975,0.000960634206421673,-0.00254));
#1229=CARTESIAN_POINT('',(-0.0393578876011975,0.000960634206421673,-0.00254));
#1230=CARTESIAN_POINT('',(-0.0393578876011975,0.000960634206421673,-0.02794));
#1231=CARTESIAN_POINT('',(-0.0393578876011975,0.,-0.02794));
#1232=CARTESIAN_POINT('',(-0.0393578876011975,0.,-0.00254));
#1233=CARTESIAN_POINT('',(-0.0393578876011975,-0.000960634206421673,-0.00254));
#1234=CARTESIAN_POINT('',(-0.0393578876011975,-0.000960634206421673,-0.02794));
#1235=CARTESIAN_POINT('',(-0.0387228876011975,-0.000960634206421673,-0.02794));
#1236=CARTESIAN_POINT('',(-0.0387228876011975,-0.000960634206421673,-0.00254));
#1237=CARTESIAN_POINT('',(0.,0.,-0.00254));
#1238=CARTESIAN_POINT('',(0.0393578876011975,0.,-0.02794));
#1239=CARTESIAN_POINT('',(0.0393578876011975,-0.000960634206421673,-0.02794));
#1240=CARTESIAN_POINT('',(0.0393578876011975,-0.000960634206421673,-0.00254));
#1241=CARTESIAN_POINT('',(0.0393578876011975,0.,-0.00254));
#1242=CARTESIAN_POINT('',(0.0393578876011975,0.000960634206421673,-0.00254));
#1243=CARTESIAN_POINT('',(0.0393578876011975,0.000960634206421673,-0.02794));
#1244=CARTESIAN_POINT('',(0.0387228876011975,0.000960634206421673,-0.02794));
#1245=CARTESIAN_POINT('',(0.0387228876011975,0.000960634206421673,-0.00254));
#1246=CARTESIAN_POINT('',(0.0387228876011975,-0.000960634206421673,-0.02794));
#1247=CARTESIAN_POINT('',(0.0387228876011975,-0.000960634206421673,-0.00254));
#1248=CARTESIAN_POINT('',(0.,0.,-0.00254));
#1249=MECHANICAL_DESIGN_GEOMETRIC_PRESENTATION_REPRESENTATION('',(#438),
#1250);
#1250=(
GEOMETRIC_REPRESENTATION_CONTEXT(3)
GLOBAL_UNCERTAINTY_ASSIGNED_CONTEXT((#1251))
GLOBAL_UNIT_ASSIGNED_CONTEXT((#1254,#1253,#1252))
REPRESENTATION_CONTEXT('Head','TOP_LEVEL_ASSEMBLY_PART')
);
#1251=UNCERTAINTY_MEASURE_WITH_UNIT(LENGTH_MEASURE(2.E-5),#1254,
'DISTANCE_ACCURACY_VALUE','Maximum Tolerance applied to model');
#1252=(
NAMED_UNIT(*)
SI_UNIT($,.STERADIAN.)
SOLID_ANGLE_UNIT()
);
#1253=(
NAMED_UNIT(*)
PLANE_ANGLE_UNIT()
SI_UNIT($,.RADIAN.)
);
#1254=(
LENGTH_UNIT()
NAMED_UNIT(*)
SI_UNIT($,.METRE.)
);
#1255=PRODUCT_DEFINITION_SHAPE('','',#1256);
#1256=PRODUCT_DEFINITION('','',#1258,#1257);
#1257=PRODUCT_DEFINITION_CONTEXT('',#1264,'design');
#1258=PRODUCT_DEFINITION_FORMATION_WITH_SPECIFIED_SOURCE('','',#1260,
 .NOT_KNOWN.);
#1259=PRODUCT_RELATED_PRODUCT_CATEGORY('','',(#1260));
#1260=PRODUCT('Head','Head','Head',(#1262));
#1261=PRODUCT_CATEGORY('','');
#1262=PRODUCT_CONTEXT('',#1264,'mechanical');
#1263=APPLICATION_PROTOCOL_DEFINITION('international standard',
'ap242_managed_model_based_3d_engineering',2020,#1264);
#1264=APPLICATION_CONTEXT('managed model based 3d engineering');
ENDSEC;
END-ISO-10303-21;
